<?xml version="1.0" encoding="UTF-8" standalone="no"?>
<!DOCTYPE svg PUBLIC "-//W3C//DTD SVG 1.1//EN" "http://www.w3.org/Graphics/SVG/1.1/DTD/svg11.dtd">
<svg width="100%" height="100%" viewBox="0 0 244 209" version="1.1" xmlns="http://www.w3.org/2000/svg" xmlns:xlink="http://www.w3.org/1999/xlink" xml:space="preserve" xmlns:serif="http://www.serif.com/" style="fill-rule:evenodd;clip-rule:evenodd;stroke-linecap:round;stroke-linejoin:round;stroke-miterlimit:10;">
    <g transform="matrix(4.16667,0,0,4.16667,12.706,99.63)">
        <path d="M0,-21.718C0.461,-21.363 4.979,-19.454 5.867,-19.233C6.754,-19.012 7.47,-17.086 7.629,-17.026C7.788,-16.966 8.193,-16.881 8.442,-16.901C8.692,-16.92 9.089,-16.748 9.37,-16.675C9.652,-16.603 9.514,-16.042 9.8,-16.013C10.087,-15.985 10.16,-15.89 10.197,-15.445C10.402,-15.424 10.695,-15.041 10.787,-14.723C11.072,-14.695 11.129,-14.424 11.335,-14.006C11.548,-14.073 11.755,-13.655 11.638,-13.313C11.521,-12.971 12.164,-11.14 12.532,-11.103C12.9,-11.067 13.549,-13.432 13.121,-14.932C12.692,-16.432 15.503,-17.697 16.521,-17.95C17.537,-18.202 22.233,-19.323 22.969,-19.648C23.703,-19.972 23.957,-20.035 24.104,-19.844C24.25,-19.652 23.806,-19.343 23.802,-19.3C24.113,-19.533 24.612,-19.572 24.8,-19.377C24.987,-19.181 24.145,-18.603 24.358,-18.67C24.57,-18.737 25.433,-19.093 25.426,-18.608C25.422,-18.338 25.122,-18.168 24.855,-18.069C25.006,-18.075 25.156,-18.027 25.225,-17.832C25.386,-17.375 24.614,-17.098 24.32,-16.642C24.482,-16.184 23.487,-16.151 23.611,-15.74C23.736,-15.331 22.645,-15.572 22.887,-15.106C23.089,-14.644 22.735,-14.415 21.878,-14.102C22.188,-13.895 22.05,-13.334 21.483,-13.038C21.666,-12.799 21.422,-12.426 20.61,-12.153C20.611,-11.755 20.398,-11.688 19.854,-11.61C19.892,-11.165 19.105,-11.155 18.712,-10.929C18.712,-10.929 18.896,-10.292 18.62,-10.01C18.688,-9.871 18.662,-9.609 18.395,-9.415C18.55,-9.311 18.524,-9.048 18.293,-8.806C18.488,-8.698 18.519,-8.166 18.201,-7.887C18.479,-7.772 18.664,-7.135 18.664,-7.135C18.664,-7.135 19.545,-6.031 20.164,-5.616C20.784,-5.201 22.331,-4.561 23.254,-4.292C24.178,-4.024 24.01,-3.995 23.637,-3.989C23.265,-3.982 22.247,-4.127 21.719,-4.223C22.315,-3.988 28.036,-2.534 28.505,-2.266C26.466,-2.116 21.025,-3.896 21.299,-3.736C21.572,-3.576 25.002,-2.351 24.67,-2.34C23.249,-2.172 20.366,-3.917 20.978,-3.415C21.624,-2.864 23.678,-1.908 23.187,-1.958C21.396,-2.224 17.761,-4.614 17.687,-4.637C17.611,-4.661 17.687,-4.637 17.358,-4.455C17.03,-4.272 16.64,-4.708 16.562,-4.551C16.484,-4.392 16.093,-3.107 15.866,-2.848C15.639,-2.589 15.622,-2.888 15.493,-2.686C15.365,-2.484 15.493,-2.222 15.697,-1.937C15.901,-1.652 16.004,-1.128 15.949,-0.736C15.895,-0.344 15.714,-0.395 15.714,-0.395C15.714,-0.395 15.546,-0.262 15.483,-0.253C15.42,-0.242 15.535,-0.463 15.535,-0.463C15.535,-0.463 15.545,-0.726 15.65,-0.848C15.756,-0.97 15.469,-1.662 15.396,-1.702C15.322,-1.742 14.911,-1.353 14.819,-1.213C14.729,-1.073 14.77,-0.704 14.726,-0.576C14.682,-0.448 14.524,-0.43 14.447,-0.273C14.37,-0.114 14.58,0.105 14.471,0.11C14.362,0.116 14.233,-0.311 14.238,-0.36C14.243,-0.409 14.208,-0.512 14.246,-0.74C14.284,-0.968 14.475,-1.165 14.475,-1.165L14.117,-1.001C14.117,-1.001 14.037,-0.976 13.959,-0.967C13.881,-0.959 14.008,-1.145 14.14,-1.38C14.271,-1.615 14.846,-1.939 15.029,-2.385C15.214,-2.83 15.06,-3.309 14.872,-3.444C14.684,-3.578 14.274,-4.447 14.154,-4.642C14.035,-4.836 14.184,-3.843 14.173,-3.58C14.162,-3.316 13.591,-2.876 13.533,-2.6C13.475,-2.324 13.754,-2.33 13.907,-2.315C14.061,-2.3 14.116,-2.078 14.158,-2.041C14.201,-2.004 14.305,-1.944 14.274,-1.797C14.243,-1.652 14.072,-1.95 13.992,-1.925C13.912,-1.9 13.649,-2.058 13.587,-2.048C13.523,-2.038 13.396,-1.686 13.384,-1.572C13.372,-1.457 13.396,-1.073 13.356,-0.978C13.315,-0.883 13.273,-0.771 13.237,-0.725C13.202,-0.678 13.233,-0.527 13.341,-0.367C13.449,-0.207 13.057,-0.461 13.005,-0.566C12.953,-0.67 12.923,-0.839 12.903,-0.791C12.883,-0.744 12.815,-0.535 12.721,-0.511C12.625,-0.488 12.56,-0.295 12.589,-0.127C12.619,0.042 12.689,0.115 12.54,0.051C12.393,-0.014 12.365,-0.364 12.344,-0.615C12.322,-0.866 12.479,-1.114 12.679,-1.52C12.879,-1.925 13.177,-2.918 13.364,-3.197C13.552,-3.477 12.71,-4.625 12.474,-4.648C12.236,-4.672 10.758,-5.416 10.516,-5.78C10.273,-6.145 9.77,-6.281 8.858,-6.329C7.946,-6.378 7.566,-6.16 7.262,-6.701C7.123,-6.502 6.707,-6.331 6.707,-6.331C6.707,-6.331 6.806,-6.109 6.56,-6.047C5.897,-6.199 5.55,-6.702 5.601,-7.208C4.999,-7.566 4.797,-8.736 5.616,-9.761C6.435,-10.786 7.751,-10.4 8.013,-10.63C8.238,-10.828 8.464,-11.917 8.535,-12.344C8.547,-12.412 8.554,-12.463 8.557,-12.491C8.557,-12.491 8.746,-12.895 8.24,-13.21C7.566,-13.498 5.94,-14.588 5.546,-15.599C5.15,-16.611 4.055,-18.045 3.449,-18.193C2.845,-18.342 2.942,-18.906 2.942,-18.906C2.942,-18.906 2.656,-18.935 1.97,-19.093C1.282,-19.249 1.739,-19.689 1.617,-19.701C1.494,-19.713 0.931,-19.858 0.675,-20.193C0.419,-20.527 0.95,-20.474 1.15,-20.41C1.352,-20.346 1.087,-20.593 0.572,-20.821C0.058,-21.05 -0.276,-21.834 0,-21.718Z" style="fill:none;fill-rule:nonzero;stroke:black;stroke-width:0.45px;"/>
    </g>
    <g transform="matrix(4.16667,0,0,4.16667,130.304,136.873)">
        <path d="M0,12.431C-0.13,12.58 -0.559,13.493 0.392,14.015C0.484,14.034 0.521,13.941 0.447,13.829C0.373,13.717 0.466,13.55 0.56,13.605C0.652,13.661 1.229,13.699 1.491,13.531C1.696,13.922 2.964,14.258 3.746,14.146C4.492,15.077 7.754,15.488 8.909,15.339C10.064,15.189 11.892,14.593 11.984,14.574C12.077,14.556 13.196,14.835 13.531,14.742C13.866,14.649 13.979,14.63 14.053,14.518C14.128,14.407 14.295,14.351 14.184,14.332C14.071,14.313 13.997,14.369 13.997,14.369C13.997,14.369 13.904,14.22 13.83,14.22C13.755,14.22 13.4,14.295 13.345,14.295C13.289,14.295 13.55,14.202 13.513,14.146C13.476,14.09 13.513,14.015 13.513,14.015C13.513,14.015 14.053,13.941 14.109,13.885C14.165,13.829 14.91,13.978 15.189,13.978C15.47,13.978 15.619,13.866 15.619,13.866C15.619,13.866 17.558,14.108 18.266,14.183C18.974,14.258 19.234,14.146 19.234,14.146C19.234,14.146 22.403,14.22 23.018,14.295C23.633,14.369 25.665,14.518 25.963,14.407C26.262,14.295 24.789,14.146 23.708,13.904C23.95,14.034 24.565,13.997 24.304,13.866C24.043,13.736 22.03,13.419 19.831,13.121C17.632,12.822 16.904,12.561 15.787,12.412C14.668,12.263 12.768,11.667 12.563,11.369C12.357,11.071 12.487,10.791 12.487,10.791C12.301,10.623 12.637,10.176 12.395,10.083C12.655,9.71 12.637,9.263 12.544,9.132C12.6,8.852 12.637,8.647 12.506,8.517C12.581,8.144 12.563,7.753 12.432,7.548C12.301,7.343 12.469,7.045 12.152,6.84C12.282,6.448 12.096,6.019 11.91,5.889C11.947,5.572 11.929,5.162 11.779,5.069C12.115,4.64 12.282,4.268 12.152,4.137C12.282,3.745 12.563,3.093 12.301,2.963C12.395,2.423 12.45,1.882 12.208,1.807C12.376,1.416 12.432,0.633 12.301,0.577C12.6,0.242 12.805,-0.318 12.655,-0.448C12.563,-0.615 12.805,-1.212 13.084,-1.51C13.363,-1.808 13.158,-1.846 12.954,-1.79C12.99,-2.218 13.178,-2.517 12.954,-2.442C12.729,-2.368 11.63,-1.622 11.667,-1.678C11.705,-1.734 12.264,-2.796 12.059,-2.927C11.854,-3.057 11.016,-2.2 10.791,-1.976C10.866,-2.386 10.903,-3.02 10.698,-2.908C10.493,-2.796 8.48,-0.112 7.549,0.782C6.616,1.677 4.604,3.261 4.716,3.876C4.827,4.491 4.79,5.759 4.79,5.759C4.79,5.759 4.212,6.355 3.896,6.43C3.578,6.504 3.411,7.194 3.783,7.865C4.156,8.536 4.566,10.511 4.269,10.418C3.97,10.325 2.931,10.165 2.441,10.101C1.584,9.989 0.743,10.273 0.317,10.828C-0.298,11.63 0,12.431 0,12.431Z" style="fill:none;fill-rule:nonzero;stroke:black;stroke-width:0.45px;"/>
    </g>
</svg>
