<?xml version="1.0" encoding="UTF-8" standalone="no"?>
<!DOCTYPE svg PUBLIC "-//W3C//DTD SVG 1.1//EN" "http://www.w3.org/Graphics/SVG/1.1/DTD/svg11.dtd">
<svg width="100%" height="100%" viewBox="0 0 899 1355" version="1.1" xmlns="http://www.w3.org/2000/svg" xmlns:xlink="http://www.w3.org/1999/xlink" xml:space="preserve" xmlns:serif="http://www.serif.com/" style="fill-rule:evenodd;clip-rule:evenodd;stroke-linejoin:round;stroke-miterlimit:2;">
    <g transform="matrix(-8.33333,0,0,8.33333,2147.11,-54996.9)">
        <rect x="177.128" y="6676.61" width="15.63" height="15.63" style="fill:rgb(244,244,242);"/>
    </g>
    <g transform="matrix(0,-8.33333,-8.33333,0,821.767,116.734)">
        <path d="M-9.155,-9.155C-14.211,-9.155 -18.31,-5.056 -18.31,0C-18.31,5.056 -14.211,9.155 -9.155,9.155C-4.099,9.155 0,5.056 0,0C0,-5.056 -4.099,-9.155 -9.155,-9.155" style="fill:rgb(244,244,242);fill-rule:nonzero;"/>
    </g>
    <g transform="matrix(8.33333,0,0,8.33333,444.926,1354.23)">
        <path d="M0,-12.426L7.174,0L-7.174,0L0,-12.426Z" style="fill:rgb(244,244,242);fill-rule:nonzero;"/>
    </g>
    <g transform="matrix(8.33333,0,0,8.33333,270.479,145.9)">
        <path d="M0,-17.508L10.108,0L-10.108,0L0,-17.508Z" style="fill:rgb(244,244,242);fill-rule:nonzero;"/>
    </g>
    <g transform="matrix(8.33333,0,0,8.33333,108.158,632.985)">
        <path d="M0,17.323L-3.44,13.464L-6.334,17.748L-6.489,12.581L-11.459,14.003L-8.257,9.945L-12.979,7.839L-7.917,6.789L-10.18,2.141L-5.627,4.59L-4.374,-0.425L-2.46,4.378L1.724,1.342L0.103,6.25L5.259,6.614L0.862,9.332L4.579,12.926L-0.537,12.181L0,17.323Z" style="fill:rgb(244,244,242);fill-rule:nonzero;"/>
    </g>
</svg>
