<?xml version="1.0" encoding="UTF-8" standalone="no"?>
<!DOCTYPE svg PUBLIC "-//W3C//DTD SVG 1.1//EN" "http://www.w3.org/Graphics/SVG/1.1/DTD/svg11.dtd">
<svg width="100%" height="100%" viewBox="0 0 259 255" version="1.1" xmlns="http://www.w3.org/2000/svg" xmlns:xlink="http://www.w3.org/1999/xlink" xml:space="preserve" xmlns:serif="http://www.serif.com/" style="fill-rule:evenodd;clip-rule:evenodd;stroke-linecap:round;stroke-linejoin:round;stroke-miterlimit:10;">
    <g transform="matrix(4.16667,0,0,4.16667,165.45,36.1953)">
        <path d="M0,-7.607C-1.421,-6.248 -3.137,-5.2 -5.002,-4.578C-5.621,-4.371 -6.294,-4.186 -6.717,-3.689C-7.382,-2.909 -7.129,-1.66 -6.473,-0.872C-6.163,-0.5 -5.755,-0.182 -5.278,-0.093C-4.776,0 -4.251,-0.173 -3.837,-0.473C-3.424,-0.772 -3.108,-1.188 -2.836,-1.62C-1.656,-3.491 -1.045,-5.657 0,-7.607" style="fill:none;fill-rule:nonzero;stroke:black;stroke-width:0.55px;"/>
    </g>
    <g transform="matrix(4.16667,0,0,4.16667,252.655,123.4)">
        <path d="M0,-7.607C-1.421,-6.249 -3.137,-5.2 -5.002,-4.578C-5.621,-4.371 -6.294,-4.186 -6.718,-3.689C-7.382,-2.909 -7.129,-1.66 -6.474,-0.872C-6.163,-0.5 -5.755,-0.182 -5.278,-0.093C-4.776,0 -4.251,-0.173 -3.837,-0.473C-3.424,-0.772 -3.108,-1.188 -2.836,-1.62C-1.656,-3.491 -1.046,-5.658 0,-7.607" style="fill:none;fill-rule:nonzero;stroke:black;stroke-width:0.55px;"/>
    </g>
    <g transform="matrix(4.16667,0,0,4.16667,37.0663,164.581)">
        <path d="M0,-7.607C-1.421,-6.249 -3.137,-5.2 -5.002,-4.578C-5.622,-4.371 -6.294,-4.186 -6.717,-3.689C-7.382,-2.909 -7.129,-1.66 -6.474,-0.872C-6.163,-0.5 -5.755,-0.182 -5.278,-0.094C-4.776,0 -4.251,-0.173 -3.837,-0.473C-3.424,-0.773 -3.109,-1.188 -2.836,-1.62C-1.656,-3.491 -1.046,-5.658 0,-7.607" style="fill:none;fill-rule:nonzero;stroke:black;stroke-width:0.55px;"/>
    </g>
    <g transform="matrix(4.16667,0,0,4.16667,124.269,251.786)">
        <path d="M0,-7.607C-1.421,-6.249 -3.137,-5.2 -5.002,-4.578C-5.621,-4.371 -6.293,-4.186 -6.717,-3.689C-7.382,-2.909 -7.129,-1.66 -6.473,-0.873C-6.163,-0.5 -5.755,-0.183 -5.278,-0.094C-4.776,0 -4.25,-0.174 -3.837,-0.473C-3.423,-0.773 -3.108,-1.188 -2.836,-1.62C-1.656,-3.491 -1.045,-5.658 0,-7.607" style="fill:none;fill-rule:nonzero;stroke:black;stroke-width:0.55px;"/>
    </g>
    <g transform="matrix(4.16667,0,0,4.16667,57.6554,56.7865)">
        <path d="M0,-7.607C-1.421,-6.249 -3.137,-5.2 -5.002,-4.578C-5.621,-4.371 -6.294,-4.186 -6.717,-3.689C-7.382,-2.909 -7.129,-1.66 -6.473,-0.873C-6.163,-0.5 -5.755,-0.183 -5.278,-0.094C-4.776,0 -4.251,-0.174 -3.837,-0.473C-3.424,-0.773 -3.108,-1.188 -2.836,-1.62C-1.656,-3.491 -1.045,-5.658 0,-7.607" style="fill:none;fill-rule:nonzero;stroke:black;stroke-width:0.55px;"/>
    </g>
    <g transform="matrix(4.16667,0,0,4.16667,144.86,143.989)">
        <path d="M0,-7.607C-1.421,-6.248 -3.137,-5.2 -5.002,-4.577C-5.622,-4.371 -6.294,-4.186 -6.717,-3.689C-7.382,-2.909 -7.129,-1.659 -6.474,-0.872C-6.163,-0.499 -5.755,-0.182 -5.278,-0.093C-4.776,0 -4.251,-0.173 -3.837,-0.473C-3.424,-0.772 -3.109,-1.188 -2.836,-1.62C-1.656,-3.491 -1.045,-5.657 0,-7.607" style="fill:none;fill-rule:nonzero;stroke:black;stroke-width:0.55px;"/>
    </g>
    <g transform="matrix(4.16667,0,0,4.16667,232.065,231.194)">
        <path d="M0,-7.607C-1.421,-6.248 -3.138,-5.2 -5.002,-4.577C-5.621,-4.371 -6.294,-4.186 -6.718,-3.689C-7.382,-2.909 -7.129,-1.66 -6.474,-0.872C-6.163,-0.5 -5.756,-0.182 -5.278,-0.093C-4.776,0 -4.251,-0.173 -3.838,-0.473C-3.424,-0.772 -3.108,-1.188 -2.836,-1.62C-1.656,-3.491 -1.046,-5.657 0,-7.607" style="fill:none;fill-rule:nonzero;stroke:black;stroke-width:0.55px;"/>
    </g>
</svg>
