<?xml version="1.0" encoding="UTF-8" standalone="no"?>
<!DOCTYPE svg PUBLIC "-//W3C//DTD SVG 1.1//EN" "http://www.w3.org/Graphics/SVG/1.1/DTD/svg11.dtd">
<svg width="100%" height="100%" viewBox="0 0 767 1157" version="1.1" xmlns="http://www.w3.org/2000/svg" xmlns:xlink="http://www.w3.org/1999/xlink" xml:space="preserve" xmlns:serif="http://www.serif.com/" style="fill-rule:evenodd;clip-rule:evenodd;stroke-linejoin:round;stroke-miterlimit:2;">
    <g transform="matrix(-8.33333,0,0,8.33333,2516.3,-28158)">
        <rect x="233.2" y="3444.69" width="13.346" height="13.346" style="fill:rgb(244,244,242);"/>
    </g>
    <g transform="matrix(0,-8.33333,-8.33333,0,701.667,99.6717)">
        <path d="M-7.817,-7.817C-12.134,-7.817 -15.634,-4.317 -15.634,0C-15.634,4.317 -12.134,7.817 -7.817,7.817C-3.5,7.817 0,4.317 0,0C0,-4.317 -3.5,-7.817 -7.817,-7.817" style="fill:rgb(244,244,242);fill-rule:nonzero;"/>
    </g>
    <g transform="matrix(8.33333,0,0,8.33333,379.903,1156.32)">
        <path d="M0,-10.61L3.063,-5.305L6.125,0L-6.125,0L-3.063,-5.305L0,-10.61Z" style="fill:rgb(244,244,242);fill-rule:nonzero;"/>
    </g>
    <g transform="matrix(8.33333,0,0,8.33333,230.948,124.575)">
        <path d="M0,-14.949L4.315,-7.475L8.631,0L-8.631,0L-4.315,-7.475L0,-14.949Z" style="fill:rgb(244,244,242);fill-rule:nonzero;"/>
    </g>
    <g transform="matrix(8.33333,0,0,8.33333,92.35,540.485)">
        <path d="M0,14.79L-2.938,11.495L-5.408,15.154L-5.541,10.741L-9.785,11.955L-7.05,8.49L-11.082,6.692L-6.759,5.796L-8.692,1.827L-4.805,3.918L-3.734,-0.364L-2.101,3.737L1.472,1.144L0.088,5.336L4.491,5.646L0.736,7.967L3.91,11.035L-0.458,10.4L0,14.79Z" style="fill:rgb(244,244,242);fill-rule:nonzero;"/>
    </g>
</svg>
