<?xml version="1.0" encoding="UTF-8" standalone="no"?><!DOCTYPE svg PUBLIC "-//W3C//DTD SVG 1.1//EN" "http://www.w3.org/Graphics/SVG/1.1/DTD/svg11.dtd"><svg width="100%" height="100%" viewBox="0 0 124 118" version="1.1" xmlns="http://www.w3.org/2000/svg" xmlns:xlink="http://www.w3.org/1999/xlink" xml:space="preserve" xmlns:serif="http://www.serif.com/" style="fill-rule:evenodd;clip-rule:evenodd;stroke-linejoin:round;stroke-miterlimit:2;"><path d="M27.477,117.137c16.293,-0.706 32.456,-3.381 48.75,-4.087c0.868,-0.038 2.593,-0.281 2.993,-1.225c0.375,-0.881 -0.312,-1.313 -1.212,-1.275c-16.294,0.706 -32.456,3.381 -48.75,4.087c-0.869,0.038 -2.594,0.282 -2.994,1.225c-0.375,0.882 0.313,1.313 1.213,1.275" style="fill-rule:nonzero;"/><path d="M0.328,65.18c25.944,7.169 52.212,13.432 78.756,17.95c1.131,0.194 5.238,-1.656 2.881,-2.056c-26.275,-4.475 -52.275,-10.706 -77.956,-17.794c-1.144,-0.318 -5.175,1.488 -3.681,1.9" style="fill-rule:nonzero;"/><path d="M90.776,61.507l-45.431,-46.3c-1.05,-1.075 -5.338,0.587 -4.213,1.737c15.144,15.431 30.288,30.863 45.431,46.3c1.057,1.075 5.338,-0.594 4.213,-1.737" style="fill-rule:nonzero;"/><path d="M123.738,40.217c-7.263,-13.218 -14.525,-26.431 -21.788,-39.65c-0.775,-1.412 -5.168,0.044 -4.187,1.838c7.262,13.212 14.525,26.431 21.787,39.644c0.775,1.412 5.169,-0.044 4.188,-1.832" style="fill-rule:nonzero;"/></svg>