<?xml version="1.0" encoding="UTF-8" standalone="no"?>
<!DOCTYPE svg PUBLIC "-//W3C//DTD SVG 1.1//EN" "http://www.w3.org/Graphics/SVG/1.1/DTD/svg11.dtd">
<svg width="100%" height="100%" viewBox="0 0 169 161" version="1.1" xmlns="http://www.w3.org/2000/svg" xmlns:xlink="http://www.w3.org/1999/xlink" xml:space="preserve" xmlns:serif="http://www.serif.com/" style="fill-rule:evenodd;clip-rule:evenodd;stroke-linejoin:round;stroke-miterlimit:2;">
    <g transform="matrix(3.81485,-1.67573,-1.67573,-3.81485,26.0123,47.1134)">
        <path d="M-1.423,-0.299C-1.093,2.012 -0.764,4.322 -0.434,6.633C-0.343,7.269 -1.332,7.417 -1.423,6.778C-1.753,4.466 -2.083,2.156 -2.412,-0.155C-2.504,-0.791 -1.514,-0.938 -1.423,-0.299" style="fill:rgb(37,37,37);fill-rule:nonzero;"/>
    </g>
    <g transform="matrix(4.1618,0.201385,0.201385,-4.1618,58.0675,41.1928)">
        <path d="M0.208,-0.003C0.79,2.856 1.119,5.735 1.207,8.652C1.226,9.295 0.227,9.243 0.208,8.604C0.123,5.776 -0.205,2.986 -0.767,0.216C-0.896,-0.415 0.08,-0.635 0.208,-0.003" style="fill:rgb(37,37,37);fill-rule:nonzero;"/>
    </g>
    <g transform="matrix(3.79096,1.72908,1.72908,-3.79096,88.297,51.6235)">
        <path d="M1.886,-0.41C2.218,2.586 2.549,5.582 2.881,8.578C2.952,9.219 1.957,9.319 1.886,8.68C1.554,5.683 1.223,2.687 0.89,-0.309C0.82,-0.95 1.815,-1.05 1.886,-0.41" style="fill:rgb(37,37,37);fill-rule:nonzero;"/>
    </g>
    <g transform="matrix(2.63351,3.22889,3.22889,-2.63351,117.355,65.7566)">
        <path d="M3.093,-1.473C3.979,1.017 4.318,3.6 4.088,6.235C4.032,6.876 3.036,6.775 3.093,6.134C3.307,3.671 3.006,1.259 2.178,-1.07C1.963,-1.672 2.877,-2.082 3.093,-1.473" style="fill:rgb(37,37,37);fill-rule:nonzero;"/>
    </g>
    <g transform="matrix(1.56392,3.86203,3.86203,-1.56392,137.211,97.5735)">
        <path d="M3.133,-2.111C3.464,0.103 3.794,2.318 4.126,4.533C4.22,5.169 3.228,5.286 3.133,4.648C2.801,2.434 2.47,0.219 2.139,-1.996C2.045,-2.632 3.037,-2.748 3.133,-2.111" style="fill:rgb(37,37,37);fill-rule:nonzero;"/>
    </g>
    <g transform="matrix(-0.631348,4.11856,4.11856,0.631348,146.127,137.243)">
        <path d="M3.271,-3.812C3.602,-1.644 3.934,0.524 4.265,2.691C4.363,3.329 3.369,3.443 3.271,2.808C2.941,0.641 2.609,-1.528 2.278,-3.695C2.18,-4.333 3.174,-4.447 3.271,-3.812" style="fill:rgb(37,37,37);fill-rule:nonzero;"/>
    </g>
</svg>
