<?xml version="1.0" encoding="UTF-8" standalone="no"?><!DOCTYPE svg PUBLIC "-//W3C//DTD SVG 1.1//EN" "http://www.w3.org/Graphics/SVG/1.1/DTD/svg11.dtd"><svg width="100%" height="100%" viewBox="0 0 64 93" version="1.1" xmlns="http://www.w3.org/2000/svg" xmlns:xlink="http://www.w3.org/1999/xlink" xml:space="preserve" xmlns:serif="http://www.serif.com/" style="fill-rule:evenodd;clip-rule:evenodd;stroke-linejoin:round;stroke-miterlimit:2;"><path d="M26.721,0.654c-8.894,6.313 -16.982,13.694 -25.869,20.006c-0.619,0.438 -1.331,1.169 -0.413,1.713c0.819,0.481 2.488,0.069 3.207,-0.438c8.887,-6.312 16.975,-13.693 25.862,-20.006c0.619,-0.437 1.331,-1.169 0.413,-1.712c-0.813,-0.488 -2.488,-0.069 -3.2,0.437" style="fill-rule:nonzero;"/><path d="M61.355,19.91c-17.275,5.437 -34.406,11.475 -51.05,18.631c-2.925,1.256 -0.194,2.1 1.644,1.312c16.256,-6.987 32.987,-12.931 49.856,-18.25c0.45,-0.137 2.312,-0.681 2.037,-1.45c-0.262,-0.756 -2.012,-0.393 -2.487,-0.243" style="fill-rule:nonzero;"/><path d="M12.322,54.403c14.1,3.157 28.207,6.313 42.313,9.475c0.956,0.213 2.5,-0.125 3.2,-0.856c0.631,-0.675 0.581,-1.287 -0.406,-1.506c-14.1,-3.156 -28.207,-6.319 -42.307,-9.475c-0.962,-0.213 -2.506,0.125 -3.2,0.856c-0.637,0.669 -0.587,1.288 0.4,1.506" style="fill-rule:nonzero;"/><path d="M1.153,78.273c8.875,4.775 17.75,9.556 26.625,14.331c0.956,0.513 2.363,0.194 3.219,-0.381c0.65,-0.438 1.325,-1.406 0.356,-1.931c-8.875,-4.775 -17.75,-9.55 -26.631,-14.332c-0.95,-0.506 -2.363,-0.193 -3.213,0.388c-0.65,0.431 -1.331,1.4 -0.356,1.925" style="fill-rule:nonzero;"/></svg>