<?xml version="1.0" encoding="UTF-8" standalone="no"?>
<!DOCTYPE svg PUBLIC "-//W3C//DTD SVG 1.1//EN" "http://www.w3.org/Graphics/SVG/1.1/DTD/svg11.dtd">
<svg width="100%" height="100%" viewBox="0 0 186 118" version="1.1" xmlns="http://www.w3.org/2000/svg" xmlns:xlink="http://www.w3.org/1999/xlink" xml:space="preserve" xmlns:serif="http://www.serif.com/" style="fill-rule:evenodd;clip-rule:evenodd;stroke-linejoin:round;stroke-miterlimit:2;">
    <g transform="matrix(-2.84097,-3.04795,-3.04795,2.84097,16.7117,51.8371)">
        <path d="M-5.532,1.406L0.648,1.406C1.293,1.406 1.255,2.406 0.613,2.406C-1.448,2.406 -3.508,2.406 -5.568,2.406C-6.214,2.406 -6.176,1.406 -5.532,1.406" style="fill:white;fill-rule:nonzero;"/>
    </g>
    <g transform="matrix(3.75929,-1.79689,-1.79689,-3.75929,59.6946,45.566)">
        <path d="M-1.677,-0.381C-1.123,2.14 -0.799,4.677 -0.681,7.255C-0.651,7.895 -1.647,7.807 -1.677,7.171C-1.791,4.684 -2.127,2.227 -2.662,-0.205C-2.8,-0.834 -1.816,-1.01 -1.677,-0.381" style="fill:white;fill-rule:nonzero;"/>
    </g>
    <g transform="matrix(4.15775,-0.272417,-0.272417,-4.15775,89.4204,47.3422)">
        <path d="M-0.261,-0.009C0.071,2.631 0.404,5.271 0.737,7.91C0.817,8.549 -0.181,8.612 -0.261,7.976C-0.594,5.337 -0.927,2.697 -1.259,0.057C-1.34,-0.582 -0.342,-0.646 -0.261,-0.009" style="fill:white;fill-rule:nonzero;"/>
    </g>
    <g transform="matrix(3.85244,1.5874,1.5874,-3.85244,113.49,52.2329)">
        <path d="M1.302,-0.252C2.127,1.943 2.458,4.229 2.296,6.567C2.251,7.209 1.257,7.084 1.302,6.444C1.453,4.278 1.143,2.166 0.379,0.133C0.153,-0.47 1.075,-0.856 1.302,-0.252" style="fill:white;fill-rule:nonzero;"/>
    </g>
    <g transform="matrix(3.22032,2.64398,2.64398,-3.22032,137.725,68.8737)">
        <path d="M1.886,-0.675C2.218,1.273 2.55,3.221 2.881,5.17C2.989,5.806 1.994,5.9 1.886,5.268C1.554,3.32 1.223,1.371 0.891,-0.577C0.783,-1.213 1.778,-1.307 1.886,-0.675" style="fill:white;fill-rule:nonzero;"/>
    </g>
    <g transform="matrix(1.41723,3.91823,3.91823,-1.41723,155.565,92.6853)">
        <path d="M2.726,-1.913C3.059,-0.007 3.391,1.9 3.723,3.807C3.834,4.44 2.837,4.516 2.726,3.884C2.394,1.978 2.062,0.071 1.729,-1.836C1.619,-2.468 2.616,-2.544 2.726,-1.913" style="fill:white;fill-rule:nonzero;"/>
    </g>
</svg>
