<?xml version="1.0" encoding="UTF-8" standalone="no"?>
<!DOCTYPE svg PUBLIC "-//W3C//DTD SVG 1.1//EN" "http://www.w3.org/Graphics/SVG/1.1/DTD/svg11.dtd">
<svg width="100%" height="100%" viewBox="0 0 683 587" version="1.1" xmlns="http://www.w3.org/2000/svg" xmlns:xlink="http://www.w3.org/1999/xlink" xml:space="preserve" xmlns:serif="http://www.serif.com/" style="fill-rule:evenodd;clip-rule:evenodd;stroke-linejoin:round;stroke-miterlimit:2;">
    <g transform="matrix(4.16667,0,0,4.16667,-4372.47,-11197.6)">
        <g opacity="0.83">
            <g transform="matrix(-0.915669,-0.401933,-0.401933,0.915669,1155.03,2710.42)">
                <path d="M7.26,-17.265C8.005,-10.047 9.286,-2.885 11.088,4.143C9.766,4.353 8.464,3.75 7.26,3.164C0.076,-0.336 -7.11,-3.836 -14.295,-7.336C-6.959,-10.279 -0.392,-14.752 7.117,-17.221" style="fill:rgb(237,239,239);fill-rule:nonzero;"/>
            </g>
            <g transform="matrix(-0.915669,-0.401933,-0.401933,0.915669,1074.28,2719.78)">
                <path d="M7.26,-17.265C8.005,-10.047 9.286,-2.885 11.088,4.143C9.766,4.353 8.464,3.75 7.26,3.164C0.075,-0.336 -7.11,-3.836 -14.295,-7.336C-6.958,-10.28 -0.392,-14.752 7.117,-17.222" style="fill:rgb(237,239,239);fill-rule:nonzero;"/>
            </g>
            <g transform="matrix(-0.915669,-0.401933,-0.401933,0.915669,1065.31,2795.45)">
                <path d="M7.26,-17.265C8.005,-10.047 9.285,-2.884 11.088,4.143C9.765,4.353 8.464,3.75 7.26,3.164C0.075,-0.336 -7.11,-3.836 -14.295,-7.336C-6.959,-10.279 -0.393,-14.752 7.117,-17.221" style="fill:rgb(237,239,239);fill-rule:nonzero;"/>
            </g>
            <g transform="matrix(-0.915669,-0.401933,-0.401933,0.915669,1117.19,2754.88)">
                <path d="M7.26,-17.265C8.005,-10.047 9.285,-2.884 11.088,4.143C9.766,4.353 8.464,3.75 7.26,3.164C0.076,-0.336 -7.11,-3.835 -14.295,-7.335C-6.959,-10.279 -0.392,-14.752 7.117,-17.221" style="fill:rgb(237,239,239);fill-rule:nonzero;"/>
            </g>
            <g transform="matrix(-0.915669,-0.401933,-0.401933,0.915669,1149.57,2823.93)">
                <path d="M7.26,-17.265C8.005,-10.047 9.285,-2.884 11.088,4.143C9.766,4.353 8.464,3.75 7.26,3.164C0.076,-0.335 -7.11,-3.835 -14.295,-7.335C-6.959,-10.279 -0.393,-14.751 7.117,-17.221" style="fill:rgb(237,239,239);fill-rule:nonzero;"/>
            </g>
            <g transform="matrix(-0.915669,-0.401933,-0.401933,0.915669,1188.96,2766.59)">
                <path d="M7.26,-17.265C8.005,-10.047 9.286,-2.885 11.088,4.143C9.766,4.353 8.464,3.75 7.26,3.164C0.075,-0.336 -7.11,-3.836 -14.295,-7.336C-6.958,-10.28 -0.393,-14.752 7.117,-17.221" style="fill:rgb(237,239,239);fill-rule:nonzero;"/>
            </g>
        </g>
    </g>
</svg>
