<?xml version="1.0" encoding="UTF-8" standalone="no"?>
<!DOCTYPE svg PUBLIC "-//W3C//DTD SVG 1.1//EN" "http://www.w3.org/Graphics/SVG/1.1/DTD/svg11.dtd">
<svg width="100%" height="100%" viewBox="0 0 121 150" version="1.1" xmlns="http://www.w3.org/2000/svg" xmlns:xlink="http://www.w3.org/1999/xlink" xml:space="preserve" xmlns:serif="http://www.serif.com/" style="fill-rule:evenodd;clip-rule:evenodd;stroke-linejoin:round;stroke-miterlimit:2;">
    <g transform="matrix(4.16667,0,0,4.16667,92.8586,1.65915)">
        <path d="M0,10.616C-1.595,8.881 -3.229,7.082 -4.024,4.863C-4.447,3.682 -4.563,2.224 -3.716,1.299C-3.127,0.655 -2.172,0.425 -1.313,0.583C-0.456,0.74 0.309,1.243 0.923,1.862C1.305,0.752 2.53,0 3.693,0.161C4.856,0.323 5.829,1.381 5.893,2.553C5.93,3.228 5.699,3.889 5.405,4.498C4.746,5.862 3.75,7.061 2.53,7.961C1.576,8.664 0.405,9.292 0.074,10.43" style="fill:rgb(82,45,110);fill-rule:nonzero;"/>
    </g>
    <g transform="matrix(4.16667,0,0,4.16667,13.2099,68.3921)">
        <path d="M0,6.231C-0.937,5.212 -1.896,4.157 -2.362,2.854C-2.611,2.162 -2.679,1.306 -2.182,0.762C-1.836,0.384 -1.275,0.25 -0.771,0.341C-0.268,0.434 0.181,0.729 0.542,1.093C0.766,0.441 1.485,0 2.168,0.094C2.851,0.189 3.421,0.811 3.459,1.499C3.481,1.895 3.345,2.283 3.173,2.64C2.786,3.441 2.201,4.145 1.485,4.672C0.925,5.085 0.237,5.455 0.043,6.123" style="fill:rgb(82,45,110);fill-rule:nonzero;"/>
    </g>
    <g transform="matrix(4.16667,0,0,4.16667,84.9528,100.59)">
        <path d="M0,11.321C-1.701,9.47 -3.443,7.552 -4.292,5.186C-4.743,3.926 -4.866,2.372 -3.963,1.385C-3.334,0.699 -2.315,0.453 -1.4,0.621C-0.485,0.79 0.33,1.325 0.985,1.986C1.392,0.801 2.699,0 3.939,0.172C5.179,0.344 6.217,1.472 6.285,2.723C6.324,3.442 6.078,4.147 5.765,4.797C5.062,6.251 4,7.531 2.699,8.489C1.681,9.239 0.432,9.909 0.079,11.124" style="fill:rgb(82,45,110);fill-rule:nonzero;"/>
    </g>
</svg>
