<?xml version="1.0" encoding="UTF-8" standalone="no"?>
<!DOCTYPE svg PUBLIC "-//W3C//DTD SVG 1.1//EN" "http://www.w3.org/Graphics/SVG/1.1/DTD/svg11.dtd">
<svg width="100%" height="100%" viewBox="0 0 154 119" version="1.1" xmlns="http://www.w3.org/2000/svg" xmlns:xlink="http://www.w3.org/1999/xlink" xml:space="preserve" xmlns:serif="http://www.serif.com/" style="fill-rule:evenodd;clip-rule:evenodd;stroke-linejoin:round;stroke-miterlimit:2;">
    <g transform="matrix(-3.81525,-1.6748,-1.6748,3.81525,26.7051,42.5319)">
        <path d="M3.636,-8.643C4.008,-5.03 4.649,-1.444 5.551,2.075C4.889,2.179 4.238,1.878 3.636,1.584C0.039,-0.168 -3.559,-1.92 -7.157,-3.672C-3.483,-5.147 -0.196,-7.385 3.564,-8.621" style="fill:rgb(82,45,110);fill-rule:nonzero;"/>
    </g>
    <g transform="matrix(-3.81519,-1.67495,-1.67495,3.81519,116.204,115.757)">
        <path d="M3.635,-8.642C4.007,-5.029 4.648,-1.443 5.55,2.075C4.888,2.179 4.237,1.879 3.635,1.584C0.037,-0.167 -3.56,-1.919 -7.157,-3.672C-3.483,-5.146 -0.196,-7.384 3.563,-8.62" style="fill:rgb(82,45,110);fill-rule:nonzero;"/>
    </g>
</svg>
