<?xml version="1.0" encoding="UTF-8" standalone="no"?>
<!DOCTYPE svg PUBLIC "-//W3C//DTD SVG 1.1//EN" "http://www.w3.org/Graphics/SVG/1.1/DTD/svg11.dtd">
<svg width="100%" height="100%" viewBox="0 0 216 264" version="1.1" xmlns="http://www.w3.org/2000/svg" xmlns:xlink="http://www.w3.org/1999/xlink" xml:space="preserve" xmlns:serif="http://www.serif.com/" style="fill-rule:evenodd;clip-rule:evenodd;stroke-linejoin:round;stroke-miterlimit:2;">
    <g transform="matrix(4.16667,0,0,4.16667,100.664,3.94759)">
        <path d="M0,15.304C-2.299,12.803 -4.655,10.209 -5.801,7.011C-6.411,5.309 -6.578,3.208 -5.357,1.873C-4.508,0.946 -3.13,0.614 -1.894,0.841C-0.656,1.069 0.446,1.792 1.332,2.686C1.882,1.084 3.647,0 5.324,0.234C7,0.467 8.403,1.992 8.496,3.682C8.549,4.655 8.215,5.608 7.792,6.485C6.842,8.451 5.406,10.181 3.648,11.477C2.272,12.491 0.583,13.396 0.107,15.037" style="fill:rgb(82,45,110);fill-rule:nonzero;"/>
    </g>
    <g transform="matrix(4.16667,0,0,4.16667,167.227,115.411)">
        <path d="M0,9.461C-1.421,7.914 -2.877,6.312 -3.586,4.334C-3.963,3.282 -4.066,1.983 -3.312,1.158C-2.787,0.585 -1.935,0.379 -1.17,0.52C-0.406,0.66 0.275,1.108 0.823,1.66C1.163,0.671 2.255,0 3.291,0.145C4.327,0.288 5.194,1.232 5.251,2.276C5.284,2.877 5.079,3.467 4.817,4.009C4.229,5.225 3.342,6.293 2.255,7.095C1.404,7.721 0.361,8.281 0.066,9.295" style="fill:rgb(82,45,110);fill-rule:nonzero;"/>
    </g>
    <g transform="matrix(4.16667,0,0,4.16667,34.205,98.0568)">
        <path d="M0,16.96C-2.548,14.188 -5.159,11.314 -6.428,7.77C-7.104,5.883 -7.289,3.555 -5.936,2.076C-4.996,1.048 -3.469,0.68 -2.098,0.932C-0.727,1.184 0.494,1.986 1.476,2.976C2.085,1.202 4.042,0 5.9,0.259C7.758,0.517 9.313,2.207 9.415,4.08C9.474,5.157 9.104,6.214 8.635,7.186C7.583,9.365 5.991,11.282 4.043,12.718C2.518,13.842 0.647,14.845 0.119,16.664" style="fill:rgb(82,45,110);fill-rule:nonzero;"/>
    </g>
    <g transform="matrix(4.16667,0,0,4.16667,96.2517,174.878)">
        <path d="M0,5.553C-0.834,4.646 -1.689,3.704 -2.105,2.544C-2.327,1.926 -2.387,1.164 -1.944,0.68C-1.636,0.343 -1.136,0.223 -0.687,0.305C-0.238,0.388 0.162,0.651 0.483,0.975C0.683,0.394 1.323,0 1.932,0.084C2.54,0.169 3.049,0.723 3.083,1.336C3.102,1.689 2.981,2.034 2.827,2.353C2.482,3.067 1.961,3.695 1.324,4.164C0.824,4.532 0.211,4.861 0.039,5.456" style="fill:rgb(82,45,110);fill-rule:nonzero;"/>
    </g>
    <g transform="matrix(4.16667,0,0,4.16667,187.389,217.172)">
        <path d="M0,10.089C-1.516,8.441 -3.068,6.731 -3.824,4.622C-4.226,3.5 -4.336,2.114 -3.531,1.235C-2.972,0.623 -2.063,0.404 -1.248,0.555C-0.433,0.704 0.294,1.182 0.878,1.771C1.241,0.715 2.405,0 3.51,0.153C4.615,0.308 5.54,1.314 5.601,2.427C5.636,3.068 5.417,3.696 5.137,4.275C4.511,5.571 3.564,6.712 2.405,7.566C1.498,8.235 0.385,8.831 0.071,9.913" style="fill:rgb(82,45,110);fill-rule:nonzero;"/>
    </g>
</svg>
