<?xml version="1.0" encoding="UTF-8" standalone="no"?>
<!DOCTYPE svg PUBLIC "-//W3C//DTD SVG 1.1//EN" "http://www.w3.org/Graphics/SVG/1.1/DTD/svg11.dtd">
<svg width="100%" height="100%" viewBox="0 0 320 584" version="1.1" xmlns="http://www.w3.org/2000/svg" xmlns:xlink="http://www.w3.org/1999/xlink" xml:space="preserve" xmlns:serif="http://www.serif.com/" style="fill-rule:evenodd;clip-rule:evenodd;stroke-linejoin:round;stroke-miterlimit:2;">
    <g transform="matrix(8.33333,0,0,8.33333,220.465,-1.6867)">
        <path d="M0,15.386C-2.312,12.871 -4.68,10.264 -5.832,7.049C-6.445,5.337 -6.613,3.225 -5.386,1.883C-4.532,0.95 -3.147,0.616 -1.904,0.845C-0.66,1.074 0.448,1.802 1.339,2.699C1.892,1.09 3.667,0 5.353,0.234C7.038,0.469 8.448,2.002 8.541,3.701C8.594,4.679 8.259,5.637 7.833,6.519C6.878,8.496 5.435,10.235 3.667,11.538C2.284,12.557 0.587,13.467 0.107,15.117" style="fill:rgb(233,160,169);fill-rule:nonzero;"/>
    </g>
    <g transform="matrix(8.33333,0,0,8.33333,275.055,208.026)">
        <path d="M0,9.511C-1.429,7.957 -2.893,6.345 -3.605,4.357C-3.984,3.299 -4.088,1.993 -3.329,1.164C-2.802,0.587 -1.945,0.381 -1.177,0.522C-0.408,0.664 0.277,1.114 0.828,1.669C1.169,0.674 2.267,0 3.309,0.145C4.351,0.29 5.222,1.238 5.28,2.288C5.312,2.892 5.105,3.485 4.842,4.03C4.252,5.252 3.36,6.327 2.267,7.132C1.412,7.762 0.363,8.325 0.066,9.345" style="fill:rgb(233,160,169);fill-rule:nonzero;"/>
    </g>
    <g transform="matrix(8.33333,0,0,8.33333,86.8355,230.759)">
        <path d="M0,17.051C-2.562,14.264 -5.186,11.375 -6.463,7.812C-7.143,5.915 -7.328,3.574 -5.968,2.088C-5.022,1.054 -3.488,0.684 -2.109,0.937C-0.731,1.19 0.497,1.997 1.483,2.992C2.097,1.209 4.064,0 5.932,0.26C7.799,0.52 9.362,2.22 9.465,4.103C9.524,5.186 9.153,6.248 8.682,7.225C7.623,9.416 6.023,11.343 4.064,12.787C2.532,13.916 0.65,14.925 0.119,16.753" style="fill:rgb(233,160,169);fill-rule:nonzero;"/>
    </g>
    <g transform="matrix(8.33333,0,0,8.33333,211.591,428.458)">
        <path d="M0,5.583C-0.839,4.671 -1.698,3.725 -2.116,2.558C-2.339,1.937 -2.399,1.17 -1.954,0.683C-1.645,0.345 -1.142,0.224 -0.691,0.307C-0.239,0.39 0.163,0.654 0.486,0.98C0.687,0.396 1.331,0 1.942,0.085C2.554,0.17 3.065,0.727 3.099,1.343C3.119,1.698 2.997,2.046 2.842,2.365C2.496,3.083 1.972,3.714 1.331,4.187C0.829,4.557 0.213,4.887 0.039,5.486" style="fill:rgb(233,160,169);fill-rule:nonzero;"/>
    </g>
    <g transform="matrix(8.33333,0,0,8.33333,34.6255,499.092)">
        <path d="M0,10.143C-1.524,8.485 -3.085,6.767 -3.845,4.647C-4.249,3.518 -4.359,2.126 -3.55,1.241C-2.988,0.626 -2.075,0.406 -1.255,0.557C-0.435,0.708 0.295,1.188 0.882,1.779C1.247,0.719 2.417,0 3.529,0.154C4.64,0.309 5.569,1.32 5.63,2.44C5.666,3.084 5.445,3.716 5.165,4.297C4.535,5.601 3.583,6.747 2.418,7.606C1.506,8.278 0.387,8.878 0.071,9.966" style="fill:rgb(233,160,169);fill-rule:nonzero;"/>
    </g>
</svg>
