<?xml version="1.0" encoding="UTF-8" standalone="no"?>
<!DOCTYPE svg PUBLIC "-//W3C//DTD SVG 1.1//EN" "http://www.w3.org/Graphics/SVG/1.1/DTD/svg11.dtd">
<svg width="100%" height="100%" viewBox="0 0 106 177" version="1.1" xmlns="http://www.w3.org/2000/svg" xmlns:xlink="http://www.w3.org/1999/xlink" xml:space="preserve" xmlns:serif="http://www.serif.com/" style="fill-rule:evenodd;clip-rule:evenodd;stroke-linejoin:round;stroke-miterlimit:2;">
    <g transform="matrix(4.16667,0,0,4.16667,50.2149,128.633)">
        <path d="M0,9.972C-2.271,9.175 -3.933,6.884 -3.985,4.477C-4.037,2.07 -2.475,-0.291 -0.239,-1.184C1.252,-1.78 3.016,-1.73 4.413,-0.939C5.279,-0.448 5.98,0.299 6.533,1.127C8.011,3.344 8.407,6.421 6.972,8.666C5.538,10.91 2.059,11.752 0.063,9.988" style="fill:rgb(105,50,50);fill-rule:nonzero;"/>
    </g>
    <g transform="matrix(4.16667,0,0,4.16667,81.0294,6.74114)">
        <path d="M0,4.436C-1.01,4.082 -1.75,3.062 -1.772,1.991C-1.795,0.921 -1.101,-0.129 -0.106,-0.527C0.557,-0.792 1.342,-0.77 1.963,-0.418C2.349,-0.199 2.66,0.133 2.906,0.501C3.563,1.487 3.74,2.856 3.102,3.855C2.463,4.853 0.916,5.228 0.028,4.443" style="fill:rgb(105,50,50);fill-rule:nonzero;"/>
    </g>
    <g transform="matrix(4.16667,0,0,4.16667,20.9853,49.7536)">
        <path d="M0,5.822C-1.214,5.32 -2.113,4.281 -2.281,2.948C-2.489,1.285 -1.134,-0.967 0.773,-0.18C2.072,0.356 2.857,1.855 3.009,3.199C3.182,4.729 2.07,7.356 0.185,5.934C-0.431,5.469 -2.434,6.334 -1.833,6.788C0.009,8.177 2.943,7.634 4.366,5.839C6.014,3.76 5.154,0.345 2.964,-1.01C0.789,-2.355 -2.389,-1.388 -3.764,0.673C-5.291,2.962 -4.184,5.864 -1.728,6.88C-1.073,7.152 0.905,6.197 0,5.822" style="fill:rgb(105,50,50);fill-rule:nonzero;"/>
    </g>
</svg>
