<?xml version="1.0" encoding="UTF-8" standalone="no"?>
<!DOCTYPE svg PUBLIC "-//W3C//DTD SVG 1.1//EN" "http://www.w3.org/Graphics/SVG/1.1/DTD/svg11.dtd">
<svg width="100%" height="100%" viewBox="0 0 174 247" version="1.1" xmlns="http://www.w3.org/2000/svg" xmlns:xlink="http://www.w3.org/1999/xlink" xml:space="preserve" xmlns:serif="http://www.serif.com/" style="fill-rule:evenodd;clip-rule:evenodd;stroke-linejoin:round;stroke-miterlimit:2;">
    <g transform="matrix(4.16667,0,0,4.16667,127.195,103.142)">
        <path d="M0,-23.551C-0.891,-19.532 -2.881,-15.763 -5.696,-12.759C-2.764,-9.057 -0.741,-4.639 0.147,0C0.761,-4.781 2.743,-9.378 5.799,-13.105C6.078,-13.446 6.382,-13.822 6.375,-14.261C6.369,-14.601 6.177,-14.906 5.978,-15.181C3.97,-17.959 0.452,-20.121 0.408,-23.548" style="fill:rgb(105,50,50);fill-rule:nonzero;"/>
    </g>
    <g transform="matrix(-4.15444,-0.318974,-0.318974,4.15444,145.396,188.671)">
        <path d="M-1.276,-14.664C-0.733,-11.723 0.761,-8.63 3.478,-7.381C0.516,-6.119 -1.48,-2.881 -1.276,0.332C-0.93,-2.903 -2.529,-6.271 -5.254,-8.049C-2.738,-9.404 -1.009,-12.116 -0.842,-14.969" style="fill:rgb(105,50,50);fill-rule:nonzero;"/>
    </g>
    <g transform="matrix(-4.15444,-0.318974,-0.318974,4.15444,16.5591,245.932)">
        <path d="M-1.276,-14.664C-0.733,-11.723 0.761,-8.63 3.478,-7.381C0.516,-6.119 -1.48,-2.881 -1.276,0.332C-0.931,-2.904 -2.529,-6.271 -5.254,-8.049C-2.738,-9.404 -1.009,-12.116 -0.842,-14.969" style="fill:rgb(105,50,50);fill-rule:nonzero;"/>
    </g>
    <g transform="matrix(-4.15442,-0.319272,-0.319272,4.15442,65.742,154.15)">
        <path d="M-0.913,-10.49C-0.525,-8.386 0.544,-6.174 2.488,-5.279C0.369,-4.377 -1.059,-2.06 -0.913,0.238C-0.666,-2.076 -1.809,-4.486 -3.758,-5.758C-1.959,-6.727 -0.722,-8.667 -0.603,-10.708" style="fill:rgb(105,50,50);fill-rule:nonzero;"/>
    </g>
</svg>
