<?xml version="1.0" encoding="UTF-8" standalone="no"?>
<!DOCTYPE svg PUBLIC "-//W3C//DTD SVG 1.1//EN" "http://www.w3.org/Graphics/SVG/1.1/DTD/svg11.dtd">
<svg width="100%" height="100%" viewBox="0 0 320 226" version="1.1" xmlns="http://www.w3.org/2000/svg" xmlns:xlink="http://www.w3.org/1999/xlink" xml:space="preserve" xmlns:serif="http://www.serif.com/" style="fill-rule:evenodd;clip-rule:evenodd;stroke-linejoin:round;stroke-miterlimit:2;">
    <g transform="matrix(4.16667,0,0,4.16667,222.561,153.524)">
        <path d="M0,9.518C-2.168,8.757 -3.754,6.57 -3.804,4.273C-3.853,1.975 -2.362,-0.278 -0.229,-1.131C1.195,-1.7 2.878,-1.652 4.212,-0.897C5.04,-0.428 5.708,0.285 6.235,1.075C7.646,3.191 8.025,6.129 6.655,8.271C5.286,10.414 1.965,11.218 0.06,9.533" style="fill:rgb(105,50,50);fill-rule:nonzero;"/>
    </g>
    <g transform="matrix(4.16667,0,0,4.16667,127.137,171.461)">
        <path d="M0,4.234C-0.964,3.896 -1.67,2.922 -1.692,1.901C-1.714,0.879 -1.051,-0.123 -0.102,-0.503C0.532,-0.756 1.281,-0.735 1.874,-0.399C2.242,-0.19 2.54,0.127 2.774,0.478C3.402,1.42 3.57,2.727 2.96,3.68C2.352,4.633 0.874,4.99 0.027,4.241" style="fill:rgb(105,50,50);fill-rule:nonzero;"/>
    </g>
    <g transform="matrix(4.16667,0,0,4.16667,251.976,37.1696)">
        <path d="M0,4.234C-0.965,3.896 -1.67,2.923 -1.692,1.901C-1.714,0.879 -1.051,-0.123 -0.102,-0.503C0.532,-0.756 1.28,-0.735 1.874,-0.399C2.242,-0.19 2.54,0.127 2.774,0.479C3.401,1.42 3.57,2.727 2.96,3.68C2.352,4.633 0.874,4.99 0.027,4.241" style="fill:rgb(105,50,50);fill-rule:nonzero;"/>
    </g>
    <g transform="matrix(4.16667,0,0,4.16667,279.957,114.346)">
        <path d="M0,5.509C-1.155,5.031 -2.009,4.044 -2.167,2.776C-2.36,1.232 -1.122,-0.908 0.663,-0.171C1.896,0.338 2.64,1.768 2.784,3.043C2.942,4.453 1.943,6.948 0.183,5.621C-0.433,5.156 -2.437,6.021 -1.834,6.475C-0.051,7.819 2.798,7.289 4.174,5.551C5.752,3.556 4.931,0.286 2.829,-1.012C0.728,-2.31 -2.351,-1.373 -3.679,0.616C-5.143,2.81 -4.083,5.592 -1.728,6.567C-1.073,6.838 0.905,5.884 0,5.509" style="fill:rgb(105,50,50);fill-rule:nonzero;"/>
    </g>
    <g transform="matrix(4.16667,0,0,4.16667,46.784,171.53)">
        <path d="M0,8.115C-1.767,7.347 -2.967,5.723 -3.01,3.769C-3.064,1.309 -0.776,-1.66 1.888,-0.083C3.449,0.841 4.356,2.867 4.477,4.62C4.632,6.875 2.737,10.215 0.196,8.23C-0.412,7.756 -2.422,8.615 -1.821,9.084C0.343,10.774 3.695,10.168 5.445,8.109C7.626,5.541 6.731,1.159 4.123,-0.79C1.623,-2.659 -2.144,-1.729 -3.985,0.631C-6.287,3.581 -5.098,7.708 -1.728,9.173C-1.076,9.456 0.905,8.509 0,8.115" style="fill:rgb(105,50,50);fill-rule:nonzero;"/>
    </g>
    <g transform="matrix(4.16667,0,0,4.16667,172.054,41.2646)">
        <path d="M0,13.655C-2.783,12.503 -4.876,10.113 -5.273,7.061C-5.892,2.312 -1.367,-2.887 3.642,-0.825C6.655,0.415 8.605,3.742 8.938,6.917C9.422,11.541 5.306,17.605 0.232,13.779C-0.384,13.315 -2.387,14.179 -1.785,14.633C1.6,17.186 6.739,16.3 9.406,13.029C12.902,8.741 11.002,1.488 6.506,-1.343C2.364,-3.95 -3.396,-2.183 -6.021,1.749C-9.213,6.534 -6.838,12.598 -1.728,14.713C-1.073,14.985 0.905,14.03 0,13.655" style="fill:rgb(105,50,50);fill-rule:nonzero;"/>
    </g>
</svg>
