<?xml version="1.0" encoding="UTF-8" standalone="no"?>
<!DOCTYPE svg PUBLIC "-//W3C//DTD SVG 1.1//EN" "http://www.w3.org/Graphics/SVG/1.1/DTD/svg11.dtd">
<svg width="100%" height="100%" viewBox="0 0 144 167" version="1.1" xmlns="http://www.w3.org/2000/svg" xmlns:xlink="http://www.w3.org/1999/xlink" xml:space="preserve" xmlns:serif="http://www.serif.com/" style="fill-rule:evenodd;clip-rule:evenodd;stroke-linejoin:round;stroke-miterlimit:2;">
    <g transform="matrix(4.16667,0,0,4.16667,61.1333,87.2191)">
        <path d="M0,-18.791C-0.711,-15.585 -2.299,-12.577 -4.545,-10.181C-2.205,-7.226 -0.591,-3.702 0.117,0C0.607,-3.814 2.189,-7.482 4.627,-10.457C4.85,-10.728 5.092,-11.028 5.087,-11.379C5.082,-11.65 4.929,-11.894 4.77,-12.113C3.168,-14.33 0.361,-16.054 0.325,-18.789" style="fill:rgb(105,50,50);fill-rule:nonzero;"/>
    </g>
    <g transform="matrix(-4.15441,-0.319329,-0.319329,4.15441,115.626,121.196)">
        <path d="M-1.019,-11.7C-0.586,-9.353 0.607,-6.885 2.775,-5.888C0.411,-4.882 -1.182,-2.299 -1.019,0.265C-0.744,-2.316 -2.019,-5.003 -4.193,-6.423C-2.186,-7.503 -0.806,-9.668 -0.673,-11.943" style="fill:rgb(105,50,50);fill-rule:nonzero;"/>
    </g>
    <g transform="matrix(-4.15445,-0.318824,-0.318824,4.15445,14.9577,159.335)">
        <path d="M-0.728,-8.371C-0.419,-6.692 0.435,-4.927 1.986,-4.213C0.295,-3.493 -0.844,-1.645 -0.728,0.189C-0.531,-1.658 -1.443,-3.58 -2.999,-4.596C-1.563,-5.368 -0.576,-6.917 -0.481,-8.545" style="fill:rgb(105,50,50);fill-rule:nonzero;"/>
    </g>
</svg>
