<?xml version="1.0" encoding="UTF-8" standalone="no"?>
<!DOCTYPE svg PUBLIC "-//W3C//DTD SVG 1.1//EN" "http://www.w3.org/Graphics/SVG/1.1/DTD/svg11.dtd">
<svg width="100%" height="100%" viewBox="0 0 203 170" version="1.1" xmlns="http://www.w3.org/2000/svg" xmlns:xlink="http://www.w3.org/1999/xlink" xml:space="preserve" xmlns:serif="http://www.serif.com/" style="fill-rule:evenodd;clip-rule:evenodd;stroke-linejoin:round;stroke-miterlimit:2;">
    <g transform="matrix(4.16667,0,0,4.16667,51.68,37.0081)">
        <path d="M0,-6.861C1.155,-3.779 3.836,-1.312 7.003,-0.417C4.095,0 1.04,-0.722 -1.372,-2.4" style="fill:rgb(61,84,107);fill-rule:nonzero;"/>
    </g>
    <g transform="matrix(0,-4.16667,-4.16667,0,20.0463,38.591)">
        <path d="M-4.115,-4.114C-5.863,-4.114 -7.28,-2.272 -7.28,0C-7.28,2.274 -5.863,4.115 -4.115,4.115C-2.366,4.115 -0.949,2.274 -0.949,0C-0.949,-2.272 -2.366,-4.114 -4.115,-4.114" style="fill:rgb(61,84,107);fill-rule:nonzero;"/>
    </g>
    <g transform="matrix(-4.14107,-0.461174,-0.461174,4.14107,34.8718,49.823)">
        <path d="M-1.181,-10.184C-1.448,-6.774 -0.648,-3.6 1.104,-0.673C1.931,0.707 -0.365,1.707 -1.181,0.342C-3.151,-2.95 -3.965,-6.643 -3.665,-10.46C-3.539,-12.065 -1.055,-11.786 -1.181,-10.184" style="fill:rgb(61,84,107);fill-rule:nonzero;"/>
    </g>
    <g transform="matrix(0,-4.16667,-4.16667,0,165.128,43.8685)">
        <path d="M-4.114,-4.115C-5.863,-4.115 -7.281,-2.272 -7.281,-0C-7.281,2.273 -5.863,4.114 -4.114,4.114C-2.366,4.114 -0.949,2.273 -0.949,-0C-0.949,-2.272 -2.366,-4.115 -4.114,-4.115" style="fill:rgb(61,84,107);fill-rule:nonzero;"/>
    </g>
    <g transform="matrix(-4.14107,-0.461174,-0.461174,4.14107,179.957,55.0964)">
        <path d="M-1.181,-10.183C-1.449,-6.773 -0.648,-3.599 1.104,-0.672C1.931,0.708 -0.365,1.707 -1.181,0.343C-3.152,-2.949 -3.965,-6.642 -3.665,-10.459C-3.539,-12.064 -1.055,-11.785 -1.181,-10.183" style="fill:rgb(61,84,107);fill-rule:nonzero;"/>
    </g>
    <g transform="matrix(0,-4.16667,-4.16667,0,66.2104,120.366)">
        <path d="M-4.115,-4.114C-5.863,-4.114 -7.28,-2.271 -7.28,0C-7.28,2.274 -5.863,4.115 -4.115,4.115C-2.367,4.115 -0.949,2.274 -0.949,0C-0.949,-2.271 -2.367,-4.114 -4.115,-4.114" style="fill:rgb(61,84,107);fill-rule:nonzero;"/>
    </g>
    <g transform="matrix(-4.14107,-0.461174,-0.461174,4.14107,81.0347,131.598)">
        <path d="M-1.181,-10.184C-1.449,-6.774 -0.648,-3.6 1.104,-0.673C1.931,0.707 -0.365,1.707 -1.181,0.342C-3.153,-2.949 -3.965,-6.643 -3.665,-10.46C-3.539,-12.065 -1.055,-11.786 -1.181,-10.184" style="fill:rgb(61,84,107);fill-rule:nonzero;"/>
    </g>
    <g transform="matrix(0,-4.16667,-4.16667,0,108.416,136.194)">
        <path d="M-4.115,-4.114C-5.863,-4.114 -7.28,-2.272 -7.28,0C-7.28,2.274 -5.863,4.115 -4.115,4.115C-2.366,4.115 -0.949,2.274 -0.949,0C-0.949,-2.272 -2.366,-4.114 -4.115,-4.114" style="fill:rgb(61,84,107);fill-rule:nonzero;"/>
    </g>
    <g transform="matrix(-4.14107,-0.461174,-0.461174,4.14107,123.242,147.422)">
        <path d="M-1.181,-10.183C-1.449,-6.773 -0.648,-3.599 1.104,-0.672C1.931,0.708 -0.365,1.707 -1.181,0.343C-3.152,-2.949 -3.965,-6.642 -3.665,-10.459C-3.539,-12.064 -1.055,-11.785 -1.181,-10.183" style="fill:rgb(61,84,107);fill-rule:nonzero;"/>
    </g>
    <g transform="matrix(0.079788,4.1659,4.1659,-0.079788,115.503,75.3862)">
        <path d="M5.169,-5.071C6.181,-1.924 7.193,1.222 8.204,4.37C8.83,6.313 5.792,7.206 5.169,5.269L2.134,-4.171C1.508,-6.115 4.546,-7.008 5.169,-5.071" style="fill:rgb(61,84,107);fill-rule:nonzero;"/>
    </g>
</svg>
