<?xml version="1.0" encoding="UTF-8" standalone="no"?>
<!DOCTYPE svg PUBLIC "-//W3C//DTD SVG 1.1//EN" "http://www.w3.org/Graphics/SVG/1.1/DTD/svg11.dtd">
<svg width="100%" height="100%" viewBox="0 0 205 154" version="1.1" xmlns="http://www.w3.org/2000/svg" xmlns:xlink="http://www.w3.org/1999/xlink" xml:space="preserve" xmlns:serif="http://www.serif.com/" style="fill-rule:evenodd;clip-rule:evenodd;stroke-linejoin:round;stroke-miterlimit:2;">
    <g transform="matrix(4.16667,0,0,4.16667,46.5294,33.8533)">
        <path d="M0,-6.176C1.04,-3.403 3.452,-1.182 6.303,-0.376C3.686,0 0.936,-0.652 -1.234,-2.161" style="fill:rgb(61,84,107);fill-rule:nonzero;"/>
    </g>
    <g transform="matrix(0,-4.16667,-4.16667,0,18.0569,35.2749)">
        <path d="M-3.704,-3.704C-5.277,-3.704 -6.553,-2.045 -6.553,0.001C-6.553,2.046 -5.277,3.704 -3.704,3.704C-2.131,3.704 -0.855,2.046 -0.855,0.001C-0.855,-2.045 -2.131,-3.704 -3.704,-3.704" style="fill:rgb(61,84,107);fill-rule:nonzero;"/>
    </g>
    <g transform="matrix(-4.15135,-0.356931,-0.356931,4.15135,32.0719,45.66)">
        <path d="M-1.002,-9.178C-1.164,-6.125 -0.374,-3.313 1.257,-0.736C2.118,0.622 -0.151,1.679 -1.002,0.336C-2.861,-2.599 -3.677,-5.93 -3.493,-9.392C-3.407,-11 -0.916,-10.784 -1.002,-9.178" style="fill:rgb(61,84,107);fill-rule:nonzero;"/>
    </g>
    <g transform="matrix(4.16667,0,0,4.16667,177.112,38.6016)">
        <path d="M0,-6.176C1.04,-3.403 3.452,-1.182 6.303,-0.376C3.686,0 0.936,-0.652 -1.234,-2.161" style="fill:rgb(61,84,107);fill-rule:nonzero;"/>
    </g>
    <g transform="matrix(0,-4.16667,-4.16667,0,148.639,40.0212)">
        <path d="M-3.704,-3.704C-5.277,-3.704 -6.553,-2.046 -6.553,0C-6.553,2.046 -5.277,3.704 -3.704,3.704C-2.131,3.704 -0.855,2.046 -0.855,0C-0.855,-2.046 -2.131,-3.704 -3.704,-3.704" style="fill:rgb(61,84,107);fill-rule:nonzero;"/>
    </g>
    <g transform="matrix(-4.15131,-0.357366,-0.357366,4.15131,162.654,50.4079)">
        <path d="M-1.002,-9.178C-1.164,-6.125 -0.374,-3.313 1.257,-0.736C2.117,0.623 -0.152,1.679 -1.002,0.336C-2.861,-2.599 -3.677,-5.931 -3.492,-9.392C-3.406,-11 -0.916,-10.784 -1.002,-9.178" style="fill:rgb(61,84,107);fill-rule:nonzero;"/>
    </g>
    <g transform="matrix(0,-4.16667,-4.16667,0,59.6023,108.875)">
        <path d="M-3.704,-3.705C-5.277,-3.705 -6.553,-2.047 -6.553,-0C-6.553,2.046 -5.277,3.704 -3.704,3.704C-2.131,3.704 -0.855,2.046 -0.855,-0C-0.855,-2.047 -2.131,-3.705 -3.704,-3.705" style="fill:rgb(61,84,107);fill-rule:nonzero;"/>
    </g>
    <g transform="matrix(-4.15131,-0.357366,-0.357366,4.15131,73.6193,119.264)">
        <path d="M-1.002,-9.179C-1.164,-6.126 -0.374,-3.313 1.257,-0.737C2.117,0.622 -0.152,1.678 -1.002,0.335C-2.861,-2.6 -3.677,-5.931 -3.492,-9.393C-3.406,-11 -0.916,-10.784 -1.002,-9.179" style="fill:rgb(61,84,107);fill-rule:nonzero;"/>
    </g>
    <g transform="matrix(0,-4.16667,-4.16667,0,97.5919,123.123)">
        <path d="M-3.703,-3.704C-5.276,-3.704 -6.553,-2.046 -6.553,0C-6.553,2.045 -5.276,3.703 -3.703,3.703C-2.13,3.703 -0.854,2.045 -0.854,0C-0.854,-2.046 -2.13,-3.704 -3.703,-3.704" style="fill:rgb(61,84,107);fill-rule:nonzero;"/>
    </g>
    <g transform="matrix(-4.15131,-0.357366,-0.357366,4.15131,111.607,133.51)">
        <path d="M-1.002,-9.179C-1.164,-6.126 -0.374,-3.314 1.257,-0.737C2.117,0.622 -0.152,1.678 -1.002,0.335C-2.861,-2.6 -3.677,-5.931 -3.492,-9.393C-3.406,-11 -0.916,-10.784 -1.002,-9.179" style="fill:rgb(61,84,107);fill-rule:nonzero;"/>
    </g>
    <g transform="matrix(0.0801478,4.1659,4.1659,-0.0801478,103.973,68.3915)">
        <path d="M4.652,-4.564C5.563,-1.732 6.474,1.1 7.385,3.932C7.948,5.681 5.214,6.486 4.652,4.741C3.741,1.909 2.831,-0.923 1.92,-3.755C1.357,-5.503 4.091,-6.308 4.652,-4.564" style="fill:rgb(61,84,107);fill-rule:nonzero;"/>
    </g>
</svg>
