<?xml version="1.0" encoding="UTF-8" standalone="no"?>
<!DOCTYPE svg PUBLIC "-//W3C//DTD SVG 1.1//EN" "http://www.w3.org/Graphics/SVG/1.1/DTD/svg11.dtd">
<svg width="100%" height="100%" viewBox="0 0 589 390" version="1.1" xmlns="http://www.w3.org/2000/svg" xmlns:xlink="http://www.w3.org/1999/xlink" xml:space="preserve" xmlns:serif="http://www.serif.com/" style="fill-rule:evenodd;clip-rule:evenodd;stroke-linejoin:round;stroke-miterlimit:2;">
    <g transform="matrix(8.33333,0,0,8.33333,228.38,102.406)">
        <path d="M0,20.821C-1.706,25.375 -3.956,29.69 -5.662,34.244C-5.812,34.643 -4.437,34.257 -4.286,34.085C-1.576,30.994 2.371,28.66 5.545,26.038C7.139,24.721 6.187,24.787 8.884,23.941C8.475,24.069 13.29,23.013 13.279,22.956C13.254,22.818 11.519,22.447 11.266,22.376C10.924,22.279 9.616,22.824 10.083,22.967C12.91,23.835 15.743,24.684 18.562,25.578C22.211,26.734 27.112,29.557 30.95,29.65C33.893,29.721 34.392,27.697 35.15,25.175C36.356,21.165 37.481,17.129 38.647,13.107C39.224,11.119 41.631,6.652 40.539,4.596C39.562,2.755 35.325,2.349 33.6,1.826C29.557,0.601 25.515,-0.623 21.472,-1.848C13.387,-4.297 5.302,-6.746 -2.783,-9.196C-5.789,-10.106 -12.17,-13.822 -15.284,-11.581C-16.605,-10.631 -17.445,-8.505 -18.275,-7.171C-20.144,-4.166 -21.916,-1.104 -23.445,2.089C-24.865,5.056 -27.119,9.001 -27.388,12.312C-27.614,15.105 -25.626,15.381 -23.27,16.082C-15.568,18.373 -7.768,20.527 0.255,21.271C0.598,21.303 1.92,20.706 1.183,20.638C-3.031,20.247 -7.164,19.469 -11.271,18.46C-14.646,17.632 -18.962,17.006 -22.087,15.491C-27.168,13.027 -25.27,9.393 -23.552,5.283C-22.4,2.529 -21.075,-0.145 -19.618,-2.75C-17.676,-6.221 -15.967,-10.577 -11.43,-10.865C-9.829,-10.967 -7.439,-9.657 -5.832,-9.17L0.698,-7.191C8.473,-4.836 16.247,-2.481 24.021,-0.126C27.684,0.983 31.708,1.745 35.216,3.265C40.88,5.719 38.297,9.611 36.945,14.275C35.888,17.923 35.249,22.997 33.448,26.342C31.561,29.848 29.581,28.298 26.703,27.281C22.85,25.919 18.937,24.717 15.029,23.519C14.095,23.232 12.556,22.453 11.558,22.465C8.484,22.501 11.408,23.416 12.222,23.571C12.526,23.63 13.896,23.125 13.404,22.98C10.988,22.27 9.048,21.967 6.861,23.391C4.62,24.851 2.993,27.385 0.788,29.015C-1.454,30.671 -3.752,32.05 -5.605,34.164C-5.146,34.111 -4.688,34.058 -4.229,34.005C-2.523,29.451 -0.272,25.135 1.434,20.581C1.548,20.275 0.147,20.426 0,20.821" style="fill:rgb(37,37,37);fill-rule:nonzero;"/>
    </g>
    <g transform="matrix(8.33333,0,0,8.33333,227.297,192.144)">
        <path d="M0,23.51C3.165,21.611 6.417,19.027 9.77,17.531C13.206,15.998 18.371,19.046 21.773,20.244C25.636,21.604 30.097,24.589 34.027,22.175C37.168,20.246 38.386,16.196 39.554,12.908C41.13,8.467 42.398,3.867 43.358,-0.748C43.428,-1.079 42.004,-0.86 41.929,-0.496C41.086,3.554 39.987,7.571 38.691,11.499C37.946,13.756 37.149,16.034 36.082,18.162C34.228,21.858 32.641,22.721 28.238,21.534C24.675,20.574 21.153,19.078 17.687,17.819C16.027,17.217 13.675,15.89 11.766,16.085C10.324,16.232 9.832,16.828 8.658,17.48C5.347,19.323 2.145,21.505 -1.111,23.459C-1.718,23.823 -0.273,23.675 0,23.51" style="fill:rgb(37,37,37);fill-rule:nonzero;"/>
    </g>
</svg>
