<?xml version="1.0" encoding="UTF-8" standalone="no"?>
<!DOCTYPE svg PUBLIC "-//W3C//DTD SVG 1.1//EN" "http://www.w3.org/Graphics/SVG/1.1/DTD/svg11.dtd">
<svg width="100%" height="100%" viewBox="0 0 734 533" version="1.1" xmlns="http://www.w3.org/2000/svg" xmlns:xlink="http://www.w3.org/1999/xlink" xml:space="preserve" xmlns:serif="http://www.serif.com/" style="fill-rule:evenodd;clip-rule:evenodd;stroke-linejoin:round;stroke-miterlimit:2;">
    <g transform="matrix(8.33333,0,0,8.33333,412.572,517.177)">
        <path d="M0,-16.374C1.285,-7.149 9.459,-2.261 16.96,1.8C17.342,1.555 17.723,1.31 18.104,1.065C10.666,-1.967 6.406,-9.871 7.961,-17.751C8.078,-18.343 6.613,-18.119 6.508,-17.587C4.908,-9.482 9.31,-1.319 16.96,1.8C17.374,1.969 18.769,1.425 18.104,1.065C10.718,-2.933 2.714,-7.679 1.448,-16.762C1.375,-17.293 -0.081,-16.955 0,-16.374" style="fill:rgb(37,37,37);fill-rule:nonzero;"/>
    </g>
    <g transform="matrix(8.33333,0,0,8.33333,465.274,154.981)">
        <path d="M0,26.159C5.282,30.139 12.377,27.84 14.021,21.337L12.624,21.711C18.43,25.592 27.107,24.326 30.659,17.913C35.483,9.204 28.614,-0.674 19.116,-0.799C16.241,-0.836 16.313,-0.001 14.523,-2.557C13.156,-4.51 11.968,-6.156 9.937,-7.543C6.309,-10.021 1.78,-11.053 -2.574,-10.783C-11.024,-10.259 -19.319,-3.998 -17.163,5.297C-16.771,5.112 -16.378,4.927 -15.986,4.742C-22.32,4.225 -29.358,6.191 -32.273,12.412C-33.781,15.628 -33.819,19.362 -31.825,22.377C-30.786,23.948 -29.35,25.18 -27.612,25.908C-26.477,26.384 -25.609,26.085 -25.266,27.269C-25.08,27.911 -26.388,30.061 -26.409,31.069C-26.446,32.844 -25.837,34.642 -24.726,36.027C-22.7,38.552 -19.182,39.451 -16.08,39.12C-9.858,38.454 -5.626,32.914 -5.684,26.854C-5.687,26.473 -7.138,26.728 -7.133,27.242C-7.07,33.775 -12.938,40.959 -20.358,37.72C-24.973,35.705 -26.35,30.077 -23.063,26.221C-22.835,25.953 -23.266,25.866 -23.439,25.857C-28.77,25.572 -32.215,21.14 -31.826,16.103C-31.253,8.662 -23.968,4.887 -16.891,5.464C-16.628,5.486 -15.609,5.361 -15.714,4.909C-19.775,-12.595 9.239,-14.8 14.043,0.354C14.131,0.63 14.675,0.523 14.853,0.477C21.684,-1.288 29.068,2.506 30.499,9.592C32.379,18.902 22.694,26.996 13.976,21.169C13.65,20.951 12.691,21.098 12.579,21.543C11.322,26.513 5.707,28.898 1.352,25.616C0.976,25.333 -0.341,25.903 0,26.159" style="fill:rgb(37,37,37);fill-rule:nonzero;"/>
    </g>
    <g transform="matrix(0.878895,8.28686,8.28686,-0.878895,71.1417,204.569)">
        <path d="M4.551,-4.05C4.777,-1.197 5.121,1.637 5.59,4.458C5.711,5.184 4.712,6.027 4.551,5.062C4.062,2.116 3.696,-0.84 3.461,-3.817C3.394,-4.657 4.473,-5.031 4.551,-4.05" style="fill:rgb(37,37,37);fill-rule:nonzero;"/>
    </g>
    <g transform="matrix(-2.23759,8.02731,8.02731,2.23759,102.67,128.684)">
        <path d="M7.822,-10.301C8.186,-5.082 8.55,0.135 8.914,5.353C8.954,5.934 7.884,6.83 7.822,5.941C7.458,0.722 7.094,-4.496 6.729,-9.715C6.689,-10.294 7.76,-11.191 7.822,-10.301" style="fill:rgb(37,37,37);fill-rule:nonzero;"/>
    </g>
    <g transform="matrix(5.703,-6.0762,-6.0762,-5.703,172.642,130.132)">
        <path d="M-5.617,-2.431C-5.156,2.534 -4.694,7.498 -4.233,12.462C-4.169,13.159 -5.546,13.743 -5.617,12.976C-6.078,8.012 -6.539,3.048 -7,-1.917C-7.065,-2.613 -5.688,-3.198 -5.617,-2.431" style="fill:rgb(37,37,37);fill-rule:nonzero;"/>
    </g>
    <g transform="matrix(7.17242,-4.24274,-4.24274,-7.17242,205.141,134.186)">
        <path d="M-2.404,-0.658C-1.922,2.355 -1.441,5.368 -0.958,8.382C-0.856,9.028 -2.305,9.403 -2.404,8.786C-2.885,5.772 -3.367,2.758 -3.848,-0.255C-3.951,-0.901 -2.503,-1.275 -2.404,-0.658" style="fill:rgb(37,37,37);fill-rule:nonzero;"/>
    </g>
    <g transform="matrix(8.30236,0.717771,0.717771,-8.30236,221.172,142.434)">
        <path d="M0.726,-0.03C2.236,5.665 2.7,11.372 2.137,17.235C2.113,17.482 0.686,17.143 0.726,16.723C1.285,10.921 0.816,5.226 -0.678,-0.403C-0.752,-0.686 0.622,-0.419 0.726,-0.03" style="fill:rgb(37,37,37);fill-rule:nonzero;"/>
    </g>
    <g transform="matrix(-3.07013,-7.74718,-7.74718,3.07013,27.9427,270.618)">
        <path d="M-5.694,-8.47C-5.837,-4.217 -5.567,-0.005 -4.892,4.195C-4.748,5.091 -5.55,5.178 -5.694,4.287C-6.39,-0.047 -6.659,-4.389 -6.512,-8.776C-6.479,-9.781 -5.669,-9.204 -5.694,-8.47" style="fill:rgb(37,37,37);fill-rule:nonzero;"/>
    </g>
</svg>
