<?xml version="1.0" encoding="UTF-8" standalone="no"?>
<!DOCTYPE svg PUBLIC "-//W3C//DTD SVG 1.1//EN" "http://www.w3.org/Graphics/SVG/1.1/DTD/svg11.dtd">
<svg width="100%" height="100%" viewBox="0 0 779 655" version="1.1" xmlns="http://www.w3.org/2000/svg" xmlns:xlink="http://www.w3.org/1999/xlink" xml:space="preserve" xmlns:serif="http://www.serif.com/" style="fill-rule:evenodd;clip-rule:evenodd;stroke-linejoin:round;stroke-miterlimit:2;">
    <g transform="matrix(8.33333,0,0,8.33333,636.885,230.565)">
        <path d="M0,-21.529C-3.534,-23.548 -6.693,-20.414 -6.651,-16.877C-6.611,-13.504 -4.477,-10.578 -2.432,-8.035C0.367,-4.555 3.104,-1.078 5.483,2.693C5.646,2.95 6.406,2.599 6.261,2.368C4.406,-0.57 2.367,-3.419 0.191,-6.143C-1.232,-7.925 -2.848,-9.602 -4.011,-11.561C-4.796,-12.885 -5.32,-14.206 -5.593,-15.719C-5.896,-17.402 -6.594,-24.479 -0.705,-21.115C-0.456,-20.972 0.25,-21.386 0,-21.529" style="fill:rgb(37,37,37);fill-rule:nonzero;"/>
    </g>
    <g transform="matrix(8.33333,0,0,8.33333,655.911,239.554)">
        <path d="M0,-21.133C-2.188,-22.452 -4.14,-20.851 -4.393,-18.536C-4.709,-15.64 -2.227,-11.748 -0.976,-9.261C0.802,-5.726 2.829,-2.314 4.814,1.112C4.935,1.319 5.696,0.967 5.592,0.788C3.734,-2.418 1.85,-5.612 0.154,-8.903C-0.645,-10.454 -1.418,-12.02 -2.085,-13.629C-2.443,-14.476 -2.77,-15.334 -3.064,-16.204C-4.015,-18.048 -3.232,-19.561 -0.716,-20.744C-0.51,-20.62 0.184,-21.023 0,-21.133" style="fill:rgb(37,37,37);fill-rule:nonzero;"/>
    </g>
    <g transform="matrix(8.08075,-2.03614,-2.03614,-8.08075,729.957,232.53)">
        <path d="M-2.705,-0.33C-3.166,7.08 -3.399,14.695 -1.872,21.994C-1.846,22.119 -2.654,22.118 -2.705,21.869C-4.232,14.571 -3.998,6.955 -3.539,-0.454C-3.528,-0.639 -2.692,-0.552 -2.705,-0.33" style="fill:rgb(37,37,37);fill-rule:nonzero;"/>
    </g>
    <g transform="matrix(-8.13536,1.80563,1.80563,8.13536,736.022,233.129)">
        <path d="M2.284,-21.327C1.86,-14.122 2.007,-6.787 3.107,0.349C3.161,0.698 2.329,0.622 2.284,0.327C1.177,-6.842 1.029,-14.239 1.454,-21.475C1.472,-21.777 2.303,-21.655 2.284,-21.327" style="fill:rgb(37,37,37);fill-rule:nonzero;"/>
    </g>
    <g transform="matrix(8.0906,-1.99667,-1.99667,-8.0906,751.901,233.679)">
        <path d="M-2.742,0.118C-0.442,5.541 6.774,20.781 -2.2,23.82C-2.443,23.902 -3.184,23.606 -2.742,23.457C5.726,20.59 -1.408,5.177 -3.563,0.096C-3.67,-0.156 -2.848,-0.131 -2.742,0.118" style="fill:rgb(37,37,37);fill-rule:nonzero;"/>
    </g>
    <g transform="matrix(8.33333,0,0,8.33333,661.576,220.065)">
        <path d="M0,-21.395C1.9,-22.516 5.872,-22.524 7.612,-21.034C8.589,-20.197 9.197,-18.854 9.628,-17.689C10.492,-15.352 10.547,-12.599 10.497,-10.138C10.411,-5.983 9.704,-1.86 8.729,2.188C8.656,2.492 9.457,2.286 9.529,1.988C11.043,-4.301 13.089,-13.217 9.905,-19.318C7.858,-23.243 3.291,-23.887 -0.386,-21.718C-0.869,-21.433 -0.36,-21.182 0,-21.395" style="fill:rgb(37,37,37);fill-rule:nonzero;"/>
    </g>
    <g transform="matrix(8.33333,0,0,8.33333,647.855,183.879)">
        <path d="M0,-17.513C0.413,-20.389 6.712,-21.495 9.185,-20.694C10.364,-20.311 12.237,-19.317 12.977,-18.377C14.423,-16.539 14.354,-13.293 14.381,-11.102C14.454,-5.317 13.564,0.569 11.727,6.095C11.689,6.207 12.433,6.052 12.503,5.841C14.399,0.138 18.503,-15.008 12.735,-19.613C8.771,-22.778 0.151,-23.72 -0.775,-17.259C-0.798,-17.106 -0.029,-17.311 0,-17.513" style="fill:rgb(37,37,37);fill-rule:nonzero;"/>
    </g>
    <g transform="matrix(8.33333,0,0,8.33333,666.247,391.286)">
        <path d="M0,-18.242C1.599,-16.326 4.418,-16.416 6.737,-17.001C8.756,-17.51 11.018,-18.64 11.331,-20.815C11.408,-15.281 11.89,-9.746 12.769,-4.275C13.002,-2.826 13.254,-1.282 12.712,0.058C12.198,1.328 10.99,2.21 9.692,2.392C8.394,2.573 7.039,2.093 6.013,1.208C5.668,0.911 5.354,0.565 5.141,0.152C4.828,-0.453 4.755,-1.155 4.679,-1.836C4.334,-4.919 3.802,-7.981 3.089,-10.998C2.408,-13.873 1.474,-16.861 -0.62,-18.848" style="fill:rgb(37,37,37);fill-rule:nonzero;"/>
    </g>
    <g transform="matrix(8.33333,0,0,8.33333,353.121,102.393)">
        <path d="M0,58.142C-8.646,57.552 -17.004,55.431 -24.958,51.91C-31.149,49.169 -40.415,43.907 -41.112,35.948C-41.499,31.535 -39.278,26.733 -38.118,22.559C-37.041,18.679 -36.001,14.788 -34.956,10.898C-34.019,7.409 -33.357,2.988 -29.603,1.643C-25.76,0.267 -20.331,2.107 -16.61,3.031C-9.038,4.912 -1.523,7.083 5.992,9.186C12.316,10.957 24.704,12.297 23.164,21.859C21.879,29.847 18.802,37.554 17.34,45.541C16.649,49.313 15.831,52.635 12.441,54.691C8.762,56.923 3.921,57.484 -0.216,58.161C-0.179,58.479 -0.142,58.798 -0.104,59.116C-0.088,59.112 -0.072,59.109 -0.057,59.105C0.697,58.925 0.605,57.965 -0.169,58.149C-0.185,58.153 -0.2,58.157 -0.216,58.161C-0.965,58.34 -0.896,59.246 -0.104,59.116C4.97,58.286 11.866,57.633 15.64,53.397C17.044,51.82 17.761,49.908 18.212,47.839C19.201,43.305 20.044,38.779 21.198,34.274C22.55,28.996 26.989,20.354 23.184,15.356C19.653,10.721 12.364,9.904 7.308,8.487C-0.94,6.176 -9.189,3.671 -17.535,1.762C-21.688,0.812 -27.705,-1.104 -31.679,1.563C-36.145,4.559 -36.69,12.706 -37.988,17.489C-39.191,21.925 -40.597,26.321 -41.734,30.774C-42.409,33.412 -42.695,36.017 -41.865,38.642C-39.521,46.051 -30.642,50.664 -24.348,53.328C-16.631,56.595 -8.551,58.544 -0.225,59.112C0.479,59.16 0.828,58.198 0,58.142" style="fill:rgb(37,37,37);fill-rule:nonzero;"/>
    </g>
    <g transform="matrix(8.33333,0,0,8.33333,65.8073,195.299)">
        <path d="M0,30.87C-0.825,27.422 0.311,28.806 1.584,24.396C1.694,24.011 2.005,23.674 2.044,23.226C2.152,22.001 0.753,19.328 1.204,18.38C2.283,16.119 3.124,18.147 4.2,17.315C5.278,16.481 5.598,16.38 5.253,14.755C4.899,13.086 3.438,12.499 3.399,10.505C3.351,8.01 5.555,8.493 7.39,8.666C7.689,8.695 8.016,8.527 8.121,8.22C8.188,8.028 8.253,7.837 8.319,7.646C8.359,7.528 8.294,7.364 8.213,7.287C5.687,4.886 4.33,2.829 3.024,-0.493C2.953,-0.674 2.715,-0.752 2.548,-0.763C2.371,-0.773 2.195,-0.784 2.019,-0.795C1.751,-0.811 1.352,-0.669 1.287,-0.348C-0.05,6.402 -0.843,13.412 -3.16,19.85C-4.815,24.45 -5.096,27.891 -1.139,31.282C-0.703,31.656 0.429,31.107 -0.114,30.641C-2.297,28.77 -3.816,26.075 -3.152,22.984C-2.8,21.342 -1.815,20.088 -1.445,18.435C-0.598,14.651 0.869,11.03 1.292,7.157C1.44,5.794 1.58,4.448 1.844,3.102C2.088,1.859 1.812,1.041 2.518,1.666C3.347,2.401 3.789,4.463 4.613,5.446C5.369,6.348 6.881,6.592 5.572,7.219C4.756,7.611 4.891,7.146 4.201,7.248C3.601,7.337 3.112,7.117 2.551,7.599C1.176,8.783 2.338,11.199 2.719,12.552C2.959,13.407 4.198,15.494 3.13,16.398C2.898,16.593 2.244,16.159 1.945,16.304C1.209,16.66 0.971,16.204 0.326,16.877C-0.049,17.269 0.036,17.698 -0.045,18.166C-0.51,20.866 1.449,21.656 -0.217,24.456C-1.679,26.912 -1.995,27.954 -1.253,31.054C-1.103,31.681 0.146,31.481 0,30.87" style="fill:rgb(37,37,37);fill-rule:nonzero;"/>
    </g>
    <g transform="matrix(8.33333,0,0,8.33333,400.256,418.641)">
        <path d="M0,16.596C2.705,17.127 7.178,15.897 8.471,13.038C9.903,9.87 9.787,5.922 11.103,2.775C11.578,1.637 12.63,0.629 11.129,-0.119C10.304,-0.531 9.416,-0.154 8.836,0.547C7.71,1.908 7.74,3.887 6.471,5.301C5.84,6.004 4.957,6.489 4.491,7.342C3.839,8.535 4.357,9.357 4.099,10.586C3.604,12.937 1.463,12.544 0.061,13.882C-0.872,14.772 -1.28,15.457 -0.245,16.458C0.172,16.861 1.302,16.321 0.779,15.817C-0.171,14.898 3.661,13.371 4.112,12.999C4.614,12.585 4.957,12.162 5.196,11.541C5.685,10.275 5.117,8.919 5.715,7.701C6.358,6.388 7.857,5.604 8.609,4.269C8.84,3.861 9.55,1.864 9.793,2.408C10.043,2.968 9.049,5.974 8.893,6.63C8.391,8.733 7.991,12.191 6.564,13.709C5.184,15.179 2.408,16.046 0.535,15.678C-0.073,15.559 -0.808,16.438 0,16.596" style="fill:rgb(37,37,37);fill-rule:nonzero;"/>
    </g>
    <g transform="matrix(8.33333,0,0,8.33333,341.15,606.839)">
        <path d="M0,0.635C0.278,7.318 -12.7,3.899 -16.174,2.706C-18.881,1.776 -22.215,0.451 -24.597,-1.279C-25.509,-1.941 -28.24,-4.292 -27.646,-5.675C-27.615,-5.747 -24.187,-4.5 -23.97,-4.426C-19.57,-2.929 -15.164,-1.343 -10.646,-0.272C-7.001,0.591 -3.023,1.817 0.721,1.011C1.48,0.848 1.388,-0.101 0.609,0.06C0.596,0.062 0.583,0.065 0.57,0.068C-0.192,0.224 -0.096,1.179 0.682,1.019C0.695,1.017 0.708,1.014 0.721,1.011C0.684,0.694 0.646,0.377 0.609,0.06C-4.068,1.066 -10.144,-1.068 -14.621,-2.441C-19.31,-3.877 -23.935,-5.528 -28.587,-7.083C-28.833,-7.165 -29.306,-7.073 -29.424,-6.786C-30.629,-3.867 -29.094,-2.625 -26.783,-1.271C-22.416,1.289 -17.919,3.553 -12.998,4.683C-8.722,5.664 1.559,7.8 1.253,0.452C1.226,-0.181 -0.027,-0.012 0,0.635" style="fill:rgb(37,37,37);fill-rule:nonzero;"/>
    </g>
    <g transform="matrix(8.33333,0,0,8.33333,126.428,282.833)">
        <path d="M0,-15.899C-0.931,-12.497 1.718,-11.041 4.412,-9.755C9.21,-7.466 14.17,-5.47 19.24,-3.872C24.038,-2.36 28.967,-1.205 33.967,-0.611C37.475,-0.194 42.642,0.699 46.068,-0.446C53.266,-2.852 39.558,-7.214 37.927,-7.625C26.085,-10.605 14.197,-13.415 2.334,-16.31C1.908,-16.413 0.492,-15.747 1.046,-15.612C8.539,-13.784 16.032,-11.955 23.525,-10.127C27.272,-9.212 31.021,-8.302 34.766,-7.384C36.451,-6.971 38.164,-6.608 39.824,-6.097C40.879,-5.796 41.908,-5.429 42.915,-4.994C45.896,-4.485 46.46,-3.547 44.604,-2.18C42.459,0.512 35.651,-1.223 32.366,-1.74C28.35,-2.372 24.404,-3.348 20.528,-4.569C16.178,-5.941 -0.059,-10.138 1.584,-16.138C1.71,-16.598 0.13,-16.372 0,-15.899" style="fill:rgb(37,37,37);fill-rule:nonzero;"/>
    </g>
</svg>
