<?xml version="1.0" encoding="UTF-8" standalone="no"?>
<!DOCTYPE svg PUBLIC "-//W3C//DTD SVG 1.1//EN" "http://www.w3.org/Graphics/SVG/1.1/DTD/svg11.dtd">
<svg width="100%" height="100%" viewBox="0 0 743 347" version="1.1" xmlns="http://www.w3.org/2000/svg" xmlns:xlink="http://www.w3.org/1999/xlink" xml:space="preserve" xmlns:serif="http://www.serif.com/" style="fill-rule:evenodd;clip-rule:evenodd;stroke-linejoin:round;stroke-miterlimit:2;">
    <g transform="matrix(8.04503,2.173,-2.173,8.04503,-7699.18,-22316.7)">
        <text x="1594.29px" y="2362.79px" style="font-family:'LucidaGrande', 'Lucida Grande', sans-serif;font-weight:500;font-size:30.283px;fill:rgb(37,37,37);">t<tspan x="1604.71px 1616.19px 1631.11px 1639.78px 1647.62px 1658.04px 1666.72px 1675.39px " y="2362.79px 2362.79px 2362.79px 2362.79px 2362.79px 2362.79px 2362.79px 2362.79px ">ry it!!!</tspan></text>
    </g>
    <g transform="matrix(0,8.33333,8.33333,0,600.006,43.6876)">
        <path d="M-2.783,-4.398L4.519,-4.398C5.352,-4.398 5.114,-2.783 4.397,-2.783L-2.904,-2.783C-3.737,-2.783 -3.5,-4.398 -2.783,-4.398" style="fill:rgb(32,32,32);fill-rule:nonzero;"/>
    </g>
    <g transform="matrix(8.1749,1.61724,1.61724,-8.1749,608.164,79.1345)">
        <path d="M0.926,-0.076C1.942,3.154 2.458,6.447 2.445,9.835C2.443,10.417 0.924,9.851 0.926,9.318C0.938,6.015 0.465,2.803 -0.527,-0.351C-0.744,-1.042 0.776,-0.554 0.926,-0.076" style="fill:rgb(32,32,32);fill-rule:nonzero;"/>
    </g>
    <g transform="matrix(8.33333,0,0,8.33333,653.306,58.7268)">
        <path d="M0,4.615C1.349,3.085 2.697,1.555 4.046,0.025C4.307,-0.271 3.822,-0.416 3.617,-0.432C3.239,-0.46 2.813,-0.281 2.564,0C1.216,1.53 -0.133,3.06 -1.482,4.59C-1.743,4.886 -1.259,5.032 -1.054,5.047C-0.675,5.075 -0.248,4.896 0,4.615" style="fill:rgb(32,32,32);fill-rule:nonzero;"/>
    </g>
    <g transform="matrix(8.33333,0,0,8.33333,686.02,113.62)">
        <path d="M0,1.508C0.891,0.835 1.924,0.502 3.037,0.511C3.36,0.513 3.93,0.403 4.089,0.073C4.243,-0.25 3.957,-0.404 3.653,-0.407C1.841,-0.421 0.163,0.144 -1.281,1.235C-1.574,1.457 -1.407,1.719 -1.127,1.81C-0.758,1.929 -0.288,1.726 0,1.508" style="fill:rgb(32,32,32);fill-rule:nonzero;"/>
    </g>
</svg>
