<?xml version="1.0" encoding="UTF-8" standalone="no"?>
<!DOCTYPE svg PUBLIC "-//W3C//DTD SVG 1.1//EN" "http://www.w3.org/Graphics/SVG/1.1/DTD/svg11.dtd">
<svg width="100%" height="100%" viewBox="0 0 523 365" version="1.1" xmlns="http://www.w3.org/2000/svg" xmlns:xlink="http://www.w3.org/1999/xlink" xml:space="preserve" xmlns:serif="http://www.serif.com/" style="fill-rule:evenodd;clip-rule:evenodd;stroke-linejoin:round;stroke-miterlimit:2;">
    <g transform="matrix(7.52222,-3.58618,3.58618,7.52222,-3908.24,-22169.2)">
        <text x="-730.518px" y="2639.35px" style="font-family:'LucidaGrande', 'Lucida Grande', sans-serif;font-weight:500;font-size:30.283px;fill:rgb(37,37,37);">l<tspan x="-723.884px -709.133px -699.926px -695.111px " y="2639.35px 2639.35px 2639.35px 2639.35px ">et&apos;s</tspan></text>
    </g>
    <g transform="matrix(8.33333,0,0,8.33333,235.949,335.347)">
        <path d="M0,-4.835C1.217,1.557 8.136,4.277 14.075,3.228C21.236,1.964 26.357,-3.817 30.855,-9.057C30.901,-9.11 29.594,-9.112 29.289,-8.757C24.655,-3.359 18.255,4.124 10.201,2.642C5.947,1.859 2.423,-0.908 1.594,-5.262C1.541,-5.539 -0.065,-5.179 0,-4.835" style="fill:rgb(32,32,32);fill-rule:nonzero;"/>
    </g>
    <g transform="matrix(8.33333,0,0,8.33333,512.113,263.731)">
        <path d="M0,-7.2C-3.172,-6.404 -5.913,-4.778 -8.027,-2.267C-8.054,-2.217 -8.044,-2.177 -7.995,-2.148C-5.417,-1.074 -2.84,0 -0.262,1.074C0.025,1.194 1.276,1.024 1.287,0.595C1.366,-2.33 1.156,-5.22 0.655,-8.103C0.604,-8.394 -1.002,-8.044 -0.938,-7.676C-0.437,-4.793 -0.228,-1.903 -0.307,1.022L1.243,0.543C0.054,0.048 -1.137,-0.448 -2.326,-0.944C-3.188,-1.303 -4.952,-1.675 -5.598,-2.307C-7.221,-3.893 -0.931,-6.489 0.12,-6.753C1.043,-6.984 0.937,-7.435 0,-7.2" style="fill:rgb(32,32,32);fill-rule:nonzero;"/>
    </g>
</svg>
