<?xml version="1.0" encoding="UTF-8" standalone="no"?>
<!DOCTYPE svg PUBLIC "-//W3C//DTD SVG 1.1//EN" "http://www.w3.org/Graphics/SVG/1.1/DTD/svg11.dtd">
<svg width="100%" height="100%" viewBox="0 0 699 552" version="1.1" xmlns="http://www.w3.org/2000/svg" xmlns:xlink="http://www.w3.org/1999/xlink" xml:space="preserve" xmlns:serif="http://www.serif.com/" style="fill-rule:evenodd;clip-rule:evenodd;stroke-linejoin:round;stroke-miterlimit:2;">
    <g transform="matrix(8.33333,0,0,8.33333,41.2406,539.567)">
        <path d="M0,-43.274C0.099,-42.817 0.177,-42.355 0.3,-41.904C0.676,-40.529 1.082,-39.161 1.439,-37.782C1.489,-37.589 1.333,-37.345 1.271,-37.124C1.08,-37.203 0.799,-37.227 0.714,-37.37C0.283,-38.095 -0.095,-38.852 -0.492,-39.597C-0.896,-40.354 -1.301,-41.11 -1.705,-41.867C-1.753,-41.847 -1.8,-41.827 -1.847,-41.807C-1.678,-41.04 -1.499,-40.274 -1.34,-39.505C-1.163,-38.655 -1.01,-37.801 -0.833,-36.952C-0.748,-36.543 -0.936,-36.22 -1.253,-36.123C-1.421,-36.071 -1.78,-36.321 -1.907,-36.527C-2.237,-37.062 -2.508,-37.638 -2.763,-38.215C-3.208,-39.227 -3.624,-40.252 -4.053,-41.272C-4.118,-40.46 -4.184,-39.639 -4.039,-38.857C-3.763,-37.36 -3.434,-35.866 -3.003,-34.408C-2.568,-32.941 -2.05,-31.489 -1.443,-30.085C-0.942,-28.922 -0.226,-27.882 1.213,-27.757C1.371,-27.744 1.534,-27.709 1.681,-27.646C2.012,-27.503 2.277,-27.352 2.342,-26.892C2.414,-26.374 2.665,-25.88 2.854,-25.331C3.364,-25.554 3.836,-25.762 4.334,-25.981C4.213,-26.281 4.128,-26.52 4.024,-26.749C3.731,-27.394 3.493,-27.982 3.994,-28.689C4.316,-29.143 4.479,-29.771 4.549,-30.343C4.735,-31.889 4.267,-33.357 3.781,-34.798C3.293,-36.25 2.719,-37.673 2.202,-39.116C1.67,-40.601 0.947,-41.982 0,-43.274M-2.12,-38.999C-2.376,-40.211 -2.625,-41.26 -2.804,-42.321C-2.861,-42.66 -2.799,-43.056 -2.677,-43.379C-2.469,-43.931 -2.098,-43.944 -1.743,-43.445C-1.428,-43.002 -1.143,-42.538 -0.839,-42.087C-0.792,-42.016 -0.721,-41.962 -0.644,-41.884C-0.591,-42.855 -1.348,-43.828 -0.573,-44.733C0.253,-44.845 0.502,-44.118 0.848,-43.663C1.609,-42.664 2.162,-41.534 2.593,-40.336C3.173,-38.724 3.908,-37.165 4.439,-35.538C4.879,-34.191 5.191,-32.789 5.426,-31.39C5.613,-30.271 5.327,-29.191 4.749,-28.201C4.627,-27.992 4.584,-27.628 4.68,-27.413C4.978,-26.74 5.395,-26.121 5.701,-25.451C6.363,-24.005 6.998,-22.547 7.618,-21.083C8.096,-19.956 8.563,-18.822 8.983,-17.673C9.487,-16.297 9.95,-14.907 10.404,-13.515C10.888,-12.036 11.369,-10.557 11.8,-9.063C12.334,-7.212 12.855,-5.356 13.304,-3.484C13.571,-2.363 13.738,-1.211 13.853,-0.065C13.915,0.557 13.594,1.122 12.986,1.346C12.376,1.571 11.794,1.416 11.232,1.025C10.155,0.273 9.591,-0.818 9.029,-1.962C8.014,-4.033 7.115,-6.144 6.399,-8.336C5.885,-9.912 5.277,-11.459 4.819,-13.049C4.154,-15.356 3.589,-17.69 2.979,-20.011C2.641,-21.297 2.297,-22.581 1.96,-23.867C1.929,-23.987 1.876,-24.141 1.921,-24.236C2.349,-25.148 1.654,-25.857 1.46,-26.65C1.425,-26.795 1.069,-26.93 0.852,-26.951C-0.497,-27.077 -1.318,-27.981 -1.839,-29.075C-2.586,-30.646 -3.17,-32.298 -3.771,-33.934C-4.382,-35.593 -4.812,-37.305 -4.913,-39.074C-4.972,-40.114 -4.951,-41.16 -4.902,-42.199C-4.892,-42.416 -4.622,-42.746 -4.424,-42.784C-4.226,-42.823 -3.855,-42.62 -3.754,-42.422C-3.198,-41.344 -2.702,-40.235 -2.12,-38.999" style="fill:rgb(37,37,37);fill-rule:nonzero;"/>
    </g>
    <g transform="matrix(8.33333,0,0,8.33333,550.908,357.325)">
        <path d="M0,-41.714C-0.064,-41.707 -0.128,-41.699 -0.192,-41.693C-0.256,-41.578 -0.363,-41.468 -0.375,-41.347C-0.431,-40.813 -0.508,-40.275 -0.489,-39.74C-0.424,-37.854 -0.141,-35.998 0.369,-34.172C0.844,-32.473 1.256,-30.756 1.716,-29.053C1.855,-28.534 2.025,-28.016 2.246,-27.527C2.602,-26.739 3.023,-25.983 3.393,-25.201C3.672,-24.609 4.214,-24.251 4.842,-24.297C5.447,-24.341 5.924,-24.116 6.205,-23.553C6.397,-23.168 6.557,-22.766 6.764,-22.295C7.111,-22.466 7.479,-22.648 7.728,-22.771C5.132,-29.135 2.565,-35.424 0,-41.714M4.106,-33.714C4.854,-31.945 5.555,-30.264 6.273,-28.59C6.972,-26.965 7.689,-25.348 8.396,-23.727C8.509,-23.468 8.65,-23.366 8.966,-23.293C9.241,-23.229 9.489,-22.797 9.65,-22.477C10.299,-21.19 10.933,-19.894 11.524,-18.58C12.043,-17.429 12.505,-16.253 12.979,-15.083C13.69,-13.332 14.406,-11.581 15.092,-9.819C15.662,-8.355 16.241,-6.892 16.724,-5.398C17.109,-4.202 17.41,-2.972 17.646,-1.737C17.789,-0.982 17.752,-0.213 17.186,0.451C16.658,1.068 15.602,1.303 14.941,0.822C13.41,-0.29 12.432,-1.808 11.761,-3.566C11.259,-4.882 10.68,-6.168 10.186,-7.487C9.755,-8.638 9.394,-9.815 9.004,-10.982C8.526,-12.411 8.028,-13.834 7.579,-15.272C6.998,-17.133 6.44,-19.002 5.915,-20.879C5.832,-21.175 5.989,-21.532 6.007,-21.863C6.017,-22.054 5.983,-22.252 5.943,-22.441C5.927,-22.519 5.816,-22.575 5.792,-22.655C5.615,-23.231 5.306,-23.45 4.653,-23.427C3.59,-23.389 2.928,-24.123 2.507,-25.035C1.948,-26.244 1.395,-27.462 0.946,-28.714C0.557,-29.8 0.303,-30.936 0.013,-32.056C-0.312,-33.309 -0.667,-34.557 -0.905,-35.826C-1.12,-36.973 -1.238,-38.143 -1.32,-39.308C-1.397,-40.405 -1.376,-41.509 -0.818,-42.508C-0.557,-42.977 0.106,-43.017 0.351,-42.538C0.905,-41.452 1.447,-40.358 1.939,-39.242C2.503,-37.964 3.018,-36.663 3.533,-35.364C3.76,-34.794 3.938,-34.205 4.106,-33.714" style="fill:rgb(37,37,37);fill-rule:nonzero;"/>
    </g>
    <g transform="matrix(8.33333,0,0,8.33333,437.667,35.0782)">
        <path d="M0,51.627C6.239,48.936 11.478,43.805 14.345,36.32C17.221,28.813 16.884,21.32 13.513,14.012C10.529,7.544 5.656,2.869 -0.799,0.085C-7.91,-2.981 -15.135,-3.035 -22.254,-0.099C-34.671,5.022 -42.956,19.857 -37.306,35.508C-34.615,42.958 -29.473,48.378 -22.281,51.574C-15.264,54.693 -8.134,54.784 0,51.627M-37.846,36.443C-43.7,21.652 -36.764,6.129 -24.5,0.004C-16.995,-3.744 -9.205,-4.142 -1.342,-1.062C5.591,1.652 10.825,6.489 14.104,13.262C17.732,20.755 18.158,28.541 15.301,36.31C12.645,43.532 7.78,48.873 0.89,52.126C-6.483,55.607 -14.084,55.769 -21.725,52.745C-28.497,50.065 -34.677,44.534 -37.846,36.443" style="fill:rgb(37,37,37);fill-rule:nonzero;"/>
    </g>
    <g transform="matrix(8.33333,0,0,8.33333,411.618,94.1682)">
        <path d="M0,37.48C4.529,35.527 8.332,31.802 10.413,26.368C12.501,20.918 12.256,15.479 9.81,10.173C7.644,5.478 4.105,2.084 -0.581,0.063C-5.743,-2.163 -10.987,-2.201 -16.156,-0.07C-25.17,3.647 -31.185,14.417 -27.082,25.779C-25.13,31.187 -21.396,35.122 -16.176,37.442C-11.081,39.706 -5.905,39.772 0,37.48M-27.874,26.617C-32.213,15.656 -27.072,4.153 -17.984,-0.386C-12.423,-3.164 -6.65,-3.458 -0.823,-1.176C4.314,0.835 8.194,4.419 10.624,9.438C13.313,14.991 13.628,20.761 11.511,26.518C9.542,31.87 5.937,35.828 0.831,38.239C-4.633,40.819 -10.266,40.938 -15.928,38.697C-20.946,36.711 -25.525,32.612 -27.874,26.617" style="fill:rgb(37,37,37);fill-rule:nonzero;"/>
    </g>
</svg>
