<?xml version="1.0" encoding="UTF-8" standalone="no"?>
<!DOCTYPE svg PUBLIC "-//W3C//DTD SVG 1.1//EN" "http://www.w3.org/Graphics/SVG/1.1/DTD/svg11.dtd">
<svg width="100%" height="100%" viewBox="0 0 1169 768" version="1.1" xmlns="http://www.w3.org/2000/svg" xmlns:xlink="http://www.w3.org/1999/xlink" xml:space="preserve" xmlns:serif="http://www.serif.com/" style="fill-rule:evenodd;clip-rule:evenodd;stroke-linejoin:round;stroke-miterlimit:2;">
    <g transform="matrix(8.33333,0,0,8.33333,158.462,711.244)">
        <path d="M0,-21.639C-0.771,-25.903 2.846,-29.712 7.524,-28.118C9.975,-27.283 11.64,-25.291 12.787,-23.037C12.948,-22.722 14.176,-23.072 14.262,-23.368C15.607,-27.993 20.557,-31.234 25.247,-28.231C27.675,-26.676 28.896,-24.285 29.164,-21.5C29.186,-21.279 29.897,-21.453 29.968,-21.472C35.537,-22.977 42.543,-22.755 45.323,-16.828C46.084,-15.206 46.281,-13.27 45.68,-11.571C45.178,-10.151 43.858,-8.508 42.473,-7.76C39.938,-7.31 37.403,-6.859 34.869,-6.409C33.789,-6.692 32.818,-7.178 31.958,-7.866C31.683,-8.055 30.645,-7.813 30.526,-7.483C29.412,-4.384 31.251,-1.047 29.818,1.946C26.811,8.231 19.985,4.156 19.452,-0.85C19.418,-1.176 18.075,-0.774 17.978,-0.52C15.854,5.053 9.018,8.219 3.713,4.541C1.032,2.681 -0.445,-0.027 -0.874,-3.197C-0.918,-3.526 -2.045,-3.12 -2.184,-3.018C-14.246,5.898 -23.134,-11.285 -13.653,-15.162C-13.597,-15.185 -12.979,-15.443 -13.209,-15.58C-15.635,-17.023 -17.411,-20.496 -15.84,-23.28C-14.8,-25.122 -8.291,-26.471 -6.472,-25.497C-4.807,-24.606 -3.699,-22.819 -2.903,-21.19C-2.729,-20.832 -1.301,-21.347 -1.419,-21.588C-3.835,-26.532 -9.285,-28.953 -14.278,-26.146C-16.362,-24.975 -17.835,-22.933 -17.814,-20.482C-17.802,-18.933 -17.267,-17.452 -16.234,-16.287C-14.79,-14.656 -14.939,-15.82 -15.972,-14.604C-17.401,-12.918 -18.6,-11.854 -18.93,-9.472C-19.32,-6.66 -18.372,-3.8 -16.162,-1.991C-11.787,1.59 -5.219,0.105 -1.048,-2.978C-1.485,-2.918 -1.922,-2.859 -2.358,-2.799C-0.749,9.122 15.383,9.871 19.442,-0.783C18.95,-0.673 18.459,-0.563 17.968,-0.452C18.444,4.029 22.61,6.791 26.893,5.379C28.415,4.876 29.837,3.908 30.754,2.579C32.972,-0.636 30.745,-4.285 31.99,-7.745C31.513,-7.618 31.035,-7.49 30.559,-7.362C34.975,-4.325 41.278,-5.282 45.121,-8.92C50.739,-14.241 45.415,-21.73 39.027,-22.788C37.045,-23.117 31.97,-21.743 30.79,-22.615C29.952,-23.234 29.496,-25.953 28.682,-26.937C27.739,-28.076 26.502,-29 25.121,-29.535C20.023,-31.51 14.266,-28.151 12.798,-23.105C13.289,-23.215 13.78,-23.325 14.271,-23.435C12.34,-27.229 8.531,-30.076 4.117,-29.051C0.481,-28.206 -2.169,-25.022 -1.485,-21.242C-1.431,-20.94 0.065,-21.274 0,-21.639" style="fill:rgb(37,37,37);fill-rule:nonzero;"/>
    </g>
    <g transform="matrix(8.33333,0,0,8.33333,831.436,396.585)">
        <path d="M0,-28.937C-8.525,-25.155 -12.558,-12.407 -6.963,-4.503C-2.946,1.169 6.434,2.334 12.687,0.432C21.271,-2.178 23.911,-14.475 20.043,-21.835C16.16,-29.224 7.659,-31.232 0.245,-28.503C-0.722,-28.147 0.191,-27.982 0.743,-28.185C9.128,-31.271 17.813,-26.405 19.877,-18.029C20.617,-15.024 20.214,-12.112 19.484,-9.137C19.178,-7.887 18.886,-6.376 18.231,-5.243C17.389,-2.812 15.417,-1.596 12.315,-1.591C9.949,0.356 7.378,1.013 4.601,0.377C-0.871,-0.406 -5.901,-3.245 -7.299,-8.929C-9.144,-16.434 -6.636,-25.442 0.832,-28.756C1.7,-29.142 0.342,-29.089 0,-28.937" style="fill:rgb(37,37,37);fill-rule:nonzero;"/>
    </g>
    <g transform="matrix(8.33333,0,0,8.33333,841.722,258.208)">
        <path d="M0,-1.135C-0.192,-0.491 0.242,0.116 0.823,0.367C1.481,0.651 2.326,0.492 2.842,-0.007C3.264,-0.417 3.444,-1.068 3.23,-1.628C2.998,-2.239 2.389,-2.525 1.764,-2.533C0.303,-2.554 -1.097,-1.157 -0.173,0.26C0.587,1.423 2.888,1.418 3.386,-0.003C4.104,-2.05 0.317,-1.814 0.741,-0.069C0.771,0.055 0.918,0.152 1.034,0.177C1.745,0.331 2.721,0.074 2.99,-0.686C3.25,-1.417 2.555,-1.966 1.883,-1.984C1.563,-1.992 1.092,-1.884 0.934,-1.565C0.514,-0.72 0.761,0.219 1.526,0.762C1.89,1.019 2.726,0.759 2.823,0.305C3.115,-1.061 1.804,-2.558 0.386,-1.939C-0.132,-1.713 -0.546,-1.012 0.2,-0.781C0.635,-0.646 1.798,-0.874 1.575,-1.539C1.379,-2.122 -0.064,-1.718 0.126,-1.151C0.126,-1.158 0.127,-1.165 0.127,-1.172C0.215,-1.287 0.304,-1.402 0.392,-1.517C0.21,-1.387 0.872,-1.009 0.951,-0.937C1.069,-0.829 1.167,-0.695 1.241,-0.554C1.409,-0.234 1.439,0.102 1.365,0.451C1.797,0.299 2.229,0.147 2.661,-0.006C2.209,-0.326 2.056,-0.974 2.3,-1.468C1.983,-1.328 1.667,-1.188 1.351,-1.048C1.449,-1.046 1.535,-0.943 1.563,-0.85C1.57,-0.808 1.577,-0.765 1.585,-0.723C1.481,-0.523 1.586,-0.517 1.896,-0.703L2.189,-0.457C2.157,-0.525 2.161,-0.589 2.203,-0.65C1.869,-0.655 1.779,-0.586 1.933,-0.444C1.942,-0.267 2.003,-0.16 1.967,0.029C1.954,0.097 1.814,0.202 1.926,0.158C1.806,0.206 1.614,0.097 1.521,0.037C1.084,-0.243 0.688,-1.174 1.235,-1.546C1.6,-1.794 1.909,-1.073 1.84,-0.709C1.815,-0.581 1.725,-0.487 1.694,-0.374C1.751,-0.586 1.932,-0.256 1.782,-0.484C1.698,-0.612 1.538,-0.667 1.465,-0.828C1.394,-0.988 1.41,-1.119 1.458,-1.281C1.637,-1.876 0.167,-1.692 0,-1.135" style="fill:rgb(37,37,37);fill-rule:nonzero;"/>
    </g>
    <g transform="matrix(8.33333,0,0,8.33333,900.666,254.538)">
        <path d="M0,-1.425C-0.643,-0.876 -0.474,0.391 0.488,0.451C1.24,0.498 2.66,-0.321 1.852,-1.185C1.285,-1.792 -0.403,-1.216 -0.492,-0.379C-0.615,0.782 1.341,0.194 1.827,-0.172C2.149,-0.414 2.34,-0.8 2.117,-1.18C1.83,-1.669 1.21,-1.705 0.712,-1.626C0.449,-1.584 0.169,-1.509 -0.072,-1.393C-0.354,-1.258 -0.408,-1.131 -0.437,-0.828C-0.489,-0.283 -0.284,0.286 0.253,0.498C0.995,0.79 2.869,0.375 2.617,-0.716C2.354,-1.856 0.891,-2.275 -0.1,-2.043C-0.61,-1.923 -1.214,-1.702 -1.391,-1.153C-1.521,-0.749 -1.416,-0.257 -1.027,-0.037C-0.197,0.431 1.767,-0.285 1.606,-1.4C1.568,-1.664 0.582,-1.332 0.471,-1.277C-0.067,-1.009 -0.401,-0.587 -0.207,0.036C-0.021,0.637 0.5,0.85 1.091,0.766C1.285,0.738 2.048,0.632 2.124,0.364C2.322,-0.337 1.987,-1.059 1.292,-1.312C0.951,-1.435 0.211,-1.276 -0.045,-1.004C-0.395,-0.63 -0.543,-0.195 -0.375,0.304C-0.268,0.624 0.854,0.18 1.001,0.041L1.634,-0.553C1.864,-0.771 1.425,-0.762 1.302,-0.751C1.005,-0.726 0.558,-0.631 0.329,-0.416C0.119,-0.217 -0.092,-0.019 -0.303,0.179C0.156,0.092 0.615,0.004 1.073,-0.084C0.949,-0.453 0.98,-0.844 1.259,-1.141C0.813,-1.039 0.368,-0.936 -0.077,-0.833C0.519,-0.616 0.876,0.011 0.699,0.634C1.043,0.5 1.388,0.366 1.732,0.232C1.502,0.265 1.277,-0.214 1.228,-0.397C1.19,-0.534 1.173,-0.685 1.197,-0.826C1.211,-0.906 1.244,-0.971 1.269,-1.047C1.292,-1.122 1.478,-1.227 1.293,-1.135C0.914,-1.094 0.536,-1.053 0.157,-1.012C0.178,-0.869 0.176,-0.751 0.12,-0.616C0.016,-0.366 -0.35,-0.264 0.184,-0.395C0.7,-0.522 0.386,-0.442 0.203,-0.626C0.123,-0.707 0.077,-0.801 0.044,-0.91C-0.043,-1.189 0.05,-1.358 0.116,-1.615C0.136,-1.643 0.154,-1.672 0.173,-1.701C-0.394,-1.637 -0.472,-1.573 -0.063,-1.508C0.086,-1.456 0.235,-1.382 0.37,-1.299C0.627,-1.141 0.858,-0.931 1.018,-0.673C1.082,-0.569 1.141,-0.447 1.168,-0.328C1.201,-0.183 1.14,-0.07 1.153,0.06C0.983,0.305 1.151,0.294 1.656,0.027C1.606,0.008 1.557,-0.011 1.508,-0.03C1.381,-0.134 1.264,-0.194 1.175,-0.342C0.975,-0.673 0.976,-1.092 1.051,-1.458C0.895,-1.367 0.738,-1.276 0.582,-1.186C-0.008,-0.97 0.286,-1.178 0.555,-0.926C0.681,-0.808 0.774,-0.634 0.769,-0.457C0.768,-0.364 0.743,-0.28 0.693,-0.204C0.481,0.024 0.631,-0.004 1.142,-0.286C1.064,-0.33 1.012,-0.393 0.983,-0.474C0.96,-0.536 0.948,-0.6 0.948,-0.667C0.949,-0.861 1.068,-0.922 1.126,-1.08C0.341,-1.066 0.104,-0.965 0.414,-0.777C0.472,-0.721 0.516,-0.657 0.545,-0.583C0.642,-0.367 0.657,0.044 0.414,0.175C0.825,0.095 1.236,0.016 1.648,-0.064C1.069,-0.267 0.799,-1.132 1.305,-1.563C1.551,-1.773 1.083,-1.77 0.973,-1.761C0.662,-1.735 0.246,-1.634 0,-1.425" style="fill:rgb(37,37,37);fill-rule:nonzero;"/>
    </g>
    <g transform="matrix(8.33333,0,0,8.33333,896.801,255.101)">
        <path d="M0,-1.769C-0.609,-1.409 -0.702,-0.49 0.014,-0.192C0.679,0.084 1.836,-0.392 1.792,-1.209C1.752,-1.97 0.466,-1.685 0.327,-1.089C0.21,-0.584 0.448,-0.094 0.901,0.148C1.223,0.321 1.646,0.274 1.938,0.054C2.151,-0.105 2.349,-0.494 2.022,-0.669C1.792,-0.792 1.734,-0.961 1.792,-1.209L0.327,-1.089C0.304,-0.783 0.52,-0.789 0.973,-1.106C0.979,-1.201 0.973,-1.212 0.952,-1.14C1.223,-1.3 1.301,-1.667 1.037,-1.863C0.732,-2.09 0.284,-1.937 0,-1.769" style="fill:rgb(37,37,37);fill-rule:nonzero;"/>
    </g>
    <g transform="matrix(8.33333,0,0,8.33333,833.007,318.668)">
        <path d="M0,-4.979C-1.112,-1.043 4.082,1.073 7.211,0.705C10.538,0.313 13.136,-2.285 13.173,-5.676C13.177,-6.052 11.729,-5.807 11.724,-5.288C11.686,-1.837 8.678,0.751 5.155,-0.27C3.028,-0.887 0.751,-2.736 1.442,-5.184C1.57,-5.634 0.128,-5.43 0,-4.979" style="fill:rgb(37,37,37);fill-rule:nonzero;"/>
    </g>
    <g transform="matrix(8.33333,0,0,8.33333,888.711,6.41919)">
        <path d="M0,13.754C-0.812,8.988 -1.502,4.206 -2.083,-0.594C-2.423,-0.41 -2.764,-0.226 -3.104,-0.042C-0.044,-0.193 -0.23,1.495 -0.369,3.776C-0.446,5.036 -0.55,6.294 -0.68,7.549C-0.908,9.754 -1.234,11.941 -1.641,14.12C-1.727,14.581 -0.28,14.337 -0.2,13.906C0.648,9.358 1.072,4.773 1.219,0.151C1.193,0.087 1.146,0.046 1.079,0.026C-0.151,-0.591 -1.146,-0.827 -2.512,-0.759C-2.771,-0.746 -3.58,-0.606 -3.532,-0.206C-2.95,4.594 -2.26,9.376 -1.449,14.143C-1.38,14.549 0.078,14.215 0,13.754" style="fill:rgb(37,37,37);fill-rule:nonzero;"/>
    </g>
    <g transform="matrix(8.33333,0,0,8.33333,878.148,557.845)">
        <path d="M0,-13.754C0.812,-8.988 1.501,-4.205 2.083,0.594C2.423,0.41 2.763,0.226 3.104,0.042C0.044,0.193 0.23,-1.495 0.369,-3.776C0.446,-5.036 0.55,-6.294 0.68,-7.549C0.908,-9.754 1.233,-11.941 1.641,-14.12C1.727,-14.581 0.28,-14.337 0.2,-13.906C-0.648,-9.358 -1.072,-4.773 -1.219,-0.151C-1.193,-0.087 -1.146,-0.046 -1.079,-0.026C0.151,0.591 1.145,0.827 2.512,0.759C2.771,0.746 3.58,0.606 3.532,0.206C2.95,-4.594 2.26,-9.376 1.448,-14.143C1.38,-14.549 -0.079,-14.215 0,-13.754" style="fill:rgb(37,37,37);fill-rule:nonzero;"/>
    </g>
    <g transform="matrix(8.33333,0,0,8.33333,956.151,23.1759)">
        <path d="M0,13.586C1.279,8.923 2.675,4.297 4.178,-0.298C3.742,-0.156 3.308,-0.014 2.872,0.128C4.269,0.668 5.345,1.244 4.947,2.912C4.667,4.09 3.607,5.453 3.009,6.505C1.602,8.98 0.065,11.37 -1.591,13.684C-1.928,14.154 -0.501,13.992 -0.259,13.653C2.438,9.886 4.767,5.906 6.854,1.773C6.874,1.711 6.86,1.657 6.812,1.613C6.025,0.59 5.246,-0.047 4.042,-0.511C3.706,-0.641 2.868,-0.484 2.737,-0.084C1.234,4.511 -0.161,9.137 -1.439,13.8C-1.557,14.227 -0.119,14.021 0,13.586" style="fill:rgb(37,37,37);fill-rule:nonzero;"/>
    </g>
    <g transform="matrix(8.33333,0,0,8.33333,810.708,541.088)">
        <path d="M0,-13.586C-1.279,-8.923 -2.675,-4.297 -4.178,0.298C-3.742,0.156 -3.308,0.014 -2.873,-0.128C-4.269,-0.668 -5.345,-1.244 -4.947,-2.912C-4.667,-4.09 -3.607,-5.453 -3.009,-6.505C-1.602,-8.98 -0.066,-11.37 1.591,-13.684C1.928,-14.154 0.5,-13.991 0.258,-13.653C-2.438,-9.886 -4.768,-5.907 -6.854,-1.773C-6.875,-1.711 -6.86,-1.657 -6.812,-1.613C-6.026,-0.59 -5.246,0.047 -4.042,0.511C-3.707,0.641 -2.868,0.484 -2.737,0.084C-1.235,-4.511 0.161,-9.137 1.439,-13.8C1.557,-14.227 0.119,-14.021 0,-13.586" style="fill:rgb(37,37,37);fill-rule:nonzero;"/>
    </g>
    <g transform="matrix(8.33333,0,0,8.33333,1008.47,83.8659)">
        <path d="M0,11.102C3.05,7.351 6.193,3.68 9.423,0.082C8.976,0.177 8.527,0.271 8.08,0.365C8.893,1.156 9.923,2.414 9.143,3.54C8.463,4.519 6.793,5.406 5.825,6.126C3.54,7.825 1.173,9.403 -1.279,10.85C-2.114,11.342 -0.821,11.418 -0.408,11.175C3.594,8.814 7.354,6.102 10.94,3.15C11.012,3.09 11.121,2.989 11.095,2.879C10.806,1.642 10.339,0.71 9.434,-0.169C9.128,-0.466 8.328,-0.151 8.091,0.113C4.861,3.711 1.717,7.381 -1.333,11.133C-1.687,11.568 -0.263,11.425 0,11.102" style="fill:rgb(37,37,37);fill-rule:nonzero;"/>
    </g>
    <g transform="matrix(8.33333,0,0,8.33333,758.389,480.407)">
        <path d="M0,-11.103C-3.05,-7.352 -6.193,-3.681 -9.423,-0.083C-8.976,-0.178 -8.527,-0.272 -8.08,-0.366C-8.894,-1.157 -9.923,-2.416 -9.143,-3.541C-8.463,-4.52 -6.793,-5.407 -5.825,-6.127C-3.54,-7.826 -1.173,-9.404 1.279,-10.851C2.114,-11.343 0.821,-11.419 0.408,-11.176C-3.594,-8.815 -7.354,-6.103 -10.94,-3.151C-11.013,-3.091 -11.121,-2.99 -11.095,-2.88C-10.806,-1.644 -10.339,-0.711 -9.434,0.168C-9.128,0.466 -8.328,0.15 -8.091,-0.114C-4.861,-3.712 -1.717,-7.382 1.333,-11.134C1.687,-11.569 0.263,-11.426 0,-11.103" style="fill:rgb(37,37,37);fill-rule:nonzero;"/>
    </g>
    <g transform="matrix(8.33333,0,0,8.33333,1040.23,185.715)">
        <path d="M0,6.407C4.308,4.347 8.664,2.401 13.065,0.552C12.734,0.537 12.402,0.522 12.07,0.507C12.297,1.019 12.425,1.554 12.455,2.114C12.492,3.329 11.972,3.919 10.894,3.884C9.771,4.534 7.932,4.533 6.634,4.769C4.291,5.195 1.935,5.511 -0.437,5.731C-1.096,5.792 -1.68,6.51 -0.665,6.416C3.978,5.986 8.542,5.13 13.063,3.994C13.237,3.95 13.659,3.811 13.701,3.586C13.938,2.339 13.934,1.34 13.52,0.119C13.411,-0.2 12.706,-0.003 12.524,0.074C8.011,1.97 3.546,3.969 -0.87,6.082C-1.739,6.497 -0.419,6.607 0,6.407" style="fill:rgb(37,37,37);fill-rule:nonzero;"/>
    </g>
    <g transform="matrix(8.33333,0,0,8.33333,726.618,378.549)">
        <path d="M0,-6.407C-4.307,-4.347 -8.663,-2.401 -13.064,-0.552C-12.733,-0.537 -12.401,-0.522 -12.07,-0.507C-12.296,-1.019 -12.425,-1.554 -12.454,-2.114C-12.491,-3.329 -11.971,-3.919 -10.893,-3.884C-9.77,-4.534 -7.931,-4.533 -6.633,-4.769C-4.29,-5.195 -1.935,-5.511 0.437,-5.731C1.097,-5.792 1.681,-6.51 0.666,-6.416C-3.978,-5.986 -8.542,-5.13 -13.062,-3.994C-13.236,-3.95 -13.658,-3.811 -13.701,-3.586C-13.938,-2.339 -13.933,-1.34 -13.519,-0.118C-13.411,0.2 -12.705,0.003 -12.523,-0.074C-8.011,-1.97 -3.545,-3.969 0.871,-6.081C1.74,-6.497 0.419,-6.607 0,-6.407" style="fill:rgb(37,37,37);fill-rule:nonzero;"/>
    </g>
    <g transform="matrix(8.33333,0,0,8.33333,1039.27,320.66)">
        <path d="M0,-1.951C2.765,-2.069 5.53,-2.155 8.297,-2.194C9.548,-2.212 11,-2.426 12.232,-2.223C14.354,-1.875 14.282,-1.332 12.972,0.623C13.345,0.501 13.719,0.379 14.093,0.257C9.6,-0.457 5.176,-1.442 0.841,-2.832C0.454,-2.956 -0.852,-2.36 -0.328,-2.192C4.092,-0.775 8.6,0.23 13.183,0.958C13.497,1.008 14.109,0.882 14.304,0.592C15.017,-0.471 15.413,-1.383 15.513,-2.681C15.53,-2.912 15.266,-2.932 15.088,-2.933C10.254,-2.959 5.422,-2.874 0.592,-2.668C0.121,-2.648 -0.964,-1.91 0,-1.951" style="fill:rgb(37,37,37);fill-rule:nonzero;"/>
    </g>
    <g transform="matrix(8.33333,0,0,8.33333,727.587,243.592)">
        <path d="M0,1.953C-2.765,2.071 -5.53,2.156 -8.297,2.196C-9.548,2.213 -11,2.427 -12.232,2.225C-14.354,1.877 -14.282,1.334 -12.972,-0.621C-13.345,-0.5 -13.719,-0.378 -14.093,-0.255C-9.6,0.458 -5.176,1.444 -0.841,2.834C-0.454,2.958 0.852,2.362 0.328,2.194C-4.093,0.776 -8.6,-0.229 -13.183,-0.957C-13.497,-1.007 -14.109,-0.881 -14.304,-0.591C-15.017,0.472 -15.413,1.385 -15.513,2.683C-15.53,2.914 -15.266,2.933 -15.089,2.934C-10.254,2.96 -5.422,2.876 -0.592,2.67C-0.121,2.65 0.964,1.911 0,1.953" style="fill:rgb(37,37,37);fill-rule:nonzero;"/>
    </g>
    <g transform="matrix(8.33333,0,0,8.33333,1015.63,425.512)">
        <path d="M0,-7.105C2.392,-6.171 4.772,-5.21 7.138,-4.213C9.112,-3.382 15.097,-1.938 11.181,0.464C11.552,0.429 11.922,0.395 12.293,0.359C8.431,-2.129 4.745,-4.841 1.308,-7.894C0.971,-8.193 -0.369,-7.645 -0.047,-7.359C3.391,-4.307 7.077,-1.595 10.938,0.895C11.24,1.088 11.77,0.962 12.052,0.79C13.218,0.074 14.047,-0.695 14.677,-1.926C14.728,-2.026 14.611,-2.107 14.541,-2.139C10.128,-4.113 5.673,-5.985 1.17,-7.745C0.79,-7.893 -0.529,-7.312 0,-7.105" style="fill:rgb(37,37,37);fill-rule:nonzero;"/>
    </g>
    <g transform="matrix(8.33333,0,0,8.33333,751.227,138.753)">
        <path d="M0,7.105C-2.392,6.171 -4.772,5.21 -7.139,4.213C-9.112,3.382 -15.098,1.938 -11.181,-0.464C-11.552,-0.429 -11.923,-0.395 -12.293,-0.359C-8.431,2.129 -4.745,4.841 -1.308,7.894C-0.971,8.193 0.368,7.645 0.046,7.359C-3.391,4.307 -7.077,1.595 -10.939,-0.894C-11.24,-1.088 -11.77,-0.962 -12.052,-0.79C-13.218,-0.074 -14.047,0.695 -14.677,1.926C-14.728,2.026 -14.611,2.107 -14.541,2.139C-10.128,4.114 -5.674,5.985 -1.17,7.745C-0.79,7.893 0.529,7.312 0,7.105" style="fill:rgb(37,37,37);fill-rule:nonzero;"/>
    </g>
    <g transform="matrix(8.33333,0,0,8.33333,953.099,521.968)">
        <path d="M0,-11.644C1.362,-9.874 2.708,-8.092 4.029,-6.291C4.795,-5.248 5.554,-4.199 6.305,-3.145C6.683,-2.614 7.06,-2.082 7.434,-1.549C8.298,-0.839 8.196,-0.511 7.131,-0.564C6.367,-0.111 5.94,-0.34 5.851,-1.251C5.578,-1.826 5.312,-2.404 5.053,-2.985C4.607,-3.981 4.18,-4.986 3.771,-5.998C2.94,-8.053 2.203,-10.138 1.545,-12.254C1.411,-12.684 -0.033,-12.28 0.096,-11.866C1.461,-7.477 3.219,-3.25 5.242,0.874C5.319,1.031 5.518,1.04 5.671,1.038C7.142,1.027 8.415,0.734 9.67,-0.044C9.823,-0.14 10.045,-0.281 9.911,-0.474C7.151,-4.444 4.303,-8.347 1.354,-12.179C1.096,-12.514 -0.298,-12.031 0,-11.644" style="fill:rgb(37,37,37);fill-rule:nonzero;"/>
    </g>
    <g transform="matrix(8.33333,0,0,8.33333,813.76,42.2967)">
        <path d="M0,11.644C-1.362,9.874 -2.708,8.092 -4.029,6.291C-4.795,5.248 -5.554,4.199 -6.305,3.145C-6.683,2.614 -7.06,2.082 -7.434,1.549C-8.298,0.839 -8.197,0.511 -7.131,0.564C-6.367,0.111 -5.94,0.34 -5.851,1.251C-5.578,1.826 -5.312,2.404 -5.053,2.985C-4.607,3.981 -4.18,4.986 -3.771,5.998C-2.941,8.053 -2.203,10.138 -1.545,12.254C-1.411,12.684 0.033,12.28 -0.096,11.866C-1.462,7.477 -3.219,3.25 -5.243,-0.874C-5.319,-1.031 -5.518,-1.04 -5.672,-1.038C-7.142,-1.027 -8.415,-0.734 -9.67,0.044C-9.823,0.139 -10.045,0.281 -9.911,0.474C-7.151,4.444 -4.304,8.347 -1.354,12.179C-1.097,12.514 0.298,12.031 0,11.644" style="fill:rgb(37,37,37);fill-rule:nonzero;"/>
    </g>
</svg>
