<?xml version="1.0" encoding="UTF-8" standalone="no"?>
<!DOCTYPE svg PUBLIC "-//W3C//DTD SVG 1.1//EN" "http://www.w3.org/Graphics/SVG/1.1/DTD/svg11.dtd">
<svg width="100%" height="100%" viewBox="0 0 573 797" version="1.1" xmlns="http://www.w3.org/2000/svg" xmlns:xlink="http://www.w3.org/1999/xlink" xml:space="preserve" xmlns:serif="http://www.serif.com/" style="fill-rule:evenodd;clip-rule:evenodd;stroke-linejoin:round;stroke-miterlimit:2;">
    <g transform="matrix(8.33333,0,0,8.33333,494.553,86.4333)">
        <path d="M0,39.908C0.089,39.95 0.178,39.993 0.266,40.035C4.406,35.604 6.971,30.396 7.931,24.322C6.228,26.561 4.566,28.727 2.936,30.915C2.758,31.154 2.74,31.517 2.672,31.828C2.074,34.527 1.864,37.358 -0.019,39.615C-0.064,39.669 -0.009,39.808 0,39.908M-20.018,49.032C-14.277,49.573 -3.033,44.789 -0.623,40.573C-1.078,40.716 -1.355,40.75 -1.577,40.881C-3.913,42.26 -6.451,43.04 -9.117,43.431C-9.919,43.55 -10.548,43.827 -11.183,44.409C-12.182,45.325 -13.315,46.164 -14.525,46.766C-16.288,47.644 -18.169,48.283 -20.018,49.032M-8.732,-6.609C-8.909,-5.241 -9.106,-4.033 -9.194,-2.816C-9.217,-2.505 -8.954,-2.109 -8.715,-1.853C-6.549,0.471 -4.36,2.775 -2.174,5.08C-1.981,5.282 -1.788,5.548 -1.546,5.626C0.78,6.367 3.116,7.075 5.658,7.856C2.515,1.279 -2.194,-3.488 -8.732,-6.609M-34.773,44.911C-35.296,41.922 -35.75,39.229 -36.252,36.546C-36.332,36.121 -36.559,35.675 -36.841,35.345C-39.02,32.791 -41.226,30.262 -43.433,27.733C-43.583,27.561 -43.803,27.336 -43.994,27.332C-45.598,27.3 -47.201,27.314 -48.808,27.314C-48.813,27.379 -48.834,27.455 -48.819,27.522C-48.772,27.732 -48.717,27.942 -48.654,28.149C-46.65,34.841 -42.778,40.182 -37.005,44.11C-36.35,44.555 -35.469,44.671 -34.773,44.911M-10.315,-3.104C-10.203,-4.005 -10.104,-5.049 -9.934,-6.081C-9.807,-6.857 -10.072,-7.211 -10.831,-7.483C-16.592,-9.545 -22.423,-9.773 -28.332,-8.251C-31.357,-7.471 -31.475,-7.303 -31.124,-4.177C-31.093,-3.893 -30.66,-3.451 -30.386,-3.429C-26.817,-3.136 -23.433,-2.141 -20.105,-0.885C-19.766,-0.757 -19.324,-0.749 -18.969,-0.839C-16.14,-1.557 -13.319,-2.312 -10.315,-3.104M-49.848,20.85C-49.759,21.683 -49.623,23.342 -49.38,24.984C-49.325,25.351 -48.925,25.923 -48.635,25.954C-47.169,26.113 -45.688,26.167 -44.213,26.155C-43.882,26.152 -43.405,25.809 -43.247,25.496C-41.996,23.011 -40.791,20.502 -39.611,17.982C-39.446,17.629 -39.394,17.158 -39.461,16.773C-40.027,13.537 -40.697,10.319 -41.193,7.074C-41.356,6.004 -41.698,5.453 -42.792,5.373C-43.473,5.323 -44.149,5.169 -44.819,5.025C-45.453,4.888 -45.807,5.13 -46.113,5.69C-48.561,10.158 -49.813,14.929 -49.848,20.85M-3.843,27.041C-2.013,27.869 -0.222,28.706 1.599,29.476C1.902,29.605 2.507,29.589 2.674,29.389C4.576,27.115 6.437,24.794 7.508,21.983C7.754,21.336 7.973,20.538 7.82,19.9C6.985,16.393 6.038,12.912 5.104,9.429C5.04,9.196 4.808,8.908 4.589,8.831C2.423,8.068 0.244,7.344 -1.767,6.664C-3.385,9.136 -4.876,11.392 -6.333,13.67C-6.48,13.902 -6.511,14.281 -6.452,14.562C-5.588,18.766 -4.7,22.964 -3.843,27.041M-35.148,36.561C-34.957,37.798 -34.702,39.249 -34.512,40.708C-34.185,43.213 -33.099,44.97 -30.57,45.973C-25.846,47.849 -21.173,48.907 -16.375,46.418C-14.91,45.658 -13.537,44.715 -12.157,43.802C-11.931,43.652 -11.728,43.181 -11.789,42.925C-12.279,40.89 -12.815,38.866 -13.394,36.855C-13.482,36.547 -13.814,36.182 -14.114,36.081C-18.049,34.757 -21.995,33.466 -25.948,32.198C-26.278,32.092 -26.742,32.089 -27.037,32.242C-29.693,33.623 -32.325,35.049 -35.148,36.561M-30.772,-2.281C-32.69,-2.356 -32.94,-2.423 -34.345,-1.138C-36.313,0.663 -38.119,2.64 -39.963,4.573C-40.177,4.798 -40.322,5.237 -40.274,5.541C-39.729,8.968 -39.137,12.387 -38.568,15.81C-38.457,16.48 -38.066,16.737 -37.422,16.878C-34.878,17.433 -32.337,18.011 -29.816,18.662C-29.167,18.83 -28.78,18.73 -28.289,18.3C-25.352,15.722 -22.367,13.197 -19.435,10.613C-19.169,10.378 -18.998,9.832 -19.052,9.47C-19.475,6.612 -19.947,3.761 -20.454,0.916C-20.516,0.571 -20.802,0.102 -21.098,-0.01C-24.218,-1.198 -27.409,-2.121 -30.772,-2.281M-4.965,27.067C-5.855,22.893 -6.729,18.721 -7.664,14.561C-7.733,14.257 -8.197,13.921 -8.543,13.818C-11.383,12.966 -14.246,12.192 -17.083,11.329C-17.818,11.106 -18.355,11.152 -18.944,11.67C-21.854,14.226 -24.806,16.733 -27.697,19.308C-27.991,19.57 -28.167,20.205 -28.088,20.607C-27.445,23.87 -26.738,27.121 -26.017,30.368C-25.951,30.662 -25.698,31.058 -25.443,31.145C-21.645,32.434 -17.836,33.694 -14.014,34.911C-13.677,35.018 -13.116,34.91 -12.852,34.68C-10.446,32.594 -8.073,30.469 -5.72,28.323C-5.41,28.04 -5.265,27.579 -4.965,27.067M-20.759,-10.372C-4.235,-10.368 9.378,3.2 9.39,19.679C9.401,36.651 -4.037,50.284 -20.76,50.267C-37.468,50.25 -50.991,36.678 -50.967,19.95C-50.942,3.178 -37.44,-10.376 -20.759,-10.372" style="fill:rgb(37,37,37);fill-rule:nonzero;"/>
    </g>
    <g transform="matrix(-6.42838,-5.30286,-5.30286,6.42838,-25.9482,641.584)">
        <path d="M-8.115,-21.67C-10.728,-13.366 -10.433,-4.689 -7.211,3.403C-6.851,4.305 -7.932,3.577 -8.115,3.118C-11.435,-5.219 -11.793,-14.181 -9.098,-22.747C-8.968,-23.157 -7.972,-22.127 -8.115,-21.67" style="fill:rgb(37,37,37);fill-rule:nonzero;"/>
    </g>
    <g transform="matrix(-7.53879,-3.55121,-3.55121,7.53879,41.2826,761.283)">
        <path d="M-6.024,-26.263C-6.674,-16.785 -6.254,-7.404 -4.777,1.977C-4.672,2.651 -5.947,1.939 -6.024,1.446C-7.511,-8.003 -7.918,-17.496 -7.264,-27.036C-7.228,-27.566 -5.987,-26.797 -6.024,-26.263" style="fill:rgb(37,37,37);fill-rule:nonzero;"/>
    </g>
    <g transform="matrix(-8.32324,-0.409977,-0.409977,8.32324,231.54,731.336)">
        <path d="M-0.036,-18.712C-0.865,-12.22 -0.393,-5.832 1.381,0.467C1.467,0.772 0.074,0.541 -0.036,0.151C-1.832,-6.223 -2.303,-12.602 -1.465,-19.171C-1.428,-19.456 0.016,-19.123 -0.036,-18.712" style="fill:rgb(37,37,37);fill-rule:nonzero;"/>
    </g>
</svg>
