<?xml version="1.0" encoding="UTF-8" standalone="no"?>
<!DOCTYPE svg PUBLIC "-//W3C//DTD SVG 1.1//EN" "http://www.w3.org/Graphics/SVG/1.1/DTD/svg11.dtd">
<svg width="100%" height="100%" viewBox="0 0 510 697" version="1.1" xmlns="http://www.w3.org/2000/svg" xmlns:xlink="http://www.w3.org/1999/xlink" xml:space="preserve" xmlns:serif="http://www.serif.com/" style="fill-rule:evenodd;clip-rule:evenodd;stroke-linejoin:round;stroke-miterlimit:2;">
    <g transform="matrix(8.33333,0,0,8.33333,213.045,326.954)">
        <path d="M0,20.795C-0.015,28.257 -0.424,35.71 -0.439,43.171C-0.439,43.437 -0.218,43.522 0.018,43.543C3.121,43.819 6.226,44.095 9.329,44.371C9.703,44.404 10.351,44.185 10.325,43.727C9.941,36.894 8.881,29.689 9.444,22.859C9.963,16.573 16.489,13.462 20.999,10.017C21.608,9.551 20.959,9.201 20.43,9.355C17.88,10.096 15.331,10.837 12.781,11.579C8.885,12.712 8.446,11.069 8.846,6.973C9.427,1.004 12.854,-4.19 16.649,-8.636C17.087,-9.148 16.335,-9.282 15.95,-9.194C12.04,-8.303 8.475,-6.883 5.008,-4.873C5.403,-4.853 5.798,-4.833 6.192,-4.813C5.409,-10.824 5.292,-16.844 5.261,-22.898C5.257,-23.609 3.976,-23.197 3.805,-22.741C2.01,-17.952 1.273,-12.913 0,-7.979C0.433,-8.129 0.866,-8.28 1.299,-8.431C-1.782,-10.812 -5.398,-12.091 -9.083,-13.221C-9.355,-13.304 -10.662,-12.914 -10.188,-12.499C-4.142,-7.208 2.719,3.028 0.075,11.344C0.508,11.193 0.94,11.043 1.373,10.892C-2.34,9.148 -6.091,7.846 -10.091,6.925C-10.354,6.864 -11.66,7.182 -11.195,7.646C-7.126,11.709 1.854,13.246 0,20.795C-0.145,21.385 1.322,21.18 1.456,20.637C3.399,12.72 -5.639,11.266 -9.856,7.055C-10.225,7.295 -10.593,7.536 -10.961,7.776C-7.075,8.671 -3.38,9.942 0.232,11.639C0.644,11.832 1.38,11.66 1.53,11.187C4.225,2.711 -2.739,-7.744 -8.849,-13.091C-9.217,-12.85 -9.585,-12.61 -9.953,-12.37C-6.331,-11.259 -2.859,-10.017 0.157,-7.684C0.507,-7.414 1.347,-7.715 1.456,-8.136C2.729,-13.073 3.464,-18.107 5.261,-22.898C4.775,-22.846 4.29,-22.793 3.805,-22.741C3.837,-16.604 3.949,-10.519 4.744,-4.425C4.807,-3.944 5.715,-4.241 5.928,-4.365C7.37,-5.201 14.104,-8.76 14.303,-7.567C14.464,-6.603 10.271,-1.749 9.667,-0.502C7.503,3.966 6.813,8.574 7.917,13.416C7.989,13.733 8.538,13.691 8.75,13.629L16.399,11.406C20.17,10.31 18.416,10.772 16.013,12.524C13.594,14.288 10.86,16.071 9.265,18.687C7.645,21.344 7.878,24.558 7.974,27.566C8.148,33.085 8.566,38.603 8.876,44.115C9.208,43.9 9.54,43.686 9.872,43.471C7.977,43.302 4.054,43.721 2.422,42.808C0.118,41.52 1.074,37.214 1.134,35.096C1.27,30.275 1.445,25.461 1.456,20.637C1.457,19.981 0.002,20.261 0,20.795" style="fill:rgb(37,37,37);fill-rule:nonzero;"/>
    </g>
    <g transform="matrix(6.14976,-5.6236,-5.6236,-6.14976,230.964,496.367)">
        <path d="M-6.699,-3.117C-15.109,2.009 -11.533,12.74 -5.528,17.986C-5.018,18.431 -6.259,19.252 -6.699,18.867C-13.637,12.806 -16.109,1.56 -7.118,-3.921C-6.331,-4.401 -5.926,-3.588 -6.699,-3.117" style="fill:rgb(37,37,37);fill-rule:nonzero;"/>
    </g>
    <g transform="matrix(8.33333,0,0,8.33333,85.3672,-9.18375)">
        <path d="M0,51.4C-4.405,48.755 -7.528,44.534 -8.48,39.445C-9.697,32.942 -6.615,24.011 1.271,23.548C1.428,23.54 2.383,23.363 2.315,23.081C0.669,16.214 2.869,7.512 9.55,3.92C13.673,1.704 19.608,1.01 23.977,2.806C25.265,3.335 26.492,4.044 27.586,4.904C30.245,6.996 31.795,9.628 32.463,12.896C32.519,13.17 33.978,12.831 33.911,12.507C31.979,3.049 21.564,-0.688 12.989,1.903C3.656,4.724 -1.389,14.065 0.866,23.469L1.909,23.002C-3.833,23.339 -8.353,27.281 -9.771,32.924C-11.646,40.382 -7.764,48.043 -1.368,51.882C-1.024,52.088 0.154,51.493 0,51.4" style="fill:rgb(37,37,37);fill-rule:nonzero;"/>
    </g>
    <g transform="matrix(8.33333,0,0,8.33333,360.685,544.019)">
        <path d="M0,-52.621C5.292,-54.268 10.607,-51.812 12.582,-46.841C13.939,-43.423 12.454,-41.097 12.023,-37.811C11.757,-35.774 12.416,-35.625 13.487,-34.048C15.825,-30.607 16.566,-28.271 16.215,-24.098C15.999,-21.534 15.479,-18.6 13.962,-16.442C10.218,-11.117 8.568,-14.436 5.605,-11.811C4.774,-11.075 4.631,-10.275 4.356,-9.188C3.981,-7.706 4.403,-6.083 3.896,-4.57C2.359,0.016 -3.983,1.712 -7.676,-1.749C-7.969,-2.024 -9.296,-1.483 -9.037,-1.241C-4.85,2.685 2.062,1.64 4.801,-3.579C5.918,-5.706 5.284,-7.333 5.912,-9.488C6.691,-12.158 8.508,-12.092 10.707,-12.864C13.628,-13.89 15.449,-16.21 16.545,-19.053C17.961,-22.729 18.51,-27.995 16.875,-31.656C15.905,-33.83 13.328,-35.467 13.457,-38.052C13.542,-39.767 14.76,-41.397 14.765,-43.268C14.786,-51.329 6.874,-55.306 -0.135,-53.124C-0.962,-52.866 -0.852,-52.356 0,-52.621" style="fill:rgb(37,37,37);fill-rule:nonzero;"/>
    </g>
</svg>
