<?xml version="1.0" encoding="UTF-8" standalone="no"?>
<!DOCTYPE svg PUBLIC "-//W3C//DTD SVG 1.1//EN" "http://www.w3.org/Graphics/SVG/1.1/DTD/svg11.dtd">
<svg width="100%" height="100%" viewBox="0 0 956 807" version="1.1" xmlns="http://www.w3.org/2000/svg" xmlns:xlink="http://www.w3.org/1999/xlink" xml:space="preserve" xmlns:serif="http://www.serif.com/" style="fill-rule:evenodd;clip-rule:evenodd;stroke-linejoin:round;stroke-miterlimit:2;">
    <g transform="matrix(8.33333,0,0,8.33333,575.914,586.175)">
        <path d="M0,-43.458C9.202,-31.842 18.394,-20.217 27.615,-8.616C29.435,-6.328 31.49,-4.219 33.217,-1.867C35.05,0.63 35.516,3.388 33.645,6.272C35.939,8.131 38.126,10.085 40.529,11.719C41.107,12.112 42.514,11.652 43.345,11.215C44.315,10.704 44.429,9.587 44.048,8.578C43.83,8.003 43.429,7.487 43.056,6.985C42.014,5.579 40.943,4.195 39.955,2.894C38.982,3.182 37.988,3.542 36.963,3.747C36.577,3.824 36.067,3.619 35.713,3.39C35.479,3.238 35.231,2.719 35.325,2.536C35.47,2.253 35.955,1.896 36.201,1.957C37.253,2.216 38.347,2.296 38.781,1.198C39.204,0.133 39.445,-1.129 39.314,-2.252C39.19,-3.319 38.586,-4.382 38.011,-5.336C35.101,-10.156 32.248,-15.017 29.154,-19.718C25.17,-25.772 21.982,-32.175 19.55,-39.001C17.843,-43.792 15.836,-48.487 12.51,-52.443C10.4,-54.953 8.065,-57.254 4.514,-57.37C0.908,-57.489 -2.303,-56.288 -4.872,-53.745C-5.649,-52.976 -6.003,-51.779 -6.544,-50.79C-7.507,-51.579 -7.174,-52.418 -4.653,-55.425C-6.727,-60.852 -10.338,-65.27 -13.847,-69.753L-13.498,-70.115C-13.022,-69.745 -12.438,-69.457 -12.09,-68.992C-9.939,-66.109 -7.797,-63.217 -5.749,-60.261C-4.887,-59.017 -4.26,-57.609 -3.552,-56.321C-1.923,-56.895 -0.305,-57.573 1.372,-58.032C4.529,-58.898 7.409,-58.247 10.022,-56.244C13.027,-53.94 15.164,-50.952 16.848,-47.633C18.068,-45.224 19.258,-42.779 20.19,-40.25C23.619,-30.959 28.582,-22.529 34.188,-14.416C36.232,-11.459 37.934,-8.26 39.703,-5.122C40.737,-3.287 41.323,-1.318 40.773,0.851C40.682,1.213 40.867,1.745 41.101,2.072C42.223,3.647 43.406,5.177 44.566,6.725C46.251,8.973 45.825,11.633 43.538,12.851C42.972,13.153 42.296,13.251 41.667,13.444C42.93,18.163 39.915,21.319 34.789,20.548C33.725,20.388 32.68,20.091 31.641,19.86C31.132,20.853 30.771,21.942 30.104,22.79C27.626,25.938 24.164,26.883 20.447,26.163C16.891,25.475 13.443,24.211 9.952,23.187C5.293,21.821 0.664,20.342 -4.026,19.094C-10.551,17.357 -17.145,15.88 -23.664,14.126C-29.997,12.422 -36.125,10.161 -41.868,6.908C-47.934,3.472 -50.269,-1.787 -49.841,-8.537C-49.612,-12.135 -48.479,-15.499 -47.258,-18.842C-47.127,-19.199 -46.866,-19.509 -46.667,-19.84C-46.52,-19.824 -46.373,-19.807 -46.226,-19.791C-46.226,-19.298 -46.141,-18.787 -46.24,-18.315C-46.874,-15.319 -47.641,-12.349 -48.193,-9.339C-49.372,-2.917 -47.003,2.254 -41.381,5.523C-39.483,6.627 -37.475,7.554 -35.468,8.455C-30.151,10.84 -24.572,12.42 -18.928,13.823C-10.798,15.844 -2.676,17.902 5.408,20.097C9.4,21.181 13.265,22.732 17.255,23.822C19.302,24.38 21.522,24.712 23.624,24.566C26.592,24.36 28.903,22.822 29.805,19.746C30.049,18.914 30.364,18.628 31.344,18.831C32.95,19.164 34.614,19.238 36.258,19.375C38.224,19.539 40.149,18.52 40.777,17.036C41.441,15.468 40.994,13.727 39.342,12.339C37.208,10.546 34.976,8.869 32.771,7.163C32.583,7.018 32.278,7.018 32.024,6.969C31.284,6.828 31.309,6.44 31.646,5.905C33.929,2.301 33.78,0.956 30.921,-2.56C24.013,-11.052 17.079,-19.525 10.265,-28.093C6.796,-32.456 3.661,-37.085 0.191,-41.448C-2.395,-44.699 -5.565,-47.356 -9.464,-48.976C-14.465,-51.055 -19.386,-51.227 -23.781,-47.609C-26.441,-45.42 -27.949,-42.319 -29.078,-39.126C-29.638,-37.545 -29.711,-35.792 -30.004,-34.117C-30.062,-33.786 -30.116,-33.454 -30.172,-33.123C-30.328,-33.103 -30.483,-33.082 -30.64,-33.062C-30.743,-33.687 -30.929,-34.31 -30.937,-34.937C-30.98,-37.827 -29.91,-40.412 -28.52,-42.854C-27.549,-44.559 -26.37,-46.145 -25.259,-47.823C-29.712,-56.133 -35.679,-63.43 -42.821,-69.815C-42.654,-69.991 -42.488,-70.166 -42.321,-70.341C-41.614,-69.86 -40.796,-69.486 -40.221,-68.881C-37.616,-66.139 -34.907,-63.469 -32.563,-60.514C-29.546,-56.713 -26.841,-52.664 -23.995,-48.713C-18.524,-52.458 -12.853,-51.812 -7.01,-48.794C-4.304,-47.396 -2.188,-45.387 0.021,-43.423L0,-43.458Z" style="fill:rgb(37,37,37);fill-rule:nonzero;"/>
    </g>
    <g transform="matrix(8.33333,0,0,8.33333,204.617,637.972)">
        <path d="M0,-27.051C-0.489,-29.582 3.052,-34.439 5.935,-35.726C9.433,-37.288 13.029,-36.85 16.838,-36.03C16.187,-37.158 15.668,-38.058 15.149,-38.957L15.472,-39.23C15.712,-39.044 16.029,-38.907 16.181,-38.666C17.591,-36.416 19.774,-35.269 22.012,-33.955C26.297,-31.437 30.344,-28.494 34.373,-25.565C36.916,-23.717 39.216,-21.536 41.694,-19.592C42.399,-19.038 43.375,-18.843 44.182,-18.401C49.604,-15.435 54.651,-11.919 59.448,-8.023C62.631,-5.439 65.957,-3.047 69.841,-1.589C71.016,-1.148 72.267,-0.911 73.451,-0.49C73.847,-0.35 74.145,0.069 74.486,0.361C74.054,0.556 73.586,0.974 73.193,0.913C69.616,0.355 66.365,-1.097 63.464,-3.2C59.642,-5.97 55.984,-8.967 52.18,-11.761C50.018,-13.348 47.702,-14.727 45.376,-16.098C47.916,-12.714 50.758,-9.647 54.009,-6.963C58.398,-3.34 63.221,-0.384 68.181,2.377C71.265,4.095 74.195,6.047 75.996,9.234C76.375,9.906 77.335,10.802 76.28,11.444C75.072,12.179 75.108,10.699 74.608,10.142C73.269,8.652 72.076,6.921 70.465,5.805C66.737,3.224 62.764,1.002 58.952,-1.461C54.043,-4.634 50.039,-8.807 46.107,-13.091C43.267,-16.187 40.266,-19.176 37.068,-21.898C32.164,-26.073 27.305,-30.359 21.468,-33.273C18.271,-34.869 14.94,-35.903 11.316,-35.997C7.005,-36.11 3.934,-34.222 1.863,-30.54C1.218,-29.391 0.619,-28.215 0,-27.051" style="fill:rgb(37,37,37);fill-rule:nonzero;"/>
    </g>
    <g transform="matrix(8.33333,0,0,8.33333,192.174,157.535)">
        <path d="M0,-13.728C4.466,-11.869 8.053,-8.657 12.072,-5.43C11.866,-5.905 11.813,-6.073 11.725,-6.221C11.632,-6.374 11.517,-6.517 11.394,-6.647C9.047,-9.128 6.697,-11.608 4.347,-14.086C3.698,-14.77 2.979,-15.4 2.418,-16.149C2.13,-16.535 2.122,-17.13 1.903,-17.941C4.502,-15.407 6.877,-13.296 9.004,-10.959C11.209,-8.535 13.24,-5.943 15.223,-3.329C16.84,-1.196 18.283,1.069 19.766,3.301C19.905,3.512 19.77,3.905 19.762,4.213C19.486,4.066 19.115,3.989 18.949,3.762C15.848,-0.458 12.276,-4.232 8.112,-7.404C5.879,-9.104 3.485,-10.596 1.167,-12.185C0.67,-12.526 0.182,-12.88 -0.311,-13.228L0,-13.728Z" style="fill:rgb(37,37,37);fill-rule:nonzero;"/>
    </g>
    <g transform="matrix(8.33333,0,0,8.33333,87.0958,308.027)">
        <path d="M0,3.503C-2.338,0.315 -4.674,-2.877 -7.023,-6.058C-7.154,-6.234 -7.396,-6.419 -7.601,-6.436C-8.629,-6.522 -8.455,-7.253 -8.249,-7.8C-8.036,-8.365 -7.866,-9.318 -6.753,-8.696C-6.921,-8.291 -7.07,-7.933 -7.184,-7.659C-4.356,-4.101 -1.714,-0.457 1.269,2.884C4.235,6.208 7.545,9.227 10.704,12.379C10.617,12.527 10.529,12.674 10.442,12.821C9.91,12.56 9.279,12.406 8.865,12.019C7.061,10.333 5.323,8.576 3.553,6.853C2.998,6.313 2.552,5.687 1.558,5.773C1.084,5.814 0.518,5.313 0.062,4.966C-2.604,2.934 -5.254,0.878 -7.902,-1.179C-8.127,-1.353 -8.303,-1.59 -8.36,-1.998C-5.248,-0.623 -2.859,1.882 0,3.503" style="fill:rgb(37,37,37);fill-rule:nonzero;"/>
    </g>
    <g transform="matrix(8.33333,0,0,8.33333,155.87,174.862)">
        <path d="M0,-9.833C0.738,-9.669 1.534,-9.629 2.206,-9.321C6.289,-7.446 10.345,-5.509 14.409,-3.593C14.646,-3.481 14.885,-3.371 15.122,-3.26C15.215,-3.376 15.307,-3.492 15.399,-3.608C11.729,-6.687 8.058,-9.765 4.388,-12.844C4.466,-12.964 4.544,-13.083 4.623,-13.203C5.18,-12.917 5.819,-12.726 6.282,-12.329C10.059,-9.084 13.854,-5.857 17.532,-2.503C19.145,-1.033 20.515,0.706 21.955,2.357C22.162,2.595 22.147,3.028 22.235,3.37C21.934,3.209 21.53,3.124 21.347,2.876C18.458,-1.01 13.996,-2.542 9.961,-4.666C7.195,-6.121 4.248,-7.231 1.395,-8.522C0.853,-8.768 0.366,-9.138 -0.145,-9.451C-0.097,-9.578 -0.048,-9.706 0,-9.833" style="fill:rgb(37,37,37);fill-rule:nonzero;"/>
    </g>
    <g transform="matrix(8.33333,0,0,8.33333,166.165,312.932)">
        <path d="M0,13.258C-0.283,13.214 -0.602,13.237 -0.843,13.112C-1.399,12.825 -1.981,12.536 -2.441,12.123C-5.236,9.615 -8.577,8.208 -12.09,7.033C-14.193,6.33 -16.174,5.258 -18.2,4.329C-18.579,4.155 -18.91,3.875 -19.264,3.644C-19.198,3.496 -19.133,3.348 -19.066,3.199C-16.361,4.305 -13.655,5.411 -10.949,6.516C-13.344,4.446 -16.09,2.836 -18.003,0.299C-17.923,0.199 -17.842,0.1 -17.762,0C-11.758,4.273 -5.755,8.545 0.249,12.817L0,13.258Z" style="fill:rgb(37,37,37);fill-rule:nonzero;"/>
    </g>
    <g transform="matrix(8.33333,0,0,8.33333,41.3925,399.861)">
        <path d="M0,-22.245C0.339,-21.779 0.535,-21.497 0.744,-21.224C1.854,-19.776 2.856,-18.225 4.101,-16.903C7.426,-13.37 10.922,-9.996 14.208,-6.429C15.472,-5.057 16.361,-3.338 17.402,-1.765C17.596,-1.471 17.789,-1.123 17.813,-0.788C17.831,-0.535 17.578,-0.263 17.446,0C17.197,-0.129 16.817,-0.195 16.718,-0.398C13.832,-6.294 9.147,-10.706 4.561,-15.202C3.536,-16.205 2.627,-17.331 1.572,-18.299C0.861,-18.951 -0.065,-19.367 -0.79,-20.007C-1.099,-20.28 -1.368,-20.945 -1.242,-21.273C-1.093,-21.663 -0.498,-21.882 0,-22.245" style="fill:rgb(37,37,37);fill-rule:nonzero;"/>
    </g>
    <g transform="matrix(8.33333,0,0,8.33333,421.063,108.233)">
        <path d="M0,-4.959C-0.24,-4.345 -0.418,-3.889 -0.596,-3.434C-0.781,-3.478 -0.967,-3.522 -1.152,-3.566C-1.048,-4.037 -1.092,-4.671 -0.8,-4.935C-0.456,-5.247 0.31,-5.5 0.663,-5.323C2.226,-4.538 3.707,-3.591 5.216,-2.699C5.675,-2.427 6.125,-2.141 6.728,-1.996C4.653,-4.408 2.579,-6.821 0.505,-9.233C4.381,-7.32 12.334,2.407 11.706,4.274C8.601,0.106 4.215,-2.233 0,-4.959" style="fill:rgb(37,37,37);fill-rule:nonzero;"/>
    </g>
    <g transform="matrix(8.33333,0,0,8.33333,158.45,227.581)">
        <path d="M0,-14.06C7.717,-10.584 14.879,-6.158 21.764,-1.172C21.075,0 20.531,-0.712 20.03,-1.022C14.871,-4.215 9.729,-7.434 4.559,-10.61C3.297,-11.385 1.947,-12.015 0.652,-12.736C0.288,-12.939 -0.028,-13.229 -0.366,-13.479C-0.244,-13.673 -0.122,-13.866 0,-14.06" style="fill:rgb(37,37,37);fill-rule:nonzero;"/>
    </g>
    <g transform="matrix(8.33333,0,0,8.33333,1.85833,441.891)">
        <path d="M0,-9.556C0.703,-9.307 1.427,-9.103 2.105,-8.801C7.795,-6.273 13.476,-3.726 19.159,-1.186C19.241,-1.15 19.35,-1.147 19.409,-1.09C19.749,-0.763 20.078,-0.424 20.411,-0.088C19.961,-0.108 19.458,0 19.069,-0.165C15.061,-1.861 11.061,-3.579 7.079,-5.338C5.027,-6.245 3.012,-7.233 0.996,-8.219C0.553,-8.435 0.182,-8.799 -0.223,-9.096C-0.148,-9.249 -0.074,-9.403 0,-9.556" style="fill:rgb(37,37,37);fill-rule:nonzero;"/>
    </g>
    <g transform="matrix(8.33333,0,0,8.33333,527.704,19.7692)">
        <path d="M0,12.301C-0.414,11.96 -0.889,11.671 -1.231,11.269C-3.357,8.776 -5.425,6.232 -7.576,3.761C-8.277,2.955 -9.186,2.332 -9.972,1.597C-10.374,1.221 -10.717,0.781 -11.087,0.371C-11.009,0.247 -10.932,0.124 -10.854,0C-10.38,0.217 -9.777,0.315 -9.452,0.668C-6.238,4.171 -3.066,7.713 0.101,11.259C0.254,11.43 0.255,11.737 0.327,11.981C0.218,12.088 0.109,12.194 0,12.301" style="fill:rgb(37,37,37);fill-rule:nonzero;"/>
    </g>
    <g transform="matrix(8.33333,0,0,8.33333,416.792,154.777)">
        <path d="M0,-8.685C0.359,-8.552 0.767,-8.487 1.072,-8.274C4.451,-5.921 7.824,-3.559 11.166,-1.154C11.476,-0.931 11.559,-0.392 11.747,0C11.355,-0.119 10.897,-0.145 10.584,-0.371C7.169,-2.842 3.776,-5.343 0.381,-7.841C0.183,-7.988 0.021,-8.187 -0.156,-8.362C-0.104,-8.469 -0.053,-8.577 0,-8.685" style="fill:rgb(37,37,37);fill-rule:nonzero;"/>
    </g>
    <g transform="matrix(8.33333,0,0,8.33333,283.743,515.274)">
        <path d="M0,-9.975C-0.306,-9.052 -0.66,-8.143 -0.905,-7.205C-1.474,-5.033 -1.967,-2.841 -2.546,-0.673C-2.638,-0.328 -3.017,-0.061 -3.263,0.242C-3.387,-0.096 -3.686,-0.481 -3.608,-0.765C-2.84,-3.618 -2.027,-6.46 -1.173,-9.288C-1.065,-9.646 -0.648,-9.91 -0.375,-10.217C-0.25,-10.136 -0.125,-10.056 0,-9.975" style="fill:rgb(37,37,37);fill-rule:nonzero;"/>
    </g>
    <g transform="matrix(8.33333,0,0,8.33333,422.065,201.932)">
        <path d="M0,6.263C-0.001,5.722 -0.112,5.369 0.018,5.186C0.608,4.351 1.171,3.455 1.925,2.784C3.024,1.807 4.263,0.981 5.481,0.148C5.698,0 6.107,0.135 6.429,0.139C6.332,0.431 6.323,0.821 6.125,1.001C4.438,2.526 2.72,4.016 1.006,5.51C0.778,5.708 0.523,5.874 0,6.263" style="fill:rgb(37,37,37);fill-rule:nonzero;"/>
    </g>
    <g transform="matrix(8.33333,0,0,8.33333,576.093,182.828)">
        <path d="M0,4.979C0.495,2.666 1.972,1.13 3.969,0.033C4.182,-0.084 4.531,0.049 4.817,0.065C4.778,0.343 4.841,0.715 4.685,0.884C3.417,2.258 2.121,3.607 0.793,4.924C0.652,5.063 0.256,4.944 -0.021,4.944L0,4.979" style="fill:rgb(37,37,37);fill-rule:nonzero;"/>
    </g>
    <g transform="matrix(8.33333,0,0,8.33333,443.02,623.962)">
        <path d="M0,-6.427C-0.603,-4.312 -1.198,-2.196 -1.829,-0.09C-1.865,0.033 -2.236,0.181 -2.356,0.123C-2.512,0.047 -2.679,-0.241 -2.654,-0.411C-2.347,-2.609 -1.829,-4.738 -0.602,-6.608C-0.4,-6.547 -0.2,-6.487 0,-6.427" style="fill:rgb(37,37,37);fill-rule:nonzero;"/>
    </g>
    <g transform="matrix(8.33333,0,0,8.33333,580.846,350.227)">
        <path d="M0,-5.652C0.108,-4.718 -3.404,-0.464 -4.563,0C-4.851,-1.11 -2.083,-4.582 0,-5.652" style="fill:rgb(37,37,37);fill-rule:nonzero;"/>
    </g>
    <g transform="matrix(8.33333,0,0,8.33333,676.858,278.999)">
        <path d="M0,3.565C-0.043,3.229 -0.215,2.793 -0.093,2.683C0.912,1.776 1.958,0.914 3.029,0.087C3.143,0 3.596,0.157 3.712,0.324C3.821,0.482 3.792,0.921 3.655,1.034C2.662,1.853 1.63,2.625 0.602,3.4C0.505,3.473 0.353,3.472 0,3.565" style="fill:rgb(37,37,37);fill-rule:nonzero;"/>
    </g>
    <g transform="matrix(8.33333,0,0,8.33333,716.97,376.417)">
        <path d="M0,2.49C-0.018,2.154 -0.186,1.684 -0.026,1.505C0.521,0.891 1.15,0.33 1.828,-0.134C1.962,-0.225 2.453,0.208 2.779,0.399C2.008,1.171 1.237,1.943 0.467,2.715C0.312,2.64 0.155,2.565 0,2.49" style="fill:rgb(37,37,37);fill-rule:nonzero;"/>
    </g>
    <g transform="matrix(8.33333,0,0,8.33333,355.431,468.599)">
        <path d="M0,5.065C-0.979,3.708 -0.344,1.1 1.125,0C0.74,1.731 0.399,3.268 0,5.065" style="fill:rgb(37,37,37);fill-rule:nonzero;"/>
    </g>
    <g transform="matrix(8.33333,0,0,8.33333,679.015,448.007)">
        <path d="M0,2.904C-0.096,2.675 -0.331,2.324 -0.262,2.247C0.437,1.472 1.187,0.742 1.923,0C2.128,0.235 2.535,0.648 2.509,0.679C1.858,1.417 1.168,2.119 0.468,2.811C0.392,2.887 0.22,2.864 0,2.904" style="fill:rgb(37,37,37);fill-rule:nonzero;"/>
    </g>
    <g transform="matrix(8.33333,0,0,8.33333,579.772,615.255)">
        <path d="M0,-0.7C-0.461,-0.06 -0.886,0.54 -1.337,1.12C-1.358,1.146 -1.763,0.957 -1.755,0.911C-1.622,0.19 -1.517,-0.548 -1.258,-1.227C-1.153,-1.502 -0.697,-1.643 -0.401,-1.846C-0.278,-1.495 -0.155,-1.144 0,-0.7" style="fill:rgb(37,37,37);fill-rule:nonzero;"/>
    </g>
    <g transform="matrix(6.42094,5.31187,5.31187,-6.42094,473.478,284.547)">
        <path d="M0.911,-0.183C-0.318,0.683 -0.077,1.502 0.344,2.314C0.419,2.456 0.749,2.575 0.911,2.529C1.06,2.486 1.251,2.199 1.238,2.036C1.182,1.384 1.055,0.739 0.911,-0.183" style="fill:rgb(37,37,37);fill-rule:nonzero;"/>
    </g>
    <g transform="matrix(8.33333,0,0,8.33333,790.945,445.904)">
        <path d="M0,1.148C-0.479,1.252 -0.961,1.426 -1.438,1.415C-1.581,1.412 -1.901,0.754 -1.812,0.631C-1.549,0.266 -1.123,0.017 -0.761,-0.278C-0.574,-0.033 -0.389,0.212 -0.203,0.457C-0.136,0.687 -0.067,0.918 0,1.148" style="fill:rgb(37,37,37);fill-rule:nonzero;"/>
    </g>
</svg>
