<?xml version="1.0" encoding="UTF-8" standalone="no"?>
<!DOCTYPE svg PUBLIC "-//W3C//DTD SVG 1.1//EN" "http://www.w3.org/Graphics/SVG/1.1/DTD/svg11.dtd">
<svg width="100%" height="100%" viewBox="0 0 609 594" version="1.1" xmlns="http://www.w3.org/2000/svg" xmlns:xlink="http://www.w3.org/1999/xlink" xml:space="preserve" xmlns:serif="http://www.serif.com/" style="fill-rule:evenodd;clip-rule:evenodd;stroke-linecap:round;stroke-linejoin:round;stroke-miterlimit:10;">
    <g transform="matrix(8.33333,0,0,8.33333,18.4403,549.372)">
        <path d="M0,-60.585C-0.082,-60.536 -0.175,-60.498 -0.246,-60.435C-0.312,-60.379 -0.354,-60.297 -0.405,-60.227C-0.334,-60.19 -0.267,-60.131 -0.191,-60.119C0.309,-60.044 0.817,-60.012 1.309,-59.901C1.758,-59.8 2.076,-60.059 2.427,-60.219C3.082,-60.518 3.738,-60.819 4.362,-61.176C4.659,-61.346 4.92,-61.616 5.132,-61.891C5.697,-62.621 5.976,-63.536 6.614,-64.225C6.811,-64.437 6.752,-64.584 6.452,-64.623C5.833,-64.703 5.214,-64.78 4.592,-64.823C4.246,-64.847 3.896,-64.81 3.549,-64.784C3.344,-64.769 3.103,-64.781 2.946,-64.678C2.659,-64.488 2.438,-64.201 2.163,-63.99C1.7,-63.633 1.215,-63.305 0.741,-62.962C0.499,-62.786 0.186,-62.651 0.037,-62.414C-0.258,-61.941 -0.461,-61.412 -0.698,-60.905C-0.716,-60.867 -0.7,-60.814 -0.7,-60.765C-0.129,-60.817 -0.129,-60.817 0,-60.585M29.341,-7.562C29.303,-7.006 29.234,-6.95 28.677,-6.895C28.539,-6.881 28.288,-6.808 28.29,-6.775C28.312,-6.435 28.253,-5.957 28.45,-5.782C29.288,-5.04 29.817,-4.013 30.838,-3.424C31.592,-2.989 32.205,-2.308 32.872,-1.728C33.152,-1.484 33.402,-1.206 33.681,-0.96C33.91,-0.757 34.161,-0.576 34.405,-0.389C34.906,-0.005 35.41,0.376 35.938,0.779C36.203,0.46 36.431,0.136 36.918,0.29C36.9,0.141 36.904,0.04 36.876,-0.05C36.743,-0.486 36.587,-0.916 36.468,-1.355C36.301,-1.974 36.148,-2.597 36.011,-3.223C35.88,-3.817 35.775,-4.417 35.659,-5.014C35.533,-5.658 35.409,-6.302 35.283,-6.945C35.235,-7.186 35.193,-7.429 35.13,-7.666C35.019,-8.079 34.879,-8.484 34.776,-8.899C34.695,-9.225 34.689,-9.602 34.221,-9.588C33.881,-9.578 33.663,-9.746 33.451,-9.978C33.278,-10.168 33.075,-10.42 32.858,-9.992C32.828,-9.933 32.676,-9.906 32.583,-9.912C32.364,-9.927 32.147,-9.97 31.915,-10.004C31.901,-9.988 31.871,-9.964 31.854,-9.932C31.572,-9.404 31.204,-9.394 30.844,-9.892C30.75,-10.022 30.612,-10.121 30.493,-10.232C30.134,-10.566 29.771,-10.897 29.415,-11.234C29.16,-11.476 28.913,-11.725 28.662,-11.97C28.616,-11.942 28.57,-11.913 28.524,-11.884C29.03,-10.75 29.536,-9.616 30.028,-8.512C29.92,-8.1 30.048,-7.516 29.341,-7.562M34.142,-11.175C33.757,-11.821 33.364,-12.442 33.01,-13.084C32.783,-13.496 32.608,-13.936 32.415,-14.366C32.335,-14.545 32.284,-14.739 32.191,-14.911C31.966,-15.327 31.707,-15.725 31.492,-16.146C31.133,-16.853 30.801,-17.573 30.449,-18.284C29.979,-19.233 29.502,-20.178 29.028,-21.126C28.608,-21.969 28.187,-22.812 27.771,-23.657C27.37,-24.473 26.978,-25.293 26.579,-26.11C26.247,-26.79 25.92,-27.472 25.573,-28.143C25.308,-28.657 24.998,-29.149 24.734,-29.664C24.272,-30.564 23.832,-31.475 23.382,-32.381C23.089,-32.969 22.805,-33.561 22.497,-34.141C22.148,-34.798 21.781,-35.447 21.414,-36.094C21.082,-36.678 20.737,-37.254 20.399,-37.834C20.374,-37.877 20.351,-37.921 20.326,-37.966C19.696,-39.108 19.07,-40.253 18.434,-41.392C18.143,-41.912 17.812,-42.41 17.535,-42.936C17.143,-43.682 16.781,-44.444 16.409,-45.201C16.259,-45.506 16.123,-45.818 15.966,-46.119C15.758,-46.515 15.566,-46.926 15.312,-47.291C14.896,-47.885 14.608,-48.532 14.361,-49.205C14.05,-50.054 13.752,-50.91 13.411,-51.747C13.141,-52.411 12.822,-53.055 12.509,-53.7C12.267,-54.2 11.987,-54.681 11.744,-55.18C11.411,-55.861 11.091,-56.547 10.778,-57.237C10.521,-57.804 10.306,-58.389 10.034,-58.948C9.714,-59.606 9.343,-60.24 9.014,-60.895C8.771,-61.379 8.571,-61.884 8.335,-62.371C8.134,-62.784 7.909,-63.186 7.693,-63.592C7.665,-63.647 7.629,-63.699 7.594,-63.749C7.429,-63.979 7.263,-63.938 7.104,-63.745C7.024,-63.648 6.936,-63.553 6.885,-63.441C6.656,-62.936 6.482,-62.4 6.204,-61.925C6.003,-61.583 6.048,-61.18 6.101,-60.923C6.223,-60.327 6.547,-59.764 6.838,-59.213C7.086,-58.744 7.402,-58.312 7.685,-57.861C7.873,-57.561 7.82,-57.198 7.575,-57.058C7.366,-56.938 7.03,-57.07 6.872,-57.361C6.766,-57.558 6.706,-57.78 6.61,-57.983C6.347,-58.546 6.081,-59.108 5.805,-59.665C5.649,-59.978 5.475,-60.283 5.3,-60.585C5.275,-60.627 5.184,-60.669 5.144,-60.655C4.842,-60.546 4.529,-60.452 4.252,-60.297C3.789,-60.036 3.354,-59.727 2.896,-59.453C2.736,-59.357 2.475,-58.875 2.532,-58.695C2.681,-58.233 2.807,-57.761 2.994,-57.316C3.204,-56.819 3.48,-56.351 3.713,-55.864C4.249,-54.74 4.774,-53.61 5.308,-52.485C5.512,-52.056 5.733,-51.636 5.937,-51.207C6.244,-50.565 6.54,-49.918 6.847,-49.276C6.939,-49.081 7.094,-48.907 7.149,-48.704C7.272,-48.258 7.388,-47.821 7.8,-47.543C7.82,-47.529 7.851,-47.502 7.849,-47.487C7.807,-47.227 7.827,-46.929 7.699,-46.72C7.549,-46.473 7.301,-46.666 7.152,-46.798C7.052,-46.889 7.042,-47.075 6.973,-47.208C6.594,-47.932 6.178,-48.639 5.835,-49.38C5.368,-50.388 4.888,-51.401 4.547,-52.455C4.365,-53.019 4.045,-53.495 3.83,-54.032C3.433,-55.023 2.916,-55.966 2.508,-56.953C2.248,-57.581 1.844,-58.164 1.824,-58.886C1.821,-58.989 1.622,-59.148 1.492,-59.174C0.873,-59.299 0.247,-59.397 -0.38,-59.479C-0.51,-59.496 -0.669,-59.428 -0.781,-59.35C-0.814,-59.327 -0.738,-59.138 -0.705,-59.027C-0.684,-58.958 -0.643,-58.894 -0.619,-58.825C-0.422,-58.254 -0.254,-57.671 -0.024,-57.114C0.184,-56.61 0.479,-56.142 0.699,-55.642C1.032,-54.879 1.343,-54.106 1.644,-53.33C1.849,-52.802 1.957,-52.226 2.224,-51.734C2.511,-51.202 2.737,-50.64 3.023,-50.123C3.351,-49.53 3.56,-48.881 3.961,-48.31C4.364,-47.735 4.538,-47.002 4.819,-46.341C4.904,-46.142 4.965,-45.87 5.121,-45.778C5.468,-45.575 5.455,-45.25 5.534,-44.947C5.56,-44.851 5.562,-44.747 5.602,-44.658C5.851,-44.097 6.106,-43.54 6.36,-42.981C6.741,-42.142 7.115,-41.299 7.507,-40.464C7.965,-39.487 8.432,-38.513 8.909,-37.545C9.091,-37.177 9.317,-36.83 9.514,-36.468C9.668,-36.187 9.794,-35.89 9.956,-35.613C10.315,-34.997 10.682,-34.383 11.063,-33.78C11.345,-33.333 11.258,-32.687 11.818,-32.391C11.854,-32.372 11.865,-32.305 11.89,-32.261C12.029,-32.015 12.166,-31.767 12.31,-31.524C12.507,-31.189 12.73,-30.869 12.906,-30.524C13.271,-29.807 13.584,-29.064 13.967,-28.357C14.304,-27.736 14.718,-27.158 15.078,-26.548C15.582,-25.694 16.072,-24.832 16.559,-23.967C16.857,-23.435 17.176,-22.909 17.415,-22.351C17.714,-21.658 18.04,-20.993 18.568,-20.443C18.638,-20.371 18.71,-20.295 18.755,-20.208C19.06,-19.621 19.312,-19.004 19.666,-18.45C20.154,-17.685 20.731,-16.977 21.242,-16.225C21.702,-15.547 22.118,-14.839 22.564,-14.151C23.147,-13.251 23.749,-12.363 24.327,-11.46C24.981,-10.44 25.606,-9.402 26.269,-8.387C26.498,-8.036 26.799,-7.731 27.134,-7.325C27.253,-7.811 27.3,-8.247 27.769,-8.187C28.112,-8.143 28.392,-8.162 28.636,-8.396C28.735,-8.491 28.883,-8.642 28.862,-8.737C28.768,-9.192 28.64,-9.644 28.489,-10.085C28.395,-10.363 28.157,-10.611 28.124,-10.89C28.02,-11.78 27.597,-12.543 27.238,-13.333C27.068,-13.707 27.255,-14.103 27.639,-14.018C27.954,-13.949 28.264,-13.693 28.497,-13.445C28.93,-12.982 29.29,-12.453 29.709,-11.975C30.024,-11.617 30.383,-11.297 30.673,-11.009C30.891,-11.194 31.058,-11.451 31.207,-11.441C31.593,-11.415 31.751,-11.668 31.921,-11.894C32.137,-12.18 32.316,-12.128 32.535,-11.924C32.927,-11.559 33.323,-11.2 33.733,-10.824C33.879,-10.949 34,-11.053 34.142,-11.175M35.243,1.445C35.119,1.271 35.023,1.064 34.867,0.926C33.964,0.128 33.054,-0.664 32.13,-1.438C31.728,-1.775 31.263,-2.037 30.867,-2.38C30.371,-2.811 29.779,-3.114 29.358,-3.652C28.963,-4.158 28.491,-4.614 28.003,-5.034C27.806,-5.204 27.479,-5.239 27.204,-5.3C27.021,-5.341 26.961,-5.396 26.966,-5.597C26.97,-5.774 26.911,-5.974 26.818,-6.127C26.52,-6.622 26.195,-7.102 25.875,-7.584C25.558,-8.062 25.211,-8.523 24.915,-9.014C24.382,-9.899 23.901,-10.816 23.354,-11.69C22.969,-12.303 22.503,-12.865 22.083,-13.456C21.693,-14.005 21.312,-14.559 20.937,-15.117C20.555,-15.686 20.179,-16.258 19.811,-16.835C19.335,-17.582 18.792,-18.301 18.426,-19.1C18.191,-19.611 17.814,-19.995 17.557,-20.471C17.193,-21.141 16.81,-21.799 16.449,-22.47C16.075,-23.165 15.725,-23.872 15.351,-24.566C14.997,-25.223 14.632,-25.874 14.261,-26.52C13.747,-27.415 13.216,-28.3 12.705,-29.197C12.462,-29.624 12.269,-30.081 12.016,-30.503C11.665,-31.09 11.253,-31.641 10.918,-32.235C10.562,-32.866 10.274,-33.535 9.935,-34.175C9.804,-34.423 9.594,-34.628 9.451,-34.872C9.227,-35.254 9.023,-35.65 8.823,-36.045C8.545,-36.596 8.27,-37.148 8.005,-37.706C7.413,-38.954 6.827,-40.205 6.242,-41.457C5.966,-42.049 5.681,-42.639 5.433,-43.244C5.219,-43.765 5.089,-44.323 4.853,-44.833C4.587,-45.402 4.22,-45.924 3.938,-46.486C3.414,-47.527 2.913,-48.58 2.417,-49.634C1.994,-50.53 1.57,-51.426 1.186,-52.338C0.717,-53.447 0.293,-54.574 -0.161,-55.689C-0.261,-55.931 -0.421,-56.148 -0.533,-56.387C-0.647,-56.629 -0.738,-56.883 -0.837,-57.133C-0.998,-57.539 -1.161,-57.945 -1.315,-58.354C-1.433,-58.663 -1.534,-58.978 -1.65,-59.288C-1.679,-59.366 -1.726,-59.441 -1.779,-59.505C-2.113,-59.901 -2.11,-60.046 -1.849,-60.474C-1.496,-61.051 -1.166,-61.642 -0.839,-62.234C-0.791,-62.32 -0.794,-62.446 -0.807,-62.549C-0.864,-63.026 -0.696,-63.287 -0.266,-63.488C0.366,-63.781 1.013,-64.061 1.597,-64.433C2.072,-64.736 2.472,-65.159 2.892,-65.544C3.107,-65.742 3.317,-65.794 3.608,-65.713C3.939,-65.621 4.291,-65.599 4.634,-65.55C4.891,-65.514 5.148,-65.465 5.407,-65.455C6.121,-65.429 6.841,-65.469 7.545,-65.377C7.784,-65.346 8.053,-65.037 8.183,-64.789C8.439,-64.302 8.608,-63.768 8.815,-63.255C8.977,-62.855 9.123,-62.449 9.308,-62.06C9.52,-61.614 9.77,-61.186 9.997,-60.747C10.496,-59.787 11.022,-58.841 11.478,-57.862C11.807,-57.154 12.026,-56.397 12.32,-55.672C12.415,-55.44 12.619,-55.254 12.726,-55.025C13.165,-54.078 13.603,-53.13 14.01,-52.169C14.438,-51.162 14.8,-50.127 15.247,-49.13C15.54,-48.478 15.936,-47.872 16.285,-47.245C16.321,-47.179 16.353,-47.11 16.388,-47.044C16.634,-46.572 16.891,-46.105 17.124,-45.627C17.411,-45.04 17.671,-44.44 17.958,-43.854C18.131,-43.5 18.335,-43.162 18.524,-42.815C18.654,-42.576 18.783,-42.336 18.911,-42.096C19.344,-41.284 19.707,-40.437 20.25,-39.683C20.531,-39.294 20.745,-38.854 20.968,-38.427C21.016,-38.334 20.975,-38.194 21.048,-38.113C21.186,-37.871 21.312,-37.623 21.466,-37.391C21.713,-37.017 22,-36.667 22.228,-36.282C22.57,-35.704 23.008,-35.137 23.168,-34.506C23.391,-33.629 24.063,-33.002 24.28,-32.144C24.322,-31.975 24.488,-31.84 24.586,-31.682C24.739,-31.436 24.894,-31.189 25.026,-30.932C25.194,-30.607 25.334,-30.269 25.497,-29.941C25.742,-29.45 26,-28.966 26.244,-28.474C26.432,-28.097 26.597,-27.709 26.786,-27.332C27.458,-25.998 28.136,-24.666 28.812,-23.333C29.096,-22.776 29.396,-22.227 29.665,-21.664C29.976,-21.014 30.248,-20.348 30.558,-19.698C30.871,-19.04 31.211,-18.395 31.534,-17.742C31.692,-17.421 31.825,-17.086 31.993,-16.771C32.212,-16.36 32.472,-15.972 32.682,-15.558C32.894,-15.141 33.04,-14.691 33.262,-14.28C33.713,-13.445 34.229,-12.643 34.653,-11.795C34.98,-11.143 35.214,-10.442 35.474,-9.758C35.516,-9.648 35.502,-9.506 35.482,-9.384C35.399,-8.882 35.558,-8.432 35.741,-7.977C35.813,-7.798 35.788,-7.582 35.837,-7.39C36.111,-6.317 36.399,-5.247 36.67,-4.173C36.745,-3.873 36.754,-3.556 36.824,-3.255C37.038,-2.347 37.257,-1.44 37.498,-0.539C37.575,-0.252 37.752,0.008 37.843,0.293C37.998,0.774 38.076,1.283 38.269,1.746C38.481,2.258 38.76,2.749 39.059,3.217C39.351,3.676 39.756,4.076 39.797,4.653C39.828,5.096 39.604,5.209 39.18,5.064C38.475,4.822 38.104,4.245 37.709,3.686C37.373,3.209 37.04,2.731 36.705,2.254C36.69,2.234 36.678,2.207 36.657,2.198C36.166,1.978 35.675,1.759 35.184,1.541C35.203,1.509 35.223,1.477 35.243,1.445" style="fill:rgb(37,37,37);fill-rule:nonzero;"/>
    </g>
    <g transform="matrix(8.33333,0,0,8.33333,18.4403,549.372)">
        <path d="M0,-60.585C-0.082,-60.536 -0.175,-60.498 -0.246,-60.435C-0.312,-60.379 -0.354,-60.297 -0.405,-60.227C-0.334,-60.19 -0.267,-60.131 -0.191,-60.119C0.309,-60.044 0.817,-60.012 1.309,-59.901C1.758,-59.8 2.076,-60.059 2.427,-60.219C3.082,-60.518 3.738,-60.819 4.362,-61.176C4.659,-61.346 4.92,-61.616 5.132,-61.891C5.697,-62.621 5.976,-63.536 6.614,-64.225C6.811,-64.437 6.752,-64.584 6.452,-64.623C5.833,-64.703 5.214,-64.78 4.592,-64.823C4.246,-64.847 3.896,-64.81 3.549,-64.784C3.344,-64.769 3.103,-64.781 2.946,-64.678C2.659,-64.488 2.438,-64.201 2.163,-63.99C1.7,-63.633 1.215,-63.305 0.741,-62.962C0.499,-62.786 0.186,-62.651 0.037,-62.414C-0.258,-61.941 -0.461,-61.412 -0.698,-60.905C-0.716,-60.867 -0.7,-60.814 -0.7,-60.765C-0.129,-60.817 -0.129,-60.817 0,-60.585ZM29.341,-7.562C29.303,-7.006 29.234,-6.95 28.677,-6.895C28.539,-6.881 28.288,-6.808 28.29,-6.775C28.312,-6.435 28.253,-5.957 28.45,-5.782C29.288,-5.04 29.817,-4.013 30.838,-3.424C31.592,-2.989 32.205,-2.308 32.872,-1.728C33.152,-1.484 33.402,-1.206 33.681,-0.96C33.91,-0.757 34.161,-0.576 34.405,-0.389C34.906,-0.005 35.41,0.376 35.938,0.779C36.203,0.46 36.431,0.136 36.918,0.29C36.9,0.141 36.904,0.04 36.876,-0.05C36.743,-0.486 36.587,-0.916 36.468,-1.355C36.301,-1.974 36.148,-2.597 36.011,-3.223C35.88,-3.817 35.775,-4.417 35.659,-5.014C35.533,-5.658 35.409,-6.302 35.283,-6.945C35.235,-7.186 35.193,-7.429 35.13,-7.666C35.019,-8.079 34.879,-8.484 34.776,-8.899C34.695,-9.225 34.689,-9.602 34.221,-9.588C33.881,-9.578 33.663,-9.746 33.451,-9.978C33.278,-10.168 33.075,-10.42 32.858,-9.992C32.828,-9.933 32.676,-9.906 32.583,-9.912C32.364,-9.927 32.147,-9.97 31.915,-10.004C31.901,-9.988 31.871,-9.964 31.854,-9.932C31.572,-9.404 31.204,-9.394 30.844,-9.892C30.75,-10.022 30.612,-10.121 30.493,-10.232C30.134,-10.566 29.771,-10.897 29.415,-11.234C29.16,-11.476 28.913,-11.725 28.662,-11.97C28.616,-11.942 28.57,-11.913 28.524,-11.884C29.03,-10.75 29.536,-9.616 30.028,-8.512C29.92,-8.1 30.048,-7.516 29.341,-7.562ZM34.142,-11.175C33.757,-11.821 33.364,-12.442 33.01,-13.084C32.783,-13.496 32.608,-13.936 32.415,-14.366C32.335,-14.545 32.284,-14.739 32.191,-14.911C31.966,-15.327 31.707,-15.725 31.492,-16.146C31.133,-16.853 30.801,-17.573 30.449,-18.284C29.979,-19.233 29.502,-20.178 29.028,-21.126C28.608,-21.969 28.187,-22.812 27.771,-23.657C27.37,-24.473 26.978,-25.293 26.579,-26.11C26.247,-26.79 25.92,-27.472 25.573,-28.143C25.308,-28.657 24.998,-29.149 24.734,-29.664C24.272,-30.564 23.832,-31.475 23.382,-32.381C23.089,-32.969 22.805,-33.561 22.497,-34.141C22.148,-34.798 21.781,-35.447 21.414,-36.094C21.082,-36.678 20.737,-37.254 20.399,-37.834C20.374,-37.877 20.351,-37.921 20.326,-37.966C19.696,-39.108 19.07,-40.253 18.434,-41.392C18.143,-41.912 17.812,-42.41 17.535,-42.936C17.143,-43.682 16.781,-44.444 16.409,-45.201C16.259,-45.506 16.123,-45.818 15.966,-46.119C15.758,-46.515 15.566,-46.926 15.312,-47.291C14.896,-47.885 14.608,-48.532 14.361,-49.205C14.05,-50.054 13.752,-50.91 13.411,-51.747C13.141,-52.411 12.822,-53.055 12.509,-53.7C12.267,-54.2 11.987,-54.681 11.744,-55.18C11.411,-55.861 11.091,-56.547 10.778,-57.237C10.521,-57.804 10.306,-58.389 10.034,-58.948C9.714,-59.606 9.343,-60.24 9.014,-60.895C8.771,-61.379 8.571,-61.884 8.335,-62.371C8.134,-62.784 7.909,-63.186 7.693,-63.592C7.665,-63.647 7.629,-63.699 7.594,-63.749C7.429,-63.979 7.263,-63.938 7.104,-63.745C7.024,-63.648 6.936,-63.553 6.885,-63.441C6.656,-62.936 6.482,-62.4 6.204,-61.925C6.003,-61.583 6.048,-61.18 6.101,-60.923C6.223,-60.327 6.547,-59.764 6.838,-59.213C7.086,-58.744 7.402,-58.312 7.685,-57.861C7.873,-57.561 7.82,-57.198 7.575,-57.058C7.366,-56.938 7.03,-57.07 6.872,-57.361C6.766,-57.558 6.706,-57.78 6.61,-57.983C6.347,-58.546 6.081,-59.108 5.805,-59.665C5.649,-59.978 5.475,-60.283 5.3,-60.585C5.275,-60.627 5.184,-60.669 5.144,-60.655C4.842,-60.546 4.529,-60.452 4.252,-60.297C3.789,-60.036 3.354,-59.727 2.896,-59.453C2.736,-59.357 2.475,-58.875 2.532,-58.695C2.681,-58.233 2.807,-57.761 2.994,-57.316C3.204,-56.819 3.48,-56.351 3.713,-55.864C4.249,-54.74 4.774,-53.61 5.308,-52.485C5.512,-52.056 5.733,-51.636 5.937,-51.207C6.244,-50.565 6.54,-49.918 6.847,-49.276C6.939,-49.081 7.094,-48.907 7.149,-48.704C7.272,-48.258 7.388,-47.821 7.8,-47.543C7.82,-47.529 7.851,-47.502 7.849,-47.487C7.807,-47.227 7.827,-46.929 7.699,-46.72C7.549,-46.473 7.301,-46.666 7.152,-46.798C7.052,-46.889 7.042,-47.075 6.973,-47.208C6.594,-47.932 6.178,-48.639 5.835,-49.38C5.368,-50.388 4.888,-51.401 4.547,-52.455C4.365,-53.019 4.045,-53.495 3.83,-54.032C3.433,-55.023 2.916,-55.966 2.508,-56.953C2.248,-57.581 1.844,-58.164 1.824,-58.886C1.821,-58.989 1.622,-59.148 1.492,-59.174C0.873,-59.299 0.247,-59.397 -0.38,-59.479C-0.51,-59.496 -0.669,-59.428 -0.781,-59.35C-0.814,-59.327 -0.738,-59.138 -0.705,-59.027C-0.684,-58.958 -0.643,-58.894 -0.619,-58.825C-0.422,-58.254 -0.254,-57.671 -0.024,-57.114C0.184,-56.61 0.479,-56.142 0.699,-55.642C1.032,-54.879 1.343,-54.106 1.644,-53.33C1.849,-52.802 1.957,-52.226 2.224,-51.734C2.511,-51.202 2.737,-50.64 3.023,-50.123C3.351,-49.53 3.56,-48.881 3.961,-48.31C4.364,-47.735 4.538,-47.002 4.819,-46.341C4.904,-46.142 4.965,-45.87 5.121,-45.778C5.468,-45.575 5.455,-45.25 5.534,-44.947C5.56,-44.851 5.562,-44.747 5.602,-44.658C5.851,-44.097 6.106,-43.54 6.36,-42.981C6.741,-42.142 7.115,-41.299 7.507,-40.464C7.965,-39.487 8.432,-38.513 8.909,-37.545C9.091,-37.177 9.317,-36.83 9.514,-36.468C9.668,-36.187 9.794,-35.89 9.956,-35.613C10.315,-34.997 10.682,-34.383 11.063,-33.78C11.345,-33.333 11.258,-32.687 11.818,-32.391C11.854,-32.372 11.865,-32.305 11.89,-32.261C12.029,-32.015 12.166,-31.767 12.31,-31.524C12.507,-31.189 12.73,-30.869 12.906,-30.524C13.271,-29.807 13.584,-29.064 13.967,-28.357C14.304,-27.736 14.718,-27.158 15.078,-26.548C15.582,-25.694 16.072,-24.832 16.559,-23.967C16.857,-23.435 17.176,-22.909 17.415,-22.351C17.714,-21.658 18.04,-20.993 18.568,-20.443C18.638,-20.371 18.71,-20.295 18.755,-20.208C19.06,-19.621 19.312,-19.004 19.666,-18.45C20.154,-17.685 20.731,-16.977 21.242,-16.225C21.702,-15.547 22.118,-14.839 22.564,-14.151C23.147,-13.251 23.749,-12.363 24.327,-11.46C24.981,-10.44 25.606,-9.402 26.269,-8.387C26.498,-8.036 26.799,-7.731 27.134,-7.325C27.253,-7.811 27.3,-8.247 27.769,-8.187C28.112,-8.143 28.392,-8.162 28.636,-8.396C28.735,-8.491 28.883,-8.642 28.862,-8.737C28.768,-9.192 28.64,-9.644 28.489,-10.085C28.395,-10.363 28.157,-10.611 28.124,-10.89C28.02,-11.78 27.597,-12.543 27.238,-13.333C27.068,-13.707 27.255,-14.103 27.639,-14.018C27.954,-13.949 28.264,-13.693 28.497,-13.445C28.93,-12.982 29.29,-12.453 29.709,-11.975C30.024,-11.617 30.383,-11.297 30.673,-11.009C30.891,-11.194 31.058,-11.451 31.207,-11.441C31.593,-11.415 31.751,-11.668 31.921,-11.894C32.137,-12.18 32.316,-12.128 32.535,-11.924C32.927,-11.559 33.323,-11.2 33.733,-10.824C33.879,-10.949 34,-11.053 34.142,-11.175ZM35.243,1.445C35.119,1.271 35.023,1.064 34.867,0.926C33.964,0.128 33.054,-0.664 32.13,-1.438C31.728,-1.775 31.263,-2.037 30.867,-2.38C30.371,-2.811 29.779,-3.114 29.358,-3.652C28.963,-4.158 28.491,-4.614 28.003,-5.034C27.806,-5.204 27.479,-5.239 27.204,-5.3C27.021,-5.341 26.961,-5.396 26.966,-5.597C26.97,-5.774 26.911,-5.974 26.818,-6.127C26.52,-6.622 26.195,-7.102 25.875,-7.584C25.558,-8.062 25.211,-8.523 24.915,-9.014C24.382,-9.899 23.901,-10.816 23.354,-11.69C22.969,-12.303 22.503,-12.865 22.083,-13.456C21.693,-14.005 21.312,-14.559 20.937,-15.117C20.555,-15.686 20.179,-16.258 19.811,-16.835C19.335,-17.582 18.792,-18.301 18.426,-19.1C18.191,-19.611 17.814,-19.995 17.557,-20.471C17.193,-21.141 16.81,-21.799 16.449,-22.47C16.075,-23.165 15.725,-23.872 15.351,-24.566C14.997,-25.223 14.632,-25.874 14.261,-26.52C13.747,-27.415 13.216,-28.3 12.705,-29.197C12.462,-29.624 12.269,-30.081 12.016,-30.503C11.665,-31.09 11.253,-31.641 10.918,-32.235C10.562,-32.866 10.274,-33.535 9.935,-34.175C9.804,-34.423 9.594,-34.628 9.451,-34.872C9.227,-35.254 9.023,-35.65 8.823,-36.045C8.545,-36.596 8.27,-37.148 8.005,-37.706C7.413,-38.954 6.827,-40.205 6.242,-41.457C5.966,-42.049 5.681,-42.639 5.433,-43.244C5.219,-43.765 5.089,-44.323 4.853,-44.833C4.587,-45.402 4.22,-45.924 3.938,-46.486C3.414,-47.527 2.913,-48.58 2.417,-49.634C1.994,-50.53 1.57,-51.426 1.186,-52.338C0.717,-53.447 0.293,-54.574 -0.161,-55.689C-0.261,-55.931 -0.421,-56.148 -0.533,-56.387C-0.647,-56.629 -0.738,-56.883 -0.837,-57.133C-0.998,-57.539 -1.161,-57.945 -1.315,-58.354C-1.433,-58.663 -1.534,-58.978 -1.65,-59.288C-1.679,-59.366 -1.726,-59.441 -1.779,-59.505C-2.113,-59.901 -2.11,-60.046 -1.849,-60.474C-1.496,-61.051 -1.166,-61.642 -0.839,-62.234C-0.791,-62.32 -0.794,-62.446 -0.807,-62.549C-0.864,-63.026 -0.696,-63.287 -0.266,-63.488C0.366,-63.781 1.013,-64.061 1.597,-64.433C2.072,-64.736 2.472,-65.159 2.892,-65.544C3.107,-65.742 3.317,-65.794 3.608,-65.713C3.939,-65.621 4.291,-65.599 4.634,-65.55C4.891,-65.514 5.148,-65.465 5.407,-65.455C6.121,-65.429 6.841,-65.469 7.545,-65.377C7.784,-65.346 8.053,-65.037 8.183,-64.789C8.439,-64.302 8.608,-63.768 8.815,-63.255C8.977,-62.855 9.123,-62.449 9.308,-62.06C9.52,-61.614 9.77,-61.186 9.997,-60.747C10.496,-59.787 11.022,-58.841 11.478,-57.862C11.807,-57.154 12.026,-56.397 12.32,-55.672C12.415,-55.44 12.619,-55.254 12.726,-55.025C13.165,-54.078 13.603,-53.13 14.01,-52.169C14.438,-51.162 14.8,-50.127 15.247,-49.13C15.54,-48.478 15.936,-47.872 16.285,-47.245C16.321,-47.179 16.353,-47.11 16.388,-47.044C16.634,-46.572 16.891,-46.105 17.124,-45.627C17.411,-45.04 17.671,-44.44 17.958,-43.854C18.131,-43.5 18.335,-43.162 18.524,-42.815C18.654,-42.576 18.783,-42.336 18.911,-42.096C19.344,-41.284 19.707,-40.437 20.25,-39.683C20.531,-39.294 20.745,-38.854 20.968,-38.427C21.016,-38.334 20.975,-38.194 21.048,-38.113C21.186,-37.871 21.312,-37.623 21.466,-37.391C21.713,-37.017 22,-36.667 22.228,-36.282C22.57,-35.704 23.008,-35.137 23.168,-34.506C23.391,-33.629 24.063,-33.002 24.28,-32.144C24.322,-31.975 24.488,-31.84 24.586,-31.682C24.739,-31.436 24.894,-31.189 25.026,-30.932C25.194,-30.607 25.334,-30.269 25.497,-29.941C25.742,-29.45 26,-28.966 26.244,-28.474C26.432,-28.097 26.597,-27.709 26.786,-27.332C27.458,-25.998 28.136,-24.666 28.812,-23.333C29.096,-22.776 29.396,-22.227 29.665,-21.664C29.976,-21.014 30.248,-20.348 30.558,-19.698C30.871,-19.04 31.211,-18.395 31.534,-17.742C31.692,-17.421 31.825,-17.086 31.993,-16.771C32.212,-16.36 32.472,-15.972 32.682,-15.558C32.894,-15.141 33.04,-14.691 33.262,-14.28C33.713,-13.445 34.229,-12.643 34.653,-11.795C34.98,-11.143 35.214,-10.442 35.474,-9.758C35.516,-9.648 35.502,-9.506 35.482,-9.384C35.399,-8.882 35.558,-8.432 35.741,-7.977C35.813,-7.798 35.788,-7.582 35.837,-7.39C36.111,-6.317 36.399,-5.247 36.67,-4.173C36.745,-3.873 36.754,-3.556 36.824,-3.255C37.038,-2.347 37.257,-1.44 37.498,-0.539C37.575,-0.252 37.752,0.008 37.843,0.293C37.998,0.774 38.076,1.283 38.269,1.746C38.481,2.258 38.76,2.749 39.059,3.217C39.351,3.676 39.756,4.076 39.797,4.653C39.828,5.096 39.604,5.209 39.18,5.064C38.475,4.822 38.104,4.245 37.709,3.686C37.373,3.209 37.04,2.731 36.705,2.254C36.69,2.234 36.678,2.207 36.657,2.198C36.166,1.978 35.675,1.759 35.184,1.541C35.203,1.509 35.223,1.477 35.243,1.445Z" style="fill:none;fill-rule:nonzero;stroke:rgb(37,37,37);stroke-width:0.35px;"/>
    </g>
    <g transform="matrix(8.33333,0,0,8.33333,592.969,489.995)">
        <path d="M0,-12.291C-0.088,-12.173 -0.163,-12.088 -0.221,-11.991C-0.734,-11.139 -1.259,-10.292 -1.752,-9.428C-2.083,-8.846 -2.369,-8.238 -2.675,-7.641C-3.155,-6.706 -3.768,-5.841 -4.119,-4.837C-4.338,-4.215 -4.591,-3.604 -4.835,-2.991C-5.077,-2.382 -5.338,-1.78 -5.569,-1.167C-5.755,-0.676 -5.911,-0.173 -6.072,0.328C-6.095,0.396 -6.083,0.481 -6.063,0.552C-6.05,0.603 -6.003,0.671 -5.958,0.681C-5.91,0.692 -5.823,0.661 -5.798,0.621C-5.641,0.371 -5.479,0.121 -5.351,-0.145C-5.169,-0.522 -5.045,-0.928 -4.845,-1.293C-4.485,-1.949 -4.091,-2.587 -3.703,-3.228C-3.577,-3.437 -3.402,-3.62 -3.291,-3.836C-2.92,-4.549 -2.586,-5.282 -2.201,-5.989C-1.946,-6.458 -1.613,-6.883 -1.346,-7.345C-0.837,-8.224 -0.37,-9.128 0.153,-9.998C0.589,-10.722 0.583,-11.515 0,-12.291ZM-7.931,0.259C-8.145,0.259 -8.351,0.318 -8.499,0.249C-9.112,-0.034 -9.708,-0.357 -10.312,-0.664C-10.366,-0.692 -10.426,-0.711 -10.482,-0.734C-11.255,-1.046 -12.028,-1.357 -12.801,-1.668C-12.835,-1.682 -12.87,-1.696 -12.903,-1.713C-13.651,-2.099 -14.398,-2.485 -15.147,-2.87C-15.312,-2.955 -15.43,-2.936 -15.494,-2.735C-15.655,-2.228 -15.896,-1.735 -15.978,-1.216C-16.081,-0.57 -16.185,0.121 -16.061,0.748C-15.849,1.818 -15.229,2.685 -14.241,3.228C-13.709,3.521 -13.187,3.889 -12.611,4.031C-11.968,4.189 -11.271,4.15 -10.596,4.156C-10.332,4.158 -10.043,4.096 -9.807,3.98C-9.203,3.682 -8.604,3.365 -8.04,3C-7.594,2.712 -7.138,2.401 -6.954,1.85C-6.852,1.541 -6.798,1.23 -7.07,0.982C-7.354,0.723 -7.659,0.486 -7.931,0.259ZM-0.769,-12.718C-1.483,-12.804 -2.074,-12.936 -2.666,-13.22C-3.52,-13.63 -4.475,-13.813 -5.304,-14.326C-5.792,-14.629 -6.42,-14.728 -6.869,-15.07C-7.432,-15.499 -8.05,-15.772 -8.674,-16.063C-8.906,-16.172 -9.033,-16.167 -9.152,-15.925C-9.279,-15.667 -9.45,-15.432 -9.585,-15.178C-9.94,-14.511 -10.271,-13.831 -10.64,-13.171C-11.021,-12.489 -11.452,-11.835 -11.833,-11.153C-12.248,-10.413 -12.639,-9.658 -13.023,-8.902C-13.386,-8.19 -13.721,-7.464 -14.08,-6.751C-14.483,-5.952 -14.91,-5.164 -15.303,-4.359C-15.353,-4.258 -15.309,-4.015 -15.227,-3.96C-14.885,-3.734 -14.518,-3.544 -14.15,-3.359C-13.617,-3.091 -13.069,-2.851 -12.541,-2.573C-12.08,-2.33 -11.66,-2.003 -11.184,-1.8C-10.18,-1.373 -9.151,-1.003 -8.134,-0.607C-8.064,-0.58 -8.009,-0.514 -7.938,-0.494C-7.609,-0.4 -7.279,-0.31 -6.945,-0.235C-6.904,-0.226 -6.814,-0.306 -6.794,-0.362C-6.676,-0.685 -6.578,-1.015 -6.461,-1.337C-6.396,-1.513 -6.312,-1.683 -6.228,-1.851C-6.004,-2.289 -5.751,-2.714 -5.554,-3.164C-5.154,-4.072 -4.803,-5.003 -4.394,-5.908C-4.086,-6.59 -3.728,-7.249 -3.379,-7.912C-2.898,-8.826 -2.41,-9.736 -1.918,-10.644C-1.556,-11.31 -1.183,-11.971 -0.769,-12.718ZM-16.94,-0.312C-16.85,-0.736 -16.74,-1.3 -16.604,-1.857C-16.497,-2.301 -16.346,-2.735 -16.241,-3.18C-16.22,-3.274 -16.288,-3.426 -16.364,-3.498C-16.562,-3.682 -16.552,-3.858 -16.424,-4.067C-16.119,-4.568 -15.766,-5.048 -15.532,-5.58C-15.133,-6.488 -14.427,-7.244 -14.241,-8.262C-14.196,-8.511 -13.948,-8.718 -13.815,-8.957C-13.475,-9.573 -13.152,-10.201 -12.808,-10.817C-12.688,-11.031 -12.502,-11.208 -12.382,-11.422C-11.864,-12.346 -11.351,-13.272 -10.855,-14.208C-10.542,-14.799 -10.27,-15.412 -9.969,-16.01C-9.792,-16.362 -9.601,-16.708 -9.403,-17.049C-9.285,-17.251 -8.893,-17.306 -8.697,-17.182C-8.226,-16.882 -7.754,-16.583 -7.272,-16.299C-6.823,-16.035 -6.365,-15.786 -5.905,-15.54C-5.053,-15.085 -4.217,-14.593 -3.335,-14.203C-2.825,-13.977 -2.24,-13.921 -1.689,-13.785C-1.559,-13.753 -1.433,-13.703 -1.303,-13.671C-1.029,-13.605 -0.754,-13.489 -0.481,-13.495C0.132,-13.508 0.415,-13.344 0.652,-12.779C0.833,-12.347 1.001,-11.908 1.399,-11.599C1.683,-11.379 1.697,-11.105 1.498,-10.767C1.026,-9.966 0.615,-9.128 0.154,-8.32C-0.192,-7.715 -0.594,-7.141 -0.943,-6.538C-1.33,-5.868 -1.687,-5.181 -2.054,-4.5C-2.137,-4.347 -2.198,-4.182 -2.288,-4.034C-2.595,-3.524 -2.929,-3.03 -3.218,-2.511C-3.64,-1.751 -4.025,-0.973 -4.437,-0.207C-4.701,0.287 -4.998,0.765 -5.251,1.265C-5.382,1.524 -5.439,1.819 -5.549,2.09C-5.606,2.231 -5.679,2.388 -5.792,2.481C-6.147,2.773 -6.515,3.054 -6.897,3.309C-7.455,3.681 -8.019,4.048 -8.603,4.374C-8.976,4.581 -9.382,4.751 -9.794,4.863C-10.16,4.962 -10.554,4.971 -10.937,4.997C-11.226,5.015 -11.517,4.999 -11.808,4.994C-13.107,4.973 -14.196,4.443 -15.218,3.67C-15.938,3.126 -16.309,2.375 -16.664,1.601C-16.77,1.37 -16.795,1.098 -16.83,0.841C-16.876,0.507 -16.896,0.169 -16.94,-0.312Z" style="fill:rgb(37,37,37);fill-rule:nonzero;stroke:rgb(37,37,37);stroke-width:0.35px;"/>
    </g>
    <g transform="matrix(8.33333,0,0,8.33333,38.2645,20.1678)">
        <path d="M0,1.912C-0.387,1.956 -0.665,1.81 -0.8,1.467C-0.936,1.119 -0.763,0.83 -0.498,0.614C-0.27,0.426 -0.031,0.228 0.237,0.117C0.627,-0.044 1.075,0.278 0.988,0.681C0.905,1.067 0.69,1.435 0.479,1.777C0.413,1.881 0.164,1.87 0,1.912Z" style="fill:rgb(37,37,37);fill-rule:nonzero;stroke:rgb(37,37,37);stroke-width:0.35px;"/>
    </g>
</svg>
