<?xml version="1.0" encoding="UTF-8" standalone="no"?>
<!DOCTYPE svg PUBLIC "-//W3C//DTD SVG 1.1//EN" "http://www.w3.org/Graphics/SVG/1.1/DTD/svg11.dtd">
<svg width="100%" height="100%" viewBox="0 0 763 458" version="1.1" xmlns="http://www.w3.org/2000/svg" xmlns:xlink="http://www.w3.org/1999/xlink" xml:space="preserve" xmlns:serif="http://www.serif.com/" style="fill-rule:evenodd;clip-rule:evenodd;stroke-linejoin:round;stroke-miterlimit:2;">
    <g transform="matrix(10.8836,4.59244,-3.23972,7.6778,-17641.2,-44068.6)">
        <text x="2843.19px" y="4061.79px" style="font-family:'LucidaGrande', 'Lucida Grande', sans-serif;font-weight:500;font-size:12.838px;fill:rgb(37,37,37);">Y<tspan x="2849.2px 2856.1px 2865.17px 2874.24px 2880.25px " y="4061.79px 4061.79px 4061.79px 4061.79px 4061.79px ">UMMY!</tspan></text>
    </g>
    <g transform="matrix(8.33333,0,0,8.33333,39.4057,398.187)">
        <path d="M0,-40.775C4.687,-35.168 2.574,-26.159 -4.346,-23.49C-4.997,-23.239 -4.759,-22.367 -4.071,-22.467C2.998,-23.506 9.073,-17.496 8.412,-10.486C8.357,-9.911 9.13,-9.923 9.478,-10.072C14.835,-12.362 20.775,-12.129 25.898,-9.368C29.2,-7.589 31.157,-3.355 34.576,-2.132C38.117,-0.866 42.434,-3.057 46.203,-2.372C51.682,-1.376 56.258,2.134 59.092,6.83C59.336,7.234 60.143,7.092 60.365,6.74C64.386,0.378 71.534,3.864 76.426,6.474C76.785,6.666 77.8,6.295 77.562,5.767C74.58,-0.838 78.565,-9.196 86.024,-10.241C86.462,-10.302 87.167,-10.801 86.634,-11.24C81.651,-15.335 79.093,-21.001 79.295,-27.439C79.312,-27.971 78.594,-28.064 78.229,-27.852C70.43,-23.333 63.961,-30.787 59.678,-36.386C59.394,-36.759 58.655,-36.675 58.404,-36.296C52.864,-27.898 44.174,-36.982 40.491,-41.713C40.195,-42.094 39.483,-41.993 39.218,-41.623C34.05,-34.442 27.245,-43.314 24.602,-47.533C24.304,-48.009 23.444,-47.731 23.244,-47.305C21.087,-42.717 13.263,-38.128 10.621,-45.066C10.387,-45.683 9.209,-45.475 9.16,-44.826C9.127,-41.596 7.021,-40.025 2.841,-40.114C2.093,-40.296 1.404,-39.233 2.354,-39.002C6.471,-38.003 10.316,-40.638 10.633,-44.919C10.146,-44.838 9.659,-44.758 9.173,-44.678C12.396,-36.208 21.881,-41.239 24.639,-47.105C24.186,-47.028 23.732,-46.953 23.28,-46.877C26.605,-41.57 34.825,-33.341 40.443,-41.148C40.019,-41.118 39.594,-41.087 39.169,-41.057C43.603,-35.362 53.646,-26.751 59.63,-35.82C59.206,-35.79 58.781,-35.76 58.356,-35.73C63.194,-29.405 70.426,-22.029 78.888,-26.932C78.532,-27.07 78.177,-27.208 77.822,-27.346C77.609,-20.585 80.306,-14.661 85.526,-10.369C85.729,-10.702 85.933,-11.035 86.136,-11.367C78.044,-10.234 72.661,-1.492 76.113,6.156C76.491,5.92 76.87,5.684 77.249,5.449C71.531,2.398 63.436,-0.533 59.14,6.264C59.564,6.234 59.989,6.204 60.413,6.174C57.894,1.998 54.199,-1.111 49.568,-2.72C43.838,-4.712 37.234,-2.127 32.379,-5.915C28.773,-8.727 26.195,-11.313 21.493,-12.342C17.153,-13.292 12.871,-12.725 8.818,-10.992C9.174,-10.854 9.529,-10.716 9.885,-10.578C10.618,-18.354 3.714,-24.721 -3.961,-23.594C-3.869,-23.253 -3.777,-22.912 -3.687,-22.571C3.774,-25.448 6.5,-35.236 1.321,-41.431C0.873,-41.968 -0.497,-41.369 0,-40.775" style="fill:rgb(37,37,37);fill-rule:nonzero;"/>
    </g>
</svg>
