<?xml version="1.0" encoding="UTF-8" standalone="no"?>
<!DOCTYPE svg PUBLIC "-//W3C//DTD SVG 1.1//EN" "http://www.w3.org/Graphics/SVG/1.1/DTD/svg11.dtd">
<svg width="100%" height="100%" viewBox="0 0 562 544" version="1.1" xmlns="http://www.w3.org/2000/svg" xmlns:xlink="http://www.w3.org/1999/xlink" xml:space="preserve" xmlns:serif="http://www.serif.com/" style="fill-rule:evenodd;clip-rule:evenodd;stroke-linejoin:round;stroke-miterlimit:2;">
    <g transform="matrix(8.33333,0,0,8.33333,352.466,432.586)">
        <path d="M0,-38.569C-0.738,-38.902 -1.463,-39.237 -2.194,-39.554C-2.538,-39.703 -2.83,-39.671 -3.086,-39.321C-3.6,-38.62 -4.166,-37.956 -4.69,-37.262C-4.945,-36.925 -5.166,-36.562 -5.382,-36.199C-5.651,-35.745 -5.555,-35.572 -5.032,-35.453C-4.124,-35.245 -3.404,-35.505 -2.802,-36.221C-2.403,-36.696 -1.959,-37.141 -1.484,-37.539C-1.038,-37.914 -0.525,-38.21 0,-38.569M-8.566,-39.462C-9.654,-39.285 -10.778,-38.991 -11.847,-38.524C-12.465,-38.253 -13.095,-37.969 -13.475,-37.345C-13.636,-37.08 -13.676,-36.841 -13.448,-36.608C-12.836,-35.976 -12.225,-35.343 -11.595,-34.728C-11.521,-34.656 -11.331,-34.66 -11.209,-34.688C-10.901,-34.761 -10.604,-34.877 -10.297,-34.959C-9.755,-35.106 -9.208,-35.241 -8.741,-35.36C-8.683,-36.743 -8.625,-38.091 -8.566,-39.462M-21.779,-36.142C-21.048,-35.84 -20.333,-35.569 -19.639,-35.255C-18.43,-34.708 -17.246,-34.103 -16.025,-33.585C-15.313,-33.284 -14.549,-33.167 -13.782,-33.461C-13.529,-33.558 -13.271,-33.64 -13.021,-33.741C-12.545,-33.932 -12.442,-34.341 -12.842,-34.664C-13.342,-35.069 -13.892,-35.414 -14.432,-35.768C-16.213,-36.934 -18.148,-37.265 -20.221,-36.804C-20.781,-36.679 -21.343,-36.539 -21.779,-36.142M8.882,-36.872C7.994,-37.904 5.317,-38.337 3.366,-37.978C0.601,-37.468 -1.971,-35.992 -2.451,-34.742C-1.823,-34.606 -1.285,-34.365 -0.595,-33.841C-0.173,-33.521 0.219,-33.504 0.658,-33.793C1.061,-34.058 1.478,-34.3 1.898,-34.536C3.175,-35.251 4.503,-35.853 5.925,-36.211C6.895,-36.456 7.877,-36.649 8.882,-36.872M-3.521,-31.169C-2.684,-31.183 -2.24,-31.602 -1.879,-32.113C-1.706,-32.357 -1.753,-32.64 -2.023,-32.827C-2.265,-32.994 -2.518,-33.144 -2.765,-33.303C-4.423,-34.375 -6.228,-34.716 -8.17,-34.407C-9.544,-34.189 -10.839,-33.723 -12.064,-33.09C-12.663,-32.781 -13.191,-32.329 -13.735,-31.921C-13.967,-31.747 -13.962,-31.49 -13.821,-31.249C-13.682,-31.009 -13.483,-31.152 -13.319,-31.206C-12.057,-31.619 -10.767,-31.889 -9.439,-31.959C-7.742,-32.05 -6.064,-31.909 -4.42,-31.464C-4.072,-31.369 -3.733,-31.239 -3.521,-31.169M-7.769,-36.393C-7.769,-36.145 -7.776,-35.897 -7.767,-35.649C-7.748,-35.171 -7.498,-34.995 -7.039,-35.149C-6.58,-35.303 -6.278,-35.665 -6.051,-36.058C-5.352,-37.267 -4.709,-38.509 -3.999,-39.711C-2.95,-41.486 -1.764,-43.169 -0.375,-44.698C0.194,-45.325 0.819,-45.902 1.387,-46.532C1.9,-47.102 1.935,-47.69 1.545,-48.163C1.033,-48.787 -0.181,-49.833 -0.961,-49.547C-2.056,-49.145 -2.848,-48.365 -3.542,-47.477C-4.812,-45.855 -5.826,-43.339 -6.593,-41.424C-7.24,-39.805 -7.723,-38.151 -7.769,-36.393M21.463,-2.583C21.957,-2.584 22.228,-2.908 22.463,-3.246C23.362,-4.537 23.892,-5.974 24.051,-7.537C24.268,-9.649 24.172,-11.76 23.988,-13.871C23.828,-15.707 23.673,-17.544 23.188,-19.327C22.78,-20.825 22.347,-22.321 21.832,-23.785C21.292,-25.32 20.572,-26.782 19.729,-28.179C18.527,-30.173 17.091,-31.955 15.195,-33.346C13.438,-34.634 11.462,-35.238 9.312,-35.281C7.523,-35.317 5.794,-34.945 4.118,-34.334C3.703,-34.183 3.306,-33.983 2.899,-33.805C3.021,-33.751 3.122,-33.764 3.223,-33.774C3.34,-33.786 3.457,-33.802 3.575,-33.805C5.844,-33.863 7.997,-33.339 10.079,-32.487C12.558,-31.474 14.642,-29.925 16.333,-27.844C18.04,-25.745 19.168,-23.35 19.973,-20.789C20.665,-18.589 21.094,-16.329 21.34,-14.041C21.608,-11.54 21.749,-9.03 21.646,-6.513C21.593,-5.216 21.525,-3.921 21.463,-2.583M-15.914,-32.011C-15.9,-32.024 -15.887,-32.038 -15.873,-32.051C-16.238,-32.319 -16.592,-32.607 -16.974,-32.852C-18.057,-33.549 -19.201,-34.119 -20.447,-34.471C-21.591,-34.794 -22.759,-34.945 -23.941,-34.992C-25.54,-35.056 -27.843,-34.875 -29.313,-34.184C-30.658,-33.551 -31.752,-32.587 -32.795,-31.559C-34.813,-29.571 -36.362,-27.246 -37.622,-24.725C-38.67,-22.627 -39.402,-20.412 -39.82,-18.103C-40.232,-15.822 -40.478,-13.518 -40.558,-11.203C-40.601,-9.977 -40.54,-7.223 -40.492,-5.995C-40.416,-4.037 -39.345,-1.405 -38.595,0.418C-38.432,0.815 -37.45,1.19 -37.197,1.538C-37.102,1.668 -36.108,3.249 -35.943,3.232C-35.846,3.222 -35.723,2.974 -35.7,2.819C-35.646,2.459 -35.625,2.09 -35.626,1.725C-35.629,-1.767 -36.875,-8.968 -36.254,-12.407C-35.988,-13.877 -35.706,-15.347 -35.356,-16.8C-34.788,-19.168 -33.966,-21.446 -32.787,-23.589C-31.777,-25.423 -30.543,-27.086 -28.946,-28.439C-26.627,-30.405 -23.946,-31.663 -20.952,-32.215C-19.847,-32.42 -18.726,-32.513 -17.604,-32.317C-17.039,-32.219 -16.477,-32.113 -15.914,-32.011M-14.511,-30.772C-14.657,-30.85 -14.755,-30.911 -14.858,-30.955C-16.26,-31.549 -17.721,-31.639 -19.205,-31.425C-20.652,-31.216 -22.007,-30.716 -23.315,-30.069C-25.283,-29.096 -27.019,-27.812 -28.478,-26.178C-30.387,-24.04 -31.717,-21.552 -32.699,-18.877C-33.473,-16.769 -33.993,-14.587 -34.349,-12.374C-34.592,-10.861 -34.75,-9.33 -34.861,-7.801C-35.065,-5.006 -34.94,-2.226 -34.2,0.496C-33.8,1.97 -33.222,3.369 -32.38,4.652C-31.187,6.475 -29.593,7.835 -27.624,8.752C-26.541,9.257 -25.399,9.541 -24.197,9.472C-23.583,9.437 -21.478,9.327 -20.967,8.951C-20.246,8.421 -20.122,7.648 -20.198,6.828C-20.335,5.35 -22.435,4.021 -22.995,2.67C-23.594,1.225 -24.166,-0.236 -24.653,-1.721C-25.267,-3.591 -25.547,-5.533 -25.623,-7.5C-25.712,-9.761 -25.6,-12.011 -25.26,-14.251C-24.942,-16.35 -24.579,-18.437 -23.953,-20.474C-23.482,-22.01 -22.79,-23.435 -21.888,-24.748C-20.445,-26.847 -18.583,-28.505 -16.373,-29.768C-15.781,-30.106 -15.175,-30.415 -14.511,-30.772M-2.286,-30.821C-2.09,-30.715 -2.722,-30.657 -2.612,-30.593C-1.656,-30.037 -0.657,-29.543 0.243,-28.909C1.718,-27.871 2.92,-26.534 3.963,-25.071C5.338,-23.142 6.401,-21.041 7.162,-18.796C7.935,-16.518 8.405,-14.17 8.6,-11.775C8.8,-9.306 8.729,-6.843 8.325,-4.39C8.012,-2.484 7.496,-0.642 6.751,1.139C6.455,1.845 5.388,4.033 5.131,4.753C4.959,5.236 4.752,6.195 4.991,6.681C5.395,7.499 7.062,7.403 7.904,7.466C8.578,7.517 9.278,7.498 9.939,7.371C11.946,6.987 14.766,5.158 16.176,3.698C17.553,2.272 19.227,0.341 19.903,-1.521C20.464,-3.064 20.482,-4.315 20.544,-5.958C20.632,-8.304 20.432,-10.628 19.991,-12.928C19.696,-14.468 19.339,-15.996 18.982,-17.523C18.565,-19.304 18.019,-21.048 17.215,-22.695C16.054,-25.072 14.685,-27.619 11.695,-29.589C9.712,-31.161 7.476,-32.092 4.974,-32.393C3.075,-32.621 1.227,-32.39 -0.548,-31.67C-1.121,-31.437 -1.664,-31.127 -2.286,-30.821M6.564,-10.568C6.476,-11.603 6.413,-12.641 6.291,-13.672C6.101,-15.269 5.708,-16.827 5.182,-18.344C4.531,-20.218 3.706,-22.011 2.629,-23.687C1.229,-25.864 -0.433,-27.773 -2.667,-29.137C-4.555,-30.291 -6.595,-30.855 -8.804,-30.726C-10.762,-30.612 -12.583,-29.97 -14.346,-29.152C-15.717,-28.515 -16.997,-27.733 -18.103,-26.691C-19.842,-25.054 -21.037,-23.053 -21.912,-20.856C-22.674,-18.941 -23.116,-16.937 -23.355,-14.894C-23.628,-12.56 -23.602,-10.228 -23.289,-7.894C-23.01,-5.802 -22.504,-1.538 -21.77,0.437C-20.876,2.84 -19.662,5.059 -18.037,7.053C-16.739,8.645 -15.233,9.966 -13.387,10.89C-10.752,12.208 -8.011,11.854 -5.146,11.078C-3.006,10.498 -0.241,9.027 1.263,7.426C2.742,5.851 4.053,4.15 4.991,2.207C5.846,0.437 6.076,-2.724 6.524,-4.635C6.982,-6.584 6.518,-8.556 6.564,-10.568M-18.969,9.52C-19.895,9.795 -20.766,10.085 -21.652,10.31C-22.917,10.63 -24.209,10.781 -25.515,10.717C-27.925,10.601 -29.384,9.896 -31.361,8.472C-32.638,7.554 -33.633,6.405 -34.459,5.089C-34.681,4.735 -34.952,4.459 -35.327,4.248C-37.355,3.104 -39.012,2.303 -40.225,0.308C-41.124,-1.169 -41.683,-2.772 -41.932,-4.489C-42.266,-6.802 -42.39,-9.123 -42.22,-11.453C-42.064,-13.573 -41.777,-15.678 -41.347,-17.763C-40.829,-20.264 -40.114,-22.702 -39.072,-25.036C-37.884,-27.697 -36.291,-30.09 -34.169,-32.099C-32.354,-33.819 -30.3,-35.184 -27.866,-35.862C-26.952,-36.117 -25.991,-36.203 -25.052,-36.369C-24.965,-36.385 -24.85,-36.4 -24.802,-36.459C-24.304,-37.085 -23.575,-37.318 -22.877,-37.594C-21.411,-38.175 -19.896,-38.267 -18.352,-38.003C-17.956,-37.936 -17.557,-37.876 -17.172,-37.767C-16.883,-37.686 -16.673,-37.739 -16.421,-37.902C-14.871,-38.903 -13.23,-39.707 -11.428,-40.161C-10.407,-40.418 -9.385,-40.636 -8.328,-40.641C-8.096,-40.642 -7.976,-40.713 -7.911,-40.958C-7.503,-42.512 -6.966,-44.02 -6.261,-45.466C-5.278,-47.479 -4.122,-49.375 -2.521,-50.964C-2.208,-51.275 -1.835,-51.536 -1.46,-51.773C-1.093,-52.007 -0.874,-51.937 -0.605,-51.601C0.346,-50.41 1.339,-49.254 2.59,-48.364C3.056,-48.033 3.587,-47.794 4.089,-47.514C4.168,-47.47 4.253,-47.434 4.44,-47.343C4.17,-47.094 3.958,-46.873 3.721,-46.686C2.935,-46.067 2.102,-45.503 1.355,-44.84C0.148,-43.767 -0.896,-42.54 -1.825,-41.217C-2.007,-40.959 -2.197,-40.706 -2.419,-40.403C-1.897,-40.283 -1.409,-40.181 -0.926,-40.059C0.165,-39.783 1.215,-39.411 2.138,-38.74C2.219,-38.682 2.358,-38.659 2.459,-38.679C4.194,-39.02 5.921,-38.907 7.629,-38.525C9.1,-38.195 10.455,-37.601 11.468,-36.428C11.741,-36.111 12.108,-36.101 12.441,-36.015C14.52,-35.476 16.239,-34.343 17.754,-32.868C19.351,-31.314 20.547,-29.477 21.507,-27.476C22.586,-25.224 23.339,-22.861 23.938,-20.442C24.445,-18.4 24.782,-16.333 24.979,-14.238C25.211,-11.79 25.164,-9.351 24.826,-6.918C24.612,-5.373 24.275,-3.853 23.614,-2.43C23.04,-1.193 22.304,-0.805 21.197,0.031C20.976,0.199 20.666,0.281 20.385,0.328C20.18,0.363 20.083,0.434 19.994,0.611C18.838,2.91 17.16,5.491 14.96,6.814C12.603,8.232 10.016,8.808 7.271,8.712C5.817,8.66 4.375,8.523 2.95,8.211C2.85,8.189 2.689,8.237 2.616,8.311C1.189,9.751 -0.378,11.007 -2.184,11.938C-3.214,12.469 -4.312,12.814 -5.451,13.046C-7.372,13.438 -9.302,13.43 -11.228,13.163C-13.484,12.85 -16.337,11.341 -18.259,10.103C-18.533,9.927 -18.768,9.688 -18.969,9.52" style="fill:rgb(37,37,37);fill-rule:nonzero;"/>
    </g>
</svg>
