<?xml version="1.0" encoding="UTF-8" standalone="no"?>
<!DOCTYPE svg PUBLIC "-//W3C//DTD SVG 1.1//EN" "http://www.w3.org/Graphics/SVG/1.1/DTD/svg11.dtd">
<svg width="100%" height="100%" viewBox="0 0 803 619" version="1.1" xmlns="http://www.w3.org/2000/svg" xmlns:xlink="http://www.w3.org/1999/xlink" xml:space="preserve" xmlns:serif="http://www.serif.com/" style="fill-rule:evenodd;clip-rule:evenodd;stroke-linecap:round;stroke-linejoin:round;stroke-miterlimit:10;">
    <g transform="matrix(8.33333,0,0,8.33333,489.277,322.921)">
        <path d="M0,-3.303C-0.193,-3.555 -0.374,-3.79 -0.551,-4.02C-0.572,-3.556 -0.397,-3.31 0,-3.303M-23.508,-18.589C-23.637,-18.239 -23.773,-17.867 -23.904,-17.51C-23.458,-17.593 -23.238,-18.205 -23.508,-18.589M7.291,18.249C7.082,17.884 6.893,17.551 6.64,17.109C6.64,17.38 6.577,17.593 6.652,17.734C6.789,17.989 6.946,18.291 7.291,18.249M-43.745,3.966C-43.854,3.845 -43.952,3.738 -44.08,3.596C-44.252,3.92 -44.398,4.195 -44.544,4.47C-44.506,4.504 -44.468,4.538 -44.429,4.572C-44.219,4.385 -44.009,4.199 -43.745,3.966M2.878,3.623C2.554,4.067 2.748,4.718 3.223,4.771C3.107,4.388 2.992,4.005 2.878,3.623M17.08,-3.998C17.163,-4.602 17.083,-4.849 16.739,-5.054C16.672,-4.172 16.717,-4.032 17.08,-3.998M-25.348,-13.343L-25.348,-11.61C-24.934,-12.009 -24.88,-12.895 -25.348,-13.343M6.078,12.781C6.028,12.767 5.979,12.754 5.929,12.74C5.874,12.889 5.751,13.054 5.781,13.181C5.837,13.406 5.986,13.609 6.096,13.821C6.181,13.74 6.349,13.641 6.336,13.581C6.277,13.309 6.169,13.047 6.078,12.781M22.234,12.456L24.152,12.456C23.678,12.043 22.943,12.04 22.234,12.456M17.253,-1.103C17.348,-0.686 17.431,-0.324 17.513,0.04C17.519,0.065 17.516,0.103 17.531,0.114C17.612,0.168 17.697,0.217 17.808,0.283C17.891,-0.64 17.779,-0.921 17.253,-1.103M-34.339,10.157C-33.824,10.213 -33.33,9.926 -33.223,9.551C-33.149,9.297 -33.153,9.051 -33.477,8.856C-33.548,9.456 -33.691,9.977 -34.339,10.157M-31.199,3.431C-31.433,4.085 -31.658,4.718 -31.876,5.329C-31.411,5.312 -30.941,4.145 -31.199,3.431M-28.009,-5.794C-27.52,-5.936 -27.235,-6.376 -27.274,-6.958C-27.289,-7.175 -27.312,-7.404 -27.592,-7.4C-27.733,-6.854 -27.869,-6.332 -28.009,-5.794M19.172,5.081C19.33,4.212 18.985,3.546 18.412,3.545C18.488,3.771 18.557,3.994 18.638,4.212C18.718,4.431 18.798,4.653 18.904,4.86C18.947,4.944 19.061,4.992 19.172,5.081M19.426,8.052C19.114,8.167 18.79,8.285 18.37,8.44C18.987,8.736 19.502,8.984 20.089,9.266C19.852,8.831 19.661,8.484 19.426,8.052M-30.082,-0.086C-29.84,0.132 -29.67,-0.042 -29.539,-0.185C-29.155,-0.602 -28.908,-1.082 -29.055,-1.671C-29.112,-1.907 -29.282,-2.029 -29.549,-1.99C-29.501,-1.277 -29.295,-0.545 -30.082,-0.086M-26.142,-10.835C-26.131,-10.802 -26.12,-10.769 -26.108,-10.736C-25.412,-10.644 -24.638,-11.282 -24.53,-12.041C-24.396,-12.983 -24.859,-13.976 -25.727,-13.994C-25.477,-13.73 -25.28,-13.54 -25.105,-13.331C-25.008,-13.215 -24.918,-13.078 -24.874,-12.935C-24.72,-12.425 -24.776,-11.913 -25.037,-11.464C-25.149,-11.269 -25.419,-11.157 -25.633,-11.034C-25.789,-10.945 -25.971,-10.9 -26.142,-10.835M-38.245,6.061C-38.155,5.731 -38.078,5.447 -37.975,5.063C-38.76,5.267 -39.488,5.456 -40.218,5.645C-40.213,5.682 -40.208,5.719 -40.203,5.756C-39.553,5.857 -38.903,5.958 -38.245,6.061M3.283,2.756C3.247,2.699 3.211,2.643 3.175,2.587C3.039,2.648 2.881,2.682 2.771,2.775C2.236,3.232 2.046,4.084 2.311,4.734C2.488,5.171 2.823,5.41 3.275,5.491C3.628,5.555 3.78,5.424 3.818,5.006C3.701,5.031 3.599,5.058 3.495,5.076C3.359,5.1 3.214,5.157 3.088,5.13C2.703,5.047 2.488,4.764 2.422,4.398C2.354,4.022 2.354,3.648 2.686,3.357C2.897,3.171 3.085,2.957 3.283,2.756M6.875,16.713C6.509,16.582 6.19,16.728 6.113,17.141C6.051,17.477 6.041,17.846 6.112,18.178C6.229,18.718 6.852,19.088 7.331,18.974C7.724,18.881 7.858,18.553 7.646,18.208C7.337,18.665 7.08,18.691 6.656,18.308C6.044,17.756 6.126,17.163 6.875,16.713M0.364,-5.555C0.021,-5.83 -0.281,-5.823 -0.556,-5.595C-1.314,-4.964 -1.275,-3.315 -0.494,-2.72C-0.136,-2.448 0.336,-2.61 0.413,-3.035C0.423,-3.089 0.409,-3.17 0.373,-3.201C0.344,-3.227 0.253,-3.217 0.212,-3.189C-0.197,-2.91 -0.46,-2.962 -0.712,-3.38C-0.944,-3.765 -0.909,-4.789 -0.636,-5.139C-0.572,-5.221 -0.452,-5.268 -0.349,-5.308C-0.114,-5.398 0.126,-5.474 0.364,-5.555M19.758,8.052C20.052,8.544 20.32,9.001 20.6,9.45C20.624,9.49 20.715,9.51 20.771,9.506C20.988,9.489 21.203,9.457 21.416,9.432C21.336,8.447 20.555,7.853 19.758,8.052M1.474,-1.363C0.907,-1.3 0.646,-1.035 0.524,-0.507C0.378,0.124 0.515,0.702 0.825,1.252C1.045,1.638 1.427,1.799 1.732,1.638C1.982,1.507 2.033,1.168 1.853,0.709C1.774,0.81 1.725,0.934 1.637,0.974C1.501,1.035 1.314,1.105 1.193,1.058C0.707,0.87 0.512,-0.068 0.836,-0.468C1.053,-0.736 1.238,-1.03 1.474,-1.363M16.588,3.869C17.495,4.761 17.931,4.996 18.56,4.932C18.407,4.451 18.258,3.975 18.086,3.43C17.592,3.575 17.106,3.717 16.588,3.869M-30.562,-16.085C-30.434,-16.549 -30.328,-16.929 -30.215,-17.337C-31.215,-17.41 -32.138,-17.372 -33.089,-16.877C-32.224,-16.606 -31.425,-16.356 -30.562,-16.085M6.319,12.035C5.948,11.76 5.697,11.808 5.458,12.034C4.931,12.533 4.752,13.455 5.038,14.171C5.182,14.528 5.577,14.676 6.034,14.59C6.427,14.516 6.646,14.278 6.668,13.934C6.477,14.01 6.249,14.193 6.073,14.153C5.672,14.061 5.545,13.685 5.481,13.313C5.426,12.988 5.549,12.738 5.813,12.534C5.994,12.396 6.142,12.214 6.319,12.035M-24.842,-17.177C-24.846,-17.132 -24.85,-17.086 -24.854,-17.04C-24.446,-16.593 -23.996,-16.451 -23.583,-16.628C-22.866,-16.934 -22.619,-17.536 -22.572,-18.251C-22.527,-18.945 -22.879,-19.442 -23.434,-19.806C-23.55,-19.883 -23.72,-19.879 -23.865,-19.912C-23.894,-19.867 -23.923,-19.822 -23.952,-19.776C-23.74,-19.497 -23.505,-19.233 -23.323,-18.936C-23.174,-18.69 -23.01,-18.41 -22.989,-18.135C-22.938,-17.432 -23.646,-16.868 -24.22,-17.083C-24.412,-17.156 -24.634,-17.148 -24.842,-17.177M-32.568,5.562L-32.583,5.688C-32.211,6.075 -31.938,6.141 -31.469,5.96C-30.675,5.654 -29.989,4.499 -30.103,3.657C-30.193,2.978 -30.854,2.541 -31.432,2.816C-31.342,2.901 -31.274,3.018 -31.181,3.045C-30.801,3.155 -30.721,3.447 -30.727,3.773C-30.736,4.378 -30.964,4.916 -31.315,5.396C-31.496,5.643 -31.744,5.752 -32.069,5.624C-32.22,5.565 -32.401,5.581 -32.568,5.562M5.245,9.637C5.071,9.589 4.896,9.48 4.758,9.514C4.384,9.608 4.243,9.378 4.147,9.119C3.974,8.646 3.966,8.184 4.305,7.752C4.453,7.563 4.542,7.328 4.658,7.114L4.579,7.005C4.382,7.117 4.104,7.18 4.005,7.35C3.759,7.768 3.543,8.219 3.408,8.685C3.162,9.534 4.047,10.189 4.704,10.167C5.003,10.158 5.243,10.064 5.245,9.637M-38.558,-11.018C-38.202,-10.756 -37.833,-10.484 -37.483,-10.226C-37.215,-10.873 -36.971,-11.463 -36.716,-12.076C-37.23,-12.2 -37.706,-12.315 -38.164,-12.425C-38.298,-11.948 -38.423,-11.499 -38.558,-11.018M-38.864,-5.173C-38.644,-5.8 -38.437,-6.389 -38.228,-6.985C-38.643,-7.141 -39.089,-7.309 -39.556,-7.485C-39.714,-6.947 -39.87,-6.416 -40.031,-5.867C-39.632,-5.63 -39.233,-5.393 -38.864,-5.173M-32.51,-10.123C-33.519,-9.841 -34.543,-9.739 -35.392,-9.058C-35.298,-8.96 -35.216,-8.905 -35.179,-8.828C-35.008,-8.469 -34.747,-8.476 -34.408,-8.571C-33.985,-8.689 -33.544,-8.741 -33.113,-8.836C-33.013,-8.858 -32.866,-8.916 -32.84,-8.991C-32.716,-9.341 -32.628,-9.703 -32.51,-10.123M-36.924,-3.815C-36.62,-3.599 -36.349,-3.274 -36.026,-3.214C-35.635,-3.139 -35.201,-3.286 -34.786,-3.344C-34.763,-3.347 -34.742,-3.406 -34.729,-3.441C-34.569,-3.891 -34.411,-4.341 -34.25,-4.797C-34.901,-4.821 -36.189,-4.349 -36.924,-3.815M-33.442,8.162C-33.408,8.408 -33.44,8.588 -33.176,8.73C-32.999,8.825 -32.859,9.113 -32.83,9.331C-32.757,9.871 -33.288,10.447 -33.938,10.597C-34.272,10.674 -34.58,10.673 -34.791,10.322C-34.832,10.256 -35,10.207 -35.076,10.237C-35.15,10.265 -35.225,10.405 -35.224,10.496C-35.224,10.842 -35.012,11.097 -34.696,11.123C-34.282,11.158 -33.839,11.146 -33.441,11.034C-32.795,10.851 -32.271,10.003 -32.296,9.33C-32.316,8.763 -32.685,8.373 -33.442,8.162M-41.64,0.574C-41.294,-0.388 -40.536,-0.964 -39.766,-1.601C-40.369,-1.868 -40.918,-2.112 -41.441,-2.344C-41.706,-1.483 -41.957,-0.671 -42.217,0.173C-42.041,0.296 -41.853,0.426 -41.64,0.574M-28.887,-5.231C-28.517,-4.838 -27.65,-4.883 -27.002,-5.305C-26.259,-5.789 -25.964,-6.543 -26.271,-7.204C-26.531,-7.766 -27.347,-8.572 -27.979,-8.262C-27.71,-8.063 -27.471,-7.899 -27.248,-7.715C-27.152,-7.635 -27.062,-7.524 -27.022,-7.408C-26.818,-6.821 -26.921,-6.271 -27.324,-5.805C-27.448,-5.663 -27.711,-5.498 -27.852,-5.539C-28.281,-5.666 -28.564,-5.448 -28.887,-5.231M14.164,-0.763C14.162,-0.715 14.16,-0.667 14.157,-0.619C15.128,-0.223 15.953,0.684 17.183,0.18C17.131,-0.162 17.045,-0.52 17.031,-0.881C17.021,-1.173 16.901,-1.256 16.646,-1.211C15.818,-1.065 14.992,-0.913 14.164,-0.763M16.322,-8.437C16.322,-8.792 16.331,-9.157 16.321,-9.52C16.3,-10.345 15.956,-10.545 15.222,-10.157C14.855,-9.964 14.502,-9.745 14.12,-9.525C14.176,-9.379 14.254,-9.215 14.302,-9.043C14.391,-8.721 14.579,-8.602 14.921,-8.595C15.372,-8.585 15.821,-8.498 16.322,-8.437M17.166,11.07C17.155,11.032 17.145,10.994 17.134,10.956C15.102,10.534 13.07,10.112 11.018,9.685C11.19,10.08 11.352,10.447 11.52,10.829C11.676,10.829 11.832,10.82 11.986,10.831C13.48,10.936 14.974,11.051 16.468,11.148C16.698,11.162 16.934,11.097 17.166,11.07M-30.936,-0.121C-30.913,0.753 -30.444,1.061 -29.722,0.83C-29.145,0.647 -28.683,0.292 -28.318,-0.183C-27.868,-0.769 -27.842,-1.631 -28.235,-2.159C-28.628,-2.685 -29.385,-2.874 -30.188,-2.566C-29.899,-2.465 -29.712,-2.36 -29.517,-2.338C-29.021,-2.282 -28.679,-1.942 -28.67,-1.438C-28.659,-0.813 -28.936,-0.303 -29.348,0.135C-29.632,0.436 -30.059,0.418 -30.375,0.173C-30.539,0.046 -30.747,-0.025 -30.936,-0.121M-36.229,0.326C-37.742,0.432 -39.112,0.714 -40.256,1.69C-39.992,2.063 -39.714,2.176 -39.253,2.031C-38.502,1.794 -37.718,1.666 -36.949,1.482C-36.837,1.454 -36.686,1.398 -36.642,1.31C-36.491,1.015 -36.381,0.698 -36.229,0.326M1.651,-12.128C2.602,-12.686 3.612,-13.048 4.666,-13.307C4.761,-13.33 4.869,-13.42 4.914,-13.508C5.374,-14.414 5.229,-15.336 4.982,-16.374C4.214,-14.598 2.861,-13.422 1.651,-12.128M7.613,0.909C7.79,1.799 7.927,1.93 8.789,2.01C9.062,2.035 9.336,2.06 9.608,2.048C10.362,2.016 11.115,1.935 11.868,1.933C12.253,1.932 12.541,1.814 12.795,1.57C11.122,0.901 9.362,0.953 7.613,0.909M29.656,18.114C29.241,17.732 28.771,17.305 28.307,16.871C28.043,16.625 27.82,16.324 27.528,16.122C26.813,15.626 25.991,15.373 25.145,15.205C24.8,15.136 24.449,15.1 24.092,15.048C25.625,16.764 27.566,17.654 29.656,18.114M16.416,-3.991C16.437,-4.405 16.44,-4.728 16.476,-5.049C16.503,-5.298 16.404,-5.434 16.185,-5.527C15.42,-5.848 14.622,-6.009 13.795,-6.005C13.404,-6.003 13.015,-5.96 12.615,-5.934C13.17,-5.315 13.671,-4.741 14.191,-4.185C14.285,-4.084 14.454,-4.004 14.591,-4C15.198,-3.98 15.807,-3.991 16.416,-3.991M14.451,6.298C12.737,5.563 11.064,4.93 9.21,4.869C9.378,5.389 9.542,5.855 9.676,6.329C9.748,6.589 9.89,6.667 10.149,6.672C10.905,6.687 11.675,6.647 12.41,6.783C13.175,6.925 13.774,6.655 14.451,6.298M-35.19,-13.621C-36.395,-14.069 -37.406,-14.909 -38.203,-16.04C-38.412,-15.438 -38.606,-14.903 -38.784,-14.361C-39.039,-13.584 -38.822,-13.105 -38.052,-12.818C-37.615,-12.654 -37.157,-12.544 -36.704,-12.429C-36.614,-12.407 -36.475,-12.445 -36.403,-12.507C-35.992,-12.869 -35.595,-13.246 -35.19,-13.621M-46.903,6.861C-48.917,9.016 -51.298,10.801 -53.033,13.273C-52.49,13.158 -52.006,13.072 -51.533,12.945C-51.386,12.905 -51.244,12.772 -51.142,12.648C-50.637,12.039 -50.153,11.411 -49.646,10.803C-48.815,9.805 -47.982,8.807 -47.125,7.832C-46.902,7.58 -46.585,7.412 -46.293,7.191C-46.506,7.076 -46.688,6.977 -46.903,6.861M10.898,-3.083C8.961,-3.794 7.009,-4.223 5.013,-4.461L4.934,-4.351C5.336,-3.65 5.737,-2.948 6.132,-2.26C7.766,-2.179 9.374,-2.177 10.898,-3.083M-40.092,2.274C-41.072,1.588 -41.981,0.945 -42.899,0.317C-43.123,0.163 -43.399,0.16 -43.581,0.369C-43.866,0.7 -44.139,1.051 -44.355,1.428C-44.572,1.805 -44.531,2.207 -44.252,2.562C-44.011,2.869 -43.763,3.171 -43.526,3.482C-43.402,3.645 -43.291,3.657 -43.101,3.563C-42.473,3.253 -41.834,2.963 -41.192,2.682C-40.863,2.538 -40.518,2.43 -40.092,2.274M-35.431,-8.437C-36.517,-9.402 -38.082,-9.731 -38.986,-11.021C-39.116,-10.875 -39.231,-10.802 -39.264,-10.701C-39.479,-10.025 -39.703,-9.349 -39.861,-8.659C-39.896,-8.504 -39.727,-8.22 -39.571,-8.121C-39.202,-7.886 -38.769,-7.753 -38.392,-7.527C-38.018,-7.302 -37.757,-7.371 -37.384,-7.59C-36.785,-7.94 -36.107,-8.153 -35.431,-8.437M13.769,14.071C13.743,14.018 13.719,13.967 13.694,13.915C13.063,13.859 12.432,13.801 11.8,13.749C11.752,13.745 11.696,13.766 11.652,13.79C11.149,14.063 10.64,14.322 10.15,14.616C9.516,14.998 8.896,15.405 8.275,15.809C7.755,16.148 7.31,16.569 7.075,17.156C7.016,17.305 7.029,17.58 7.127,17.672C7.263,17.798 7.508,17.842 7.71,17.852C7.833,17.859 7.971,17.748 8.089,17.67C8.51,17.387 8.92,17.088 9.345,16.811C10.347,16.159 11.354,15.514 12.36,14.871C12.491,14.787 12.642,14.737 12.775,14.659C13.108,14.467 13.438,14.267 13.769,14.071M-36.551,-2.998C-36.595,-3.038 -36.645,-3.097 -36.707,-3.137C-37.843,-3.866 -38.978,-4.596 -40.117,-5.319C-40.553,-5.595 -40.736,-5.554 -40.994,-5.095C-41.236,-4.666 -41.427,-4.208 -41.661,-3.773C-41.802,-3.511 -41.781,-3.284 -41.549,-3.118C-41.234,-2.893 -40.896,-2.701 -40.567,-2.496C-40.202,-2.269 -39.836,-2.044 -39.473,-1.819C-38.553,-2.19 -37.556,-2.592 -36.551,-2.998M19.448,4.2C19.495,4.198 19.542,4.196 19.588,4.194C19.597,3.767 19.659,3.334 19.604,2.915C19.437,1.639 18.571,0.613 17.141,0.873C16.136,1.056 15.143,1.311 14.15,1.562C13.734,1.667 13.336,1.846 12.975,1.976C13.855,2.442 14.74,2.903 15.617,3.378C15.8,3.477 15.93,3.495 16.144,3.414C16.71,3.198 17.293,2.996 17.888,2.891C18.597,2.766 19.088,3.129 19.313,3.813C19.356,3.943 19.403,4.071 19.448,4.2M21.593,8.822C21.617,8.698 21.644,8.617 21.65,8.533C21.767,7.075 20.775,5.481 18.789,5.615C17.128,5.728 15.652,6.471 14.024,6.949C14.571,7.113 15.045,7.248 15.514,7.397C15.984,7.547 16.463,7.681 16.914,7.876C17.424,8.096 17.896,8.165 18.363,7.797C18.422,7.751 18.505,7.735 18.578,7.706C20.056,7.111 20.862,7.399 21.593,8.822M24.728,12.425C24.762,12.409 24.795,12.395 24.829,12.38C24.611,12.004 24.416,11.613 24.173,11.253C23.61,10.423 22.844,9.929 21.81,9.989C21.292,10.02 20.759,10.054 20.27,10.206C19.216,10.533 18.186,10.937 17.142,11.312C17.47,11.55 17.756,11.776 18.061,11.971C18.266,12.102 18.489,12.251 18.721,12.284C19.416,12.386 20.118,12.439 20.819,12.499C20.927,12.509 21.05,12.474 21.149,12.426C21.511,12.251 21.857,12.042 22.225,11.881C23.207,11.452 24.007,11.633 24.728,12.425M8.869,-7.3C8.884,-7.276 8.897,-7.253 8.912,-7.229C9.911,-6.9 10.909,-6.57 11.909,-6.244C12.039,-6.201 12.194,-6.118 12.306,-6.155C13.108,-6.415 13.932,-6.408 14.744,-6.303C16.015,-6.137 17.239,-5.85 17.629,-4.287C17.87,-5.197 17.812,-6.028 17.466,-6.826C17.272,-7.27 16.923,-7.605 16.457,-7.756C16.052,-7.887 15.62,-8.049 15.209,-8.027C13.911,-7.959 12.615,-7.831 11.323,-7.687C10.501,-7.595 9.687,-7.431 8.869,-7.3M18.148,-0.411L18.235,-0.411C18.277,-0.861 18.357,-1.312 18.353,-1.761C18.343,-2.628 17.878,-3.253 17.026,-3.406C16.423,-3.514 15.768,-3.546 15.169,-3.433C13.716,-3.157 12.279,-2.787 10.842,-2.433C10.438,-2.334 10.056,-2.157 9.619,-1.999C10.797,-1.758 11.907,-1.546 13.01,-1.298C13.484,-1.191 13.928,-1.233 14.393,-1.342C15.061,-1.498 15.736,-1.649 16.418,-1.715C17.012,-1.772 17.607,-1.669 17.937,-1.065C18.046,-0.868 18.08,-0.631 18.148,-0.411M-0.951,23.598C-0.906,23.582 -0.86,23.565 -0.815,23.549C-0.937,23.323 -1.038,23.084 -1.185,22.877C-1.378,22.601 -1.596,22.34 -1.824,22.092C-2.361,21.51 -2.826,20.811 -3.47,20.39C-5.231,19.239 -7.023,18.122 -9.09,17.544C-10.167,17.243 -11.237,16.883 -12.076,16.076C-12.302,15.859 -12.523,15.635 -12.771,15.39C-12.353,16.793 -11.39,17.66 -10.182,18.31C-9.402,18.729 -8.615,19.136 -7.849,19.577C-6.293,20.474 -4.799,21.482 -3.106,22.126C-2.273,22.442 -1.472,22.817 -0.951,23.598M-30.93,-25.99C-32.429,-26.448 -33.277,-26.172 -34.104,-24.977C-34.287,-24.711 -34.471,-24.432 -34.587,-24.133C-35.218,-22.51 -35.828,-20.879 -36.439,-19.249C-36.461,-19.191 -36.447,-19.084 -36.406,-19.043C-36.127,-18.765 -35.837,-18.499 -35.495,-18.177C-35.255,-19.135 -34.667,-19.674 -33.914,-20.071C-33.841,-20.11 -33.771,-20.183 -33.734,-20.258C-33.502,-20.722 -33.264,-21.185 -33.054,-21.659C-32.409,-23.118 -31.975,-24.678 -30.93,-25.99M27.714,15.671C27.357,15.261 26.998,14.853 26.644,14.442C25.779,13.444 24.702,12.966 23.37,12.997C21.819,13.034 20.268,13.009 18.716,13.013C17.546,13.016 16.409,13.202 15.319,13.645C14.406,14.015 13.709,14.641 13.053,15.509C13.229,15.434 13.296,15.405 13.363,15.377C14.774,14.791 16.221,14.43 17.772,14.557C18.978,14.655 20.188,14.701 21.397,14.726C21.914,14.736 22.434,14.59 22.952,14.587C24.608,14.578 26.162,15.029 27.714,15.671M18.075,12.494C17.54,11.989 16.981,11.593 16.289,11.547C14.642,11.434 12.991,11.338 11.341,11.312C10.066,11.292 8.786,11.343 7.517,11.448C6.642,11.522 6.321,12.251 6.322,12.977C6.324,13.404 6.67,13.717 7.126,13.719C7.446,13.72 7.78,13.683 8.084,13.587C8.912,13.324 9.743,13.163 10.616,13.25C11.561,13.345 12.507,13.413 13.451,13.5C13.592,13.513 13.727,13.589 13.867,13.599C14.019,13.611 14.202,13.629 14.321,13.558C15.069,13.112 15.877,12.838 16.729,12.687C17.158,12.612 17.593,12.562 18.075,12.494M-36.953,-21.044C-36.988,-21.079 -37.023,-21.114 -37.059,-21.148C-37.326,-20.882 -37.675,-20.66 -37.849,-20.342C-38.351,-19.422 -38.536,-18.411 -38.219,-17.397C-37.732,-15.844 -36.625,-14.837 -35.153,-14.215C-34.764,-14.051 -34.328,-13.811 -33.942,-13.855C-32.979,-13.966 -32.032,-14.22 -31.094,-14.414C-30.982,-14.832 -30.87,-15.253 -30.787,-15.563C-31.987,-16.045 -33.198,-16.457 -34.336,-17.016C-35.12,-17.401 -35.849,-17.938 -36.521,-18.503C-37.396,-19.238 -37.508,-20.163 -36.953,-21.044M-33.055,-20.44C-32.721,-20.547 -32.505,-20.629 -32.282,-20.685C-31.299,-20.933 -30.32,-21.203 -29.326,-21.399C-28.999,-21.464 -28.863,-21.578 -28.779,-21.876C-28.604,-22.501 -28.446,-23.138 -28.191,-23.731C-27.611,-25.079 -26.626,-25.984 -25.147,-26.271C-24.778,-26.343 -24.404,-26.388 -23.939,-26.46C-24.143,-26.559 -24.252,-26.626 -24.371,-26.668C-25.82,-27.176 -27.296,-27.137 -28.755,-26.772C-30.011,-26.457 -30.775,-25.506 -31.312,-24.407C-31.929,-23.149 -32.445,-21.841 -33.055,-20.44M-40.563,1.365C-39.779,0.58 -39.118,0.156 -38.111,-0.029C-35.93,-0.429 -33.733,-0.689 -31.508,-0.437C-31.16,-0.398 -30.808,-0.385 -30.457,-0.374C-30.07,-0.363 -29.897,-0.6 -29.849,-0.949C-29.745,-1.679 -30.132,-2.279 -30.88,-2.467C-31.421,-2.602 -31.977,-2.69 -32.53,-2.761C-35.14,-3.098 -37.539,-2.488 -39.748,-1.099C-40.453,-0.656 -41.041,-0.067 -41.573,0.604C-41.223,0.868 -40.903,1.109 -40.563,1.365M15.511,0.565C14.716,0.155 13.978,-0.221 13.244,-0.606C12.325,-1.088 11.306,-1.196 10.311,-1.378C8.028,-1.794 5.718,-1.801 3.409,-1.78C3.027,-1.776 2.631,-1.681 2.27,-1.552C1.567,-1.301 1.18,-0.548 1.32,0.186C1.394,0.568 1.518,0.618 1.885,0.505C3.192,0.103 4.519,-0.087 5.892,0.143C6.802,0.295 7.721,0.469 8.638,0.48C10.206,0.499 11.721,0.757 13.218,1.184C13.348,1.222 13.507,1.253 13.628,1.214C14.233,1.021 14.83,0.802 15.511,0.565M14.179,-3.878C13.952,-4.092 13.76,-4.303 13.539,-4.477C13.004,-4.899 12.51,-5.427 11.902,-5.692C10.616,-6.254 9.271,-6.723 7.843,-6.731C6.965,-6.737 6.042,-6.743 5.22,-6.49C4.233,-6.186 3.261,-5.893 2.239,-5.747C1.454,-5.634 0.727,-5.359 0.144,-4.79C-0.067,-4.585 -0.168,-4.352 -0.052,-4.05C0.065,-3.742 0.305,-3.562 0.602,-3.587C0.966,-3.617 1.38,-3.661 1.673,-3.852C2.999,-4.718 4.456,-4.958 5.976,-4.754C7.223,-4.586 8.458,-4.304 9.684,-4.012C10.26,-3.874 10.814,-3.621 11.354,-3.366C11.611,-3.244 11.831,-3.213 12.092,-3.289C12.766,-3.484 13.442,-3.671 14.179,-3.878M-35.24,9.817C-34.092,9.86 -33.579,9.293 -33.724,8.459C-33.756,8.27 -33.868,8.046 -34.017,7.937C-34.317,7.718 -34.649,7.506 -35.002,7.403C-35.936,7.128 -36.883,6.89 -37.834,6.68C-38.835,6.459 -39.849,6.294 -40.854,6.092C-41.438,5.974 -42.011,5.787 -42.599,5.711C-43.254,5.625 -43.853,5.466 -44.427,5.112C-45.251,4.605 -46.222,4.938 -46.678,5.798C-46.851,6.124 -46.791,6.396 -46.481,6.563C-46.2,6.714 -45.891,6.853 -45.579,6.901C-44.624,7.046 -43.693,7.259 -42.791,7.614C-42.433,7.754 -42.04,7.84 -41.656,7.875C-40.803,7.952 -40.059,8.286 -39.321,8.695C-38.92,8.917 -38.457,9.036 -38.013,9.172C-37.704,9.267 -37.378,9.307 -37.063,9.382C-36.354,9.547 -35.648,9.718 -35.24,9.817M-38.634,-5.065C-38.267,-4.836 -37.9,-4.653 -37.592,-4.4C-37.349,-4.202 -37.172,-4.243 -36.938,-4.375C-36.462,-4.642 -35.998,-4.956 -35.487,-5.13C-34.202,-5.567 -32.864,-5.614 -31.513,-5.576C-30.647,-5.552 -29.775,-5.626 -28.911,-5.709C-28.505,-5.748 -28.241,-6.042 -28.175,-6.466C-28.125,-6.787 -28.097,-7.113 -28.039,-7.432C-27.97,-7.814 -28.131,-8.04 -28.488,-8.128C-29.043,-8.264 -29.597,-8.417 -30.16,-8.504C-31.538,-8.716 -32.888,-8.472 -34.226,-8.167C-34.872,-8.019 -35.511,-7.836 -36.154,-7.677C-37.522,-7.34 -38.219,-6.366 -38.634,-5.065M-28.678,-18.032C-27.773,-17.927 -27.079,-17.824 -26.38,-17.772C-25.828,-17.731 -25.264,-17.692 -24.721,-17.767C-24.231,-17.836 -23.942,-18.285 -23.903,-18.785C-23.86,-19.332 -24.093,-19.813 -24.566,-19.998C-25.818,-20.487 -27.098,-20.922 -28.462,-20.869C-30.234,-20.8 -31.91,-20.254 -33.564,-19.664C-34.078,-19.481 -34.537,-19.157 -34.829,-18.663C-35.202,-18.03 -35.177,-18.018 -34.571,-17.632C-33.964,-17.244 -33.425,-17.199 -32.678,-17.399C-31.321,-17.762 -29.892,-17.854 -28.678,-18.032M-44.125,4.637C-44.116,4.708 -44.107,4.779 -44.1,4.849C-43.587,4.961 -43.076,5.082 -42.562,5.18C-42.294,5.231 -42.008,5.203 -41.75,5.28C-41.323,5.406 -40.939,5.314 -40.532,5.193C-39.749,4.96 -38.965,4.673 -38.161,4.58C-36.665,4.408 -35.207,4.702 -33.804,5.242C-33.228,5.464 -32.654,5.505 -32.218,5.012C-32.008,4.775 -31.92,4.417 -31.814,4.101C-31.528,3.245 -31.677,2.922 -32.478,2.502C-33.485,1.972 -34.561,1.761 -35.687,1.817C-38.172,1.94 -40.473,2.739 -42.697,3.79C-43.195,4.026 -43.65,4.352 -44.125,4.637M17.444,5.203C17.345,5.113 17.295,5.051 17.231,5.013C16.008,4.277 14.786,3.537 13.556,2.814C12.93,2.446 12.228,2.315 11.521,2.403C10.095,2.58 8.688,2.462 7.28,2.249C6.229,2.091 5.177,2.063 4.15,2.413C3.434,2.659 3.17,3.157 3.343,3.919C3.482,4.537 3.901,4.777 4.646,4.689C5.72,4.563 6.791,4.393 7.868,4.344C9.873,4.254 11.806,4.626 13.629,5.485C14.261,5.782 14.906,5.947 15.592,5.766C16.193,5.609 16.782,5.406 17.444,5.203M-35.952,-9.381C-35.581,-9.603 -35.29,-9.843 -34.957,-9.963C-34.262,-10.214 -33.552,-10.438 -32.832,-10.607C-31.546,-10.909 -30.233,-10.977 -28.914,-10.994C-28.188,-11.004 -27.454,-11.053 -26.742,-11.183C-25.932,-11.333 -25.492,-12.136 -25.614,-13.06C-25.702,-13.728 -26.123,-14.013 -27.025,-14.018C-27.064,-14.019 -27.104,-14.015 -27.143,-14.014C-29.541,-13.937 -31.923,-13.751 -34.267,-13.178C-35.259,-12.935 -35.954,-12.411 -36.34,-11.47C-36.434,-11.241 -36.54,-11.017 -36.625,-10.785C-36.938,-9.925 -36.937,-9.924 -36.147,-9.483C-36.068,-9.439 -35.987,-9.399 -35.952,-9.381M19.993,9.683C19.635,9.531 19.326,9.427 19.043,9.276C17.213,8.298 15.286,7.596 13.219,7.383C11.069,7.161 8.912,7.01 6.756,6.873C6.263,6.842 5.742,6.935 5.264,7.072C4.758,7.218 4.481,7.832 4.534,8.452C4.579,8.971 4.905,9.364 5.489,9.417C6.064,9.47 6.671,9.492 7.228,9.367C8.649,9.048 10.067,8.96 11.488,9.264C13.103,9.611 14.698,10.049 16.315,10.38C16.886,10.497 17.468,10.773 18.096,10.454C18.685,10.155 19.321,9.951 19.993,9.683M-21.408,17.581C-21.279,17.396 -21.189,17.284 -21.119,17.161C-20.099,15.39 -19.077,13.619 -18.062,11.845C-16.881,9.784 -15.595,7.79 -14.075,5.965C-12.842,4.483 -11.552,3.049 -10.243,1.634C-9.457,0.784 -8.6,0.003 -7.57,-0.568C-7.238,-0.752 -6.896,-0.983 -6.667,-1.277C-6.144,-1.954 -5.666,-2.671 -5.207,-3.395C-4.378,-4.702 -3.586,-6.033 -2.757,-7.34C-2.503,-7.741 -2.181,-8.099 -1.89,-8.476C-2.433,-8.1 -2.945,-7.701 -3.451,-7.294C-5.311,-5.797 -7.105,-4.227 -8.713,-2.46C-10.759,-0.211 -12.541,2.255 -14.251,4.755C-15.807,7.029 -17.12,9.469 -18.504,11.858C-19.438,13.469 -20.271,15.141 -21.597,16.489C-21.646,16.539 -21.674,16.647 -21.657,16.714C-21.595,16.977 -21.51,17.235 -21.408,17.581M-1.178,22.184C-1.159,22.181 -1.142,22.179 -1.123,22.176C-1.185,21.953 -1.224,21.72 -1.311,21.508C-1.609,20.779 -1.739,19.97 -2.305,19.364C-3.914,17.641 -5.537,15.927 -7.378,14.449C-8.513,13.537 -9.706,12.697 -10.902,11.865C-11.595,11.385 -12.351,10.997 -13.062,10.542C-13.241,10.426 -13.356,10.211 -13.502,10.042C-13.537,10.068 -13.571,10.093 -13.606,10.119C-13.504,11.037 -13.408,11.956 -13.294,12.872C-13.265,13.113 -13.207,13.358 -13.116,13.583C-12.456,15.233 -11.188,16.189 -9.528,16.687C-7.885,17.18 -6.329,17.856 -4.915,18.843C-4.063,19.436 -3.081,19.851 -2.389,20.66C-1.967,21.153 -1.58,21.675 -1.178,22.184M29.763,18.858C29.772,18.822 29.782,18.785 29.793,18.749C29.219,18.56 28.649,18.351 28.068,18.187C26.288,17.684 24.895,16.613 23.675,15.267C23.57,15.151 23.337,15.077 23.178,15.098C21.462,15.323 19.753,15.34 18.038,15.068C17.466,14.978 16.843,14.869 16.3,15.002C15.042,15.307 13.814,15.746 12.584,16.157C12.449,16.202 12.335,16.402 12.272,16.555C11.799,17.708 11.341,18.867 10.88,20.025C10.87,20.051 10.891,20.089 10.901,20.142C11.879,19.504 12.945,19.129 14.056,18.892C16.795,18.31 19.571,18.339 22.348,18.46C24.82,18.569 27.291,18.723 29.763,18.858M4.319,-6.781C4.734,-6.915 5.133,-7.114 5.549,-7.163C6.296,-7.252 7.055,-7.248 7.809,-7.289C7.945,-7.296 8.116,-7.289 8.211,-7.365C8.843,-7.867 9.594,-8.008 10.357,-8.116C11.541,-8.283 12.726,-8.445 13.911,-8.609C13.692,-9.588 12.847,-10.458 11.833,-10.699C11.23,-10.841 10.752,-11.123 10.411,-11.643C9.93,-12.38 9.208,-12.744 8.37,-12.889C6.006,-13.299 3.776,-12.918 1.726,-11.657C1.08,-11.261 0.544,-10.727 0.193,-9.992C0.3,-10.002 0.377,-10 0.448,-10.017C1.226,-10.202 1.885,-9.988 2.455,-9.444C3.254,-8.68 3.921,-7.825 4.319,-6.781M-50.594,12.748C-45.665,11.886 -41.331,13.343 -37.295,16.045C-37.335,15.901 -37.392,15.787 -37.451,15.676C-38.468,13.772 -39.076,11.764 -39.012,9.583C-39.009,9.507 -39.041,9.385 -39.095,9.359C-39.71,9.056 -40.314,8.715 -40.96,8.492C-41.557,8.285 -42.202,8.223 -42.821,8.075C-43.729,7.858 -44.638,7.644 -45.533,7.382C-45.981,7.25 -46.261,7.424 -46.566,7.7C-48.175,9.155 -49.252,11.033 -50.594,12.748M-20.432,-25.722C-19.42,-25.393 -18.403,-25.035 -17.371,-24.732C-15.775,-24.264 -14.151,-24.074 -12.513,-24.481C-10.23,-25.048 -9.285,-25.983 -9.104,-28.149C-8.971,-29.722 -8.525,-31.209 -7.908,-32.657C-7.501,-33.615 -7.11,-34.585 -6.812,-35.58C-6.366,-37.074 -7.281,-38.219 -8.849,-38.169C-9.948,-38.133 -10.87,-37.613 -11.704,-36.938C-12.915,-35.956 -13.481,-34.604 -13.893,-33.147C-14.206,-32.035 -14.543,-30.922 -14.983,-29.857C-15.622,-28.317 -16.753,-27.195 -18.28,-26.515C-18.972,-26.207 -19.703,-25.988 -20.432,-25.722M7.271,24.188C7.297,24.196 7.331,24.211 7.368,24.217C9.212,24.529 11.069,24.642 12.937,24.558C14.068,24.508 15.201,24.447 16.331,24.364C18.968,24.17 21.611,23.992 24.187,23.362C26.245,22.858 28.285,22.275 30.317,21.675C30.813,21.528 31.292,21.231 31.703,20.907C32.156,20.551 32.061,20.199 31.525,19.975C31.37,19.91 31.206,19.85 31.041,19.829C29.983,19.693 28.927,19.518 27.863,19.452C25.796,19.323 23.724,19.233 21.652,19.172C19.151,19.099 16.647,19.07 14.179,19.595C12.952,19.856 11.806,20.307 10.838,21.12C9.644,22.123 8.472,23.153 7.271,24.188M-21.828,16.319C-21.73,16.215 -21.679,16.175 -21.647,16.122C-20.787,14.695 -19.916,13.273 -19.073,11.836C-17.933,9.892 -16.911,7.872 -15.663,6.001C-14.068,3.61 -12.344,1.3 -10.592,-0.981C-8.672,-3.482 -6.344,-5.591 -3.907,-7.582C-2.669,-8.594 -1.437,-9.616 -0.253,-10.69C0.507,-11.38 1.173,-12.172 1.883,-12.917C2.728,-13.802 3.628,-14.647 4.193,-15.753C4.523,-16.398 4.841,-17.073 4.518,-17.833C4.136,-18.73 3.757,-19.628 3.401,-20.47C2.985,-19.557 2.636,-18.564 2.109,-17.676C0.955,-15.729 -0.672,-14.178 -2.314,-12.645C-3.8,-11.259 -5.32,-9.899 -6.699,-8.411C-8.7,-6.252 -10.594,-3.995 -12.521,-1.769C-14.443,0.45 -16.164,2.822 -17.833,5.234C-19.455,7.577 -21.263,9.76 -23.39,11.666C-23.566,11.824 -23.593,11.954 -23.505,12.167C-22.948,13.527 -22.403,14.892 -21.828,16.319M-35.725,18.907C-35.921,18.228 -36.323,17.642 -36.965,17.076C-38.114,16.063 -39.459,15.377 -40.854,14.784C-42.635,14.028 -44.475,13.472 -46.414,13.299C-47.823,13.173 -49.226,13.257 -50.626,13.438C-51.464,13.547 -52.305,13.634 -53.142,13.746C-53.267,13.762 -53.421,13.825 -53.495,13.918C-54.283,14.905 -55.063,15.898 -55.835,16.897C-56.485,17.738 -57.008,18.643 -57.233,19.7C-57.546,21.168 -57.052,22.153 -55.678,22.754C-54.756,23.158 -53.78,23.302 -52.787,23.349C-49.951,23.484 -47.175,23.102 -44.438,22.375C-42.327,21.815 -40.325,20.97 -38.328,20.11C-37.457,19.734 -36.604,19.315 -35.725,18.907M-57.911,21.034C-57.945,21.038 -57.979,21.042 -58.014,21.046C-58.074,21.506 -58.161,21.965 -58.19,22.427C-58.359,25.089 -57.675,27.567 -56.479,29.912C-56.188,30.482 -55.78,31.017 -55.334,31.479C-54.445,32.401 -53.261,32.757 -52.034,32.79C-50.29,32.837 -48.538,32.801 -46.797,32.694C-44.286,32.541 -41.866,31.918 -39.492,31.1C-36.705,30.139 -34.007,28.994 -31.44,27.529C-27.527,25.295 -24.495,22.161 -21.979,18.476C-21.81,18.229 -21.746,17.989 -21.846,17.71C-22.325,16.363 -22.805,15.017 -23.285,13.671C-23.469,13.157 -23.657,12.646 -23.85,12.112C-24.148,12.352 -24.435,12.574 -24.712,12.806C-27.12,14.816 -29.715,16.553 -32.451,18.079C-35.047,19.527 -37.759,20.73 -40.497,21.883C-43.865,23.301 -47.383,23.994 -51.018,24.144C-52.494,24.205 -53.971,24.144 -55.387,23.667C-56.667,23.235 -57.713,22.533 -57.911,21.034M-1.23,20.59C-1.098,20.94 -0.914,21.28 -0.841,21.643C-0.603,22.829 -0.392,24.021 -0.192,25.214C0.098,26.953 0.457,28.669 1.269,30.255C1.931,31.548 2.879,32.537 4.21,33.167C5.456,33.757 6.774,34.037 8.129,34.149C10.467,34.342 12.806,34.558 15.148,34.644C17.035,34.714 18.937,34.709 20.815,34.549C22.953,34.367 25.076,33.995 27.2,33.67C29.558,33.309 31.876,32.764 34.143,32.016C35.397,31.602 36.189,30.745 36.445,29.444C36.624,28.537 36.772,27.623 36.883,26.705C37.15,24.481 36.563,22.521 34.984,20.898C34.36,20.257 33.629,19.79 32.72,19.604C32.884,20.696 32.516,21.444 31.555,21.952C31.211,22.134 30.849,22.292 30.479,22.405C29.682,22.648 28.865,22.828 28.073,23.082C25.924,23.769 23.738,24.299 21.504,24.609C20.382,24.765 19.249,24.843 18.119,24.941C15.325,25.182 12.527,25.378 9.72,25.227C7.479,25.106 5.302,24.692 3.261,23.705C1.604,22.904 0.131,21.847 -1.23,20.59M-3.805,-4.86C-4.105,-4.332 -4.351,-3.828 -4.665,-3.371C-5.119,-2.71 -5.568,-2.029 -6.12,-1.453C-6.829,-0.713 -7.696,-0.122 -8.393,0.63C-9.894,2.251 -11.333,3.93 -12.783,5.598C-12.896,5.727 -12.895,5.953 -12.948,6.134C-13.053,6.486 -13.076,6.898 -13.285,7.17C-13.494,7.444 -13.652,7.691 -13.662,8.028C-13.697,9.279 -13.095,10.153 -11.996,10.665C-9.181,11.977 -6.794,13.873 -4.597,16.029C-3.108,17.489 -1.668,18.996 -0.18,20.456C1.59,22.19 3.692,23.346 6.104,23.926C6.24,23.959 6.441,23.912 6.552,23.825C7.021,23.453 7.483,23.069 7.918,22.657C8.482,22.123 9.13,21.63 9.542,20.991C10.237,19.914 10.805,18.75 11.369,17.595C11.668,16.983 11.85,16.313 12.111,15.595C11.697,15.861 11.372,16.077 11.04,16.282C10.119,16.847 9.193,17.404 8.278,17.977C8.187,18.035 8.096,18.187 8.1,18.291C8.124,18.953 7.729,19.354 7.067,19.308C6.117,19.242 5.507,18.211 5.796,17.161C5.979,16.497 6.363,16.278 6.99,16.462C8.134,15.292 9.592,14.577 10.996,13.608C10.395,13.608 9.885,13.554 9.391,13.621C8.583,13.729 7.786,13.916 6.935,14.08C6.936,14.078 6.907,14.149 6.877,14.22C6.668,14.699 6.275,14.93 5.781,14.983C5.309,15.033 4.948,14.826 4.712,14.411C4.326,13.734 4.438,13.03 4.714,12.378C5.031,11.628 5.541,11.233 6.381,11.51C6.465,11.538 6.586,11.456 6.688,11.422C7.127,11.277 7.557,11.072 8.007,11.003C8.504,10.927 9.021,10.99 9.529,10.97C10.043,10.95 10.556,10.904 11.144,10.864C10.981,10.445 10.855,10.093 10.707,9.752C10.675,9.677 10.563,9.595 10.483,9.59C9.925,9.555 9.361,9.493 8.806,9.528C7.755,9.592 6.707,9.714 5.626,9.815C5.536,10.144 5.302,10.425 4.893,10.505C4.046,10.671 3.019,9.814 3.063,8.947C3.099,8.239 3.357,7.598 3.882,7.097C4.115,6.873 4.383,6.729 4.732,6.867C4.817,6.9 4.944,6.854 5.044,6.822C5.325,6.729 5.598,6.564 5.884,6.536C6.451,6.48 7.027,6.471 7.598,6.489C8.18,6.508 8.76,6.581 9.402,6.636C9.255,6.158 9.102,5.757 9.011,5.342C8.915,4.907 8.693,4.743 8.25,4.786C6.942,4.914 5.632,5.019 4.321,5.133C4.085,5.801 3.688,6.051 3.048,5.881C2.501,5.735 2.085,5.392 1.923,4.838C1.676,3.989 1.9,3.237 2.513,2.611C2.77,2.348 3.083,2.251 3.399,2.502C4.691,1.593 6.143,1.83 7.586,1.87C7.491,1.539 7.412,1.239 7.316,0.945C7.298,0.888 7.218,0.827 7.156,0.813C6.013,0.539 4.863,0.306 3.676,0.448C3.242,0.5 2.811,0.562 2.371,0.62C2.382,0.754 2.39,0.83 2.395,0.907C2.428,1.452 2.229,1.85 1.842,2.018C1.442,2.191 1.001,2.043 0.636,1.614C0.076,0.955 -0.054,-0.261 0.377,-1.003C0.596,-1.38 0.894,-1.646 1.379,-1.639C1.569,-1.637 1.767,-1.717 1.95,-1.786C2.169,-1.868 2.369,-2.036 2.59,-2.065C3.285,-2.156 3.984,-2.208 4.684,-2.257C5.025,-2.28 5.37,-2.261 5.766,-2.261C5.378,-3.001 5.019,-3.687 4.65,-4.39C3.867,-4.395 3.053,-4.179 2.372,-3.812C1.885,-3.55 1.38,-3.319 0.812,-3.039C0.826,-3.085 0.807,-3.024 0.789,-2.962C0.533,-2.06 -0.227,-1.855 -0.893,-2.507C-1.681,-3.278 -1.74,-4.86 -1.002,-5.664C-0.667,-6.029 -0.23,-6.329 0.237,-6.059C0.658,-5.816 0.977,-5.898 1.349,-6.065C1.465,-6.118 1.598,-6.136 1.726,-6.162C2.396,-6.299 3.067,-6.434 3.778,-6.577C3.724,-6.789 3.695,-6.955 3.639,-7.11C3.377,-7.832 2.848,-8.354 2.318,-8.88C1.475,-9.717 0.659,-9.96 -0.592,-8.967C-1.285,-8.417 -1.887,-7.716 -2.411,-6.996C-2.928,-6.288 -3.613,-5.637 -3.702,-4.72C-3.694,-4.708 -3.729,-4.757 -3.805,-4.86M-7.627,-8.596C-7.511,-8.743 -7.426,-8.877 -7.316,-8.984C-6.197,-10.074 -5.096,-11.184 -3.946,-12.241C-2.17,-13.873 -0.348,-15.455 1.103,-17.406C2.033,-18.657 2.614,-20.073 3.082,-21.543C3.132,-21.699 3.135,-21.923 3.059,-22.059C1.767,-24.35 0.514,-26.666 -0.86,-28.908C-2.057,-30.861 -3.382,-32.736 -4.676,-34.628C-5.17,-35.351 -5.734,-36.027 -6.242,-36.694C-6.34,-36.129 -6.383,-35.553 -6.544,-35.013C-6.875,-33.907 -7.265,-32.818 -7.637,-31.725C-8.08,-30.424 -8.33,-29.089 -8.486,-27.723C-8.623,-26.528 -9.059,-25.445 -10.146,-24.758C-11.813,-23.704 -13.637,-23.464 -15.553,-23.735C-16.1,-23.812 -16.642,-23.928 -17.177,-24.024C-17.245,-23.886 -17.295,-23.786 -17.345,-23.685C-17.36,-23.689 -17.375,-23.693 -17.391,-23.696C-17.37,-23.817 -17.349,-23.938 -17.322,-24.088C-17.568,-24.155 -17.797,-24.218 -18.006,-24.275C-18.119,-24.072 -18.204,-23.919 -18.289,-23.765C-18.31,-23.776 -18.329,-23.786 -18.349,-23.797C-18.281,-23.971 -18.214,-24.146 -18.146,-24.324C-18.598,-24.483 -19.013,-24.63 -19.43,-24.773C-20.808,-25.247 -22.178,-25.768 -23.655,-25.836C-24.997,-25.898 -26.252,-25.589 -27.058,-24.455C-27.697,-23.554 -28.144,-22.516 -28.695,-21.502C-27.096,-21.466 -25.645,-21.12 -24.329,-20.293C-24.275,-20.259 -24.194,-20.267 -24.125,-20.261C-23.84,-20.234 -23.519,-20.286 -23.276,-20.171C-21.793,-19.466 -21.995,-17.653 -22.683,-16.788C-23.244,-16.082 -24.877,-15.878 -25.205,-17.011C-26.768,-17.322 -28.327,-17.451 -29.798,-17.331C-30.137,-16.317 -30.452,-15.372 -30.784,-14.379C-29.994,-14.446 -29.231,-14.51 -28.47,-14.575C-27.598,-14.652 -26.728,-14.719 -25.918,-14.266C-25.858,-14.233 -25.765,-14.221 -25.701,-14.242C-25.148,-14.429 -24.768,-14.159 -24.445,-13.765C-23.563,-12.689 -23.94,-10.96 -25.189,-10.36C-25.646,-10.141 -26.14,-10.077 -26.569,-10.376C-26.788,-10.528 -26.97,-10.566 -27.207,-10.528C-27.36,-10.503 -27.518,-10.497 -27.674,-10.491C-28.65,-10.453 -29.627,-10.429 -30.604,-10.377C-31.99,-10.303 -31.99,-10.294 -32.474,-9.03C-32.481,-9.009 -32.473,-8.981 -32.47,-8.937C-31.293,-9.062 -30.128,-8.975 -28.975,-8.729C-28.586,-8.647 -28.209,-8.387 -27.802,-8.68C-27.756,-8.713 -27.675,-8.703 -27.61,-8.702C-26.239,-8.668 -25.245,-6.928 -25.933,-5.749C-26.464,-4.837 -27.29,-4.457 -28.324,-4.498C-28.772,-4.516 -29.18,-4.624 -29.313,-5.045C-30.021,-5.021 -30.682,-4.988 -31.343,-4.978C-32.007,-4.968 -32.672,-4.988 -33.337,-4.976C-33.481,-4.973 -33.705,-4.933 -33.756,-4.838C-34.007,-4.365 -34.211,-3.869 -34.436,-3.373C-33.816,-3.338 -33.255,-3.331 -32.699,-3.268C-32.145,-3.205 -31.583,-3.132 -31.048,-2.98C-30.589,-2.849 -30.228,-2.758 -29.724,-2.995C-28.801,-3.431 -27.607,-2.504 -27.503,-1.424C-27.371,-0.063 -28.839,1.226 -29.762,1.356C-30.576,1.47 -31.159,1.043 -31.302,0.226C-31.316,0.139 -31.335,0.053 -31.354,-0.042C-31.448,-0.047 -31.526,-0.059 -31.603,-0.053C-32.954,0.052 -34.305,0.157 -35.655,0.271C-35.729,0.277 -35.835,0.337 -35.863,0.4C-36.008,0.715 -36.131,1.038 -36.266,1.369C-36.091,1.369 -35.936,1.373 -35.781,1.368C-34.429,1.324 -33.128,1.484 -31.978,2.29C-31.887,2.354 -31.712,2.343 -31.591,2.311C-30.728,2.087 -29.824,2.671 -29.702,3.543C-29.56,4.572 -30.213,5.815 -31.146,6.285C-31.812,6.622 -32.436,6.452 -32.838,5.837C-32.885,5.765 -32.983,5.695 -33.067,5.681C-34.197,5.508 -35.327,5.338 -36.458,5.179C-37.517,5.03 -37.517,5.036 -37.917,6.011C-37.927,6.035 -37.927,6.062 -37.94,6.135C-37.271,6.284 -36.6,6.426 -35.932,6.585C-35.053,6.796 -34.187,7.033 -33.605,7.817C-33.561,7.877 -33.424,7.884 -33.328,7.889C-32.486,7.941 -31.901,8.542 -31.879,9.384C-31.843,10.745 -33.128,11.837 -34.518,11.65C-35.07,11.576 -35.438,11.306 -35.61,10.788C-35.669,10.611 -35.649,10.407 -35.666,10.213C-36.614,9.987 -37.554,9.761 -38.516,9.531C-38.497,9.842 -38.489,10.062 -38.469,10.281C-38.355,11.547 -38.128,12.8 -37.587,13.949C-36.846,15.526 -36.011,17.058 -35.21,18.621C-35.115,18.581 -35.029,18.551 -34.949,18.51C-31.432,16.724 -28.111,14.635 -25.072,12.106C-23.017,10.396 -21.199,8.468 -19.612,6.321C-17.74,3.785 -15.944,1.189 -13.985,-1.276C-12.089,-3.661 -10.025,-5.913 -8.042,-8.229C-7.901,-8.392 -7.81,-8.599 -7.712,-8.759C-7.723,-8.778 -7.695,-8.725 -7.627,-8.596M17.592,-3.792C18.867,-2.908 19.075,-1.544 18.194,0.286C19.195,0.589 19.814,1.284 20.033,2.285C20.242,3.239 20.151,4.178 19.601,5.08C20.591,5.286 21.306,5.812 21.676,6.742C22.02,7.604 22.264,8.476 21.824,9.43C22.022,9.468 22.196,9.492 22.365,9.536C23.897,9.938 24.692,11.055 25.202,12.454C25.253,12.593 25.363,12.738 25.485,12.817C26.669,13.579 27.706,14.462 28.126,15.881C28.239,16.263 28.439,16.571 28.785,16.802C29.573,17.332 30.313,17.939 31.131,18.417C31.693,18.746 32.352,18.909 32.967,19.148C33.293,19.275 33.638,19.369 33.94,19.537C36.464,20.942 37.608,23.126 37.447,25.976C37.374,27.26 37.2,28.544 36.984,29.813C36.758,31.143 35.905,32.05 34.668,32.495C33.436,32.938 32.162,33.288 30.886,33.591C27.79,34.326 24.647,34.8 21.486,35.15C18.924,35.433 16.354,35.372 13.788,35.212C11.928,35.096 10.069,34.954 8.214,34.778C6.878,34.651 5.553,34.43 4.299,33.911C2.725,33.26 1.598,32.137 0.808,30.645C-0.073,28.983 -0.478,27.178 -0.717,25.342C-0.882,24.079 -1.558,23.28 -2.684,22.855C-4.599,22.133 -6.325,21.071 -8.072,20.034C-9.068,19.444 -10.106,18.925 -11.117,18.358C-12.444,17.614 -13.15,16.426 -13.501,14.984C-13.896,13.358 -13.89,11.703 -13.887,10.047C-13.887,9.725 -13.932,9.403 -13.963,9.081C-14.035,8.34 -14.157,7.597 -13.499,7.009C-13.4,6.921 -13.425,6.694 -13.393,6.531C-13.422,6.514 -13.451,6.497 -13.479,6.48C-13.784,6.882 -14.094,7.281 -14.392,7.688C-16.172,10.123 -17.649,12.744 -19.116,15.374C-20.901,18.576 -23.004,21.544 -25.691,24.066C-27.739,25.987 -30.017,27.582 -32.502,28.88C-35.699,30.55 -39.042,31.847 -42.539,32.739C-45.474,33.487 -48.466,33.579 -51.468,33.48C-52.176,33.456 -52.891,33.311 -53.58,33.135C-54.914,32.794 -55.904,31.957 -56.543,30.757C-57.945,28.119 -58.714,25.321 -58.504,22.306C-58.432,21.269 -58.095,20.305 -57.716,19.339C-57.079,17.714 -55.976,16.427 -54.892,15.11C-54.247,14.327 -53.714,13.451 -53.061,12.677C-52.173,11.626 -51.245,10.605 -50.283,9.621C-49.265,8.579 -48.187,7.595 -47.127,6.579C-47.407,6.132 -47.287,5.759 -47.01,5.402C-46.545,4.803 -45.994,4.364 -45.194,4.322C-45.08,4.316 -44.955,4.195 -44.868,4.097C-44.67,3.875 -44.492,3.634 -44.291,3.382C-44.391,3.239 -44.464,3.101 -44.567,2.991C-45.106,2.413 -45.091,1.758 -44.783,1.103C-44.62,0.756 -44.377,0.435 -44.12,0.146C-43.727,-0.298 -43.229,-0.418 -42.659,-0.166C-42.361,-0.898 -42.061,-1.616 -41.783,-2.344C-41.75,-2.43 -41.812,-2.589 -41.88,-2.672C-42.313,-3.191 -42.35,-3.531 -42.033,-4.134C-41.84,-4.503 -41.665,-4.882 -41.483,-5.257C-41.312,-5.613 -41.065,-5.872 -40.664,-5.981C-40.546,-6.013 -40.419,-6.157 -40.373,-6.279C-40.199,-6.74 -40.057,-7.214 -39.894,-7.71C-40.428,-8.118 -40.448,-8.672 -40.246,-9.276C-40.114,-9.671 -40.008,-10.076 -39.85,-10.46C-39.68,-10.868 -39.494,-11.288 -38.94,-11.305C-38.888,-11.306 -38.813,-11.39 -38.791,-11.45C-38.667,-11.805 -38.556,-12.164 -38.436,-12.533C-38.501,-12.577 -38.552,-12.616 -38.606,-12.648C-39.355,-13.07 -39.562,-13.572 -39.263,-14.375C-39.063,-14.91 -38.817,-15.429 -38.584,-15.951C-38.449,-16.251 -38.453,-16.511 -38.58,-16.839C-39.133,-18.262 -38.869,-19.615 -38.039,-20.847C-37.628,-21.457 -37.317,-21.506 -36.32,-21.417C-36.156,-21.858 -35.99,-22.306 -35.821,-22.754C-35.43,-23.792 -34.979,-24.798 -34.264,-25.663C-33.296,-26.831 -32.043,-27.039 -30.836,-26.292C-30.205,-26.634 -29.642,-27.013 -29.024,-27.259C-27.955,-27.685 -26.822,-27.624 -25.705,-27.481C-25.219,-27.419 -24.74,-27.271 -24.271,-27.124C-24.08,-27.065 -23.853,-26.945 -23.762,-26.784C-23.55,-26.41 -23.229,-26.357 -22.858,-26.311C-22.434,-26.258 -22.016,-26.146 -21.595,-26.064C-21.506,-26.046 -21.409,-26.024 -21.324,-26.043C-19.393,-26.46 -17.597,-27.141 -16.279,-28.714C-15.608,-29.515 -15.174,-30.449 -14.85,-31.431C-14.552,-32.332 -14.332,-33.26 -14.028,-34.159C-13.259,-36.435 -11.743,-37.937 -9.377,-38.515C-8.477,-38.736 -7.098,-38.345 -6.588,-37.46C-6.356,-37.058 -5.914,-36.78 -5.579,-36.435C-4.122,-34.932 -2.858,-33.267 -1.733,-31.514C-0.378,-29.4 0.891,-27.227 2.133,-25.044C2.632,-24.167 3.154,-23.227 3.318,-22.257C3.543,-20.926 4.184,-19.821 4.726,-18.649C5.33,-17.342 5.854,-16.01 5.767,-14.529C5.747,-14.185 5.662,-13.845 5.601,-13.469C6.019,-13.49 6.404,-13.522 6.791,-13.525C7.816,-13.531 8.836,-13.454 9.738,-12.916C10.095,-12.703 10.411,-12.391 10.68,-12.069C11.004,-11.679 11.322,-11.354 11.846,-11.217C12.64,-11.009 13.347,-10.62 13.829,-9.914C13.873,-9.849 13.914,-9.782 13.96,-9.71C14.353,-9.985 14.684,-10.232 15.031,-10.452C15.182,-10.548 15.362,-10.607 15.536,-10.649C16.135,-10.793 16.568,-10.491 16.636,-9.874C16.687,-9.407 16.691,-8.936 16.744,-8.47C16.759,-8.336 16.833,-8.155 16.938,-8.094C18.235,-7.34 18.59,-4.769 17.592,-3.792" style="fill:rgb(37,37,37);fill-rule:nonzero;"/>
    </g>
    <g transform="matrix(8.33333,0,0,8.33333,489.277,322.921)">
        <path d="M0,-3.303C-0.193,-3.555 -0.374,-3.79 -0.551,-4.02C-0.572,-3.556 -0.397,-3.31 0,-3.303ZM-23.508,-18.589C-23.637,-18.239 -23.773,-17.867 -23.904,-17.51C-23.458,-17.593 -23.238,-18.205 -23.508,-18.589ZM7.291,18.249C7.082,17.884 6.893,17.551 6.64,17.109C6.64,17.38 6.577,17.593 6.652,17.734C6.789,17.989 6.946,18.291 7.291,18.249ZM-43.745,3.966C-43.854,3.845 -43.952,3.738 -44.08,3.596C-44.252,3.92 -44.398,4.195 -44.544,4.47C-44.506,4.504 -44.468,4.538 -44.429,4.572C-44.219,4.385 -44.009,4.199 -43.745,3.966ZM2.878,3.623C2.554,4.067 2.748,4.718 3.223,4.771C3.107,4.388 2.992,4.005 2.878,3.623ZM17.08,-3.998C17.163,-4.602 17.083,-4.849 16.739,-5.054C16.672,-4.172 16.717,-4.032 17.08,-3.998ZM-25.348,-13.343L-25.348,-11.61C-24.934,-12.009 -24.88,-12.895 -25.348,-13.343ZM6.078,12.781C6.028,12.767 5.979,12.754 5.929,12.74C5.874,12.889 5.751,13.054 5.781,13.181C5.837,13.406 5.986,13.609 6.096,13.821C6.181,13.74 6.349,13.641 6.336,13.581C6.277,13.309 6.169,13.047 6.078,12.781ZM22.234,12.456L24.152,12.456C23.678,12.043 22.943,12.04 22.234,12.456ZM17.253,-1.103C17.348,-0.686 17.431,-0.324 17.513,0.04C17.519,0.065 17.516,0.103 17.531,0.114C17.612,0.168 17.697,0.217 17.808,0.283C17.891,-0.64 17.779,-0.921 17.253,-1.103ZM-34.339,10.157C-33.824,10.213 -33.33,9.926 -33.223,9.551C-33.149,9.297 -33.153,9.051 -33.477,8.856C-33.548,9.456 -33.691,9.977 -34.339,10.157ZM-31.199,3.431C-31.433,4.085 -31.658,4.718 -31.876,5.329C-31.411,5.312 -30.941,4.145 -31.199,3.431ZM-28.009,-5.794C-27.52,-5.936 -27.235,-6.376 -27.274,-6.958C-27.289,-7.175 -27.312,-7.404 -27.592,-7.4C-27.733,-6.854 -27.869,-6.332 -28.009,-5.794ZM19.172,5.081C19.33,4.212 18.985,3.546 18.412,3.545C18.488,3.771 18.557,3.994 18.638,4.212C18.718,4.431 18.798,4.653 18.904,4.86C18.947,4.944 19.061,4.992 19.172,5.081ZM19.426,8.052C19.114,8.167 18.79,8.285 18.37,8.44C18.987,8.736 19.502,8.984 20.089,9.266C19.852,8.831 19.661,8.484 19.426,8.052ZM-30.082,-0.086C-29.84,0.132 -29.67,-0.042 -29.539,-0.185C-29.155,-0.602 -28.908,-1.082 -29.055,-1.671C-29.112,-1.907 -29.282,-2.029 -29.549,-1.99C-29.501,-1.277 -29.295,-0.545 -30.082,-0.086ZM-26.142,-10.835C-26.131,-10.802 -26.12,-10.769 -26.108,-10.736C-25.412,-10.644 -24.638,-11.282 -24.53,-12.041C-24.396,-12.983 -24.859,-13.976 -25.727,-13.994C-25.477,-13.73 -25.28,-13.54 -25.105,-13.331C-25.008,-13.215 -24.918,-13.078 -24.874,-12.935C-24.72,-12.425 -24.776,-11.913 -25.037,-11.464C-25.149,-11.269 -25.419,-11.157 -25.633,-11.034C-25.789,-10.945 -25.971,-10.9 -26.142,-10.835ZM-38.245,6.061C-38.155,5.731 -38.078,5.447 -37.975,5.063C-38.76,5.267 -39.488,5.456 -40.218,5.645C-40.213,5.682 -40.208,5.719 -40.203,5.756C-39.553,5.857 -38.903,5.958 -38.245,6.061ZM3.283,2.756C3.247,2.699 3.211,2.643 3.175,2.587C3.039,2.648 2.881,2.682 2.771,2.775C2.236,3.232 2.046,4.084 2.311,4.734C2.488,5.171 2.823,5.41 3.275,5.491C3.628,5.555 3.78,5.424 3.818,5.006C3.701,5.031 3.599,5.058 3.495,5.076C3.359,5.1 3.214,5.157 3.088,5.13C2.703,5.047 2.488,4.764 2.422,4.398C2.354,4.022 2.354,3.648 2.686,3.357C2.897,3.171 3.085,2.957 3.283,2.756ZM6.875,16.713C6.509,16.582 6.19,16.728 6.113,17.141C6.051,17.477 6.041,17.846 6.112,18.178C6.229,18.718 6.852,19.088 7.331,18.974C7.724,18.881 7.858,18.553 7.646,18.208C7.337,18.665 7.08,18.691 6.656,18.308C6.044,17.756 6.126,17.163 6.875,16.713ZM0.364,-5.555C0.021,-5.83 -0.281,-5.823 -0.556,-5.595C-1.314,-4.964 -1.275,-3.315 -0.494,-2.72C-0.136,-2.448 0.336,-2.61 0.413,-3.035C0.423,-3.089 0.409,-3.17 0.373,-3.201C0.344,-3.227 0.253,-3.217 0.212,-3.189C-0.197,-2.91 -0.46,-2.962 -0.712,-3.38C-0.944,-3.765 -0.909,-4.789 -0.636,-5.139C-0.572,-5.221 -0.452,-5.268 -0.349,-5.308C-0.114,-5.398 0.126,-5.474 0.364,-5.555ZM19.758,8.052C20.052,8.544 20.32,9.001 20.6,9.45C20.624,9.49 20.715,9.51 20.771,9.506C20.988,9.489 21.203,9.457 21.416,9.432C21.336,8.447 20.555,7.853 19.758,8.052ZM1.474,-1.363C0.907,-1.3 0.646,-1.035 0.524,-0.507C0.378,0.124 0.515,0.702 0.825,1.252C1.045,1.638 1.427,1.799 1.732,1.638C1.982,1.507 2.033,1.168 1.853,0.709C1.774,0.81 1.725,0.934 1.637,0.974C1.501,1.035 1.314,1.105 1.193,1.058C0.707,0.87 0.512,-0.068 0.836,-0.468C1.053,-0.736 1.238,-1.03 1.474,-1.363ZM16.588,3.869C17.495,4.761 17.931,4.996 18.56,4.932C18.407,4.451 18.258,3.975 18.086,3.43C17.592,3.575 17.106,3.717 16.588,3.869ZM-30.562,-16.085C-30.434,-16.549 -30.328,-16.929 -30.215,-17.337C-31.215,-17.41 -32.138,-17.372 -33.089,-16.877C-32.224,-16.606 -31.425,-16.356 -30.562,-16.085ZM6.319,12.035C5.948,11.76 5.697,11.808 5.458,12.034C4.931,12.533 4.752,13.455 5.038,14.171C5.182,14.528 5.577,14.676 6.034,14.59C6.427,14.516 6.646,14.278 6.668,13.934C6.477,14.01 6.249,14.193 6.073,14.153C5.672,14.061 5.545,13.685 5.481,13.313C5.426,12.988 5.549,12.738 5.813,12.534C5.994,12.396 6.142,12.214 6.319,12.035ZM-24.842,-17.177C-24.846,-17.132 -24.85,-17.086 -24.854,-17.04C-24.446,-16.593 -23.996,-16.451 -23.583,-16.628C-22.866,-16.934 -22.619,-17.536 -22.572,-18.251C-22.527,-18.945 -22.879,-19.442 -23.434,-19.806C-23.55,-19.883 -23.72,-19.879 -23.865,-19.912C-23.894,-19.867 -23.923,-19.822 -23.952,-19.776C-23.74,-19.497 -23.505,-19.233 -23.323,-18.936C-23.174,-18.69 -23.01,-18.41 -22.989,-18.135C-22.938,-17.432 -23.646,-16.868 -24.22,-17.083C-24.412,-17.156 -24.634,-17.148 -24.842,-17.177ZM-32.568,5.562L-32.583,5.688C-32.211,6.075 -31.938,6.141 -31.469,5.96C-30.675,5.654 -29.989,4.499 -30.103,3.657C-30.193,2.978 -30.854,2.541 -31.432,2.816C-31.342,2.901 -31.274,3.018 -31.181,3.045C-30.801,3.155 -30.721,3.447 -30.727,3.773C-30.736,4.378 -30.964,4.916 -31.315,5.396C-31.496,5.643 -31.744,5.752 -32.069,5.624C-32.22,5.565 -32.401,5.581 -32.568,5.562ZM5.245,9.637C5.071,9.589 4.896,9.48 4.758,9.514C4.384,9.608 4.243,9.378 4.147,9.119C3.974,8.646 3.966,8.184 4.305,7.752C4.453,7.563 4.542,7.328 4.658,7.114L4.579,7.005C4.382,7.117 4.104,7.18 4.005,7.35C3.759,7.768 3.543,8.219 3.408,8.685C3.162,9.534 4.047,10.189 4.704,10.167C5.003,10.158 5.243,10.064 5.245,9.637ZM-38.558,-11.018C-38.202,-10.756 -37.833,-10.484 -37.483,-10.226C-37.215,-10.873 -36.971,-11.463 -36.716,-12.076C-37.23,-12.2 -37.706,-12.315 -38.164,-12.425C-38.298,-11.948 -38.423,-11.499 -38.558,-11.018ZM-38.864,-5.173C-38.644,-5.8 -38.437,-6.389 -38.228,-6.985C-38.643,-7.141 -39.089,-7.309 -39.556,-7.485C-39.714,-6.947 -39.87,-6.416 -40.031,-5.867C-39.632,-5.63 -39.233,-5.393 -38.864,-5.173ZM-32.51,-10.123C-33.519,-9.841 -34.543,-9.739 -35.392,-9.058C-35.298,-8.96 -35.216,-8.905 -35.179,-8.828C-35.008,-8.469 -34.747,-8.476 -34.408,-8.571C-33.985,-8.689 -33.544,-8.741 -33.113,-8.836C-33.013,-8.858 -32.866,-8.916 -32.84,-8.991C-32.716,-9.341 -32.628,-9.703 -32.51,-10.123ZM-36.924,-3.815C-36.62,-3.599 -36.349,-3.274 -36.026,-3.214C-35.635,-3.139 -35.201,-3.286 -34.786,-3.344C-34.763,-3.347 -34.742,-3.406 -34.729,-3.441C-34.569,-3.891 -34.411,-4.341 -34.25,-4.797C-34.901,-4.821 -36.189,-4.349 -36.924,-3.815ZM-33.442,8.162C-33.408,8.408 -33.44,8.588 -33.176,8.73C-32.999,8.825 -32.859,9.113 -32.83,9.331C-32.757,9.871 -33.288,10.447 -33.938,10.597C-34.272,10.674 -34.58,10.673 -34.791,10.322C-34.832,10.256 -35,10.207 -35.076,10.237C-35.15,10.265 -35.225,10.405 -35.224,10.496C-35.224,10.842 -35.012,11.097 -34.696,11.123C-34.282,11.158 -33.839,11.146 -33.441,11.034C-32.795,10.851 -32.271,10.003 -32.296,9.33C-32.316,8.763 -32.685,8.373 -33.442,8.162ZM-41.64,0.574C-41.294,-0.388 -40.536,-0.964 -39.766,-1.601C-40.369,-1.868 -40.918,-2.112 -41.441,-2.344C-41.706,-1.483 -41.957,-0.671 -42.217,0.173C-42.041,0.296 -41.853,0.426 -41.64,0.574ZM-28.887,-5.231C-28.517,-4.838 -27.65,-4.883 -27.002,-5.305C-26.259,-5.789 -25.964,-6.543 -26.271,-7.204C-26.531,-7.766 -27.347,-8.572 -27.979,-8.262C-27.71,-8.063 -27.471,-7.899 -27.248,-7.715C-27.152,-7.635 -27.062,-7.524 -27.022,-7.408C-26.818,-6.821 -26.921,-6.271 -27.324,-5.805C-27.448,-5.663 -27.711,-5.498 -27.852,-5.539C-28.281,-5.666 -28.564,-5.448 -28.887,-5.231ZM14.164,-0.763C14.162,-0.715 14.16,-0.667 14.157,-0.619C15.128,-0.223 15.953,0.684 17.183,0.18C17.131,-0.162 17.045,-0.52 17.031,-0.881C17.021,-1.173 16.901,-1.256 16.646,-1.211C15.818,-1.065 14.992,-0.913 14.164,-0.763ZM16.322,-8.437C16.322,-8.792 16.331,-9.157 16.321,-9.52C16.3,-10.345 15.956,-10.545 15.222,-10.157C14.855,-9.964 14.502,-9.745 14.12,-9.525C14.176,-9.379 14.254,-9.215 14.302,-9.043C14.391,-8.721 14.579,-8.602 14.921,-8.595C15.372,-8.585 15.821,-8.498 16.322,-8.437ZM17.166,11.07C17.155,11.032 17.145,10.994 17.134,10.956C15.102,10.534 13.07,10.112 11.018,9.685C11.19,10.08 11.352,10.447 11.52,10.829C11.676,10.829 11.832,10.82 11.986,10.831C13.48,10.936 14.974,11.051 16.468,11.148C16.698,11.162 16.934,11.097 17.166,11.07ZM-30.936,-0.121C-30.913,0.753 -30.444,1.061 -29.722,0.83C-29.145,0.647 -28.683,0.292 -28.318,-0.183C-27.868,-0.769 -27.842,-1.631 -28.235,-2.159C-28.628,-2.685 -29.385,-2.874 -30.188,-2.566C-29.899,-2.465 -29.712,-2.36 -29.517,-2.338C-29.021,-2.282 -28.679,-1.942 -28.67,-1.438C-28.659,-0.813 -28.936,-0.303 -29.348,0.135C-29.632,0.436 -30.059,0.418 -30.375,0.173C-30.539,0.046 -30.747,-0.025 -30.936,-0.121ZM-36.229,0.326C-37.742,0.432 -39.112,0.714 -40.256,1.69C-39.992,2.063 -39.714,2.176 -39.253,2.031C-38.502,1.794 -37.718,1.666 -36.949,1.482C-36.837,1.454 -36.686,1.398 -36.642,1.31C-36.491,1.015 -36.381,0.698 -36.229,0.326ZM1.651,-12.128C2.602,-12.686 3.612,-13.048 4.666,-13.307C4.761,-13.33 4.869,-13.42 4.914,-13.508C5.374,-14.414 5.229,-15.336 4.982,-16.374C4.214,-14.598 2.861,-13.422 1.651,-12.128ZM7.613,0.909C7.79,1.799 7.927,1.93 8.789,2.01C9.062,2.035 9.336,2.06 9.608,2.048C10.362,2.016 11.115,1.935 11.868,1.933C12.253,1.932 12.541,1.814 12.795,1.57C11.122,0.901 9.362,0.953 7.613,0.909ZM29.656,18.114C29.241,17.732 28.771,17.305 28.307,16.871C28.043,16.625 27.82,16.324 27.528,16.122C26.813,15.626 25.991,15.373 25.145,15.205C24.8,15.136 24.449,15.1 24.092,15.048C25.625,16.764 27.566,17.654 29.656,18.114ZM16.416,-3.991C16.437,-4.405 16.44,-4.728 16.476,-5.049C16.503,-5.298 16.404,-5.434 16.185,-5.527C15.42,-5.848 14.622,-6.009 13.795,-6.005C13.404,-6.003 13.015,-5.96 12.615,-5.934C13.17,-5.315 13.671,-4.741 14.191,-4.185C14.285,-4.084 14.454,-4.004 14.591,-4C15.198,-3.98 15.807,-3.991 16.416,-3.991ZM14.451,6.298C12.737,5.563 11.064,4.93 9.21,4.869C9.378,5.389 9.542,5.855 9.676,6.329C9.748,6.589 9.89,6.667 10.149,6.672C10.905,6.687 11.675,6.647 12.41,6.783C13.175,6.925 13.774,6.655 14.451,6.298ZM-35.19,-13.621C-36.395,-14.069 -37.406,-14.909 -38.203,-16.04C-38.412,-15.438 -38.606,-14.903 -38.784,-14.361C-39.039,-13.584 -38.822,-13.105 -38.052,-12.818C-37.615,-12.654 -37.157,-12.544 -36.704,-12.429C-36.614,-12.407 -36.475,-12.445 -36.403,-12.507C-35.992,-12.869 -35.595,-13.246 -35.19,-13.621ZM-46.903,6.861C-48.917,9.016 -51.298,10.801 -53.033,13.273C-52.49,13.158 -52.006,13.072 -51.533,12.945C-51.386,12.905 -51.244,12.772 -51.142,12.648C-50.637,12.039 -50.153,11.411 -49.646,10.803C-48.815,9.805 -47.982,8.807 -47.125,7.832C-46.902,7.58 -46.585,7.412 -46.293,7.191C-46.506,7.076 -46.688,6.977 -46.903,6.861ZM10.898,-3.083C8.961,-3.794 7.009,-4.223 5.013,-4.461L4.934,-4.351C5.336,-3.65 5.737,-2.948 6.132,-2.26C7.766,-2.179 9.374,-2.177 10.898,-3.083ZM-40.092,2.274C-41.072,1.588 -41.981,0.945 -42.899,0.317C-43.123,0.163 -43.399,0.16 -43.581,0.369C-43.866,0.7 -44.139,1.051 -44.355,1.428C-44.572,1.805 -44.531,2.207 -44.252,2.562C-44.011,2.869 -43.763,3.171 -43.526,3.482C-43.402,3.645 -43.291,3.657 -43.101,3.563C-42.473,3.253 -41.834,2.963 -41.192,2.682C-40.863,2.538 -40.518,2.43 -40.092,2.274ZM-35.431,-8.437C-36.517,-9.402 -38.082,-9.731 -38.986,-11.021C-39.116,-10.875 -39.231,-10.802 -39.264,-10.701C-39.479,-10.025 -39.703,-9.349 -39.861,-8.659C-39.896,-8.504 -39.727,-8.22 -39.571,-8.121C-39.202,-7.886 -38.769,-7.753 -38.392,-7.527C-38.018,-7.302 -37.757,-7.371 -37.384,-7.59C-36.785,-7.94 -36.107,-8.153 -35.431,-8.437ZM13.769,14.071C13.743,14.018 13.719,13.967 13.694,13.915C13.063,13.859 12.432,13.801 11.8,13.749C11.752,13.745 11.696,13.766 11.652,13.79C11.149,14.063 10.64,14.322 10.15,14.616C9.516,14.998 8.896,15.405 8.275,15.809C7.755,16.148 7.31,16.569 7.075,17.156C7.016,17.305 7.029,17.58 7.127,17.672C7.263,17.798 7.508,17.842 7.71,17.852C7.833,17.859 7.971,17.748 8.089,17.67C8.51,17.387 8.92,17.088 9.345,16.811C10.347,16.159 11.354,15.514 12.36,14.871C12.491,14.787 12.642,14.737 12.775,14.659C13.108,14.467 13.438,14.267 13.769,14.071ZM-36.551,-2.998C-36.595,-3.038 -36.645,-3.097 -36.707,-3.137C-37.843,-3.866 -38.978,-4.596 -40.117,-5.319C-40.553,-5.595 -40.736,-5.554 -40.994,-5.095C-41.236,-4.666 -41.427,-4.208 -41.661,-3.773C-41.802,-3.511 -41.781,-3.284 -41.549,-3.118C-41.234,-2.893 -40.896,-2.701 -40.567,-2.496C-40.202,-2.269 -39.836,-2.044 -39.473,-1.819C-38.553,-2.19 -37.556,-2.592 -36.551,-2.998ZM19.448,4.2C19.495,4.198 19.542,4.196 19.588,4.194C19.597,3.767 19.659,3.334 19.604,2.915C19.437,1.639 18.571,0.613 17.141,0.873C16.136,1.056 15.143,1.311 14.15,1.562C13.734,1.667 13.336,1.846 12.975,1.976C13.855,2.442 14.74,2.903 15.617,3.378C15.8,3.477 15.93,3.495 16.144,3.414C16.71,3.198 17.293,2.996 17.888,2.891C18.597,2.766 19.088,3.129 19.313,3.813C19.356,3.943 19.403,4.071 19.448,4.2ZM21.593,8.822C21.617,8.698 21.644,8.617 21.65,8.533C21.767,7.075 20.775,5.481 18.789,5.615C17.128,5.728 15.652,6.471 14.024,6.949C14.571,7.113 15.045,7.248 15.514,7.397C15.984,7.547 16.463,7.681 16.914,7.876C17.424,8.096 17.896,8.165 18.363,7.797C18.422,7.751 18.505,7.735 18.578,7.706C20.056,7.111 20.862,7.399 21.593,8.822ZM24.728,12.425C24.762,12.409 24.795,12.395 24.829,12.38C24.611,12.004 24.416,11.613 24.173,11.253C23.61,10.423 22.844,9.929 21.81,9.989C21.292,10.02 20.759,10.054 20.27,10.206C19.216,10.533 18.186,10.937 17.142,11.312C17.47,11.55 17.756,11.776 18.061,11.971C18.266,12.102 18.489,12.251 18.721,12.284C19.416,12.386 20.118,12.439 20.819,12.499C20.927,12.509 21.05,12.474 21.149,12.426C21.511,12.251 21.857,12.042 22.225,11.881C23.207,11.452 24.007,11.633 24.728,12.425ZM8.869,-7.3C8.884,-7.276 8.897,-7.253 8.912,-7.229C9.911,-6.9 10.909,-6.57 11.909,-6.244C12.039,-6.201 12.194,-6.118 12.306,-6.155C13.108,-6.415 13.932,-6.408 14.744,-6.303C16.015,-6.137 17.239,-5.85 17.629,-4.287C17.87,-5.197 17.812,-6.028 17.466,-6.826C17.272,-7.27 16.923,-7.605 16.457,-7.756C16.052,-7.887 15.62,-8.049 15.209,-8.027C13.911,-7.959 12.615,-7.831 11.323,-7.687C10.501,-7.595 9.687,-7.431 8.869,-7.3ZM18.148,-0.411L18.235,-0.411C18.277,-0.861 18.357,-1.312 18.353,-1.761C18.343,-2.628 17.878,-3.253 17.026,-3.406C16.423,-3.514 15.768,-3.546 15.169,-3.433C13.716,-3.157 12.279,-2.787 10.842,-2.433C10.438,-2.334 10.056,-2.157 9.619,-1.999C10.797,-1.758 11.907,-1.546 13.01,-1.298C13.484,-1.191 13.928,-1.233 14.393,-1.342C15.061,-1.498 15.736,-1.649 16.418,-1.715C17.012,-1.772 17.607,-1.669 17.937,-1.065C18.046,-0.868 18.08,-0.631 18.148,-0.411ZM-0.951,23.598C-0.906,23.582 -0.86,23.565 -0.815,23.549C-0.937,23.323 -1.038,23.084 -1.185,22.877C-1.378,22.601 -1.596,22.34 -1.824,22.092C-2.361,21.51 -2.826,20.811 -3.47,20.39C-5.231,19.239 -7.023,18.122 -9.09,17.544C-10.167,17.243 -11.237,16.883 -12.076,16.076C-12.302,15.859 -12.523,15.635 -12.771,15.39C-12.353,16.793 -11.39,17.66 -10.182,18.31C-9.402,18.729 -8.615,19.136 -7.849,19.577C-6.293,20.474 -4.799,21.482 -3.106,22.126C-2.273,22.442 -1.472,22.817 -0.951,23.598ZM-30.93,-25.99C-32.429,-26.448 -33.277,-26.172 -34.104,-24.977C-34.287,-24.711 -34.471,-24.432 -34.587,-24.133C-35.218,-22.51 -35.828,-20.879 -36.439,-19.249C-36.461,-19.191 -36.447,-19.084 -36.406,-19.043C-36.127,-18.765 -35.837,-18.499 -35.495,-18.177C-35.255,-19.135 -34.667,-19.674 -33.914,-20.071C-33.841,-20.11 -33.771,-20.183 -33.734,-20.258C-33.502,-20.722 -33.264,-21.185 -33.054,-21.659C-32.409,-23.118 -31.975,-24.678 -30.93,-25.99ZM27.714,15.671C27.357,15.261 26.998,14.853 26.644,14.442C25.779,13.444 24.702,12.966 23.37,12.997C21.819,13.034 20.268,13.009 18.716,13.013C17.546,13.016 16.409,13.202 15.319,13.645C14.406,14.015 13.709,14.641 13.053,15.509C13.229,15.434 13.296,15.405 13.363,15.377C14.774,14.791 16.221,14.43 17.772,14.557C18.978,14.655 20.188,14.701 21.397,14.726C21.914,14.736 22.434,14.59 22.952,14.587C24.608,14.578 26.162,15.029 27.714,15.671ZM18.075,12.494C17.54,11.989 16.981,11.593 16.289,11.547C14.642,11.434 12.991,11.338 11.341,11.312C10.066,11.292 8.786,11.343 7.517,11.448C6.642,11.522 6.321,12.251 6.322,12.977C6.324,13.404 6.67,13.717 7.126,13.719C7.446,13.72 7.78,13.683 8.084,13.587C8.912,13.324 9.743,13.163 10.616,13.25C11.561,13.345 12.507,13.413 13.451,13.5C13.592,13.513 13.727,13.589 13.867,13.599C14.019,13.611 14.202,13.629 14.321,13.558C15.069,13.112 15.877,12.838 16.729,12.687C17.158,12.612 17.593,12.562 18.075,12.494ZM-36.953,-21.044C-36.988,-21.079 -37.023,-21.114 -37.059,-21.148C-37.326,-20.882 -37.675,-20.66 -37.849,-20.342C-38.351,-19.422 -38.536,-18.411 -38.219,-17.397C-37.732,-15.844 -36.625,-14.837 -35.153,-14.215C-34.764,-14.051 -34.328,-13.811 -33.942,-13.855C-32.979,-13.966 -32.032,-14.22 -31.094,-14.414C-30.982,-14.832 -30.87,-15.253 -30.787,-15.563C-31.987,-16.045 -33.198,-16.457 -34.336,-17.016C-35.12,-17.401 -35.849,-17.938 -36.521,-18.503C-37.396,-19.238 -37.508,-20.163 -36.953,-21.044ZM-33.055,-20.44C-32.721,-20.547 -32.505,-20.629 -32.282,-20.685C-31.299,-20.933 -30.32,-21.203 -29.326,-21.399C-28.999,-21.464 -28.863,-21.578 -28.779,-21.876C-28.604,-22.501 -28.446,-23.138 -28.191,-23.731C-27.611,-25.079 -26.626,-25.984 -25.147,-26.271C-24.778,-26.343 -24.404,-26.388 -23.939,-26.46C-24.143,-26.559 -24.252,-26.626 -24.371,-26.668C-25.82,-27.176 -27.296,-27.137 -28.755,-26.772C-30.011,-26.457 -30.775,-25.506 -31.312,-24.407C-31.929,-23.149 -32.445,-21.841 -33.055,-20.44ZM-40.563,1.365C-39.779,0.58 -39.118,0.156 -38.111,-0.029C-35.93,-0.429 -33.733,-0.689 -31.508,-0.437C-31.16,-0.398 -30.808,-0.385 -30.457,-0.374C-30.07,-0.363 -29.897,-0.6 -29.849,-0.949C-29.745,-1.679 -30.132,-2.279 -30.88,-2.467C-31.421,-2.602 -31.977,-2.69 -32.53,-2.761C-35.14,-3.098 -37.539,-2.488 -39.748,-1.099C-40.453,-0.656 -41.041,-0.067 -41.573,0.604C-41.223,0.868 -40.903,1.109 -40.563,1.365ZM15.511,0.565C14.716,0.155 13.978,-0.221 13.244,-0.606C12.325,-1.088 11.306,-1.196 10.311,-1.378C8.028,-1.794 5.718,-1.801 3.409,-1.78C3.027,-1.776 2.631,-1.681 2.27,-1.552C1.567,-1.301 1.18,-0.548 1.32,0.186C1.394,0.568 1.518,0.618 1.885,0.505C3.192,0.103 4.519,-0.087 5.892,0.143C6.802,0.295 7.721,0.469 8.638,0.48C10.206,0.499 11.721,0.757 13.218,1.184C13.348,1.222 13.507,1.253 13.628,1.214C14.233,1.021 14.83,0.802 15.511,0.565ZM14.179,-3.878C13.952,-4.092 13.76,-4.303 13.539,-4.477C13.004,-4.899 12.51,-5.427 11.902,-5.692C10.616,-6.254 9.271,-6.723 7.843,-6.731C6.965,-6.737 6.042,-6.743 5.22,-6.49C4.233,-6.186 3.261,-5.893 2.239,-5.747C1.454,-5.634 0.727,-5.359 0.144,-4.79C-0.067,-4.585 -0.168,-4.352 -0.052,-4.05C0.065,-3.742 0.305,-3.562 0.602,-3.587C0.966,-3.617 1.38,-3.661 1.673,-3.852C2.999,-4.718 4.456,-4.958 5.976,-4.754C7.223,-4.586 8.458,-4.304 9.684,-4.012C10.26,-3.874 10.814,-3.621 11.354,-3.366C11.611,-3.244 11.831,-3.213 12.092,-3.289C12.766,-3.484 13.442,-3.671 14.179,-3.878ZM-35.24,9.817C-34.092,9.86 -33.579,9.293 -33.724,8.459C-33.756,8.27 -33.868,8.046 -34.017,7.937C-34.317,7.718 -34.649,7.506 -35.002,7.403C-35.936,7.128 -36.883,6.89 -37.834,6.68C-38.835,6.459 -39.849,6.294 -40.854,6.092C-41.438,5.974 -42.011,5.787 -42.599,5.711C-43.254,5.625 -43.853,5.466 -44.427,5.112C-45.251,4.605 -46.222,4.938 -46.678,5.798C-46.851,6.124 -46.791,6.396 -46.481,6.563C-46.2,6.714 -45.891,6.853 -45.579,6.901C-44.624,7.046 -43.693,7.259 -42.791,7.614C-42.433,7.754 -42.04,7.84 -41.656,7.875C-40.803,7.952 -40.059,8.286 -39.321,8.695C-38.92,8.917 -38.457,9.036 -38.013,9.172C-37.704,9.267 -37.378,9.307 -37.063,9.382C-36.354,9.547 -35.648,9.718 -35.24,9.817ZM-38.634,-5.065C-38.267,-4.836 -37.9,-4.653 -37.592,-4.4C-37.349,-4.202 -37.172,-4.243 -36.938,-4.375C-36.462,-4.642 -35.998,-4.956 -35.487,-5.13C-34.202,-5.567 -32.864,-5.614 -31.513,-5.576C-30.647,-5.552 -29.775,-5.626 -28.911,-5.709C-28.505,-5.748 -28.241,-6.042 -28.175,-6.466C-28.125,-6.787 -28.097,-7.113 -28.039,-7.432C-27.97,-7.814 -28.131,-8.04 -28.488,-8.128C-29.043,-8.264 -29.597,-8.417 -30.16,-8.504C-31.538,-8.716 -32.888,-8.472 -34.226,-8.167C-34.872,-8.019 -35.511,-7.836 -36.154,-7.677C-37.522,-7.34 -38.219,-6.366 -38.634,-5.065ZM-28.678,-18.032C-27.773,-17.927 -27.079,-17.824 -26.38,-17.772C-25.828,-17.731 -25.264,-17.692 -24.721,-17.767C-24.231,-17.836 -23.942,-18.285 -23.903,-18.785C-23.86,-19.332 -24.093,-19.813 -24.566,-19.998C-25.818,-20.487 -27.098,-20.922 -28.462,-20.869C-30.234,-20.8 -31.91,-20.254 -33.564,-19.664C-34.078,-19.481 -34.537,-19.157 -34.829,-18.663C-35.202,-18.03 -35.177,-18.018 -34.571,-17.632C-33.964,-17.244 -33.425,-17.199 -32.678,-17.399C-31.321,-17.762 -29.892,-17.854 -28.678,-18.032ZM-44.125,4.637C-44.116,4.708 -44.107,4.779 -44.1,4.849C-43.587,4.961 -43.076,5.082 -42.562,5.18C-42.294,5.231 -42.008,5.203 -41.75,5.28C-41.323,5.406 -40.939,5.314 -40.532,5.193C-39.749,4.96 -38.965,4.673 -38.161,4.58C-36.665,4.408 -35.207,4.702 -33.804,5.242C-33.228,5.464 -32.654,5.505 -32.218,5.012C-32.008,4.775 -31.92,4.417 -31.814,4.101C-31.528,3.245 -31.677,2.922 -32.478,2.502C-33.485,1.972 -34.561,1.761 -35.687,1.817C-38.172,1.94 -40.473,2.739 -42.697,3.79C-43.195,4.026 -43.65,4.352 -44.125,4.637ZM17.444,5.203C17.345,5.113 17.295,5.051 17.231,5.013C16.008,4.277 14.786,3.537 13.556,2.814C12.93,2.446 12.228,2.315 11.521,2.403C10.095,2.58 8.688,2.462 7.28,2.249C6.229,2.091 5.177,2.063 4.15,2.413C3.434,2.659 3.17,3.157 3.343,3.919C3.482,4.537 3.901,4.777 4.646,4.689C5.72,4.563 6.791,4.393 7.868,4.344C9.873,4.254 11.806,4.626 13.629,5.485C14.261,5.782 14.906,5.947 15.592,5.766C16.193,5.609 16.782,5.406 17.444,5.203ZM-35.952,-9.381C-35.581,-9.603 -35.29,-9.843 -34.957,-9.963C-34.262,-10.214 -33.552,-10.438 -32.832,-10.607C-31.546,-10.909 -30.233,-10.977 -28.914,-10.994C-28.188,-11.004 -27.454,-11.053 -26.742,-11.183C-25.932,-11.333 -25.492,-12.136 -25.614,-13.06C-25.702,-13.728 -26.123,-14.013 -27.025,-14.018C-27.064,-14.019 -27.104,-14.015 -27.143,-14.014C-29.541,-13.937 -31.923,-13.751 -34.267,-13.178C-35.259,-12.935 -35.954,-12.411 -36.34,-11.47C-36.434,-11.241 -36.54,-11.017 -36.625,-10.785C-36.938,-9.925 -36.937,-9.924 -36.147,-9.483C-36.068,-9.439 -35.987,-9.399 -35.952,-9.381ZM19.993,9.683C19.635,9.531 19.326,9.427 19.043,9.276C17.213,8.298 15.286,7.596 13.219,7.383C11.069,7.161 8.912,7.01 6.756,6.873C6.263,6.842 5.742,6.935 5.264,7.072C4.758,7.218 4.481,7.832 4.534,8.452C4.579,8.971 4.905,9.364 5.489,9.417C6.064,9.47 6.671,9.492 7.228,9.367C8.649,9.048 10.067,8.96 11.488,9.264C13.103,9.611 14.698,10.049 16.315,10.38C16.886,10.497 17.468,10.773 18.096,10.454C18.685,10.155 19.321,9.951 19.993,9.683ZM-21.408,17.581C-21.279,17.396 -21.189,17.284 -21.119,17.161C-20.099,15.39 -19.077,13.619 -18.062,11.845C-16.881,9.784 -15.595,7.79 -14.075,5.965C-12.842,4.483 -11.552,3.049 -10.243,1.634C-9.457,0.784 -8.6,0.003 -7.57,-0.568C-7.238,-0.752 -6.896,-0.983 -6.667,-1.277C-6.144,-1.954 -5.666,-2.671 -5.207,-3.395C-4.378,-4.702 -3.586,-6.033 -2.757,-7.34C-2.503,-7.741 -2.181,-8.099 -1.89,-8.476C-2.433,-8.1 -2.945,-7.701 -3.451,-7.294C-5.311,-5.797 -7.105,-4.227 -8.713,-2.46C-10.759,-0.211 -12.541,2.255 -14.251,4.755C-15.807,7.029 -17.12,9.469 -18.504,11.858C-19.438,13.469 -20.271,15.141 -21.597,16.489C-21.646,16.539 -21.674,16.647 -21.657,16.714C-21.595,16.977 -21.51,17.235 -21.408,17.581ZM-1.178,22.184C-1.159,22.181 -1.142,22.179 -1.123,22.176C-1.185,21.953 -1.224,21.72 -1.311,21.508C-1.609,20.779 -1.739,19.97 -2.305,19.364C-3.914,17.641 -5.537,15.927 -7.378,14.449C-8.513,13.537 -9.706,12.697 -10.902,11.865C-11.595,11.385 -12.351,10.997 -13.062,10.542C-13.241,10.426 -13.356,10.211 -13.502,10.042C-13.537,10.068 -13.571,10.093 -13.606,10.119C-13.504,11.037 -13.408,11.956 -13.294,12.872C-13.265,13.113 -13.207,13.358 -13.116,13.583C-12.456,15.233 -11.188,16.189 -9.528,16.687C-7.885,17.18 -6.329,17.856 -4.915,18.843C-4.063,19.436 -3.081,19.851 -2.389,20.66C-1.967,21.153 -1.58,21.675 -1.178,22.184ZM29.763,18.858C29.772,18.822 29.782,18.785 29.793,18.749C29.219,18.56 28.649,18.351 28.068,18.187C26.288,17.684 24.895,16.613 23.675,15.267C23.57,15.151 23.337,15.077 23.178,15.098C21.462,15.323 19.753,15.34 18.038,15.068C17.466,14.978 16.843,14.869 16.3,15.002C15.042,15.307 13.814,15.746 12.584,16.157C12.449,16.202 12.335,16.402 12.272,16.555C11.799,17.708 11.341,18.867 10.88,20.025C10.87,20.051 10.891,20.089 10.901,20.142C11.879,19.504 12.945,19.129 14.056,18.892C16.795,18.31 19.571,18.339 22.348,18.46C24.82,18.569 27.291,18.723 29.763,18.858ZM4.319,-6.781C4.734,-6.915 5.133,-7.114 5.549,-7.163C6.296,-7.252 7.055,-7.248 7.809,-7.289C7.945,-7.296 8.116,-7.289 8.211,-7.365C8.843,-7.867 9.594,-8.008 10.357,-8.116C11.541,-8.283 12.726,-8.445 13.911,-8.609C13.692,-9.588 12.847,-10.458 11.833,-10.699C11.23,-10.841 10.752,-11.123 10.411,-11.643C9.93,-12.38 9.208,-12.744 8.37,-12.889C6.006,-13.299 3.776,-12.918 1.726,-11.657C1.08,-11.261 0.544,-10.727 0.193,-9.992C0.3,-10.002 0.377,-10 0.448,-10.017C1.226,-10.202 1.885,-9.988 2.455,-9.444C3.254,-8.68 3.921,-7.825 4.319,-6.781ZM-50.594,12.748C-45.665,11.886 -41.331,13.343 -37.295,16.045C-37.335,15.901 -37.392,15.787 -37.451,15.676C-38.468,13.772 -39.076,11.764 -39.012,9.583C-39.009,9.507 -39.041,9.385 -39.095,9.359C-39.71,9.056 -40.314,8.715 -40.96,8.492C-41.557,8.285 -42.202,8.223 -42.821,8.075C-43.729,7.858 -44.638,7.644 -45.533,7.382C-45.981,7.25 -46.261,7.424 -46.566,7.7C-48.175,9.155 -49.252,11.033 -50.594,12.748ZM-20.432,-25.722C-19.42,-25.393 -18.403,-25.035 -17.371,-24.732C-15.775,-24.264 -14.151,-24.074 -12.513,-24.481C-10.23,-25.048 -9.285,-25.983 -9.104,-28.149C-8.971,-29.722 -8.525,-31.209 -7.908,-32.657C-7.501,-33.615 -7.11,-34.585 -6.812,-35.58C-6.366,-37.074 -7.281,-38.219 -8.849,-38.169C-9.948,-38.133 -10.87,-37.613 -11.704,-36.938C-12.915,-35.956 -13.481,-34.604 -13.893,-33.147C-14.206,-32.035 -14.543,-30.922 -14.983,-29.857C-15.622,-28.317 -16.753,-27.195 -18.28,-26.515C-18.972,-26.207 -19.703,-25.988 -20.432,-25.722ZM7.271,24.188C7.297,24.196 7.331,24.211 7.368,24.217C9.212,24.529 11.069,24.642 12.937,24.558C14.068,24.508 15.201,24.447 16.331,24.364C18.968,24.17 21.611,23.992 24.187,23.362C26.245,22.858 28.285,22.275 30.317,21.675C30.813,21.528 31.292,21.231 31.703,20.907C32.156,20.551 32.061,20.199 31.525,19.975C31.37,19.91 31.206,19.85 31.041,19.829C29.983,19.693 28.927,19.518 27.863,19.452C25.796,19.323 23.724,19.233 21.652,19.172C19.151,19.099 16.647,19.07 14.179,19.595C12.952,19.856 11.806,20.307 10.838,21.12C9.644,22.123 8.472,23.153 7.271,24.188ZM-21.828,16.319C-21.73,16.215 -21.679,16.175 -21.647,16.122C-20.787,14.695 -19.916,13.273 -19.073,11.836C-17.933,9.892 -16.911,7.872 -15.663,6.001C-14.068,3.61 -12.344,1.3 -10.592,-0.981C-8.672,-3.482 -6.344,-5.591 -3.907,-7.582C-2.669,-8.594 -1.437,-9.616 -0.253,-10.69C0.507,-11.38 1.173,-12.172 1.883,-12.917C2.728,-13.802 3.628,-14.647 4.193,-15.753C4.523,-16.398 4.841,-17.073 4.518,-17.833C4.136,-18.73 3.757,-19.628 3.401,-20.47C2.985,-19.557 2.636,-18.564 2.109,-17.676C0.955,-15.729 -0.672,-14.178 -2.314,-12.645C-3.8,-11.259 -5.32,-9.899 -6.699,-8.411C-8.7,-6.252 -10.594,-3.995 -12.521,-1.769C-14.443,0.45 -16.164,2.822 -17.833,5.234C-19.455,7.577 -21.263,9.76 -23.39,11.666C-23.566,11.824 -23.593,11.954 -23.505,12.167C-22.948,13.527 -22.403,14.892 -21.828,16.319ZM-35.725,18.907C-35.921,18.228 -36.323,17.642 -36.965,17.076C-38.114,16.063 -39.459,15.377 -40.854,14.784C-42.635,14.028 -44.475,13.472 -46.414,13.299C-47.823,13.173 -49.226,13.257 -50.626,13.438C-51.464,13.547 -52.305,13.634 -53.142,13.746C-53.267,13.762 -53.421,13.825 -53.495,13.918C-54.283,14.905 -55.063,15.898 -55.835,16.897C-56.485,17.738 -57.008,18.643 -57.233,19.7C-57.546,21.168 -57.052,22.153 -55.678,22.754C-54.756,23.158 -53.78,23.302 -52.787,23.349C-49.951,23.484 -47.175,23.102 -44.438,22.375C-42.327,21.815 -40.325,20.97 -38.328,20.11C-37.457,19.734 -36.604,19.315 -35.725,18.907ZM-57.911,21.034C-57.945,21.038 -57.979,21.042 -58.014,21.046C-58.074,21.506 -58.161,21.965 -58.19,22.427C-58.359,25.089 -57.675,27.567 -56.479,29.912C-56.188,30.482 -55.78,31.017 -55.334,31.479C-54.445,32.401 -53.261,32.757 -52.034,32.79C-50.29,32.837 -48.538,32.801 -46.797,32.694C-44.286,32.541 -41.866,31.918 -39.492,31.1C-36.705,30.139 -34.007,28.994 -31.44,27.529C-27.527,25.295 -24.495,22.161 -21.979,18.476C-21.81,18.229 -21.746,17.989 -21.846,17.71C-22.325,16.363 -22.805,15.017 -23.285,13.671C-23.469,13.157 -23.657,12.646 -23.85,12.112C-24.148,12.352 -24.435,12.574 -24.712,12.806C-27.12,14.816 -29.715,16.553 -32.451,18.079C-35.047,19.527 -37.759,20.73 -40.497,21.883C-43.865,23.301 -47.383,23.994 -51.018,24.144C-52.494,24.205 -53.971,24.144 -55.387,23.667C-56.667,23.235 -57.713,22.533 -57.911,21.034ZM-1.23,20.59C-1.098,20.94 -0.914,21.28 -0.841,21.643C-0.603,22.829 -0.392,24.021 -0.192,25.214C0.098,26.953 0.457,28.669 1.269,30.255C1.931,31.548 2.879,32.537 4.21,33.167C5.456,33.757 6.774,34.037 8.129,34.149C10.467,34.342 12.806,34.558 15.148,34.644C17.035,34.714 18.937,34.709 20.815,34.549C22.953,34.367 25.076,33.995 27.2,33.67C29.558,33.309 31.876,32.764 34.143,32.016C35.397,31.602 36.189,30.745 36.445,29.444C36.624,28.537 36.772,27.623 36.883,26.705C37.15,24.481 36.563,22.521 34.984,20.898C34.36,20.257 33.629,19.79 32.72,19.604C32.884,20.696 32.516,21.444 31.555,21.952C31.211,22.134 30.849,22.292 30.479,22.405C29.682,22.648 28.865,22.828 28.073,23.082C25.924,23.769 23.738,24.299 21.504,24.609C20.382,24.765 19.249,24.843 18.119,24.941C15.325,25.182 12.527,25.378 9.72,25.227C7.479,25.106 5.302,24.692 3.261,23.705C1.604,22.904 0.131,21.847 -1.23,20.59ZM-3.805,-4.86C-4.105,-4.332 -4.351,-3.828 -4.665,-3.371C-5.119,-2.71 -5.568,-2.029 -6.12,-1.453C-6.829,-0.713 -7.696,-0.122 -8.393,0.63C-9.894,2.251 -11.333,3.93 -12.783,5.598C-12.896,5.727 -12.895,5.953 -12.948,6.134C-13.053,6.486 -13.076,6.898 -13.285,7.17C-13.494,7.444 -13.652,7.691 -13.662,8.028C-13.697,9.279 -13.095,10.153 -11.996,10.665C-9.181,11.977 -6.794,13.873 -4.597,16.029C-3.108,17.489 -1.668,18.996 -0.18,20.456C1.59,22.19 3.692,23.346 6.104,23.926C6.24,23.959 6.441,23.912 6.552,23.825C7.021,23.453 7.483,23.069 7.918,22.657C8.482,22.123 9.13,21.63 9.542,20.991C10.237,19.914 10.805,18.75 11.369,17.595C11.668,16.983 11.85,16.313 12.111,15.595C11.697,15.861 11.372,16.077 11.04,16.282C10.119,16.847 9.193,17.404 8.278,17.977C8.187,18.035 8.096,18.187 8.1,18.291C8.124,18.953 7.729,19.354 7.067,19.308C6.117,19.242 5.507,18.211 5.796,17.161C5.979,16.497 6.363,16.278 6.99,16.462C8.134,15.292 9.592,14.577 10.996,13.608C10.395,13.608 9.885,13.554 9.391,13.621C8.583,13.729 7.786,13.916 6.935,14.08C6.936,14.078 6.907,14.149 6.877,14.22C6.668,14.699 6.275,14.93 5.781,14.983C5.309,15.033 4.948,14.826 4.712,14.411C4.326,13.734 4.438,13.03 4.714,12.378C5.031,11.628 5.541,11.233 6.381,11.51C6.465,11.538 6.586,11.456 6.688,11.422C7.127,11.277 7.557,11.072 8.007,11.003C8.504,10.927 9.021,10.99 9.529,10.97C10.043,10.95 10.556,10.904 11.144,10.864C10.981,10.445 10.855,10.093 10.707,9.752C10.675,9.677 10.563,9.595 10.483,9.59C9.925,9.555 9.361,9.493 8.806,9.528C7.755,9.592 6.707,9.714 5.626,9.815C5.536,10.144 5.302,10.425 4.893,10.505C4.046,10.671 3.019,9.814 3.063,8.947C3.099,8.239 3.357,7.598 3.882,7.097C4.115,6.873 4.383,6.729 4.732,6.867C4.817,6.9 4.944,6.854 5.044,6.822C5.325,6.729 5.598,6.564 5.884,6.536C6.451,6.48 7.027,6.471 7.598,6.489C8.18,6.508 8.76,6.581 9.402,6.636C9.255,6.158 9.102,5.757 9.011,5.342C8.915,4.907 8.693,4.743 8.25,4.786C6.942,4.914 5.632,5.019 4.321,5.133C4.085,5.801 3.688,6.051 3.048,5.881C2.501,5.735 2.085,5.392 1.923,4.838C1.676,3.989 1.9,3.237 2.513,2.611C2.77,2.348 3.083,2.251 3.399,2.502C4.691,1.593 6.143,1.83 7.586,1.87C7.491,1.539 7.412,1.239 7.316,0.945C7.298,0.888 7.218,0.827 7.156,0.813C6.013,0.539 4.863,0.306 3.676,0.448C3.242,0.5 2.811,0.562 2.371,0.62C2.382,0.754 2.39,0.83 2.395,0.907C2.428,1.452 2.229,1.85 1.842,2.018C1.442,2.191 1.001,2.043 0.636,1.614C0.076,0.955 -0.054,-0.261 0.377,-1.003C0.596,-1.38 0.894,-1.646 1.379,-1.639C1.569,-1.637 1.767,-1.717 1.95,-1.786C2.169,-1.868 2.369,-2.036 2.59,-2.065C3.285,-2.156 3.984,-2.208 4.684,-2.257C5.025,-2.28 5.37,-2.261 5.766,-2.261C5.378,-3.001 5.019,-3.687 4.65,-4.39C3.867,-4.395 3.053,-4.179 2.372,-3.812C1.885,-3.55 1.38,-3.319 0.812,-3.039C0.826,-3.085 0.807,-3.024 0.789,-2.962C0.533,-2.06 -0.227,-1.855 -0.893,-2.507C-1.681,-3.278 -1.74,-4.86 -1.002,-5.664C-0.667,-6.029 -0.23,-6.329 0.237,-6.059C0.658,-5.816 0.977,-5.898 1.349,-6.065C1.465,-6.118 1.598,-6.136 1.726,-6.162C2.396,-6.299 3.067,-6.434 3.778,-6.577C3.724,-6.789 3.695,-6.955 3.639,-7.11C3.377,-7.832 2.848,-8.354 2.318,-8.88C1.475,-9.717 0.659,-9.96 -0.592,-8.967C-1.285,-8.417 -1.887,-7.716 -2.411,-6.996C-2.928,-6.288 -3.613,-5.637 -3.702,-4.72C-3.694,-4.708 -3.729,-4.757 -3.805,-4.86ZM-7.627,-8.596C-7.511,-8.743 -7.426,-8.877 -7.316,-8.984C-6.197,-10.074 -5.096,-11.184 -3.946,-12.241C-2.17,-13.873 -0.348,-15.455 1.103,-17.406C2.033,-18.657 2.614,-20.073 3.082,-21.543C3.132,-21.699 3.135,-21.923 3.059,-22.059C1.767,-24.35 0.514,-26.666 -0.86,-28.908C-2.057,-30.861 -3.382,-32.736 -4.676,-34.628C-5.17,-35.351 -5.734,-36.027 -6.242,-36.694C-6.34,-36.129 -6.383,-35.553 -6.544,-35.013C-6.875,-33.907 -7.265,-32.818 -7.637,-31.725C-8.08,-30.424 -8.33,-29.089 -8.486,-27.723C-8.623,-26.528 -9.059,-25.445 -10.146,-24.758C-11.813,-23.704 -13.637,-23.464 -15.553,-23.735C-16.1,-23.812 -16.642,-23.928 -17.177,-24.024C-17.245,-23.886 -17.295,-23.786 -17.345,-23.685C-17.36,-23.689 -17.375,-23.693 -17.391,-23.696C-17.37,-23.817 -17.349,-23.938 -17.322,-24.088C-17.568,-24.155 -17.797,-24.218 -18.006,-24.275C-18.119,-24.072 -18.204,-23.919 -18.289,-23.765C-18.31,-23.776 -18.329,-23.786 -18.349,-23.797C-18.281,-23.971 -18.214,-24.146 -18.146,-24.324C-18.598,-24.483 -19.013,-24.63 -19.43,-24.773C-20.808,-25.247 -22.178,-25.768 -23.655,-25.836C-24.997,-25.898 -26.252,-25.589 -27.058,-24.455C-27.697,-23.554 -28.144,-22.516 -28.695,-21.502C-27.096,-21.466 -25.645,-21.12 -24.329,-20.293C-24.275,-20.259 -24.194,-20.267 -24.125,-20.261C-23.84,-20.234 -23.519,-20.286 -23.276,-20.171C-21.793,-19.466 -21.995,-17.653 -22.683,-16.788C-23.244,-16.082 -24.877,-15.878 -25.205,-17.011C-26.768,-17.322 -28.327,-17.451 -29.798,-17.331C-30.137,-16.317 -30.452,-15.372 -30.784,-14.379C-29.994,-14.446 -29.231,-14.51 -28.47,-14.575C-27.598,-14.652 -26.728,-14.719 -25.918,-14.266C-25.858,-14.233 -25.765,-14.221 -25.701,-14.242C-25.148,-14.429 -24.768,-14.159 -24.445,-13.765C-23.563,-12.689 -23.94,-10.96 -25.189,-10.36C-25.646,-10.141 -26.14,-10.077 -26.569,-10.376C-26.788,-10.528 -26.97,-10.566 -27.207,-10.528C-27.36,-10.503 -27.518,-10.497 -27.674,-10.491C-28.65,-10.453 -29.627,-10.429 -30.604,-10.377C-31.99,-10.303 -31.99,-10.294 -32.474,-9.03C-32.481,-9.009 -32.473,-8.981 -32.47,-8.937C-31.293,-9.062 -30.128,-8.975 -28.975,-8.729C-28.586,-8.647 -28.209,-8.387 -27.802,-8.68C-27.756,-8.713 -27.675,-8.703 -27.61,-8.702C-26.239,-8.668 -25.245,-6.928 -25.933,-5.749C-26.464,-4.837 -27.29,-4.457 -28.324,-4.498C-28.772,-4.516 -29.18,-4.624 -29.313,-5.045C-30.021,-5.021 -30.682,-4.988 -31.343,-4.978C-32.007,-4.968 -32.672,-4.988 -33.337,-4.976C-33.481,-4.973 -33.705,-4.933 -33.756,-4.838C-34.007,-4.365 -34.211,-3.869 -34.436,-3.373C-33.816,-3.338 -33.255,-3.331 -32.699,-3.268C-32.145,-3.205 -31.583,-3.132 -31.048,-2.98C-30.589,-2.849 -30.228,-2.758 -29.724,-2.995C-28.801,-3.431 -27.607,-2.504 -27.503,-1.424C-27.371,-0.063 -28.839,1.226 -29.762,1.356C-30.576,1.47 -31.159,1.043 -31.302,0.226C-31.316,0.139 -31.335,0.053 -31.354,-0.042C-31.448,-0.047 -31.526,-0.059 -31.603,-0.053C-32.954,0.052 -34.305,0.157 -35.655,0.271C-35.729,0.277 -35.835,0.337 -35.863,0.4C-36.008,0.715 -36.131,1.038 -36.266,1.369C-36.091,1.369 -35.936,1.373 -35.781,1.368C-34.429,1.324 -33.128,1.484 -31.978,2.29C-31.887,2.354 -31.712,2.343 -31.591,2.311C-30.728,2.087 -29.824,2.671 -29.702,3.543C-29.56,4.572 -30.213,5.815 -31.146,6.285C-31.812,6.622 -32.436,6.452 -32.838,5.837C-32.885,5.765 -32.983,5.695 -33.067,5.681C-34.197,5.508 -35.327,5.338 -36.458,5.179C-37.517,5.03 -37.517,5.036 -37.917,6.011C-37.927,6.035 -37.927,6.062 -37.94,6.135C-37.271,6.284 -36.6,6.426 -35.932,6.585C-35.053,6.796 -34.187,7.033 -33.605,7.817C-33.561,7.877 -33.424,7.884 -33.328,7.889C-32.486,7.941 -31.901,8.542 -31.879,9.384C-31.843,10.745 -33.128,11.837 -34.518,11.65C-35.07,11.576 -35.438,11.306 -35.61,10.788C-35.669,10.611 -35.649,10.407 -35.666,10.213C-36.614,9.987 -37.554,9.761 -38.516,9.531C-38.497,9.842 -38.489,10.062 -38.469,10.281C-38.355,11.547 -38.128,12.8 -37.587,13.949C-36.846,15.526 -36.011,17.058 -35.21,18.621C-35.115,18.581 -35.029,18.551 -34.949,18.51C-31.432,16.724 -28.111,14.635 -25.072,12.106C-23.017,10.396 -21.199,8.468 -19.612,6.321C-17.74,3.785 -15.944,1.189 -13.985,-1.276C-12.089,-3.661 -10.025,-5.913 -8.042,-8.229C-7.901,-8.392 -7.81,-8.599 -7.712,-8.759C-7.723,-8.778 -7.695,-8.725 -7.627,-8.596ZM17.592,-3.792C18.867,-2.908 19.075,-1.544 18.194,0.286C19.195,0.589 19.814,1.284 20.033,2.285C20.242,3.239 20.151,4.178 19.601,5.08C20.591,5.286 21.306,5.812 21.676,6.742C22.02,7.604 22.264,8.476 21.824,9.43C22.022,9.468 22.196,9.492 22.365,9.536C23.897,9.938 24.692,11.055 25.202,12.454C25.253,12.593 25.363,12.738 25.485,12.817C26.669,13.579 27.706,14.462 28.126,15.881C28.239,16.263 28.439,16.571 28.785,16.802C29.573,17.332 30.313,17.939 31.131,18.417C31.693,18.746 32.352,18.909 32.967,19.148C33.293,19.275 33.638,19.369 33.94,19.537C36.464,20.942 37.608,23.126 37.447,25.976C37.374,27.26 37.2,28.544 36.984,29.813C36.758,31.143 35.905,32.05 34.668,32.495C33.436,32.938 32.162,33.288 30.886,33.591C27.79,34.326 24.647,34.8 21.486,35.15C18.924,35.433 16.354,35.372 13.788,35.212C11.928,35.096 10.069,34.954 8.214,34.778C6.878,34.651 5.553,34.43 4.299,33.911C2.725,33.26 1.598,32.137 0.808,30.645C-0.073,28.983 -0.478,27.178 -0.717,25.342C-0.882,24.079 -1.558,23.28 -2.684,22.855C-4.599,22.133 -6.325,21.071 -8.072,20.034C-9.068,19.444 -10.106,18.925 -11.117,18.358C-12.444,17.614 -13.15,16.426 -13.501,14.984C-13.896,13.358 -13.89,11.703 -13.887,10.047C-13.887,9.725 -13.932,9.403 -13.963,9.081C-14.035,8.34 -14.157,7.597 -13.499,7.009C-13.4,6.921 -13.425,6.694 -13.393,6.531C-13.422,6.514 -13.451,6.497 -13.479,6.48C-13.784,6.882 -14.094,7.281 -14.392,7.688C-16.172,10.123 -17.649,12.744 -19.116,15.374C-20.901,18.576 -23.004,21.544 -25.691,24.066C-27.739,25.987 -30.017,27.582 -32.502,28.88C-35.699,30.55 -39.042,31.847 -42.539,32.739C-45.474,33.487 -48.466,33.579 -51.468,33.48C-52.176,33.456 -52.891,33.311 -53.58,33.135C-54.914,32.794 -55.904,31.957 -56.543,30.757C-57.945,28.119 -58.714,25.321 -58.504,22.306C-58.432,21.269 -58.095,20.305 -57.716,19.339C-57.079,17.714 -55.976,16.427 -54.892,15.11C-54.247,14.327 -53.714,13.451 -53.061,12.677C-52.173,11.626 -51.245,10.605 -50.283,9.621C-49.265,8.579 -48.187,7.595 -47.127,6.579C-47.407,6.132 -47.287,5.759 -47.01,5.402C-46.545,4.803 -45.994,4.364 -45.194,4.322C-45.08,4.316 -44.955,4.195 -44.868,4.097C-44.67,3.875 -44.492,3.634 -44.291,3.382C-44.391,3.239 -44.464,3.101 -44.567,2.991C-45.106,2.413 -45.091,1.758 -44.783,1.103C-44.62,0.756 -44.377,0.435 -44.12,0.146C-43.727,-0.298 -43.229,-0.418 -42.659,-0.166C-42.361,-0.898 -42.061,-1.616 -41.783,-2.344C-41.75,-2.43 -41.812,-2.589 -41.88,-2.672C-42.313,-3.191 -42.35,-3.531 -42.033,-4.134C-41.84,-4.503 -41.665,-4.882 -41.483,-5.257C-41.312,-5.613 -41.065,-5.872 -40.664,-5.981C-40.546,-6.013 -40.419,-6.157 -40.373,-6.279C-40.199,-6.74 -40.057,-7.214 -39.894,-7.71C-40.428,-8.118 -40.448,-8.672 -40.246,-9.276C-40.114,-9.671 -40.008,-10.076 -39.85,-10.46C-39.68,-10.868 -39.494,-11.288 -38.94,-11.305C-38.888,-11.306 -38.813,-11.39 -38.791,-11.45C-38.667,-11.805 -38.556,-12.164 -38.436,-12.533C-38.501,-12.577 -38.552,-12.616 -38.606,-12.648C-39.355,-13.07 -39.562,-13.572 -39.263,-14.375C-39.063,-14.91 -38.817,-15.429 -38.584,-15.951C-38.449,-16.251 -38.453,-16.511 -38.58,-16.839C-39.133,-18.262 -38.869,-19.615 -38.039,-20.847C-37.628,-21.457 -37.317,-21.506 -36.32,-21.417C-36.156,-21.858 -35.99,-22.306 -35.821,-22.754C-35.43,-23.792 -34.979,-24.798 -34.264,-25.663C-33.296,-26.831 -32.043,-27.039 -30.836,-26.292C-30.205,-26.634 -29.642,-27.013 -29.024,-27.259C-27.955,-27.685 -26.822,-27.624 -25.705,-27.481C-25.219,-27.419 -24.74,-27.271 -24.271,-27.124C-24.08,-27.065 -23.853,-26.945 -23.762,-26.784C-23.55,-26.41 -23.229,-26.357 -22.858,-26.311C-22.434,-26.258 -22.016,-26.146 -21.595,-26.064C-21.506,-26.046 -21.409,-26.024 -21.324,-26.043C-19.393,-26.46 -17.597,-27.141 -16.279,-28.714C-15.608,-29.515 -15.174,-30.449 -14.85,-31.431C-14.552,-32.332 -14.332,-33.26 -14.028,-34.159C-13.259,-36.435 -11.743,-37.937 -9.377,-38.515C-8.477,-38.736 -7.098,-38.345 -6.588,-37.46C-6.356,-37.058 -5.914,-36.78 -5.579,-36.435C-4.122,-34.932 -2.858,-33.267 -1.733,-31.514C-0.378,-29.4 0.891,-27.227 2.133,-25.044C2.632,-24.167 3.154,-23.227 3.318,-22.257C3.543,-20.926 4.184,-19.821 4.726,-18.649C5.33,-17.342 5.854,-16.01 5.767,-14.529C5.747,-14.185 5.662,-13.845 5.601,-13.469C6.019,-13.49 6.404,-13.522 6.791,-13.525C7.816,-13.531 8.836,-13.454 9.738,-12.916C10.095,-12.703 10.411,-12.391 10.68,-12.069C11.004,-11.679 11.322,-11.354 11.846,-11.217C12.64,-11.009 13.347,-10.62 13.829,-9.914C13.873,-9.849 13.914,-9.782 13.96,-9.71C14.353,-9.985 14.684,-10.232 15.031,-10.452C15.182,-10.548 15.362,-10.607 15.536,-10.649C16.135,-10.793 16.568,-10.491 16.636,-9.874C16.687,-9.407 16.691,-8.936 16.744,-8.47C16.759,-8.336 16.833,-8.155 16.938,-8.094C18.235,-7.34 18.59,-4.769 17.592,-3.792Z" style="fill:none;fill-rule:nonzero;stroke:rgb(37,37,37);stroke-width:0.35px;"/>
    </g>
</svg>
