<?xml version="1.0" encoding="UTF-8" standalone="no"?>
<!DOCTYPE svg PUBLIC "-//W3C//DTD SVG 1.1//EN" "http://www.w3.org/Graphics/SVG/1.1/DTD/svg11.dtd">
<svg width="100%" height="100%" viewBox="0 0 821 620" version="1.1" xmlns="http://www.w3.org/2000/svg" xmlns:xlink="http://www.w3.org/1999/xlink" xml:space="preserve" xmlns:serif="http://www.serif.com/" style="fill-rule:evenodd;clip-rule:evenodd;stroke-linejoin:round;stroke-miterlimit:2;">
    <g transform="matrix(8.33333,0,0,8.33333,803.017,509.23)">
        <path d="M0,-47.725C-0.14,-47.901 -0.293,-48.2 -0.375,-48.182C-0.735,-48.101 -1.17,-48.02 -1.408,-47.775C-3.557,-45.567 -5.691,-43.345 -7.785,-41.086C-9.535,-39.197 -11.237,-37.262 -12.937,-35.327C-13.845,-34.294 -14.623,-33.135 -15.6,-32.175C-19.016,-28.819 -22.495,-25.527 -25.946,-22.206C-26.966,-21.225 -27.856,-20.064 -29.001,-19.263C-34.687,-15.282 -38.985,-9.867 -43.863,-5.053C-44.029,-4.89 -43.956,-4.485 -43.994,-4.193C-43.698,-4.231 -43.314,-4.164 -43.122,-4.325C-42.26,-5.045 -41.289,-5.714 -40.653,-6.61C-38.188,-10.084 -35.063,-12.877 -31.856,-15.623C-28.913,-18.143 -26.228,-20.975 -23.197,-23.378C-19.535,-26.282 -16.499,-29.753 -13.404,-33.19C-10.982,-35.879 -8.603,-38.605 -6.152,-41.267C-4.264,-43.319 -2.293,-45.297 -0.36,-47.309C-0.249,-47.426 -0.148,-47.553 0,-47.725M-11.838,-45.772C-13.843,-46.244 -15.45,-46.592 -17.042,-47.003C-21.067,-48.043 -25.088,-49.102 -29.105,-50.173C-30.632,-50.579 -32.121,-51.166 -33.668,-51.452C-37.923,-52.238 -42.199,-52.914 -46.471,-53.61C-46.803,-53.665 -47.254,-53.657 -47.498,-53.475C-48.564,-52.68 -49.601,-51.842 -50.598,-50.962C-52.525,-49.26 -54.459,-47.562 -56.311,-45.779C-57.421,-44.71 -58.381,-43.485 -59.646,-42.064C-56.066,-41.1 -52.861,-40.252 -49.665,-39.372C-45.411,-38.201 -41.171,-36.982 -36.912,-35.829C-34.221,-35.1 -31.487,-34.521 -28.811,-33.742C-27.346,-33.315 -26.381,-33.085 -24.974,-34.457C-21.712,-37.639 -18.007,-40.366 -14.499,-43.299C-13.662,-44 -12.896,-44.785 -11.838,-45.772M-92.873,-16.708C-91.624,-14.29 -91.859,-12.02 -92.365,-9.838C-92.874,-7.646 -93.744,-5.538 -94.501,-3.258C-94.264,-3.214 -93.88,-3.138 -93.495,-3.069C-91.816,-2.771 -90.135,-2.489 -88.46,-2.173C-87.107,-1.918 -85.764,-1.622 -84.415,-1.348C-79.691,-0.386 -74.927,0.425 -70.465,2.37C-69.548,2.769 -68.644,3.2 -67.711,3.561C-65.271,4.508 -62.813,5.407 -60.376,6.36C-58.868,6.949 -57.413,7.687 -55.883,8.202C-54.31,8.732 -52.654,9.013 -51.069,9.512C-49.46,10.018 -47.894,10.657 -46.349,11.223C-45.923,10.49 -45.528,9.905 -45.228,9.275C-43.988,6.683 -42.611,4.121 -42.464,1.171C-42.379,-0.528 -42.889,-2.245 -44.307,-3.127C-45.938,-4.141 -47.856,-4.727 -49.696,-5.365C-51.698,-6.059 -53.757,-6.589 -55.785,-7.207C-59.521,-8.345 -63.226,-9.589 -66.991,-10.614C-71.16,-11.749 -75.387,-12.672 -79.579,-13.721C-82.4,-14.426 -85.195,-15.237 -88.023,-15.908C-89.504,-16.259 -91.032,-16.412 -92.873,-16.708M-96.237,-2.33C-95.264,-5.048 -94.24,-7.579 -93.474,-10.186C-93.119,-11.392 -93.108,-12.762 -93.242,-14.026C-93.331,-14.867 -93.921,-15.668 -94.345,-16.455C-94.651,-17.024 -95.054,-17.542 -95.449,-18.135C-95.635,-18.058 -95.918,-17.939 -96.362,-17.754C-96.309,-18.089 -96.346,-18.333 -96.244,-18.426C-92.925,-21.484 -89.592,-24.527 -86.263,-27.574C-83.527,-30.078 -80.765,-32.553 -78.066,-35.097C-73.153,-39.73 -68.157,-44.284 -63.427,-49.098C-59.73,-52.859 -55.701,-56.207 -51.779,-59.698C-50.157,-61.142 -48.856,-61.339 -46.847,-60.902C-43.354,-60.143 -39.715,-60.048 -36.228,-59.269C-31.929,-58.309 -27.674,-57.079 -23.488,-55.7C-18.801,-54.157 -14.006,-53.12 -9.21,-52.04C-7.8,-51.723 -6.465,-51.082 -5.083,-50.628C-3.787,-50.202 -2.487,-49.775 -1.164,-49.45C-0.188,-49.21 0.607,-48.951 0.481,-47.7C0.455,-47.44 0.656,-47.153 0.77,-46.885C3.062,-41.453 2.32,-36.465 -1.474,-31.96C-2.528,-30.707 -3.406,-29.28 -4.963,-28.491C-5.485,-28.226 -5.846,-27.626 -6.259,-27.161C-8.468,-24.673 -10.653,-22.163 -12.88,-19.691C-14.271,-18.146 -15.694,-16.626 -17.151,-15.143C-18.985,-13.275 -20.947,-11.528 -22.712,-9.598C-25.433,-6.624 -28,-3.509 -30.696,-0.512C-32.112,1.062 -33.599,2.585 -35.169,4.004C-37.913,6.482 -40.75,8.858 -43.536,11.291C-43.777,11.502 -44,11.795 -44.103,12.093C-44.451,13.108 -45.37,13.614 -46.268,13.064C-49.042,11.365 -52.094,10.488 -55.215,9.703C-56.935,9.27 -58.569,8.483 -60.223,7.808C-64.651,5.999 -68.985,3.907 -73.519,2.418C-77.452,1.127 -81.606,0.508 -85.662,-0.41C-86.435,-0.585 -87.197,-0.811 -87.978,-0.94C-90.516,-1.36 -93.06,-1.744 -95.601,-2.15C-95.832,-2.187 -96.054,-2.277 -96.237,-2.33" style="fill:rgb(37,37,37);fill-rule:nonzero;"/>
    </g>
    <g transform="matrix(8.33333,0,0,8.33333,398.973,121.32)">
        <path d="M0,-1.492C0.042,-1.369 0.085,-1.246 0.127,-1.124C0.5,-1.057 0.901,-0.867 1.24,-0.946C2.402,-1.219 3.571,-1.516 4.677,-1.957C5.051,-2.106 5.245,-2.708 5.521,-3.104C4.884,-3.472 3.996,-4.309 3.653,-4.126C2.341,-3.426 1.203,-2.398 0,-1.492M-4.229,2.864C-3.903,3.093 -3.759,3.257 -3.58,3.311C-2.272,3.708 0.207,2.815 0.848,1.622C1.031,1.28 0.989,0.466 0.766,0.327C0.22,-0.014 -0.764,-0.447 -1.09,-0.201C-2.225,0.651 -3.155,1.776 -4.229,2.864M-5.85,3.684C-5.56,3.112 -5.45,2.611 -5.142,2.332C-2.493,-0.061 0.214,-2.388 2.848,-4.796C3.532,-5.421 4.046,-5.843 4.748,-4.914C4.82,-4.819 4.973,-4.784 5.045,-4.69C5.554,-4.017 6.56,-3.208 6.429,-2.688C6.254,-1.994 5.263,-1.393 4.497,-0.992C3.717,-0.584 2.783,-0.468 1.944,-0.231C2.115,2.325 -0.33,4.351 -3.179,4.115C-3.95,4.051 -4.712,3.872 -5.85,3.684" style="fill:rgb(37,37,37);fill-rule:nonzero;"/>
    </g>
    <g transform="matrix(8.33333,0,0,8.33333,597.353,203.903)">
        <path d="M0,-8.337C-0.549,-7.672 -1.03,-7.089 -1.512,-6.507C-1.486,-6.407 -1.462,-6.306 -1.437,-6.206C0.407,-6.442 2.252,-6.679 4.097,-6.915C4.111,-6.763 4.127,-6.611 4.142,-6.459C2.511,-6.158 0.887,-5.811 -0.753,-5.575C-1.588,-5.455 -1.924,-5.127 -1.821,-4.28C-1.66,-2.936 -1.552,-1.585 -1.414,-0.169C-2.072,0.111 -2.465,-0.079 -2.573,-1.021C-2.665,-1.806 -2.624,-2.605 -2.678,-3.395C-2.708,-3.839 -2.81,-4.278 -2.88,-4.72C-3.011,-4.795 -3.142,-4.87 -3.272,-4.945C-4.352,-3.605 -5.431,-2.264 -6.674,-0.719C-6.797,-2.593 -1.525,-8.448 0,-8.337" style="fill:rgb(37,37,37);fill-rule:nonzero;"/>
    </g>
    <g transform="matrix(8.33333,0,0,8.33333,448.508,114.784)">
        <path d="M0,5.345C1.725,4.311 3.127,3.589 4.374,2.66C4.823,2.326 4.903,1.494 5.151,0.889C4.536,0.875 3.904,0.768 3.311,0.874C2.752,0.973 2.124,1.178 1.721,1.547C0.939,2.262 0.254,3.095 -0.372,3.95C-0.503,4.129 -0.207,4.62 0,5.345M0.025,5.653C-1.143,5.801 -1.452,5.146 -1.285,4.219C-1.186,3.666 -1.004,2.961 -0.606,2.66C0.802,1.597 2.259,0.559 3.83,-0.222C4.302,-0.456 5.368,-0.001 5.87,0.458C6.506,1.041 6.138,1.849 5.611,2.47C4.127,4.219 2.204,5.194 0.025,5.653" style="fill:rgb(37,37,37);fill-rule:nonzero;"/>
    </g>
    <g transform="matrix(8.33333,0,0,8.33333,505.141,128.607)">
        <path d="M0,4.716C1.771,4.398 3.384,3.677 4.425,2.078C4.646,1.739 4.665,1.071 4.473,0.723C4.315,0.437 3.623,0.177 3.311,0.291C1.599,0.92 0.113,1.912 -0.813,3.544C-1.236,4.29 -0.909,4.741 0,4.716M-0.003,5.444C-1.688,5.353 -2.388,4.344 -1.482,3.279C-0.271,1.854 1.227,0.615 2.789,-0.419C3.256,-0.728 4.66,-0.325 5.073,0.196C5.461,0.686 5.403,1.952 5.024,2.547C3.836,4.411 1.897,5.172 -0.003,5.444" style="fill:rgb(37,37,37);fill-rule:nonzero;"/>
    </g>
</svg>
