<?xml version="1.0" encoding="UTF-8" standalone="no"?>
<!DOCTYPE svg PUBLIC "-//W3C//DTD SVG 1.1//EN" "http://www.w3.org/Graphics/SVG/1.1/DTD/svg11.dtd">
<svg width="100%" height="100%" viewBox="0 0 624 410" version="1.1" xmlns="http://www.w3.org/2000/svg" xmlns:xlink="http://www.w3.org/1999/xlink" xml:space="preserve" xmlns:serif="http://www.serif.com/" style="fill-rule:evenodd;clip-rule:evenodd;stroke-linejoin:round;stroke-miterlimit:2;">
    <g transform="matrix(8.33333,0,0,8.33333,490.669,387.333)">
        <path d="M0,-11.212C0.967,-10.946 1.095,-10.528 0.372,-9.852C-1.402,-8.19 -3.415,-6.913 -5.757,-6.199C-6.127,-6.086 -6.429,-6.025 -6.492,-5.499C-6.531,-5.172 -6.923,-4.871 -7.191,-4.592C-9.186,-2.521 -11.585,-1.286 -14.482,-1.086C-15.181,-1.037 -15.658,-1.076 -15.802,-2.013C-15.968,-3.098 -16.785,-3.822 -17.857,-4.119C-18.968,-4.427 -20.03,-4.278 -20.897,-3.447C-21.85,-2.534 -21.672,-0.772 -20.549,0.306C-18.912,1.877 -15.838,1.654 -14.387,-0.094C-14.205,-0.313 -13.75,-0.306 -13.422,-0.404C-13.396,-0.077 -13.235,0.331 -13.373,0.558C-13.641,0.996 -14.027,1.4 -14.449,1.697C-16.19,2.922 -19.029,2.916 -20.796,1.733C-22.914,0.314 -23.343,-2.19 -21.826,-4.413C-22.163,-5.091 -22.437,-5.829 -22.864,-6.464C-23.976,-8.113 -26.38,-8.197 -27.504,-6.574C-28.361,-5.336 -28.812,-3.96 -27.961,-2.46C-27.125,-0.988 -25.803,-0.534 -24.229,-0.538C-24.09,-0.539 -23.916,-0.636 -23.82,-0.581C-23.543,-0.421 -23.297,-0.206 -23.039,-0.013C-23.269,0.216 -23.471,0.606 -23.733,0.652C-27.638,1.337 -30.69,-2.284 -29.335,-5.96C-28.86,-7.249 -29.526,-8.933 -30.929,-9.987C-32.187,-10.932 -33.423,-10.918 -34.69,-9.943C-35.685,-9.178 -36.198,-7.043 -35.711,-5.7C-35.257,-4.45 -33.928,-3.669 -32.411,-3.781C-32.052,-3.807 -31.687,-3.975 -31.343,-3.933C-31.05,-3.897 -30.782,-3.653 -30.503,-3.501C-30.69,-3.236 -30.832,-2.799 -31.073,-2.735C-32.811,-2.275 -34.478,-2.433 -35.856,-3.704C-37.21,-4.952 -37.392,-6.55 -36.997,-8.257C-36.897,-8.689 -36.767,-9.13 -36.559,-9.517C-36.172,-10.24 -36.347,-10.863 -36.778,-11.468C-38.035,-13.229 -40.63,-13.095 -41.683,-11.219C-43.216,-8.488 -41.91,-6.026 -38.757,-5.704C-38.563,-5.684 -38.311,-5.759 -38.183,-5.662C-37.948,-5.483 -37.684,-5.228 -37.636,-4.968C-37.61,-4.832 -38.002,-4.489 -38.237,-4.455C-41.621,-3.961 -44.392,-7.258 -43.348,-10.552C-42.795,-12.298 -41.811,-13.697 -39.813,-13.909C-37.687,-14.134 -36.146,-13.216 -35.172,-11.223C-33.79,-12.007 -32.351,-12.229 -30.892,-11.464C-29.489,-10.73 -28.63,-9.514 -28.006,-7.998C-26.625,-8.936 -25.168,-9.368 -23.593,-8.669C-22.078,-7.996 -21.291,-6.707 -20.866,-5.185C-16.975,-5.752 -16.046,-5.341 -14.438,-2.349C-11.898,-2.58 -9.791,-3.664 -8.127,-5.485C-9.763,-5.764 -11.405,-5.982 -13.017,-6.341C-14.037,-6.568 -15.05,-6.923 -15.997,-7.368C-17.308,-7.984 -18.555,-8.736 -19.826,-9.438C-20.259,-9.676 -20.868,-9.897 -20.544,-10.537C-20.21,-11.196 -19.702,-10.811 -19.26,-10.57C-17.937,-9.848 -16.647,-9.054 -15.281,-8.426C-12.948,-7.353 -10.481,-6.704 -7.9,-7.044C-4.898,-7.439 -2.368,-8.837 -0.318,-11.079C-0.212,-11.124 -0.106,-11.168 0,-11.212" style="fill:rgb(37,37,37);fill-rule:nonzero;"/>
    </g>
    <g transform="matrix(8.33333,0,0,8.33333,65.3527,268.636)">
        <path d="M0,-26.016C-2.233,-19.952 -4.429,-13.992 -6.585,-8.137C-6.375,-7.884 -6.336,-7.792 -6.27,-7.764C-3.19,-6.474 -0.609,-4.43 1.977,-2.381C3.309,-1.326 4.725,-0.375 6.128,0.585C6.534,0.863 6.824,1.191 6.506,1.58C6.353,1.768 5.734,1.823 5.512,1.669C3.677,0.401 1.853,-0.886 0.089,-2.251C-2.192,-4.017 -4.49,-5.74 -7.222,-6.761C-7.95,-7.033 -7.922,-7.523 -7.716,-8.108C-6.09,-12.736 -4.479,-17.37 -2.829,-21.99C-2.314,-23.433 -1.697,-24.84 -1.127,-26.263C-0.646,-27.462 -0.59,-27.51 0.667,-27.132C2.001,-26.73 3.342,-26.332 4.642,-25.833C9.21,-24.081 13.829,-24.302 18.481,-25.391C19.078,-25.53 19.705,-25.615 20.259,-25.86C22.522,-26.863 24.771,-26.615 27.039,-25.911C27.292,-25.832 27.71,-25.814 27.865,-25.963C29.329,-27.369 31.093,-27.297 32.903,-27.081C34.233,-26.922 35.563,-26.75 36.898,-26.648C38.426,-26.531 39.902,-26.79 41.3,-27.442C41.721,-27.639 42.198,-27.839 42.447,-27.27C42.715,-26.657 42.202,-26.445 41.758,-26.245C39.507,-25.228 37.158,-25.222 34.773,-25.559C33.806,-25.696 32.834,-25.801 31.866,-25.938C30.052,-26.195 28.818,-25.39 27.947,-23.858C26.612,-21.509 25.262,-19.17 23.911,-16.829C22.842,-14.976 23.21,-14.183 25.317,-13.731C27.073,-13.354 28.564,-13.959 29.95,-14.937C31.667,-16.15 32.926,-17.788 34.079,-19.515C34.266,-19.794 34.389,-20.142 34.634,-20.344C34.829,-20.505 35.235,-20.622 35.421,-20.522C35.604,-20.423 35.79,-19.928 35.697,-19.778C33.688,-16.538 31.516,-13.437 27.501,-12.475C26.203,-12.163 24.883,-12.363 23.655,-12.941C22.204,-13.625 21.659,-14.849 22.277,-16.324C22.651,-17.215 23.234,-18.019 23.723,-18.863C24.809,-20.742 25.893,-22.621 27.025,-24.581C25.032,-25.108 23.291,-25.542 21.316,-24.89C17.26,-23.55 13.052,-22.794 8.78,-23.517C6.489,-23.905 4.275,-24.749 2.028,-25.393C1.416,-25.569 0.809,-25.767 0,-26.016" style="fill:rgb(37,37,37);fill-rule:nonzero;"/>
    </g>
    <g transform="matrix(8.33333,0,0,8.33333,516.337,199.778)">
        <path d="M0,-22.66C-3.126,-21.294 -5.878,-20.089 -8.633,-18.892C-8.835,-18.804 -9.077,-18.682 -9.269,-18.723C-9.552,-18.784 -9.807,-18.977 -10.074,-19.113C-9.922,-19.374 -9.83,-19.77 -9.605,-19.87C-8.819,-20.222 -7.953,-20.4 -7.18,-20.774C-5.173,-21.744 -3.208,-22.802 -1.202,-23.776C-0.855,-23.945 -0.299,-24.056 0,-23.895C3.526,-21.992 6.953,-19.904 9.593,-16.834C10.796,-15.435 11.672,-13.753 12.675,-12.185C13.094,-11.529 12.91,-10.925 12.444,-10.342C10.074,-7.374 7.721,-4.393 5.354,-1.422C4.727,-0.636 4.109,0.163 3.414,0.885C3.145,1.164 2.667,1.396 2.287,1.391C0.189,1.363 -1.78,0.729 -3.688,-0.083C-8.513,-2.139 -12.898,-4.862 -16.5,-8.733C-16.915,-9.179 -17.293,-9.681 -17.578,-10.216C-17.69,-10.427 -17.5,-10.799 -17.448,-11.097C-17.137,-11.015 -16.696,-11.038 -16.531,-10.836C-12.028,-5.312 -6.183,-1.939 0.607,-0.065C1.007,0.046 1.433,0.129 1.843,0.114C2.132,0.103 2.515,-0.014 2.684,-0.223C5.553,-3.756 8.392,-7.314 11.249,-10.857C11.578,-11.264 11.568,-11.618 11.354,-12.077C10.266,-14.402 8.672,-16.351 6.675,-17.905C4.413,-19.665 2.008,-21.241 0,-22.66" style="fill:rgb(37,37,37);fill-rule:nonzero;"/>
    </g>
    <g transform="matrix(8.33333,0,0,8.33333,490.669,214.791)">
        <path d="M0,9.493C-0.106,9.537 -0.212,9.581 -0.318,9.626C-3.878,11.011 -7.345,10.383 -10.754,9.085C-12.968,8.242 -15.141,7.292 -17.33,6.386C-17.759,6.209 -18.217,5.992 -17.958,5.416C-17.699,4.839 -17.235,5.068 -16.81,5.231C-13.739,6.404 -10.712,7.711 -7.585,8.705C-4.097,9.815 -0.874,9.015 2.104,6.556C0.017,6.679 -1.835,6.321 -3.642,5.676C-6.955,4.493 -9.911,2.64 -12.873,0.796C-13.442,0.442 -14.003,0.075 -14.576,-0.271C-15.007,-0.531 -15.342,-0.909 -14.974,-1.332C-14.813,-1.518 -14.178,-1.501 -13.895,-1.338C-11.552,0.015 -9.269,1.473 -6.912,2.802C-4.916,3.928 -2.809,4.823 -0.52,5.195C2.25,5.645 4.555,4.872 6.282,2.593C6.417,2.415 6.51,2.153 6.687,2.071C6.97,1.941 7.308,1.93 7.623,1.869C7.656,2.165 7.816,2.532 7.698,2.743C7.416,3.249 7.043,3.72 6.635,4.134C5.746,5.038 4.87,5.972 3.882,6.757C2.645,7.741 1.299,8.587 0,9.493" style="fill:rgb(37,37,37);fill-rule:nonzero;"/>
    </g>
</svg>
