<?xml version="1.0" encoding="UTF-8" standalone="no"?>
<!DOCTYPE svg PUBLIC "-//W3C//DTD SVG 1.1//EN" "http://www.w3.org/Graphics/SVG/1.1/DTD/svg11.dtd">
<svg width="100%" height="100%" viewBox="0 0 383 451" version="1.1" xmlns="http://www.w3.org/2000/svg" xmlns:xlink="http://www.w3.org/1999/xlink" xml:space="preserve" xmlns:serif="http://www.serif.com/" style="fill-rule:evenodd;clip-rule:evenodd;stroke-linejoin:round;stroke-miterlimit:2;">
    <g transform="matrix(8.33333,0,0,8.33333,154.893,232.854)">
        <path d="M0,-27.322C-1.196,-22.607 -3.287,-18.694 -6.508,-15.043C-6.642,-14.891 -6.683,-14.644 -6.556,-14.475C-3.216,-10.039 -0.992,-5.175 0.184,0.246C0.336,0.948 1.555,0.579 1.645,0.006C2.252,-3.85 3.39,-7.548 5.33,-10.948C6.146,-12.377 8.946,-14.71 8.876,-16.524C8.823,-17.867 7.418,-19.12 6.603,-20.026C4.476,-22.39 2.353,-24.208 1.936,-27.559C1.848,-28.27 0.396,-27.906 0.487,-27.17C0.758,-24.996 1.551,-23.582 2.947,-21.885C3.664,-21.014 4.629,-20.285 5.281,-19.369C6.843,-17.176 6.916,-16.393 5.846,-14.114C3.562,-9.246 1.036,-5.391 0.172,0.097C0.658,0.017 1.146,-0.062 1.633,-0.143C1.047,-2.843 0.268,-5.458 -0.877,-7.979C-1.77,-9.947 -4.286,-12.71 -4.234,-14.789C-4.187,-16.7 -1.981,-18.787 -1.052,-20.547C0.108,-22.745 0.865,-25.016 1.474,-27.413C1.659,-28.147 0.172,-27.999 0,-27.322" style="fill:rgb(37,37,37);fill-rule:nonzero;"/>
    </g>
    <g transform="matrix(8.33333,0,0,8.33333,337.234,332.702)">
        <path d="M0,-16.87C-0.952,-13.647 -2.529,-10.717 -5.745,-9.282C-6.012,-9.163 -6.399,-8.755 -6.005,-8.518C-2.702,-6.537 -1.034,-3.291 -1.337,0.538C-0.851,0.491 -0.364,0.445 0.123,0.398C0.215,-3.433 1.932,-6.58 5.226,-8.624C5.479,-8.782 5.597,-9.1 5.323,-9.297C2.591,-11.267 1.104,-14.031 0.983,-17.402C0.959,-18.101 -0.497,-17.834 -0.477,-17.262C-0.413,-15.491 -0.109,-13.883 0.737,-12.297C1.262,-11.315 3.471,-9.693 3.414,-8.646C3.383,-8.065 0.834,-6.188 0.369,-5.453C-0.788,-3.622 -1.285,-1.619 -1.337,0.538C-1.354,1.231 0.077,0.978 0.123,0.398C0.446,-3.696 -1.348,-7.184 -4.873,-9.298C-4.959,-9.044 -5.046,-8.789 -5.132,-8.535C-1.513,-10.15 0.368,-13.313 1.46,-17.01C1.641,-17.622 0.168,-17.44 0,-16.87" style="fill:rgb(37,37,37);fill-rule:nonzero;"/>
    </g>
    <g transform="matrix(8.33333,0,0,8.33333,36.8102,443.731)">
        <path d="M0,-12.026C-0.661,-9.786 -1.753,-7.722 -3.989,-6.724C-4.256,-6.605 -4.644,-6.197 -4.248,-5.96C-1.92,-4.564 -0.743,-2.273 -0.956,0.427C-0.47,0.38 0.018,0.334 0.504,0.287C0.568,-2.412 1.757,-4.626 4.079,-6.067C4.333,-6.224 4.451,-6.542 4.178,-6.739C2.258,-8.124 1.205,-10.078 1.12,-12.447C1.095,-13.146 -0.36,-12.878 -0.34,-12.307C-0.245,-9.644 0.885,-7.518 3.046,-5.959C3.078,-6.183 3.111,-6.408 3.145,-6.632C0.6,-5.054 -0.884,-2.588 -0.956,0.427C-0.973,1.12 0.458,0.867 0.504,0.287C0.738,-2.68 -0.562,-5.208 -3.116,-6.741C-3.203,-6.486 -3.29,-6.232 -3.376,-5.977C-0.727,-7.159 0.66,-9.458 1.46,-12.166C1.641,-12.778 0.169,-12.597 0,-12.026" style="fill:rgb(37,37,37);fill-rule:nonzero;"/>
    </g>
</svg>
