<?xml version="1.0" encoding="UTF-8" standalone="no"?>
<!DOCTYPE svg PUBLIC "-//W3C//DTD SVG 1.1//EN" "http://www.w3.org/Graphics/SVG/1.1/DTD/svg11.dtd">
<svg width="100%" height="100%" viewBox="0 0 1047 415" version="1.1" xmlns="http://www.w3.org/2000/svg" xmlns:xlink="http://www.w3.org/1999/xlink" xml:space="preserve" xmlns:serif="http://www.serif.com/" style="fill-rule:evenodd;clip-rule:evenodd;stroke-linejoin:round;stroke-miterlimit:2;">
    <g transform="matrix(8.33333,0,0,8.33333,788.336,98.6109)">
        <path d="M0,26.221C0.004,26.164 0.009,26.107 0.014,26.05C-0.643,25.906 -1.3,25.763 -1.956,25.619C-1.969,25.684 -1.982,25.75 -1.996,25.815C-1.33,25.95 -0.665,26.086 0,26.221M-31,0.748C-30.953,0.791 -30.907,0.834 -30.861,0.876C-30.301,0.305 -29.739,-0.265 -29.179,-0.836C-29.239,-0.893 -29.3,-0.949 -29.359,-1.006L-31,0.748ZM-19.701,8.058C-19.622,8.117 -19.543,8.177 -19.464,8.235C-18.999,7.613 -18.533,6.99 -18.068,6.367C-18.144,6.311 -18.219,6.256 -18.294,6.2C-18.763,6.82 -19.231,7.439 -19.701,8.058M-71.867,-8.308C-72.046,-8.253 -72.232,-8.195 -72.372,-8.152C-72.069,-7.335 -71.789,-6.58 -71.509,-5.825C-70.948,-6.166 -71.053,-6.9 -71.867,-8.308M-53.355,-8.184C-53.913,-7.321 -54.388,-6.585 -54.916,-5.768C-53.525,-5.456 -53.595,-6.872 -52.817,-7.217C-52.992,-7.532 -53.135,-7.787 -53.355,-8.184M-67.641,-9.139C-68.178,-9.132 -68.503,-9.026 -68.331,-8.383C-68.236,-8.025 -68.324,-7.621 -68.311,-7.238C-68.303,-7.022 -68.258,-6.807 -68.228,-6.577C-67.392,-6.819 -67.137,-8.072 -67.641,-9.139M-61.618,30.01C-60.884,30.192 -60.426,30.119 -60.173,29.467C-60.076,29.217 -59.866,28.997 -59.669,28.804C-59.386,28.528 -59.183,28.217 -59.566,27.949C-59.708,27.85 -60.164,27.972 -60.301,28.138C-60.768,28.707 -61.157,29.34 -61.618,30.01M-70.702,-8.61C-70.533,-7.912 -70.394,-7.269 -70.214,-6.637C-70.17,-6.486 -69.991,-6.373 -69.874,-6.243C-69.751,-6.388 -69.573,-6.513 -69.513,-6.681C-69.229,-7.47 -69.453,-8.21 -69.778,-8.938C-70.065,-8.836 -70.343,-8.737 -70.702,-8.61M-62.159,-6.848C-61.718,-6.648 -61.408,-6.744 -61.267,-7.225C-61.099,-7.797 -60.897,-8.363 -60.784,-8.946C-60.75,-9.124 -60.94,-9.512 -61.055,-9.523C-61.352,-9.552 -61.675,-9.509 -61.733,-9.039C-61.823,-8.317 -62.007,-7.608 -62.159,-6.848M-60.161,-6.734C-60.092,-6.725 -59.895,-6.699 -59.767,-6.683C-59.217,-7.416 -58.68,-8.119 -59.063,-9.058C-59.13,-9.221 -59.28,-9.479 -59.376,-9.473C-59.54,-9.461 -59.806,-9.294 -59.83,-9.157C-59.971,-8.371 -60.053,-7.574 -60.161,-6.734M-58.337,-6.364C-57.511,-6.183 -56.982,-7.018 -56.677,-8.98C-56.989,-9.074 -57.302,-9.168 -57.532,-9.238C-57.811,-8.244 -58.068,-7.323 -58.337,-6.364M-54.393,-8.514C-54.915,-8.495 -55.407,-8.612 -55.534,-8.448C-56.048,-7.78 -56.476,-7.036 -56.604,-6.174C-56.115,-5.922 -55.791,-6.079 -55.565,-6.453C-55.197,-7.067 -54.856,-7.696 -54.393,-8.514M-76.491,-6.645C-76.903,-6.477 -77.374,-6.377 -76.961,-5.76C-76.579,-5.189 -76.239,-4.591 -75.876,-3.996C-75.439,-4.23 -75.144,-4.389 -74.805,-4.571C-75.377,-5.274 -75.913,-5.934 -76.491,-6.645M-76.708,-3.71C-77.318,-4.413 -77.918,-5.104 -78.495,-5.769C-78.837,-5.527 -79.095,-5.345 -79.498,-5.06C-78.939,-4.542 -78.411,-4.088 -77.927,-3.592C-77.549,-3.205 -77.214,-3.18 -76.708,-3.71M-66.296,-6.493C-65.905,-6.752 -65.486,-6.875 -65.403,-7.115C-65.229,-7.621 -65.182,-8.188 -65.174,-8.731C-65.17,-9.075 -65.262,-9.498 -65.769,-9.475C-66.237,-9.455 -66.616,-9.294 -66.551,-8.709C-66.478,-8.055 -66.4,-7.402 -66.296,-6.493M-87.172,5.469C-88.028,5.05 -88.843,4.634 -89.677,4.262C-89.823,4.197 -90.097,4.265 -90.236,4.371C-90.467,4.545 -90.635,4.8 -90.964,5.175C-89.733,5.508 -88.651,5.802 -87.523,6.108C-87.403,5.89 -87.283,5.671 -87.172,5.469M-63.256,-6.847C-63.158,-7.218 -63.115,-7.551 -62.985,-7.846C-62.513,-8.926 -62.864,-9.49 -64.168,-9.5C-64.202,-8.617 -64.237,-7.729 -64.275,-6.769C-63.838,-6.802 -63.508,-6.828 -63.256,-6.847M-83.89,1.717C-84.734,0.912 -85.517,0.168 -86.319,-0.596C-86.543,-0.311 -86.71,-0.098 -86.905,0.15C-86.177,0.912 -85.474,1.648 -84.729,2.427C-84.45,2.191 -84.195,1.975 -83.89,1.717M-90.243,22.307C-89.524,21.624 -88.858,20.991 -88.054,20.226C-88.463,20.062 -88.703,19.868 -88.85,19.924C-89.665,20.231 -90.458,20.6 -91.36,20.992C-90.958,21.465 -90.634,21.846 -90.243,22.307M-82.134,0.166C-83.002,-0.468 -83.813,-1.091 -84.664,-1.652C-84.811,-1.748 -85.13,-1.581 -85.369,-1.536C-85.387,-1.446 -85.404,-1.355 -85.422,-1.264C-84.88,-0.726 -84.313,-0.211 -83.802,0.355C-83.055,1.182 -83.072,1.198 -82.134,0.166M-63.697,29.408C-63.289,29.569 -63.097,29.673 -62.891,29.717C-62.737,29.75 -62.479,29.767 -62.42,29.684C-61.896,28.944 -61.408,28.181 -60.909,27.424C-60.935,27.346 -60.961,27.267 -60.987,27.188C-61.427,27.131 -62.114,26.873 -62.262,27.054C-62.827,27.751 -63.22,28.588 -63.697,29.408M-79.279,-1.759C-78.949,-2.056 -78.659,-2.318 -78.282,-2.657C-78.886,-3.139 -79.471,-3.502 -79.921,-3.991C-80.476,-4.594 -80.964,-4.689 -81.555,-4.105C-81.604,-4.057 -81.682,-4.039 -81.835,-3.964C-80.946,-3.197 -80.123,-2.487 -79.279,-1.759M-79.014,24.545C-80.166,24.167 -80.287,24.223 -80.813,25.266C-80.967,25.572 -81.188,25.849 -81.312,26.165C-81.454,26.528 -81.523,26.92 -81.624,27.297C-81.124,27.426 -80.75,27.523 -80.405,27.612C-80.262,26.402 -79.419,25.597 -79.014,24.545M-87.4,21.2C-88.078,21.799 -88.757,22.398 -89.502,23.055C-88.848,23.523 -88.298,23.915 -87.733,24.319C-87.33,23.43 -86.956,22.608 -86.587,21.795C-86.884,21.578 -87.142,21.389 -87.4,21.2M-74.004,-4.947C-73.734,-5.055 -73.558,-5.127 -73.379,-5.196C-72.516,-5.533 -72.36,-6.084 -72.916,-6.857C-73.003,-6.979 -73.102,-7.093 -73.188,-7.216C-73.535,-7.712 -74.798,-7.683 -75.086,-7.159C-75.136,-7.069 -75.119,-6.901 -75.066,-6.805C-74.723,-6.179 -74.359,-5.564 -74.004,-4.947M-82.618,23.576C-83.102,24.408 -83.575,25.196 -84.009,26.004C-84.067,26.113 -83.974,26.426 -83.868,26.479C-83.537,26.644 -83.167,26.729 -82.844,26.835C-82.309,25.896 -81.805,25.013 -81.271,24.075C-81.696,23.918 -82.091,23.771 -82.618,23.576M-81.299,-0.316C-80.945,-0.555 -80.524,-0.841 -80.025,-1.18C-80.938,-1.876 -81.768,-2.518 -82.612,-3.138C-82.704,-3.205 -82.916,-3.199 -83.022,-3.14C-83.3,-2.984 -83.55,-2.779 -83.819,-2.587C-82.968,-1.82 -82.15,-1.083 -81.299,-0.316M-93.755,14.727C-93.488,14.724 -93.297,14.739 -93.109,14.717C-92.23,14.612 -91.354,14.486 -90.473,14.389C-89.919,14.329 -90.092,13.88 -90.072,13.591C-90.065,13.484 -90.412,13.246 -90.588,13.254C-91.5,13.299 -92.407,13.432 -93.319,13.476C-93.772,13.498 -93.874,13.733 -93.861,14.093C-93.854,14.303 -93.793,14.51 -93.755,14.727M-92.359,8.51C-93.085,9.748 -93.049,9.847 -91.671,9.985C-90.766,10.076 -89.854,10.105 -88.928,10.162C-88.886,10.012 -88.865,9.864 -88.805,9.734C-88.495,9.07 -88.519,9.009 -89.21,8.916C-90.242,8.778 -91.275,8.649 -92.359,8.51M-92.95,18.588C-92.583,19.203 -92.261,19.743 -91.926,20.305C-90.907,19.736 -89.984,19.22 -89.063,18.705C-89.061,18.619 -89.059,18.534 -89.056,18.448C-89.314,18.255 -89.578,17.893 -89.831,17.9C-90.843,17.929 -91.863,18.023 -92.95,18.588M-63.187,26.632C-64.761,26.022 -64.761,26.022 -65.487,27.275C-65.572,27.423 -65.651,27.574 -65.727,27.728C-66.408,29.128 -66.408,29.129 -64.874,29.35C-64.837,29.355 -64.795,29.325 -64.785,29.322C-64.255,28.429 -63.737,27.558 -63.187,26.632M-87.862,6.991C-89.034,6.659 -90.117,6.348 -91.204,6.054C-91.301,6.027 -91.489,6.072 -91.528,6.142C-91.757,6.556 -91.954,6.988 -92.229,7.549C-90.856,7.726 -89.623,7.884 -88.321,8.052C-88.203,7.778 -88.054,7.433 -87.862,6.991M-89.8,16.713C-89.855,16.298 -89.828,16.032 -89.935,15.841C-90.037,15.657 -90.291,15.414 -90.457,15.429C-91.528,15.529 -92.595,15.692 -93.753,15.846C-93.548,16.412 -93.384,16.865 -93.177,17.435C-92.048,17.194 -90.944,16.958 -89.8,16.713M-72.129,24.917C-72.883,26.157 -73.646,27.413 -74.456,28.746C-73.794,28.831 -73.32,28.892 -73.002,28.933C-72.303,27.581 -71.658,26.335 -71,25.062C-71.358,25.016 -71.694,24.973 -72.129,24.917M-85.309,22.411C-85.73,23.162 -86.141,23.866 -86.517,24.587C-86.584,24.714 -86.575,24.999 -86.488,25.068C-86.122,25.356 -85.714,25.591 -85.356,25.822C-84.728,24.953 -84.123,24.117 -83.489,23.239C-84.106,22.958 -84.666,22.703 -85.309,22.411M-76.438,24.499C-76.79,24.454 -77.026,24.384 -77.255,24.404C-77.514,24.427 -77.909,24.453 -77.995,24.613C-78.554,25.653 -79.045,26.73 -79.575,27.83C-78.973,27.908 -78.474,27.972 -78.039,28.028C-77.504,26.848 -76.996,25.729 -76.438,24.499M-93.554,12.438C-92.429,12.146 -91.291,12.566 -90.222,12.126C-90.173,12.106 -90.086,12.177 -90.039,12.157C-89.872,12.085 -89.651,12.03 -89.569,11.896C-89.443,11.692 -89.416,11.428 -89.334,11.142C-90.354,11.01 -91.329,10.844 -92.312,10.77C-93.408,10.687 -93.828,11.256 -93.554,12.438M-69.026,29.082C-68.524,29.089 -68.271,29.106 -68.021,29.091C-67.822,29.079 -67.517,29.097 -67.445,28.984C-66.834,28.014 -66.266,27.017 -65.632,25.937C-66.323,25.813 -66.902,25.709 -67.53,25.596C-68.009,26.711 -68.491,27.835 -69.026,29.082M-69.886,25.101C-70.328,25.888 -70.752,26.605 -71.137,27.341C-71.332,27.716 -71.483,28.12 -71.597,28.528C-71.626,28.631 -71.45,28.897 -71.338,28.917C-70.52,29.064 -70.188,28.877 -69.766,28.106C-69.683,27.955 -69.579,27.814 -69.508,27.658C-69.171,26.926 -68.841,26.191 -68.496,25.429C-69.09,25.289 -69.517,25.188 -69.886,25.101M-73.508,24.83C-75.037,24.348 -75.508,24.551 -76.097,25.872C-76.262,26.244 -76.51,26.593 -76.607,26.981C-76.947,28.335 -77.063,28.398 -75.694,28.516C-75.589,28.525 -75.482,28.526 -75.371,28.532C-74.745,27.287 -74.129,26.064 -73.508,24.83M-24.363,18.717C-24.477,17.568 -24.559,16.599 -24.683,15.634C-24.697,15.518 -24.921,15.391 -25.072,15.336C-25.687,15.113 -26.311,14.916 -27.05,14.67C-26.961,15.809 -26.878,16.886 -26.788,18.054C-26.072,18.25 -25.316,18.457 -24.363,18.717M-85.382,3.151C-86.112,2.446 -86.858,1.725 -87.631,0.979C-88.336,1.86 -88.925,2.596 -89.614,3.458C-88.804,3.779 -88.122,4.068 -87.427,4.316C-86.767,4.553 -86.157,4.591 -85.853,3.756C-85.789,3.584 -85.62,3.45 -85.382,3.151M-49.166,34.844C-49.091,34.759 -49.016,34.673 -48.94,34.588C-49.197,34.354 -49.472,34.136 -49.708,33.882C-50.15,33.408 -50.784,32.979 -50.959,32.414C-51.422,30.913 -52.357,30.06 -53.837,29.695C-54.379,29.561 -55.22,29.756 -55.557,30.217C-55.287,30.315 -55.043,30.415 -54.792,30.494C-54.402,30.616 -53.896,30.607 -53.641,30.859C-53.082,31.412 -52.545,32.04 -52.19,32.734C-51.531,34.03 -50.284,34.312 -49.166,34.844M-39.405,13.856C-39.483,12.782 -39.54,11.784 -39.649,10.792C-39.663,10.666 -39.937,10.517 -40.113,10.469C-40.92,10.246 -41.735,10.053 -42.549,9.856C-43.04,9.737 -43.535,9.63 -44.038,9.516C-44.102,11.541 -42.251,13.301 -39.405,13.856M-19.303,20.115C-19.298,19.392 -19.245,18.729 -19.306,18.077C-19.343,17.672 -19.45,17.024 -19.698,16.928C-20.944,16.445 -22.246,16.108 -23.612,15.694C-23.43,16.618 -23.214,17.444 -23.119,18.283C-23.062,18.778 -22.831,19.029 -22.417,19.16C-21.405,19.483 -20.387,19.784 -19.303,20.115M2.941,22.187C3.142,23.534 3.322,24.755 3.504,25.983C4.096,26.124 4.694,26.289 5.303,26.408C6.534,26.649 6.536,26.639 6.707,25.364C6.725,25.235 6.731,25.103 6.763,24.977C6.976,24.138 6.803,23.595 6.098,23.153C5.192,22.585 4.175,22.353 2.941,22.187M2.108,25.69C2.027,24.353 1.95,23.08 1.872,21.79C0.738,21.564 -0.333,21.351 -1.556,21.107C-1.56,22.499 -1.562,23.686 -1.565,24.889C-0.364,25.151 0.764,25.396 2.108,25.69M-28.169,17.65C-28.163,16.503 -28.147,15.545 -28.165,14.588C-28.167,14.461 -28.312,14.266 -28.434,14.223C-29.561,13.819 -30.692,13.427 -31.833,13.063C-32.217,12.94 -32.507,13.001 -32.446,13.555C-32.342,14.505 -32.296,15.463 -32.22,16.493C-30.958,16.854 -29.655,17.225 -28.169,17.65M-12.451,18.501C-12.441,19.749 -12.442,20.895 -12.409,22.041C-12.406,22.145 -12.206,22.297 -12.071,22.336C-11.127,22.611 -10.176,22.864 -9.226,23.12C-8.839,23.224 -8.597,23.129 -8.588,22.669C-8.571,21.811 -8.646,20.932 -8.476,20.104C-8.326,19.381 -8.682,19.308 -9.17,19.204C-9.504,19.134 -9.834,19.041 -10.169,18.97C-10.881,18.819 -11.595,18.676 -12.451,18.501M-18.083,20.579C-16.812,20.973 -15.508,21.388 -14.197,21.78C-13.78,21.905 -13.662,21.62 -13.643,21.273C-13.593,20.34 -13.538,19.406 -13.509,18.471C-13.505,18.35 -13.611,18.153 -13.713,18.115C-14.072,17.979 -14.445,17.857 -14.823,17.801C-15.922,17.638 -17.024,17.51 -18.188,17.361C-18.155,18.393 -18.121,19.414 -18.083,20.579M-33.604,15.966C-33.548,14.877 -33.461,13.871 -33.473,12.867C-33.475,12.641 -33.783,12.298 -34.021,12.218C-35.315,11.781 -36.632,11.405 -37.944,11.021C-38.099,10.975 -38.275,11.004 -38.562,10.994C-38.394,12.175 -38.235,13.288 -38.065,14.484C-36.626,14.962 -35.17,15.446 -33.604,15.966M-2.985,24.539C-2.896,23.242 -2.816,22.105 -2.734,20.919C-3.486,20.711 -4.201,20.494 -4.927,20.317C-5.597,20.154 -6.273,20.015 -6.955,19.913C-7.087,19.893 -7.376,20.085 -7.382,20.19C-7.414,20.83 -7.335,21.477 -7.388,22.114C-7.474,23.142 -7.246,23.785 -6.037,23.888C-5.042,23.973 -4.067,24.298 -2.985,24.539M-19.344,9.627C-20.642,11.381 -21.941,13.136 -23.289,14.958C-22.008,15.361 -20.831,15.736 -19.649,16.096C-19.552,16.125 -19.385,16.086 -19.313,16.016C-18.995,15.702 -18.68,15.383 -18.401,15.035C-17.668,14.115 -16.949,13.183 -16.233,12.249C-15.872,11.778 -15.529,11.293 -15.088,10.691C-15.431,10.647 -15.644,10.646 -15.84,10.589C-16.366,10.437 -16.625,9.819 -16.322,9.442C-15.464,8.376 -14.593,7.319 -13.732,6.253C-12.75,5.038 -11.773,3.818 -10.764,2.561C-10.874,2.502 -11.047,2.41 -11.11,2.376C-11.446,2.691 -11.691,2.944 -11.96,3.168C-12.491,3.61 -13.086,3.986 -13.563,4.478C-14.894,5.85 -16.155,7.287 -17.489,8.655C-17.979,9.158 -18.417,9.888 -19.344,9.627M1.881,14.795C1.028,16.024 0.224,17.157 -0.547,18.313C-0.841,18.752 -1.044,19.25 -1.305,19.713C-1.604,20.245 -1.395,20.451 -0.852,20.534C-0.171,20.639 0.504,20.783 1.177,20.929C1.55,21.01 1.815,20.956 2.061,20.612C2.973,19.331 3.922,18.076 4.843,16.801C4.929,16.683 4.991,16.447 4.932,16.341C4.51,15.603 4.888,15.093 5.348,14.56C5.696,14.156 5.983,13.698 6.29,13.258C7.186,11.973 8.083,10.69 8.966,9.396C9.128,9.158 9.222,8.874 9.378,8.546C8.554,8.238 7.821,7.964 7.256,7.753C7.005,8.273 6.833,8.738 6.573,9.147C5.409,10.975 4.218,12.786 3.042,14.608C2.742,15.074 2.384,15.21 1.881,14.795M-43.482,8.533C-43.481,8.607 -43.479,8.681 -43.479,8.755C-42.146,9.087 -40.813,9.419 -39.468,9.753C-39.023,9.311 -38.579,8.869 -38.136,8.428C-37.191,7.488 -36.259,6.534 -35.296,5.614C-34.883,5.219 -34.86,4.864 -35.205,4.433C-35.519,4.042 -35.645,3.651 -35.202,3.237C-33.949,2.067 -32.693,0.899 -31.474,-0.305C-31.056,-0.717 -30.741,-1.234 -30.375,-1.71C-31.051,-2.065 -31.655,-2.134 -32.109,-1.8C-33.037,-1.116 -33.981,-0.439 -34.817,0.348C-36.646,2.069 -38.394,3.877 -40.209,5.613C-41.266,6.623 -42.389,7.562 -43.482,8.533M-18.011,0.664C-18.089,0.757 -18.188,0.869 -18.28,0.986C-19.474,2.501 -20.726,3.974 -21.839,5.546C-22.766,6.856 -23.513,8.292 -24.369,9.653C-25.221,11.007 -26.109,12.338 -27.007,13.717C-26.292,14.028 -25.652,14.339 -24.985,14.574C-24.805,14.638 -24.453,14.542 -24.329,14.395C-22.919,12.719 -21.538,11.018 -20.143,9.317C-21.111,8.708 -21.206,8.215 -20.565,7.401C-20.284,7.044 -19.999,6.689 -19.721,6.33C-18.496,4.746 -17.271,3.163 -16.054,1.575C-15.946,1.436 -15.885,1.262 -15.793,1.087C-16.562,0.94 -17.243,0.811 -18.011,0.664M-29.621,6.463C-30.471,5.652 -30.443,5.457 -29.684,4.649C-28.541,3.434 -27.452,2.169 -26.322,0.942C-25.876,0.457 -25.381,0.015 -24.771,-0.58C-25.595,-0.685 -26.254,-0.77 -26.821,-0.843C-27.192,-0.431 -27.549,-0.016 -27.926,0.381C-28.324,0.801 -28.755,1.192 -29.148,1.618C-30.256,2.815 -31.337,4.038 -32.46,5.22C-32.775,5.552 -33.158,5.903 -33.713,5.554C-33.79,5.506 -34.03,5.626 -34.135,5.729C-34.928,6.506 -35.715,7.29 -36.486,8.089C-37.078,8.702 -37.644,9.34 -38.213,9.959C-38.184,10.006 -38.177,10.035 -38.162,10.039C-36.71,10.485 -35.258,10.935 -33.801,11.362C-33.711,11.388 -33.538,11.264 -33.458,11.166C-32.183,9.614 -30.917,8.054 -29.621,6.463M-18.176,16.426C-17.747,16.559 -17.476,16.673 -17.193,16.724C-16.089,16.924 -14.982,17.111 -13.874,17.282C-13.729,17.304 -13.498,17.25 -13.417,17.146C-12.177,15.558 -10.955,13.957 -9.716,12.341C-10.671,11.916 -10.785,11.607 -10.207,10.842C-9.357,9.721 -8.453,8.642 -7.566,7.549C-6.652,6.421 -5.73,5.297 -4.795,4.15C-5.478,3.943 -6.144,3.742 -6.712,3.569C-6.914,3.884 -7.031,4.128 -7.204,4.323C-7.63,4.802 -8.123,5.225 -8.514,5.729C-9.684,7.239 -10.992,8.643 -11.854,10.387C-12.115,10.913 -12.612,11.475 -13.442,11.078C-13.613,10.996 -13.96,11.148 -14.157,11.289C-14.443,11.492 -14.698,11.759 -14.911,12.04C-15.982,13.459 -17.035,14.891 -18.176,16.426M3.123,21.17C3.238,21.267 3.28,21.331 3.334,21.343C4.481,21.617 5.629,21.896 6.783,22.139C6.899,22.164 7.099,21.999 7.198,21.874C8.169,20.663 9.2,19.492 10.069,18.211C11.134,16.64 12.365,15.213 13.542,13.736C14.166,12.952 14.7,12.096 15.275,11.273C15.537,10.899 15.531,10.597 15.055,10.41C14.463,10.178 13.879,9.929 13.281,9.714C12.949,9.595 12.718,9.697 12.484,10.023C11.762,11.033 10.939,11.971 10.228,12.988C9.334,14.266 8.473,15.572 7.672,16.91C7.19,17.715 7.088,17.812 6.325,17.253C5.977,16.997 5.775,17.03 5.545,17.385C5.078,18.106 4.569,18.801 4.103,19.522C3.755,20.06 3.446,20.623 3.123,21.17M-1.662,4.974C-2.326,5.726 -2.998,6.47 -3.648,7.231C-3.884,7.506 -4.062,7.829 -4.28,8.12C-5.138,9.271 -6.03,10.397 -6.851,11.574C-7.333,12.266 -7.857,12.82 -8.732,12.953C-8.888,12.977 -9.058,13.091 -9.164,13.212C-9.701,13.826 -10.261,14.426 -10.732,15.088C-11.298,15.884 -11.782,16.738 -12.309,17.578C-12.165,17.686 -12.104,17.764 -12.029,17.782C-11.024,18.029 -10.021,18.29 -9.006,18.486C-8.809,18.524 -8.501,18.357 -8.351,18.19C-7.979,17.775 -7.666,17.307 -7.333,16.858C-6.691,15.992 -6.048,15.129 -5.412,14.259C-4.197,12.594 -2.971,10.936 -1.78,9.252C-1.034,8.195 -0.535,6.944 0.654,6.244C0.77,6.176 0.845,6.041 0.985,5.886C0.047,5.563 -0.814,5.266 -1.662,4.974M-21.712,-0.025C-22.091,0.446 -22.34,0.791 -22.625,1.104C-23.127,1.654 -23.653,2.18 -24.164,2.722C-24.312,2.88 -24.433,3.062 -24.577,3.223C-25.447,4.19 -26.323,5.153 -27.19,6.122C-27.273,6.215 -27.284,6.391 -27.378,6.451C-27.646,6.62 -27.936,6.758 -28.224,6.892C-28.492,7.016 -28.854,7.047 -29.028,7.246C-29.62,7.925 -30.156,8.655 -30.698,9.377C-31.248,10.11 -31.794,10.848 -32.302,11.61C-32.368,11.708 -32.241,12.089 -32.132,12.126C-30.899,12.545 -29.656,12.938 -28.403,13.293C-28.246,13.337 -27.944,13.178 -27.834,13.023C-27.028,11.905 -26.249,10.767 -25.471,9.629C-24.68,8.471 -23.889,7.313 -23.115,6.143C-22.251,4.837 -21.414,3.512 -20.549,2.206C-20.162,1.623 -19.734,1.066 -19.307,0.471C-20.162,0.294 -21.014,0.119 -21.712,-0.025M-7.439,18.932C-6.129,19.274 -4.987,19.546 -3.863,19.874C-3.162,20.079 -2.752,19.835 -2.394,19.237C-2.063,18.686 -1.607,18.212 -1.23,17.688C-0.46,16.616 0.295,15.533 1.073,14.431C0.034,14.022 -0.11,13.602 0.414,12.788C0.67,12.391 0.937,12 1.199,11.606C2.243,10.041 3.287,8.475 4.356,6.871C3.677,6.644 3.035,6.423 2.387,6.222C2.305,6.197 2.171,6.256 2.094,6.317C1.67,6.65 1.187,6.939 0.851,7.346C-0.098,8.499 -1.008,9.685 -1.892,10.888C-3.252,12.741 -4.592,14.609 -5.912,16.49C-6.437,17.238 -6.886,18.04 -7.439,18.932M-43.821,13.4C-44.295,12.207 -44.71,11.158 -45.128,10.109C-45.285,9.715 -45.625,9.29 -45.558,8.941C-45.497,8.621 -45.001,8.383 -44.697,8.109C-44.665,8.08 -44.64,8.044 -44.606,8.016C-43.71,7.274 -42.795,6.554 -41.922,5.786C-41.228,5.174 -40.59,4.498 -39.914,3.864C-38.61,2.643 -37.297,1.433 -35.989,0.217C-35.172,-0.544 -34.302,-1.259 -33.558,-2.087C-32.812,-2.918 -31.938,-3.226 -30.858,-2.932C-29.1,-2.455 -27.332,-2.003 -25.555,-1.602C-23.66,-1.175 -21.752,-0.809 -19.846,-0.436C-18.026,-0.081 -16.188,0.19 -14.383,0.603C-12.251,1.091 -10.138,1.665 -8.029,2.25C-6.105,2.783 -4.202,3.39 -2.284,3.946C-0.145,4.567 2.017,5.122 4.142,5.79C6.252,6.453 8.322,7.243 10.425,7.934C11.481,8.281 12.559,8.586 13.647,8.808C14.598,9.001 15.526,9.172 16.374,9.699C16.843,9.99 16.976,10.334 16.779,10.776C16.544,11.306 16.274,11.837 15.926,12.297C14.356,14.369 12.746,16.409 11.165,18.473C10.316,19.581 9.466,20.69 8.682,21.844C8.376,22.293 8.117,22.852 8.069,23.382C7.969,24.489 8.063,25.613 7.997,26.725C7.958,27.386 8.224,27.748 8.812,27.904C10.698,28.401 12.57,28.979 14.483,29.332C15.684,29.553 16.947,29.461 18.182,29.438C18.752,29.428 19.317,29.232 19.889,29.147C21.96,28.836 23.462,27.577 24.756,26.082C25.825,24.847 26.758,23.491 27.708,22.158C28.205,21.461 28.717,20.742 29.03,19.956C29.412,18.995 29.596,17.956 29.858,16.949C30.199,15.637 29.914,14.355 29.728,13.054C29.517,11.591 28.772,10.465 27.873,9.361C27.164,8.49 26.562,7.542 25.53,6.991C25.214,6.823 24.965,6.533 24.657,6.346C23.429,5.596 22.244,4.744 20.941,4.153C18.809,3.186 16.583,2.425 14.42,1.518C12.396,0.669 10.405,-0.251 8.186,-0.514C7.54,-0.591 6.907,-0.818 6.28,-1.013C5.522,-1.25 4.789,-1.576 4.021,-1.773C3.118,-2.006 2.182,-2.109 1.274,-2.327C0.095,-2.612 -1.068,-2.967 -2.244,-3.271C-4.052,-3.738 -5.91,-4.058 -7.661,-4.683C-9.318,-5.273 -10.979,-5.79 -12.688,-6.205C-14.291,-6.596 -15.855,-7.142 -17.446,-7.587C-19.166,-8.068 -20.888,-8.542 -22.622,-8.958C-23.715,-9.22 -24.843,-9.328 -25.938,-9.581C-27.298,-9.895 -28.642,-10.283 -29.989,-10.647C-31.217,-10.978 -32.474,-10.934 -33.726,-11.015C-35.354,-11.121 -36.893,-10.746 -38.451,-10.435C-38.824,-10.36 -39.208,-10.217 -39.527,-10.013C-40.708,-9.26 -41.858,-8.461 -43.03,-7.695C-43.605,-7.319 -44.211,-6.991 -44.786,-6.616C-45.762,-5.981 -46.855,-5.458 -47.661,-4.65C-48.922,-3.387 -50.196,-2.088 -50.869,-0.355C-51.066,0.152 -51.493,0.574 -51.67,1.084C-52.188,2.577 -52.482,4.114 -52.639,5.7C-52.761,6.934 -52.787,8.119 -52.294,9.245C-51.996,9.925 -51.604,10.615 -51.086,11.13C-50.698,11.515 -50.055,11.67 -49.5,11.854C-48.058,12.334 -46.605,12.787 -45.147,13.22C-44.767,13.333 -44.352,13.332 -43.821,13.4M-53.684,5.778C-53.165,3.411 -52.912,1.255 -51.623,-0.57C-51.478,-0.777 -51.418,-1.042 -51.297,-1.268C-51.001,-1.817 -51.095,-1.916 -51.669,-2.206C-52.509,-2.631 -53.379,-3.098 -53.782,-4.013C-54.16,-4.872 -54.835,-5.03 -55.655,-5.101C-56.714,-5.191 -57.787,-5.281 -58.813,-5.537C-60.635,-5.99 -62.468,-6.035 -64.32,-5.958C-65.409,-5.913 -66.5,-5.873 -67.589,-5.819C-69.898,-5.703 -72.006,-4.889 -74.117,-4.02C-76.146,-3.185 -77.858,-1.9 -79.565,-0.58C-80.604,0.222 -81.713,0.941 -82.689,1.811C-84.266,3.216 -85.996,4.523 -86.78,6.601C-87.377,8.182 -87.907,9.788 -88.456,11.388C-88.692,12.075 -88.997,12.76 -89.095,13.47C-89.203,14.265 -89.246,15.117 -89.075,15.891C-88.827,17.011 -88.491,18.154 -87.949,19.155C-87.499,19.988 -86.824,20.721 -85.793,21.07C-84.804,21.405 -83.889,21.967 -82.953,22.454C-81.359,23.283 -79.664,23.599 -77.877,23.628C-76.413,23.652 -74.95,23.784 -73.491,23.91C-72.051,24.034 -70.606,24.158 -69.18,24.377C-67.747,24.597 -66.322,24.888 -64.915,25.231C-63.168,25.656 -61.421,26.102 -59.714,26.662C-58.54,27.047 -57.406,27.589 -56.575,28.59C-56.333,28.882 -56.067,28.936 -55.619,28.821C-54.807,28.612 -53.96,28.57 -53.098,28.875C-51.5,29.441 -50.455,30.486 -49.932,32.076C-49.644,32.951 -48.808,33.213 -48.158,33.678C-47.657,34.035 -47.501,34.479 -47.837,34.994C-48.384,35.832 -48.944,36.663 -49.55,37.458C-50.02,38.075 -50.39,38.069 -51.044,37.64C-51.274,37.488 -51.574,37.392 -51.852,37.369C-53.179,37.257 -54.532,37.177 -55.685,36.453C-56.824,35.738 -58.009,34.962 -58.334,33.529C-58.651,32.133 -59.753,31.649 -60.854,31.187C-62.451,30.516 -64.157,30.219 -65.873,30.05C-67.432,29.896 -68.999,29.814 -70.564,29.748C-71.647,29.703 -72.751,29.864 -73.813,29.711C-75.878,29.413 -77.928,28.997 -79.968,28.559C-81.746,28.177 -83.487,27.644 -85.099,26.772C-87.373,25.542 -89.657,24.271 -91.317,22.249C-92.317,21.031 -93.46,19.865 -93.839,18.188C-94.096,17.054 -94.655,15.987 -94.596,14.781C-94.525,13.36 -94.54,11.937 -94.017,10.566C-93.561,9.372 -93.275,8.113 -92.808,6.925C-92.53,6.22 -92.1,5.557 -91.644,4.945C-90.863,3.898 -89.933,2.956 -89.218,1.869C-88.861,1.327 -88.075,0.953 -88.271,0.092C-88.286,0.024 -88.124,-0.093 -88.033,-0.173C-87.095,-1 -86.166,-1.839 -85.207,-2.642C-84.887,-2.911 -84.485,-3.084 -84.124,-3.305C-83.002,-3.989 -81.907,-4.722 -80.754,-5.347C-79.601,-5.973 -78.383,-6.481 -77.203,-7.062C-74.892,-8.202 -72.435,-8.931 -69.952,-9.554C-68.742,-9.857 -67.482,-10.009 -66.236,-10.098C-64.601,-10.214 -62.955,-10.201 -61.314,-10.245C-60.505,-10.266 -59.689,-10.359 -58.887,-10.295C-58.12,-10.235 -57.364,-10.024 -56.607,-9.86C-55.663,-9.655 -54.725,-9.421 -53.78,-9.22C-53.244,-9.106 -52.852,-8.855 -52.438,-8.462C-52.099,-8.139 -51.425,-8.05 -50.904,-8.06C-49.8,-8.08 -48.76,-8.013 -47.855,-7.281C-47.526,-7.015 -47.153,-6.793 -46.773,-6.606C-46.646,-6.543 -46.4,-6.599 -46.266,-6.687C-45.076,-7.465 -43.876,-8.228 -42.726,-9.06C-41.012,-10.3 -39.168,-11.273 -37.083,-11.635C-35.916,-11.837 -34.702,-11.789 -33.509,-11.822C-32.929,-11.838 -32.331,-11.854 -31.768,-11.742C-30.292,-11.447 -28.831,-11.078 -27.363,-10.746C-26.831,-10.625 -26.299,-10.498 -25.759,-10.424C-23.88,-10.165 -22.04,-9.762 -20.23,-9.179C-18.847,-8.734 -17.422,-8.416 -16.015,-8.042C-14.28,-7.581 -12.535,-7.152 -10.813,-6.648C-9.646,-6.306 -8.523,-5.816 -7.358,-5.471C-5.798,-5.008 -4.221,-4.605 -2.642,-4.208C-1.035,-3.804 0.581,-3.437 2.193,-3.056C3.176,-2.823 4.167,-2.622 5.14,-2.355C5.879,-2.153 6.588,-1.844 7.325,-1.632C7.775,-1.502 8.261,-1.497 8.717,-1.384C10.634,-0.91 12.491,-0.287 14.275,0.586C15.313,1.094 16.473,1.349 17.559,1.767C18.958,2.306 20.36,2.846 21.719,3.478C22.621,3.897 23.475,4.438 24.303,4.996C25.355,5.706 26.392,6.448 27.37,7.255C27.802,7.612 28.073,8.163 28.418,8.626C28.866,9.228 29.405,9.784 29.748,10.44C31.007,12.846 31.369,15.343 30.707,18.048C30.401,19.296 30.019,20.474 29.354,21.529C28.392,23.057 27.322,24.522 26.238,25.968C25.732,26.644 24.981,27.147 24.525,27.848C23.732,29.069 22.619,29.899 21.424,30.614C20.918,30.916 20.23,30.94 19.617,31.034C18.409,31.221 17.197,31.372 15.985,31.529C15.796,31.554 15.601,31.538 15.408,31.532C14.463,31.501 13.511,31.532 12.576,31.418C11.49,31.285 10.418,31.025 9.341,30.817C9.173,30.784 9.009,30.728 8.842,30.689C7.222,30.31 5.619,29.805 3.978,29.592C2.604,29.414 1.396,28.77 0.055,28.534C-0.826,28.38 -1.675,28.043 -2.54,27.798C-3.754,27.454 -4.975,27.138 -6.184,26.777C-7.372,26.422 -8.541,26.002 -9.731,25.656C-11.152,25.242 -12.594,24.897 -14.014,24.481C-14.613,24.306 -15.17,23.99 -15.767,23.798C-18.235,23.005 -20.644,22.021 -23.222,21.57C-24.227,21.394 -25.192,20.987 -26.168,20.659C-27.07,20.355 -27.951,19.986 -28.859,19.7C-30.398,19.215 -31.956,18.789 -33.497,18.307C-34.354,18.039 -35.184,17.688 -36.037,17.411C-36.627,17.221 -37.243,17.116 -37.836,16.937C-40.002,16.282 -42.146,15.586 -44.229,14.675C-45.624,14.065 -47.132,13.692 -48.613,13.307C-49.798,12.999 -51.083,12.669 -51.822,11.781C-52.722,10.7 -53.689,9.501 -53.623,7.888C-53.591,7.099 -53.666,6.307 -53.684,5.778" style="fill:rgb(37,37,37);fill-rule:nonzero;"/>
    </g>
</svg>
