<?xml version="1.0" encoding="UTF-8" standalone="no"?>
<!DOCTYPE svg PUBLIC "-//W3C//DTD SVG 1.1//EN" "http://www.w3.org/Graphics/SVG/1.1/DTD/svg11.dtd">
<svg width="100%" height="100%" viewBox="0 0 559 539" version="1.1" xmlns="http://www.w3.org/2000/svg" xmlns:xlink="http://www.w3.org/1999/xlink" xml:space="preserve" xmlns:serif="http://www.serif.com/" style="fill-rule:evenodd;clip-rule:evenodd;stroke-linejoin:round;stroke-miterlimit:2;">
    <g transform="matrix(8.33333,0,0,8.33333,67.674,338.636)">
        <path d="M0,13.242C-1.627,8.886 -5.053,3.694 -5.111,-1.077C-5.174,-6.16 4.23,-10.848 8.159,-13.114C7.772,-13.105 7.386,-13.096 6.999,-13.086C9.025,-7.702 10.8,-1.837 12.235,3.735C12.709,5.573 13.147,8.223 11.287,9.549C10.954,9.786 6.91,10.318 6.111,9.485C4.462,7.766 10.197,3.408 11.515,3.569C11.749,3.598 12.824,3.442 12.694,3.022C11.381,-1.216 10.067,-5.454 8.755,-9.691C8.622,-10.119 7.67,-9.729 7.46,-9.576C3.299,-6.554 -0.931,-3.69 -5.263,-0.918C-5.37,-0.85 -5.596,-0.725 -5.551,-0.558C-4.853,2.066 -4.232,4.722 -3.281,7.269C-2.417,9.584 -0.96,11.839 -0.36,14.235C0.041,15.841 0.185,17.726 -0.393,19.324C-0.827,20.061 -1.263,20.798 -1.697,21.535C-3.474,21.478 -5.249,21.421 -7.025,21.364C-8.036,20.124 -5.517,16.63 -4.939,15.909C-3.849,14.546 -3.021,13.522 -1.179,13.79C-0.781,13.847 0.509,13.196 -0.271,13.083C-8.236,11.923 -11.779,27.088 -2.962,23.394C2.609,21.059 1.698,15.181 -0.22,10.67C-1.109,8.577 -2.001,6.553 -2.673,4.375C-3.608,1.338 -4.048,-0.082 -1.699,-2.303C1.177,-5.023 5.388,-7.085 8.601,-9.418C8.169,-9.38 7.737,-9.341 7.306,-9.303C8.619,-5.065 9.932,-0.828 11.245,3.41C11.638,3.227 12.031,3.045 12.424,2.862C5.248,1.986 1.252,15.584 9.12,13.358C11.727,12.621 13.195,10.169 13.942,7.922C14.91,5.006 13.073,1.584 12.2,-1.115C10.874,-5.216 9.967,-9.438 8.447,-13.475C8.308,-13.846 7.503,-13.571 7.287,-13.446C4.686,-11.946 2.22,-10.216 -0.244,-8.502C-2.013,-7.272 -5.862,-5.498 -6.657,-3.49C-7.376,-1.675 -6.097,1.136 -5.595,2.844C-4.492,6.598 -2.814,9.974 -1.449,13.63C-1.285,14.069 0.147,13.638 0,13.242" style="fill:rgb(37,37,37);fill-rule:nonzero;"/>
    </g>
    <g transform="matrix(8.33333,0,0,8.33333,536.432,76.7898)">
        <path d="M0,17.278C0.722,13.084 3.348,11.031 -0.516,7.55C-4.207,4.223 -9.895,5.043 -14.125,2.618C-14.461,2.425 -15.575,2.632 -15.418,3.192C-14.299,7.187 -12.282,10.933 -11.601,15.077C-11.326,16.747 -11.307,18.287 -11.834,19.911C-12.893,23.171 -13.659,23.193 -17.255,23.257C-20.446,24.468 -21.512,23.925 -20.45,21.627C-20.437,20.792 -20.214,20.034 -19.779,19.353C-18.508,16.661 -15.196,14.338 -11.984,15.229C-11.675,15.315 -10.654,15.108 -10.827,14.6C-13.408,7.023 -17.318,-0.746 -17.448,-8.847C-17.914,-8.723 -18.379,-8.598 -18.845,-8.473C-16.855,-6.813 -14.917,-5.028 -12.477,-4.049C-9.472,-2.845 -6.271,-3.057 -3.586,-0.893C-2.571,-0.075 -1.58,0.9 -0.96,2.07C1.719,7.121 -0.767,4.281 -0.259,6.93C-0.014,8.207 1.031,13.258 1.108,12.593C0.913,14.268 -0.408,16.015 -1.411,17.308C-1.843,17.864 -0.374,17.821 -0.046,17.398C1.575,15.308 2.604,13.488 2.623,10.79C2.641,8.209 1.916,4.455 0.704,2.069C-0.505,-0.31 -2.587,-2.225 -5.017,-3.301C-6.757,-4.072 -8.025,-3.826 -9.962,-4.373C-13.015,-5.236 -15.13,-7.087 -17.508,-9.072C-17.814,-9.328 -18.914,-9.261 -18.905,-8.697C-18.773,-0.475 -14.896,7.299 -12.276,14.988C-11.891,14.778 -11.505,14.569 -11.119,14.359C-15.263,13.208 -18.546,14.97 -20.832,18.681C-22.598,21.546 -23.168,25.734 -18.819,26.203C-15.081,26.606 -11.476,23.278 -10.351,19.983C-8.417,14.326 -12.485,8.099 -13.969,2.804C-14.399,2.996 -14.831,3.187 -15.262,3.378C-12.642,4.881 -10.321,5.348 -7.453,5.964C-3.999,6.706 0.22,8.056 0.181,12.505C0.163,14.496 -1.149,15.64 -1.457,17.428C-1.566,18.063 -0.097,17.84 0,17.278" style="fill:rgb(37,37,37);fill-rule:nonzero;"/>
    </g>
    <g transform="matrix(8.33333,0,0,8.33333,389.989,130.523)">
        <path d="M0,-10.525C0.976,-7.423 2.766,-5.557 5.77,-4.132C9.68,-2.278 13.492,-3.217 16.515,0.586C16.815,0.964 17.846,0.693 17.912,0.212C18.116,-1.256 18.369,-2.096 17.651,-3.349C16.861,-4.727 15.305,-6.094 13.897,-6.831C12.428,-7.601 10.869,-7.713 9.254,-7.947C6.258,-8.38 3.689,-9.172 1.293,-11.099C0.87,-11.439 -0.442,-10.82 0.155,-10.339C2.407,-8.528 4.878,-7.61 7.72,-7.159C12.021,-6.477 17.193,-4.953 16.455,0.362L17.853,-0.013C15.99,-2.355 13.771,-3.377 10.866,-3.943C6.599,-4.776 2.842,-6.483 1.448,-10.913C1.268,-11.489 -0.178,-11.09 0,-10.525" style="fill:rgb(37,37,37);fill-rule:nonzero;"/>
    </g>
</svg>
