<?xml version="1.0" encoding="UTF-8" standalone="no"?>
<!DOCTYPE svg PUBLIC "-//W3C//DTD SVG 1.1//EN" "http://www.w3.org/Graphics/SVG/1.1/DTD/svg11.dtd">
<svg width="100%" height="100%" viewBox="0 0 550 697" version="1.1" xmlns="http://www.w3.org/2000/svg" xmlns:xlink="http://www.w3.org/1999/xlink" xml:space="preserve" xmlns:serif="http://www.serif.com/" style="fill-rule:evenodd;clip-rule:evenodd;stroke-linejoin:round;stroke-miterlimit:2;">
    <g transform="matrix(8.33333,0,0,8.33333,262.809,403.99)">
        <path d="M0,6.367C2.347,6.418 2.84,6.241 4.127,4.874C5.946,2.943 7.805,1.046 9.544,-0.955C10.838,-2.446 12.059,-4.02 13.134,-5.673C13.639,-6.45 13.771,-7.491 13.968,-8.434C14.025,-8.707 13.738,-9.31 13.588,-9.317C13.238,-9.334 12.774,-9.176 12.533,-8.921C10.403,-6.669 8.354,-4.339 6.194,-2.117C4.537,-0.412 2.893,1.272 1.802,3.428C1.304,4.413 0.648,5.32 0,6.367M5.135,-2.884C5.234,-2.972 5.344,-3.052 5.433,-3.15C7.91,-5.873 10.432,-8.559 12.846,-11.338C14.325,-13.043 15.316,-15.05 15.694,-17.308C15.985,-19.046 15.477,-19.47 13.852,-18.89C13.494,-18.762 13.003,-18.758 12.791,-18.511C11.088,-16.524 9.474,-14.459 7.756,-12.485C6.537,-11.085 5.2,-9.789 3.896,-8.425C5.279,-6.778 5.465,-4.922 5.135,-2.884M-21.629,22.717C-21.696,22.173 -21.715,21.642 -21.836,21.136C-22.014,20.393 -21.718,20 -21.055,19.71C-18.851,18.745 -17.827,16.957 -17.431,14.646C-16.64,10.03 -14.698,6.108 -10.484,3.619C-9.916,3.284 -9.382,2.831 -8.952,2.328C-7.502,0.632 -6.088,-1.095 -4.696,-2.839C-3.27,-4.627 -1.952,-6.507 -0.448,-8.225C0.074,-8.821 1.027,-9.404 1.756,-9.372C2.882,-9.322 3.491,-9.81 4.134,-10.52C4.678,-11.12 5.293,-11.656 5.824,-12.266C7.71,-14.435 9.636,-16.574 11.421,-18.825C12.36,-20.01 12.92,-21.448 12.805,-23.033C12.733,-24.006 12.184,-24.394 11.263,-24.056C10.59,-23.808 9.961,-23.428 9.338,-23.062C8.803,-22.748 8.408,-22.143 7.637,-22.359C7.543,-22.385 7.335,-22.151 7.236,-22C3.935,-16.957 -0.325,-12.76 -4.603,-8.578C-4.926,-8.262 -5.271,-8.011 -5.678,-8.434C-6.089,-8.863 -5.796,-9.193 -5.481,-9.503C-4.488,-10.485 -3.484,-11.457 -2.501,-12.449C0.472,-15.449 3.374,-18.516 5.72,-22.045C6.407,-23.078 6.907,-24.245 7.396,-25.392C7.526,-25.695 7.419,-26.374 7.21,-26.486C6.86,-26.672 6.295,-26.661 5.903,-26.514C5.396,-26.322 4.938,-25.952 4.513,-25.595C1.6,-23.157 -1.278,-20.677 -4.208,-18.259C-8.967,-14.332 -13.097,-9.643 -18.488,-6.481C-19.184,-6.074 -19.582,-6.227 -19.628,-7.064C-19.673,-7.9 -19.649,-8.74 -19.648,-9.578C-19.646,-11.949 -19.577,-14.323 -19.657,-16.691C-19.702,-18.04 -20.078,-19.369 -21.044,-20.384C-21.739,-21.114 -22.61,-21.826 -23.672,-21.575C-24.637,-21.347 -24.675,-20.269 -24.964,-19.472C-24.992,-19.395 -24.998,-19.308 -25.009,-19.225C-25.34,-16.679 -25.664,-14.131 -26.004,-11.586C-26.387,-8.725 -26.989,-5.951 -28.421,-3.373C-30.187,-0.193 -30.479,3.174 -29.267,6.656C-28.967,7.515 -28.803,8.44 -28.713,9.348C-28.543,11.045 -29.279,12.494 -30.188,13.872C-30.034,14.081 -29.911,14.267 -29.77,14.437C-27.623,17.012 -25.459,19.573 -23.34,22.171C-22.892,22.72 -22.428,22.931 -21.629,22.717M14.049,-10.745C15.288,-9.903 15.396,-8.736 15.184,-7.504C14.851,-5.57 13.828,-3.952 12.575,-2.514C10.355,0.034 8.045,2.502 5.773,5.004C5.591,5.205 5.414,5.412 5.138,5.729C6.99,5.458 8.688,5.19 10.391,4.966C14.827,4.383 19.269,3.87 23.753,4.371C25.315,4.545 26.837,4.885 28.204,5.714C28.466,5.873 28.793,6.016 28.933,6.257C29.069,6.492 29.108,6.898 28.99,7.123C28.914,7.267 28.374,7.354 28.211,7.235C25.895,5.544 23.182,5.347 20.517,5.459C16.617,5.623 12.725,6.051 8.842,6.477C6.124,6.775 3.43,7.282 0.718,7.644C0.103,7.726 -0.561,7.677 -1.167,7.537C-1.709,7.413 -1.656,6.904 -1.451,6.505C-1.043,5.711 -0.592,4.94 -0.152,4.163C0.972,2.171 2.16,0.212 3.2,-1.822C3.795,-2.985 4.231,-4.281 3.854,-5.619C3.657,-6.322 3.305,-7.02 2.871,-7.609C2.302,-8.38 1.74,-8.451 1.012,-7.82C0.217,-7.13 -0.521,-6.349 -1.163,-5.514C-2.813,-3.365 -4.364,-1.141 -6.013,1.008C-7.312,2.702 -8.87,4.118 -10.677,5.294C-13.665,7.24 -15.096,10.235 -15.933,13.574C-16.17,14.519 -16.326,15.486 -16.574,16.428C-17.039,18.191 -18.072,19.561 -19.694,20.386C-20.476,20.784 -20.594,21.263 -20.442,22.038C-19.731,25.68 -19.048,29.328 -18.38,32.979C-18.285,33.495 -17.855,34.253 -18.75,34.429C-19.595,34.595 -19.501,33.759 -19.6,33.27C-20.212,30.235 -20.788,27.192 -21.378,24.142C-21.453,24.111 -21.535,24.042 -21.603,24.054C-23.034,24.321 -23.891,23.569 -24.729,22.512C-26.812,19.887 -28.983,17.332 -31.144,14.769C-31.643,14.177 -31.672,13.668 -31.202,13.055C-29.806,11.231 -29.667,9.242 -30.432,7.115C-31.817,3.262 -31.461,-0.491 -29.509,-4.047C-28.284,-6.275 -27.687,-8.654 -27.35,-11.125C-26.992,-13.754 -26.706,-16.392 -26.333,-19.018C-26.228,-19.754 -26,-20.495 -25.698,-21.175C-24.932,-22.903 -23.659,-23.338 -21.934,-22.553C-19.746,-21.557 -18.677,-19.712 -18.504,-17.459C-18.31,-14.906 -18.417,-12.33 -18.396,-9.763C-18.391,-9.209 -18.395,-8.655 -18.395,-7.903C-17.962,-8.179 -17.602,-8.354 -17.308,-8.605C-14.041,-11.405 -10.792,-14.226 -7.522,-17.022C-3.744,-20.254 0.047,-23.472 3.845,-26.681C4.289,-27.057 4.805,-27.354 5.303,-27.663C6.213,-28.228 7.144,-28.106 7.992,-27.573C8.82,-27.054 8.845,-26.185 8.712,-25.322C8.648,-24.916 8.51,-24.521 8.417,-24.168C9.356,-24.56 10.276,-25.085 11.265,-25.323C12.898,-25.718 14.075,-24.725 14.068,-23.032C14.064,-22.133 13.883,-21.234 13.782,-20.347C16.42,-20.726 17.412,-19.629 16.893,-16.8C16.549,-14.93 15.74,-13.251 14.692,-11.68C14.492,-11.38 14.284,-11.086 14.049,-10.745" style="fill:rgb(37,37,37);fill-rule:nonzero;"/>
    </g>
    <g transform="matrix(8.33333,0,0,8.33333,510.099,645.393)">
        <path d="M0,-14.628C-3.068,-13.772 -6.024,-12.966 -8.969,-12.118C-10.924,-11.554 -12.859,-10.921 -14.811,-10.34C-15.306,-10.192 -15.977,-9.752 -16.212,-10.579C-16.419,-11.304 -15.7,-11.385 -15.209,-11.529C-10.285,-12.974 -5.356,-14.404 -0.436,-15.857C0.365,-16.093 1.144,-16.407 1.924,-16.707C2.322,-16.86 2.467,-17.132 2.272,-17.568C1.791,-18.649 -0.201,-19.555 -1.347,-19.389C-7.028,-18.564 -12.293,-16.338 -17.705,-14.61C-18.077,-14.491 -18.454,-14.387 -18.828,-14.271C-19.258,-14.138 -19.699,-14.067 -19.874,-14.605C-20.051,-15.149 -19.638,-15.34 -19.216,-15.479C-17.39,-16.082 -15.552,-16.655 -13.737,-17.292C-9.97,-18.614 -6.175,-19.804 -2.232,-20.535C-0.225,-20.908 1.364,-20.417 2.755,-19.027C4.171,-17.612 3.88,-16.138 2.044,-15.366C1.69,-15.217 1.332,-15.08 0.843,-14.885C1.345,-14.65 1.771,-14.522 2.112,-14.276C2.831,-13.759 3.612,-13.272 4.173,-12.607C5.165,-11.431 4.816,-10.128 3.39,-9.595C1.671,-8.952 -0.094,-8.435 -1.908,-7.84C-1.47,-7.506 -1.022,-7.196 -0.611,-6.844C0.54,-5.856 0.594,-4.805 -0.708,-4.056C-2.462,-3.046 -4.309,-2.139 -6.212,-1.456C-10.822,0.197 -15.634,1.104 -20.45,1.885C-26.648,2.892 -32.885,3.66 -39.093,4.612C-41.347,4.958 -43.567,5.53 -45.799,6.021C-46.26,6.122 -46.732,6.28 -46.92,5.696C-47.111,5.098 -46.621,4.895 -46.179,4.804C-43.34,4.218 -40.515,3.532 -37.65,3.112C-28.871,1.827 -20.036,0.891 -11.396,-1.249C-8.354,-2.003 -5.375,-2.918 -2.578,-4.354C-2.157,-4.57 -1.767,-4.846 -1.373,-5.109C-1.266,-5.18 -1.195,-5.306 -0.989,-5.545C-1.687,-6.024 -2.371,-6.433 -2.984,-6.93C-3.718,-7.525 -4.428,-7.259 -5.176,-7.026C-8.132,-6.108 -11.094,-5.209 -14.048,-4.285C-14.516,-4.138 -15.012,-4.006 -15.124,-4.597C-15.171,-4.844 -14.788,-5.361 -14.504,-5.452C-11.238,-6.497 -7.957,-7.492 -4.674,-8.481C-2.271,-9.205 0.151,-9.872 2.547,-10.623C3.608,-10.956 3.718,-11.474 2.87,-12.198C2.266,-12.715 1.546,-13.131 0.817,-13.459C0.29,-13.695 -0.201,-13.829 0,-14.628" style="fill:rgb(37,37,37);fill-rule:nonzero;"/>
    </g>
    <g transform="matrix(8.33333,0,0,8.33333,365.251,50.525)">
        <path d="M0,-0.07L0,5.031C0,5.169 0.045,5.328 -0.01,5.437C-0.111,5.638 -0.272,5.809 -0.408,5.993C-0.565,5.809 -0.851,5.631 -0.857,5.442C-0.896,4.446 -0.893,3.446 -0.854,2.45C-0.754,-0.128 -0.628,-2.705 -0.512,-5.282C-0.508,-5.38 -0.545,-5.508 -0.496,-5.57C-0.354,-5.748 -0.179,-5.901 -0.016,-6.063C0.12,-5.882 0.37,-5.702 0.372,-5.52C0.381,-4.739 0.315,-3.958 0.277,-3.177L0.128,-0.07L0,-0.07" style="fill:rgb(37,37,37);fill-rule:nonzero;"/>
    </g>
    <g transform="matrix(8.33333,0,0,8.33333,452.409,84.6292)">
        <path d="M0,8.181C-0.145,8.088 -0.332,8.033 -0.378,7.92C-0.435,7.78 -0.42,7.569 -0.352,7.431C-0.279,7.285 -0.112,7.181 0.022,7.07C2.641,4.905 5.26,2.741 7.879,0.577C7.954,0.515 8.034,0.458 8.107,0.394C8.365,0.166 8.688,0 8.895,0.354C8.981,0.504 8.836,0.919 8.668,1.069C7.896,1.758 7.078,2.393 6.28,3.052C4.353,4.643 2.428,6.237 0.499,7.827C0.353,7.949 0.187,8.049 0,8.181" style="fill:rgb(37,37,37);fill-rule:nonzero;"/>
    </g>
    <g transform="matrix(8.33333,0,0,8.33333,465.528,110.803)">
        <path d="M0,-8.819C-0.118,-8.594 -0.192,-8.413 -0.3,-8.256C-2.14,-5.562 -3.983,-2.87 -5.828,-0.179C-6.012,0.089 -6.229,0.365 -6.586,0.104C-6.945,-0.158 -6.724,-0.442 -6.544,-0.704C-4.683,-3.431 -2.826,-6.161 -0.948,-8.875C-0.833,-9.042 -0.553,-9.133 -0.334,-9.169C-0.248,-9.184 -0.12,-8.952 0,-8.819" style="fill:rgb(37,37,37);fill-rule:nonzero;"/>
    </g>
    <g transform="matrix(8.33333,0,0,8.33333,110.604,469.464)">
        <path d="M0,-8.577C-0.064,-6.391 -0.278,-4.231 -1.057,-2.164C-1.64,-0.62 -2.529,0.713 -3.826,1.754C-4.211,2.063 -4.64,2.392 -5.05,1.869C-5.44,1.372 -5.015,1.067 -4.652,0.783C-2.665,-0.772 -1.899,-2.971 -1.565,-5.337C-1.348,-6.88 -1.322,-8.451 -1.236,-10.011C-1.21,-10.494 -1.178,-10.969 -0.562,-10.941C0.009,-10.916 0.009,-10.44 0.001,-10.002C-0.007,-9.527 0,-9.052 0,-8.577" style="fill:rgb(37,37,37);fill-rule:nonzero;"/>
    </g>
</svg>
