<?xml version="1.0" encoding="UTF-8" standalone="no"?>
<!DOCTYPE svg PUBLIC "-//W3C//DTD SVG 1.1//EN" "http://www.w3.org/Graphics/SVG/1.1/DTD/svg11.dtd">
<svg width="100%" height="100%" viewBox="0 0 923 876" version="1.1" xmlns="http://www.w3.org/2000/svg" xmlns:xlink="http://www.w3.org/1999/xlink" xml:space="preserve" xmlns:serif="http://www.serif.com/" style="fill-rule:evenodd;clip-rule:evenodd;stroke-linejoin:round;stroke-miterlimit:2;">
    <g transform="matrix(8.33333,0,0,8.33333,193.97,104.77)">
        <path d="M0,33.082C-0.066,33.039 -0.134,32.999 -0.196,32.952C-0.886,32.442 -0.786,32.488 -0.419,31.708C0.534,29.688 2.341,28.903 4.271,28.243C5.825,27.712 7.248,26.923 8.612,26.018C8.824,25.878 9.072,25.792 9.309,25.692C9.398,25.653 9.555,25.677 9.591,25.618C10.105,24.77 11.163,24.738 11.83,24.108C12.485,23.49 13.25,22.985 13.889,22.352C14.863,21.385 15.863,20.419 16.508,19.184C16.704,18.807 16.706,18.334 16.836,17.916C17.062,17.186 17.354,16.476 17.543,15.738C17.636,15.372 17.562,14.963 17.558,14.573C17.553,14.233 17.516,13.893 17.533,13.554C17.586,12.516 17.474,11.516 17.001,10.566C16.816,10.194 16.767,9.755 16.577,9.386C16.362,8.966 16.111,8.542 15.784,8.209C15.323,7.74 14.554,7.46 13.816,7.24C13.384,7.111 12.988,6.859 12.57,6.675C12.373,6.588 12.168,6.503 11.958,6.464C11.35,6.351 10.722,6.128 10.129,6.192C8.953,6.318 7.676,5.922 6.622,6.845C6.331,7.1 5.858,7.146 5.471,7.293C5.307,7.355 5.133,7.406 4.989,7.501C3.765,8.318 2.51,9.087 1.22,9.791C0.814,10.013 0.26,10.229 -0.142,10.124C-0.763,9.961 -1.311,9.521 -1.886,9.192C-1.928,9.168 -1.95,9.087 -1.958,9.03C-2.232,6.783 -3.819,5.486 -5.44,4.216C-6.039,3.747 -6.602,3.214 -7.257,2.844C-7.802,2.537 -8.484,2.483 -9.061,2.218C-10.548,1.533 -12.098,1.371 -13.7,1.534C-14.018,1.567 -14.363,1.587 -14.638,1.728C-16.313,2.588 -18.077,3.333 -19.349,4.799C-19.789,5.306 -20.133,5.906 -20.469,6.494C-21.965,9.119 -22.05,11.964 -21.669,14.854C-21.585,15.496 -21.184,16.092 -21.044,16.734C-20.577,18.884 -19.198,20.457 -17.834,22.066C-16.402,23.753 -14.612,24.99 -12.72,26.018C-10.386,27.287 -7.921,28.319 -5.493,29.413C-4.676,29.781 -3.796,30.009 -2.956,30.329C-2.528,30.492 -2.103,30.684 -1.721,30.932C-1.569,31.031 -1.441,31.34 -1.481,31.511C-1.523,31.69 -1.772,31.936 -1.945,31.948C-2.675,32 -3.38,32.015 -4.066,31.554C-4.651,31.159 -5.393,31.002 -6.051,30.708C-7.448,30.083 -8.838,29.44 -10.228,28.798C-10.572,28.639 -10.908,28.46 -11.245,28.284C-12.006,27.885 -12.763,27.478 -13.526,27.083C-13.933,26.873 -14.35,26.682 -14.764,26.485C-14.87,26.435 -15.005,26.423 -15.089,26.35C-15.594,25.91 -16.094,25.464 -16.582,25.006C-16.769,24.832 -16.923,24.623 -17.086,24.425C-17.147,24.351 -17.181,24.207 -17.251,24.19C-18.364,23.914 -19.018,23.089 -19.646,22.224C-20.083,21.623 -20.548,21.041 -20.991,20.445C-21.367,19.94 -21.852,19.495 -21.769,18.758C-21.748,18.574 -21.939,18.364 -22.042,18.17C-22.116,18.029 -22.244,17.905 -22.277,17.757C-22.528,16.638 -22.775,15.518 -22.998,14.393C-23.279,12.971 -23.37,11.535 -23.165,10.094C-23.111,9.72 -23.029,9.34 -22.893,8.99C-22.402,7.741 -21.897,6.497 -21.363,5.266C-21.248,5.002 -20.986,4.8 -20.785,4.575C-20.68,4.456 -20.474,4.358 -20.462,4.236C-20.403,3.597 -19.854,3.446 -19.452,3.141C-18.91,2.73 -18.431,2.204 -17.835,1.905C-17.229,1.6 -16.735,1.052 -15.993,1C-15.771,0.985 -15.547,0.832 -15.348,0.705C-14.729,0.309 -14.139,0 -13.326,0.204C-12.785,0.34 -12.172,0.182 -11.591,0.165C-10.543,0.134 -9.58,0.413 -8.692,0.965C-8.607,1.017 -8.519,1.088 -8.426,1.098C-6.769,1.277 -5.712,2.479 -4.493,3.402C-4.092,3.705 -3.696,4.019 -3.325,4.358C-2.405,5.199 -1.832,6.275 -1.311,7.386C-1.141,7.749 -0.943,8.101 -0.732,8.442C-0.481,8.849 -0.084,8.954 0.312,8.736C1.961,7.829 3.576,6.859 5.24,5.983C5.905,5.633 6.665,5.458 7.386,5.218C7.823,5.072 8.271,4.955 8.713,4.821C9.332,4.634 9.911,4.697 10.533,4.914C11.124,5.119 11.813,5.044 12.403,5.249C13.73,5.711 15.108,6.125 16.307,6.829C17.554,7.561 17.987,8.984 18.4,10.317C19.452,13.717 18.957,17.013 17.504,20.161C16.785,21.716 15.521,22.913 14.198,24.016C12.026,25.825 9.584,27.223 7.182,28.68C6.553,29.062 5.843,29.348 5.134,29.548C3.245,30.082 1.729,31.134 0.502,32.64C0.4,32.764 0.281,32.874 0.164,32.984C0.123,33.023 0.064,33.044 0,33.082" style="fill:rgb(37,37,37);fill-rule:nonzero;"/>
    </g>
    <g transform="matrix(8.33333,0,0,8.33333,449.576,842.852)">
        <path d="M0,-50.718C0.787,-50.661 0.919,-50.813 0.965,-51.519C0.98,-51.749 1.166,-52 1.337,-52.182C1.877,-52.753 2.442,-53.301 3.01,-53.846C3.164,-53.993 3.353,-54.114 3.543,-54.212C3.756,-54.322 4.021,-54.348 4.204,-54.489C4.479,-54.699 4.72,-54.751 4.896,-54.438C5.066,-54.136 5.144,-53.819 4.781,-53.532C4.448,-53.269 4.175,-52.93 3.862,-52.638C3.204,-52.021 2.567,-51.376 1.867,-50.811C0.385,-49.614 -0.521,-47.957 -1.656,-46.486C-2.749,-45.069 -3.135,-43.304 -3.883,-41.715C-4.096,-41.262 -4.347,-40.813 -4.469,-40.333C-4.782,-39.096 -5.057,-37.847 -5.304,-36.594C-5.996,-33.084 -5.25,-29.768 -4.111,-26.444C-3.44,-24.485 -3.005,-22.402 -2.791,-20.34C-2.564,-18.155 -2.843,-15.958 -3.424,-13.793C-4.197,-10.907 -5.182,-8.089 -6.531,-5.452C-7.75,-3.072 -9.279,-0.827 -10.874,1.328C-11.651,2.377 -12.877,3.101 -13.934,3.927C-14.069,4.033 -14.458,3.938 -14.65,3.813C-14.852,3.682 -14.957,3.403 -15.146,3.131C-14.653,2.773 -14.459,2.225 -13.656,2.096C-13.068,2.001 -12.2,1.535 -12.049,0.608C-12.013,0.386 -11.844,0.173 -11.7,-0.016C-10.83,-1.158 -9.709,-2.182 -9.131,-3.454C-8.34,-5.194 -7.068,-6.674 -6.509,-8.517C-6.194,-9.551 -6.088,-10.696 -5.564,-11.605C-5.069,-12.468 -5.298,-13.465 -4.755,-14.256C-4.7,-14.335 -4.672,-14.442 -4.662,-14.54C-4.585,-15.328 -4.602,-16.136 -4.098,-16.825C-4.027,-16.92 -4.054,-17.1 -4.063,-17.238C-4.213,-19.246 -4.247,-21.274 -4.563,-23.256C-4.768,-24.539 -5.394,-25.753 -5.812,-27.004C-5.928,-27.351 -5.974,-27.72 -6.055,-28.079C-6.151,-28.502 -6.155,-28.986 -6.373,-29.335C-6.693,-29.848 -6.796,-30.354 -6.739,-30.929C-6.66,-31.731 -6.768,-32.5 -6.931,-33.3C-7.184,-34.539 -7.055,-35.812 -6.701,-37.048C-6.312,-38.408 -6.034,-39.805 -5.567,-41.137C-4.959,-42.87 -4.537,-44.691 -3.413,-46.215C-2.834,-47 -2.324,-47.836 -1.747,-48.622C-1.645,-48.762 -1.338,-48.862 -1.166,-48.819C-0.772,-48.721 -0.607,-48.863 -0.501,-49.209C-0.348,-49.708 -0.173,-50.199 0,-50.718" style="fill:rgb(37,37,37);fill-rule:nonzero;"/>
    </g>
    <g transform="matrix(8.33333,0,0,8.33333,190.934,689.409)">
        <path d="M0,-31.116C-0.422,-31.049 -0.655,-31.014 -0.888,-30.975C-1.126,-30.934 -1.361,-30.859 -1.6,-30.855C-1.812,-30.851 -2.157,-30.854 -2.219,-30.971C-2.594,-31.693 -3.607,-31.411 -3.943,-32.1C-4.058,-32.335 -4.071,-32.713 -3.962,-32.946C-3.56,-33.804 -3.369,-34.769 -2.551,-35.426C-2.117,-35.775 -1.832,-36.327 -1.53,-36.818C-1.278,-37.23 -1.006,-37.277 -0.651,-36.996C-0.286,-36.708 -0.348,-36.372 -0.591,-36.045C-0.949,-35.563 -1.333,-35.099 -1.683,-34.611C-1.916,-34.286 -2.119,-33.938 -2.317,-33.59C-2.735,-32.857 -2.653,-32.637 -1.835,-32.485C-1.407,-32.406 -0.956,-32.393 -0.521,-32.428C1.162,-32.565 2.82,-32.821 4.442,-33.662C3.928,-34.12 3.442,-34.501 3.018,-34.942C2.635,-35.341 2.297,-35.788 1.981,-36.244C1.783,-36.532 1.761,-36.914 2.12,-37.074C2.307,-37.156 2.642,-37.05 2.84,-36.922C3.14,-36.73 3.366,-36.429 3.646,-36.201C4.069,-35.857 4.516,-35.541 4.944,-35.205C5.503,-34.767 6.095,-34.326 6.021,-33.512C5.997,-33.244 5.854,-32.858 5.651,-32.757C4.612,-32.245 3.566,-31.707 2.464,-31.375C1.496,-31.084 0.973,-30.527 0.676,-29.621C0.39,-28.746 0.03,-27.896 -0.257,-27.022C-0.886,-25.105 -0.725,-23.211 0.3,-21.503C1.246,-19.925 2.379,-18.481 3.949,-17.397C5.893,-16.055 7.832,-14.676 9.594,-13.111C11.459,-11.454 12.869,-9.441 13.245,-6.838C13.683,-3.819 13.62,-0.833 12.838,2.114C12.52,3.312 12.059,4.474 11.623,5.638C11.545,5.849 11.275,5.988 11.094,6.161C10.974,5.968 10.747,5.771 10.755,5.584C10.776,5.061 10.877,4.539 10.98,4.022C11.161,3.12 11.36,2.221 11.565,1.324C11.718,0.659 11.949,0.006 12.04,-0.666C12.146,-1.456 12.176,-2.261 12.169,-3.059C12.16,-4.222 12.252,-5.422 11.996,-6.536C11.74,-7.649 11.14,-8.689 10.637,-9.736C9.818,-11.441 8.189,-12.401 6.888,-13.653C6.407,-14.116 5.584,-14.221 5.102,-14.683C3.66,-16.06 1.803,-16.963 0.646,-18.665C0.156,-19.387 -0.599,-19.96 -0.964,-20.729C-1.391,-21.63 -1.603,-22.657 -1.761,-23.653C-1.89,-24.456 -1.954,-25.329 -1.774,-26.108C-1.437,-27.573 -1.209,-29.096 -0.342,-30.394C-0.227,-30.567 -0.16,-30.773 0,-31.116" style="fill:rgb(37,37,37);fill-rule:nonzero;"/>
    </g>
    <g transform="matrix(8.33333,0,0,8.33333,700.187,337.25)">
        <path d="M0,-38.061C0.583,-38.59 1.14,-38.625 1.851,-38.115C4.001,-36.571 5.947,-34.827 7.141,-32.402C8.403,-29.834 9.251,-27.163 9.188,-24.251C9.146,-22.286 8.709,-20.415 8.105,-18.556C7.003,-15.16 5.058,-12.246 2.926,-9.451C2.068,-8.326 0.982,-7.371 -0.016,-6.355C-1.269,-5.078 -2.566,-3.846 -4.146,-2.977C-4.915,-2.554 -5.71,-2.15 -6.54,-1.878C-8.751,-1.153 -10.963,-0.405 -13.222,0.139C-14.586,0.467 -16.036,0.497 -17.451,0.536C-18.415,0.564 -18.782,-0.331 -18.359,-1.432C-17.579,-1.378 -17.501,-1.331 -17.312,-0.79C-16.08,-0.893 -14.844,-0.972 -13.614,-1.113C-13.229,-1.157 -12.864,-1.37 -12.487,-1.498C-11.311,-1.896 -10.133,-2.29 -8.956,-2.686C-8.598,-2.807 -8.248,-2.976 -7.881,-3.04C-6.092,-3.353 -4.689,-4.407 -3.263,-5.412C-2.731,-5.787 -2.237,-6.216 -1.741,-6.637C-1.62,-6.74 -1.555,-6.91 -1.467,-7.052C-1.405,-7.152 -1.374,-7.29 -1.287,-7.353C-0.873,-7.648 -0.445,-7.924 -0.022,-8.207C0.061,-8.262 0.163,-8.304 0.222,-8.379C0.959,-9.319 1.694,-10.26 2.418,-11.21C2.6,-11.448 2.702,-11.751 2.901,-11.968C4.383,-13.584 5.405,-15.48 6.268,-17.468C6.624,-18.288 7.091,-19.141 7.126,-19.994C7.157,-20.745 7.381,-21.346 7.646,-21.989C7.734,-22.202 7.704,-22.464 7.727,-22.704C7.797,-23.475 7.961,-24.253 7.909,-25.016C7.85,-25.902 7.607,-26.776 7.427,-27.652C7.391,-27.823 7.199,-27.986 7.213,-28.141C7.351,-29.715 6.24,-30.842 5.67,-32.12C4.83,-33.999 3.416,-35.571 1.762,-36.863C1.625,-36.969 1.439,-37.044 1.268,-37.07C0.649,-37.161 0.275,-37.543 0,-38.061" style="fill:rgb(37,37,37);fill-rule:nonzero;"/>
    </g>
    <g transform="matrix(8.33333,0,0,8.33333,638.191,471.889)">
        <path d="M0,11.305C0.001,11.243 0.001,11.181 0.002,11.119C-1.042,10.984 -2.082,10.821 -3.13,10.736C-3.376,10.716 -3.807,10.908 -3.868,11.095C-3.993,11.478 -3.458,12.182 -3.132,12.154C-2.036,12.061 -0.979,11.811 0,11.305M33.282,-2.998C34.145,-2.832 34.13,-2.834 34.006,-2.012C33.969,-1.767 34.029,-1.505 34.055,-1.252C34.063,-1.178 34.151,-1.076 34.127,-1.041C33.574,-0.255 34.114,0.669 33.774,1.51C33.446,2.322 33.418,3.258 33.069,4.057C32.7,4.905 32.112,5.657 31.614,6.448C31.435,6.734 31.28,7.054 31.044,7.287C30.361,7.959 29.712,8.699 28.923,9.223C27.607,10.097 26.22,10.875 24.814,11.6C22.565,12.761 20.088,13.259 17.663,13.896C17.341,13.98 16.982,13.92 16.645,13.961C16.113,14.026 15.587,14.127 15.056,14.199C14.722,14.245 14.382,14.303 14.047,14.292C13.451,14.272 12.854,14.139 12.263,14.169C10.257,14.268 8.39,13.556 6.46,13.219C6.124,13.161 5.787,12.893 5.53,12.641C4.649,11.772 3.487,11.801 2.397,11.613C2.213,11.581 1.981,11.74 1.791,11.844C1.316,12.105 0.882,12.482 0.377,12.638C-0.729,12.983 -1.861,13.25 -2.996,13.487C-3.514,13.595 -3.986,13.413 -4.271,12.897C-4.345,12.763 -4.488,12.665 -4.604,12.555C-4.678,12.487 -4.765,12.434 -4.837,12.364C-5.526,11.697 -5.174,9.882 -4.273,9.59C-4.03,9.51 -3.729,9.608 -3.454,9.62C-2.689,9.651 -1.955,9.542 -1.154,9.777C-0.182,10.063 0.915,9.908 1.954,10C2.33,10.034 2.731,10.169 3.052,10.368C3.544,10.674 3.992,10.887 4.562,10.573C4.681,10.507 4.926,10.529 5.037,10.612C5.727,11.127 6.458,11.502 7.269,11.839C8.647,12.411 10.101,12.476 11.503,12.835C11.754,12.899 12.049,12.794 12.324,12.769C12.499,12.753 12.674,12.725 12.849,12.729C13.376,12.741 13.909,12.825 14.429,12.774C15.638,12.653 16.854,12.534 18.043,12.292C19.121,12.073 20.157,11.65 21.23,11.393C22.146,11.174 23.006,10.95 23.806,10.366C24.414,9.921 25.255,9.795 25.992,9.526C26.048,9.506 26.11,9.49 26.157,9.455C27.302,8.581 28.467,7.732 29.576,6.815C30.048,6.425 30.42,5.906 30.798,5.414C31.012,5.135 31.163,4.802 31.312,4.479C31.444,4.189 31.504,3.863 31.65,3.581C32.301,2.326 32.375,0.971 32.396,-0.4C32.399,-0.651 32.403,-1.022 32.556,-1.131C33.173,-1.575 33.143,-2.218 33.212,-2.844C33.218,-2.898 33.259,-2.948 33.282,-2.998" style="fill:rgb(37,37,37);fill-rule:nonzero;"/>
    </g>
    <g transform="matrix(8.33333,0,0,8.33333,648.868,342.831)">
        <path d="M0,24.013C-0.725,23.58 -0.913,23.073 -0.841,22.435C-0.808,22.137 -0.786,21.832 -0.81,21.534C-0.906,20.273 -0.626,19.115 0.072,18.056C0.181,17.892 0.306,17.674 0.281,17.501C0.174,16.745 0.556,16.16 0.831,15.511C1.28,14.451 1.568,13.323 2.003,12.256C2.74,10.443 4.11,9.047 5.244,7.496C6.566,5.687 8.442,4.526 10.221,3.259C11.056,2.665 11.933,2.097 12.864,1.683C13.994,1.181 15.177,0.744 16.381,0.482C17.783,0.176 19.219,0 20.681,0.256C22.528,0.579 24.393,0.874 26.074,1.72C27.193,2.284 28.19,3.09 29.237,3.794C29.351,3.871 29.437,3.991 29.526,4.098C30.076,4.749 30.635,5.394 31.17,6.058C32.08,7.187 32.392,8.571 32.744,9.927C32.855,10.354 32.402,10.712 31.881,10.693C31.447,10.678 31.437,10.385 31.386,10.027C31.31,9.487 31.165,8.938 30.938,8.444C30.681,7.883 30.331,7.356 29.967,6.854C29.198,5.795 28.405,4.741 27.317,3.988C26.756,3.599 26.043,3.432 25.623,2.828C25.594,2.786 25.52,2.765 25.462,2.752C24.288,2.475 23.113,2.201 21.939,1.925C21.766,1.884 21.587,1.85 21.42,1.787C20.241,1.346 19.004,1.306 17.802,1.489C16.165,1.738 14.664,2.472 13.175,3.171C12.343,3.561 11.537,4.026 10.779,4.544C10.333,4.849 9.957,5.189 9.412,5.388C8.908,5.572 8.537,6.118 8.105,6.502C7.277,7.237 6.444,7.965 5.623,8.708C5.418,8.893 5.215,9.1 5.074,9.335C4.615,10.105 4.163,10.88 3.751,11.675C3.42,12.313 3.147,12.982 2.856,13.64C2.694,14.005 2.517,14.367 2.399,14.747C2.189,15.426 2.023,16.119 1.83,16.804C1.75,17.09 1.713,17.425 1.538,17.643C0.804,18.562 0.659,19.643 0.578,20.754C0.521,21.534 0.48,22.318 0.376,23.092C0.336,23.395 0.143,23.677 0,24.013" style="fill:rgb(37,37,37);fill-rule:nonzero;"/>
    </g>
    <g transform="matrix(8.33333,0,0,8.33333,542.146,10.7344)">
        <path d="M0,34.681C-0.029,35.084 -0.05,35.348 -0.078,35.734C-0.643,36.249 -0.865,36.245 -1.334,35.483C-1.582,35.081 -1.726,34.616 -1.921,34.182C-1.993,34.02 -2.087,33.867 -2.151,33.703C-2.237,33.487 -2.304,33.264 -2.352,33.021C-2.621,32.374 -2.82,31.687 -3.172,31.087C-4.124,29.46 -3.898,27.587 -4.322,25.851C-4.596,24.734 -4.789,23.528 -4.661,22.403C-4.494,20.936 -4.603,19.444 -4.245,17.995C-4,17.001 -3.802,15.995 -3.578,14.995C-3.557,14.901 -3.524,14.772 -3.456,14.734C-2.905,14.427 -3.011,13.922 -3.009,13.427C-3.008,13.157 -2.929,12.872 -2.823,12.619C-2.231,11.19 -1.754,9.692 -0.979,8.369C-0.294,7.203 0.196,5.862 1.391,5.016C1.848,4.692 2.17,4.177 2.553,3.749C2.633,3.659 2.694,3.534 2.795,3.484C4.244,2.754 5.209,1.307 6.806,0.788C7.161,0.673 7.459,0.392 7.808,0.246C8.314,0.034 8.845,-0.124 9.363,-0.308C9.608,-0.395 9.865,-0.463 10.09,-0.588C10.569,-0.854 11.029,-1.135 11.617,-0.904C11.727,-0.861 11.907,-0.909 12.019,-0.976C13,-1.568 13.918,-1.208 14.832,-0.801C14.979,-0.736 15.139,-0.669 15.245,-0.558C15.388,-0.41 15.483,-0.219 15.599,-0.046C15.376,0.086 15.153,0.218 14.93,0.347C14.917,0.355 14.89,0.345 14.871,0.339C12.326,-0.561 10.22,0.764 8.058,1.72C6.136,2.571 4.495,3.84 2.903,5.214C2.237,5.789 1.812,6.446 1.371,7.143C-0.806,10.581 -2.206,14.332 -2.824,18.333C-3.312,21.481 -3.466,24.668 -2.649,27.81C-2.272,29.261 -1.931,30.731 -1.41,32.132C-1.056,33.088 -0.421,33.939 0,34.681" style="fill:rgb(37,37,37);fill-rule:nonzero;"/>
    </g>
    <g transform="matrix(8.33333,0,0,8.33333,421.858,579.322)">
        <path d="M0,33.723C-0.603,33.533 -0.493,33.144 -0.362,32.813C-0.279,32.605 -0.083,32.427 0.095,32.273C1.111,31.387 2.104,30.487 2.752,29.271C2.88,29.031 3.077,28.79 3.304,28.647C4.287,28.025 4.921,27.094 5.541,26.159C5.899,25.618 6.148,25.006 6.474,24.442C6.721,24.012 7.056,23.629 7.268,23.185C7.548,22.597 7.747,21.97 7.976,21.358C7.994,21.308 7.951,21.192 7.965,21.187C8.775,20.908 8.313,20.051 8.726,19.505C9.22,18.852 9.344,17.883 9.511,17.028C9.864,15.221 10.146,13.399 10.445,11.581C10.469,11.438 10.413,11.28 10.382,11.132C10.368,11.064 10.282,10.989 10.298,10.941C10.547,10.185 10.791,9.427 11.068,8.682C11.423,7.733 11.699,6.732 12.207,5.871C12.746,4.958 13.515,4.18 14.194,3.352C14.277,3.251 14.492,3.242 14.547,3.137C15.082,2.129 16.18,1.775 16.949,1.042C17.853,0.184 18.946,-0.212 20.179,-0.218C20.345,-0.219 20.633,-0.069 20.651,0.045C20.687,0.266 20.609,0.532 20.503,0.74C20.444,0.855 20.229,0.887 20.088,0.962C18.976,1.55 17.854,2.12 16.76,2.741C16.485,2.897 16.305,3.216 16.083,3.462C16.043,3.507 16.025,3.582 15.979,3.608C15.192,4.025 14.742,4.772 14.198,5.425C13.843,5.852 13.364,6.244 13.188,6.74C12.575,8.465 11.637,10.116 11.805,12.053C11.834,12.384 11.74,12.73 11.68,13.064C11.247,15.429 10.847,17.819 10.006,20.066C9.249,22.087 8.422,24.159 7.198,25.909C5.404,28.475 3.235,30.781 1.209,33.182C0.89,33.56 0.508,33.942 0,33.723" style="fill:rgb(37,37,37);fill-rule:nonzero;"/>
    </g>
    <g transform="matrix(8.33333,0,0,8.33333,543,371.69)">
        <path d="M0,-3.672C0.06,-3.421 0.222,-3.145 0.144,-2.996C-0.507,-1.759 -1.131,-0.498 -1.912,0.655C-2.308,1.24 -3.011,1.617 -3.575,2.088C-5.02,1.469 -6.171,0.452 -6.979,-0.946C-7.422,-1.714 -6.863,-2.949 -5.993,-3.182C-5.732,-3.252 -5.488,-3.394 -5.248,-3.523C-4.384,-3.985 -3.521,-4.45 -2.664,-4.925C-2.316,-5.118 -1.986,-5.342 -1.645,-5.546C-1.512,-5.625 -1.359,-5.76 -1.231,-5.745C-0.937,-5.709 -0.653,-5.596 -0.365,-5.514C-0.514,-5.189 -0.572,-4.725 -0.825,-4.563C-1.992,-3.817 -3.215,-3.158 -4.414,-2.461C-4.727,-2.28 -5.036,-2.09 -5.33,-1.881C-5.647,-1.657 -5.732,-1.382 -5.406,-1.088C-4.959,-0.685 -4.51,-0.285 -4.058,0.112C-3.815,0.325 -3.589,0.31 -3.394,0.04C-2.748,-0.851 -2.074,-1.724 -1.472,-2.643C-1.238,-2.998 -1.063,-3.305 -0.587,-3.332C-0.427,-3.341 -0.274,-3.506 0,-3.672" style="fill:rgb(37,37,37);fill-rule:nonzero;"/>
    </g>
</svg>
