<?xml version="1.0" encoding="UTF-8" standalone="no"?>
<!DOCTYPE svg PUBLIC "-//W3C//DTD SVG 1.1//EN" "http://www.w3.org/Graphics/SVG/1.1/DTD/svg11.dtd">
<svg width="100%" height="100%" viewBox="0 0 879 667" version="1.1" xmlns="http://www.w3.org/2000/svg" xmlns:xlink="http://www.w3.org/1999/xlink" xml:space="preserve" xmlns:serif="http://www.serif.com/" style="fill-rule:evenodd;clip-rule:evenodd;stroke-linejoin:round;stroke-miterlimit:2;">
    <g transform="matrix(8.33333,0,0,8.33333,550.458,103.695)">
        <path d="M0,55.063C-0.293,55.353 -0.632,55.609 -0.868,55.939C-1.307,56.553 -0.836,57.772 -0.136,57.93C0.823,58.146 2.114,57.328 2.241,56.357C2.277,56.078 2.12,55.57 1.933,55.503C1.354,55.298 0.773,54.916 0,55.063M-12.459,33.162C-12.488,33.169 -12.518,33.175 -12.547,33.181C-12.503,33.337 -12.467,33.496 -12.412,33.648C-12.329,33.882 -12.371,34.064 -12.637,34.09C-13.064,34.132 -13.496,34.132 -13.926,34.163C-14.044,34.171 -14.222,34.195 -14.258,34.268C-14.312,34.374 -14.308,34.56 -14.246,34.663C-13.964,35.133 -13.646,35.583 -13.355,36.049C-13.207,36.285 -13.108,36.552 -12.953,36.782C-12.308,37.732 -11.663,38.683 -10.991,39.615C-10.37,40.477 -9.717,41.316 -9.076,42.164C-8.522,42.896 -7.969,43.626 -7.411,44.355C-7.342,44.446 -7.254,44.523 -7.175,44.607C-7.146,44.584 -7.115,44.562 -7.086,44.54C-8.877,40.747 -10.668,36.955 -12.459,33.162M-3.395,42.34C-3.322,42.326 -3.251,42.312 -3.18,42.298C-3.172,41.913 -3.13,41.526 -3.163,41.144C-3.278,39.832 -3.415,38.522 -3.554,37.212C-3.665,36.149 -3.763,35.084 -3.917,34.026C-4.094,32.816 -4.29,31.614 -4.075,30.386C-4.029,30.123 -4.07,29.844 -4.071,29.464C-4.293,29.656 -4.415,29.767 -4.542,29.87C-5.431,30.591 -6.233,31.526 -7.65,31.077C-7.281,32.096 -6.935,33.08 -6.567,34.057C-6.316,34.723 -6.046,35.382 -5.771,36.038C-5.33,37.084 -4.853,38.115 -4.443,39.173C-4.205,39.789 -4.087,40.451 -3.885,41.083C-3.748,41.51 -3.56,41.921 -3.395,42.34M-0.505,27.733C-0.438,28.56 -0.371,29.305 -0.321,30.051C-0.273,30.785 -0.287,31.525 -0.194,32.252C-0.023,33.602 0.206,34.945 0.41,36.291C0.547,37.197 0.685,38.102 0.815,39.008C0.882,39.467 1.048,39.948 0.971,40.384C0.805,41.315 1.384,42.047 1.496,42.905C1.688,41.599 1.844,40.301 1.885,38.998C1.937,37.309 1.886,35.616 1.904,33.926C1.924,32.199 1.975,30.474 2.01,28.748C2.021,28.201 1.856,28.081 1.309,28.16C1.106,28.189 0.885,28.144 0.683,28.092C0.299,27.993 -0.078,27.864 -0.505,27.733M-9.287,50.118C-9.228,50.053 -9.169,49.988 -9.109,49.923C-9.333,49.671 -9.577,49.434 -9.775,49.164C-10.649,47.977 -11.506,46.778 -12.379,45.591C-12.603,45.286 -12.884,45.022 -13.106,44.716C-13.921,43.593 -14.715,42.455 -15.531,41.334C-15.937,40.777 -16.446,40.284 -16.779,39.69C-17.208,38.927 -18.05,38.759 -18.626,38.225C-18.675,38.18 -18.785,38.177 -18.861,38.19C-19.437,38.287 -20.013,38.394 -20.673,38.512C-20.158,39.115 -19.721,39.608 -19.306,40.118C-18.901,40.614 -18.55,41.155 -18.121,41.627C-17.605,42.195 -17.021,42.698 -16.488,43.25C-15.881,43.879 -15.313,44.547 -14.697,45.167C-14.307,45.562 -13.856,45.898 -13.438,46.266C-12.985,46.666 -12.571,47.118 -12.083,47.466C-11.261,48.051 -10.51,48.688 -9.945,49.539C-9.79,49.774 -9.51,49.927 -9.287,50.118M10.005,24.783C9.826,24.834 9.723,24.841 9.645,24.889C8.69,25.469 7.738,26.053 6.792,26.646C6.688,26.711 6.571,26.829 6.55,26.939C6.45,27.45 6.336,27.965 6.313,28.482C6.281,29.237 6.355,29.996 6.328,30.751C6.249,32.982 6.132,35.211 6.05,37.442C6.01,38.54 6.019,39.64 5.998,40.74C5.993,40.985 5.94,41.229 5.941,41.474C5.942,41.698 5.986,41.921 6.012,42.144C6.083,42.149 6.154,42.154 6.225,42.159C6.473,41.16 6.733,40.165 6.963,39.162C7.094,38.59 7.167,38.003 7.279,37.426C7.397,36.818 7.545,36.215 7.657,35.606C7.85,34.565 8.025,33.52 8.209,32.476C8.395,31.423 8.984,30.507 9.063,29.387C9.152,28.126 9.574,26.888 9.847,25.639C9.902,25.386 9.941,25.128 10.005,24.783M13.91,27.657C13.812,27.875 13.728,28.002 13.694,28.141C13.414,29.326 13.191,30.526 12.856,31.695C12.478,33.015 12.197,34.366 11.604,35.627C11.307,36.256 11.085,36.959 11.018,37.646C10.923,38.613 10.579,39.48 10.278,40.379C10.024,41.136 9.867,41.928 9.708,42.712C9.578,43.353 9.512,44.006 9.409,44.653C9.346,45.056 9.268,45.457 9.196,45.858C9.256,45.875 9.315,45.891 9.376,45.908C9.609,45.35 9.826,44.784 10.082,44.237C10.54,43.254 11.027,42.285 11.491,41.306C11.839,40.572 12.168,39.828 12.51,39.091C12.661,38.762 12.843,38.446 12.976,38.11C13.294,37.305 13.583,36.489 13.903,35.686C13.975,35.506 14.157,35.373 14.236,35.195C14.731,34.079 15.2,32.952 15.702,31.84C16.185,30.768 16.697,29.709 17.191,28.656C16.062,28.434 14.845,28.686 13.91,27.657M-27.502,47.24C-27.165,47.467 -26.895,47.716 -26.577,47.85C-24.746,48.624 -22.905,49.372 -21.066,50.124C-20.66,50.29 -20.232,50.409 -19.837,50.597C-19.204,50.897 -18.62,51.332 -17.962,51.542C-16.472,52.017 -15.216,53.036 -13.662,53.346C-13.633,53.352 -13.608,53.385 -13.578,53.397C-13.069,53.603 -12.565,53.823 -12.048,54.006C-11.882,54.064 -11.682,54.024 -11.476,54.03C-11.779,53.723 -12.037,53.458 -12.299,53.198C-12.838,52.661 -13.396,52.143 -13.913,51.587C-14.491,50.967 -15.047,50.325 -15.586,49.671C-16.159,48.976 -16.657,48.212 -17.27,47.555C-18.141,46.62 -19.086,45.754 -20.001,44.86C-20.631,44.244 -21.272,43.641 -21.891,43.013C-22.491,42.404 -23.067,41.771 -23.65,41.152C-23.979,41.889 -24.303,42.601 -24.613,43.317C-24.821,43.794 -25.081,44.23 -25.106,44.798C-25.147,45.709 -25.217,45.673 -26.126,45.956C-26.755,46.151 -27.168,46.64 -27.502,47.24M-26.979,-5.64C-26.959,-5.427 -26.97,-5.356 -26.945,-5.3C-26.628,-4.563 -26.307,-3.828 -25.984,-3.093C-25.8,-2.67 -25.616,-2.247 -25.424,-1.828C-24.854,-0.585 -24.312,0.672 -23.699,1.894C-23.213,2.863 -22.61,3.774 -22.116,4.739C-21.746,5.462 -21.506,6.252 -21.136,6.974C-20.606,8.003 -20.053,9.024 -19.436,10.002C-18.39,11.661 -17.901,13.572 -16.987,15.287C-16.648,15.925 -16.293,16.555 -15.946,17.188C-15.487,18.024 -14.909,18.819 -14.598,19.706C-13.985,21.451 -13.398,23.2 -12.542,24.843C-12.087,25.715 -11.603,26.573 -11.087,27.41C-10.878,27.751 -10.448,27.974 -10.296,28.326C-9.888,29.271 -9.322,29.935 -8.211,29.915C-7.991,29.911 -7.697,29.938 -7.577,29.814C-7.462,29.697 -7.474,29.388 -7.523,29.187C-7.675,28.57 -7.882,27.967 -8.046,27.353C-8.285,26.459 -8.479,25.553 -8.744,24.667C-8.921,24.079 -9.22,23.529 -9.407,22.944C-9.86,21.532 -10.285,20.112 -10.708,18.691C-10.812,18.344 -10.831,17.971 -10.943,17.628C-11.134,17.05 -11.398,16.495 -11.576,15.914C-12.153,14.029 -12.711,12.137 -13.266,10.246C-13.613,9.059 -13.942,7.866 -14.28,6.677C-14.408,6.225 -14.537,5.773 -14.667,5.322C-14.912,4.478 -15.153,3.633 -15.405,2.791C-15.7,1.81 -16.014,0.835 -16.304,-0.147C-16.612,-1.198 -16.903,-2.254 -17.205,-3.319C-17.46,-3.264 -17.653,-3.222 -17.84,-3.182C-18.179,-3.62 -18.362,-3.704 -18.85,-3.702C-19.119,-3.701 -19.401,-3.687 -19.655,-3.759C-21.309,-4.222 -22.95,-4.729 -24.608,-5.176C-25.357,-5.379 -26.134,-5.478 -26.979,-5.64M38.337,-1.28C38.058,-1.33 37.769,-1.316 37.55,-1.433C36.866,-1.798 36.178,-1.761 35.488,-1.519C35.081,-1.376 34.757,-1.422 34.439,-1.715C34.348,-1.8 34.176,-1.835 34.041,-1.834C32.877,-1.825 31.713,-1.791 30.549,-1.787C29.643,-1.783 28.733,-1.775 27.83,-1.839C26.783,-1.913 25.807,-1.741 24.894,-1.225C24.797,-1.17 24.666,-1.097 24.641,-1.008C24.521,-0.582 24.443,-0.145 24.334,0.284C24.066,1.329 24.023,2.438 23.454,3.398C23.229,3.779 22.917,4.131 22.783,4.542C22.488,5.447 22.285,6.382 22.037,7.302C21.994,7.461 21.944,7.63 21.85,7.759C21.221,8.613 20.88,9.586 20.639,10.605C20.359,11.784 20.174,13 19.752,14.126C19.363,15.161 19.186,16.296 18.49,17.21C18.421,17.301 18.364,17.413 18.339,17.523C18.071,18.686 17.865,19.867 17.534,21.011C17.181,22.231 16.581,23.378 16.443,24.662C16.366,25.387 15.868,26.019 16.123,26.84C16.254,27.259 16.374,27.505 16.783,27.558C17.473,27.647 18.165,27.723 18.857,27.782C20.418,27.915 21.979,28.056 23.541,28.139C23.797,28.153 24.211,27.953 24.308,27.741C24.685,26.915 25.575,26.303 25.398,25.239C25.394,25.21 25.413,25.174 25.429,25.146C25.67,24.696 25.919,24.252 26.152,23.799C26.469,23.184 26.781,22.568 27.08,21.945C27.462,21.146 27.815,20.333 28.204,19.538C28.434,19.069 28.712,18.623 28.961,18.164C29.553,17.074 30.145,15.985 30.727,14.89C31.003,14.371 31.256,13.839 31.523,13.315C32.229,11.929 32.935,10.544 33.643,9.16C34.216,8.039 34.792,6.92 35.369,5.801C35.642,5.271 35.971,4.763 36.185,4.211C36.663,2.978 37.07,1.717 37.538,0.479C37.758,-0.104 38.051,-0.658 38.337,-1.28M6.115,-4.609C6.774,-4.287 6.779,-4.175 6.353,-3.757C6.248,-3.654 6.174,-3.473 6.168,-3.325C6.119,-2.076 6.172,-0.811 5.419,0.293C5.378,0.354 5.421,0.471 5.425,0.562C5.469,1.669 5.742,2.772 5.326,3.88C5.033,4.66 4.838,5.477 4.866,6.332C4.88,6.742 4.84,7.157 4.791,7.566C4.545,9.612 4.549,11.66 4.716,13.711C4.75,14.131 4.847,14.597 4.711,14.967C4.497,15.553 4.684,16.105 4.654,16.669C4.604,17.633 4.61,18.6 4.547,19.562C4.507,20.163 4.345,20.755 4.308,21.356C4.258,22.175 4.296,22.999 4.258,23.82C4.227,24.493 4.126,25.163 4.084,25.836C4.066,26.111 4.022,26.498 4.173,26.637C4.325,26.778 4.719,26.737 4.979,26.668C5.982,26.402 6.777,25.743 7.623,25.182C8.331,24.713 9.038,24.242 9.752,23.782C10.289,23.435 10.335,22.929 10.343,22.344C10.353,21.561 10.436,20.773 10.563,20C10.717,19.085 10.951,18.184 11.149,17.277C11.357,16.326 11.437,15.322 11.802,14.437C12.266,13.315 12.675,12.192 12.904,11.004C12.981,10.606 12.975,10.192 13.03,9.788C13.158,8.848 13.295,7.91 13.439,6.973C13.591,5.993 13.735,5.011 13.919,4.036C14.053,3.325 14.278,2.631 14.403,1.919C14.567,0.98 14.643,0.026 14.813,-0.912C15.096,-2.473 15.409,-4.029 15.736,-5.582C15.989,-6.785 16.286,-7.979 16.556,-9.179C16.581,-9.291 16.555,-9.415 16.552,-9.533C16.653,-9.493 16.755,-9.454 16.855,-9.414C16.841,-9.079 16.856,-8.739 16.804,-8.41C16.622,-7.294 16.41,-6.182 16.221,-5.067C16.032,-3.951 15.868,-2.832 15.671,-1.718C15.559,-1.089 15.366,-0.473 15.269,0.158C15.057,1.525 14.909,2.901 14.683,4.265C14.521,5.237 14.253,6.19 14.072,7.158C13.878,8.194 13.651,9.233 13.583,10.28C13.506,11.482 13.199,12.611 12.854,13.749C12.639,14.463 12.247,15.096 12.181,15.895C12.087,17.027 11.726,18.135 11.503,19.258C11.342,20.073 11.219,20.896 11.082,21.716C11.074,21.763 11.101,21.816 11.094,21.863C11.05,22.133 11.045,22.419 10.945,22.666C10.683,23.321 10.823,24.257 11.314,24.608C12.081,25.157 12.869,25.676 13.643,26.216C13.791,26.319 13.922,26.449 14.045,26.583C14.302,26.863 14.581,26.875 14.816,26.598C14.995,26.388 15.149,26.134 15.235,25.873C15.488,25.107 15.69,24.325 15.933,23.555C16.403,22.057 16.909,20.569 17.361,19.065C17.69,17.969 17.937,16.848 18.254,15.748C18.63,14.448 19.283,13.255 19.537,11.891C19.791,10.529 20.351,9.222 20.808,7.903C21.261,6.595 21.757,5.303 22.229,4.002C22.664,2.799 23.272,1.66 23.468,0.367C23.554,-0.204 23.784,-0.76 24.002,-1.301C24.124,-1.603 24.375,-1.851 24.528,-2.144C24.588,-2.26 24.597,-2.468 24.532,-2.573C24.275,-2.991 24.013,-3.412 23.694,-3.782C22.504,-5.167 21.302,-6.543 20.083,-7.904C19.204,-8.885 18.292,-9.837 17.394,-10.8C16.876,-11.355 16.614,-11.395 15.897,-11.049C15.675,-10.941 15.439,-10.856 15.217,-10.748C14.346,-10.322 13.454,-9.931 12.613,-9.451C11.775,-8.971 10.989,-8.4 10.179,-7.87C9.822,-7.637 9.453,-7.421 9.108,-7.172C8.685,-6.867 8.266,-6.553 7.872,-6.212C7.295,-5.711 6.742,-5.184 6.115,-4.609M-6.749,28.585L-6.834,28.631C-6.797,28.759 -6.762,28.888 -6.725,29.016C-6.542,29.644 -6.342,29.749 -5.745,29.472C-5.369,29.297 -4.99,29.108 -4.658,28.862C-3.801,28.228 -2.992,27.527 -2.115,26.923C-1.822,26.72 -1.372,26.626 -1.012,26.663C-0.069,26.76 0.861,26.97 1.802,27.106C2.093,27.148 2.402,27.127 2.695,27.08C2.833,27.057 3.028,26.928 3.063,26.808C3.194,26.355 3.315,25.89 3.357,25.423C3.467,24.199 3.521,22.97 3.618,21.745C3.679,20.992 3.823,20.244 3.848,19.491C3.895,18.096 3.886,16.699 3.894,15.303C3.9,14.031 3.905,12.758 3.897,11.485C3.892,10.617 3.841,9.749 3.85,8.881C3.858,7.986 3.896,7.09 3.956,6.197C3.994,5.628 4.063,5.057 4.179,4.499C4.309,3.868 4.572,3.259 4.654,2.625C4.748,1.899 4.705,1.157 4.726,0.421C4.729,0.307 4.747,0.192 4.767,0.078C4.951,-0.972 5.192,-2.017 5.3,-3.076C5.349,-3.563 5.487,-4.171 4.795,-4.496C4.129,-4.808 3.512,-5.229 2.881,-5.613C2.039,-6.125 1.23,-6.695 0.361,-7.153C-0.847,-7.79 -2.085,-8.376 -3.334,-8.929C-4.722,-9.541 -6.141,-10.084 -7.538,-10.673C-8.134,-10.925 -8.585,-10.699 -9.022,-10.32C-9.82,-9.628 -10.614,-8.93 -11.433,-8.263C-12.151,-7.677 -12.922,-7.153 -13.633,-6.557C-14.361,-5.945 -15.058,-5.293 -15.74,-4.63C-15.989,-4.388 -16.358,-4.038 -16.328,-3.778C-16.19,-2.611 -15.972,-1.447 -15.699,-0.303C-15.479,0.625 -15.136,1.523 -14.852,2.435C-14.466,3.671 -14.067,4.902 -13.706,6.145C-13.372,7.292 -13.08,8.451 -12.771,9.605C-12.6,10.252 -12.454,10.907 -12.254,11.544C-12.028,12.264 -11.748,12.968 -11.503,13.682C-11.113,14.82 -10.708,15.954 -10.354,17.103C-9.969,18.353 -9.64,19.62 -9.272,20.875C-9.162,21.255 -8.981,21.615 -8.874,21.995C-8.71,22.572 -8.613,23.169 -8.434,23.741C-8.116,24.753 -7.749,25.749 -7.422,26.758C-7.316,27.084 -7.305,27.442 -7.189,27.763C-7.086,28.053 -6.898,28.312 -6.749,28.585M-41.56,3.659C-41.458,3.849 -41.411,3.989 -41.323,4.095C-40.961,4.535 -40.595,4.972 -40.213,5.396C-39.72,5.945 -39.074,6.407 -38.741,7.037C-38.185,8.09 -37.188,8.691 -36.476,9.571C-36.044,10.103 -35.479,10.524 -35.003,11.021C-33.995,12.071 -33.012,13.143 -32.006,14.194C-31.633,14.584 -31.199,14.917 -30.841,15.318C-30.5,15.699 -30.003,15.99 -29.986,16.601C-29.984,16.677 -29.87,16.758 -29.796,16.822C-29.312,17.236 -28.805,17.627 -28.345,18.067C-28.127,18.277 -28.009,18.587 -27.822,18.834C-27.281,19.551 -26.596,20.196 -26.214,20.988C-25.742,21.965 -24.607,22.23 -24.164,23.188C-24.019,23.503 -23.718,23.745 -23.508,24.035C-22.899,24.876 -22.368,25.787 -21.671,26.545C-21.338,26.907 -21.195,27.329 -20.928,27.698C-20.813,27.855 -20.735,28.038 -20.618,28.193C-20.26,28.666 -19.932,29.173 -19.513,29.589C-19.026,30.072 -18.822,30.815 -18.11,31.097C-18.005,31.139 -17.902,31.385 -17.93,31.507C-17.958,31.629 -18.139,31.772 -18.273,31.799C-18.406,31.826 -18.616,31.763 -18.704,31.663C-19.208,31.09 -19.697,30.503 -20.17,29.903C-20.729,29.192 -21.277,28.473 -21.809,27.741C-22.366,26.974 -22.881,26.176 -23.448,25.416C-23.764,24.995 -24.169,24.642 -24.498,24.23C-25.574,22.882 -26.619,21.508 -27.706,20.169C-28.48,19.214 -29.295,18.291 -30.107,17.367C-30.779,16.603 -31.468,15.853 -32.161,15.109C-32.834,14.386 -33.533,13.689 -34.2,12.962C-34.755,12.357 -35.258,11.705 -35.822,11.11C-36.443,10.456 -37.106,9.841 -37.757,9.215C-37.95,9.028 -38.188,8.883 -38.364,8.682C-38.921,8.049 -39.42,7.361 -40.013,6.764C-40.944,5.823 -41.934,4.94 -42.899,4.032C-42.992,4.002 -43.085,3.972 -43.178,3.942C-43.228,4.166 -43.267,4.394 -43.328,4.615C-43.559,5.443 -43.836,6.261 -44.022,7.1C-44.28,8.251 -44.477,9.417 -44.682,10.58C-44.695,10.658 -44.583,10.779 -44.503,10.851C-43.575,11.678 -42.613,12.469 -41.716,13.328C-40.569,14.428 -39.479,15.587 -38.353,16.707C-37.324,17.729 -36.351,18.823 -35.221,19.72C-34.12,20.595 -33.324,21.703 -32.488,22.778C-31.885,23.553 -31.148,24.135 -30.408,24.744C-29.886,25.173 -29.438,25.696 -28.979,26.196C-28.787,26.406 -28.685,26.703 -28.479,26.892C-27.998,27.334 -27.488,27.746 -26.974,28.148C-26.356,28.632 -25.779,29.114 -25.32,29.792C-24.762,30.615 -23.978,31.285 -23.3,32.029C-22.846,32.527 -22.402,33.035 -21.961,33.544C-21.644,33.911 -21.352,34.3 -21.023,34.657C-20.589,35.129 -20.137,35.585 -19.68,36.035C-19.506,36.206 -19.262,36.492 -19.112,36.457C-18.887,36.404 -18.642,36.15 -18.537,35.921C-18.268,35.331 -18.086,34.701 -17.836,34.101C-17.755,33.907 -17.599,33.643 -17.432,33.604C-16.281,33.333 -15.116,33.124 -13.963,32.865C-13.786,32.826 -13.625,32.653 -13.49,32.511C-13.369,32.383 -13.317,32.19 -13.196,32.064C-12.597,31.439 -11.982,30.829 -11.376,30.21C-11.085,29.913 -10.841,29.581 -11.01,29.141C-11.247,28.519 -11.473,27.887 -11.782,27.301C-12.231,26.449 -12.785,25.652 -13.23,24.798C-13.65,23.996 -14.057,23.175 -14.346,22.321C-14.814,20.94 -15.434,19.635 -16.104,18.349C-16.665,17.272 -17.293,16.228 -17.812,15.132C-18.287,14.131 -18.606,13.055 -19.084,12.055C-19.907,10.334 -20.797,8.644 -21.664,6.944C-21.933,6.417 -22.236,5.908 -22.495,5.377C-22.92,4.507 -23.299,3.613 -23.738,2.75C-24.089,2.063 -24.531,1.422 -24.88,0.733C-25.305,-0.105 -25.667,-0.975 -26.07,-1.824C-26.634,-3.01 -27.205,-4.192 -27.791,-5.367C-27.852,-5.49 -28.021,-5.597 -28.162,-5.634C-28.645,-5.761 -29.47,-5.195 -29.732,-4.634C-29.876,-4.329 -30.073,-4.038 -30.293,-3.781C-30.558,-3.473 -30.882,-3.216 -31.162,-2.92C-31.815,-2.232 -32.47,-1.545 -33.097,-0.834C-33.298,-0.607 -33.429,-0.312 -33.565,-0.035C-33.686,0.21 -33.723,0.508 -33.88,0.721C-34.178,1.123 -34.109,1.458 -33.855,1.841C-33.63,2.18 -33.473,2.563 -33.262,2.913C-32.254,4.589 -31.235,6.258 -30.229,7.935C-30.103,8.146 -30.055,8.405 -29.921,8.609C-29.606,9.085 -29.235,9.524 -28.937,10.008C-28.368,10.93 -27.835,11.873 -27.287,12.807C-26.662,13.872 -26.106,14.986 -25.395,15.989C-24.57,17.15 -23.954,18.485 -22.769,19.372C-22.67,19.445 -22.611,19.582 -22.553,19.699C-22.261,20.289 -22,20.896 -21.682,21.471C-20.885,22.907 -19.799,24.168 -19.138,25.687C-19.115,25.739 -19.031,25.761 -18.983,25.806C-18.63,26.142 -18.229,26.443 -17.937,26.826C-17.359,27.585 -16.812,28.371 -16.312,29.183C-15.995,29.698 -15.764,30.27 -15.544,30.835C-15.43,31.129 -15.595,31.342 -15.896,31.132C-16.2,30.919 -16.47,30.631 -16.691,30.33C-17.117,29.752 -17.492,29.138 -17.899,28.546C-18.763,27.289 -19.655,26.051 -20.494,24.777C-21.198,23.708 -21.983,22.658 -22.474,21.49C-22.934,20.393 -23.76,19.59 -24.325,18.592C-25.009,17.384 -25.812,16.245 -26.56,15.074C-27.215,14.049 -27.867,13.022 -28.514,11.992C-28.933,11.324 -29.342,10.651 -29.752,9.978C-30.402,8.912 -31.045,7.84 -31.701,6.777C-32.142,6.065 -32.611,5.371 -33.046,4.655C-33.548,3.83 -34.026,2.991 -34.506,2.173C-36.874,2.672 -39.181,3.158 -41.56,3.659M-54.945,23.766C-54.78,23.867 -54.619,23.953 -54.472,24.06C-54.344,24.153 -54.237,24.277 -54.111,24.374C-53.371,24.941 -52.623,25.498 -51.889,26.072C-51.414,26.442 -50.988,26.882 -50.488,27.208C-49.635,27.764 -48.706,28.207 -47.869,28.784C-46.626,29.64 -45.431,30.566 -44.224,31.473C-43.458,32.049 -42.732,32.68 -41.947,33.226C-40.739,34.067 -39.503,34.868 -38.264,35.662C-37.699,36.024 -37.086,36.308 -36.517,36.663C-35.945,37.019 -35.417,37.444 -34.842,37.792C-34.04,38.276 -33.207,38.707 -32.399,39.181C-32.133,39.337 -31.883,39.537 -31.66,39.752C-31.111,40.282 -30.617,40.874 -30.037,41.365C-29.388,41.915 -28.637,42.345 -27.988,42.895C-27.508,43.304 -26.898,43.67 -26.905,44.553C-27.119,44.41 -27.286,44.31 -27.438,44.191C-27.954,43.79 -28.457,43.372 -28.979,42.978C-29.635,42.483 -30.314,42.019 -30.966,41.518C-31.411,41.176 -31.8,40.755 -32.263,40.442C-32.624,40.198 -33.087,40.11 -33.457,39.875C-34.548,39.184 -35.594,38.42 -36.696,37.749C-38.053,36.924 -39.444,36.166 -40.697,35.171C-41.837,34.266 -43.061,33.467 -44.24,32.612C-45.049,32.027 -45.845,31.422 -46.65,30.833C-47.607,30.134 -48.563,29.433 -49.53,28.752C-50.507,28.065 -51.507,27.412 -52.481,26.723C-53.318,26.13 -54.131,25.503 -54.965,24.906C-55.044,24.849 -55.225,24.85 -55.312,24.902C-55.782,25.185 -56.266,25.459 -56.694,25.799C-57.364,26.331 -57.98,26.93 -58.646,27.469C-59.063,27.808 -59.537,28.079 -59.974,28.398C-61.101,29.221 -62.242,30.027 -63.335,30.894C-63.809,31.269 -64.178,31.775 -64.634,32.264C-63.768,32.818 -62.98,33.382 -62.138,33.842C-61.44,34.221 -60.674,34.472 -59.943,34.792C-59.389,35.034 -58.842,35.292 -58.294,35.549C-57.589,35.879 -56.887,36.216 -56.184,36.549C-55.699,36.778 -55.208,36.992 -54.731,37.236C-54.195,37.512 -53.679,37.826 -53.142,38.1C-52.631,38.36 -52.082,38.553 -51.591,38.844C-51.112,39.128 -50.656,39.419 -50.099,39.538C-49.798,39.602 -49.512,39.761 -49.233,39.903C-48.409,40.325 -47.615,40.815 -46.767,41.178C-45.553,41.697 -44.398,42.307 -43.283,43.012C-42.348,43.603 -41.372,44.132 -40.392,44.646C-39.722,44.999 -39.07,45.434 -38.298,45.525C-37.82,45.581 -37.744,46.061 -37.405,46.237C-36.853,46.525 -36.286,46.785 -35.726,47.06C-34.82,47.505 -33.92,47.963 -33.007,48.393C-32.713,48.531 -32.346,48.735 -32.082,48.661C-31.694,48.552 -31.369,48.219 -31.017,47.983C-30.445,47.602 -29.875,47.218 -29.3,46.841C-28.773,46.496 -28.155,46.314 -27.77,45.728C-27.461,45.26 -27.05,44.785 -26.4,44.966C-26.104,44.241 -25.793,43.55 -25.535,42.838C-25.037,41.46 -24.58,40.066 -24.076,38.69C-24,38.482 -23.798,38.241 -23.599,38.17C-22.704,37.852 -21.786,37.599 -20.884,37.299C-20.55,37.188 -20.06,37.092 -19.951,36.85C-19.748,36.396 -20.31,36.306 -20.573,36.061C-21.445,35.253 -22.302,34.425 -23.12,33.564C-24.022,32.615 -24.852,31.596 -25.758,30.651C-26.732,29.636 -27.764,28.675 -28.763,27.684C-28.96,27.489 -29.126,27.263 -29.308,27.053C-29.695,26.606 -30.021,26.073 -30.486,25.731C-31.495,24.988 -32.32,24.094 -33.043,23.084C-33.413,22.568 -33.783,22.041 -34.227,21.59C-35.091,20.711 -36.008,19.882 -36.901,19.031C-37.645,18.324 -38.392,17.622 -39.125,16.904C-39.719,16.322 -40.273,15.697 -40.883,15.132C-41.872,14.215 -42.864,13.296 -43.912,12.447C-44.398,12.053 -44.916,11.516 -45.641,11.685C-46.538,11.894 -47.421,12.174 -48.297,12.462C-48.82,12.634 -49.313,12.895 -49.831,13.088C-50.179,13.218 -50.548,13.293 -50.903,13.406C-51.226,13.509 -51.552,13.609 -51.856,13.754C-51.931,13.789 -51.995,14.044 -51.946,14.108C-51.707,14.419 -51.449,14.725 -51.158,14.988C-50.629,15.465 -50.044,15.882 -49.533,16.377C-48.689,17.193 -47.934,18.104 -47.055,18.878C-45.795,19.986 -44.454,21.002 -43.156,22.068C-42.883,22.293 -42.653,22.573 -42.383,22.803C-41.96,23.16 -41.503,23.477 -41.09,23.844C-40.483,24.384 -39.908,24.958 -39.311,25.507C-38.803,25.973 -38.272,26.415 -37.771,26.889C-37.612,27.041 -37.557,27.312 -37.387,27.44C-36.276,28.279 -35.146,29.093 -34.025,29.917C-33.973,29.956 -33.935,30.014 -33.889,30.063C-33.501,30.481 -33.145,30.937 -32.716,31.31C-31.992,31.94 -31.214,32.506 -30.478,33.121C-30.104,33.432 -29.781,33.801 -29.419,34.125C-28.961,34.536 -28.479,34.919 -28.021,35.331C-27.525,35.778 -27.036,36.233 -26.563,36.705C-26.176,37.093 -25.771,37.486 -25.813,38.266C-26.13,37.989 -26.371,37.786 -26.602,37.574C-26.744,37.442 -26.867,37.29 -27.009,37.157C-27.486,36.71 -27.975,36.275 -28.445,35.822C-28.872,35.41 -29.255,34.95 -29.705,34.567C-30.239,34.113 -30.841,33.738 -31.383,33.294C-32.327,32.521 -33.249,31.721 -34.179,30.931C-34.753,30.443 -35.324,29.951 -35.897,29.461C-36.731,28.748 -37.591,28.063 -38.394,27.316C-39.486,26.301 -40.522,25.225 -41.609,24.204C-42.079,23.763 -42.629,23.409 -43.117,22.988C-43.999,22.227 -44.855,21.438 -45.734,20.674C-46.586,19.935 -47.459,19.219 -48.31,18.48C-49.316,17.605 -50.306,16.711 -51.31,15.833C-51.833,15.376 -52.37,14.935 -52.928,14.463C-53.688,15.091 -53.823,16.015 -53.951,16.948C-54.032,17.532 -54.114,18.117 -54.241,18.692C-54.376,19.302 -54.639,19.891 -54.713,20.506C-54.844,21.607 -54.876,22.721 -54.945,23.766M-18.035,-3.91C-16.763,-4.748 -15.579,-5.631 -14.651,-6.856C-14.216,-7.432 -13.543,-7.828 -12.975,-8.302C-12.221,-8.93 -11.461,-9.552 -10.708,-10.181C-9.88,-10.872 -8.926,-11.344 -7.924,-11.705C-7.706,-11.783 -7.387,-11.629 -7.131,-11.536C-6.782,-11.409 -6.442,-11.253 -6.112,-11.081C-5.744,-10.889 -5.397,-10.656 -5.031,-10.46C-4.581,-10.22 -4.123,-9.994 -3.663,-9.774C-2.578,-9.254 -1.494,-8.731 -0.401,-8.228C0.234,-7.935 0.915,-7.73 1.521,-7.39C2.174,-7.025 2.75,-6.528 3.384,-6.128C3.866,-5.825 4.381,-5.571 4.896,-5.323C5.006,-5.27 5.267,-5.293 5.305,-5.363C5.652,-6.006 6.368,-6.098 6.893,-6.47C7.871,-7.163 8.841,-7.87 9.841,-8.529C10.716,-9.105 11.632,-9.618 12.523,-10.169C13.013,-10.471 13.468,-10.838 13.979,-11.097C14.809,-11.518 15.483,-12.223 16.46,-12.39C16.859,-12.458 17.176,-12.521 17.474,-12.176C18.176,-11.36 18.904,-10.568 19.606,-9.753C19.909,-9.401 20.15,-8.994 20.462,-8.652C20.837,-8.241 21.282,-7.893 21.653,-7.478C22.065,-7.016 22.406,-6.489 22.818,-6.027C23.283,-5.508 23.809,-5.043 24.276,-4.527C24.568,-4.205 24.835,-3.85 25.055,-3.476C25.272,-3.106 25.525,-2.864 25.974,-2.835C27.087,-2.764 28.197,-2.663 29.303,-2.927C29.472,-2.967 29.683,-2.956 29.84,-2.889C30.828,-2.476 31.811,-2.71 32.812,-2.82C33.42,-2.887 34.053,-2.731 34.675,-2.677C35.097,-2.641 35.52,-2.605 35.941,-2.573C36.299,-2.545 36.659,-2.546 37.012,-2.493C37.765,-2.379 38.514,-2.239 39.364,-2.093C39.126,-1.593 38.952,-1.222 38.774,-0.854C38.542,-0.372 38.298,0.103 38.078,0.59C37.998,0.768 37.886,0.999 37.937,1.157C38.116,1.716 37.797,2.138 37.644,2.617C37.224,3.929 36.418,5.045 35.829,6.271C35.36,7.248 34.777,8.17 34.288,9.139C33.529,10.643 32.835,12.18 32.059,13.674C31.658,14.444 31.116,15.139 30.687,15.895C30.395,16.407 30.204,16.977 29.936,17.503C29.41,18.533 28.853,19.546 28.33,20.576C28.191,20.85 28.125,21.161 28.031,21.457C27.828,22.101 27.576,22.7 27.174,23.271C26.618,24.058 26.213,24.952 25.77,25.814C25.697,25.957 25.821,26.196 25.753,26.345C25.399,27.124 25.013,27.887 24.637,28.656C24.622,28.684 24.59,28.719 24.563,28.721C23.446,28.832 23.36,29.886 22.907,30.577C22.363,31.406 21.932,32.307 21.437,33.169C20.74,34.384 20.03,35.592 19.325,36.803C19.104,37.182 18.925,37.597 18.647,37.93C18.28,38.373 17.85,38.769 17.419,39.155C16.904,39.617 16.872,40.282 16.638,40.864C16.556,41.069 16.501,41.294 16.38,41.475C15.783,42.364 15.153,43.231 14.565,44.125C14.262,44.587 14.064,45.122 13.741,45.567C13.229,46.27 12.638,46.915 12.107,47.605C11.608,48.253 11.136,48.923 10.667,49.594C10.012,50.529 9.34,51.454 8.738,52.423C8.483,52.834 8.418,53.358 8.213,53.806C7.9,54.485 7.518,55.131 7.222,55.816C7.155,55.97 7.262,56.298 7.399,56.423C8.314,57.258 9.244,58.079 10.201,58.864C10.888,59.427 10.985,60.294 10.381,60.9C10.044,61.239 9.758,61.63 9.404,61.948C9.14,62.187 8.819,62.379 8.496,62.536C8.079,62.739 7.643,62.907 7.201,63.051C6.789,63.187 6.649,63.427 6.771,63.84C6.818,63.998 6.86,64.164 6.864,64.327C6.897,65.713 6.897,65.729 5.468,65.961C4.867,66.059 4.254,66.07 3.647,66.132C3.527,66.144 3.405,66.193 3.299,66.251C3.201,66.305 3.133,66.421 3.032,66.461C2.364,66.724 1.691,66.973 1.021,67.23C0.749,67.334 0.488,67.49 0.207,67.542C-0.021,67.584 -0.287,67.552 -0.506,67.471C-1.287,67.179 -2.042,66.639 -2.832,66.588C-4.004,66.514 -5.017,65.799 -6.362,65.968C-6.225,65.384 -6.165,64.865 -5.979,64.396C-5.665,63.599 -5.6,62.796 -5.758,61.973C-5.788,61.814 -5.964,61.636 -6.119,61.555C-7.196,60.992 -8.26,60.39 -9.377,59.92C-10.859,59.297 -12.393,58.796 -13.894,58.214C-14.362,58.033 -14.792,57.754 -15.247,57.535C-15.61,57.36 -15.984,57.208 -16.354,57.047C-17.029,56.755 -17.703,56.461 -18.381,56.173C-19.428,55.728 -20.477,55.287 -21.525,54.846C-21.903,54.688 -22.284,54.532 -22.664,54.377C-23.462,54.051 -24.27,53.75 -25.054,53.393C-25.607,53.141 -26.123,52.805 -26.665,52.524C-27.37,52.158 -28.085,51.809 -28.795,51.452C-29.399,51.148 -30.003,50.845 -30.605,50.539C-31.097,50.291 -31.584,50.033 -32.078,49.791C-32.823,49.425 -33.586,49.091 -34.319,48.702C-35.13,48.271 -35.905,47.774 -36.716,47.343C-38.025,46.646 -39.354,45.987 -40.667,45.298C-41.269,44.981 -41.842,44.609 -42.447,44.3C-43.544,43.739 -44.558,43.041 -45.767,42.664C-46.668,42.382 -47.478,41.801 -48.321,41.34C-48.833,41.061 -49.299,40.621 -49.842,40.494C-50.857,40.256 -51.688,39.677 -52.599,39.247C-54.059,38.557 -55.512,37.855 -56.957,37.134C-58.268,36.48 -59.517,35.669 -60.88,35.163C-62.063,34.724 -63.142,34.128 -64.25,33.564C-64.642,33.365 -65.092,33.287 -65.506,33.129C-66.181,32.873 -66.218,32.51 -65.702,31.998C-65.108,31.409 -64.575,30.759 -63.984,30.166C-63.696,29.877 -63.336,29.66 -63.012,29.406C-62.144,28.729 -61.285,28.039 -60.407,27.375C-59.909,26.999 -59.342,26.708 -58.875,26.299C-58.098,25.618 -57.389,24.861 -56.629,24.159C-56.123,23.694 -56.151,23.059 -56.026,22.473C-55.873,21.751 -55.753,21.021 -55.618,20.294C-55.322,18.707 -55.032,17.119 -54.726,15.534C-54.633,15.057 -54.545,14.567 -54.359,14.124C-54.042,13.367 -53.298,13.209 -52.598,12.989C-51.604,12.676 -50.623,12.32 -49.637,11.982C-49.159,11.818 -48.681,11.661 -48.207,11.487C-47.425,11.201 -46.594,10.992 -45.891,10.572C-45.548,10.367 -45.384,9.776 -45.251,9.327C-45.071,8.721 -44.999,8.083 -44.881,7.458C-44.829,7.186 -44.787,6.911 -44.728,6.64C-44.59,6.012 -44.428,5.389 -44.309,4.758C-44.262,4.506 -44.27,4.233 -44.311,3.978C-44.401,3.406 -43.936,2.922 -43.356,2.881C-42.648,2.832 -41.945,2.685 -41.244,2.56C-40.285,2.39 -39.326,2.216 -38.373,2.016C-37.568,1.847 -36.758,1.684 -35.979,1.428C-35.601,1.303 -35.153,1.05 -34.972,0.724C-33.974,-1.065 -32.44,-2.44 -31.309,-4.12C-30.956,-4.642 -30.604,-5.169 -30.196,-5.647C-29.841,-6.063 -29.413,-6.42 -29.004,-6.788C-28.935,-6.851 -28.793,-6.868 -28.691,-6.854C-27.612,-6.713 -26.521,-6.627 -25.461,-6.392C-24.592,-6.2 -23.768,-5.808 -22.912,-5.543C-22.086,-5.287 -21.254,-5.029 -20.406,-4.866C-19.582,-4.708 -18.73,-4.434 -18.035,-3.91" style="fill:rgb(37,37,37);fill-rule:nonzero;"/>
    </g>
    <g transform="matrix(8.33333,0,0,8.33333,489.023,291.633)">
        <path d="M0,-32.805C0.022,-32.291 0.033,-31.831 0.067,-31.373C0.092,-31.045 0.141,-30.717 0.192,-30.391C0.3,-29.707 0.4,-29.022 0.534,-28.343C0.704,-27.478 0.884,-26.614 1.098,-25.759C1.226,-25.246 1.459,-24.76 1.586,-24.247C1.795,-23.406 1.953,-22.553 2.14,-21.706C2.254,-21.187 2.39,-20.672 2.499,-20.152C2.625,-19.553 2.698,-18.94 2.856,-18.35C3.039,-17.668 3.295,-17.005 3.509,-16.331C3.603,-16.036 3.684,-15.736 3.75,-15.434C3.963,-14.467 4.305,-13.503 4.335,-12.529C4.365,-11.543 4.611,-10.619 4.764,-9.668C4.865,-9.035 5.109,-8.41 5.112,-7.781C5.117,-6.585 5.326,-5.431 5.557,-4.269C5.675,-3.677 5.66,-3.06 5.747,-2.461C5.845,-1.792 5.996,-1.13 6.111,-0.463C6.138,-0.313 6.115,-0.155 6.114,0C5.954,-0.129 5.712,-0.228 5.65,-0.394C5.476,-0.861 5.351,-1.35 5.252,-1.839C5.076,-2.721 4.911,-3.607 4.783,-4.496C4.625,-5.597 4.527,-6.707 4.371,-7.808C4.205,-8.984 4.007,-10.156 3.813,-11.327C3.624,-12.467 3.468,-13.615 3.211,-14.739C2.996,-15.678 2.637,-16.582 2.381,-17.512C2.25,-17.984 2.219,-18.482 2.118,-18.964C1.993,-19.566 1.838,-20.162 1.704,-20.762C1.409,-22.086 1.137,-23.415 0.822,-24.735C0.526,-25.977 0.158,-27.202 -0.119,-28.448C-0.348,-29.479 -0.489,-30.53 -0.672,-31.572C-0.688,-31.67 -0.717,-31.767 -0.745,-31.863C-0.927,-32.475 -0.837,-32.619 0,-32.805" style="fill:rgb(37,37,37);fill-rule:nonzero;"/>
    </g>
</svg>
