<?xml version="1.0" encoding="UTF-8" standalone="no"?>
<!DOCTYPE svg PUBLIC "-//W3C//DTD SVG 1.1//EN" "http://www.w3.org/Graphics/SVG/1.1/DTD/svg11.dtd">
<svg width="100%" height="100%" viewBox="0 0 909 795" version="1.1" xmlns="http://www.w3.org/2000/svg" xmlns:xlink="http://www.w3.org/1999/xlink" xml:space="preserve" xmlns:serif="http://www.serif.com/" style="fill-rule:evenodd;clip-rule:evenodd;stroke-linejoin:round;stroke-miterlimit:2;">
    <g transform="matrix(8.33333,0,0,8.33333,208.278,685.933)">
        <path d="M0,-77.043L0.27,-76.902C1.426,-76.294 2.646,-75.999 4.002,-75.999C5.216,-75.999 6.416,-76.231 7.576,-76.456C8.721,-76.677 9.903,-76.906 11.084,-76.906C11.273,-76.906 11.464,-76.9 11.655,-76.887L11.937,-76.869L11.74,-77.072C10.002,-78.875 7.933,-80.086 6.59,-80.086C6.197,-80.086 5.883,-79.976 5.673,-79.765L3.896,-81.284L1.305,-77.705L1.65,-77.387L0,-77.043ZM18.665,-75.377C18.211,-75.377 17.84,-75.157 17.696,-74.803C17.546,-74.436 17.667,-74.011 18.019,-73.668C19.688,-72.039 20.501,-69.937 21.287,-67.904L21.337,-67.775C22.26,-65.389 22.872,-63.077 23.158,-60.901C23.341,-59.51 23.309,-58.063 23.277,-56.664C23.255,-55.669 23.232,-54.64 23.286,-53.632C23.428,-50.981 25.441,-49.241 28.541,-49.09L28.692,-49.083C28.692,-49.083 28.5,-49.744 28.426,-49.987C28.269,-50.506 28.122,-50.987 28.021,-51.478C27.985,-51.646 27.937,-51.828 27.888,-52.014C27.741,-52.567 27.575,-53.194 27.778,-53.489C28.598,-54.673 28.16,-55.598 27.738,-56.492C27.614,-56.754 27.489,-57.019 27.392,-57.296L27.192,-57.845C26.746,-59.056 26.192,-60.562 26.635,-61.332C27.633,-63.068 27.175,-64.218 26.181,-65.41C25.31,-66.454 24.973,-67.221 25.09,-67.897C25.195,-68.509 25.681,-69.063 26.571,-69.59L26.691,-69.661L26.594,-69.761C26.161,-70.201 25.75,-70.643 25.347,-71.076C24.414,-72.078 23.533,-73.024 22.521,-73.82C21.408,-74.694 19.997,-75.129 19.009,-75.339C18.891,-75.364 18.775,-75.377 18.665,-75.377M27.864,-45.771C27.465,-42.245 28.081,-39.199 29.749,-36.459C30.947,-34.49 32.621,-33.405 34.461,-33.405L34.462,-33.405C34.722,-33.405 34.987,-33.427 35.259,-33.472C38.063,-33.937 40.775,-34.783 43.1,-35.919C45.689,-37.185 46.795,-39.885 47.469,-42.095L47.508,-42.223L47.375,-42.236C46.314,-42.338 45.271,-42.416 44.24,-42.494C41.909,-42.67 39.708,-42.837 37.525,-43.245C35.352,-43.651 33.247,-44.292 31.019,-44.97C30.031,-45.27 29.029,-45.574 28.003,-45.864L27.879,-45.899L27.864,-45.771ZM24.441,-47.877C23.636,-45.637 23.867,-39.073 24.821,-37.071C26.932,-32.644 31.879,-29.784 37.423,-29.784C41.48,-29.784 45.153,-31.375 47.499,-34.149C49.151,-36.104 49.87,-38.439 49.901,-41.958L49.904,-42.208L49.719,-42.04C49.552,-41.888 49.431,-41.786 49.342,-41.711C49.2,-41.591 49.129,-41.531 49.084,-41.446C48.92,-41.131 48.77,-40.809 48.618,-40.488L48.464,-40.159C46.578,-36.185 43.726,-33.636 39.984,-32.585C38.383,-32.134 36.895,-31.906 35.561,-31.906C31.264,-31.906 28.421,-34.233 27.111,-38.824C26.492,-40.991 26.46,-43.372 26.511,-45.415C26.549,-47.016 26.04,-47.678 24.564,-47.948L24.474,-47.964L24.441,-47.877ZM8.234,-12.355L12.269,-9.597L11.431,-12.204L8.309,-12.554L8.234,-12.355ZM20.147,-23.974C20.475,-23.974 20.816,-23.965 21.174,-23.948C29.429,-23.552 37.94,-21.693 46.475,-18.421C48.488,-17.649 49.947,-16.339 50.694,-14.635C51.522,-12.745 51.46,-10.489 50.513,-8.11C50.399,-7.825 49.974,-6.705 49.974,-6.705L49.943,-6.627L53.715,-3.864L53.774,-3.975C54.205,-4.785 54.63,-5.568 55.045,-6.334C55.928,-7.963 56.762,-9.502 57.542,-11.079C61.996,-20.07 65.191,-29.788 58.473,-39.92C58.303,-40.177 58.365,-40.625 58.426,-41.059C58.45,-41.234 58.475,-41.408 58.485,-41.574C58.628,-41.554 58.774,-41.542 58.923,-41.53C59.321,-41.497 59.698,-41.466 59.971,-41.287C64.46,-38.345 67.484,-34.114 68.96,-28.714C69.519,-26.674 70.729,-25.56 71.9,-24.483L72.23,-24.179L74.983,-27.461C74.718,-33.962 69.194,-41.296 63.188,-43.23C61.958,-43.626 60.538,-43.819 58.845,-43.819C58.043,-43.819 57.178,-43.775 56.201,-43.686C55.26,-43.601 54.377,-43.067 53.355,-42.449C52.864,-42.152 52.341,-41.836 51.766,-41.543C51.662,-41.175 51.626,-40.843 51.587,-40.482C51.492,-39.622 51.376,-38.551 51.064,-37.567C49.198,-31.678 43.955,-28.162 37.041,-28.162L36.615,-28.167C30.047,-28.303 24.701,-32.261 22.995,-38.25C22.171,-41.147 22.129,-44.24 22.858,-48.28C22.936,-48.714 22.852,-49.253 22.601,-49.929C22.478,-50.258 22.298,-50.578 22.123,-50.887C21.847,-51.377 21.587,-51.839 21.543,-52.325C21.414,-53.786 21.349,-55.279 21.284,-56.723C21.201,-58.613 21.114,-60.568 20.886,-62.475C20.411,-66.423 18.644,-70.127 15.325,-74.13C15.391,-74.224 15.481,-74.439 15.58,-74.674C15.983,-75.634 16.593,-77.085 14.4,-78.188L14.292,-78.242L14.249,-78.128C13.508,-76.133 12.648,-74.805 10.857,-74.805C10.589,-74.805 10.298,-74.836 9.993,-74.897C9.762,-74.944 9.516,-74.967 9.266,-74.967C8.865,-74.967 8.469,-74.908 8.12,-74.795C7.458,-74.581 6.779,-74.391 6.099,-74.2C4.263,-73.686 2.363,-73.153 0.804,-72.14C-0.855,-71.062 -2.1,-69.301 -3.304,-67.598L-3.884,-66.783C-5.276,-64.852 -6.185,-63.217 -6.742,-61.638C-7.133,-60.533 -7.052,-59.426 -6.508,-58.439C-5.828,-57.208 -4.474,-56.282 -2.791,-55.899C-2.274,-55.782 -1.794,-55.722 -1.362,-55.722C0.589,-55.722 1.743,-56.874 2.272,-59.345C2.348,-59.692 2.494,-60.036 2.697,-60.511C2.789,-60.725 2.892,-60.966 3.007,-61.248L3.911,-58.924L5.599,-60.099C7.136,-61.174 8.588,-62.189 10.108,-63.161C10.2,-63.22 10.327,-63.248 10.495,-63.248C10.676,-63.248 10.875,-63.217 11.074,-63.187C11.206,-63.167 11.338,-63.147 11.465,-63.135C11.419,-63.015 11.378,-62.89 11.337,-62.765C11.213,-62.387 11.095,-62.031 10.857,-61.827C10.374,-61.414 9.799,-61.093 9.243,-60.783C9.01,-60.653 8.779,-60.524 8.557,-60.39L8.483,-60.346L8.509,-60.264C9.899,-55.841 8.842,-51.694 7.818,-47.684C7.672,-47.109 7.525,-46.533 7.385,-45.956L7.093,-44.762C6.393,-41.906 5.669,-38.952 5.269,-36.001C4.429,-29.82 5.28,-23.583 6.103,-17.551C6.416,-15.256 7.704,-14.108 10.041,-14.035L10.161,-14.034C11.968,-14.034 12.24,-15.333 12.503,-16.59L12.593,-17.009C13.805,-22.346 15.57,-23.974 20.147,-23.974M49.925,-4.571C48.805,-4.382 47.41,-4.146 47.48,-2.07L47.485,-1.936L51.783,-3.001L51.666,-3.135C51.465,-3.367 51.28,-3.617 51.113,-3.843C50.775,-4.301 50.53,-4.632 50.294,-4.632L50.284,-4.632L49.925,-4.571ZM19.253,-22.531C16.371,-22.531 14.8,-21.175 13.828,-17.85C13.212,-15.74 13.442,-13.784 13.685,-11.713C13.732,-11.313 13.78,-10.909 13.821,-10.502C14.007,-8.665 14.547,-7.83 16.043,-7.066C23.201,-3.409 30.962,-1.631 39.77,-1.631L39.771,-1.631C41.312,-1.631 42.906,-1.687 44.514,-1.799C44.993,-1.832 45.89,-2.312 45.926,-2.726C46.099,-4.741 47.211,-6.168 48.389,-7.679C48.598,-7.948 48.808,-8.218 49.012,-8.491C50.71,-10.759 50.517,-12.874 48.436,-14.776C47.634,-15.51 46.563,-16.405 45.391,-16.825C42.233,-17.955 38.992,-19.014 35.857,-20.038C34.676,-20.424 32.21,-21.234 32.21,-21.234L32.072,-20.807C31.896,-20.846 31.721,-20.888 31.545,-20.93C31.089,-21.04 30.633,-21.149 30.17,-21.212C29.152,-21.349 28.135,-21.508 27.117,-21.667C24.626,-22.056 22.05,-22.459 19.504,-22.528L19.253,-22.531ZM-6.137,-27.181C-8.463,-25.256 -8.976,-22.831 -7.657,-19.975L-7.446,-19.514C-6.812,-18.129 -6.156,-16.698 -5.237,-15.492C0.167,-8.4 6.365,-3.487 13.71,-0.472C22.26,3.038 31.387,3.642 39.271,3.934C39.878,3.956 40.483,3.967 41.087,3.967C46.602,3.967 51.9,3.006 56.836,1.111C62.299,-0.986 66.328,-4.41 68.813,-9.064L68.643,-9.545L68.424,-10.026L68.327,-9.986C68.139,-9.908 67.942,-9.842 67.746,-9.775C67.312,-9.627 66.862,-9.474 66.497,-9.204C65.861,-8.734 65.252,-8.224 64.643,-7.715C63.759,-6.975 62.845,-6.211 61.865,-5.592C56.588,-2.258 50.407,-0.588 41.826,-0.178C40.967,-0.137 40.11,-0.116 39.259,-0.116C30.03,-0.116 21.14,-2.531 12.833,-7.294C2.932,-12.971 -2.752,-19.048 -5.596,-26.999C-5.633,-27.105 -5.759,-27.134 -5.892,-27.164C-5.938,-27.175 -5.988,-27.186 -6.031,-27.2L-6.089,-27.22L-6.137,-27.181ZM38.823,5.269C37.248,5.269 35.586,5.218 33.883,5.118C27.238,4.728 18.595,3.766 10.677,-0.241C1.763,-4.755 -4.287,-10.497 -7.818,-17.795C-8.758,-19.74 -9.368,-22.01 -9.583,-24.361C-9.689,-25.53 -8.832,-27.117 -7.965,-27.867C-7.382,-28.371 -6.829,-28.627 -6.322,-28.627C-5.498,-28.627 -4.811,-27.943 -4.335,-26.65C-2.703,-22.206 1.415,-16.886 4.658,-15.031L4.846,-14.924L4.692,-16.273C4.609,-17.027 4.531,-17.732 4.435,-18.434C3.124,-27.99 2.761,-35.99 5.247,-43.972C6.419,-47.735 7.178,-50.651 7.707,-53.428C7.942,-54.665 7.868,-55.975 7.796,-57.242C7.763,-57.819 7.73,-58.395 7.726,-58.966L7.725,-59.073L6.947,-59.078C6.499,-58.704 6.133,-58.346 5.767,-57.989C4.985,-57.225 4.178,-56.435 3.294,-55.784C1.937,-54.783 0.339,-54.254 -1.327,-54.254C-4.194,-54.254 -6.708,-55.846 -7.731,-58.31C-8.643,-60.504 -8.369,-62.816 -6.962,-64.818C-5.493,-66.908 -3.794,-68.892 -2.151,-70.81C-1.492,-71.581 -0.832,-72.351 -0.185,-73.13C0.125,-73.503 0.458,-73.855 0.802,-74.22L1.381,-74.841L1.265,-74.91C-0.102,-75.711 -0.787,-76.113 -0.895,-76.597C-1,-77.074 -0.565,-77.703 0.299,-78.956L0.381,-79.075L-1.86,-79.835C-1.114,-81.3 0.893,-82.312 3.078,-82.312C3.417,-82.312 3.758,-82.288 4.091,-82.239C6.713,-81.855 9.709,-81.275 12.081,-79.237C12.341,-79.013 12.832,-78.772 13.171,-78.772C13.262,-78.772 13.339,-78.789 13.401,-78.822C13.873,-79.072 14.298,-79.193 14.698,-79.193C15.693,-79.193 16.396,-78.409 17.007,-77.562C17.21,-77.28 17.648,-76.976 18.002,-76.976C18.232,-76.991 18.417,-76.998 18.599,-76.998C21.523,-76.998 23.595,-75.256 25.235,-73.553C26.563,-72.173 27.863,-70.584 29.207,-68.694C29.714,-67.981 29.888,-67.55 29.77,-67.295C29.637,-67.007 29.092,-66.842 27.949,-66.743L27.78,-66.728L27.864,-66.58C28.047,-66.256 28.234,-65.94 28.42,-65.627C28.826,-64.941 29.21,-64.293 29.529,-63.605C29.99,-62.614 30.234,-61.901 30.028,-61.406C29.813,-60.891 29.107,-60.551 27.96,-60.137L27.842,-60.095L28.336,-59.157C28.657,-58.542 28.973,-57.938 29.314,-57.349C29.523,-56.989 29.754,-56.64 29.983,-56.291C30.272,-55.853 30.571,-55.401 30.818,-54.934C31.25,-54.119 31.615,-53.351 31.35,-52.903C31.178,-52.61 30.725,-52.457 30.005,-52.445L29.882,-52.443L30.687,-46.718C32.7,-45.373 35.614,-44.579 39.397,-44.282C42.748,-44.019 46.17,-43.964 49.479,-43.911C50.792,-43.89 52.104,-43.869 53.417,-43.836L53.833,-43.826C54.104,-43.826 54.443,-43.848 54.668,-44.017C56.173,-45.15 57.818,-45.725 59.559,-45.725C61.563,-45.725 63.715,-44.988 66.135,-43.471C73.054,-39.134 76.612,-33.061 76.712,-25.422C76.716,-25.072 76.676,-24.721 76.637,-24.423C76.482,-23.275 76.314,-22.887 75.97,-22.887C75.638,-22.887 75.078,-23.231 74.523,-23.603L74.421,-23.67L74.365,-23.562C74.235,-23.312 74.118,-23.049 74.001,-22.786C73.702,-22.115 73.419,-21.481 72.945,-21.054L72.942,-21.054C72.705,-21.054 72.18,-21.364 71.671,-21.664C71.353,-21.852 71.021,-22.047 70.721,-22.198L70.618,-22.249L69.914,-20.694L69.697,-20.656L69.505,-20.59C69.421,-20.785 69.324,-20.979 69.229,-21.173C68.998,-21.638 68.76,-22.118 68.703,-22.602C68.071,-27.982 66.435,-32.3 63.7,-35.803C63.264,-36.362 62.811,-36.803 62.274,-37.191L61.994,-37.393L62.106,-37.067C66.183,-25.272 62.133,-15.284 54.799,-3.915L54.629,-3.653L54.925,-3.753C58.576,-4.986 61.146,-6.362 63.261,-8.214C64.003,-8.864 64.648,-9.642 65.272,-10.395C65.583,-10.769 65.893,-11.143 66.216,-11.503L66.294,-11.591C66.422,-11.736 66.721,-12.074 66.812,-12.096L67.321,-11.85C68.373,-11.366 69.46,-10.865 70.354,-10.157C70.547,-10.003 70.363,-8.817 69.979,-8.149C67.043,-3.045 62.511,0.572 56.508,2.603C51.206,4.396 45.421,5.269 38.823,5.269" style="fill:rgb(37,37,37);fill-rule:nonzero;"/>
    </g>
    <g transform="matrix(8.33333,0,0,8.33333,265.585,100.686)">
        <path d="M0,2.476C-1.369,2.476 -2.181,1.643 -2.412,0C-2.15,0.138 -1.92,0.271 -1.712,0.392C-1.218,0.679 -0.827,0.905 -0.415,0.943C-0.316,0.952 -0.217,0.956 -0.117,0.956C0.414,0.956 0.958,0.838 1.483,0.723L1.961,0.622C2.275,0.56 2.581,0.451 2.887,0.341C2.972,0.311 3.057,0.281 3.143,0.251C3.141,0.377 3.146,0.514 3.149,0.651C3.158,0.922 3.174,1.425 3.077,1.474C2.059,1.987 1.064,2.45 0.088,2.475L0,2.476Z" style="fill:rgb(37,37,37);fill-rule:nonzero;"/>
    </g>
    <g transform="matrix(-1.90765,-8.11205,-8.11205,1.90765,30.4933,520.1)">
        <path d="M-5.568,-7.029C-5.261,-3.353 -4.954,0.324 -4.647,4.001C-4.58,4.813 -5.476,5.515 -5.568,4.411C-5.874,0.734 -6.181,-2.943 -6.488,-6.62C-6.555,-7.431 -5.66,-8.134 -5.568,-7.029" style="fill:rgb(37,37,37);fill-rule:nonzero;"/>
    </g>
    <g transform="matrix(-4.67224,-6.90033,-6.90033,4.67224,25.7595,601.229)">
        <path d="M-5.367,-10.114C-4.982,-5.772 -4.598,-1.43 -4.214,2.912C-4.118,3.991 -5.287,3.746 -5.367,2.846C-5.751,-1.495 -6.136,-5.837 -6.52,-10.179C-6.615,-11.257 -5.447,-11.012 -5.367,-10.114" style="fill:rgb(37,37,37);fill-rule:nonzero;"/>
    </g>
    <g transform="matrix(8.33333,0,0,8.33333,140.22,677.635)">
        <path d="M0,-4.232C-1.69,-3.091 -3.161,-1.698 -4.374,-0.057C-4.697,0.382 -3.164,0.173 -2.924,-0.152C-1.768,-1.718 -0.385,-3.061 1.229,-4.151C1.516,-4.344 1.392,-4.469 1.127,-4.534C0.8,-4.614 0.269,-4.413 0,-4.232" style="fill:rgb(37,37,37);fill-rule:nonzero;"/>
    </g>
    <g transform="matrix(-7.7637,-3.02809,-3.02809,7.7637,134.148,760.455)">
        <path d="M-1.838,-9.776C-1.38,-6.223 -0.921,-2.672 -0.463,0.879C-0.372,1.587 -1.776,0.833 -1.838,0.346C-2.297,-3.205 -2.755,-6.758 -3.215,-10.311C-3.305,-11.017 -1.901,-10.263 -1.838,-9.776" style="fill:rgb(37,37,37);fill-rule:nonzero;"/>
    </g>
    <g transform="matrix(-1.48819,8.19937,8.19937,1.48819,885.171,608.895)">
        <path d="M3.86,-4.623C4.283,-2.238 4.708,0.147 5.132,2.532C5.268,3.295 4.039,4.227 3.86,3.222C3.436,0.836 3.011,-1.548 2.587,-3.933C2.451,-4.696 3.681,-5.628 3.86,-4.623" style="fill:rgb(37,37,37);fill-rule:nonzero;"/>
    </g>
    <g transform="matrix(-2.78797,7.85313,7.85313,2.78797,869.067,652.942)">
        <path d="M3.504,-4.826C4.347,-2.823 4.735,-0.731 4.689,1.441C4.677,2.017 3.485,2.997 3.504,2.043C3.546,0.075 3.167,-1.839 2.405,-3.65C2.175,-4.2 3.259,-5.409 3.504,-4.826" style="fill:rgb(37,37,37);fill-rule:nonzero;"/>
    </g>
    <g transform="matrix(-5.38058,6.36348,6.36348,5.38058,881.883,738.168)">
        <path d="M5.578,-12.02C6.069,-7.374 6.56,-2.727 7.051,1.919C7.123,2.616 5.659,3.358 5.578,2.588C5.086,-2.058 4.597,-6.705 4.106,-11.351C4.031,-12.047 5.497,-12.789 5.578,-12.02" style="fill:rgb(37,37,37);fill-rule:nonzero;"/>
    </g>
    <g transform="matrix(-6.64854,5.02408,5.02408,6.64854,765.777,761.489)">
        <path d="M1.817,-5.418C2.327,-3.616 2.837,-1.813 3.346,-0.011C3.531,0.642 1.992,1.227 1.817,0.609C1.307,-1.193 0.798,-2.996 0.288,-4.798C0.103,-5.451 1.642,-6.036 1.817,-5.418" style="fill:rgb(37,37,37);fill-rule:nonzero;"/>
    </g>
</svg>
