<?xml version="1.0" encoding="UTF-8" standalone="no"?>
<!DOCTYPE svg PUBLIC "-//W3C//DTD SVG 1.1//EN" "http://www.w3.org/Graphics/SVG/1.1/DTD/svg11.dtd">
<svg width="100%" height="100%" viewBox="0 0 1216 601" version="1.1" xmlns="http://www.w3.org/2000/svg" xmlns:xlink="http://www.w3.org/1999/xlink" xml:space="preserve" xmlns:serif="http://www.serif.com/" style="fill-rule:evenodd;clip-rule:evenodd;stroke-linejoin:round;stroke-miterlimit:2;">
    <g transform="matrix(8.33333,0,0,8.33333,1172.76,455.004)">
        <path d="M0,-44.384C-3.022,-41.155 -5.876,-38.105 -8.835,-35.046C-19.738,-23.772 -30.469,-12.778 -38.6,-4.46C-39.718,-3.316 -40.915,-2.234 -42.073,-1.187C-42.622,-0.691 -43.171,-0.196 -43.714,0.308C-43.739,0.332 -43.764,0.359 -43.815,0.42C-45.503,0.617 -47.191,0.808 -48.88,0.984C-48.896,0.968 -48.914,0.949 -48.934,0.928C-48.952,0.908 -48.972,0.888 -48.992,0.868L-48.898,0.621C-48.784,0.314 -48.669,0.005 -48.532,-0.291C-48.452,-0.465 -48.343,-0.637 -48.228,-0.82C-48.005,-1.172 -47.773,-1.536 -47.748,-1.941C-47.636,-3.71 -46.636,-4.521 -45.577,-5.378C-45.309,-5.596 -45.039,-5.815 -44.785,-6.049C-34.934,-15.097 -26.201,-24.09 -18.093,-33.541C-15.516,-36.545 -12.7,-39.367 -9.978,-42.097C-8.603,-43.475 -7.181,-44.901 -5.806,-46.333C-4.384,-47.814 -3,-49.307 -1.534,-50.888C-0.927,-51.543 -0.311,-52.208 0.32,-52.884L3.94,-48.587C2.615,-47.179 1.303,-45.778 0,-44.384M-2.201,-51.932C-3.26,-50.712 -4.259,-49.56 -5.357,-48.53C-10.521,-43.688 -15.381,-38.256 -20.081,-33.004C-22.43,-30.38 -24.858,-27.667 -27.293,-25.063C-31.421,-20.646 -35.815,-16.418 -40.067,-12.328C-41.975,-10.493 -43.882,-8.658 -45.772,-6.801C-47.211,-5.389 -48.369,-4.431 -49.914,-5.132C-49.913,-5.133 -49.911,-5.135 -49.91,-5.137C-49.74,-5.324 -49.557,-5.528 -49.359,-5.707C-38.062,-15.99 -26.526,-27.895 -11.957,-44.308C-10.484,-45.967 -8.865,-47.506 -7.3,-48.994C-6.409,-49.84 -5.488,-50.715 -4.603,-51.604C-3.01,-53.202 -2.621,-53.441 -1.023,-53.278C-1.424,-52.828 -1.814,-52.378 -2.201,-51.932M-55.009,3.64L-54.56,2.672C-54.069,1.615 -53.596,0.594 -53.124,-0.429L-53.052,-0.586C-52.884,-0.948 -52.716,-1.313 -52.571,-1.688C-52.188,-2.687 -51.543,-3.421 -50.759,-3.755C-50.152,-4.013 -49.502,-4.009 -48.878,-3.746C-48.727,-3.669 -48.487,-3.071 -48.541,-2.904C-48.684,-2.464 -48.894,-2.056 -49.115,-1.624C-49.309,-1.252 -49.506,-0.866 -49.657,-0.458C-49.901,0.202 -50.139,1.08 -49.877,1.518C-49.54,2.083 -48.735,2.391 -48.168,2.351C-47.543,2.307 -46.924,2.124 -46.326,1.946C-46.016,1.854 -45.705,1.762 -45.395,1.689C-44.918,1.578 -44.734,1.633 -44.667,1.7C-44.582,1.783 -44.513,2.026 -44.66,2.713C-44.803,3.38 -44.984,4.04 -45.177,4.739C-45.254,5.021 -45.333,5.309 -45.412,5.606L-52.376,7.698C-52.52,5.925 -52.999,4.146 -55.009,3.64M-34.947,-4.602C-36.956,-2.631 -38.965,-0.66 -40.963,1.327C-41.804,2.165 -42.6,3.048 -43.442,3.982C-43.646,4.208 -43.852,4.435 -44.06,4.666C-44.046,4.592 -44.032,4.518 -44.019,4.445C-43.868,3.637 -43.739,2.939 -43.53,2.26C-43.414,1.876 -43.134,1.466 -42.676,1.006C-40.271,-1.405 -37.858,-3.805 -35.444,-6.204C-30.97,-10.653 -26.343,-15.254 -21.848,-19.86C-16.354,-25.488 -10.826,-31.289 -5.479,-36.899C-3.012,-39.488 -0.544,-42.077 1.929,-44.659C2.452,-45.205 2.981,-45.741 3.511,-46.277L4.112,-46.887L4.12,-46.882C4.036,-46.658 3.957,-46.426 3.879,-46.195C3.674,-45.583 3.462,-44.95 3.114,-44.534C1.175,-42.214 -1.401,-39.18 -4.14,-36.28C-10.973,-29.051 -17.677,-21.975 -24.594,-14.901C-28.005,-11.412 -31.534,-7.95 -34.947,-4.602M4.353,-49.877C3.131,-51.414 1.837,-52.863 0.847,-53.954C0.557,-54.274 0.032,-54.634 -0.449,-54.598C-2.099,-54.475 -3.805,-54.348 -5.363,-52.536C-6.638,-51.055 -8.06,-49.696 -9.436,-48.382C-10.726,-47.149 -12.06,-45.874 -13.278,-44.494C-26.622,-29.374 -39.277,-16.37 -51.968,-4.738C-52.017,-4.694 -52.068,-4.65 -52.121,-4.606C-52.309,-4.447 -52.521,-4.268 -52.635,-4.014C-54.464,0.08 -56.348,4.341 -58.233,8.65C-58.344,8.903 -58.386,9.187 -58.431,9.489C-58.452,9.634 -58.475,9.788 -58.507,9.952C-58.522,10.03 -58.5,10.11 -58.446,10.169C-58.398,10.22 -58.331,10.25 -58.262,10.25C-58.253,10.25 -58.244,10.25 -58.235,10.249C-58.099,10.234 -57.983,10.226 -57.881,10.22C-57.681,10.206 -57.522,10.195 -57.359,10.149C-56.493,9.903 -55.63,9.637 -54.765,9.37C-52.944,8.809 -51.063,8.229 -49.197,7.867C-46.047,7.255 -43.285,5.534 -40.24,2.288C-37.089,-1.073 -33.759,-4.323 -30.537,-7.466C-28.177,-9.77 -25.734,-12.152 -23.38,-14.562C-20.401,-17.61 -17.426,-20.779 -14.547,-23.844C-11.929,-26.633 -9.221,-29.517 -6.521,-32.299C-5.71,-33.133 -4.891,-33.954 -4.071,-34.776C-1.191,-37.661 1.786,-40.645 4.273,-44.178C5.447,-45.846 5.483,-48.456 4.353,-49.877" style="fill:rgb(37,37,37);fill-rule:nonzero;"/>
    </g>
    <g transform="matrix(8.33333,0,0,8.33333,1.88333,551.869)">
        <path d="M0,-0.066C-0.128,-0.205 -0.186,-0.058 -0.226,-0.06C0.029,0.139 0.021,-0.098 0,-0.066" style="fill:rgb(60,60,60);fill-rule:nonzero;"/>
    </g>
    <g transform="matrix(8.33333,0,0,8.33333,23.2625,567.318)">
        <path d="M0,-0.163L-0.078,-0.147L0.368,0L0,-0.163Z" style="fill:rgb(60,60,60);fill-rule:nonzero;"/>
    </g>
    <g transform="matrix(4.46633,-7.03536,-7.03536,-4.46633,43.5098,570.527)">
        <path d="M-0.757,-0.506C-0.579,-0.219 -0.862,0.521 -0.81,1.035L-0.757,1.119L-0.968,1.346C-0.895,0.723 -0.766,-0.073 -0.757,-0.506" style="fill:rgb(60,60,60);fill-rule:nonzero;"/>
    </g>
    <g transform="matrix(8.33333,0,0,8.33333,53.7308,586.387)">
        <path d="M0,0.117C-0.055,-0.012 0.34,0.173 -0.325,-0.056C-0.3,-0.032 -0.289,-0.022 -0.272,-0.007C-0.215,0.019 -0.137,0.055 0,0.117" style="fill:rgb(60,60,60);fill-rule:nonzero;"/>
    </g>
    <g transform="matrix(8.33333,0,0,8.33333,51.4608,586.658)">
        <path d="M0,-0.039C-0.287,-0.156 0.155,0.117 0,-0.039" style="fill:rgb(60,60,60);fill-rule:nonzero;"/>
    </g>
    <g transform="matrix(8.33333,0,0,8.33333,62.8133,591.492)">
        <path d="M0,-0.203L-0.415,-0.242C-0.353,-0.162 -0.009,-0.041 -0.15,-0.041C0.265,0.039 0.196,-0.042 0,-0.203" style="fill:rgb(60,60,60);fill-rule:nonzero;"/>
    </g>
    <g transform="matrix(8.33333,0,0,8.33333,66.2875,589.333)">
        <path d="M0,-0.004L-0.209,-0.031C-0.181,0.003 -0.13,0.027 0,-0.004" style="fill:rgb(60,60,60);fill-rule:nonzero;"/>
    </g>
    <g transform="matrix(8.33333,0,0,8.33333,60.8275,588.442)">
        <path d="M0,0.017L0.446,0.076C0.402,0.019 0.421,-0.059 0.244,0.042C0.301,-0.018 0.197,0.024 0,0.017" style="fill:rgb(60,60,60);fill-rule:nonzero;"/>
    </g>
    <g transform="matrix(8.33333,0,0,8.33333,58.9308,585.006)">
        <path d="M0,0.318C-0.198,0.198 -0.462,0.079 -0.051,0.119C-0.423,0.028 -0.588,0 -0.578,0.053C-0.57,0.111 -0.376,0.225 0,0.318" style="fill:rgb(60,60,60);fill-rule:nonzero;"/>
    </g>
    <g transform="matrix(8.33333,0,0,8.33333,45.7233,575.407)">
        <path d="M0,0.149L-0.236,-0.034C-0.327,-0.039 -0.414,-0.053 -0.499,-0.072C-0.378,-0.033 -0.015,0.221 0,0.149" style="fill:rgb(60,60,60);fill-rule:nonzero;"/>
    </g>
    <g transform="matrix(8.33333,0,0,8.33333,83.0117,593.887)">
        <path d="M0,0.24C0.033,0.193 -0.109,0.073 -0.127,0L-0.431,0C-0.287,0.067 -0.007,0.158 0,0.24" style="fill:rgb(60,60,60);fill-rule:nonzero;"/>
    </g>
    <g transform="matrix(8.33333,0,0,8.33333,81.9533,593.139)">
        <path d="M0,0.09L0.452,0.089C0.065,0 -0.014,0.028 0,0.09" style="fill:rgb(60,60,60);fill-rule:nonzero;"/>
    </g>
    <g transform="matrix(8.33333,0,0,8.33333,67.5008,587.303)">
        <path d="M0,-0.006L-0.745,-0.039L0.133,0.033L0,-0.006Z" style="fill:rgb(60,60,60);fill-rule:nonzero;"/>
    </g>
    <g transform="matrix(8.33333,0,0,8.33333,97.1717,598.246)">
        <path d="M0,-0.054L-0.266,0.042L0.203,-0.096L0,-0.054Z" style="fill:rgb(60,60,60);fill-rule:nonzero;"/>
    </g>
    <g transform="matrix(8.33333,0,0,8.33333,106.636,600.226)">
        <path d="M0,-0.235C-0.193,-0.135 0.253,-0.06 0.051,0C0.363,-0.014 0.632,-0.099 0.869,-0.176C0.616,-0.134 0.345,-0.148 0,-0.235" style="fill:rgb(60,60,60);fill-rule:nonzero;"/>
    </g>
    <g transform="matrix(8.33333,0,0,8.33333,117.183,598.757)">
        <path d="M0,-0.111C-0.125,-0.088 -0.255,-0.045 -0.396,0C-0.263,-0.022 -0.132,-0.055 0,-0.111" style="fill:rgb(60,60,60);fill-rule:nonzero;"/>
    </g>
    <g transform="matrix(8.33333,0,0,8.33333,91.9225,596.449)">
        <path d="M0,-0.188C0.03,-0.152 0.086,-0.062 0.331,0L0.174,-0.167C0.12,-0.173 0.061,-0.181 0,-0.188" style="fill:rgb(60,60,60);fill-rule:nonzero;"/>
    </g>
    <g transform="matrix(8.33333,0,0,8.33333,93.3142,595.454)">
        <path d="M0,-0.053L0.007,-0.048C0.194,-0.024 0.324,-0.007 0.38,0C0.332,-0.007 0.219,-0.023 0,-0.053" style="fill:rgb(60,60,60);fill-rule:nonzero;"/>
    </g>
    <g transform="matrix(8.33333,0,0,8.33333,91.5567,594.742)">
        <path d="M0,0.012L0.044,0.017C0.029,0.001 0.02,-0.005 0,0.012" style="fill:rgb(60,60,60);fill-rule:nonzero;"/>
    </g>
    <g transform="matrix(8.33333,0,0,8.33333,76.4933,588.7)">
        <path d="M0,0.239C0.273,0.21 0.812,0.229 0.332,0C0.131,0.063 0.407,0.195 0,0.239" style="fill:rgb(60,60,60);fill-rule:nonzero;"/>
    </g>
    <g transform="matrix(8.33333,0,0,8.33333,89.9775,592.662)">
        <path d="M0,0.053C-0.152,0.021 -0.308,0.008 -0.457,-0.042C-0.454,-0.001 -0.38,0.073 -0.514,0.088C-0.344,0.095 -0.171,0.067 0,0.053" style="fill:rgb(60,60,60);fill-rule:nonzero;"/>
    </g>
    <g transform="matrix(8.33333,0,0,8.33333,91.9142,593.363)">
        <path d="M0,-0.054L-0.232,-0.031L-0.062,0L0,-0.054Z" style="fill:rgb(60,60,60);fill-rule:nonzero;"/>
    </g>
    <g transform="matrix(8.33333,0,0,8.33333,110.42,595.566)">
        <path d="M0,0.125C0.204,0.062 0.426,0.058 0.677,0.05C0.407,0.019 0.13,0 -0.134,-0.002C-0.171,0.044 -0.29,0.127 0,0.125" style="fill:rgb(60,60,60);fill-rule:nonzero;"/>
    </g>
    <g transform="matrix(8.33333,0,0,8.33333,102.087,595.862)">
        <path d="M0,0.025L0.046,0.021C0.019,0.006 -0.004,0 0,0.025" style="fill:rgb(60,60,60);fill-rule:nonzero;"/>
    </g>
    <g transform="matrix(8.33333,0,0,8.33333,136.567,594.383)">
        <path d="M0,0.013L-0.042,-0.007L-0.048,0.02L0,0.013Z" style="fill:rgb(60,60,60);fill-rule:nonzero;"/>
    </g>
    <g transform="matrix(8.33333,0,0,8.33333,108.939,595.46)">
        <path d="M0,-0.018C-0.2,-0.049 -0.321,-0.014 -0.438,0.031C-0.287,0.018 -0.127,0.01 0.044,0.01C0.062,-0.011 0.065,-0.024 0,-0.018" style="fill:rgb(60,60,60);fill-rule:nonzero;"/>
    </g>
    <g transform="matrix(8.33333,0,0,8.33333,122.937,596.898)">
        <path d="M0,0.011C-0.107,-0.011 -0.228,-0.028 -0.354,-0.042C-0.25,-0.003 -0.035,0.053 0,0.011" style="fill:rgb(60,60,60);fill-rule:nonzero;"/>
    </g>
    <g transform="matrix(8.33333,0,0,8.33333,103.015,596.791)">
        <path d="M0,-0.042L-0.031,-0.038C0.033,0 0.026,-0.016 0,-0.042" style="fill:rgb(60,60,60);fill-rule:nonzero;"/>
    </g>
    <g transform="matrix(8.33333,0,0,8.33333,103.015,595.724)">
        <path d="M0,0.086C0.105,0.069 0.188,0.031 0.272,0C0.155,0.013 0.043,0.025 -0.065,0.038C-0.041,0.051 -0.018,0.07 0,0.086" style="fill:rgb(60,60,60);fill-rule:nonzero;"/>
    </g>
    <g transform="matrix(8.33333,0,0,8.33333,141.321,594.007)">
        <path d="M0,-1.022C-0.008,-0.887 -0.491,-0.643 -0.949,-0.746C-1.368,-0.607 -1.041,-0.171 -0.612,0.038C-0.607,-0.024 -0.613,-0.08 -0.174,-0.243C-0.259,-0.266 -0.517,-0.264 -0.704,-0.281C-0.896,-0.315 -1.018,-0.361 -0.836,-0.44C-0.253,-0.598 -0.345,-0.474 -0.043,-0.45C-0.313,-0.576 0.663,-0.835 0.482,-1.06L-0.01,-0.879C-0.025,-0.917 0.146,-1.012 0,-1.022" style="fill:rgb(60,60,60);fill-rule:nonzero;"/>
    </g>
    <g transform="matrix(8.33333,0,0,8.33333,128.869,595.916)">
        <path d="M0,-0.124L-0.188,-0.091C0.031,-0.085 0.19,-0.043 0.491,0.04C0.803,-0.056 0.861,-0.111 0.876,-0.164L-0.063,-0.098L0,-0.124Z" style="fill:rgb(60,60,60);fill-rule:nonzero;"/>
    </g>
    <g transform="matrix(8.33333,0,0,8.33333,120.177,593.177)">
        <path d="M0,0.311C0.144,0.148 0.59,0.045 0.304,-0.094C-0.243,-0.035 -0.074,0.061 -0.404,0.128C0.491,0.09 -0.659,0.22 -0.008,0.294C-0.184,0.332 -0.343,0.329 -0.494,0.336L-0.023,0.405L-0.045,0.397L-0.049,0.398L-0.048,0.395C-0.088,0.38 -0.101,0.368 -0.057,0.377L-0.038,0.372C-0.033,0.351 -0.017,0.331 0,0.312C0.263,0.321 0.043,0.348 -0.038,0.372C-0.041,0.38 -0.047,0.388 -0.048,0.395L-0.045,0.397L0.854,0.238C0.662,0.233 0.424,0.258 0,0.311" style="fill:rgb(60,60,60);fill-rule:nonzero;"/>
    </g>
    <g transform="matrix(8.33333,0,0,8.33333,83.6142,587.172)">
        <path d="M0,-0.04C0.024,-0.021 0.021,-0.011 0.021,0C0.079,-0.007 0.104,-0.015 0,-0.04" style="fill:rgb(60,60,60);fill-rule:nonzero;"/>
    </g>
    <g transform="matrix(8.33333,0,0,8.33333,86.4217,590.697)">
        <path d="M0,-0.301C-0.066,-0.293 -0.129,-0.244 -0.329,-0.301C-0.498,-0.382 -0.315,-0.372 -0.316,-0.423C-0.444,-0.408 -0.766,-0.405 -0.393,-0.254L-0.328,-0.261C0.006,-0.125 0.436,0.115 0.372,0.122C0.288,-0.028 0.208,-0.116 0,-0.301" style="fill:rgb(60,60,60);fill-rule:nonzero;"/>
    </g>
    <g transform="matrix(8.30154,-0.727224,-0.727224,-8.30154,103.278,592.82)">
        <path d="M-0.007,0.032L0.738,0.032L0.381,0.197L0.39,0.117C-0.022,0.189 0.053,0.082 -0.007,0.032" style="fill:rgb(60,60,60);fill-rule:nonzero;"/>
    </g>
    <g transform="matrix(8.33333,0,0,8.33333,137.365,595.405)">
        <path d="M0,-0.051L-0.077,0.125L0.321,-0.176L0,-0.051Z" style="fill:rgb(60,60,60);fill-rule:nonzero;"/>
    </g>
    <g transform="matrix(8.33333,0,0,8.33333,145.414,594.54)">
        <path d="M0,-0.143L-0.01,0L0.23,-0.129L0,-0.143Z" style="fill:rgb(60,60,60);fill-rule:nonzero;"/>
    </g>
    <g transform="matrix(8.33333,0,0,8.33333,536.495,429.939)">
        <path d="M0,0.174L0.096,0C0.049,0.08 0.018,0.132 0,0.174" style="fill:rgb(60,60,60);fill-rule:nonzero;"/>
    </g>
    <g transform="matrix(8.33333,0,0,8.33333,528.227,440.227)">
        <path d="M0,-0.037L0.021,0.038C0.043,-0.036 0.044,-0.075 0,-0.037" style="fill:rgb(60,60,60);fill-rule:nonzero;"/>
    </g>
    <g transform="matrix(8.33333,0,0,8.33333,309.346,519.992)">
        <path d="M0,-0.357C0.309,-0.215 0.657,0 0.625,-0.157L0.533,-0.313C0.312,-0.295 0.143,-0.318 0,-0.357" style="fill:rgb(60,60,60);fill-rule:nonzero;"/>
    </g>
    <g transform="matrix(8.33333,0,0,8.33333,439.831,494.029)">
        <path d="M0,-0.172L-0.101,-0.187C-0.155,-0.115 -0.208,-0.047 -0.256,0.015C-0.177,-0.043 -0.091,-0.106 0,-0.172" style="fill:rgb(60,60,60);fill-rule:nonzero;"/>
    </g>
    <g transform="matrix(8.33333,0,0,8.33333,439.937,486.712)">
        <path d="M0,0.039L0.412,0.004C0.315,0 0.183,0.011 0,0.039" style="fill:rgb(60,60,60);fill-rule:nonzero;"/>
    </g>
    <g transform="matrix(8.33333,0,0,8.33333,541.711,376.167)">
        <path d="M0,-0.091C-0.08,-0.121 -0.152,-0.154 -0.237,-0.174C-0.066,0.083 -0.079,-0.069 0,-0.091" style="fill:rgb(60,60,60);fill-rule:nonzero;"/>
    </g>
    <g transform="matrix(8.33333,0,0,8.33333,219.958,552.947)">
        <path d="M0,0.414C0.252,0.271 0.447,0.15 0.579,0C0.293,0.199 -0.025,0.254 0,0.414" style="fill:rgb(60,60,60);fill-rule:nonzero;"/>
    </g>
    <g transform="matrix(8.33333,0,0,8.33333,543.232,442.352)">
        <path d="M0,0.203C0.076,0.083 0.095,0.019 0.066,0C-0.013,0.12 -0.047,0.199 0,0.203" style="fill:rgb(60,60,60);fill-rule:nonzero;"/>
    </g>
    <g transform="matrix(8.33333,0,0,8.33333,229.382,552.947)">
        <path d="M0,-0.606C-0.046,-0.574 -0.083,-0.549 -0.127,-0.519C-0.247,-0.349 -0.374,-0.18 -0.552,0C-0.336,-0.14 -0.108,-0.329 0,-0.606" style="fill:rgb(60,60,60);fill-rule:nonzero;"/>
    </g>
    <g transform="matrix(8.33333,0,0,8.33333,535.746,516.017)">
        <path d="M0,-0.043L0.052,0C0.065,-0.016 0.04,-0.029 0,-0.043" style="fill:rgb(60,60,60);fill-rule:nonzero;"/>
    </g>
    <g transform="matrix(8.33333,0,0,8.33333,605.66,539.493)">
        <path d="M0,-0.056C-0.089,-0.036 -0.236,-0.02 -0.375,-0.003C-0.307,0 -0.192,-0.014 0,-0.056" style="fill:rgb(60,60,60);fill-rule:nonzero;"/>
    </g>
    <g transform="matrix(8.33333,0,0,8.33333,177.233,585.174)">
        <path d="M0,-0.087C-0.191,0 -0.024,-0.059 0,-0.087" style="fill:rgb(60,60,60);fill-rule:nonzero;"/>
    </g>
    <g transform="matrix(8.33333,0,0,8.33333,167.663,582.046)">
        <path d="M0,0.1C0.035,0.068 0.059,0.036 0.051,0C0.048,0.041 0.029,0.074 0,0.1" style="fill:rgb(60,60,60);fill-rule:nonzero;"/>
    </g>
    <g transform="matrix(8.33333,0,0,8.33333,234.142,529.933)">
        <path d="M0,-0.003L0.012,-0.016C-0.048,0.013 -0.038,0.008 0,-0.003" style="fill:rgb(60,60,60);fill-rule:nonzero;"/>
    </g>
    <g transform="matrix(8.33333,0,0,8.33333,174.581,584.41)">
        <path d="M0,0.058C0.08,0.046 0.17,0.027 0.266,0C0.222,0.005 0.14,0.022 0,0.058" style="fill:rgb(60,60,60);fill-rule:nonzero;"/>
    </g>
    <g transform="matrix(8.33333,0,0,8.33333,175.134,586.099)">
        <path d="M0,-0.094C-0.07,-0.073 -0.125,-0.055 -0.177,-0.04C-0.192,-0.006 -0.165,0 0,-0.094" style="fill:rgb(60,60,60);fill-rule:nonzero;"/>
    </g>
    <g transform="matrix(8.33333,0,0,8.33333,179.48,584.447)">
        <path d="M0,-0.116C-0.111,-0.069 -0.218,-0.034 -0.322,-0.004C-0.279,-0.01 -0.261,-0.009 -0.27,0C-0.212,-0.024 -0.133,-0.059 0,-0.116" style="fill:rgb(60,60,60);fill-rule:nonzero;"/>
    </g>
    <g transform="matrix(8.33333,0,0,8.33333,473.726,414.151)">
        <path d="M0,-0.238C-0.006,-0.226 -0.013,-0.215 -0.021,-0.199C0.017,0 0.012,-0.086 0,-0.238" style="fill:rgb(60,60,60);fill-rule:nonzero;"/>
    </g>
    <g transform="matrix(8.33333,0,0,8.33333,352.648,503.727)">
        <path d="M0,-0.012L-0.021,-0.003L0.008,0L0,-0.012Z" style="fill:rgb(60,60,60);fill-rule:nonzero;"/>
    </g>
    <g transform="matrix(8.33333,0,0,8.33333,358.442,507.23)">
        <path d="M0,-0.595C-0.284,-0.386 -0.458,-0.396 -0.687,-0.42L-0.423,0L0,-0.595Z" style="fill:rgb(60,60,60);fill-rule:nonzero;"/>
    </g>
    <g transform="matrix(8.33333,0,0,8.33333,463.464,509.537)">
        <path d="M0,-9.591C0.01,-9.638 0.022,-9.685 0.039,-9.731C0.101,-9.422 0.058,-9.507 0,-9.591M-32.999,8.132C-33.051,8.186 -33.036,8.205 -32.999,8.212C-32.974,8.151 -32.836,8.075 -32.67,8.001C-32.736,7.985 -32.83,8.001 -32.999,8.132M-32.34,7.867L-32.329,7.852C-31.995,7.75 -32.115,7.784 -32.34,7.867M-3.987,-2.023C-3.899,-2.107 -3.732,-2.127 -3.534,-2.119C-3.661,-2.068 -3.812,-2.029 -3.987,-2.023M6.101,-6.96C6.196,-7.07 6.364,-7.312 6.501,-7.294C6.488,-7.041 6.327,-7.049 6.101,-6.96M10.224,-12.277L9.988,-11.912C9.91,-12.44 10.002,-12.748 9.771,-12.426C9.985,-12.352 9.944,-11.99 9.789,-11.586C9.652,-11.19 9.464,-10.812 9.652,-10.671L9.422,-10.462C9.468,-10.533 9.449,-10.559 9.493,-10.629C9.006,-10.263 9.585,-10.072 9.062,-9.487C8.868,-9.296 8.688,-9.204 8.764,-9.378C8.666,-9.202 8.57,-9.022 8.455,-8.852C8.327,-8.731 8.298,-8.82 8.424,-8.939C8.228,-8.705 8.013,-8.485 7.797,-8.264L7.792,-8.279C7.744,-8.136 7.589,-7.852 7.506,-7.716C7.276,-7.616 7.568,-7.831 7.48,-7.839L7.144,-7.421C6.9,-7.387 7.172,-7.745 7.454,-7.961C6.781,-8.028 7.207,-7.581 6.187,-7.195L6.55,-7.527C6.14,-7.56 5.891,-7.262 5.335,-7.111C5.492,-7.097 6.486,-7.369 6.088,-6.955C5.937,-6.892 5.748,-6.795 5.539,-6.548C5.449,-6.688 5.214,-6.498 4.896,-6.296L4.805,-6.502C4.485,-6.245 4.568,-6.162 4.409,-5.955C3.993,-5.757 3.831,-5.862 3.667,-5.944C2.993,-5.644 4.25,-5.927 3.49,-5.496C2.901,-5.298 2.565,-5.009 1.948,-4.587C1.524,-4.476 1.96,-4.742 1.792,-4.736L1.52,-4.414C1.433,-4.379 1.437,-4.441 1.44,-4.473C1.175,-4.277 1.51,-4.253 1.068,-3.994C1.034,-3.717 -0.03,-3.915 -0.511,-3.432C-0.678,-3.437 -0.49,-3.587 -0.565,-3.651C-1.306,-3.178 -1.206,-3.262 -1.79,-2.789L-2.411,-2.735C-1.936,-2.717 -2.408,-2.349 -2.836,-2.033C-2.66,-2.006 -2.509,-1.982 -2.411,-1.979C-2.653,-1.859 -2.894,-1.726 -3.141,-1.615C-3.245,-1.623 -3.19,-1.719 -3.092,-1.846C-3.137,-1.813 -3.181,-1.78 -3.217,-1.753C-3.518,-1.75 -3.411,-1.916 -3.253,-2.094C-3.149,-2.079 -3.042,-2.063 -2.937,-2.048C-2.79,-2.24 -2.662,-2.442 -2.742,-2.553C-2.782,-2.513 -2.87,-2.46 -2.97,-2.413C-2.933,-2.465 -2.912,-2.507 -2.941,-2.52C-2.974,-2.534 -3.037,-2.461 -3.144,-2.365L-3.391,-2.551L-3.402,-2.445L-4.438,-2.3C-5.081,-1.864 -5.612,-1.324 -6.757,-0.97C-6.508,-1.212 -6.76,-1.275 -6.791,-1.49C-6.424,-1.329 -5.923,-1.786 -5.324,-1.898C-5.639,-1.842 -5.596,-1.96 -5.527,-2.015C-5.86,-1.859 -6.191,-1.693 -6.532,-1.553C-6.548,-1.731 -6.787,-1.633 -7.079,-1.644C-6.795,-1.35 -7.82,-1.233 -8.24,-1.061C-8.288,-1.173 -8.206,-1.306 -7.671,-1.38C-8.304,-1.528 -8.352,-0.836 -8.97,-0.95C-8.84,-0.977 -8.767,-0.971 -8.727,-1.04C-9.011,-0.873 -9.772,-0.844 -9.611,-0.974L-9.482,-0.995C-10.352,-0.89 -12.121,-0.66 -12.228,-0.354C-12.24,-0.391 -12.146,-0.723 -12.1,-0.789C-12.584,-0.401 -13.083,-0.044 -13.594,0.331C-13.473,0.066 -14.033,-0.505 -13.319,-0.7C-13.529,-0.726 -13.786,-0.736 -14.22,-0.637C-14.077,-0.605 -13.848,-0.279 -14.041,-0.25C-14.589,-0.516 -14.421,-0.389 -15.084,-0.61C-14.87,-0.562 -15.096,-0.153 -15.437,-0.154C-15.385,-0.216 -15.47,-0.549 -15.349,-0.595L-16.185,-0.2C-15.974,-0.271 -16.148,-0.534 -16.333,-0.646C-16.248,-0.572 -17.056,-0.647 -17.278,-0.628L-16.927,-0.525C-17.866,-0.621 -17.882,-0 -18.83,-0.076C-18.71,-0.148 -18.519,-0.553 -18.99,-0.64C-19.214,-0.46 -20.045,0.259 -20.899,0.322L-21.048,0.192L-21.69,0.269C-21.286,-0.014 -20.078,-0.516 -19.461,-0.727C-19.804,-0.846 -19.547,-0.87 -20.073,-0.902C-20.248,-1.024 -19.771,-1.042 -19.617,-1.036L-20.848,-1.22C-20.81,-0.985 -21.853,-1.07 -21.818,-0.865C-21.344,-0.919 -20.873,-0.952 -20.414,-0.987C-20.384,-0.743 -21.263,-0.419 -22.158,-0.499C-22.388,-0.599 -21.97,-0.912 -21.982,-0.989C-22.106,-0.92 -22.873,-0.856 -22.965,-0.899C-22.831,-0.947 -22.697,-0.991 -22.562,-1.032C-23.107,-1.114 -23.407,-0.706 -24.083,-0.812C-24.304,-0.792 -24.845,-0.931 -24.845,-0.781C-24.375,-0.644 -24.147,0.156 -24.277,0.405C-24.345,0.37 -25.279,0.514 -25.547,0.572C-25.967,0.588 -25.369,-0.133 -25.717,-0.13C-25.698,-0.068 -25.828,0.113 -25.885,0.179C-26.105,0.275 -25.924,-0.048 -26.32,0.294C-26.249,0.522 -27.099,0.967 -26.375,0.602C-26.687,0.979 -26.791,0.917 -27.16,1.342C-26.935,1.315 -27.086,2.054 -27.303,2.453C-27.333,2.395 -27.459,2.428 -27.519,2.445C-28.093,3.188 -28.519,3.485 -29.104,4.118C-29.2,4.138 -29.527,4.395 -29.482,4.193C-29.541,4.306 -29.54,4.469 -29.744,4.639C-30.263,4.83 -29.335,4.219 -29.789,4.306C-29.714,4.43 -30.17,4.887 -30.398,5.201C-30.18,5.28 -29.687,4.676 -29.502,4.335C-29.271,4.558 -29.559,5.22 -30.189,5.939C-30.71,6.483 -30.552,5.998 -30.624,6.116C-31.795,6.842 -31.296,7.25 -32.423,7.657C-32.923,7.708 -32.624,7.34 -32.781,7.269C-32.282,6.949 -31.94,6.899 -31.603,6.673L-32.063,6.877C-31.939,6.718 -31.64,6.457 -31.431,6.381C-31.643,6.405 -32.096,6.761 -32.679,7.067C-33.271,7.352 -33.908,7.746 -34.435,7.847C-34.581,7.973 -34.855,8.153 -34.685,8.167L-34.386,8.019C-34.037,8.043 -34.891,8.447 -34.467,8.354C-34.85,8.607 -35.26,8.998 -35.907,9.097L-36.089,8.926C-36.06,8.975 -35.641,8.948 -35.5,8.805C-35.72,9.001 -36.523,8.806 -36.722,9.162L-36.248,9.181C-36.658,9.397 -37.147,9.822 -37.736,9.851C-37.432,10.002 -37.607,9.823 -37.151,9.951C-37.57,9.751 -35.713,9.554 -36.355,9.4C-35.869,9.549 -35.611,9.343 -35.015,9.351C-35.056,9.291 -35.245,9.297 -34.776,9.148C-34.763,9.12 -34.724,9.076 -34.698,9.05C-34.685,9.047 -34.679,9.045 -34.666,9.043L-34.694,9.045C-34.678,9.027 -34.678,9.024 -34.704,9.046C-34.824,9.06 -34.925,9.06 -34.975,9.037C-34.807,8.796 -34.094,8.516 -33.888,8.343C-33.61,8.263 -33.964,8.464 -33.789,8.472C-33.687,8.382 -33.593,8.278 -33.496,8.181C-33.396,8.306 -32.698,8.057 -33.265,8.459L-32.714,8.177C-32.355,8.075 -31.87,7.9 -31.658,7.651C-31.396,7.514 -31.141,7.09 -31.283,7.336L-30.536,6.711L-30.505,6.737C-30.104,6.473 -29.791,6.071 -29.422,5.724C-29.243,5.543 -29.045,5.377 -28.848,5.203C-28.66,5.019 -28.454,4.846 -28.217,4.69C-28.029,4.422 -27.836,4.148 -27.449,3.77L-27.278,3.773C-27.059,3.416 -26.448,2.915 -26.459,2.709C-25.928,2.594 -25.277,1.461 -24.773,1.313L-24.844,1.149C-24.516,0.982 -24.21,0.802 -23.724,0.643L-23.783,0.494C-23.356,0.277 -22.606,0.474 -21.848,0.514C-21.902,0.572 -22.096,0.543 -22.229,0.504C-21.361,0.886 -20.24,0.428 -19.368,0.739C-19.143,0.699 -18.984,0.731 -18.832,0.783C-18.853,0.782 -18.871,0.783 -18.887,0.786C-18.864,0.789 -18.831,0.792 -18.796,0.796C-18.7,0.832 -18.603,0.869 -18.494,0.898C-18.585,0.856 -18.671,0.821 -18.748,0.799C-18.577,0.81 -18.316,0.796 -18.062,0.769L-17.961,0.942C-17.939,0.941 -17.924,0.941 -17.901,0.94C-17.653,1.012 -17.698,0.868 -17.825,0.736C-17.696,0.714 -17.578,0.685 -17.486,0.648C-17.293,0.933 -16.822,0.581 -16.55,0.867C-16.378,0.723 -15.273,0.773 -15.146,0.457C-15.137,0.495 -15.062,0.512 -15.198,0.518C-14.916,0.543 -14.634,0.567 -14.386,0.475L-14.257,0.685C-14.056,0.581 -13.855,0.483 -13.657,0.369C-13.279,0.473 -13.117,0.538 -13.479,0.729C-12.601,0.409 -12.756,0.591 -12.021,0.269L-12.045,0.411C-11.773,0.376 -11.362,0.145 -11.188,0.242C-10.546,0.456 -8.2,-0.117 -6.626,-0.238C-7.012,-0.571 -5.873,-0.215 -5.884,-0.539C-5.773,-0.468 -5.548,-0.47 -5.774,-0.325C-5.023,-0.62 -4.563,-0.47 -4.104,-0.883C-3.989,-0.815 -4.23,-0.697 -4.136,-0.665C-4.079,-0.704 -3.914,-0.819 -3.818,-0.787C-3.724,-0.755 -3.908,-0.676 -4.02,-0.599C-3.233,-0.849 -3.241,-1.157 -3.266,-1.44C-2.832,-1.427 -2.642,-1.517 -2.417,-1.784C-2.253,-1.743 -1.994,-1.729 -2.465,-1.537C-2.189,-1.608 -0.77,-1.97 -0.825,-2.204C-0.722,-2.182 -0.447,-2.328 -0.386,-2.379C0.218,-2.588 0.273,-2.598 0.844,-2.859L0.671,-2.825C0.794,-3.17 1.126,-3.08 1.579,-3.306L1.576,-3.275C2.707,-3.583 1.99,-3.566 3.121,-3.847L2.992,-3.97C2.927,-4.343 3.988,-4.233 4.518,-4.661L4.26,-4.635C4.521,-4.904 5.388,-4.685 5.736,-4.835C5.822,-4.848 5.651,-4.728 5.563,-4.652C6.515,-4.961 5.563,-4.904 6.157,-5.318C6.334,-5.288 6.168,-4.966 6.598,-5.213C6.869,-5.258 7.572,-6.317 8.227,-6.571C8.052,-6.549 7.882,-6.53 8.104,-6.794C8.479,-7.136 9.407,-7.479 9.52,-8.041C9.585,-8.073 9.619,-8.075 9.639,-8.062C9.856,-8.414 10.388,-9.162 10.368,-9.464C10.712,-9.457 11.007,-10.047 11.164,-10.62C11.338,-11.186 11.396,-11.724 11.648,-11.659C11.761,-12.086 11.812,-12.525 11.819,-12.958L11.872,-12.921C11.939,-13.762 11.745,-14.049 11.58,-14.306C11.585,-14.496 11.656,-14.37 11.687,-14.358C11.641,-14.957 11.563,-15.288 11.433,-15.567C11.313,-15.85 11.131,-16.087 10.793,-16.464L10.892,-16.637C10.776,-16.729 10.626,-17.14 10.31,-17.612C9.984,-18.067 9.486,-18.602 8.871,-18.804C8.892,-18.816 8.93,-18.832 9.027,-18.801C8.376,-19.081 7.587,-19.444 6.81,-19.522C6.051,-19.593 5.388,-19.418 5.26,-19.033C4.99,-18.89 4.743,-18.721 4.514,-18.54C5.533,-18.975 4.484,-18.23 4.936,-18.33C4.589,-18.132 3.911,-17.953 4.332,-18.257L4.418,-18.272C4.422,-18.462 4.103,-18.322 3.799,-18.116C3.492,-17.916 3.206,-17.658 3.143,-17.749C2.34,-17 1.664,-16.14 1.176,-15.204C0.655,-14.287 0.293,-13.294 0.114,-12.292L0.405,-12.472L0.271,-11.79C0.187,-11.617 0.029,-11.57 0.127,-12.068C-0.079,-11.826 0.146,-11.214 0.199,-11.199C0.011,-10.232 -0.065,-11.606 -0.098,-11.309L-0.114,-10.895L-0.076,-10.986C-0.005,-10.646 0.116,-10.614 0.101,-10.017C0.048,-9.637 -0.058,-9.819 -0.068,-9.668C-0.087,-9.668 -0.091,-9.617 -0.059,-9.437L-0.005,-8.549C0.043,-8.674 0.107,-8.8 0.163,-8.923C0.279,-8.544 0.268,-8.11 0.423,-8.533C0.285,-8.222 0.385,-7.407 0.59,-6.647C0.712,-6.274 0.832,-5.907 0.929,-5.612C1.046,-5.325 1.128,-5.105 1.138,-5.01C1.473,-4.564 1.711,-4.094 2.021,-3.513C1.974,-3.675 2.123,-3.867 2.385,-3.376C2.135,-3.344 2.215,-3.091 2.377,-2.782C2.551,-2.482 2.778,-2.118 2.79,-1.829C2.693,-2.28 3.898,-0.612 3.706,-1.318C4.012,-0.955 3.597,-1.179 3.773,-0.843C4.688,-0.152 5.577,0.943 6.857,1.596C6.906,1.552 6.747,1.359 7.056,1.422L7.566,2.046C7.836,2.137 7.951,1.831 8.323,2.235C8.278,2.158 8.214,2.043 8.39,2.101C9.584,2.785 10.971,3.121 12.351,3.311C13.739,3.503 15.122,3.562 16.537,3.738C16.15,3.639 16.402,3.616 16.688,3.592C16.5,3.578 16.681,3.442 16.637,3.361C17.023,3.393 17.417,3.437 17.812,3.456C17.985,3.198 19.039,3.229 19.106,2.969L18.76,3.089C19.173,2.741 17.989,2.65 18.008,2.294C17.532,2.686 16.621,2.052 15.815,2.509C15.627,2.451 15.969,2.392 15.867,2.32C15.661,2.481 15.4,2.509 14.923,2.442L14.978,2.407C13.64,2.4 13.066,2.218 11.636,1.83L11.709,2.018C11.4,1.921 11.348,1.855 11.211,1.78C10.793,1.937 12.084,2.005 11.698,2.197C11.351,1.802 9.49,1.591 9.371,1.091C8.917,0.914 9.432,1.325 8.978,1.139L8.901,0.99L8.734,1.061C8.448,0.907 8.357,0.723 8.385,0.639C8.451,0.68 8.596,0.707 8.674,0.735C8.344,0.473 7.628,0.24 7.518,0.145L7.896,0.421C6.668,-0.115 5.452,-1.199 4.452,-2.002L4.464,-1.879C3.71,-2.536 3.996,-2.519 3.319,-3.362L3.358,-3.34C3.16,-3.468 2.992,-3.71 2.841,-3.967C3.061,-3.78 2.73,-4.496 3.003,-4.239C2.376,-5.108 2.648,-4.639 2.08,-5.163L2.136,-5.368C1.94,-5.55 1.859,-5.541 1.64,-6.051C1.883,-5.659 1.72,-6.449 2.012,-6.022C1.926,-7.168 1.258,-7.576 1.579,-8.172C1.36,-8.398 1.35,-8.15 1.379,-7.873C1.422,-7.599 1.519,-7.308 1.445,-7.442C1.393,-7.172 1.065,-7.808 1.062,-8.183C1.003,-8.557 1.41,-8.869 1.351,-9.762C1.348,-9.672 1.381,-9.667 1.385,-9.578C1.456,-9.914 1.256,-10.239 1.402,-10.649C1.207,-10.892 1.462,-11.18 1.192,-11.274C1.197,-10.991 1.168,-10.713 1.201,-10.432C1.152,-10.899 0.833,-11.399 1.144,-12.163C1.188,-12.091 1.219,-11.847 1.231,-11.684C1.353,-11.897 1.256,-12.129 1.379,-12.348C1.634,-12.23 1.256,-11.338 1.45,-10.817C1.588,-11.043 1.331,-11.778 1.608,-11.492C1.298,-11.902 1.775,-12.345 1.672,-12.989L1.822,-12.906C1.823,-13.003 1.793,-13.219 1.853,-13.385C1.883,-13.263 1.932,-13.138 1.972,-13.018C1.93,-13.539 2.414,-13.839 2.51,-14.282C2.138,-13.405 2.239,-14.166 1.973,-13.829C2.069,-14.449 2.297,-14.546 2.478,-14.664C2.678,-14.778 2.873,-14.9 3.196,-15.448C3.118,-15.296 2.763,-14.948 2.839,-15.222C2.998,-15.418 3.24,-15.649 3.398,-15.714C3.901,-16.397 3.184,-15.717 3.33,-16.065C3.673,-16.163 3.54,-16.443 3.772,-16.768L3.892,-16.648C4.697,-17.198 3.844,-17.118 4.655,-17.532C4.588,-17.403 4.535,-17.26 4.48,-17.131C4.592,-17.232 4.701,-17.34 4.82,-17.43L4.844,-17.22C5.171,-17.586 5.34,-17.623 5.776,-17.716C5.64,-17.791 5.734,-18.042 6.155,-18.132C6.453,-18.064 6.026,-17.964 6.597,-18.041C6.468,-17.934 6.362,-17.785 6.096,-17.895C6.081,-17.835 5.997,-17.763 5.986,-17.706C6.279,-17.675 6.672,-17.786 6.864,-17.773C6.794,-17.793 6.705,-17.791 6.659,-17.815C6.911,-17.887 7.186,-17.966 7.465,-17.961C7.574,-17.868 7.461,-17.844 7.359,-17.82C7.51,-17.788 7.648,-17.871 7.873,-17.775C7.764,-17.659 7.73,-17.564 7.421,-17.563C7.655,-17.572 7.888,-17.509 8.128,-17.445C8.144,-17.363 8.357,-17.116 8.25,-17.121C8.501,-16.856 9.192,-16.671 9.426,-16.095C9.464,-16.084 9.517,-16.045 9.6,-15.947C9.843,-15.433 9.869,-14.936 10.192,-14.329L10.008,-13.923C10.122,-13.417 10.267,-14.476 10.439,-13.608C10.55,-12.977 10.235,-13.37 10.171,-13.157C10.302,-12.871 10.48,-12.273 10.122,-11.788C10.131,-11.981 10.194,-12.107 10.224,-12.277" style="fill:rgb(60,60,60);fill-rule:nonzero;"/>
    </g>
    <g transform="matrix(8.33333,0,0,8.33333,439.888,488.184)">
        <path d="M0,-0.059C0.048,-0.045 0.068,-0.018 0.087,0.009C0.132,-0.037 0.122,-0.068 0,-0.059" style="fill:rgb(60,60,60);fill-rule:nonzero;"/>
    </g>
    <g transform="matrix(8.33333,0,0,8.33333,542.077,375.376)">
        <path d="M0,0.021L-0.008,0.004C-0.022,0 -0.033,0.001 -0.044,0.004L0,0.021Z" style="fill:rgb(60,60,60);fill-rule:nonzero;"/>
    </g>
    <g transform="matrix(8.33333,0,0,8.33333,246.61,508.117)">
        <path d="M0,0.133C0.148,0.066 0.239,0.044 0.306,0.041C0.291,0 0.212,0.008 0,0.133" style="fill:rgb(60,60,60);fill-rule:nonzero;"/>
    </g>
    <g transform="matrix(8.33333,0,0,8.33333,160.323,589.601)">
        <path d="M0,0.168L0.426,0C0.216,0.069 0.13,0.055 0.016,0.06C0.037,0.095 0.137,0.126 0,0.168" style="fill:rgb(60,60,60);fill-rule:nonzero;"/>
    </g>
    <g transform="matrix(8.33333,0,0,8.33333,127.225,589.266)">
        <path d="M0,-0.117C-0.062,-0.091 -0.133,-0.103 -0.193,-0.077L-0.171,0C0.1,-0.029 0.28,-0.108 0,-0.117" style="fill:rgb(60,60,60);fill-rule:nonzero;"/>
    </g>
    <g transform="matrix(8.33333,0,0,8.33333,155.741,588.94)">
        <path d="M0,-0.179C-0.071,-0.309 -0.321,-0.179 -0.616,-0.079L-0.562,-0.089C-0.605,0.13 -0.3,-0.025 0,-0.179" style="fill:rgb(60,60,60);fill-rule:nonzero;"/>
    </g>
    <g transform="matrix(8.33333,0,0,8.33333,150.028,589.592)">
        <path d="M0,-0.14C-0.092,-0.116 -0.187,-0.095 -0.281,-0.085C-0.3,0 -0.163,-0.09 0,-0.14" style="fill:rgb(60,60,60);fill-rule:nonzero;"/>
    </g>
    <g transform="matrix(8.33333,0,0,8.33333,182.182,581.306)">
        <path d="M0,0.014C-0.154,0.036 -0.014,0.215 -0.116,0.194C-0.187,0.443 0.704,-0.429 0,0.014" style="fill:rgb(60,60,60);fill-rule:nonzero;"/>
    </g>
    <g transform="matrix(8.33333,0,0,8.33333,152.779,585.042)">
        <path d="M0,-0.096L0.148,0.044L0.276,-0.14L0,-0.096Z" style="fill:rgb(60,60,60);fill-rule:nonzero;"/>
    </g>
    <g transform="matrix(8.33333,0,0,8.33333,172.122,581.095)">
        <path d="M0,-0.24L-0.47,-0.105C-0.452,-0.08 -0.504,-0.041 -0.57,0C-0.289,-0.106 0.03,-0.196 0,-0.24" style="fill:rgb(60,60,60);fill-rule:nonzero;"/>
    </g>
    <g transform="matrix(8.33333,0,0,8.33333,167.37,582.392)">
        <path d="M0,-0.156C-0.146,-0.096 -0.285,-0.049 -0.362,0C-0.279,-0.021 -0.108,-0.084 0,-0.156" style="fill:rgb(60,60,60);fill-rule:nonzero;"/>
    </g>
    <g transform="matrix(8.33333,0,0,8.33333,157.963,581.584)">
        <path d="M0,0.086L0.148,0.082L0.48,0L0,0.086Z" style="fill:rgb(60,60,60);fill-rule:nonzero;"/>
    </g>
    <g transform="matrix(8.33333,0,0,8.33333,210.03,553.785)">
        <path d="M0,0.459L0.372,0.072C0.373,-0.008 0.239,0.058 0.105,0.205C0.037,0.32 -0.099,0.467 0,0.459" style="fill:rgb(60,60,60);fill-rule:nonzero;"/>
    </g>
    <g transform="matrix(8.33333,0,0,8.33333,196.944,560.427)">
        <path d="M0,0.207C0.137,0.159 0.166,0.186 0.264,0.189L0.155,0L0,0.207Z" style="fill:rgb(60,60,60);fill-rule:nonzero;"/>
    </g>
    <g transform="matrix(8.33333,0,0,8.33333,206.888,551.565)">
        <path d="M0,0.349C0.003,0.267 0.453,-0.271 -0.028,0.163C-0.029,0.243 -0.389,0.62 0,0.349" style="fill:rgb(60,60,60);fill-rule:nonzero;"/>
    </g>
    <g transform="matrix(8.33333,0,0,8.33333,255.497,513.096)">
        <path d="M0,-0.376L-0.123,-0.315L0.045,0L0,-0.376Z" style="fill:rgb(60,60,60);fill-rule:nonzero;"/>
    </g>
    <g transform="matrix(8.33333,0,0,8.33333,314.123,503.26)">
        <path d="M0,-0.144C-0.607,-0.256 -0.157,0.072 -0.706,-0.063C-0.855,0.015 -0.257,0.048 -0.409,0.112C-0.032,0.039 0.159,0.097 0,-0.144" style="fill:rgb(60,60,60);fill-rule:nonzero;"/>
    </g>
    <g transform="matrix(8.33333,0,0,8.33333,310.713,504.58)">
        <path d="M0,-0.046C-0.061,-0.034 -0.124,-0.02 -0.193,0C-0.084,-0.018 -0.032,-0.032 0,-0.046" style="fill:rgb(60,60,60);fill-rule:nonzero;"/>
    </g>
    <g transform="matrix(8.33333,0,0,8.33333,618.591,538.192)">
        <path d="M0,0.067C0.145,0.071 0.286,0.058 0.431,0.052L0.14,-0.004L0,0.067Z" style="fill:rgb(60,60,60);fill-rule:nonzero;"/>
    </g>
    <g transform="matrix(8.33333,0,0,8.33333,624.694,536.32)">
        <path d="M0,-0.14L0.149,0.058L0.345,-0.198C0.255,-0.166 0.082,-0.106 0,-0.14" style="fill:rgb(60,60,60);fill-rule:nonzero;"/>
    </g>
    <g transform="matrix(8.33333,0,0,8.33333,504.748,453.393)">
        <path d="M0,-0.036L0.003,0.026C0.084,0.046 0.164,0.004 0.322,-0.082L0,-0.036Z" style="fill:rgb(60,60,60);fill-rule:nonzero;"/>
    </g>
    <g transform="matrix(8.33333,0,0,8.33333,537.398,427.781)">
        <path d="M0,-0.064L-0.054,0L0.206,-0.003L0,-0.064Z" style="fill:rgb(60,60,60);fill-rule:nonzero;"/>
    </g>
    <g transform="matrix(8.33333,0,0,8.33333,545.78,400.99)">
        <path d="M0,-0.417C0.011,-0.27 0.028,-0.099 0.022,0.049C0.005,-0.266 0.258,-0.466 0,-0.417" style="fill:rgb(60,60,60);fill-rule:nonzero;"/>
    </g>
</svg>
