<?xml version="1.0" encoding="UTF-8" standalone="no"?>
<!DOCTYPE svg PUBLIC "-//W3C//DTD SVG 1.1//EN" "http://www.w3.org/Graphics/SVG/1.1/DTD/svg11.dtd">
<svg width="100%" height="100%" viewBox="0 0 1489 616" version="1.1" xmlns="http://www.w3.org/2000/svg" xmlns:xlink="http://www.w3.org/1999/xlink" xml:space="preserve" xmlns:serif="http://www.serif.com/" style="fill-rule:evenodd;clip-rule:evenodd;stroke-linejoin:round;stroke-miterlimit:2;">
    <g transform="matrix(8.33333,0,0,8.33333,152.703,603.768)">
        <path d="M0,-42.709C-0.361,-42.709 -0.721,-42.699 -1.08,-42.678C-3.469,-42.537 -5.995,-42.09 -8.283,-39.79C-11.368,-36.687 -13.622,-32.851 -15.378,-27.716C-16.434,-24.63 -17.51,-20.538 -16.46,-16.244C-14.258,-7.231 -4.84,-0.119 4.98,-0.052C5.364,-0.08 5.685,-0.101 6.004,-0.123C6.71,-0.171 7.414,-0.219 8.116,-0.301C13.462,-0.924 18.326,-3.732 21.459,-8.005C24.555,-12.228 25.718,-17.378 24.734,-22.507C22.707,-33.08 10.918,-42.709 0,-42.709M4.661,1.437C4.094,1.437 3.512,1.422 2.912,1.393C-3.254,0.979 -9.571,-2.493 -13.973,-7.893C-17.628,-12.376 -18.991,-17.378 -18.022,-22.757C-17.854,-23.691 -17.723,-24.633 -17.59,-25.575C-17.221,-28.21 -16.87,-30.699 -15.765,-33.089C-12.32,-40.529 -7.327,-44.146 -0.501,-44.146C1.131,-44.146 2.896,-43.934 4.745,-43.516C14.449,-41.321 21.366,-35.385 25.306,-25.872C28.583,-17.96 25.81,-8.579 18.562,-3.058C14.481,0.051 10.194,1.437 4.661,1.437" style="fill:rgb(62,62,62);fill-rule:nonzero;"/>
    </g>
    <g transform="matrix(8.33333,0,0,8.33333,171.786,441.703)">
        <path d="M0,11.072C-2.745,10.986 -6.682,10.249 -9.75,7.224C-10.769,6.219 -11.522,4.783 -12.148,3.504C-12.143,3.328 -12.01,2.955 -11.891,2.754C-11.47,2.766 -11.01,2.959 -10.912,3.065C-8.604,8.416 -3.779,9.408 0.633,9.664C1.009,9.686 1.383,9.697 1.754,9.697C5.277,9.697 8.319,8.67 10.796,6.643C12.519,5.234 13.438,3.412 13.532,1.226C13.584,-0.002 13.835,-0.002 14.25,-0.002C14.568,0.007 14.744,0.059 14.833,0.156C14.975,0.308 15.033,0.68 15.009,1.263C14.859,4.739 13.13,7.32 9.722,9.152C7.217,10.499 4.441,11.074 0.442,11.074L0,11.072Z" style="fill:rgb(62,62,62);fill-rule:nonzero;"/>
    </g>
    <g transform="matrix(8.33333,0,0,8.33333,197.324,322.515)">
        <path d="M0,9.726C-0.213,9.63 -0.578,9.297 -0.638,9.132C-0.965,7.533 -1.187,5.853 -1.401,4.228C-1.45,3.854 -1.5,3.48 -1.551,3.107L-1.539,3.104L-1.539,2.491C-1.539,2.276 -1.557,2.052 -1.575,1.828C-1.604,1.466 -1.636,1.093 -1.55,0.889C-1.364,0.452 -0.998,0.09 -0.813,0C-0.62,0.077 -0.28,0.355 -0.213,0.502C0.221,3.514 0.516,6.35 0.673,9.112C0.623,9.237 0.232,9.617 0,9.726" style="fill:rgb(62,62,62);fill-rule:nonzero;"/>
    </g>
    <g transform="matrix(8.33333,0,0,8.33333,115.756,321.636)">
        <path d="M0,9.894C-0.251,9.892 -0.424,9.842 -0.515,9.748C-0.755,9.496 -0.728,8.74 -0.718,8.491C-0.696,7.925 -0.701,7.357 -0.707,6.79L-0.711,5.392L-0.822,5.377L-0.704,4.535C-0.53,3.285 -0.356,2.034 -0.146,0.79C-0.011,0 0.336,0 0.484,0C0.589,0 0.71,0.019 0.843,0.055C1.231,0.161 1.377,0.2 1.261,1.266C1.032,3.361 0.868,5.602 0.743,8.318L0.733,8.561C0.685,9.849 0.566,9.894 0.018,9.894L0,9.894Z" style="fill:rgb(62,62,62);fill-rule:nonzero;"/>
    </g>
    <g transform="matrix(8.33333,0,0,8.33333,1327.67,544.557)">
        <path d="M0,-38.953C-0.261,-38.953 -0.518,-38.946 -0.774,-38.93C-2.629,-38.82 -4.057,-38.586 -5.138,-38.215C-9.158,-36.835 -14.162,-35.117 -17.063,-30.502C-20.344,-25.286 -21.581,-20.432 -20.848,-15.665C-19.816,-8.958 -15.697,-4.26 -8.256,-1.305C-5.388,-0.166 -2.611,0.412 -0.003,0.412L-0.002,0.412C2.863,0.412 5.588,-0.284 8.096,-1.656C16.159,-6.068 17.512,-13.973 17.733,-16.291C18.368,-27.655 10.885,-35.891 5.628,-37.89C3.824,-38.575 1.825,-38.953 0,-38.953M-0.963,1.62C-6.713,1.464 -11.893,-0.52 -15.926,-4.119C-21.491,-9.086 -23.479,-15.298 -21.836,-22.583C-20.346,-29.186 -17.01,-34.446 -11.919,-38.217C-10.175,-39.508 -8.115,-40.163 -5.797,-40.163C-5.627,-40.163 -5.456,-40.16 -5.284,-40.153C-5.195,-40.15 -5.106,-40.148 -5.018,-40.148C-4.337,-40.148 -3.669,-40.245 -3.024,-40.34C-2.73,-40.383 -2.438,-40.426 -2.145,-40.459C-1.475,-40.534 -0.805,-40.573 -0.155,-40.573C4.81,-40.573 9.139,-38.447 13.472,-33.884C17.546,-29.592 19.677,-23.641 19.317,-17.556C18.961,-11.5 16.166,-5.873 11.649,-2.118C8.541,0.467 4.691,1.62 -0.832,1.62L-0.963,1.62Z" style="fill:rgb(62,62,62);fill-rule:nonzero;"/>
    </g>
    <g transform="matrix(8.33333,0,0,8.33333,1241.28,410.168)">
        <path d="M0,7.868C-0.099,7.868 -0.211,7.854 -0.333,7.825C-0.779,7.721 -0.873,7.699 -0.618,6.596L-0.568,6.376C0.207,2.873 3.349,0.463 7.631,0.085C8.015,0.051 8.399,0.038 8.811,0.024L9.451,0C13.515,0.106 16.647,1.339 18.976,3.77C19.367,4.179 19.703,4.675 19.952,5.062C20.139,5.352 20.219,5.62 20.175,5.817C20.14,5.973 20.016,6.119 19.806,6.251C19.646,6.35 19.497,6.402 19.374,6.402C19.122,6.402 18.914,6.157 18.784,5.95C16.676,2.618 12.079,1.435 8.782,1.435C7.493,1.435 6.272,1.609 5.25,1.938C2.724,2.752 1.227,4.374 0.798,6.759C0.599,7.868 0.194,7.868 0,7.868" style="fill:rgb(62,62,62);fill-rule:nonzero;"/>
    </g>
    <g transform="matrix(8.33333,0,0,8.33333,1290.62,307.613)">
        <path d="M0,2.926C-0.279,2.926 -0.407,2.459 -0.438,2.183C-0.436,2.057 -0.434,1.921 -0.473,1.765L-0.51,1.619C-0.635,1.134 -0.791,0.53 -0.646,0.294C-0.575,0.178 -0.372,0.078 -0.073,0.011C-0.037,0.004 -0.003,0 0.03,0C0.395,0 0.914,0.667 1.011,2.141C0.991,2.163 0.972,2.186 0.951,2.21C0.745,2.452 0.432,2.819 0.167,2.898C0.104,2.917 0.049,2.926 0,2.926" style="fill:rgb(62,62,62);fill-rule:nonzero;"/>
    </g>
    <g transform="matrix(8.33333,0,0,8.33333,1349.1,303.099)">
        <path d="M0,2.812C-0.517,2.791 -0.695,2.683 -0.67,1.551C-0.677,1.235 -0.697,0.377 -0.446,0.12C-0.368,0.04 -0.218,-0.001 -0.001,-0.001C0.621,0.026 0.793,0.146 0.794,1.479C0.794,1.671 0.795,2.255 0.625,2.568C0.575,2.66 0.493,2.813 0.072,2.813L0,2.812Z" style="fill:rgb(62,62,62);fill-rule:nonzero;"/>
    </g>
    <g transform="matrix(8.33333,0,0,8.33333,780.275,340.042)">
        <path d="M0,-39.198C-2.328,-39.198 -4.828,-38.849 -7.435,-38.161C-11.804,-37.006 -14.873,-34.438 -16.818,-30.31C-18.738,-26.235 -19.336,-21.758 -18.699,-16.22C-17.538,-6.122 -10.194,0.151 0.468,0.152L0.787,0.15C3.668,0.06 7.127,-0.804 10.054,-2.161C15.775,-4.814 19.756,-9.494 20.976,-15.001C22.189,-20.481 20.572,-26.365 16.54,-31.147C12.033,-36.489 6.468,-39.198 0,-39.198M1.097,1.607C-10.951,1.607 -18.889,-5.013 -20.138,-16.104C-20.94,-23.22 -19.847,-28.746 -16.697,-33.496C-14.679,-36.54 -12.285,-38.36 -9.165,-39.221C-6.328,-40.004 -2.975,-40.805 0.379,-40.805C2.847,-40.805 5.08,-40.38 7.207,-39.505C16.549,-35.659 21.804,-29.099 22.827,-20.006C23.559,-13.505 20.882,-7.924 14.872,-3.419C10.751,-0.33 5.646,1.549 1.219,1.607L1.097,1.607Z" style="fill:rgb(62,62,62);fill-rule:nonzero;"/>
    </g>
    <g transform="matrix(8.33333,0,0,8.33333,708.692,281.958)">
        <path d="M0,-10.085L0.479,-9.077C0.611,-8.796 0.724,-8.539 0.827,-8.301C1.067,-7.752 1.273,-7.279 1.587,-6.842C1.878,-6.436 2.579,-5.748 3.361,-5.747C6.771,-5.769 10.149,-5.879 13.005,-5.985C13.393,-5.999 14.346,-6.098 14.838,-6.708C15.369,-7.367 15.82,-8.07 16.343,-8.885C16.558,-9.22 16.786,-9.577 17.039,-9.959L17.88,-11.229L0,-10.085ZM9.032,3.403C0.048,3.403 -6.584,-2.112 -7.096,-10.008C-7.149,-10.824 -7.05,-11.372 -6.801,-11.637C-6.571,-11.882 -6.108,-12.002 -5.386,-12.002C-5.207,-12.002 -5.017,-11.994 -4.815,-11.981C-2.823,-11.845 -0.848,-11.777 1.057,-11.777C2.398,-11.777 3.734,-11.811 5.027,-11.878C9.369,-12.104 13.772,-12.454 18.031,-12.792C19.467,-12.906 20.902,-13.02 22.339,-13.13C22.82,-13.167 23.3,-13.239 23.778,-13.312C24.2,-13.377 24.622,-13.442 25.046,-13.477C25.132,-13.484 25.215,-13.488 25.293,-13.488C25.634,-13.488 25.87,-13.421 25.994,-13.289C26.152,-13.121 26.225,-12.758 26.196,-12.265C25.922,-7.392 23.726,-3.436 19.669,-0.506C15.85,2.252 11.78,3.321 9.245,3.402L9.032,3.403Z" style="fill:rgb(62,62,62);fill-rule:nonzero;"/>
    </g>
    <g transform="matrix(8.33333,0,0,8.33333,803.817,74.7883)">
        <path d="M0,6.983C-0.277,6.747 -0.621,6.454 -0.668,6.27C-0.81,5.709 -0.776,5.062 -0.741,4.377C-0.726,4.057 -0.709,3.737 -0.71,3.422C-0.71,3.123 -0.725,2.821 -0.741,2.518C-0.774,1.872 -0.807,1.261 -0.672,0.737C-0.604,0.475 -0.169,0.02 0.025,-0.035C0.141,0.011 0.582,0.408 0.645,0.601C0.796,2.528 0.795,4.535 0.636,6.528C0.594,6.582 0.271,6.836 0.079,6.988C0.066,6.998 0.054,7.008 0.041,7.018C0.027,7.007 0.014,6.995 0,6.983" style="fill:rgb(62,62,62);fill-rule:nonzero;"/>
    </g>
    <g transform="matrix(8.33333,0,0,8.33333,732.862,74.7883)">
        <path d="M0,6.983C-0.276,6.747 -0.621,6.454 -0.667,6.27C-0.809,5.709 -0.776,5.062 -0.741,4.377C-0.725,4.057 -0.709,3.737 -0.709,3.422C-0.709,3.123 -0.725,2.821 -0.74,2.518C-0.773,1.872 -0.806,1.261 -0.671,0.737C-0.604,0.475 -0.168,0.02 0.026,-0.035C0.142,0.011 0.582,0.408 0.646,0.601C0.796,2.528 0.795,4.535 0.637,6.528C0.595,6.582 0.272,6.836 0.08,6.988C0.067,6.998 0.055,7.008 0.041,7.018C0.028,7.007 0.015,6.995 0,6.983" style="fill:rgb(62,62,62);fill-rule:nonzero;"/>
    </g>
</svg>
