<?xml version="1.0" encoding="UTF-8" standalone="no"?>
<!DOCTYPE svg PUBLIC "-//W3C//DTD SVG 1.1//EN" "http://www.w3.org/Graphics/SVG/1.1/DTD/svg11.dtd">
<svg width="100%" height="100%" viewBox="0 0 831 721" version="1.1" xmlns="http://www.w3.org/2000/svg" xmlns:xlink="http://www.w3.org/1999/xlink" xml:space="preserve" xmlns:serif="http://www.serif.com/" style="fill-rule:evenodd;clip-rule:evenodd;stroke-linejoin:round;stroke-miterlimit:2;">
    <g transform="matrix(8.33333,0,0,8.33333,298.115,704.667)">
        <path d="M0,-82.652L0.082,-82.506C0.202,-82.289 12.164,-60.8 17.189,-55.511C17.215,-55.445 18.241,-53.3 19.188,-53.3C19.274,-53.3 19.358,-53.317 19.437,-53.351C19.584,-53.414 19.827,-53.483 20.138,-53.572C21.862,-54.064 25.451,-55.089 26.703,-58.618C26.692,-58.715 25.602,-61.802 23.467,-63.536C21.104,-65.456 11.587,-73.968 10.809,-75.652C10.686,-75.92 10.597,-76.282 10.494,-76.702C9.947,-78.929 9.032,-82.656 0.549,-82.656L0,-82.652ZM-3.075,-82.268C-3.022,-82.117 -2.979,-81.991 -2.922,-81.871C-2.552,-81.088 -2.196,-80.298 -1.839,-79.508C-1.048,-77.754 -0.229,-75.941 0.729,-74.242C3.925,-68.569 7.873,-63.54 11.662,-58.951C11.897,-58.666 12.137,-58.385 12.375,-58.103C13.786,-56.437 15.245,-54.714 15.85,-52.439L15.876,-52.34L17.963,-52.933L17.875,-53.199C17.85,-53.287 17.832,-53.35 17.789,-53.405L16.567,-55.024C15.551,-56.374 14.501,-57.771 13.429,-59.113L12.955,-59.704C11.463,-61.565 9.92,-63.49 8.764,-65.649C7.632,-67.763 6.123,-69.891 4.015,-72.345C3.354,-73.115 2.902,-73.767 2.596,-74.398C1.833,-75.965 1.102,-77.548 0.371,-79.131C-0.07,-80.086 -0.511,-81.04 -0.959,-81.992C-1.08,-82.251 -1.312,-82.571 -1.563,-82.619C-1.763,-82.656 -1.967,-82.667 -2.177,-82.667C-2.315,-82.667 -2.457,-82.663 -2.603,-82.658C-2.754,-82.653 -2.909,-82.647 -3.068,-82.647L-3.213,-82.647L-3.075,-82.268ZM-5.169,-82.728C-5.287,-82.683 -5.466,-82.614 -5.618,-82.507C-6.058,-82.201 -6.507,-81.905 -6.956,-81.609C-7.999,-80.922 -9.076,-80.213 -10.012,-79.369C-15.98,-73.983 -21.891,-67.882 -28.075,-60.72C-29.07,-59.568 -30.049,-58.402 -31.047,-57.213L-32.533,-55.447L-32.08,-55.265C-31.894,-55.189 -31.746,-55.129 -31.595,-55.075C-27.242,-53.526 -22.569,-52.581 -17.309,-52.186C-13.828,-51.924 -10.909,-51.749 -7.974,-51.745L-7.115,-51.745C-2.181,-51.745 2.837,-51.807 7.688,-51.868L12.913,-51.93C13.216,-51.934 13.517,-51.973 13.875,-52.019C14.058,-52.043 14.622,-52.108 14.622,-52.108L14.554,-52.238C14.386,-52.559 14.233,-52.873 14.087,-53.178C13.771,-53.832 13.471,-54.45 13.074,-54.997C12.392,-55.936 11.623,-56.833 10.88,-57.701C10.621,-58.003 10.362,-58.305 10.107,-58.609C6.206,-63.254 1.766,-68.883 -1.595,-75.425C-2.424,-77.039 -3.174,-78.74 -3.899,-80.385C-4.241,-81.159 -4.584,-81.938 -4.939,-82.717L-4.981,-82.808L-5.169,-82.728ZM43.262,-26.66C43.099,-26.66 42.949,-26.644 42.808,-26.612C39.438,-25.851 36.376,-25.063 33.449,-24.201C31.734,-23.696 30.073,-23.099 28.314,-22.467C27.529,-22.185 26.733,-21.9 25.92,-21.618L25.699,-21.541L26.15,-21.305C26.238,-21.257 26.278,-21.235 26.329,-21.224L26.729,-21.133C27.18,-21.03 27.633,-20.927 28.087,-20.839L33.271,-19.851C36.668,-19.206 40.065,-18.56 43.458,-17.893C44.438,-17.7 45.396,-17.602 46.306,-17.602C48.234,-17.602 50.017,-18.023 51.754,-18.887C53.62,-19.815 55.559,-20.675 57.435,-21.506C58.29,-21.886 59.146,-22.265 59.998,-22.652C60.124,-22.709 60.247,-22.774 60.402,-22.856L60.937,-23.132L59.304,-23.468C58.379,-23.659 57.497,-23.84 56.614,-24.017L55.291,-24.283C51.945,-24.954 48.601,-25.625 45.254,-26.284C45.05,-26.324 44.841,-26.376 44.631,-26.429C44.176,-26.542 43.706,-26.66 43.262,-26.66M-12.616,-13.056L-12.459,-13.167C-12.404,-13.206 -6.951,-17.172 -8.813,-25.289C-10.659,-33.329 -10.021,-49.802 -10.013,-49.967L-10.009,-50.066L-12.885,-50.21L-12.616,-13.056ZM20.906,-52.417C20.421,-52.237 19.979,-52.073 19.528,-51.934C19.087,-51.799 18.915,-51.555 18.916,-51.063C18.919,-49.224 18.912,-47.385 18.905,-45.546C18.899,-43.962 18.895,-42.377 18.895,-40.793C18.896,-35.794 18.9,-30.795 18.907,-25.795L18.915,-12.511L19.08,-12.652C20.379,-13.763 21.343,-15.007 22.114,-16.569C22.275,-16.896 22.374,-17.303 22.382,-17.687C22.403,-18.72 22.38,-19.762 22.353,-20.827C22.337,-21.392 22.445,-21.78 23.033,-21.97C23.271,-22.046 23.491,-22.465 23.477,-22.71L23.437,-23.5C23.388,-24.578 23.336,-25.693 23.136,-26.765C22.244,-31.542 21.784,-36.455 21.731,-41.783C21.708,-44.077 21.713,-46.371 21.717,-48.665L21.721,-52.716L20.906,-52.417ZM-14.2,-50.434C-14.368,-50.434 -14.595,-50.402 -14.896,-50.351L-14.979,-50.337L-14.979,-12.036L-14.816,-12.166C-14.052,-12.777 -13.551,-13.25 -13.555,-14.234C-13.588,-23.251 -13.595,-32.268 -13.602,-41.285L-13.608,-49.395C-13.609,-50.058 -13.638,-50.434 -14.2,-50.434M0.649,-49.386C0.616,-48.912 0.584,-48.459 0.562,-48.005L0.305,-42.581C0.084,-37.98 -0.146,-33.223 -0.321,-28.542C-0.451,-25.092 -0.504,-21.582 -0.555,-18.188L-0.594,-15.599C-0.612,-14.505 -0.57,-13.614 -0.462,-12.795C-0.321,-11.742 0.033,-11.506 1.029,-11.333C1.245,-11.296 1.462,-11.271 1.68,-11.247C1.903,-11.222 2.126,-11.197 2.347,-11.157C4.252,-10.815 6.204,-10.648 8.313,-10.648C10.523,-10.648 12.898,-10.836 15.574,-11.221C16.499,-11.354 17.05,-11.859 17.21,-12.722C17.324,-13.336 17.429,-13.896 17.428,-14.451C17.426,-15.08 17.398,-15.709 17.37,-16.338C17.342,-16.953 17.315,-17.567 17.312,-18.182C17.283,-25.441 17.262,-32.699 17.239,-39.958L17.208,-50.081C17.207,-50.268 17.195,-50.455 17.183,-50.667L17.156,-51.123L15.988,-50.812C15.844,-50.773 15.699,-50.724 15.556,-50.674C15.254,-50.572 14.971,-50.475 14.681,-50.462C11.55,-50.326 8.673,-50.226 5.887,-50.157C5.259,-50.142 4.632,-50.137 3.997,-50.137L0.702,-50.15L0.649,-49.386ZM-33.027,-52.011C-33.102,-51.027 -33.172,-50.095 -33.217,-49.162L-33.434,-44.648C-33.714,-38.809 -34.005,-32.771 -34.244,-26.83C-34.368,-23.743 -34.416,-20.602 -34.463,-17.564L-34.505,-14.953C-34.521,-14.03 -34.482,-13.221 -34.387,-12.479C-34.239,-11.321 -33.858,-10.931 -32.755,-10.81C-32.256,-10.755 -31.758,-10.697 -31.259,-10.639C-29.4,-10.422 -27.479,-10.197 -25.583,-10.17L-25.301,-10.168C-23.927,-10.168 -22.53,-10.31 -21.18,-10.447C-20.476,-10.519 -19.771,-10.59 -19.066,-10.643C-17.203,-10.783 -16.597,-11.393 -16.469,-13.255C-16.439,-13.679 -16.442,-14.107 -16.456,-14.533C-16.47,-14.921 -16.491,-15.309 -16.512,-15.697C-16.546,-16.329 -16.58,-16.962 -16.58,-17.594C-16.591,-25.284 -16.593,-32.973 -16.596,-40.662L-16.598,-48.366L-16.604,-48.935C-16.607,-49.279 -16.612,-49.622 -16.602,-49.965C-16.589,-50.385 -16.772,-50.597 -17.179,-50.631C-17.543,-50.662 -17.907,-50.704 -18.271,-50.746C-18.524,-50.775 -18.777,-50.804 -19.031,-50.829C-23.205,-51.249 -27.013,-52.024 -30.669,-53.198C-31.108,-53.34 -31.575,-53.391 -32.07,-53.445C-32.308,-53.471 -32.554,-53.498 -32.808,-53.537L-32.914,-53.553L-33.027,-52.011ZM60.979,-21.427C60.837,-21.373 60.715,-21.326 60.596,-21.272L57.748,-19.985C55.904,-19.152 54.062,-18.318 52.215,-17.493C50.723,-16.826 49.246,-16.166 47.63,-16.074C47.517,-16.067 47.414,-16.023 47.305,-15.976C47.258,-15.955 47.074,-15.887 47.074,-15.887L47.089,-15.803C48.047,-10.422 48.408,-5.311 48.195,-0.179L48.188,-0.017L48.947,-0.355C49.362,-0.538 49.745,-0.707 50.122,-0.888C54.217,-2.842 57.247,-4.542 59.949,-6.401C61.35,-7.365 61.926,-8.58 61.816,-10.341C61.664,-12.786 61.583,-15.277 61.504,-17.686C61.47,-18.723 61.436,-19.761 61.396,-20.798C61.392,-20.926 61.379,-21.054 61.364,-21.2L61.331,-21.564L60.979,-21.427ZM23.835,-20.026C23.833,-19.897 23.833,-19.795 23.837,-19.694L23.989,-16.507C24.112,-13.86 24.241,-11.123 24.414,-8.434C24.508,-6.964 24.694,-5.477 24.874,-4.039L25.05,-2.597C25.209,-1.254 25.829,-0.68 27.192,-0.613L29.13,-0.521C30.571,-0.454 32.014,-0.387 33.454,-0.303C37.559,-0.063 41.664,0.186 45.767,0.46C45.827,0.463 45.883,0.466 45.936,0.466C46.492,0.466 46.705,0.225 46.721,-0.423C46.846,-5.756 46.495,-10.649 45.65,-15.383C45.536,-16.021 45.204,-16.188 44.706,-16.249C39.266,-16.924 33.675,-17.951 28.09,-19.303C27.163,-19.527 26.241,-19.766 25.296,-20.011L23.837,-20.387L23.835,-20.026ZM45.943,1.908C45.416,1.908 44.883,1.876 44.341,1.841C39.17,1.511 33.729,1.2 27.215,0.86C24.543,0.721 23.875,0.083 23.643,-2.554C23.37,-5.653 23.075,-8.75 22.781,-11.846L22.686,-12.851C22.667,-13.044 22.617,-13.234 22.563,-13.443C22.537,-13.543 22.44,-13.952 22.44,-13.952L22.312,-13.801C22.176,-13.644 22.049,-13.484 21.922,-13.326C21.649,-12.985 21.392,-12.664 21.087,-12.395C20.302,-11.704 19.465,-11.043 18.656,-10.404L18.203,-10.045C18.104,-9.967 17.946,-9.884 17.847,-9.884C17.515,-10.002 17.203,-10.057 16.864,-10.057C16.33,-10.057 15.811,-9.918 15.307,-9.783C14.966,-9.692 14.625,-9.601 14.283,-9.553C12.377,-9.287 10.453,-9.152 8.563,-9.152C7.066,-9.152 5.551,-9.237 4.06,-9.404L3.529,-9.462C2.553,-9.568 1.541,-9.678 0.571,-9.884C-1.306,-10.284 -1.899,-11.03 -1.867,-12.955L-1.793,-17.72C-1.693,-24.187 -1.592,-30.874 -1.417,-37.449C-1.343,-40.227 -1.16,-43.051 -0.983,-45.781C-0.901,-47.046 -0.82,-48.31 -0.749,-49.575C-0.743,-49.659 -0.745,-49.743 -0.746,-49.853L-0.747,-50.166L-2.401,-50.167L-3.749,-50.184C-5.391,-50.204 -7.033,-50.224 -8.675,-50.267L-8.695,-50.267C-8.959,-50.267 -9.171,-50.245 -9.309,-50.105C-9.419,-49.993 -9.469,-49.82 -9.465,-49.561C-9.443,-48.188 -9.433,-46.815 -9.421,-45.442C-9.401,-42.941 -9.381,-40.356 -9.295,-37.815C-9.167,-34.086 -8.712,-30.06 -7.902,-25.507C-7.212,-21.617 -7.693,-18.373 -9.376,-15.588C-10.543,-13.659 -12.21,-11.983 -14.624,-10.313C-14.726,-10.242 -14.826,-10.165 -14.927,-10.088C-15.15,-9.917 -15.36,-9.756 -15.599,-9.655C-15.801,-9.57 -16.051,-9.564 -16.294,-9.559C-16.294,-9.559 -16.583,-9.55 -16.6,-9.55C-16.7,-9.55 -16.76,-9.554 -16.818,-9.558C-16.893,-9.564 -16.966,-9.569 -17.038,-9.569C-17.122,-9.569 -17.194,-9.562 -17.26,-9.547C-19.893,-8.966 -22.576,-8.671 -25.239,-8.671C-26.626,-8.671 -28.037,-8.751 -29.433,-8.909C-30.646,-9.046 -31.859,-9.191 -33.07,-9.35C-33.333,-9.384 -33.584,-9.467 -33.885,-9.572C-35.258,-10.05 -35.768,-10.75 -35.768,-12.157L-35.771,-14.227C-35.776,-17.378 -35.783,-20.636 -35.703,-23.837C-35.552,-29.892 -35.346,-35.818 -35.092,-41.447C-34.977,-43.975 -34.797,-46.543 -34.623,-49.027C-34.521,-50.496 -34.417,-51.965 -34.326,-53.435C-34.315,-53.614 -34.368,-53.791 -34.421,-53.961C-34.464,-54.104 -34.505,-54.239 -34.509,-54.371C-34.518,-54.672 -34.528,-55.07 -34.375,-55.257L-33.769,-56.002C-31.951,-58.234 -30.072,-60.543 -28.152,-62.75C-22.458,-69.297 -16.896,-75.026 -11.147,-80.263C-8.996,-82.224 -6.993,-83.534 -4.847,-84.386C-4.633,-84.471 -4.41,-84.56 -4.208,-84.56C-3.996,-84.56 -3.82,-84.46 -3.653,-84.246C-3.546,-84.109 -3.32,-84.081 -3.014,-84.081L-2.644,-84.082C-0.016,-84.082 2.314,-83.807 4.479,-83.241C5.607,-82.946 6.729,-82.542 7.813,-82.151L8.383,-81.946C9.121,-81.683 9.696,-81.151 10.002,-80.45C12.145,-75.542 15.861,-71.907 19.804,-68.309C22.631,-65.73 24.95,-63.544 26.931,-60.858C28.17,-59.175 28.153,-58.31 26.851,-56.832C26.277,-56.181 25.62,-55.58 24.983,-54.999C24.581,-54.632 24.179,-54.265 23.792,-53.882C23.569,-53.66 23.308,-53.283 23.306,-52.949L23.297,-51.666C23.273,-48.104 23.249,-44.422 23.316,-40.8C23.364,-38.293 23.518,-35.67 23.774,-33.006C23.925,-31.444 24.162,-29.866 24.393,-28.34C24.513,-27.542 24.633,-26.745 24.742,-25.946C24.805,-25.487 24.846,-25.026 24.887,-24.564L24.954,-23.829C24.974,-23.644 25.065,-22.916 25.065,-22.916L25.08,-22.792L29.976,-24.534C34.388,-26.096 39.099,-27.368 43.976,-28.315C44.092,-28.337 44.201,-28.351 44.305,-28.351C44.597,-28.351 44.812,-28.241 45,-27.994C45.154,-27.791 45.453,-27.67 45.661,-27.628C49.999,-26.756 54.341,-25.893 58.681,-25.03L61.287,-24.512C61.481,-24.473 61.678,-24.438 61.873,-24.403C62.345,-24.319 62.833,-24.232 63.292,-24.09C63.549,-24.011 63.892,-23.744 63.934,-23.531C63.976,-23.32 63.768,-22.893 63.574,-22.794C62.938,-22.468 62.827,-22.002 62.854,-21.355C62.923,-19.664 62.982,-17.972 63.042,-16.28C63.124,-13.948 63.207,-11.615 63.313,-9.284C63.379,-7.864 62.91,-6.801 61.838,-5.938C59.347,-3.934 56.484,-2.44 53.716,-0.995L53.6,-0.934C53.047,-0.645 52.458,-0.394 51.891,-0.15C51.086,0.193 50.255,0.549 49.505,1.017C48.238,1.806 46.937,1.908 45.943,1.908" style="fill:rgb(37,37,37);fill-rule:nonzero;"/>
    </g>
</svg>
