<?xml version="1.0" encoding="UTF-8" standalone="no"?>
<!DOCTYPE svg PUBLIC "-//W3C//DTD SVG 1.1//EN" "http://www.w3.org/Graphics/SVG/1.1/DTD/svg11.dtd">
<svg width="100%" height="100%" viewBox="0 0 551 733" version="1.1" xmlns="http://www.w3.org/2000/svg" xmlns:xlink="http://www.w3.org/1999/xlink" xml:space="preserve" xmlns:serif="http://www.serif.com/" style="fill-rule:evenodd;clip-rule:evenodd;stroke-linejoin:round;stroke-miterlimit:2;">
    <g transform="matrix(8.33333,0,0,8.33333,8.83896,726.237)">
        <path d="M0,-9.417C8.521,-7.991 14.275,0.542 23.114,0.732C29.284,0.865 32.757,-3.703 35.661,-8.546C36.008,-9.124 34.559,-8.988 34.313,-8.577C33.688,-7.537 33.08,-6.484 32.371,-5.498C30.286,-2.598 29.897,-2.723 25.826,-1.578C21.757,-0.434 20.495,-0.293 16.942,-2.043C15.701,-2.654 14.537,-3.415 13.38,-4.167C9.367,-6.775 5.691,-9.401 0.887,-10.205C0.425,-10.282 -0.816,-9.554 0,-9.417" style="fill:rgb(37,37,37);fill-rule:nonzero;"/>
    </g>
    <g transform="matrix(8.33333,0,0,8.33333,2.08396,576.66)">
        <path d="M0,7.916C3.91,8.337 7.77,7.737 11.132,5.586C12.44,4.749 13.432,3.692 14.636,2.732C18.051,0.005 22.606,-1.378 26.82,0.021C30.983,1.405 33.787,4.791 35.171,8.839C35.326,9.294 36.766,8.878 36.62,8.451C34.653,2.7 29.713,-1.369 23.492,-1.349C14.522,-1.321 10.228,8.192 0.903,7.189C0.492,7.145 -0.785,7.832 0,7.916" style="fill:rgb(37,37,37);fill-rule:nonzero;"/>
    </g>
    <g transform="matrix(-0.34069,-8.32637,-8.32637,0.34069,174.695,552.783)">
        <path d="M-10.827,-10.265C-9.402,-3.696 -9.225,2.894 -10.291,9.529C-10.384,10.107 -10.991,10.84 -10.827,9.817C-9.808,3.472 -9.983,-2.776 -11.345,-9.055C-11.419,-9.396 -10.913,-10.662 -10.827,-10.265" style="fill:rgb(37,37,37);fill-rule:nonzero;"/>
    </g>
    <g transform="matrix(8.33333,0,0,8.33333,133.831,607.439)">
        <path d="M0,8.016C1.971,5.828 4.361,4.249 7.143,3.285C7.474,3.17 7.826,2.777 7.314,2.648C4.944,2.049 2.735,1.089 0.662,-0.204C0.294,-0.434 -1.05,0.12 -0.5,0.464C1.66,1.81 3.949,2.766 6.415,3.389C6.473,3.177 6.53,2.965 6.587,2.752C3.512,3.819 0.838,5.6 -1.341,8.018C-1.729,8.45 -0.294,8.342 0,8.016" style="fill:rgb(37,37,37);fill-rule:nonzero;"/>
    </g>
    <g transform="matrix(4.62286,6.93352,6.93352,-4.62286,179.964,649.851)">
        <path d="M4.159,-2.135C3.257,1.273 3.529,4.771 5.022,7.975C5.368,8.719 4.577,9.585 4.159,8.688C2.443,5.005 2.052,1.041 3.092,-2.895C3.328,-3.786 4.336,-2.804 4.159,-2.135" style="fill:rgb(37,37,37);fill-rule:nonzero;"/>
    </g>
    <g transform="matrix(3.44425,-7.58826,-7.58826,-3.44425,236.884,591.198)">
        <path d="M-4.244,-2.688C-4.207,0.178 -3.854,2.999 -3.175,5.785C-3.057,6.271 -4.128,7.252 -4.244,6.779C-4.939,3.921 -5.311,1.021 -5.349,-1.922C-5.355,-2.38 -4.252,-3.338 -4.244,-2.688" style="fill:rgb(37,37,37);fill-rule:nonzero;"/>
    </g>
    <g transform="matrix(8.33333,0,0,8.33333,303.923,512.225)">
        <path d="M0,-59.197C2.229,-44.947 -7.513,-32.277 -5.919,-18.074C-4.55,-5.88 5.834,-1.789 16.382,0.765C16.845,0.877 18.085,0.175 17.269,-0.023C11.253,-1.48 4.792,-3.081 0.301,-7.641C-4.014,-12.021 -4.983,-18.351 -4.512,-24.235C-3.543,-36.315 3.384,-47.212 1.449,-59.585C1.373,-60.074 -0.084,-59.736 0,-59.197" style="fill:rgb(37,37,37);fill-rule:nonzero;"/>
    </g>
    <g transform="matrix(8.33333,0,0,8.33333,308.741,509.561)">
        <path d="M0,-60.56C0.968,-54.896 3.415,-49.684 7.496,-45.586C11.8,-41.264 17.806,-39.338 21.831,-34.691C31.225,-23.848 28.601,-7.63 16.996,0.378C16.353,0.821 17.802,0.791 18.143,0.556C28.027,-6.266 32.065,-19.089 26.611,-30.071C23.714,-35.906 18.987,-38.912 13.707,-42.33C7.033,-46.649 2.789,-53.103 1.449,-60.948C1.375,-61.381 -0.082,-61.043 0,-60.56" style="fill:rgb(37,37,37);fill-rule:nonzero;"/>
    </g>
    <g transform="matrix(7.81057,-2.90507,-2.90507,-7.81057,494.882,409.559)">
        <path d="M-6.07,-1.1C-3.353,10.307 -2.852,21.897 -4.577,33.496C-4.637,33.904 -6.108,33.89 -6.07,33.638C-4.346,22.038 -4.846,10.448 -7.564,-0.96C-7.63,-1.241 -6.16,-1.481 -6.07,-1.1" style="fill:rgb(37,37,37);fill-rule:nonzero;"/>
    </g>
    <g transform="matrix(8.33333,0,0,8.33333,315.284,290.119)">
        <path d="M0,-6.761C5.002,-4.448 9.182,-1.009 12.437,3.433C12.695,3.786 13.858,3.41 13.836,2.964C13.61,-1.472 14.064,-5.782 15.194,-10.073C15.319,-10.547 13.872,-10.336 13.75,-9.874C12.604,-5.523 12.158,-1.138 12.387,3.353C12.854,3.196 13.32,3.04 13.786,2.884C10.489,-1.616 6.221,-5.09 1.161,-7.429C0.766,-7.612 -0.563,-7.021 0,-6.761" style="fill:rgb(37,37,37);fill-rule:nonzero;"/>
    </g>
    <g transform="matrix(-5.39277,6.35315,6.35315,5.39277,462.682,370.284)">
        <path d="M7.119,-16.027C5.257,-9.627 5.76,-2.958 8.472,3.119C8.748,3.738 7.44,4.426 7.119,3.705C4.318,-2.573 3.892,-9.461 5.811,-16.054C6.006,-16.726 7.379,-16.919 7.119,-16.027" style="fill:rgb(37,37,37);fill-rule:nonzero;"/>
    </g>
    <g transform="matrix(8.22368,1.3474,1.3474,-8.22368,440.48,394.803)">
        <path d="M1.207,-0.107C1.097,5.099 1.561,10.226 2.605,15.328C2.703,15.806 1.308,15.405 1.207,14.909C0.163,9.808 -0.301,4.681 -0.191,-0.526C-0.179,-1.082 1.218,-0.594 1.207,-0.107" style="fill:rgb(37,37,37);fill-rule:nonzero;"/>
    </g>
    <g transform="matrix(8.33333,0,0,8.33333,440.976,445.735)">
        <path d="M0,0.65C-0.031,2.556 -0.063,4.463 -0.095,6.369C0.37,6.244 0.836,6.119 1.302,5.994C-2.429,-0.141 -8.229,-4.395 -15.174,-6.184C-15.687,-6.317 -16.883,-5.553 -16.044,-5.336C-9.268,-3.59 -3.668,0.614 -0.037,6.584C0.195,6.967 1.353,6.658 1.359,6.21C1.392,4.304 1.423,2.398 1.455,0.491C1.466,-0.161 0.009,0.116 0,0.65" style="fill:rgb(37,37,37);fill-rule:nonzero;"/>
    </g>
    <g transform="matrix(7.58769,3.44549,3.44549,-7.58769,439.165,472.855)">
        <path d="M3.62,-0.783C4.056,5.203 4.491,11.19 4.927,17.177C4.984,17.959 3.662,17.323 3.62,16.727L2.313,-1.233C2.256,-2.015 3.578,-1.379 3.62,-0.783" style="fill:rgb(37,37,37);fill-rule:nonzero;"/>
    </g>
</svg>
