<?xml version="1.0" encoding="UTF-8" standalone="no"?>
<!DOCTYPE svg PUBLIC "-//W3C//DTD SVG 1.1//EN" "http://www.w3.org/Graphics/SVG/1.1/DTD/svg11.dtd">
<svg width="100%" height="100%" viewBox="0 0 898 897" version="1.1" xmlns="http://www.w3.org/2000/svg" xmlns:xlink="http://www.w3.org/1999/xlink" xml:space="preserve" xmlns:serif="http://www.serif.com/" style="fill-rule:evenodd;clip-rule:evenodd;stroke-linejoin:round;stroke-miterlimit:2;">
    <g>
        <g transform="matrix(8.33333,0,0,8.33333,407.501,344.933)">
            <path d="M0,-1.095C-0.801,-0.56 -1.602,-0.025 -2.426,0.526C-0.328,0.812 0.518,0.233 0,-1.095M1.803,8.154C2.816,8.75 3.645,9.236 4.472,9.722C4.558,9.662 4.644,9.601 4.729,9.541C4.458,8.875 4.187,8.209 3.908,7.527C3.19,7.74 2.598,7.917 1.803,8.154M57.769,21.838C57.587,21.404 57.519,20.848 57.205,20.556C55.168,18.657 52.678,17.515 50.029,16.861C47.808,16.311 45.493,16.137 43.219,15.798C43.197,15.939 43.175,16.081 43.153,16.223C48.292,17.21 53.318,18.477 57.769,21.838M-3.447,2.365C-2.648,4.621 0.155,5.872 2.349,4.901C1.796,3.583 1.242,2.264 0.732,1.048C-0.64,1.48 -1.997,1.908 -3.447,2.365M-5.031,-15.131C0.452,-17.415 1.18,-22.154 0.647,-27.026C-0.096,-23.338 -1.116,-20.164 -4.316,-16.997C-4.748,-16.571 -4.802,-15.762 -5.031,-15.131M-4.189,-0.451C-2.984,-0.914 -2.003,-1.218 -1.098,-1.673C-0.707,-1.868 -0.236,-2.36 -0.21,-2.744C-0.112,-4.197 -0.181,-5.661 -0.187,-7.06C-1.619,-6.974 -3.082,-6.887 -4.574,-6.798C-4.609,-6.577 -4.689,-6.356 -4.672,-6.142C-4.53,-4.354 -4.371,-2.567 -4.189,-0.451M-4.774,-8.594C-3.28,-9.186 -1.982,-9.635 -0.753,-10.227C-0.378,-10.408 0.016,-10.966 0.046,-11.377C0.201,-13.528 0.242,-15.686 0.307,-17.408C-1.038,-16.201 -2.565,-14.843 -4.075,-13.463C-4.384,-13.181 -4.837,-12.835 -4.855,-12.497C-4.92,-11.334 -4.822,-10.162 -4.774,-8.594M55.841,27.295C56.223,26.24 56.641,25.196 56.961,24.122C57.034,23.875 56.863,23.429 56.654,23.243C52.271,19.354 46.671,18.155 41.311,16.485C40.483,16.226 39.346,16.966 38.349,17.238C38.266,17.26 38.163,17.214 38.081,17.238C37.435,17.424 36.79,17.618 36.146,17.811C44.006,17.497 52.11,19.697 55.841,27.295M-4.759,-18.767C-4.682,-18.833 -4.537,-18.936 -4.414,-19.061C-2.274,-21.215 -1.097,-23.887 -0.293,-26.756C-0.083,-27.508 0.468,-28.508 0.182,-28.994C-0.89,-30.818 -2.243,-32.477 -3.491,-34.198C-4.016,-29.049 -5.293,-24.978 -6.659,-24.104C-6.012,-22.283 -5.389,-20.534 -4.759,-18.767M-8.587,-36.859C-6.666,-34.776 -6.915,-29.079 -8.921,-25.894C-8.506,-25.51 -8.087,-25.122 -7.603,-24.674C-6.19,-27.782 -4.764,-30.724 -4.699,-34.078C-4.69,-34.56 -4.813,-35.24 -5.138,-35.502C-7.395,-37.322 -10.014,-38.319 -12.865,-38.719C-13.052,-37.46 -13.166,-36.29 -13.412,-35.149C-13.624,-34.169 -14.154,-33.721 -15.077,-34.541C-14.668,-36.04 -14.271,-37.501 -13.842,-39.073C-14.866,-39.289 -15.663,-39.457 -16.356,-39.604C-16.286,-37.826 -16.224,-36.23 -16.173,-34.954C-14.174,-32.068 -12.282,-29.339 -10.304,-26.483C-7.819,-29.879 -8.445,-33.391 -8.587,-36.859M57.226,17.82C52.292,15.428 47.369,12.812 41.634,15.074C43.505,15.078 45.387,14.954 47.244,15.112C50.857,15.419 54.28,16.354 57.201,18.678C57.508,18.922 58.036,18.888 58.655,19.026C59.098,21.921 58.431,24.823 57.136,27.603C57,27.895 56.327,27.937 55.829,28.123C55.831,28.142 55.91,28.341 55.854,28.489C55.712,28.865 55.51,29.218 55.331,29.581C55.055,29.326 54.699,29.119 54.514,28.809C53.631,27.343 52.917,25.759 51.915,24.383C49.806,21.488 46.56,20.412 43.296,19.585C40.219,18.805 37.067,18.31 33.929,19.756C36.577,23.091 36.165,26.861 35.188,30.647C34.759,32.311 34.15,33.941 33.485,35.529C32.517,37.844 30.522,39.124 28.369,40.159C28.031,40.322 27.534,40.152 26.663,40.118C27.353,39.507 27.678,39.078 28.109,38.857C31.297,37.23 32.728,34.369 33.574,31.116C33.927,29.761 34.184,28.375 34.393,26.99C34.996,22.994 33.186,20.208 29.928,18.12C26.013,15.61 21.629,14.834 17.11,14.615C9.978,14.271 3.677,11.83 -1.738,7.201C-3.986,5.28 -5.403,2.801 -5.508,-0.228C-5.679,-5.202 -5.762,-10.179 -5.88,-15.156C-5.907,-16.314 -5.881,-17.476 -5.96,-18.632C-6.177,-21.763 -6.834,-22.926 -9.956,-25.844C-10.83,-24.866 -11.413,-25.525 -11.911,-26.295C-13.136,-28.19 -14.33,-30.106 -15.534,-32.014C-15.692,-32.265 -15.838,-32.525 -16.025,-32.843C-17.298,-31.136 -16.363,-29.388 -16.305,-27.706C-16.437,-27.668 -16.571,-27.629 -16.704,-27.591C-17.001,-28.267 -17.297,-28.944 -17.59,-29.612C-19.329,-28.633 -20.442,-30.754 -22.281,-30.27C-21.328,-32.221 -21.923,-33.417 -23.33,-34.417C-24.965,-35.578 -26.536,-36.829 -28.135,-38.041C-28.274,-37.961 -28.413,-37.881 -28.553,-37.801C-28.446,-36.844 -28.271,-35.887 -28.265,-34.93C-28.262,-34.514 -28.604,-34.097 -28.79,-33.68C-29.075,-33.999 -29.557,-34.287 -29.61,-34.641C-29.779,-35.752 -29.924,-36.899 -29.826,-38.01C-29.693,-39.508 -28.662,-39.928 -27.494,-39.022C-25.687,-37.621 -23.932,-36.154 -22.03,-34.614C-22.078,-35.801 -22.109,-36.908 -22.171,-38.013C-22.208,-38.667 -22.129,-39.305 -21.318,-39.182C-21.065,-39.144 -20.742,-38.459 -20.74,-38.069C-20.729,-35.815 -20.804,-33.561 -20.849,-31.325C-19.785,-31.069 -18.784,-30.826 -17.797,-30.588C-17.646,-31.257 -17.476,-31.986 -17.316,-32.717C-17.163,-33.421 -16.644,-34.185 -17.701,-34.692C-17.823,-34.75 -17.772,-35.256 -17.735,-35.546C-17.643,-36.259 -17.416,-36.967 -17.413,-37.678C-17.406,-39.903 -17.44,-39.889 -19.581,-40.51C-19.979,-40.624 -20.328,-40.9 -21.023,-41.276C-20.47,-41.348 -20.3,-41.417 -20.154,-41.383C-16.457,-40.507 -12.732,-39.728 -9.077,-38.704C-5.581,-37.726 -3.144,-35.22 -0.825,-32.547C1.57,-29.785 2.257,-26.746 1.942,-23.117C1.494,-17.94 1.727,-12.705 1.318,-7.523C1.08,-4.505 1.235,-1.631 2.352,1.136C3.146,3.105 4.229,4.954 5.157,6.87C5.492,7.559 5.925,8.266 6.009,9C6.247,11.104 7.773,11.966 9.444,12.275C12.729,12.884 16.065,13.259 19.395,13.585C24.265,14.063 28.861,15.208 32.641,18.529C33.378,19.176 33.922,18.991 34.485,18.436C36.853,16.103 39.78,14.657 42.76,13.348C45.47,12.157 48.232,12.897 50.888,13.667C52.787,14.218 54.615,15.051 56.421,15.879C57.063,16.173 57.815,16.695 57.226,17.82" style="fill:rgb(37,37,37);fill-rule:nonzero;"/>
        </g>
        <g transform="matrix(8.33333,0,0,8.33333,109.812,674.646)">
            <path d="M0,3.46C0.444,4.629 0.888,5.799 1.332,6.969C1.623,5.527 1.298,4.314 0,3.46M35.091,15.542C36.065,15.895 36.765,16.148 37.729,16.497C37.391,15.671 37.163,15.113 36.892,14.448C36.306,14.804 35.821,15.098 35.091,15.542M53.261,24.544C53.344,24.422 53.427,24.3 53.51,24.178C52.767,23.448 52.022,22.718 51.252,21.961C50.679,22.481 50.237,22.881 49.79,23.287C51.03,23.736 52.146,24.14 53.261,24.544M-7.537,4.156C-4.497,4.907 -2.882,7.852 0.289,7.997C-0.649,5.327 -1.597,2.784 -3.84,0.929C-5.051,1.986 -6.189,2.98 -7.537,4.156M50.03,-1.769C49.518,-3.548 49.206,-5.349 49.244,-7.186C49.358,-7.212 49.473,-7.239 49.588,-7.266C49.695,-7.016 49.847,-6.775 49.905,-6.514C50.598,-3.42 51.247,-0.317 51.969,2.77C52.698,5.892 53.582,8.981 54.215,12.121C54.438,13.224 54.304,14.488 54.001,15.587C53.474,17.499 52.688,19.34 51.99,21.264C52.636,21.763 53.405,22.466 54.285,22.975C54.566,23.137 55.274,22.925 55.565,22.649C59.096,19.303 61.008,15.14 61.624,10.348C61.945,7.852 61.931,5.39 61.181,2.946C60.962,2.235 61.086,1.421 61.269,0.659C64.354,10.106 62.673,18.356 55.213,25.075C55.277,25.544 55.348,26.054 55.419,26.564C54.934,26.521 54.398,26.594 53.971,26.414C51.884,25.533 49.823,24.591 47.76,23.654C47.456,23.516 47.19,23.29 46.788,23.025C50.222,22.083 51.031,19.254 52.253,16.617C53.642,13.615 52.631,10.974 51.547,8.214C50.918,9.054 50.399,10.069 49.6,10.755C46.415,13.481 43.149,16.11 39.889,18.745C39.688,18.908 39.206,18.938 38.974,18.811C37.198,17.845 35.452,16.824 33.461,15.686C35.128,14.006 36.67,12.643 37.988,11.089C41.395,7.075 43.122,2.535 42.238,-2.852C41.991,-4.361 41.567,-5.728 40.817,-7.016C40.42,-7.698 40.01,-8.25 39.008,-8.353C38.173,-8.44 37.433,-9.219 36.596,-9.553C31.882,-11.437 27.1,-12.207 22.166,-10.341C21.153,-9.958 20.058,-9.796 19.05,-9.404C18.502,-9.19 17.971,-8.783 17.584,-8.332C13.667,-3.761 9.823,0.872 5.864,5.405C4.574,6.882 3.027,8.139 1.551,9.442C1.306,9.659 0.772,9.747 0.453,9.644C-0.925,9.2 -2.328,8.776 -3.617,8.132C-5.343,7.271 -6.969,6.21 -8.641,5.24C-9.683,4.635 -9.673,3.736 -8.764,2.985C-7.33,1.801 -6.014,0.478 -4.593,-0.722C-3.988,-1.233 -3.203,-1.525 -2.572,-2.011C1.643,-5.26 4.817,-9.455 7.848,-13.748C9.752,-16.444 11.423,-19.305 13.207,-22.086C13.442,-22.453 13.73,-22.785 13.993,-23.134C14.128,-23.053 14.263,-22.973 14.397,-22.893C13.263,-20.873 12.184,-18.818 10.976,-16.843C9.726,-14.8 8.409,-12.791 7.013,-10.846C5.616,-8.899 4.178,-6.966 2.588,-5.178C1.002,-3.394 -0.795,-1.798 -2.709,0.088C-1.894,0.693 -1.108,1.395 -0.217,1.912C1.586,2.957 2.542,4.707 2.654,7.868C3.807,6.461 4.769,5.308 5.707,4.137C8.563,0.57 11.407,-3.006 14.262,-6.574C15.902,-8.624 17.549,-10.67 19.203,-12.71C19.627,-13.231 20.045,-13.865 21.032,-13.089C20.521,-12.241 20.001,-11.377 19.306,-10.223C20.662,-10.735 21.754,-11.185 22.87,-11.561C28.485,-13.45 33.86,-12.773 38.958,-9.879C39.869,-9.361 40.77,-8.563 41.292,-7.671C42.599,-5.437 44.732,-4.403 46.882,-3.331C47.934,-2.805 48.991,-2.291 50.043,-1.77C49.612,-0.698 48.945,-0.676 48.02,-1.205C46.344,-2.162 44.623,-3.041 42.81,-4.014C44.601,2.945 42.358,8.756 37.781,13.592C38.298,14.849 38.683,15.991 39.248,17.035C39.411,17.337 40.332,17.623 40.499,17.471C43.333,14.878 46.283,12.377 48.825,9.516C50.642,7.47 51.537,4.856 50.728,1.95C50.39,0.739 50.256,-0.527 50.03,-1.769" style="fill:rgb(37,37,37);fill-rule:nonzero;"/>
        </g>
    </g>
    <g transform="matrix(8.33333,0,0,8.33333,50.2417,237.362)">
        <path d="M0,51.647C1.207,49.013 1.12,47.027 -0.229,45.262C-0.766,44.562 -1.318,44.087 -2.222,44.889C-2.943,45.53 -3.808,46.011 -4.719,46.639C-3.322,48.357 -2.429,50.629 0,51.647M22.906,1.443C25.293,3.049 25.545,5.312 24.772,7.713C23.651,11.194 22.419,14.555 20.01,17.535C17.729,20.355 16.239,23.809 14.35,26.951C12.904,29.354 11.557,31.848 9.832,34.04C8.254,36.046 6.272,37.749 4.388,39.499C2.83,40.944 1.154,42.261 -0.242,43.443C0.587,44.996 1.513,46.412 2.115,47.954C2.665,49.362 2.417,50.768 1.151,51.87C0.869,52.116 0.84,52.651 0.693,53.056C-1.749,53.181 -3.206,51.662 -6.029,46.085C-4.328,44.751 -2.617,43.46 -0.966,42.099C1.727,39.881 4.42,37.662 7.026,35.346C7.925,34.548 8.646,33.512 9.309,32.495C12.396,27.751 15.586,23.065 18.437,18.182C20.418,14.791 21.98,11.145 23.567,7.54C23.994,6.572 24.062,5.301 23.878,4.242C23.527,2.226 21.975,1.75 20.192,2.787C17.539,4.332 14.862,5.849 12.118,7.225C11.031,7.77 9.738,7.902 8.539,8.223C8.497,8.062 8.455,7.901 8.413,7.74C9.93,7.095 11.485,6.527 12.95,5.782C14.4,5.045 15.785,4.17 17.152,3.284C19.505,1.759 21.809,0.159 24.169,-1.352C24.452,-1.534 24.963,-1.362 25.368,-1.354C25.261,-1 25.258,-0.539 25.026,-0.312C24.391,0.31 23.658,0.833 22.906,1.443" style="fill:rgb(37,37,37);fill-rule:nonzero;"/>
    </g>
    <g transform="matrix(8.33333,0,0,8.33333,86.1142,157.475)">
        <path d="M0,9.04C0.979,10.102 1.826,10.966 2.611,11.885C3.403,12.812 4.183,13.758 4.864,14.767C5.129,15.159 5.11,15.743 5.041,16.293C2.003,15 1.871,11.4 -0.656,9.819C-2.407,10.755 -2.513,10.919 -1.245,12.322C0.02,13.722 1.497,14.927 2.834,16.266C3.203,16.635 3.403,17.174 3.681,17.635C3.505,17.799 3.329,17.962 3.154,18.126C1.75,17.045 0.278,16.04 -1.031,14.855C-1.856,14.109 -2.5,13.133 -3.109,12.186C-3.753,11.188 -3.693,10.113 -2.661,9.421C0.452,7.334 1.824,4.134 2.826,0.771C3.895,-2.815 5.215,-6.173 8.397,-8.448C8.655,-8.632 8.908,-8.825 9.18,-8.986C9.282,-9.046 9.433,-9.025 9.925,-9.086C9.54,-8.604 9.371,-8.277 9.107,-8.076C6.652,-6.213 5.173,-3.729 4.432,-0.779C3.531,2.805 2.319,6.244 0,9.04" style="fill:rgb(37,37,37);fill-rule:nonzero;"/>
    </g>
    <g transform="matrix(8.33333,0,0,8.33333,169.138,148.524)">
        <path d="M0,4.618C0.48,3.497 0.847,2.635 1.219,1.776C1.719,0.622 2.541,-0.151 3.81,-0.373C4.883,-0.56 5.774,0.292 5.633,1.353C5.381,3.243 3.076,5.178 1.188,5.031C0.777,4.999 0.383,4.757 0,4.618" style="fill:rgb(37,37,37);fill-rule:nonzero;"/>
    </g>
</svg>
