<?xml version="1.0" encoding="UTF-8" standalone="no"?>
<!DOCTYPE svg PUBLIC "-//W3C//DTD SVG 1.1//EN" "http://www.w3.org/Graphics/SVG/1.1/DTD/svg11.dtd">
<svg width="100%" height="100%" viewBox="0 0 1628 749" version="1.1" xmlns="http://www.w3.org/2000/svg" xmlns:xlink="http://www.w3.org/1999/xlink" xml:space="preserve" xmlns:serif="http://www.serif.com/" style="fill-rule:evenodd;clip-rule:evenodd;stroke-linejoin:round;stroke-miterlimit:2;">
    <g transform="matrix(8.33333,0,0,8.33333,347.503,550.258)">
        <path d="M0,-14.747C0.566,-14.747 1.174,-14.682 1.817,-14.612C2.521,-14.537 3.235,-14.46 3.959,-14.46C5.474,-14.46 7.673,-14.763 9.276,-17.384C10.518,-19.414 10.877,-20.992 9.034,-23.046C8.925,-23.169 8.851,-23.482 8.791,-23.794C9.109,-23.831 9.396,-23.864 9.629,-23.864C9.676,-23.864 9.714,-23.862 9.744,-23.86C10.446,-22.947 11.008,-21.864 11.601,-20.721C11.83,-20.277 11.062,-18.83 11.307,-18.383L11.418,-17.729L13.219,-18.729C13.521,-18.729 14.099,-18.988 14.104,-18.991L39.241,-29.648C39.31,-29.677 39.391,-29.698 39.472,-29.721C39.902,-29.843 40.454,-30 40.722,-30.553C40.794,-30.702 40.873,-30.855 40.954,-31.011C41.418,-31.902 41.927,-32.881 41.757,-33.886C41.559,-35.059 40.104,-36.232 39.03,-36.421C36.722,-36.829 34.389,-36.949 32.212,-37.017C25.784,-37.219 18.498,-37.448 11.33,-37.516L10.931,-37.517C8.359,-37.517 6.168,-37.28 4.23,-36.792C-0.834,-35.518 -5.956,-34.126 -10.91,-32.779C-13.65,-32.033 -16.295,-31.314 -18.945,-30.609C-21.753,-29.861 -24.617,-29.132 -27.388,-28.427L-39.435,-26.031L-31.77,-24.964L-30.909,-24.964C-30.136,-24.964 -29.362,-24.97 -28.589,-24.975L-28.412,-24.976C-27.584,-24.983 -26.757,-24.989 -25.929,-24.989C-24.774,-24.989 -23.82,-24.977 -22.925,-24.951C-20.349,-24.877 -17.729,-24.77 -15.192,-24.667L-15.019,-24.66C-12.766,-24.568 -10.438,-24.473 -8.146,-24.401C-6.748,-24.357 -5.327,-24.335 -3.952,-24.314C-1.579,-24.278 0.857,-24.24 3.235,-24.088C3.376,-24.051 3.739,-23.676 3.967,-23.435C3.716,-23.226 3.368,-22.949 3.229,-22.935C-1.357,-22.982 -6.021,-23.149 -10.532,-23.31L-13.093,-23.401C-18.774,-23.599 -24.456,-23.805 -30.149,-24.012L-38.504,-24.315L-38.067,-16.229L-37.221,-16.179C-35.696,-16.09 -34.185,-15.994 -32.679,-15.898C-29.338,-15.686 -25.929,-15.469 -22.564,-15.335C-21.215,-15.282 -19.864,-15.224 -18.514,-15.166C-13.379,-14.948 -8.101,-14.724 -2.903,-14.724C-1.975,-14.724 -1.046,-14.731 -0.117,-14.746L0,-14.747ZM-31.696,-6.421L-30.883,-6.348C-30.782,-6.339 -30.676,-6.325 -30.562,-6.312C-30.204,-6.267 -29.836,-6.223 -29.454,-6.223C-26.587,-6.274 -23.808,-6.334 -21.028,-6.394C-15.327,-6.518 -9.433,-6.646 -3.607,-6.682L-2.973,-6.684C-0.471,-6.684 2.083,-6.596 4.552,-6.511C6.819,-6.433 9.119,-6.353 11.396,-6.337C12.239,-6.337 12.979,-6.732 13.629,-7.08C13.892,-7.22 14.133,-7.349 14.371,-7.449L15.382,-7.872L14.818,-8.812C14.627,-9.131 14.743,-9.648 14.565,-10.031C14.12,-10.992 13.333,-11.925 12.372,-12.453C11.884,-12.721 11.237,-13.076 11.006,-13.274C11.063,-13.347 11.205,-13.569 11.572,-14.017C13.706,-13.834 15.114,-12.609 16.117,-10.079L16.479,-9.166L17.379,-9.559C19.025,-10.276 20.667,-10.986 22.305,-11.693L22.445,-11.754C26.458,-13.488 30.607,-15.281 34.649,-17.116C37.159,-18.256 39.601,-19.611 41.962,-20.922L42.613,-21.283C43.498,-21.774 44.08,-22.493 44.293,-23.362C44.514,-24.261 44.316,-25.241 43.735,-26.122L43.604,-26.324C42.989,-27.27 42.148,-28.564 40.471,-28.564C39.979,-28.564 39.471,-28.451 38.917,-28.219C35.488,-26.78 31.987,-25.381 28.601,-24.029C25.037,-22.605 21.372,-21.141 17.791,-19.631C16.062,-18.902 14.437,-17.942 12.864,-17.014C12.209,-16.626 11.531,-16.226 10.858,-15.851L10.769,-15.837C10.492,-15.798 10.115,-15.745 9.772,-15.493C7.714,-13.976 5.295,-13.3 1.928,-13.3C1.335,-13.3 0.698,-13.32 -0.019,-13.361C-1.426,-13.441 -2.832,-13.528 -4.239,-13.615C-8.082,-13.851 -12.032,-14.094 -15.929,-14.204C-17.72,-14.254 -19.633,-14.278 -21.948,-14.278C-23.524,-14.278 -25.092,-14.267 -26.645,-14.256L-26.882,-14.255C-28.32,-14.245 -29.745,-14.235 -31.151,-14.235L-32.157,-14.235L-31.696,-6.421ZM-2.92,-5.664C-7.375,-5.632 -11.896,-5.45 -16.268,-5.275C-18.123,-5.2 -19.948,-5.127 -21.774,-5.063L-39.49,-4.437L-38.115,10.341L-37.314,10.401C-36.915,10.431 -36.485,10.472 -36.035,10.515C-34.949,10.618 -33.728,10.735 -32.491,10.739L-30.319,10.747C-27.265,10.758 -24.209,10.769 -21.153,10.769C-16.541,10.769 -12.72,10.744 -9.13,10.691L-7.566,10.67C-3.184,10.612 1.348,10.553 5.765,9.949C8.087,9.63 9.741,8.753 10.684,7.343C11.644,5.903 11.816,3.978 11.195,1.621C11.038,1.025 10.756,0.515 10.483,0.023C10.27,-0.361 10.075,-0.711 9.965,-1.05C9.912,-1.215 9.913,-1.47 9.931,-1.632C10.038,-1.662 10.188,-1.69 10.341,-1.69C10.479,-1.69 10.537,-1.667 10.537,-1.667C11.035,-1.356 11.519,-0.8 11.635,-0.389C12.067,1.137 12.386,2.682 12.722,4.318C12.856,4.97 12.972,5.53 13.093,6.094L13.092,6.163L13.194,7.025L14.045,7.028C14.247,7.028 14.604,6.959 14.912,6.807C16.837,5.864 18.766,4.929 20.695,3.993L20.948,3.87C25.979,1.431 31.183,-1.091 36.25,-3.724C38.884,-5.093 40.479,-7.1 40.742,-9.376C41.018,-11.774 39.81,-14.262 37.338,-16.381L36.872,-16.78L36.317,-16.52C34.481,-15.663 32.551,-14.877 30.685,-14.116C25.997,-12.205 21.162,-10.235 16.995,-6.878C15.422,-5.611 13.652,-4.995 11.586,-4.995C11.198,-4.995 10.793,-5.017 10.384,-5.06C6.563,-5.464 2.438,-5.668 -1.882,-5.668L-2.92,-5.664ZM9.565,10.969C13.565,11.969 10.565,20.969 10.565,20.969L13.682,20.157C15.848,19.124 18.027,18.094 20.215,17.061C25.459,14.585 30.838,12.045 36.094,9.41C38.219,8.344 39.595,6.502 39.868,4.354C40.163,2.04 39.183,-0.29 37.181,-2.038L36.706,-2.453C36.847,-2.874 9.565,10.969 9.565,10.969M5.702,23.784C5.255,23.784 4.718,23.591 4.147,23.386C3.572,23.179 2.977,22.964 2.345,22.898C1.732,22.835 1.105,22.733 0.5,22.635C-0.525,22.469 -1.563,22.301 -2.621,22.276C-12.371,22.046 -21.329,21.888 -30.007,21.791L-30.168,21.791C-31.243,21.791 -32.305,21.906 -33.332,22.017C-34.171,22.107 -35.028,22.2 -35.854,22.225L-35.967,22.227C-36.557,22.227 -36.97,22.1 -37.133,22.021C-37.129,21.787 -37.019,21.269 -36.803,20.959C-34.862,18.179 -35.753,15.435 -36.54,13.014L-36.941,11.758L-37.533,11.674C-39.866,11.349 -40.048,11.093 -39.964,8.244C-39.857,4.665 -40.423,1.054 -40.969,-2.438L-41.014,-2.728C-41.211,-3.989 -41.19,-4.738 -40.949,-5.019C-40.728,-5.279 -40.073,-5.411 -39.003,-5.411C-38.475,-5.411 -38.058,-5.46 -37.653,-5.508C-37.292,-5.551 -36.953,-5.592 -36.619,-5.592L-36.354,-5.588C-34.454,-5.588 -33.312,-6.672 -32.953,-8.808C-32.69,-10.369 -33.125,-11.956 -34.146,-13.163C-35.142,-14.341 -36.59,-15.017 -38.117,-15.017L-38.64,-15.009C-40.025,-15.009 -40.23,-15.247 -40.238,-15.257C-40.258,-15.284 -40.415,-15.581 -39.828,-17.184C-38.793,-20.01 -39.211,-22.517 -41.068,-24.637C-41.616,-25.264 -41.747,-25.698 -41.687,-25.895C-41.623,-26.1 -41.256,-26.395 -40.416,-26.61C-36.561,-27.597 -32.706,-28.59 -28.851,-29.583L-27.882,-29.833C-17.509,-32.508 -6.783,-35.274 3.861,-37.878C6.326,-38.481 8.958,-38.531 11.662,-38.531L12.938,-38.53C18.799,-38.523 24.877,-38.394 31.521,-38.133C34.13,-38.031 36.91,-37.748 40.534,-37.218C41.133,-37.13 41.719,-36.716 42.188,-36.051C42.972,-34.937 43.284,-33.383 43.004,-31.997C42.93,-31.628 42.786,-31.25 42.634,-30.849C42.544,-30.611 42.475,-30.426 42.412,-30.242L42.228,-29.699L42.622,-29.283C44.941,-26.838 45.864,-25.211 45.709,-23.843C45.527,-22.236 43.752,-20.422 39.771,-17.775L38.981,-17.249L39.508,-16.459C42.933,-11.322 42.884,-7.443 39.348,-3.88L38.938,-3.467L39.12,-2.914C39.329,-2.278 39.56,-1.656 39.784,-1.055C40.288,0.294 40.743,1.512 40.934,2.736C41.563,6.763 40.179,9.219 36.306,10.948C27.724,14.78 19.31,18.529 10.73,22.272C10.338,22.443 9.776,22.449 9.183,22.455L9.136,22.455L9.219,22.032C9.326,21.482 9.459,20.921 9.601,20.33C9.984,18.723 10.363,17.137 10.391,15.476C10.408,14.366 9.99,13.321 9.214,12.532C8.413,11.718 7.331,11.269 6.167,11.269C-0.938,11.34 -8.091,11.493 -15.008,11.642C-18.508,11.717 -22.008,11.792 -25.508,11.857C-26.562,11.877 -27.619,11.883 -28.666,11.883C-29.569,11.883 -34.913,11.865 -34.913,11.865L-34.366,20.489L-33.512,20.524C-29.39,20.696 -25.19,20.722 -21.129,20.747C-11.899,20.805 -2.395,20.863 7.135,22.599L7,22.802C6.419,23.784 5.935,23.784 5.702,23.784" style="fill:rgb(37,37,37);fill-rule:nonzero;"/>
    </g>
    <g transform="matrix(8.33333,0,0,8.33333,1372.96,77.2083)">
        <path d="M0,48.098L0.631,46.311C2.085,42.193 4.944,39.209 9.9,36.636C11.994,35.549 14.325,34.919 16.581,34.309L17.391,34.09C18.301,33.841 18.485,33.554 18.33,32.63L17.732,29.092C16.783,23.469 15.802,17.66 14.863,11.941C14.495,9.694 14.167,7.473 13.814,5.078L13.782,4.863C13.634,3.852 13.482,2.828 13.325,1.784L13.231,1.161L19.334,-0.163L24.633,39.488L24.049,39.632C22.812,39.937 21.571,40.228 20.331,40.518C13.989,42.004 7.431,43.54 1.614,47.107L0,48.098ZM-1.174,46.793L-2.108,48.503C-2.108,48.503 -2.713,44.844 -2.858,43.975C-3.174,42.099 -3.499,40.161 -3.791,38.247C-4.865,31.225 -5.937,24.105 -7.07,16.479C-7.165,15.844 -7.299,15.48 -7.439,15.48C-7.499,15.48 -7.586,15.499 -7.659,15.524C-7.787,15.591 -8.159,16.304 -8.104,16.672C-7.239,22.556 -6.312,28.534 -5.414,34.314L-5.329,34.86C-4.901,37.62 -4.473,40.379 -4.05,43.14C-3.886,44.21 -3.78,45.269 -3.667,46.401C-3.615,46.922 -3.563,47.452 -3.503,47.995L-3.417,48.764L-4.191,48.74C-5.647,48.693 -7.071,48.669 -8.422,48.669C-16.224,48.669 -22.766,49.439 -29.009,51.093L-29.698,51.275L-29.839,50.576C-29.891,50.317 -29.953,50.042 -30.021,49.744C-30.176,49.059 -30.353,48.283 -30.442,47.491C-31.15,41.216 -31.855,34.835 -32.537,28.664L-33.569,19.337C-33.622,18.855 -33.743,17.721 -33.743,17.721C-33.934,15.923 -34.132,14.063 -34.428,12.261C-34.637,10.995 -34.142,10.228 -32.915,9.914C-29.999,9.17 -27.151,8.793 -24.45,8.793C-21.983,8.793 -19.554,9.107 -17.227,9.725C-15.204,10.264 -13.216,10.994 -11.293,11.702L-10.736,11.907C-10.313,12.061 -9.992,12.328 -9.683,12.585C-9.492,12.743 -9.313,12.891 -9.137,12.988C-9.045,13.037 -8.946,13.094 -8.833,13.159C-8.611,13.286 -8.165,13.542 -7.961,13.59C-7.683,13.394 -7.378,12.863 -7.251,12.346C-7.091,11.691 -7.001,11.021 -6.904,10.299C-6.804,9.543 -6.698,8.761 -6.499,7.995C-5.191,2.962 -1.992,-1.08 3.28,-4.36C3.758,-4.658 4.231,-4.96 4.719,-5.272C5.69,-5.891 6.694,-6.532 7.717,-7.116C8.201,-7.393 8.729,-7.544 9.298,-7.707C9.554,-7.779 9.825,-7.857 10.114,-7.954L10.866,-8.204L17.176,31.916L16.759,32.142C15.633,32.755 14.521,33.344 13.364,33.955C10.861,35.281 8.496,36.533 6.191,37.931C2.715,40.038 0.646,43.465 -1.174,46.793M-7.267,51.1L-7.267,51.104L-13.297,52.336C-19.094,53.518 -25.088,54.74 -31.062,55.996C-31.312,56.049 -31.529,56.074 -31.724,56.074C-33.114,56.074 -33.232,54.775 -33.271,54.348C-33.637,50.34 -34.048,46.013 -34.53,41.117C-34.848,37.896 -35.169,34.676 -35.49,31.456C-35.948,26.868 -36.405,22.279 -36.852,17.688C-36.935,16.833 -36.961,15.973 -36.988,15.078C-36.999,14.716 -37.011,14.353 -37.026,13.992L-37.055,13.36L-35.3,13.177L-35.207,13.815C-35.143,14.259 -35.074,14.702 -35.001,15.174C-34.854,16.12 -34.702,17.098 -34.596,18.072C-33.303,29.904 -32.043,41.593 -31.091,50.454C-31.047,50.86 -31.032,51.266 -31.018,51.668C-31.004,52.05 -30.991,52.411 -30.952,52.77C-30.914,53.112 -30.804,53.367 -30.729,53.367C-30.699,53.367 -30.581,53.356 -30.358,53.22C-26.396,50.787 -21.989,50.442 -17.718,50.108C-16.797,50.036 -15.845,49.962 -14.917,49.867C-13.276,49.699 -11.611,49.65 -10,49.602C-9.267,49.581 -8.533,49.559 -7.801,49.527L-7.456,49.512C-7.456,49.512 -3.489,49.144 -2.489,50.144C-2.489,50.144 -6.858,51.018 -7.267,51.1M30.38,42.304C29.695,38.848 28.912,34.766 28.299,30.7C27.936,28.292 27.612,25.848 27.301,23.484C26.415,16.784 25.499,9.855 23.601,3.23C23.178,1.757 22.79,1.093 21.62,1.083L22.204,2.799C24.824,10.493 25.801,18.568 26.745,26.379C27.384,31.67 28.046,37.142 29.214,42.397L29.359,43.052L4.989,48.489C4.467,48.834 -0.489,50.144 0.511,49.144C1.511,48.144 4.08,46.745 4.08,46.745L4.095,46.746C6.859,45.121 10.004,44.17 12.804,43.456C16.418,42.535 19.675,41.754 22.762,41.071C22.975,41.024 23.203,41.001 23.46,41.001C23.729,41.001 23.997,41.026 24.259,41.051C24.496,41.074 24.721,41.096 24.936,41.096C25.013,41.096 25.091,41.093 25.167,41.085C25.726,41.032 26.2,40.881 26.429,40.689C26.493,40.626 26.603,40.272 26.607,40.202C25.298,38.269 25.079,36.121 24.868,34.043C24.809,33.458 24.747,32.853 24.661,32.274C23.616,25.236 22.657,18.068 21.729,11.135C21.729,11.135 21.125,6.62 20.824,4.398C20.764,3.955 20.79,3.489 20.91,2.884L21.267,1.098C21.263,1.098 20.486,1.17 20.486,1.17L20.524,0.398C20.549,-0.125 20.469,-0.501 20.291,-0.687C20.147,-0.837 19.899,-0.91 19.531,-0.91C19.343,-0.91 19.126,-0.89 18.886,-0.85C18.509,-0.787 18.131,-0.754 17.763,-0.721C17.389,-0.688 17.036,-0.656 16.657,-0.59C15.696,-0.422 15.003,-0.301 14.468,-0.301C12.726,-0.301 12.584,-1.553 12.328,-3.827L12.31,-3.991C12.207,-4.896 11.973,-5.807 11.72,-6.788C11.6,-7.253 11.478,-7.729 11.365,-8.221L11.337,-8.421L11.372,-8.55C11.389,-8.609 11.429,-8.712 11.482,-8.835C11.508,-8.896 11.554,-9.001 11.59,-9.099C11.412,-9.196 11.163,-9.265 10.924,-9.265L10.91,-9.265C10.507,-9.222 10.075,-9.027 9.604,-8.815C9.464,-8.752 9.324,-8.69 9.186,-8.631C5.735,-7.175 2.767,-4.986 -0.48,-2.485C-3.955,0.194 -6.204,3.514 -7.354,7.664L-8.398,11.407C-8.398,11.407 -10.53,10.719 -11.243,10.487C-12.772,9.99 -14.217,9.52 -15.681,9.071C-18.532,8.197 -21.514,7.754 -24.544,7.754C-27.533,7.754 -30.573,8.163 -33.838,9.004C-35.004,9.305 -35.631,10.169 -36.294,11.086C-36.782,11.76 -37.286,12.457 -38.023,12.976C-38.024,13.024 -38.024,13.087 -38.021,13.168C-38.005,13.597 -37.994,14.026 -37.983,14.456C-37.954,15.59 -37.923,16.761 -37.808,17.892C-37.655,19.369 -37.468,20.871 -37.28,22.367C-37.061,24.121 -36.834,25.935 -36.668,27.729C-36.17,33.112 -35.688,38.587 -35.221,43.883L-35.213,43.975C-34.861,47.967 -34.51,51.96 -34.148,55.952C-34.063,56.901 -33.628,57.363 -32.82,57.363C-32.641,57.363 -32.443,57.34 -32.233,57.295C-30.771,56.98 -29.31,56.651 -27.849,56.321C-24.703,55.611 -21.45,54.878 -18.216,54.308C-16.84,54.066 -15.44,53.779 -14.067,53.498C-10.338,52.735 -6.48,51.946 -2.55,51.946C-1.915,51.946 -1.294,51.966 -0.657,52.008C-0.428,52.008 -0.059,51.819 0.239,51.666L0.499,51.535C0.732,51.421 0.961,51.277 1.204,51.123C1.594,50.877 1.997,50.623 2.468,50.462C10.42,47.75 19.053,45.834 28.86,44.604C29.677,44.502 30.165,44.325 30.354,44.063C30.555,43.786 30.562,43.227 30.38,42.304" style="fill:rgb(37,37,37);fill-rule:nonzero;"/>
    </g>
</svg>
