<?xml version="1.0" encoding="UTF-8" standalone="no"?>
<!DOCTYPE svg PUBLIC "-//W3C//DTD SVG 1.1//EN" "http://www.w3.org/Graphics/SVG/1.1/DTD/svg11.dtd">
<svg width="100%" height="100%" viewBox="0 0 1220 498" version="1.1" xmlns="http://www.w3.org/2000/svg" xmlns:xlink="http://www.w3.org/1999/xlink" xml:space="preserve" xmlns:serif="http://www.serif.com/" style="fill-rule:evenodd;clip-rule:evenodd;stroke-linejoin:round;stroke-miterlimit:2;">
    <g transform="matrix(8.33333,0,0,8.33333,1047.8,360.5)">
        <path d="M0,-41.135C-0.901,-41.135 -1.831,-41.018 -2.765,-40.788C-3.709,-40.555 -4.722,-40.537 -5.794,-40.518C-6.54,-40.505 -7.312,-40.491 -8.076,-40.4C-14.743,-39.607 -19.39,-37.319 -22.698,-33.198C-29.577,-24.634 -29.006,-13.098 -21.371,-6.365C-16.42,-2 -10.358,0.425 -3.843,0.648C3.89,0.62 9.919,-2.284 14.621,-8.231C17.957,-12.449 19.453,-17.036 19.07,-21.864C18.654,-27.104 16.088,-31.645 11.441,-35.362L10.577,-36.06C7.498,-38.555 4.312,-41.135 0,-41.135M-2.45,2.125C-9.584,1.959 -15.311,0.158 -20.475,-3.541C-29.03,-9.67 -31.497,-20.264 -26.613,-29.903C-23.648,-35.754 -19.181,-39.373 -12.955,-40.966C-11.526,-41.332 -10.106,-41.732 -8.687,-42.132C-8.038,-42.314 -7.389,-42.497 -6.739,-42.677C-5.34,-43.063 -3.908,-43.26 -2.485,-43.26C-0.292,-43.26 1.966,-42.793 4.228,-41.874C9.344,-39.792 13.647,-36.375 17.019,-31.716C21.961,-24.885 21.781,-15.695 16.558,-8.302C11.827,-1.606 5.254,2 -2.45,2.125" style="fill:rgb(62,62,62);fill-rule:nonzero;"/>
    </g>
    <g transform="matrix(8.33333,0,0,8.33333,1046.57,206.278)">
        <path d="M0,3.593L0.76,4.854C1.778,6.564 2.831,8.332 5.274,8.332L5.43,8.33C7.779,8.257 9.533,7.171 10.501,5.189C11.502,3.141 10.413,1.57 9.539,0.306L8.818,-0.756L5.908,1.093L5.942,1.57C5.987,2.185 6.275,2.746 6.53,3.241C6.715,3.598 6.967,4.087 6.903,4.269C6.873,4.354 6.716,4.502 6.363,4.659C6.126,4.765 5.976,4.787 5.891,4.787C5.624,4.787 5.418,4.478 5.029,3.737C4.802,3.307 4.568,2.862 4.23,2.482L3.858,2.062L0,3.593ZM5.403,9.958C3.172,9.958 1.409,8.86 0.308,6.782C-0.521,5.22 -1.538,4.554 -3.091,4.554C-3.398,4.554 -3.729,4.579 -4.105,4.631C-5.987,4.89 -7.882,4.923 -9.321,4.923C-10.152,4.923 -10.983,4.91 -11.814,4.898C-12.403,4.889 -12.993,4.88 -13.582,4.875C-14.038,4.872 -14.409,4.761 -14.549,4.587C-14.67,4.436 -14.644,4.165 -14.6,3.964C-14.493,3.471 -14.312,3.329 -13.792,3.329C-13.607,3.329 -13.386,3.351 -13.116,3.398C-11.746,3.635 -10.366,3.755 -9.012,3.755C-3.264,3.755 2.318,1.679 8.556,-2.78C9.159,-3.211 9.517,-3.871 9.832,-4.453C10.038,-4.833 10.232,-5.191 10.466,-5.45C10.997,-6.041 11.546,-6.362 11.791,-6.364C12,-6.365 12.045,-6.303 12.062,-6.28C12.147,-6.161 12.179,-5.863 12.068,-5.526C11.797,-4.693 11.443,-3.891 11.034,-2.963C10.849,-2.542 10.655,-2.104 10.46,-1.639L10.271,-1.19L10.583,-0.816C12.276,1.213 12.804,3.464 12.067,5.523C11.298,7.671 9.239,9.357 6.821,9.818C6.336,9.911 5.858,9.958 5.403,9.958" style="fill:rgb(62,62,62);fill-rule:nonzero;"/>
    </g>
    <g transform="matrix(8.33333,0,0,8.33333,1047.44,97.0758)">
        <path d="M0,4.438C-0.261,4.435 -0.442,4.381 -0.541,4.277C-0.688,4.123 -0.762,3.771 -0.746,3.286C-0.742,3.138 -0.742,2.991 -0.744,2.737L-0.745,2.214C-0.732,2.112 -0.724,1.986 -0.714,1.844C-0.692,1.486 -0.662,0.996 -0.482,0.7C-0.316,0.43 0.135,0.1 0.375,0C0.594,0.174 0.92,0.663 1.033,1.17C1.095,1.441 1.022,1.821 0.946,2.222C0.88,2.57 0.812,2.93 0.806,3.313C0.786,4.438 0.417,4.438 0.025,4.438L0,4.438Z" style="fill:rgb(62,62,62);fill-rule:nonzero;"/>
    </g>
    <g transform="matrix(8.33333,0,0,8.33333,966.078,100.547)">
        <path d="M0,4.316C-0.147,4.266 -0.592,3.848 -0.728,3.609C-0.648,2.968 -0.839,2.332 -1.007,1.767C-1.361,0.578 -1.368,0.31 -0.566,-0.001C-0.336,0.053 0.18,0.397 0.326,0.639C0.521,0.962 0.581,1.462 0.644,1.991C0.674,2.242 0.704,2.493 0.747,2.735C0.748,3.323 0.742,3.984 0.531,4.195C0.431,4.296 0.215,4.317 0.053,4.317L0,4.316Z" style="fill:rgb(62,62,62);fill-rule:nonzero;"/>
    </g>
    <g transform="matrix(8.33333,0,0,8.33333,332.76,483.271)">
        <path d="M0,-40.93C-0.562,-40.93 -1.122,-40.918 -1.679,-40.9C-2.462,-40.875 -3.144,-40.53 -3.803,-40.197C-4.245,-39.974 -4.663,-39.763 -5.058,-39.679C-9.005,-38.838 -11.966,-37.087 -14.107,-34.325C-18.254,-28.974 -19.979,-22.538 -19.232,-15.196C-18.688,-9.841 -16.001,-5.724 -11.247,-2.957C-7.571,-0.818 -3.572,0.267 0.639,0.267L0.64,0.267C1.566,0.267 2.519,0.214 3.47,0.11C9.634,-0.566 14.236,-3.687 17.148,-9.166C19.191,-13.012 20.227,-17.146 20.222,-21.456C20.304,-31.32 14.844,-38.237 5.242,-40.427C3.738,-40.77 2.073,-40.93 0,-40.93M0.471,1.675C-3.476,1.675 -7.359,0.738 -11.071,-1.11C-16.363,-3.745 -19.519,-7.941 -20.45,-13.582C-21.884,-22.263 -20.107,-29.567 -15.169,-35.292C-11.22,-39.871 -5.232,-42.605 0.847,-42.605C4.441,-42.605 7.932,-41.691 11.221,-39.889C18.354,-35.98 21.583,-30.078 21.688,-20.753C21.676,-15.633 20.232,-10.791 17.515,-6.758C14.44,-2.198 9.999,0.543 4.315,1.388C3.03,1.579 1.737,1.675 0.471,1.675" style="fill:rgb(62,62,62);fill-rule:nonzero;"/>
    </g>
    <g transform="matrix(8.33333,0,0,8.33333,320.049,429.158)">
        <path d="M0,-14.015C-2.696,-14.015 -4.963,-12.121 -5.641,-9.302C-5.748,-8.855 -5.794,-8.414 -5.847,-7.903C-5.872,-7.653 -5.9,-7.382 -5.939,-7.078L-5.96,-6.919L-5.917,-6.765C-5.852,-6.527 -5.791,-6.263 -5.727,-5.985C-5.56,-5.268 -5.371,-4.455 -5.034,-3.67C-3.994,-1.242 -2.233,0.096 -0.075,0.096C0.94,0.096 2.021,-0.199 3.136,-0.78C5.287,-1.902 6.662,-3.823 6.908,-6.049C7.167,-8.395 6.158,-10.717 4.142,-12.419C2.904,-13.463 1.472,-14.015 0,-14.015M-0.186,1.624C-2.642,1.624 -4.843,0.161 -5.931,-2.194C-6.462,-3.344 -6.789,-4.586 -7.137,-5.901C-7.229,-6.251 -7.321,-6.601 -7.418,-6.95L-7.396,-6.958L-7.287,-7.497C-7.27,-7.703 -7.259,-7.91 -7.247,-8.116C-7.228,-8.521 -7.208,-8.903 -7.131,-9.248C-6.535,-11.939 -5.801,-14.415 -3.405,-15.149C-2.343,-15.474 -1.293,-15.639 -0.286,-15.639C2.565,-15.639 5.042,-14.317 6.687,-11.917C8.604,-9.121 8.971,-5.949 7.692,-3.214C6.416,-0.481 3.75,1.273 0.38,1.597C0.191,1.615 0.003,1.624 -0.186,1.624" style="fill:rgb(62,62,62);fill-rule:nonzero;"/>
    </g>
    <g transform="matrix(8.33333,0,0,8.33333,356.507,180.007)">
        <path d="M0,7.189C-0.38,7.189 -0.509,6.455 -0.538,6.23C-0.622,5.609 -0.722,4.989 -0.821,4.37C-1.014,3.179 -1.212,1.947 -1.279,0.749C-1.266,0.619 -0.987,0.256 -0.82,0.039C-0.811,0.026 -0.8,0.013 -0.791,0C-0.754,0.017 -0.716,0.034 -0.679,0.051C-0.426,0.166 -0.002,0.358 0.092,0.468C0.408,1.69 0.611,3.049 0.846,4.622C0.925,5.144 1.005,5.686 1.096,6.252C1.046,6.312 0.996,6.373 0.945,6.436C0.729,6.702 0.404,7.106 0.19,7.161C0.119,7.18 0.056,7.189 0,7.189" style="fill:rgb(62,62,62);fill-rule:nonzero;"/>
    </g>
    <g transform="matrix(8.33333,0,0,8.33333,289.906,188.259)">
        <path d="M0,5.809C-0.137,5.809 -0.179,5.766 -0.2,5.743C-0.304,5.637 -0.416,5.336 -0.399,4.839C-0.387,4.486 -0.358,4.134 -0.328,3.781L-0.298,3.783L-0.245,2.987C-0.233,2.742 -0.242,2.487 -0.251,2.232C-0.267,1.806 -0.283,1.366 -0.165,1.113C0.089,0.57 0.605,0.078 0.881,0.017C0.934,0.006 0.983,0 1.025,0C1.125,0 1.162,0.029 1.191,0.06C1.282,0.155 1.383,0.406 1.366,0.798C1.352,1.141 1.344,1.485 1.336,1.83C1.312,2.903 1.288,3.916 1.073,4.875C0.999,5.209 0.419,5.749 0.148,5.795C0.096,5.804 0.047,5.809 0,5.809" style="fill:rgb(62,62,62);fill-rule:nonzero;"/>
    </g>
    <g transform="matrix(8.33333,0,0,8.33333,670.464,335.601)">
        <path d="M0,2.505C-0.062,2.573 -0.396,2.671 -0.787,2.784C-1.71,3.055 -1.741,3.027 -2.538,2.347L-2.651,2.25C-3.337,1.665 -4.045,1.061 -4.829,0.536C-5.353,0.186 -5.9,-0.138 -6.47,-0.434C-3.642,-0.604 -0.638,-0.638 -0.075,1.876C0.034,2.365 0.007,2.485 0,2.505M1.34,1.403C0.921,0.151 -0.474,-0.904 -1.634,-1.3C-3.235,-1.845 -4.871,-1.716 -6.453,-1.59C-7.304,-1.522 -8.124,-1.458 -8.922,-1.491C-9.321,-1.631 -9.728,-1.759 -10.142,-1.875C-10.446,-1.96 -11.024,-1.766 -11.133,-1.375L-11.229,-0.854L-10.859,-0.75L-10.865,-0.478L-10.372,-0.395C-10.094,-0.348 -9.788,-0.323 -9.463,-0.312C-8.495,0.03 -7.604,0.435 -6.767,0.912C-5.94,1.383 -5.236,1.961 -4.49,2.572C-4.021,2.957 -3.551,3.343 -3.049,3.703C-2.501,4.095 -1.675,4.465 -0.843,4.465C-0.691,4.465 -0.539,4.452 -0.389,4.426C0.207,4.319 0.701,3.998 1.043,3.495C1.479,2.852 1.583,2.129 1.34,1.403" style="fill:rgb(62,62,62);fill-rule:nonzero;"/>
    </g>
    <g transform="matrix(8.33333,0,0,8.33333,618.682,365.795)">
        <path d="M0,6.932L-0.875,7.054C-0.969,6.95 -1.094,6.719 -1.248,6.364L-1.289,6.27C-1.747,5.248 -1.744,4.129 -1.742,2.945C-1.742,2.838 -1.741,2.731 -1.742,2.624C-1.289,3.362 -0.904,4.117 -0.591,4.886L-0.522,5.055C-0.308,5.577 -0.086,6.117 -0.024,6.66C-0.009,6.75 -0.001,6.841 0,6.932M-2.75,-1.565C-2.877,-1.741 -3.088,-1.83 -3.34,-1.805C-3.572,-1.783 -3.887,-1.659 -4.012,-1.384L-4.124,-1.061L-3.956,-0.826C-3.749,-0.538 -3.595,-0.238 -3.48,0.072L-3.519,0.214L-3.379,0.379C-3.138,1.218 -3.142,2.124 -3.145,3.064C-3.148,3.935 -3.151,4.836 -2.958,5.726C-2.72,6.823 -1.872,8.762 -0.304,8.762C-0.194,8.761 -0.081,8.752 0.036,8.732C0.888,8.586 1.239,8.081 1.385,7.682C2.202,5.439 -1.449,0.569 -2.083,-0.249C-2.232,-0.698 -2.444,-1.139 -2.75,-1.565" style="fill:rgb(62,62,62);fill-rule:nonzero;"/>
    </g>
    <g transform="matrix(8.33333,0,0,8.33333,12.8627,224.177)">
        <path d="M0,1.247C0.562,-1.267 3.566,-1.233 6.395,-1.064C5.825,-0.767 5.277,-0.443 4.754,-0.093C3.97,0.432 3.262,1.036 2.576,1.621L2.463,1.718C1.666,2.398 1.635,2.426 0.712,2.155C0.321,2.041 -0.014,1.944 -0.075,1.876C-0.082,1.856 -0.109,1.736 0,1.247M-1.118,2.866C-0.776,3.369 -0.282,3.69 0.313,3.797C0.465,3.823 0.616,3.836 0.768,3.836C1.6,3.836 2.426,3.466 2.974,3.074C3.476,2.714 3.946,2.328 4.415,1.943C5.161,1.332 5.865,0.754 6.691,0.283C7.529,-0.194 8.42,-0.599 9.387,-0.941C9.713,-0.952 10.019,-0.977 10.297,-1.024L10.79,-1.107L10.784,-1.379L11.154,-1.483L11.058,-2.004C10.949,-2.395 10.37,-2.589 10.066,-2.504C9.652,-2.388 9.245,-2.26 8.847,-2.12C8.049,-2.087 7.229,-2.151 6.378,-2.219C4.796,-2.345 3.16,-2.474 1.559,-1.929C0.398,-1.533 -0.996,-0.478 -1.415,0.774C-1.658,1.5 -1.555,2.223 -1.118,2.866" style="fill:rgb(62,62,62);fill-rule:nonzero;"/>
    </g>
    <g transform="matrix(8.33333,0,0,8.33333,64.2218,251.395)">
        <path d="M0,6.388C0.062,5.845 0.283,5.305 0.498,4.783L0.566,4.614C0.88,3.845 1.265,3.09 1.718,2.352C1.717,2.459 1.718,2.566 1.718,2.673C1.72,3.857 1.723,4.976 1.265,5.998L1.224,6.092C1.069,6.447 0.944,6.678 0.851,6.782L-0.024,6.66C-0.023,6.569 -0.016,6.478 0,6.388M2.059,-0.521C1.425,0.297 -2.227,5.167 -1.409,7.41C-1.264,7.809 -0.912,8.314 -0.061,8.46C0.057,8.48 0.17,8.489 0.279,8.49C1.848,8.49 2.695,6.551 2.934,5.454C3.127,4.564 3.124,3.663 3.12,2.792C3.117,1.852 3.114,0.946 3.354,0.107L3.494,-0.058L3.456,-0.2C3.57,-0.51 3.725,-0.81 3.932,-1.098L4.1,-1.333L3.987,-1.656C3.862,-1.931 3.548,-2.055 3.315,-2.077C3.063,-2.102 2.853,-2.013 2.726,-1.837C2.42,-1.411 2.207,-0.97 2.059,-0.521" style="fill:rgb(62,62,62);fill-rule:nonzero;"/>
    </g>
</svg>
