<?xml version="1.0" encoding="UTF-8" standalone="no"?>
<!DOCTYPE svg PUBLIC "-//W3C//DTD SVG 1.1//EN" "http://www.w3.org/Graphics/SVG/1.1/DTD/svg11.dtd">
<svg width="100%" height="100%" viewBox="0 0 669 678" version="1.1" xmlns="http://www.w3.org/2000/svg" xmlns:xlink="http://www.w3.org/1999/xlink" xml:space="preserve" xmlns:serif="http://www.serif.com/" style="fill-rule:evenodd;clip-rule:evenodd;stroke-linecap:round;stroke-linejoin:round;stroke-miterlimit:10;">
    <g transform="matrix(8.33333,0,0,8.33333,60.8833,162.226)">
        <path d="M0,42.024C1.921,41.333 3.417,41.419 4.592,43.323C5.114,44.17 5.922,44.559 7.018,44.244C7.992,43.964 9.231,44.582 9.719,45.463C10.059,46.079 10.347,46.724 10.657,47.357C10.867,47.058 10.978,46.737 10.954,46.426C10.861,45.21 10.164,44.306 9.292,43.549C8.544,42.899 7.695,42.67 6.677,43.039C6.13,43.238 5.535,43.016 5.069,42.571C4.578,42.101 4.072,41.641 3.532,41.232C2.139,40.178 0.609,40.505 0,42.024M22.993,-1.135C25.122,-1.491 26.687,-0.632 27.985,0.974C28.276,1.334 28.914,1.527 29.416,1.583C30.8,1.736 31.819,2.335 32.396,3.623C32.563,3.994 32.725,4.367 32.907,4.78C33.324,4.183 33.551,3.652 33.282,2.995C32.717,1.612 31.775,0.633 30.265,0.455C29.266,0.338 28.482,-0.033 27.783,-0.725C26.902,-1.597 25.834,-2.114 24.582,-2.214C23.462,-2.303 23.462,-2.305 22.993,-1.135M31.779,7.072C32.064,6.414 32.484,5.903 32.462,5.413C32.385,3.739 31.074,2.301 29.311,2.031C28.778,1.949 28.213,1.768 27.777,1.466C27.248,1.097 26.878,0.507 26.372,0.095C24.494,-1.435 22.278,-0.837 21.732,1.367C23.385,0.543 24.978,0.769 26.503,1.613C27.403,2.11 28.282,2.657 29.116,3.258C30.258,4.081 31.222,5.066 31.515,6.53C31.539,6.654 31.627,6.766 31.779,7.072M1.005,39.988C1.023,40.05 1.042,40.112 1.061,40.174C2.507,40.038 3.729,40.42 4.755,41.496C5.293,42.06 6.044,42.58 6.859,42.393C8.214,42.083 9.23,42.598 10.083,43.496C10.657,44.101 11.063,44.864 11.579,45.608C11.65,45.378 11.892,45.012 11.794,44.85C11.106,43.716 10.539,42.409 9.577,41.562C7.327,39.582 4.57,39.128 1.65,39.657C1.423,39.698 1.22,39.874 1.005,39.988M33.821,2.853C34.452,2.049 34.399,1.566 33.68,0.569C32.564,-0.976 31.084,-2.098 29.421,-2.944C28.069,-3.631 26.631,-4.158 25.045,-3.679C24.514,-3.518 23.992,-3.387 23.695,-2.733C24.078,-2.733 24.374,-2.739 24.67,-2.732C26.159,-2.696 27.298,-1.924 28.312,-0.938C28.806,-0.457 29.349,-0.157 30.036,-0.086C31.308,0.044 32.264,0.751 33.067,1.679C33.365,2.023 33.566,2.45 33.821,2.853M9.389,49.92C9.7,49.242 10.185,48.698 10.112,48.242C9.94,47.155 9.748,45.999 8.795,45.222C8.269,44.793 7.721,44.481 6.99,44.723C5.643,45.17 4.617,44.661 4.008,43.411C3.426,42.216 2.481,42.075 1.441,42.17C0.778,42.231 0.033,42.464 -0.473,42.872C-0.919,43.233 -1.084,43.942 -1.449,44.642C0.83,43.849 2.877,44.132 4.84,45.239C6.753,46.316 8.54,47.507 9.389,49.92M36.844,-2.824C36.994,-3.08 37.123,-3.325 37.274,-3.554C37.978,-4.618 37.879,-5.597 37.193,-6.679C35.767,-8.931 33.652,-10.144 31.157,-10.607C28.589,-11.083 27.642,-10.327 26.762,-8.125C29.03,-8.262 31.189,-7.807 33.21,-6.737C34.794,-5.899 36.243,-4.917 36.661,-2.993C36.673,-2.94 36.756,-2.903 36.844,-2.824M-5.26,51.875C-3.012,51.408 -0.928,51.546 1.085,52.617C3.061,53.667 4.598,55.095 5.552,57.222C5.896,56.515 6.377,55.783 6.319,55.096C6.251,54.258 5.886,53.339 5.375,52.663C3.854,50.647 1.833,49.354 -0.705,48.921C-2.5,48.616 -3.935,49.274 -4.771,50.878C-4.934,51.19 -5.081,51.51 -5.26,51.875M34.799,1.151C35.256,0.304 35.69,-0.479 36.098,-1.276C36.198,-1.474 36.281,-1.728 36.25,-1.938C36.043,-3.321 35.41,-4.469 34.291,-5.33C32.454,-6.744 30.335,-7.367 28.062,-7.528C27.175,-7.591 26.348,-7.347 25.831,-6.583C25.347,-5.866 24.974,-5.073 24.536,-4.288C29.29,-4.958 32.153,-2.171 34.799,1.151M-3.709,48.886C-2.615,48.349 -1.589,48.157 -0.516,48.352C1.537,48.723 3.223,49.811 4.823,51.08C5.891,51.926 6.404,53.122 6.944,54.381C7.485,53.425 8.016,52.568 8.465,51.67C8.836,50.925 8.844,50.115 8.444,49.376C6.936,46.586 4.511,45.092 1.425,44.776C-0.256,44.604 -1.87,44.941 -2.649,46.806C-2.929,47.476 -3.308,48.105 -3.709,48.886M30.547,-11.609C31.805,-11.143 33.088,-10.813 34.226,-10.208C35.384,-9.592 36.397,-8.706 37.494,-7.925C37.536,-8.055 37.626,-8.293 37.687,-8.538C38.267,-10.885 38.841,-13.235 39.419,-15.582C39.759,-16.964 39.743,-17.179 38.547,-17.932C37.318,-18.706 36.26,-18.852 35.527,-17.686C35.131,-17.056 34.538,-16.552 34.063,-15.969C32.862,-14.497 31.678,-13.013 30.547,-11.609M4.733,57.696C4.646,57.364 4.622,56.996 4.46,56.705C3.839,55.588 3.096,54.558 1.982,53.872C0.016,52.659 -2.022,51.753 -4.415,52.507C-5.873,52.966 -6.979,54.292 -6.254,56.151C-5.427,58.273 -3.808,59.553 -1.732,60.3C-0.047,60.907 1.635,61.062 3.277,60.085C4.194,59.539 4.626,58.759 4.733,57.696M4.038,34.159C6.01,34.154 7.566,33.569 8.801,32.475C10.107,31.317 11.307,29.993 12.349,28.589C15.148,24.816 17.236,20.656 18.684,16.18C19.336,14.161 20.018,12.146 19.948,9.983C19.911,8.815 19.583,7.738 18.792,6.711C13.87,15.868 9.002,24.925 4.038,34.159M1.397,38.913C6.176,38.413 9.877,39.881 12.362,44.003C12.494,43.802 12.637,43.619 12.743,43.418C14.21,40.648 15.681,37.879 17.134,35.102C19.166,31.216 21.177,27.319 23.213,23.434C24.951,20.117 26.721,16.816 28.458,13.498C29.246,11.995 29.908,10.42 30.778,8.969C31.446,7.855 31.224,6.882 30.629,5.949C29.134,3.603 27.059,1.993 24.267,1.552C23.127,1.372 21.823,1.491 21.081,2.482C20.276,3.557 19.764,4.851 19.209,5.889C19.607,6.539 20.039,7.014 20.212,7.57C20.766,9.347 20.57,11.164 20.207,12.945C19.604,15.891 18.491,18.677 17.193,21.368C16.185,23.462 14.983,25.467 13.795,27.468C12.388,29.838 10.6,31.887 8.322,33.471C7.083,34.333 5.743,34.9 4.181,34.847C3.919,34.838 3.539,35.079 3.398,35.315C2.726,36.44 2.117,37.603 1.397,38.913M-7.131,54.588C-6.948,54.011 -6.771,52.93 -6.289,52.008C-3.092,45.883 0.163,39.788 3.413,33.69C6.419,28.05 9.445,22.422 12.454,16.784C15.408,11.248 18.356,5.709 21.299,0.168C23.014,-3.063 24.717,-6.299 26.419,-9.537C26.987,-10.619 28.016,-11.066 29.056,-11.514C29.319,-11.628 29.609,-11.763 29.79,-11.973C31.576,-14.045 33.336,-16.141 35.115,-18.219C36.197,-19.482 37.664,-19.635 39.004,-18.652C40.466,-17.579 40.553,-17.235 40.108,-15.493C39.41,-12.752 38.758,-9.999 38.112,-7.246C38.049,-6.976 38.089,-6.624 38.214,-6.378C38.721,-5.382 38.613,-4.449 38.11,-3.489C35.126,2.216 32.153,7.926 29.183,13.637C26.112,19.538 23.06,25.449 19.98,31.345C16.246,38.497 12.487,45.637 8.749,52.787C7.886,54.437 7.062,56.109 6.214,57.767C5.46,59.24 4.475,60.509 2.955,61.263C2.586,61.446 2.165,61.616 1.764,61.626C0.346,61.659 -1.056,61.542 -2.354,60.87C-3.676,60.186 -4.98,59.503 -5.9,58.26C-6.607,57.304 -7.033,56.269 -7.131,54.588" style="fill:rgb(37,37,37);fill-rule:nonzero;"/>
    </g>
    <g transform="matrix(8.33333,0,0,8.33333,60.8833,162.226)">
        <path d="M0,42.024C1.921,41.333 3.417,41.419 4.592,43.323C5.114,44.17 5.922,44.559 7.018,44.244C7.992,43.964 9.231,44.582 9.719,45.463C10.059,46.079 10.347,46.724 10.657,47.357C10.867,47.058 10.978,46.737 10.954,46.426C10.861,45.21 10.164,44.306 9.292,43.549C8.544,42.899 7.695,42.67 6.677,43.039C6.13,43.238 5.535,43.016 5.069,42.571C4.578,42.101 4.072,41.641 3.532,41.232C2.139,40.178 0.609,40.505 0,42.024ZM22.993,-1.135C25.122,-1.491 26.687,-0.632 27.985,0.974C28.276,1.334 28.914,1.527 29.416,1.583C30.8,1.736 31.819,2.335 32.396,3.623C32.563,3.994 32.725,4.367 32.907,4.78C33.324,4.183 33.551,3.652 33.282,2.995C32.717,1.612 31.775,0.633 30.265,0.455C29.266,0.338 28.482,-0.033 27.783,-0.725C26.902,-1.597 25.834,-2.114 24.582,-2.214C23.462,-2.303 23.462,-2.305 22.993,-1.135ZM31.779,7.072C32.064,6.414 32.484,5.903 32.462,5.413C32.385,3.739 31.074,2.301 29.311,2.031C28.778,1.949 28.213,1.768 27.777,1.466C27.248,1.097 26.878,0.507 26.372,0.095C24.494,-1.435 22.278,-0.837 21.732,1.367C23.385,0.543 24.978,0.769 26.503,1.613C27.403,2.11 28.282,2.657 29.116,3.258C30.258,4.081 31.222,5.066 31.515,6.53C31.539,6.654 31.627,6.766 31.779,7.072ZM1.005,39.988C1.023,40.05 1.042,40.112 1.061,40.174C2.507,40.038 3.729,40.42 4.755,41.496C5.293,42.06 6.044,42.58 6.859,42.393C8.214,42.083 9.23,42.598 10.083,43.496C10.657,44.101 11.063,44.864 11.579,45.608C11.65,45.378 11.892,45.012 11.794,44.85C11.106,43.716 10.539,42.409 9.577,41.562C7.327,39.582 4.57,39.128 1.65,39.657C1.423,39.698 1.22,39.874 1.005,39.988ZM33.821,2.853C34.452,2.049 34.399,1.566 33.68,0.569C32.564,-0.976 31.084,-2.098 29.421,-2.944C28.069,-3.631 26.631,-4.158 25.045,-3.679C24.514,-3.518 23.992,-3.387 23.695,-2.733C24.078,-2.733 24.374,-2.739 24.67,-2.732C26.159,-2.696 27.298,-1.924 28.312,-0.938C28.806,-0.457 29.349,-0.157 30.036,-0.086C31.308,0.044 32.264,0.751 33.067,1.679C33.365,2.023 33.566,2.45 33.821,2.853ZM9.389,49.92C9.7,49.242 10.185,48.698 10.112,48.242C9.94,47.155 9.748,45.999 8.795,45.222C8.269,44.793 7.721,44.481 6.99,44.723C5.643,45.17 4.617,44.661 4.008,43.411C3.426,42.216 2.481,42.075 1.441,42.17C0.778,42.231 0.033,42.464 -0.473,42.872C-0.919,43.233 -1.084,43.942 -1.449,44.642C0.83,43.849 2.877,44.132 4.84,45.239C6.753,46.316 8.54,47.507 9.389,49.92ZM36.844,-2.824C36.994,-3.08 37.123,-3.325 37.274,-3.554C37.978,-4.618 37.879,-5.597 37.193,-6.679C35.767,-8.931 33.652,-10.144 31.157,-10.607C28.589,-11.083 27.642,-10.327 26.762,-8.125C29.03,-8.262 31.189,-7.807 33.21,-6.737C34.794,-5.899 36.243,-4.917 36.661,-2.993C36.673,-2.94 36.756,-2.903 36.844,-2.824ZM-5.26,51.875C-3.012,51.408 -0.928,51.546 1.085,52.617C3.061,53.667 4.598,55.095 5.552,57.222C5.896,56.515 6.377,55.783 6.319,55.096C6.251,54.258 5.886,53.339 5.375,52.663C3.854,50.647 1.833,49.354 -0.705,48.921C-2.5,48.616 -3.935,49.274 -4.771,50.878C-4.934,51.19 -5.081,51.51 -5.26,51.875ZM34.799,1.151C35.256,0.304 35.69,-0.479 36.098,-1.276C36.198,-1.474 36.281,-1.728 36.25,-1.938C36.043,-3.321 35.41,-4.469 34.291,-5.33C32.454,-6.744 30.335,-7.367 28.062,-7.528C27.175,-7.591 26.348,-7.347 25.831,-6.583C25.347,-5.866 24.974,-5.073 24.536,-4.288C29.29,-4.958 32.153,-2.171 34.799,1.151ZM-3.709,48.886C-2.615,48.349 -1.589,48.157 -0.516,48.352C1.537,48.723 3.223,49.811 4.823,51.08C5.891,51.926 6.404,53.122 6.944,54.381C7.485,53.425 8.016,52.568 8.465,51.67C8.836,50.925 8.844,50.115 8.444,49.376C6.936,46.586 4.511,45.092 1.425,44.776C-0.256,44.604 -1.87,44.941 -2.649,46.806C-2.929,47.476 -3.308,48.105 -3.709,48.886ZM30.547,-11.609C31.805,-11.143 33.088,-10.813 34.226,-10.208C35.384,-9.592 36.397,-8.706 37.494,-7.925C37.536,-8.055 37.626,-8.293 37.687,-8.538C38.267,-10.885 38.841,-13.235 39.419,-15.582C39.759,-16.964 39.743,-17.179 38.547,-17.932C37.318,-18.706 36.26,-18.852 35.527,-17.686C35.131,-17.056 34.538,-16.552 34.063,-15.969C32.862,-14.497 31.678,-13.013 30.547,-11.609ZM4.733,57.696C4.646,57.364 4.622,56.996 4.46,56.705C3.839,55.588 3.096,54.558 1.982,53.872C0.016,52.659 -2.022,51.753 -4.415,52.507C-5.873,52.966 -6.979,54.292 -6.254,56.151C-5.427,58.273 -3.808,59.553 -1.732,60.3C-0.047,60.907 1.635,61.062 3.277,60.085C4.194,59.539 4.626,58.759 4.733,57.696ZM4.038,34.159C6.01,34.154 7.566,33.569 8.801,32.475C10.107,31.317 11.307,29.993 12.349,28.589C15.148,24.816 17.236,20.656 18.684,16.18C19.336,14.161 20.018,12.146 19.948,9.983C19.911,8.815 19.583,7.738 18.792,6.711C13.87,15.868 9.002,24.925 4.038,34.159ZM1.397,38.913C6.176,38.413 9.877,39.881 12.362,44.003C12.494,43.802 12.637,43.619 12.743,43.418C14.21,40.648 15.681,37.879 17.134,35.102C19.166,31.216 21.177,27.319 23.213,23.434C24.951,20.117 26.721,16.816 28.458,13.498C29.246,11.995 29.908,10.42 30.778,8.969C31.446,7.855 31.224,6.882 30.629,5.949C29.134,3.603 27.059,1.993 24.267,1.552C23.127,1.372 21.823,1.491 21.081,2.482C20.276,3.557 19.764,4.851 19.209,5.889C19.607,6.539 20.039,7.014 20.212,7.57C20.766,9.347 20.57,11.164 20.207,12.945C19.604,15.891 18.491,18.677 17.193,21.368C16.185,23.462 14.983,25.467 13.795,27.468C12.388,29.838 10.6,31.887 8.322,33.471C7.083,34.333 5.743,34.9 4.181,34.847C3.919,34.838 3.539,35.079 3.398,35.315C2.726,36.44 2.117,37.603 1.397,38.913ZM-7.131,54.588C-6.948,54.011 -6.771,52.93 -6.289,52.008C-3.092,45.883 0.163,39.788 3.413,33.69C6.419,28.05 9.445,22.422 12.454,16.784C15.408,11.248 18.356,5.709 21.299,0.168C23.014,-3.063 24.717,-6.299 26.419,-9.537C26.987,-10.619 28.016,-11.066 29.056,-11.514C29.319,-11.628 29.609,-11.763 29.79,-11.973C31.576,-14.045 33.336,-16.141 35.115,-18.219C36.197,-19.482 37.664,-19.635 39.004,-18.652C40.466,-17.579 40.553,-17.235 40.108,-15.493C39.41,-12.752 38.758,-9.999 38.112,-7.246C38.049,-6.976 38.089,-6.624 38.214,-6.378C38.721,-5.382 38.613,-4.449 38.11,-3.489C35.126,2.216 32.153,7.926 29.183,13.637C26.112,19.538 23.06,25.449 19.98,31.345C16.246,38.497 12.487,45.637 8.749,52.787C7.886,54.437 7.062,56.109 6.214,57.767C5.46,59.24 4.475,60.509 2.955,61.263C2.586,61.446 2.165,61.616 1.764,61.626C0.346,61.659 -1.056,61.542 -2.354,60.87C-3.676,60.186 -4.98,59.503 -5.9,58.26C-6.607,57.304 -7.033,56.269 -7.131,54.588Z" style="fill:none;fill-rule:nonzero;stroke:rgb(37,37,37);stroke-width:0.35px;"/>
    </g>
    <g transform="matrix(8.33333,0,0,8.33333,579.845,464.836)">
        <path d="M0,-28.699C0.699,-29.335 0.74,-29.347 0.522,-30.116C0.4,-30.546 0.169,-30.971 -0.105,-31.328C-0.807,-32.24 -1.835,-32.64 -2.871,-33.059C-3.354,-33.255 -3.881,-33.647 -4.113,-34.094C-4.867,-35.54 -5.979,-36.315 -7.601,-36.462C-8.641,-36.556 -9.012,-36.376 -9.383,-35.35C-9.36,-35.343 -9.337,-35.328 -9.315,-35.331C-9.199,-35.342 -9.082,-35.356 -8.966,-35.374C-7.635,-35.578 -6.435,-35.371 -5.533,-34.26C-5.312,-33.987 -5.096,-33.705 -4.914,-33.405C-4.4,-32.556 -3.745,-31.944 -2.684,-31.908C-2.511,-31.903 -2.34,-31.789 -2.171,-31.719C-0.855,-31.168 -0.38,-30.002 0,-28.699M-39.249,2.794C-38.596,2.794 -38.026,2.72 -37.483,2.809C-36.261,3.01 -35.439,3.768 -34.87,4.853C-34.48,5.594 -33.874,6.169 -33.005,6.183C-31.271,6.211 -29.724,7.885 -29.871,9.667C-29.883,9.808 -29.873,9.951 -29.873,10.094C-29.789,10.117 -29.705,10.14 -29.622,10.163C-29.449,9.717 -29.137,9.273 -29.129,8.824C-29.096,6.845 -30.248,5.474 -32.244,5.182C-33.295,5.028 -33.952,4.436 -34.478,3.637C-35.017,2.82 -35.74,2.251 -36.612,1.872C-37.697,1.4 -38.52,1.68 -39.249,2.794M-8.249,-37.01C-8.071,-36.978 -8.004,-36.959 -7.935,-36.954C-6.364,-36.852 -4.982,-36.425 -4.16,-34.915C-3.681,-34.036 -3.057,-33.382 -1.995,-33.072C-0.456,-32.623 0.689,-31.642 0.981,-29.933C1.575,-30.11 1.221,-30.485 1.183,-30.808C0.98,-32.545 0.146,-33.977 -1.041,-35.196C-2.442,-36.636 -4.239,-37.338 -6.197,-37.576C-6.856,-37.656 -7.61,-37.684 -8.249,-37.01M-28.292,8.348C-28.222,8.033 -28.067,7.711 -28.094,7.405C-28.247,5.667 -29.295,4.339 -30.38,3.138C-31.798,1.57 -33.712,0.773 -35.822,0.587C-36.492,0.528 -37.184,0.713 -37.865,0.786C-37.23,1.174 -36.555,1.289 -36.013,1.621C-35.312,2.052 -34.593,2.563 -34.108,3.21C-33.532,3.981 -32.967,4.567 -31.975,4.752C-31.33,4.872 -30.653,5.117 -30.127,5.495C-29.187,6.17 -28.68,7.182 -28.292,8.348M-10.897,-33.344C-8.736,-33.342 -6.694,-33.001 -4.911,-31.605C-3.158,-30.232 -1.917,-28.607 -1.881,-26.141C-1.561,-26.5 -1.345,-26.686 -1.2,-26.917C-0.853,-27.474 -0.305,-27.934 -0.451,-28.724C-0.711,-30.122 -1.535,-31.078 -2.862,-31.37C-4.2,-31.664 -5.011,-32.452 -5.649,-33.541C-6.652,-35.252 -9.886,-35.797 -10.897,-33.344M-31.284,12.077C-30.313,11.093 -30.069,10.072 -30.465,8.855C-30.904,7.504 -31.77,6.735 -33.194,6.548C-33.634,6.491 -34.122,6.331 -34.457,6.057C-34.898,5.695 -35.266,5.209 -35.568,4.717C-36.331,3.478 -37.406,3.072 -38.811,3.282C-39.864,3.441 -40.46,4.104 -40.999,5.02C-38.679,4.718 -36.62,5.17 -34.818,6.572C-33.035,7.961 -31.896,9.779 -31.284,12.077M4.984,-35.086C6.441,-36.449 6.641,-37.812 5.603,-39.557C4.027,-42.204 1.938,-44.027 -1.362,-43.932C-2.504,-43.898 -3.24,-43.262 -3.891,-42.355C0.847,-42.042 3.647,-39.492 4.984,-35.086M-46.378,11.879C-42.349,10.529 -36.274,15.223 -36.978,19.545C-36.448,18.839 -35.977,18.287 -35.6,17.677C-35.382,17.323 -35.15,16.849 -35.213,16.477C-35.373,15.516 -35.598,14.541 -35.979,13.649C-36.294,12.913 -36.751,12.148 -37.354,11.645C-38.62,10.586 -40.091,9.879 -41.758,9.557C-44.261,9.074 -45.13,9.967 -46.378,11.879M6.288,-39.743C6.439,-40.085 6.539,-40.295 6.627,-40.511C7.606,-42.933 8.588,-45.355 9.563,-47.779C9.979,-48.812 9.803,-49.388 8.944,-50.051C8.137,-50.674 7.031,-50.792 6.281,-50.162C4.765,-48.889 3.256,-47.607 1.74,-46.333C1.098,-45.793 0.447,-45.262 -0.329,-44.621C2.683,-43.994 4.775,-42.35 6.288,-39.743M-34.4,16.185C-33.497,14.971 -32.696,13.905 -31.913,12.826C-31.832,12.713 -31.807,12.51 -31.841,12.369C-32.218,10.799 -32.837,9.34 -33.92,8.119C-35.746,6.058 -38.106,5.357 -40.775,5.49C-41.047,5.504 -41.419,5.54 -41.563,5.715C-42.391,6.718 -43.163,7.767 -43.968,8.818C-38.874,8.801 -35.504,10.894 -34.4,16.185M-7.308,-38.226C-2.625,-37.864 0.521,-35.662 1.921,-31.096C2.617,-31.958 3.162,-32.67 3.75,-33.345C4.195,-33.855 4.248,-34.467 4.17,-35.055C3.707,-38.506 0.713,-41.378 -2.756,-41.66C-3.398,-41.712 -4.267,-41.679 -4.682,-41.302C-5.66,-40.409 -6.43,-39.286 -7.308,-38.226M-31.963,-6.613C-31.929,-6.585 -31.895,-6.558 -31.859,-6.531C-31.338,-6.714 -30.808,-6.876 -30.297,-7.086C-28.478,-7.836 -27.058,-9.151 -25.673,-10.483C-23.771,-12.312 -22.146,-14.373 -20.588,-16.508C-18.703,-19.087 -16.993,-21.749 -15.782,-24.702C-15.34,-25.78 -15.113,-26.947 -14.788,-28.072C-14.879,-28.11 -14.969,-28.148 -15.059,-28.185C-20.693,-20.995 -26.328,-13.804 -31.963,-6.613M-44.825,12.205C-45.221,12.327 -45.795,12.507 -46.371,12.68C-47.236,12.941 -47.589,13.621 -47.698,14.424C-47.988,16.559 -46.974,18.27 -45.679,19.777C-44.563,21.075 -43.02,21.739 -41.297,21.939C-40.047,22.084 -38.964,21.685 -38.259,20.697C-37.563,19.72 -37.292,18.57 -37.75,17.352C-38.318,15.842 -39.369,14.725 -40.61,13.762C-41.785,12.851 -43.096,12.27 -44.825,12.205M-27.568,7.312C-26.615,6.064 -25.799,4.977 -24.965,3.903C-22.611,0.873 -20.24,-2.142 -17.897,-5.179C-15.377,-8.445 -12.882,-11.729 -10.374,-15.004C-8.928,-16.893 -7.479,-18.78 -6.028,-20.665C-5.109,-21.859 -4.169,-23.036 -3.267,-24.242C-2.923,-24.702 -2.425,-25.216 -2.407,-25.72C-2.36,-27.039 -2.553,-28.404 -3.464,-29.437C-4.197,-30.269 -5.097,-30.967 -5.974,-31.66C-7.405,-32.792 -9.135,-32.693 -10.821,-32.717C-10.978,-32.719 -11.16,-32.665 -11.287,-32.575C-12.541,-31.69 -13.302,-30.384 -14.162,-29.163C-14.185,-29.131 -14.164,-29.071 -14.17,-29.024C-14.534,-25.722 -15.777,-22.732 -17.566,-19.983C-19.002,-17.777 -20.565,-15.65 -22.137,-13.536C-22.878,-12.539 -23.725,-11.609 -24.606,-10.731C-25.556,-9.787 -26.561,-8.888 -27.615,-8.065C-28.859,-7.094 -30.156,-6.168 -31.771,-5.887C-32.486,-5.761 -32.989,-5.382 -33.408,-4.79C-33.994,-3.964 -34.657,-3.193 -35.281,-2.394C-35.869,-1.64 -36.45,-0.881 -37.082,-0.062C-34.842,0.115 -32.71,0.536 -30.992,1.857C-29.287,3.168 -27.953,4.865 -27.568,7.312M-48.454,15.321C-48.471,13.659 -47.733,12.261 -46.765,11.019C-42.892,6.05 -38.948,1.136 -35.066,-3.826C-31.65,-8.194 -28.295,-12.611 -24.889,-16.986C-20.698,-22.367 -16.478,-27.725 -12.28,-33.1C-9.709,-36.392 -7.181,-39.718 -4.579,-42.984C-3.861,-43.885 -3.06,-44.82 -1.676,-44.677C-1.566,-44.665 -1.431,-44.801 -1.324,-44.888C1.147,-46.925 3.627,-48.953 6.078,-51.013C6.607,-51.457 7.197,-51.596 7.785,-51.422C8.942,-51.08 10.034,-50.483 10.409,-49.278C10.587,-48.706 10.354,-47.933 10.123,-47.32C9.104,-44.609 8.01,-41.927 6.973,-39.222C6.848,-38.899 6.846,-38.496 6.894,-38.145C7.047,-36.994 6.68,-35.989 6.015,-35.109C3.681,-32.023 1.309,-28.966 -1.044,-25.895C-3.785,-22.317 -6.52,-18.735 -9.26,-15.156C-13.305,-9.876 -17.355,-4.599 -21.398,0.683C-26.217,6.978 -31.025,13.279 -35.849,19.57C-36.349,20.223 -36.867,20.878 -37.466,21.438C-38.891,22.773 -40.612,22.897 -42.405,22.434C-45.692,21.583 -47.545,19.318 -48.444,16.16C-48.519,15.901 -48.454,15.602 -48.454,15.321" style="fill:rgb(37,37,37);fill-rule:nonzero;"/>
    </g>
    <g transform="matrix(8.33333,0,0,8.33333,579.845,464.836)">
        <path d="M0,-28.699C0.699,-29.335 0.74,-29.347 0.522,-30.116C0.4,-30.546 0.169,-30.971 -0.105,-31.328C-0.807,-32.24 -1.835,-32.64 -2.871,-33.059C-3.354,-33.255 -3.881,-33.647 -4.113,-34.094C-4.867,-35.54 -5.979,-36.315 -7.601,-36.462C-8.641,-36.556 -9.012,-36.376 -9.383,-35.35C-9.36,-35.343 -9.337,-35.328 -9.315,-35.331C-9.199,-35.342 -9.082,-35.356 -8.966,-35.374C-7.635,-35.578 -6.435,-35.371 -5.533,-34.26C-5.312,-33.987 -5.096,-33.705 -4.914,-33.405C-4.4,-32.556 -3.745,-31.944 -2.684,-31.908C-2.511,-31.903 -2.34,-31.789 -2.171,-31.719C-0.855,-31.168 -0.38,-30.002 0,-28.699ZM-39.249,2.794C-38.596,2.794 -38.026,2.72 -37.483,2.809C-36.261,3.01 -35.439,3.768 -34.87,4.853C-34.48,5.594 -33.874,6.169 -33.005,6.183C-31.271,6.211 -29.724,7.885 -29.871,9.667C-29.883,9.808 -29.873,9.951 -29.873,10.094C-29.789,10.117 -29.705,10.14 -29.622,10.163C-29.449,9.717 -29.137,9.273 -29.129,8.824C-29.096,6.845 -30.248,5.474 -32.244,5.182C-33.295,5.028 -33.952,4.436 -34.478,3.637C-35.017,2.82 -35.74,2.251 -36.612,1.872C-37.697,1.4 -38.52,1.68 -39.249,2.794ZM-8.249,-37.01C-8.071,-36.978 -8.004,-36.959 -7.935,-36.954C-6.364,-36.852 -4.982,-36.425 -4.16,-34.915C-3.681,-34.036 -3.057,-33.382 -1.995,-33.072C-0.456,-32.623 0.689,-31.642 0.981,-29.933C1.575,-30.11 1.221,-30.485 1.183,-30.808C0.98,-32.545 0.146,-33.977 -1.041,-35.196C-2.442,-36.636 -4.239,-37.338 -6.197,-37.576C-6.856,-37.656 -7.61,-37.684 -8.249,-37.01ZM-28.292,8.348C-28.222,8.033 -28.067,7.711 -28.094,7.405C-28.247,5.667 -29.295,4.339 -30.38,3.138C-31.798,1.57 -33.712,0.773 -35.822,0.587C-36.492,0.528 -37.184,0.713 -37.865,0.786C-37.23,1.174 -36.555,1.289 -36.013,1.621C-35.312,2.052 -34.593,2.563 -34.108,3.21C-33.532,3.981 -32.967,4.567 -31.975,4.752C-31.33,4.872 -30.653,5.117 -30.127,5.495C-29.187,6.17 -28.68,7.182 -28.292,8.348ZM-10.897,-33.344C-8.736,-33.342 -6.694,-33.001 -4.911,-31.605C-3.158,-30.232 -1.917,-28.607 -1.881,-26.141C-1.561,-26.5 -1.345,-26.686 -1.2,-26.917C-0.853,-27.474 -0.305,-27.934 -0.451,-28.724C-0.711,-30.122 -1.535,-31.078 -2.862,-31.37C-4.2,-31.664 -5.011,-32.452 -5.649,-33.541C-6.652,-35.252 -9.886,-35.797 -10.897,-33.344ZM-31.284,12.077C-30.313,11.093 -30.069,10.072 -30.465,8.855C-30.904,7.504 -31.77,6.735 -33.194,6.548C-33.634,6.491 -34.122,6.331 -34.457,6.057C-34.898,5.695 -35.266,5.209 -35.568,4.717C-36.331,3.478 -37.406,3.072 -38.811,3.282C-39.864,3.441 -40.46,4.104 -40.999,5.02C-38.679,4.718 -36.62,5.17 -34.818,6.572C-33.035,7.961 -31.896,9.779 -31.284,12.077ZM4.984,-35.086C6.441,-36.449 6.641,-37.812 5.603,-39.557C4.027,-42.204 1.938,-44.027 -1.362,-43.932C-2.504,-43.898 -3.24,-43.262 -3.891,-42.355C0.847,-42.042 3.647,-39.492 4.984,-35.086ZM-46.378,11.879C-42.349,10.529 -36.274,15.223 -36.978,19.545C-36.448,18.839 -35.977,18.287 -35.6,17.677C-35.382,17.323 -35.15,16.849 -35.213,16.477C-35.373,15.516 -35.598,14.541 -35.979,13.649C-36.294,12.913 -36.751,12.148 -37.354,11.645C-38.62,10.586 -40.091,9.879 -41.758,9.557C-44.261,9.074 -45.13,9.967 -46.378,11.879ZM6.288,-39.743C6.439,-40.085 6.539,-40.295 6.627,-40.511C7.606,-42.933 8.588,-45.355 9.563,-47.779C9.979,-48.812 9.803,-49.388 8.944,-50.051C8.137,-50.674 7.031,-50.792 6.281,-50.162C4.765,-48.889 3.256,-47.607 1.74,-46.333C1.098,-45.793 0.447,-45.262 -0.329,-44.621C2.683,-43.994 4.775,-42.35 6.288,-39.743ZM-34.4,16.185C-33.497,14.971 -32.696,13.905 -31.913,12.826C-31.832,12.713 -31.807,12.51 -31.841,12.369C-32.218,10.799 -32.837,9.34 -33.92,8.119C-35.746,6.058 -38.106,5.357 -40.775,5.49C-41.047,5.504 -41.419,5.54 -41.563,5.715C-42.391,6.718 -43.163,7.767 -43.968,8.818C-38.874,8.801 -35.504,10.894 -34.4,16.185ZM-7.308,-38.226C-2.625,-37.864 0.521,-35.662 1.921,-31.096C2.617,-31.958 3.162,-32.67 3.75,-33.345C4.195,-33.855 4.248,-34.467 4.17,-35.055C3.707,-38.506 0.713,-41.378 -2.756,-41.66C-3.398,-41.712 -4.267,-41.679 -4.682,-41.302C-5.66,-40.409 -6.43,-39.286 -7.308,-38.226ZM-31.963,-6.613C-31.929,-6.585 -31.895,-6.558 -31.859,-6.531C-31.338,-6.714 -30.808,-6.876 -30.297,-7.086C-28.478,-7.836 -27.058,-9.151 -25.673,-10.483C-23.771,-12.312 -22.146,-14.373 -20.588,-16.508C-18.703,-19.087 -16.993,-21.749 -15.782,-24.702C-15.34,-25.78 -15.113,-26.947 -14.788,-28.072C-14.879,-28.11 -14.969,-28.148 -15.059,-28.185C-20.693,-20.995 -26.328,-13.804 -31.963,-6.613ZM-44.825,12.205C-45.221,12.327 -45.795,12.507 -46.371,12.68C-47.236,12.941 -47.589,13.621 -47.698,14.424C-47.988,16.559 -46.974,18.27 -45.679,19.777C-44.563,21.075 -43.02,21.739 -41.297,21.939C-40.047,22.084 -38.964,21.685 -38.259,20.697C-37.563,19.72 -37.292,18.57 -37.75,17.352C-38.318,15.842 -39.369,14.725 -40.61,13.762C-41.785,12.851 -43.096,12.27 -44.825,12.205ZM-27.568,7.312C-26.615,6.064 -25.799,4.977 -24.965,3.903C-22.611,0.873 -20.24,-2.142 -17.897,-5.179C-15.377,-8.445 -12.882,-11.729 -10.374,-15.004C-8.928,-16.893 -7.479,-18.78 -6.028,-20.665C-5.109,-21.859 -4.169,-23.036 -3.267,-24.242C-2.923,-24.702 -2.425,-25.216 -2.407,-25.72C-2.36,-27.039 -2.553,-28.404 -3.464,-29.437C-4.197,-30.269 -5.097,-30.967 -5.974,-31.66C-7.405,-32.792 -9.135,-32.693 -10.821,-32.717C-10.978,-32.719 -11.16,-32.665 -11.287,-32.575C-12.541,-31.69 -13.302,-30.384 -14.162,-29.163C-14.185,-29.131 -14.164,-29.071 -14.17,-29.024C-14.534,-25.722 -15.777,-22.732 -17.566,-19.983C-19.002,-17.777 -20.565,-15.65 -22.137,-13.536C-22.878,-12.539 -23.725,-11.609 -24.606,-10.731C-25.556,-9.787 -26.561,-8.888 -27.615,-8.065C-28.859,-7.094 -30.156,-6.168 -31.771,-5.887C-32.486,-5.761 -32.989,-5.382 -33.408,-4.79C-33.994,-3.964 -34.657,-3.193 -35.281,-2.394C-35.869,-1.64 -36.45,-0.881 -37.082,-0.062C-34.842,0.115 -32.71,0.536 -30.992,1.857C-29.287,3.168 -27.953,4.865 -27.568,7.312ZM-48.454,15.321C-48.471,13.659 -47.733,12.261 -46.765,11.019C-42.892,6.05 -38.948,1.136 -35.066,-3.826C-31.65,-8.194 -28.295,-12.611 -24.889,-16.986C-20.698,-22.367 -16.478,-27.725 -12.28,-33.1C-9.709,-36.392 -7.181,-39.718 -4.579,-42.984C-3.861,-43.885 -3.06,-44.82 -1.676,-44.677C-1.566,-44.665 -1.431,-44.801 -1.324,-44.888C1.147,-46.925 3.627,-48.953 6.078,-51.013C6.607,-51.457 7.197,-51.596 7.785,-51.422C8.942,-51.08 10.034,-50.483 10.409,-49.278C10.587,-48.706 10.354,-47.933 10.123,-47.32C9.104,-44.609 8.01,-41.927 6.973,-39.222C6.848,-38.899 6.846,-38.496 6.894,-38.145C7.047,-36.994 6.68,-35.989 6.015,-35.109C3.681,-32.023 1.309,-28.966 -1.044,-25.895C-3.785,-22.317 -6.52,-18.735 -9.26,-15.156C-13.305,-9.876 -17.355,-4.599 -21.398,0.683C-26.217,6.978 -31.025,13.279 -35.849,19.57C-36.349,20.223 -36.867,20.878 -37.466,21.438C-38.891,22.773 -40.612,22.897 -42.405,22.434C-45.692,21.583 -47.545,19.318 -48.444,16.16C-48.519,15.901 -48.454,15.602 -48.454,15.321Z" style="fill:none;fill-rule:nonzero;stroke:rgb(37,37,37);stroke-width:0.35px;"/>
    </g>
</svg>
