<?xml version="1.0" encoding="UTF-8" standalone="no"?>
<!DOCTYPE svg PUBLIC "-//W3C//DTD SVG 1.1//EN" "http://www.w3.org/Graphics/SVG/1.1/DTD/svg11.dtd">
<svg width="100%" height="100%" viewBox="0 0 759 615" version="1.1" xmlns="http://www.w3.org/2000/svg" xmlns:xlink="http://www.w3.org/1999/xlink" xml:space="preserve" xmlns:serif="http://www.serif.com/" style="fill-rule:evenodd;clip-rule:evenodd;stroke-linejoin:round;stroke-miterlimit:2;">
    <g transform="matrix(8.33333,0,0,8.33333,105.417,429.467)">
        <path d="M0,-3.728C0.976,-1.725 2.235,-0.099 4.648,-0.855C8.535,-2.072 7.887,-8.129 6.976,-11.056C6.133,-13.766 4.787,-15.722 4.483,-18.65C4.455,-18.926 4.236,-20.838 4.367,-21.015C5.061,-21.954 4.312,-21.108 5.654,-21.288C7.22,-21.497 10.404,-19.715 11.962,-19.238C19.759,-16.85 27.706,-14.95 35.74,-13.556C38.857,-13.015 41.988,-12.55 45.128,-12.162C46.993,-11.932 48.862,-11.729 50.733,-11.554C52.597,-11.379 55.602,-11.753 57.306,-11.051C61.071,-9.498 56.626,-5.192 54.771,-3.372C52.944,-1.579 51.559,0.065 50.617,2.483C49.527,5.283 49.591,9.747 53.699,9.01C54.837,8.806 55.229,7.875 55.447,8.437C55.694,9.077 54.251,11.873 53.918,12.526C52.14,16.012 49.407,17.051 45.608,17.47C36.618,18.463 26.58,16.323 17.992,13.861C13.373,12.537 8.891,10.819 4.64,8.575C0.041,6.148 0.372,0.6 1.153,-3.978C1.208,-4.297 0.059,-4.1 0.006,-3.789C-0.541,-0.586 -0.956,3.051 0.46,6.113C1.497,8.355 3.646,9.098 5.846,10.159C12.867,13.546 20.594,15.595 28.262,16.863C34.82,17.948 42.876,19.063 49.499,17.561C54.201,16.495 55.72,11.21 56.818,7.016C56.84,6.93 56.787,6.9 56.717,6.87C56.676,6.854 56.636,6.837 56.596,6.82C56.319,6.704 55.792,6.882 55.595,7.088C50.835,12.055 50.941,4.078 52.004,1.667C53.131,-0.891 54.723,-2.435 56.836,-4.16C59.16,-6.059 59.574,-8.496 61.076,-11.252C61.14,-11.369 60.938,-11.412 60.873,-11.415C41.382,-12.392 22.303,-16.2 3.908,-22.709C3.678,-22.791 2.938,-22.67 2.862,-22.375C2.658,-21.587 3.306,-20.009 3.346,-19.131C3.477,-16.202 2.854,-16.401 4.153,-14.1C5.32,-12.033 6.209,-10.219 6.383,-7.799C6.449,-6.881 6.783,-4.484 6.157,-3.751C5.307,-2.754 1.939,-2.436 1.159,-4.039C1.006,-4.352 -0.113,-3.96 0,-3.728" style="fill:rgb(37,37,37);fill-rule:nonzero;"/>
    </g>
    <g transform="matrix(8.33333,0,0,8.33333,459.429,568.608)">
        <path d="M0,-26.586C-2.393,-18.089 -2.184,-9.279 -6.922,-1.556C-7.046,-1.354 -6.479,-1.404 -6.448,-1.408C-1.811,-1.968 -1.325,-0.269 0.854,-4.651C4.141,-11.255 3.511,-19.174 5.094,-26.251C5.123,-26.38 4.988,-26.401 4.891,-26.414C3.575,-26.589 2.26,-26.763 0.944,-26.938C0.663,-26.975 -0.393,-26.502 0.204,-26.423C1.701,-26.224 2.473,-26.463 3.206,-25.12C3.832,-23.974 3.158,-22.586 2.952,-21.389C2.589,-19.271 2.432,-17.14 2.245,-15.003C2.038,-12.637 0.696,0.474 -4.523,-2.092C-5.768,-2.703 -4.463,-3.891 -3.961,-4.93C-2.932,-7.06 -2.24,-9.334 -1.741,-11.641C-0.653,-16.683 -0.255,-21.794 1.147,-26.774C1.229,-27.06 0.09,-26.905 0,-26.586" style="fill:rgb(37,37,37);fill-rule:nonzero;"/>
    </g>
    <g transform="matrix(8.33333,0,0,8.33333,589.841,193.251)">
        <path d="M0,-4.829C1.289,-4.389 3.837,-4.021 4.831,-3.067C7.492,-0.515 3.604,0.056 1.896,0.395C-2.137,1.194 -6.197,1.709 -10.289,2.097C-18.24,2.851 -26.249,3.139 -34.234,3.15C-38.355,3.156 -42.488,3.08 -46.593,2.687C-48.49,2.505 -54.203,2.926 -51.909,-1.267C-51.68,-1.688 -50.001,-1.719 -50.421,-2.092C-50.144,-1.846 -51.458,-0.297 -49.856,0.634C-49.233,0.996 -48.233,0.857 -47.572,0.782C-43.668,0.34 -41.003,-2.217 -38.279,-4.549C-34.815,-7.516 -28.618,-7.188 -24.322,-7.355C-20.32,-7.511 -13.119,-8.197 -10.157,-5.621C-7.549,-3.352 -3.425,-0.277 0.454,-1.057C1.086,-1.184 1.883,-1.384 2.296,-1.888C4.001,-3.97 0.717,-4.394 1.042,-5.179C1.185,-5.523 0.038,-5.395 -0.115,-5.026C-0.14,-4.965 -0.165,-4.906 -0.189,-4.846C-0.228,-4.753 -0.135,-4.689 -0.074,-4.649C-0.975,-3.865 -1.874,-3.081 -2.774,-2.298C-3.207,-2.45 -3.64,-2.603 -4.072,-2.756C-5.367,-2.997 -6.677,-3.841 -7.663,-4.652C-8.846,-5.625 -9.351,-6.947 -10.751,-7.497C-14.285,-8.887 -20.139,-8.128 -23.864,-7.987C-28.152,-7.825 -33.525,-7.963 -37.533,-6.394C-38.033,-6.199 -38.365,-5.894 -38.814,-5.566C-39.191,-5.29 -42.9,-1.153 -40.483,-3.742C-41.188,-2.608 -42.156,-1.824 -43.39,-1.391C-45.09,-0.039 -46.705,-0.542 -48.235,-2.9C-47.959,-3.109 -48.221,-3.311 -48.469,-3.301C-50.729,-3.206 -54.853,-1.084 -56.049,1.002C-56.089,1.073 -56.122,1.162 -56.05,1.23C-53.024,4.058 -45.759,3.501 -41.847,3.661C-34.856,3.946 -27.828,3.77 -20.844,3.434C-14.358,3.123 -7.822,2.667 -1.412,1.606C1.673,1.095 6.105,0.995 8.342,-1.426C8.381,-1.474 8.395,-1.527 8.384,-1.587C7.026,-3.962 3.321,-4.557 0.927,-5.375C0.59,-5.49 -0.459,-4.986 0,-4.829" style="fill:rgb(37,37,37);fill-rule:nonzero;"/>
    </g>
    <g transform="matrix(8.33333,0,0,8.33333,528.847,158.879)">
        <path d="M0,3.819C-4.128,0.066 -9.33,-0.983 -14.755,-1.279C-14.958,-1.29 -15.911,-0.961 -15.447,-0.69C-14.143,0.074 -12.053,0.071 -10.598,0.633C-8.419,1.475 -6.239,2.624 -5.427,4.933C-5.365,5.108 -5.074,5.109 -4.93,5.085C-3.494,4.839 -2.058,4.594 -0.622,4.348C-0.084,4.256 0.347,3.598 -0.456,3.735C-1.806,3.966 -3.421,4.677 -4.578,3.762C-5.443,3.079 -5.897,2.142 -6.906,1.489C-8.062,0.742 -9.323,0.183 -10.626,-0.253C-11.806,-0.647 -13.488,-0.631 -14.521,-1.236C-14.752,-1.039 -14.982,-0.843 -15.213,-0.647C-9.991,-0.362 -5.056,0.65 -1.078,4.265C-0.788,4.528 0.297,4.089 0,3.819" style="fill:rgb(37,37,37);fill-rule:nonzero;"/>
    </g>
    <g transform="matrix(8.33333,0,0,8.33333,206.703,30.795)">
        <path d="M0,16.277C4.542,15.021 3.093,14.077 5.026,9.314C7.87,2.312 13.632,-2.557 21.362,-2.846C28.295,-3.105 33.996,0.655 37.5,6.444C39.601,9.915 39.02,14.116 43.551,14.504C43.785,14.524 44.518,14.315 44.33,13.927C44.666,14.043 45.001,14.159 45.336,14.275C45.124,14.389 44.809,14.756 45.146,14.952C47.997,16.606 42.839,16.273 41.727,15.992C38.645,15.214 37.384,13.174 36.113,10.536C35.149,8.537 34.315,6.581 32.653,5.022C29.867,2.408 25.967,1.704 22.267,1.731C18.292,1.761 13.907,2.662 10.979,5.55C9.173,7.332 8.513,9.398 7.545,11.687C6.636,13.838 6.012,15.236 3.947,16.558C2.956,17.327 1.869,17.916 0.687,18.325C-1.393,17.245 -1.571,16.544 0.15,16.222C0.883,15.916 0.235,15.287 -0.363,15.537C-2.35,16.367 -6.88,20.155 -1.806,20.002C0.357,19.937 3.203,18.387 4.948,17.214C7.948,15.198 8.195,12.125 9.703,9.079C12.917,2.583 22.409,1.043 28.704,3.684C33.288,5.608 33.723,9.725 36.191,13.366C38.212,16.345 45.434,20.23 48.367,16.84C48.483,16.705 48.492,16.566 48.412,16.413C48.15,15.913 47.279,14.194 46.34,14.697C46.544,14.588 46.876,14.209 46.53,14.02C45.416,13.411 44.198,12.712 43.199,13.774C43.138,13.84 43.06,14.006 43.105,14.101C42.536,12.924 41.019,11.101 40.289,9.363C39.889,8.408 39.438,7.484 38.929,6.584C37.574,4.192 35.844,1.968 33.701,0.228C30.034,-2.748 25.417,-3.953 20.746,-3.65C16.636,-3.384 12.721,-1.922 9.627,0.833C7.683,2.565 6.11,4.709 4.905,7.011C3.475,9.743 3.072,14.573 -0.213,15.481C-0.925,15.678 -0.717,16.475 0,16.277" style="fill:rgb(37,37,37);fill-rule:nonzero;"/>
    </g>
    <g transform="matrix(8.33333,0,0,8.33333,292.624,0.633314)">
        <path d="M0,7.103C7.239,2.585 14.671,2.365 22.189,6.331C22.595,6.545 23.644,6.098 23.083,5.662C15.302,-0.395 6.521,-0.093 -0.77,6.573C-1.348,7.101 -0.433,7.498 0,7.103C6.836,0.853 14.9,0.658 22.189,6.331C22.487,6.108 22.785,5.885 23.083,5.662C14.93,1.36 7.032,1.703 -0.77,6.573C-1.433,6.987 -0.478,7.401 0,7.103" style="fill:rgb(37,37,37);fill-rule:nonzero;"/>
    </g>
    <g transform="matrix(8.33333,0,0,8.33333,558.338,166.126)">
        <path d="M0,-0.708C0.9,0.412 3.085,0.921 4.313,0.101C4.542,-0.052 4.575,-0.316 4.375,-0.499C4.231,-0.631 4.088,-0.763 3.943,-0.895C3.711,-1.107 3.179,-0.956 3.012,-0.731C2.83,-0.486 2.968,-0.559 3.068,-0.576C2.994,-0.563 2.883,-0.599 2.806,-0.613C2.568,-0.658 2.333,-0.731 2.105,-0.812C1.963,-0.863 1.709,-0.915 1.607,-1.033C1.498,-1.162 1.542,-1.316 1.348,-1.471C1.162,-1.62 0.841,-1.57 0.645,-1.478C0.521,-1.421 0.397,-1.363 0.274,-1.306C-0.443,-0.971 0.194,-0.344 0.788,-0.621C0.911,-0.679 1.034,-0.736 1.158,-0.794C0.924,-0.796 0.688,-0.799 0.454,-0.801C0.485,-0.776 0.517,-0.751 0.547,-0.727C0.5,-0.824 0.453,-0.921 0.407,-1.018C0.447,-0.243 1.279,-0.05 1.93,0.122C2.782,0.347 3.421,0.369 3.982,-0.388C3.672,-0.334 3.361,-0.28 3.05,-0.225C3.194,-0.093 3.338,0.039 3.482,0.171C3.503,-0.029 3.523,-0.229 3.544,-0.429C3.247,-0.231 2.595,-0.413 2.287,-0.503C1.832,-0.635 1.364,-0.842 1.062,-1.219C0.731,-1.629 -0.371,-1.17 0,-0.708" style="fill:rgb(37,37,37);fill-rule:nonzero;"/>
    </g>
    <g transform="matrix(8.33333,0,0,8.33333,186.683,170.689)">
        <path d="M0,1.605C1.289,2.092 3.561,1.452 4.202,0.162C4.296,-0.026 4.177,-0.239 3.982,-0.296L3.619,-0.401C3.325,-0.487 2.864,-0.395 2.73,-0.077C2.573,0.295 2.343,0.396 1.976,0.505C1.645,0.603 1.485,0.792 1.31,0.436C1.135,0.082 0.477,0.306 0.294,0.52C0.146,0.694 -0.003,0.868 -0.151,1.043C-0.626,1.6 0.477,1.787 0.819,1.386C0.968,1.211 1.116,1.037 1.265,0.863C0.926,0.891 0.587,0.919 0.249,0.947C0.644,1.747 1.349,1.557 2.045,1.339C2.815,1.099 3.5,0.86 3.839,0.057C3.543,0.165 3.246,0.273 2.95,0.381C3.071,0.416 3.192,0.451 3.313,0.487L3.094,0.029C2.75,0.72 1.351,1.081 0.669,0.823C0.175,0.636 -0.687,1.346 0,1.605" style="fill:rgb(37,37,37);fill-rule:nonzero;"/>
    </g>
    <g transform="matrix(8.33333,0,0,8.33333,175.502,302.004)">
        <path d="M0,-9.126C7.445,-8.472 14.888,-8.064 22.365,-8.058C31.761,-8.05 41.865,-8.188 50.246,-2.984C54.7,-0.219 50.773,-0.59 47.59,-0.792C45.31,-0.936 43.035,-1.197 40.769,-1.484C36.357,-2.043 31.962,-2.749 27.586,-3.539C18.51,-5.177 9.352,-7.217 0.533,-9.945C0.03,-10.1 -0.832,-9.373 -0.134,-9.157C9.364,-6.219 19.244,-4.059 29.034,-2.363C34.403,-1.432 39.808,-0.575 45.237,-0.097C48.25,0.168 52.36,0.974 55.152,-0.387C55.356,-0.487 55.604,-0.756 55.425,-0.99C53.174,-3.938 47.813,-4.996 44.552,-6.188C40.81,-7.555 37.235,-8.969 33.241,-9.023C22.244,-9.172 11.375,-9.012 0.399,-9.976C-0.173,-10.026 -0.782,-9.195 0,-9.126" style="fill:rgb(37,37,37);fill-rule:nonzero;"/>
    </g>
    <g transform="matrix(8.33333,0,0,8.33333,128.692,288.415)">
        <path d="M0,-4.06C-1.338,-5.708 -6.758,-14.497 -10.002,-12.116C-14.18,-9.05 -2.178,0.181 -0.665,1.903C0.844,3.621 1.894,5.743 2.368,7.98C2.535,8.769 3.197,12.065 2.695,12.461C1.583,11.909 0.471,11.357 -0.642,10.806C-0.559,10.268 -0.477,9.73 -0.394,9.191C-1.353,5.89 -1.996,4.512 -4.521,2.048C-7.414,-0.776 -13.396,-5.789 -13.807,-10.023C-13.939,-11.388 -6.966,-12.769 -5.834,-12.116C-5.064,-11.672 -4.323,-10.688 -3.793,-9.992C-2.328,-8.069 -1.454,-6.049 -1.119,-3.683C-1.068,-3.32 0.098,-3.582 0.04,-3.993C-0.63,-8.731 -8.811,-19.898 -14.466,-14.191C-17.052,-11.582 -13.863,-7.205 -12.282,-4.982C-10.329,-2.238 -7.985,0.131 -5.6,2.492C-4.572,3.508 -3.615,4.363 -2.848,5.611C-1.541,7.737 -2.033,9.273 -1.898,11.735C-1.79,13.72 -1.518,15.838 1.074,15.549C4.142,15.207 4.075,11.43 3.771,9.063C3.063,3.533 -0.381,0.979 -4.083,-2.734C-5.055,-3.709 -11.688,-10.717 -8.676,-11.6C-6.948,-12.105 -2.073,-4.841 -1.079,-3.616C-0.843,-3.325 0.271,-3.725 0,-4.06" style="fill:rgb(37,37,37);fill-rule:nonzero;"/>
    </g>
    <g transform="matrix(8.33333,0,0,8.33333,145.399,386.388)">
        <path d="M0,0.267C0.018,-0.45 0.162,-1.163 -0.254,-1.776C-0.413,-2.01 -0.985,-1.802 -1.149,-1.71C-1.758,-1.368 -2.005,-0.851 -2.192,-0.182C-2.343,0.353 -2.51,1.309 -2.222,1.826C-1.97,2.277 -1.38,2.165 -0.992,1.955C-0.409,1.64 -0.238,0.833 0,0.267C0.142,-0.07 -1.003,0.056 -1.156,0.422C-1.245,0.633 -1.332,0.846 -1.422,1.056C-1.449,1.121 -1.682,1.587 -1.547,1.557L-1.01,1.557C-1.358,1.338 -1.168,0.279 -1.11,-0.018C-1.022,-0.467 -0.856,-1.163 -0.438,-1.398C-0.736,-1.376 -1.035,-1.354 -1.333,-1.332C-0.997,-0.838 -1.143,-0.149 -1.156,0.422C-1.168,0.873 -0.009,0.628 0,0.267" style="fill:rgb(37,37,37);fill-rule:nonzero;"/>
    </g>
    <g transform="matrix(8.33333,0,0,8.33333,619.748,413.504)">
        <path d="M0,-7.361C1.955,-10.67 10.553,-18.076 14.122,-12.656C17.35,-7.754 10.885,-4.715 7.435,-2.877C4.282,-1.198 0.469,-0.407 -2.529,1.524C-3.66,2.253 -4.626,3.144 -5.309,4.323C-5.795,5.162 -5.884,7.17 -6.445,7.819C-9.986,9.368 -10.956,8.467 -9.354,5.117C-8.759,3.73 -7.995,2.439 -7.064,1.242C-4.763,-1.545 -1.281,-2.642 1.948,-3.931C3.258,-4.455 14.14,-8.878 11.306,-11.595C10.499,-12.369 8.691,-11.778 7.811,-11.568C6.801,-11.327 -0.109,-7.522 -0.029,-7.472C-0.322,-7.657 -1.318,-7.189 -1.117,-7.062C-1.067,-7.03 -1.017,-6.998 -0.967,-6.966C-0.693,-6.793 -0.215,-6.983 0.026,-7.134C0.939,-7.705 5.487,-10.787 6.771,-10.762C7.773,-10.166 8.774,-9.57 9.776,-8.974C8.293,-7.504 6.584,-6.366 4.649,-5.56C2.136,-4.35 -0.587,-3.633 -3.113,-2.468C-6.582,-0.869 -10.521,2.808 -10.979,6.86C-11.211,8.922 -10.364,10.715 -8.024,10.322C-6.996,10.149 -6.396,9.469 -5.847,8.68C-4.031,6.074 -4.714,3.964 -1.455,1.911C1.065,0.323 24.086,-8.955 14.165,-13.675C8.863,-16.198 1.45,-11.568 -1.147,-7.172C-1.257,-6.987 -0.181,-7.055 0,-7.361" style="fill:rgb(37,37,37);fill-rule:nonzero;"/>
    </g>
    <g transform="matrix(8.33333,0,0,8.33333,563.702,470.452)">
        <path d="M0,-0.029C-0.002,-0.647 0.132,-1.344 -0.233,-1.87C-0.405,-2.117 -0.948,-1.919 -1.153,-1.816C-1.774,-1.501 -2.017,-1.007 -2.208,-0.336C-2.36,0.199 -2.547,1.186 -2.241,1.687C-1.997,2.088 -1.393,1.927 -1.047,1.754C-0.437,1.448 -0.259,0.611 -0.006,0.032C0.097,-0.201 -1.014,-0.097 -1.152,0.221C-1.307,0.571 -1.513,1.408 -1.837,1.615C-1.653,1.547 -1.471,1.479 -1.287,1.411C-1.324,1.418 -1.361,1.425 -1.398,1.432C-1.251,1.445 -1.103,1.457 -0.955,1.469C-1.628,1.07 -1.092,-1.299 -0.472,-1.613C-0.778,-1.595 -1.086,-1.577 -1.393,-1.559C-1.032,-1.04 -1.161,-0.33 -1.159,0.282C-1.158,0.513 0.002,0.335 0,-0.029" style="fill:rgb(37,37,37);fill-rule:nonzero;"/>
    </g>
    <g transform="matrix(8.33333,0,0,8.33333,637.554,249.212)">
        <path d="M0,6.293C-1.011,13.154 -30.396,6.019 -34.815,5.11C-39.017,4.246 -63.966,0.026 -62.065,-6.319C-62.438,-6.219 -62.811,-6.119 -63.184,-6.019C-60.078,-2.491 -54.409,-1.366 -50.098,-0.037C-44.356,1.731 -38.484,3.085 -32.593,4.244C-26.184,5.506 -19.708,6.555 -13.209,7.23C-8.587,7.71 -3.563,8.343 0.835,6.559C1.574,6.26 0.917,5.689 0.335,5.925C-5.201,8.171 -12.641,6.521 -18.408,5.738C-23.311,5.073 -28.187,4.245 -33.036,3.27C-37.937,2.285 -42.809,1.149 -47.61,-0.248C-52.151,-1.568 -58.901,-2.861 -62.118,-6.516C-62.422,-6.861 -63.116,-6.617 -63.236,-6.217C-64.657,-1.471 -55.69,0.509 -52.932,1.427C-46.035,3.723 -38.908,5.204 -31.785,6.6C-23.764,8.173 -15.64,9.659 -7.441,9.783C-4.599,9.826 0.591,10.126 1.171,6.191C1.253,5.636 0.072,5.801 0,6.293" style="fill:rgb(37,37,37);fill-rule:nonzero;"/>
    </g>
    <g transform="matrix(8.33333,0,0,8.33333,113.872,621.697)">
        <path d="M0,-14.046C12.511,-6.885 27.835,-3.286 42.232,-3.635C42.454,-3.64 47.719,-3.943 47.711,-4.004C47.891,-2.671 40.86,-2.029 39.904,-1.969C34.907,-1.655 29.836,-2.341 24.937,-3.272C16.946,-4.791 5.447,-6.999 0.979,-14.63C0.721,-15.071 -0.387,-14.641 -0.084,-14.124C4.409,-6.452 15.636,-4.186 23.642,-2.616C31.697,-1.036 42.863,1.025 49.983,-4.399C50.37,-4.694 50.102,-5.133 49.654,-5.076C33.273,-2.965 15.245,-6.494 0.896,-14.708C0.463,-14.956 -0.558,-14.365 0,-14.046" style="fill:rgb(37,37,37);fill-rule:nonzero;"/>
    </g>
    <g transform="matrix(8.33333,0,0,8.33333,203.643,164.622)">
        <path d="M0,-0.537C-0.279,-0.42 -0.614,-0.214 -0.913,-0.155C-1.146,-0.11 -1.42,-0.136 -1.658,-0.126C-1.489,0.046 -1.319,0.217 -1.149,0.389C-0.892,-0.042 -0.214,-0.324 0.274,-0.199C0.222,-0.394 0.17,-0.589 0.117,-0.784C0.003,-0.643 -0.112,-0.503 -0.228,-0.362C-0.694,0.209 0.401,0.428 0.749,0.003C0.864,-0.138 0.979,-0.278 1.094,-0.419C1.252,-0.612 1.212,-0.933 0.937,-1.003C-0.246,-1.307 -1.623,-0.826 -2.262,0.24C-2.464,0.577 -1.995,0.764 -1.753,0.754C-1.396,0.739 -0.991,0.77 -0.648,0.663C-0.252,0.54 0.139,0.338 0.521,0.177C0.75,0.082 0.948,-0.206 0.79,-0.44C0.62,-0.691 0.232,-0.634 0,-0.537" style="fill:rgb(37,37,37);fill-rule:nonzero;"/>
    </g>
</svg>
