<?xml version="1.0" encoding="UTF-8" standalone="no"?>
<!DOCTYPE svg PUBLIC "-//W3C//DTD SVG 1.1//EN" "http://www.w3.org/Graphics/SVG/1.1/DTD/svg11.dtd">
<svg width="100%" height="100%" viewBox="0 0 319 374" version="1.1" xmlns="http://www.w3.org/2000/svg" xmlns:xlink="http://www.w3.org/1999/xlink" xml:space="preserve" xmlns:serif="http://www.serif.com/" style="fill-rule:evenodd;clip-rule:evenodd;stroke-linejoin:round;stroke-miterlimit:2;">
    <g transform="matrix(8.33333,0,0,8.33333,123.735,135.212)">
        <path d="M0,-2.09C0.409,-4.43 0.717,-6.771 0.927,-9.138C0.588,-9.076 0.248,-9.015 -0.091,-8.953C0.589,-7.536 1.714,-4.215 3.149,-3.605C4.467,-3.045 9.012,-5.407 9.621,-4.416C9.909,-3.948 6.237,-1.38 6.006,-0.615C5.743,0.25 6.437,1.366 6.667,2.156C7.144,3.796 7.418,5.454 7.598,7.15C7.898,7.013 8.199,6.877 8.501,6.74C7.003,5.662 3.955,2.925 1.916,3.114C0.57,3.238 -0.674,5.069 -1.548,5.91C-1.238,5.934 -0.929,5.959 -0.619,5.984C-0.53,4.482 0.307,1.453 -0.421,0.018C-0.896,-0.919 -3.158,-1.305 -4.004,-1.628C-4.122,-1.411 -4.24,-1.194 -4.358,-0.977C-3.197,-1.153 -2.035,-1.329 -0.874,-1.506C-0.346,-1.586 -0.071,-2.282 -0.765,-2.176C-1.926,-2 -3.088,-1.824 -4.249,-1.648C-4.539,-1.604 -5.136,-1.2 -4.604,-0.997C-0.953,0.396 -1.448,2.822 -1.642,6.081C-1.67,6.557 -0.9,6.337 -0.713,6.156C0.857,4.647 1.795,4.035 4,4.891C5.311,5.4 6.576,6.473 7.709,7.288C7.986,7.488 8.652,7.262 8.611,6.878C8.378,4.672 7.291,2.404 7.16,0.271C7.04,-1.707 9.89,-3.439 11.219,-4.672C11.522,-4.953 11.1,-5.14 10.855,-5.131C9.104,-5.062 7.416,-4.795 5.686,-4.575C4.149,-4.38 4.077,-4.274 3.03,-5.367C2.132,-6.306 1.437,-8.155 0.923,-9.225C0.754,-9.578 -0.06,-9.442 -0.096,-9.041C-0.306,-6.675 -0.613,-4.333 -1.022,-1.993C-1.103,-1.53 -0.071,-1.678 0,-2.09" style="fill:rgb(37,37,37);fill-rule:nonzero;"/>
    </g>
    <g transform="matrix(8.33333,0,0,8.33333,246.798,320.913)">
        <path d="M0,-1.505C-0.098,-3.504 -0.195,-5.502 -0.292,-7.501L-1.271,-7.239C-0.365,-6.187 1.086,-3.578 2.422,-3.116C3.621,-2.702 5.896,-3.983 7.028,-4.331C6.834,-4.472 6.64,-4.612 6.446,-4.753C5.929,-3.849 4.218,-1.991 4.713,-0.78C4.794,-0.582 4.984,-0.448 5.116,-0.287C5.848,0.61 6.923,1.107 7.581,2.201C7.794,1.999 8.006,1.798 8.218,1.597C6.913,1.5 4.217,0.726 3.009,1.393C1.807,2.056 1.395,4.658 0.958,5.81L1.951,5.738C1.751,4.604 1.637,2.049 0.583,1.311C-0.393,0.628 -2.911,1.137 -4.034,1.126C-3.906,1.305 -3.777,1.485 -3.649,1.664C-2.673,0.693 -1.661,-0.165 -0.556,-0.981C-0.002,-1.388 -0.819,-1.766 -1.232,-1.461C-2.399,-0.602 -3.476,0.329 -4.503,1.35C-4.803,1.649 -4.383,1.886 -4.118,1.888C-2.744,1.902 -1.562,1.641 -0.458,2.506C0.671,3.391 0.695,4.643 0.937,6.009C1.014,6.446 1.813,6.246 1.931,5.937C2.449,4.566 2.745,2.582 4.423,2.097C5.309,1.841 6.942,2.283 7.872,2.352C8.173,2.374 8.739,2.131 8.509,1.748C7.954,0.828 7.239,0.391 6.604,-0.408C5.404,-1.922 6.582,-3.165 7.418,-4.626C7.62,-4.979 7.07,-5.119 6.836,-5.047C5.314,-4.578 3.817,-3.682 2.269,-4.656C1.307,-5.26 0.402,-6.825 -0.343,-7.692C-0.566,-7.951 -1.342,-7.86 -1.321,-7.429C-1.224,-5.431 -1.127,-3.432 -1.029,-1.433C-1.003,-0.892 0.022,-1.039 0,-1.505" style="fill:rgb(37,37,37);fill-rule:nonzero;"/>
    </g>
    <g transform="matrix(-7.91036,2.62119,2.62119,7.91036,46.5801,334.351)">
        <path d="M1.114,-7.276C1.295,-4.777 1.644,-2.307 2.162,0.144C2.258,0.597 1.216,0.683 1.114,0.205C0.596,-2.246 0.246,-4.716 0.066,-7.215C0.032,-7.694 1.079,-7.758 1.114,-7.276" style="fill:rgb(37,37,37);fill-rule:nonzero;"/>
    </g>
    <g transform="matrix(2.21957,8.03231,8.03231,-2.21957,15.6462,277.548)">
        <path d="M3.457,-2.602C4.009,-0.288 4.187,2.03 3.993,4.402C3.935,5.105 3.416,4.625 3.457,4.126C3.629,2.037 3.471,-0.029 2.983,-2.068C2.892,-2.449 3.299,-3.264 3.457,-2.602" style="fill:rgb(37,37,37);fill-rule:nonzero;"/>
    </g>
    <g transform="matrix(-3.86672,7.38193,7.38193,3.86672,48.5059,295.514)">
        <path d="M2.316,-3.809C2.716,-2.293 2.997,-0.754 3.157,0.806C3.195,1.185 2.369,1.79 2.316,1.264C2.162,-0.237 1.895,-1.715 1.51,-3.174C1.408,-3.559 2.206,-4.223 2.316,-3.809" style="fill:rgb(37,37,37);fill-rule:nonzero;"/>
    </g>
    <g transform="matrix(-6.91734,-4.64703,-4.64703,6.91734,5.84317,316.567)">
        <path d="M-1.309,-4.299C-1.019,-2.658 -0.727,-1.017 -0.437,0.624C-0.327,1.249 -1.229,0.848 -1.309,0.399C-1.599,-1.241 -1.89,-2.882 -2.181,-4.523C-2.292,-5.149 -1.388,-4.747 -1.309,-4.299" style="fill:rgb(37,37,37);fill-rule:nonzero;"/>
    </g>
    <g transform="matrix(0.976244,8.27595,8.27595,-0.976244,284.321,7.43266)">
        <path d="M3.104,-2.761C3.426,-0.839 3.533,1.085 3.441,3.032C3.422,3.438 3.069,3.99 3.104,3.265C3.188,1.476 3.075,-0.292 2.779,-2.058C2.743,-2.27 3.022,-3.246 3.104,-2.761" style="fill:rgb(37,37,37);fill-rule:nonzero;"/>
    </g>
    <g transform="matrix(0,8.33333,8.33333,0,321.361,31.8232)">
        <path d="M-3.427,-4.449L4.545,-4.449C5.035,-4.449 4.854,-3.427 4.449,-3.427L-3.524,-3.427C-4.013,-3.427 -3.834,-4.449 -3.427,-4.449" style="fill:rgb(37,37,37);fill-rule:nonzero;"/>
    </g>
    <g transform="matrix(-4.95959,6.69678,6.69678,4.95959,312.347,30.1739)">
        <path d="M2.14,-4.247C2.436,-2.642 2.732,-1.036 3.028,0.569C3.097,0.943 2.217,1.494 2.14,1.078C1.843,-0.527 1.547,-2.132 1.252,-3.737C1.182,-4.111 2.063,-4.662 2.14,-4.247" style="fill:rgb(37,37,37);fill-rule:nonzero;"/>
    </g>
    <g transform="matrix(8.33333,0,0,8.33333,295.911,52.4065)">
        <path d="M0,-3.513C-1.237,-2.239 -2.536,-1.032 -3.898,0.109C-4.084,0.265 -3.731,0.278 -3.657,0.281C-3.438,0.29 -3.146,0.178 -2.979,0.037C-1.617,-1.103 -0.317,-2.31 0.92,-3.585C1.132,-3.803 0.176,-3.694 0,-3.513" style="fill:rgb(37,37,37);fill-rule:nonzero;"/>
    </g>
</svg>
