<?xml version="1.0" encoding="UTF-8" standalone="no"?>
<!DOCTYPE svg PUBLIC "-//W3C//DTD SVG 1.1//EN" "http://www.w3.org/Graphics/SVG/1.1/DTD/svg11.dtd">
<svg width="100%" height="100%" viewBox="0 0 842 992" version="1.1" xmlns="http://www.w3.org/2000/svg" xmlns:xlink="http://www.w3.org/1999/xlink" xml:space="preserve" xmlns:serif="http://www.serif.com/" style="fill-rule:evenodd;clip-rule:evenodd;stroke-linejoin:round;stroke-miterlimit:2;">
    <g transform="matrix(8.33333,0,0,8.33333,628.375,430.824)">
        <path d="M0,15.354C0.187,15.213 0.324,15.11 0.502,14.976C0.138,14.819 -0.163,14.69 -0.572,14.514C-0.354,14.834 -0.2,15.059 0,15.354M-6.899,-29.897C-6.521,-29.935 -6.283,-29.959 -5.961,-29.992C-6.143,-30.308 -6.275,-30.539 -6.468,-30.875C-6.626,-30.516 -6.734,-30.27 -6.899,-29.897M-6.067,-23.578C-5.619,-23.531 -5.335,-23.5 -5.006,-23.465C-5.024,-23.771 -5.04,-24.014 -5.061,-24.334C-5.405,-24.075 -5.668,-23.878 -6.067,-23.578M1.77,-25.735C1.96,-25.345 2.133,-24.99 2.354,-24.539C2.468,-25.012 2.56,-25.392 2.668,-25.84C2.324,-25.8 2.039,-25.766 1.77,-25.735M-49.687,-13.802C-49.68,-13.728 -49.673,-13.655 -49.666,-13.582C-49.358,-13.57 -49.05,-13.558 -48.639,-13.542C-48.798,-13.985 -48.896,-14.257 -49.018,-14.598C-49.27,-14.298 -49.478,-14.05 -49.687,-13.802M-35.749,-13.999C-36.088,-14.178 -36.377,-14.33 -36.721,-14.511C-36.606,-13.961 -36.507,-13.482 -36.382,-12.876C-36.146,-13.294 -35.968,-13.61 -35.749,-13.999M-14.3,-10.055C-13.563,-10.3 -13.724,-10.871 -13.648,-11.476C-14.075,-11.193 -14.407,-10.974 -14.751,-10.746C-14.59,-10.498 -14.449,-10.284 -14.3,-10.055M-34.194,-37.286C-34.991,-36.573 -35.195,-36.045 -35.039,-35.162C-34.785,-35.896 -34.088,-36.353 -34.194,-37.286M-9.055,23.168C-8.867,23.448 -8.705,23.689 -8.516,23.97C-8.191,23.653 -7.894,23.361 -7.567,23.041C-7.783,22.831 -7.965,22.655 -8.175,22.45C-8.468,22.69 -8.737,22.909 -9.055,23.168M-30.695,14.176C-31.382,14.166 -32,14.158 -32.618,14.149C-32.627,14.186 -32.635,14.224 -32.644,14.261C-32.103,14.572 -31.562,14.882 -30.971,15.222C-30.869,14.836 -30.794,14.552 -30.695,14.176M-6.031,-36.898C-6.515,-37.056 -6.929,-37.191 -7.426,-37.353C-7.295,-36.742 -7.184,-36.217 -7.05,-35.595C-6.671,-36.08 -6.365,-36.471 -6.031,-36.898M-20.572,-34.477C-20.891,-34.075 -21.14,-33.762 -21.425,-33.403C-20.943,-33.152 -20.504,-32.922 -19.932,-32.623C-20.172,-33.32 -20.356,-33.854 -20.572,-34.477M-38.688,-22.154C-38.924,-21.819 -39.13,-21.526 -39.337,-21.233C-38.462,-20.653 -38.329,-20.673 -37.722,-21.458C-38.021,-21.674 -38.32,-21.889 -38.688,-22.154M-10.149,-2.318C-10.372,-3.286 -10.596,-4.255 -10.822,-5.241C-11.384,-4.589 -11.146,-3.466 -10.149,-2.318M-47.285,5.651L-47.332,5.783C-46.407,6.084 -45.481,6.386 -44.517,6.7C-44.505,6.473 -44.494,6.258 -44.481,6.017C-45.45,5.89 -46.368,5.771 -47.285,5.651M-46.614,-5.819C-46.546,-5.838 -46.479,-5.857 -46.41,-5.875C-46.402,-6.546 -46.396,-7.216 -46.388,-7.862C-46.922,-8.042 -47.245,-7.65 -47.206,-7.389C-47.123,-6.848 -46.824,-6.34 -46.614,-5.819M-8.791,4.899C-7.917,4.296 -7.057,3.702 -6.196,3.108C-6.216,3.058 -6.235,3.007 -6.256,2.957C-6.389,2.986 -6.537,2.987 -6.653,3.048C-7.231,3.353 -7.788,3.699 -8.377,3.98C-8.777,4.171 -8.946,4.417 -8.791,4.899M-5.422,-27.571C-5.664,-29.245 -5.452,-28.983 -6.841,-29.253C-6.895,-28.42 -6.561,-28.014 -5.422,-27.571M-41.643,-18.446C-40.101,-17.858 -38.681,-17.317 -37.275,-16.781C-38.391,-18.057 -39.854,-18.481 -41.643,-18.446M-39.66,-16.936L-39.666,-16.847C-38.308,-16.149 -36.938,-15.472 -35.597,-14.74C-35.212,-14.531 -35.028,-14.647 -34.771,-14.992C-36.421,-15.648 -38.04,-16.292 -39.66,-16.936M-8.814,3.412C-8.209,3.078 -7.669,2.779 -7.055,2.44C-7.462,2.123 -7.793,1.826 -8.163,1.591C-8.481,1.388 -8.725,1.463 -8.74,1.905C-8.756,2.369 -8.785,2.833 -8.814,3.412M-26.965,-0.834C-26.924,-0.829 -26.882,-0.824 -26.841,-0.819C-26.671,-1.493 -26.501,-2.167 -26.324,-2.87C-26.812,-3.123 -27.276,-3.363 -27.846,-3.657C-27.526,-2.634 -27.245,-1.734 -26.965,-0.834M-50.11,24.056C-48.819,22.719 -47.644,21.5 -46.377,20.187C-48.431,20.738 -49.159,22.391 -50.11,24.056M-26.842,-11.537C-26.855,-11.514 -26.869,-11.49 -26.882,-11.467C-26.216,-10.613 -25.55,-9.759 -24.825,-8.832C-24.716,-9.265 -24.651,-9.595 -24.548,-9.912C-24.436,-10.261 -24.528,-10.44 -24.879,-10.589C-25.547,-10.873 -26.189,-11.218 -26.842,-11.537M-11.618,-5.187C-11.961,-4.883 -12.271,-4.528 -12.653,-4.285C-13.253,-3.905 -13.076,-3.36 -13.046,-2.843C-13.042,-2.761 -12.888,-2.638 -12.787,-2.62C-12.394,-2.549 -11.994,-2.512 -11.531,-2.454C-11.882,-3.398 -11.98,-4.271 -11.618,-5.187M-39.467,5.877L-39.429,5.737C-40.101,5.223 -40.773,4.708 -41.49,4.16C-41.87,4.654 -42.218,5.106 -42.622,5.631C-41.48,5.72 -40.474,5.799 -39.467,5.877M-11.549,25.272C-11.273,25.621 -11.028,25.933 -10.768,26.265C-10.354,25.849 -9.988,25.482 -9.623,25.113C-8.982,24.465 -8.984,24.351 -9.665,23.676C-10.271,24.19 -10.88,24.706 -11.549,25.272M-47.975,-14.052C-47.602,-14.25 -47.222,-14.444 -46.85,-14.653C-46.761,-14.702 -46.631,-14.805 -46.636,-14.874C-46.688,-15.544 -46.766,-16.213 -46.848,-17.003C-47.636,-16.088 -48.887,-15.531 -47.975,-14.052M-13.705,-9.587C-14.13,-9.033 -13.72,-8.631 -13.676,-8.225C-13.624,-7.744 -13.498,-7.271 -13.416,-6.794C-13.34,-6.351 -13.279,-5.905 -13.202,-5.396C-12.556,-5.87 -11.99,-6.284 -11.341,-6.76C-12.771,-7.159 -13.498,-8.061 -13.705,-9.587M2.389,0.591C2.432,0.607 2.476,0.623 2.52,0.638C3.345,-0.717 4.17,-2.073 4.994,-3.429C4.209,-3.011 3.522,-2.541 2.848,-2.056C2.756,-1.99 2.683,-1.849 2.668,-1.735C2.564,-0.961 2.479,-0.185 2.389,0.591M-14.718,27.884C-14.335,28.826 -14.012,29.657 -13.65,30.471C-13.594,30.601 -13.373,30.713 -13.218,30.728C-13.035,30.746 -12.839,30.598 -12.654,30.609C-12.172,30.639 -11.692,30.717 -11.212,30.776L-11.183,30.665C-12.331,29.761 -13.479,28.858 -14.718,27.884M-14.24,-15.371L-14.176,-15.252C-13.673,-15.385 -13.157,-15.484 -12.673,-15.667C-12.43,-15.758 -12.176,-15.961 -12.045,-16.183C-11.686,-16.79 -11.38,-17.43 -11.073,-18.067C-10.961,-18.302 -10.905,-18.565 -10.824,-18.815C-10.879,-18.846 -10.935,-18.878 -10.99,-18.91C-12.073,-17.73 -13.156,-16.551 -14.24,-15.371M9.098,-2.272C9.013,-1.479 8.867,-0.762 8.893,-0.051C8.903,0.228 9.273,0.524 9.537,0.743C9.609,0.803 9.917,0.649 10.069,0.532C10.406,0.271 10.713,-0.029 11.067,-0.345C10.408,-0.99 9.775,-1.609 9.098,-2.272M-30.903,18.731C-31.128,19.594 -31.349,20.445 -31.576,21.322C-30.341,20.851 -29.173,20.405 -28.021,19.966C-28.956,19.565 -29.891,19.165 -30.903,18.731M-20.978,-20.241C-21.269,-19.075 -21.551,-17.943 -21.853,-16.735C-21.395,-16.638 -20.995,-16.554 -20.582,-16.467C-20.349,-17.733 -20.138,-18.88 -19.927,-20.025C-20.297,-20.101 -20.604,-20.164 -20.978,-20.241M1.472,-24.88C0.568,-24.225 -0.303,-23.592 -1.199,-22.941C-0.684,-22.861 -0.191,-22.784 0.333,-22.702C0.293,-22.151 0.254,-21.635 0.212,-21.057C1.656,-22.238 2.101,-23.642 1.472,-24.88M-8.243,29.819C-8.177,29.803 -8.11,29.788 -8.043,29.773C-8.271,28.268 -8.499,26.763 -8.748,25.115C-9.384,25.763 -9.876,26.264 -10.373,26.771C-9.646,27.812 -8.944,28.815 -8.243,29.819M-20.215,0.024C-21.051,-0.354 -21.789,-0.687 -22.606,-1.056C-22.85,0.166 -23.08,1.323 -23.34,2.629C-22.238,1.71 -21.271,0.904 -20.215,0.024M-25.098,-17.83C-25.896,-17.074 -25.895,-17.074 -25.46,-16.181C-25.305,-15.863 -25.16,-15.541 -25.011,-15.22C-24.635,-14.419 -24.258,-13.619 -23.834,-12.717C-23.656,-13.396 -23.504,-13.948 -23.37,-14.506C-23.342,-14.623 -23.34,-14.781 -23.396,-14.88C-23.952,-15.864 -24.523,-16.839 -25.098,-17.83M-46.121,27.228C-45.755,26.589 -45.396,25.985 -45.063,25.367C-45.003,25.253 -45.001,25.074 -45.04,24.947C-45.244,24.292 -45.471,23.645 -45.707,22.94C-46.334,24.109 -46.944,25.246 -47.582,26.435C-47.096,26.699 -46.646,26.943 -46.121,27.228M-18.529,-27.552C-18.564,-27.569 -18.601,-27.586 -18.636,-27.604C-18.949,-27.002 -19.365,-26.43 -19.557,-25.791C-19.996,-24.326 -20.336,-22.83 -20.698,-21.342C-20.903,-20.502 -20.765,-20.368 -19.834,-20.484C-19.401,-22.829 -18.965,-25.19 -18.529,-27.552M-48.439,25.96C-47.534,24.204 -46.657,22.506 -45.75,20.747C-47.388,22.015 -48.672,23.549 -49.961,25.154C-49.427,25.437 -48.926,25.703 -48.439,25.96M-23.503,-10.188C-23.668,-9.525 -23.828,-8.894 -23.98,-8.261C-24.023,-8.084 -24.135,-7.848 -24.063,-7.731C-23.649,-7.046 -23.189,-6.389 -22.666,-5.602C-22.369,-7.15 -22.105,-8.528 -21.845,-9.888C-22.424,-9.993 -22.929,-10.084 -23.503,-10.188M-23.968,5.728C-23.93,5.744 -23.891,5.76 -23.853,5.776C-22.614,4.517 -21.402,3.231 -20.125,2.013C-19.615,1.527 -19.471,1.003 -19.514,0.253C-20.855,1.383 -22.136,2.458 -23.412,3.538C-23.479,3.595 -23.54,3.686 -23.559,3.771C-23.701,4.422 -23.833,5.075 -23.968,5.728M-38.236,42.471C-38.065,41.697 -37.539,41.015 -37.951,40.139C-39.111,37.676 -40.203,35.18 -41.323,32.698C-41.437,32.448 -41.558,32.201 -41.675,31.952C-41.691,31.965 -41.709,31.977 -41.727,31.989C-40.563,35.483 -39.399,38.977 -38.236,42.471M1.154,-0.719C0.323,-0.215 -0.462,0.261 -1.058,0.623C-0.515,1.833 -0.006,2.967 0.564,4.237C0.795,3.716 1.088,3.338 1.111,2.945C1.183,1.762 1.147,0.573 1.154,-0.719M-36.915,28.486C-36.586,30.283 -36.271,32.007 -35.955,33.73C-35.909,33.732 -35.863,33.735 -35.817,33.737C-35.354,31.992 -34.889,30.247 -34.41,28.446C-35.276,28.46 -36.07,28.472 -36.915,28.486M-27.666,6.19C-27.999,7.489 -28.317,8.73 -28.67,10.104C-27.756,9.573 -27.021,9.046 -26.21,8.702C-25.355,8.339 -25.248,7.693 -25.215,6.989C-26.03,6.723 -26.804,6.471 -27.666,6.19M-48.555,-16.265C-48.327,-16.499 -48.174,-16.729 -47.961,-16.865C-46.78,-17.617 -47.001,-18.629 -47.417,-19.676C-47.479,-19.833 -47.609,-19.998 -47.753,-20.08C-48.446,-20.472 -49.154,-20.837 -49.861,-21.214C-49.435,-19.596 -49.004,-17.966 -48.555,-16.265M1.031,-25.613C0.997,-25.624 0.93,-25.665 0.861,-25.665C-0.255,-25.675 -1.383,-25.781 -2.482,-25.647C-3.106,-25.57 -3.685,-25.102 -4.277,-24.8C-4.323,-24.777 -4.347,-24.666 -4.343,-24.597C-4.324,-24.176 -4.294,-23.755 -4.263,-23.25C-3.787,-23.285 -3.311,-23.193 -2.973,-23.368C-1.62,-24.068 -0.311,-24.851 1.031,-25.613M-40.879,-16.645C-42.128,-17.229 -43.408,-17.837 -44.697,-18.424C-45.02,-18.571 -45.686,-18.167 -45.651,-17.85C-45.563,-17.029 -45.437,-16.212 -45.338,-15.482C-43.839,-15.873 -42.382,-16.253 -40.879,-16.645M-30.372,-36.13C-31.012,-35.819 -31.473,-35.594 -31.949,-35.362C-31.049,-33.926 -30.174,-32.53 -29.26,-31.071C-28.957,-31.518 -28.686,-31.892 -28.449,-32.287C-28.387,-32.392 -28.383,-32.592 -28.441,-32.698C-29.067,-33.835 -29.711,-34.962 -30.372,-36.13M-24.371,7.54C-22.893,6.953 -21.509,6.407 -20.129,5.851C-20.046,5.818 -19.946,5.704 -19.939,5.621C-19.858,4.614 -19.793,3.605 -19.713,2.435C-21.263,4.036 -22.703,5.518 -24.131,7.012C-24.246,7.132 -24.278,7.329 -24.371,7.54M-23.084,-15.65C-22.453,-18.172 -21.852,-20.576 -21.211,-23.136C-22.397,-21.519 -23.479,-20.052 -24.545,-18.572C-24.616,-18.474 -24.613,-18.25 -24.551,-18.139C-24.101,-17.344 -23.627,-16.563 -23.084,-15.65M-21.872,-16.393C-21.996,-16.011 -22.131,-15.665 -22.222,-15.308C-22.567,-13.953 -22.895,-12.593 -23.238,-11.238C-23.409,-10.563 -23.373,-10.49 -22.682,-10.354C-22.554,-10.328 -22.42,-10.335 -22.292,-10.31C-21.871,-10.225 -21.725,-10.392 -21.651,-10.819C-21.378,-12.418 -21.052,-14.008 -20.749,-15.602C-20.717,-15.774 -20.707,-15.952 -20.689,-16.101C-21.118,-16.207 -21.478,-16.295 -21.872,-16.393M1.159,-21.1C0.894,-20.856 0.614,-20.633 0.382,-20.37C0.247,-20.217 0.119,-20.004 0.104,-19.809C-0.133,-16.77 -0.164,-13.73 0.059,-10.688C0.089,-10.282 0.253,-10.175 0.588,-10.234C0.779,-13.866 0.969,-17.479 1.159,-21.1M-19.618,-16.536C-16.64,-20.089 -13.721,-23.572 -10.735,-27.133C-10.868,-27.045 -10.921,-27.02 -10.96,-26.982C-13.629,-24.397 -16.297,-21.811 -18.962,-19.221C-19.053,-19.133 -19.155,-19.021 -19.179,-18.905C-19.332,-18.141 -19.465,-17.373 -19.618,-16.536M-32.525,12.554C-36.816,10.75 -40.976,9.001 -45.135,7.252C-45.162,7.314 -45.19,7.376 -45.218,7.437C-44.858,7.619 -44.495,7.792 -44.141,7.984C-40.844,9.767 -37.55,11.555 -34.249,13.332C-34.111,13.406 -33.879,13.449 -33.759,13.383C-33.388,13.178 -33.049,12.914 -32.525,12.554M-38.866,25.574C-39.335,23.811 -40.008,22.178 -41.15,20.778C-41.463,20.395 -41.879,20.091 -42.268,19.774C-42.644,19.468 -43.051,19.528 -43.349,19.664C-42.264,21.905 -41.192,24.116 -40.104,26.363C-39.718,26.117 -39.298,25.849 -38.866,25.574M5.53,-6.895C4.057,-6.188 2.678,-5.534 1.309,-4.857C1.169,-4.788 0.985,-4.56 1.011,-4.447C1.183,-3.657 1.404,-2.879 1.624,-2.047C2.943,-2.747 4.106,-3.448 4.966,-4.55C5.463,-5.189 5.736,-5.896 5.53,-6.895M-2.895,-35.974C-3.628,-36.213 -4.388,-36.469 -5.154,-36.701C-5.268,-36.735 -5.466,-36.696 -5.541,-36.614C-6.332,-35.76 -7.054,-34.846 -7.371,-33.705C-7.604,-32.868 -7.524,-32.061 -6.93,-31.484C-5.546,-33.024 -4.192,-34.53 -2.895,-35.974M0.354,-7.873C1.324,-7.899 2.219,-7.923 3.113,-7.947C3.116,-7.911 3.119,-7.874 3.121,-7.837C2.228,-7.677 1.334,-7.516 0.424,-7.353C0.495,-6.954 0.56,-6.596 0.638,-6.156C2.718,-6.968 4.716,-7.749 6.714,-8.53C6.701,-8.59 6.688,-8.649 6.676,-8.708C4.518,-9.061 2.359,-9.413 0.131,-9.777C0.215,-9.06 0.282,-8.489 0.354,-7.873M-15.378,-10.396C-17.449,-8.922 -19.45,-7.512 -21.435,-6.079C-21.959,-5.7 -21.992,-4.463 -21.521,-3.906C-19.315,-5.774 -17.109,-7.641 -14.863,-9.541C-15.021,-9.803 -15.171,-10.052 -15.378,-10.396M-11.077,-16.712C-12.063,-15.009 -12.914,-13.233 -13.121,-11.256C-13.211,-10.407 -13.102,-9.511 -12.928,-8.669C-12.798,-8.039 -12.283,-7.616 -11.455,-7.375C-11.326,-10.552 -11.202,-13.633 -11.077,-16.712M-24.192,-11.023C-24.179,-11.385 -24.084,-11.667 -24.174,-11.869C-24.853,-13.404 -25.567,-14.923 -26.279,-16.465C-27.272,-15.522 -28.227,-14.616 -29.236,-13.658C-27.731,-12.504 -25.901,-12.025 -24.192,-11.023M-37.213,34.516C-37.151,34.489 -37.091,34.463 -37.029,34.437C-37.328,32.79 -37.619,31.142 -37.929,29.498C-38.127,28.45 -38.14,28.451 -39.183,28.49C-39.209,28.491 -39.233,28.534 -39.287,28.583C-38.941,29.454 -38.592,30.337 -38.241,31.221C-38.796,30.448 -39.253,29.634 -39.728,28.83C-39.812,28.687 -39.966,28.494 -40.099,28.485C-40.806,28.437 -41.517,28.439 -42.226,28.424C-42.25,28.469 -42.274,28.513 -42.299,28.558C-40.604,30.544 -38.908,32.53 -37.213,34.516M-41.935,29.896C-40.465,33.086 -38.965,36.339 -37.418,39.695C-37.088,38.48 -36.777,37.37 -36.494,36.254C-36.461,36.126 -36.539,35.923 -36.634,35.817C-38.405,33.825 -40.188,31.844 -41.935,29.896M-51.94,-0.074C-49.374,1.071 -46.86,2.192 -44.338,3.318C-44.101,2.245 -44.098,2.241 -44.911,1.69C-45.574,1.241 -46.225,0.767 -46.917,0.367C-48.061,-0.294 -49.229,-0.916 -50.401,-1.523C-50.54,-1.595 -50.857,-1.543 -50.954,-1.43C-51.303,-1.023 -51.592,-0.565 -51.94,-0.074M-19.588,28.38C-19.837,29.145 -20.073,29.827 -20.273,30.52C-20.311,30.649 -20.246,30.854 -20.156,30.967C-18.354,33.24 -16.253,35.226 -14.093,37.235C-13.943,36.75 -13.942,36.386 -14.235,35.985C-15.471,34.295 -16.676,32.583 -17.883,30.873C-18.449,30.069 -18.993,29.25 -19.588,28.38M-30.896,-28.763C-30.541,-29.258 -30.205,-29.682 -29.926,-30.14C-29.841,-30.28 -29.835,-30.571 -29.926,-30.697C-30.927,-32.086 -31.953,-33.457 -33.001,-34.869C-33.586,-34.598 -34.2,-34.313 -34.827,-34.022C-33.989,-31.892 -32.529,-30.317 -30.896,-28.763M-10.809,-38.448C-10.841,-36.755 -10.679,-35.16 -10.096,-33.645C-9.864,-33.044 -9.52,-32.471 -9.137,-31.951C-8.751,-31.426 -8.175,-31.166 -7.417,-31.176C-7.943,-32.001 -8.131,-32.831 -7.893,-33.73C-7.875,-33.799 -7.887,-33.879 -7.897,-33.952C-8.067,-35.097 -8.232,-36.242 -8.42,-37.384C-8.442,-37.517 -8.563,-37.699 -8.681,-37.742C-9.363,-37.99 -10.059,-38.204 -10.809,-38.448M-27.818,19.72C-27.401,17.738 -27.029,15.971 -26.646,14.158C-27.628,14.164 -28.538,14.156 -29.447,14.188C-29.576,14.192 -29.773,14.368 -29.811,14.5C-30.13,15.652 -30.428,16.811 -30.711,17.973C-30.741,18.1 -30.687,18.344 -30.599,18.388C-29.724,18.83 -28.833,19.24 -27.818,19.72M-25.464,-2.427C-25.749,-1.324 -26.025,-0.333 -26.253,0.668C-26.323,0.98 -26.324,1.335 -26.251,1.646C-25.974,2.828 -25.646,3.998 -25.356,5.177C-25.319,5.33 -25.4,5.511 -25.426,5.679C-25.59,5.629 -25.784,5.619 -25.912,5.521C-26.336,5.197 -26.736,4.842 -27.164,4.482C-27.293,4.877 -27.428,5.206 -27.496,5.548C-27.52,5.663 -27.405,5.894 -27.302,5.931C-26.597,6.19 -25.877,6.411 -25.104,6.663C-24.542,3.859 -24.012,1.207 -23.476,-1.472C-24.14,-1.792 -24.771,-2.094 -25.464,-2.427M-44.225,20.035C-44.42,20.27 -44.724,20.546 -44.914,20.886C-45.356,21.672 -45.23,22.516 -45.023,23.34C-44.583,25.093 -43.676,26.608 -42.595,28.033C-42.005,27.632 -41.425,27.238 -40.915,26.891C-42.027,24.587 -43.111,22.341 -44.225,20.035M-50.545,-25.601C-47.256,-24.864 -44.309,-23.36 -41.232,-22.054C-41.21,-22.574 -41.169,-23.038 -41.181,-23.5C-41.184,-23.655 -41.281,-23.871 -41.405,-23.949C-43.037,-24.976 -44.707,-25.954 -46.616,-26.347C-47.532,-26.535 -48.496,-26.527 -49.438,-26.535C-49.992,-26.539 -50.349,-26.163 -50.545,-25.601M-37.308,-14.198C-37.48,-14.843 -37.887,-15.224 -38.534,-15.27C-39.273,-15.323 -40.025,-15.399 -40.759,-15.326C-42.413,-15.163 -43.959,-14.596 -45.444,-13.865C-46.206,-13.49 -46.96,-13.099 -47.795,-12.677C-47.465,-12.491 -47.222,-12.39 -47.021,-12.234C-46.375,-11.733 -45.747,-11.8 -44.999,-12.07C-42.506,-12.973 -40,-13.854 -37.308,-14.198M-19.847,26.998C-19.777,27.024 -19.708,27.05 -19.64,27.076C-17.939,24.728 -16.24,22.379 -14.457,19.915C-15.248,19.907 -15.831,19.954 -16.398,19.881C-16.984,19.805 -17.217,20.079 -17.421,20.559C-17.82,21.494 -18.271,22.407 -18.701,23.329C-18.746,23.312 -18.791,23.294 -18.835,23.277C-18.474,22.168 -18.112,21.06 -17.748,19.943C-18.15,19.867 -18.174,19.837 -18.978,18.601C-19.268,21.4 -19.557,24.199 -19.847,26.998M-33.686,-30.4C-34.387,-29.115 -35.008,-27.904 -35.699,-26.733C-36.397,-25.551 -37.165,-24.411 -37.917,-23.229C-37.479,-22.917 -37.073,-22.629 -36.537,-22.248C-35.054,-23.908 -33.575,-25.557 -32.11,-27.217C-32.036,-27.301 -32.013,-27.517 -32.067,-27.614C-32.587,-28.538 -33.129,-29.449 -33.686,-30.4M-8.649,22.008C-9.306,21.345 -9.94,20.694 -10.589,20.058C-10.668,19.981 -10.824,19.953 -10.945,19.95C-11.82,19.933 -12.695,19.922 -13.57,19.926C-13.7,19.926 -13.886,19.978 -13.951,20.072C-14.365,20.662 -14.752,21.27 -15.105,21.809C-14.009,22.799 -12.964,23.743 -11.882,24.72C-10.847,23.852 -9.767,22.946 -8.649,22.008M-51.573,-23.553C-52.552,-23.151 -53.099,-22.45 -53.24,-21.457C-53.521,-19.481 -52.917,-17.664 -52.25,-15.842C-51.904,-14.898 -51.26,-14.416 -50.356,-14.113C-50.129,-14.386 -49.923,-14.676 -49.673,-14.923C-49.355,-15.237 -49.328,-15.539 -49.478,-15.964C-50.344,-18.427 -51.229,-20.886 -51.573,-23.553M6.392,-6.015C6.022,-2.496 5.329,0.982 5.792,4.548C6.626,3.708 7.675,3.041 7.863,1.705C7.938,1.173 8.15,0.661 8.242,0.129C8.486,-1.291 8.647,-2.719 8.223,-4.136C7.936,-5.09 7.347,-5.757 6.392,-6.015M-1.825,3.573C-1.848,3.595 -1.871,3.616 -1.894,3.638C-1.976,3.572 -2.062,3.509 -2.138,3.437C-3.508,2.144 -4.872,0.845 -6.25,-0.44C-6.416,-0.595 -6.64,-0.759 -6.851,-0.779C-7.384,-0.831 -7.926,-0.803 -8.453,-0.807C-8.593,-0.298 -8.62,-0.258 -8.178,0.055C-6.154,1.486 -4.12,2.903 -2.075,4.303C-1.453,4.729 -0.784,5.086 -0.165,5.458C0.271,5.015 0.231,4.642 -0.024,4.191C-0.882,2.681 -1.696,1.147 -2.537,-0.372C-2.619,-0.521 -2.769,-0.732 -2.896,-0.739C-3.689,-0.779 -4.486,-0.769 -5.375,-0.775C-4.146,0.73 -2.985,2.152 -1.825,3.573M-46.598,-8.487C-43.769,-8.678 -41.069,-8.967 -38.681,-10.464C-38.219,-10.754 -37.81,-11.169 -37.47,-11.601C-37.042,-12.144 -36.935,-12.8 -37.106,-13.516C-37.536,-13.33 -37.914,-13.118 -38.318,-13.001C-40.468,-12.38 -42.624,-11.786 -44.775,-11.175C-44.965,-11.122 -45.227,-11.069 -45.306,-10.931C-45.747,-10.16 -46.142,-9.362 -46.598,-8.487M-19.556,-0.588C-19.495,-0.587 -19.435,-0.585 -19.375,-0.584C-19.221,-1.519 -19.067,-2.454 -18.91,-3.414C-18.501,-3.367 -18.136,-3.379 -17.804,-3.278C-16.742,-2.958 -15.942,-3.302 -15.057,-3.946C-14.131,-4.618 -13.74,-5.275 -14.055,-6.386C-14.274,-7.161 -14.375,-7.969 -14.552,-8.875C-16.833,-6.941 -18.991,-5.112 -21.172,-3.263C-20.612,-2.336 -20.084,-1.462 -19.556,-0.588M-44.446,5.392C-44.414,5.009 -44.403,4.621 -44.342,4.241C-44.276,3.839 -44.407,3.654 -44.809,3.527C-47.357,2.721 -49.896,1.884 -52.442,1.073C-52.576,1.031 -52.818,1.09 -52.909,1.191C-53.416,1.756 -53.892,2.348 -54.379,2.931C-52.568,4.307 -48.112,5.087 -44.446,5.392M-13.989,36.104C-13.363,33.447 -13.456,32.425 -14.539,29.812C-14.789,29.209 -15.013,28.586 -15.338,28.025C-15.942,26.985 -16.612,25.985 -17.306,24.888C-17.85,25.594 -18.262,26.166 -18.715,26.704C-18.938,26.969 -18.903,27.158 -18.744,27.437C-17.803,29.091 -16.876,30.754 -15.96,32.422C-15.307,33.611 -14.679,34.814 -13.989,36.104M-31.137,34.833C-30.634,32.587 -30.144,30.391 -29.644,28.155C-30.869,28.238 -32.019,28.307 -33.165,28.403C-33.288,28.413 -33.473,28.555 -33.504,28.67C-33.913,30.144 -34.308,31.623 -34.678,33.108C-34.714,33.253 -34.613,33.529 -34.491,33.602C-33.476,34.204 -32.404,34.676 -31.137,34.833M-3.271,25.181C-3.229,25.149 -3.188,25.117 -3.146,25.085C-4.153,21.41 -5.147,17.727 -6.734,14.246C-7.2,13.223 -7.83,12.275 -8.385,11.294C-8.45,11.324 -8.516,11.354 -8.581,11.385C-8.153,15.065 -7.544,18.696 -5.599,21.971C-6.073,21.421 -6.478,20.844 -6.906,20.283C-7.008,20.151 -7.182,20.004 -7.333,19.992C-7.786,19.956 -8.245,19.982 -8.873,19.985C-6.928,21.79 -5.1,23.485 -3.271,25.181M-8.022,31.188C-10.282,27.966 -12.205,24.622 -15.488,22.357C-15.997,23.069 -16.469,23.73 -16.923,24.365C-15.19,26.078 -13.441,27.683 -11.845,29.429C-10.84,30.528 -9.755,31.218 -8.255,31.189C-8.236,31.188 -8.217,31.189 -8.022,31.188M-64.459,3.796C-66.42,5.074 -68.239,6.26 -70.059,7.446C-70.083,7.411 -70.106,7.376 -70.131,7.342C-68.495,5.938 -66.86,4.534 -65.182,3.093C-65.908,2.581 -66.584,2.105 -67.362,1.556C-69.48,4.202 -71.548,6.784 -73.614,9.367C-73.422,9.471 -73.347,9.471 -73.281,9.446C-70.885,8.493 -68.489,7.539 -66.097,6.578C-65.966,6.525 -65.811,6.437 -65.75,6.323C-65.333,5.539 -64.938,4.743 -64.459,3.796M-38.815,-20.465C-39.352,-20.829 -39.729,-20.86 -40.04,-20.285C-40.225,-19.943 -40.489,-19.643 -40.741,-19.343C-40.822,-19.247 -41,-19.141 -41.091,-19.171C-41.184,-19.2 -41.272,-19.39 -41.278,-19.513C-41.296,-19.904 -41.311,-20.301 -41.258,-20.687C-41.194,-21.155 -41.339,-21.372 -41.811,-21.512C-43.206,-21.928 -44.601,-22.359 -45.965,-22.866C-47.398,-23.398 -48.798,-24.021 -50.209,-24.612C-50.419,-24.699 -50.614,-24.824 -50.832,-24.94C-51.102,-23.872 -50.829,-23.003 -50.104,-22.312C-49.637,-21.866 -49.105,-21.47 -48.553,-21.134C-46.776,-20.053 -44.767,-19.671 -42.764,-19.289C-41.995,-19.142 -41.216,-19.054 -40.44,-18.941C-40.394,-18.934 -40.345,-18.941 -40.224,-18.943C-40.366,-19.084 -40.465,-19.18 -40.569,-19.283C-39.98,-19.68 -39.416,-20.06 -38.815,-20.465M-3.184,-38.855C-2.601,-38.186 -2.13,-37.646 -1.649,-37.094C-0.333,-38.327 0.94,-39.519 2.214,-40.712C2.242,-40.683 2.271,-40.655 2.299,-40.626C1.171,-39.243 0.042,-37.86 -1.101,-36.458C-1.056,-36.396 -1.014,-36.355 -0.994,-36.306C-0.924,-36.128 -0.861,-35.947 -0.797,-35.766C-0.98,-35.744 -1.165,-35.723 -1.349,-35.698C-1.504,-35.676 -1.722,-35.707 -1.804,-35.616C-2.714,-34.614 -3.602,-33.593 -4.532,-32.536C-4.107,-32.567 -3.728,-32.669 -3.378,-32.606C-2.217,-32.396 -1.535,-33.013 -0.974,-33.888C-0.963,-33.904 -0.952,-33.919 -0.942,-33.935C0.33,-36.043 1.627,-38.136 2.864,-40.264C3.488,-41.337 4.003,-42.473 4.566,-43.581C4.525,-43.625 4.483,-43.67 4.442,-43.715C1.93,-42.114 -0.583,-40.513 -3.184,-38.855M-45.054,-8.013C-45.058,-7.833 -45.063,-7.668 -45.065,-7.503C-45.084,-6.309 -45.093,-5.115 -45.127,-3.921C-45.132,-3.759 -45.26,-3.6 -45.331,-3.44C-45.479,-3.531 -45.662,-3.592 -45.769,-3.718C-45.972,-3.96 -46.131,-4.239 -46.308,-4.503C-46.757,-5.177 -47.205,-5.853 -47.679,-6.565C-48.489,-5.259 -49.253,-4.027 -49.961,-2.884C-47.983,-1.731 -46.029,-0.593 -44.04,0.567C-43.658,-2.426 -43.355,-5.446 -42.364,-8.395C-43.307,-8.261 -44.168,-8.139 -45.054,-8.013M2.594,-9.92C2.81,-10.582 3.013,-11.219 3.226,-11.854C3.944,-13.999 4.687,-16.141 4.843,-18.422C4.933,-19.731 4.937,-21.042 4.341,-22.265C3.962,-23.043 3.366,-23.546 2.494,-23.688C2.59,-19.1 1.524,-14.686 0.892,-10.169C1.447,-10.088 1.974,-10.011 2.594,-9.92M-22.072,-33.763C-21.695,-34.22 -21.329,-34.641 -20.994,-35.087C-20.913,-35.195 -20.888,-35.397 -20.924,-35.534C-21.382,-37.302 -21.856,-39.067 -22.3,-40.729C-24.611,-39.367 -27.03,-37.941 -29.409,-36.54C-28.812,-35.627 -28.196,-34.684 -27.55,-33.696C-27.087,-34.46 -26.638,-35.201 -26.17,-35.973C-24.792,-35.23 -23.463,-34.513 -22.072,-33.763M-68.557,15.004C-65.276,12.627 -62.067,10.195 -59.261,7.301C-59.813,6.923 -60.325,6.571 -60.854,6.209C-62.512,8.174 -64.143,10.106 -65.774,12.039C-65.812,12.011 -65.849,11.983 -65.887,11.955C-64.513,9.833 -63.139,7.71 -61.744,5.555C-62.46,5.045 -63.151,4.554 -63.896,4.024C-65.892,7.552 -67.241,11.263 -68.557,15.004M-51.57,-38.399C-51.352,-38.306 -51.293,-38.271 -51.229,-38.255C-49.159,-37.758 -47.089,-37.259 -45.016,-36.772C-44.808,-36.723 -44.552,-36.684 -44.366,-36.759C-43.663,-37.044 -42.979,-37.378 -42.29,-37.694L-42.369,-37.9C-44.273,-37.963 -46.177,-38.025 -48.081,-38.088C-43.896,-38.541 -39.731,-39.222 -35.489,-38.912C-35.595,-39.743 -36.052,-40.317 -36.792,-40.667C-38.124,-41.298 -39.55,-41.334 -40.966,-41.173C-44.573,-40.763 -47.978,-39.552 -51.57,-38.399M-45.09,18.135C-44.976,17.19 -45.546,16.361 -46.646,15.866C-48.057,15.231 -49.559,14.968 -51.075,15.087C-53.621,15.288 -56.157,15.612 -58.694,15.908C-59.461,15.998 -60.218,16.169 -61.083,16.322C-60.911,16.433 -60.854,16.484 -60.787,16.511C-58.703,17.335 -56.619,18.158 -54.532,18.976C-54.433,19.015 -54.302,19.045 -54.208,19.013C-53.462,18.757 -52.72,18.485 -51.848,18.171C-53.866,17.81 -55.736,17.476 -57.605,17.142C-53.415,17.286 -49.212,17.223 -45.09,18.135M-0.627,6.596C-0.694,6.54 -0.745,6.487 -0.806,6.449C-2.292,5.52 -3.774,4.585 -5.273,3.676C-5.397,3.601 -5.668,3.642 -5.803,3.731C-6.723,4.338 -7.614,4.987 -8.538,5.588C-8.849,5.79 -8.928,6.058 -8.839,6.34C-8.781,6.521 -8.563,6.677 -8.381,6.783C-8.076,6.96 -7.731,7.068 -7.422,7.238C-5.448,8.323 -3.966,9.941 -2.614,11.698C-2.338,12.058 -2.063,12.419 -1.701,12.893C-2.073,10.57 -1.444,8.572 -0.627,6.596M2.771,7.817C3.937,6.782 4.837,5.694 4.522,4.051C4.494,3.907 4.527,3.753 4.525,3.603C4.504,1.969 4.48,0.334 4.455,-1.461C4.277,-1.222 4.192,-1.128 4.13,-1.021C3.37,0.265 2.583,1.537 1.863,2.845C0.685,4.989 -0.524,7.126 -1.072,9.546C-1.316,10.626 -1.475,11.721 -1.139,12.813C-0.915,13.538 -0.475,14.064 0.314,14.299C0.27,12.294 3.326,3.042 3.86,2.239C3.493,4.117 3.137,5.944 2.771,7.817M-20.022,10.396C-22.63,10.976 -25.195,11.546 -27.761,12.116C-27.735,11.985 -27.686,11.958 -27.634,11.939C-25.258,11.089 -22.881,10.245 -20.51,9.384C-20.328,9.318 -20.062,9.15 -20.05,9.01C-19.993,8.41 -20.017,7.802 -20.011,7.114C-24.191,8.771 -27.849,11.155 -31.587,13.533C-29.279,13.849 -20.862,13.421 -19.875,12.947C-19.924,12.101 -19.973,11.249 -20.022,10.396M-45.501,19.612C-45.783,18.915 -46.399,18.563 -47.128,18.38C-48.238,18.099 -49.356,18.204 -50.462,18.416C-52.759,18.856 -54.869,19.828 -56.979,20.783C-58.406,21.429 -59.806,22.136 -61.217,22.815C-59.614,23.089 -58.038,23.245 -56.462,23.395C-55.744,23.464 -54.961,23.671 -54.76,22.566C-54.425,22.744 -54.169,22.889 -53.905,23.019C-53.521,23.207 -53.146,23.496 -52.743,23.54C-52.045,23.616 -51.328,23.545 -50.62,23.516C-50.512,23.512 -50.365,23.429 -50.31,23.338C-49.974,22.791 -49.66,22.231 -49.333,21.666C-52.136,22 -54.898,22.33 -57.662,22.66C-56.596,22.263 -55.513,21.981 -54.425,21.721C-51.467,21.017 -48.507,20.322 -45.501,19.612M-47.24,-32.649L-47.296,-32.745C-47.219,-32.787 -47.145,-32.836 -47.063,-32.869C-45.28,-33.594 -43.503,-34.331 -41.712,-35.034C-40.6,-35.472 -39.439,-35.797 -38.353,-36.285C-37.483,-36.676 -36.749,-37.39 -35.634,-37.272C-35.963,-37.635 -36.292,-37.96 -36.686,-38.15C-37.458,-38.521 -38.29,-38.439 -39.106,-38.297C-40.634,-38.031 -42.064,-37.481 -43.382,-36.68C-45.85,-35.178 -48.289,-33.63 -50.741,-32.102L-50.662,-31.925C-50.521,-31.917 -50.38,-31.9 -50.24,-31.905C-49.233,-31.94 -48.223,-31.934 -47.222,-32.029C-44.977,-32.243 -42.735,-32.501 -40.495,-32.764C-40.287,-32.788 -40.001,-32.925 -39.918,-33.093C-39.649,-33.637 -39.459,-34.22 -39.227,-34.817C-41.914,-34.09 -44.577,-33.37 -47.24,-32.649M10.465,0.868C9.603,1.665 8.728,2.45 7.88,3.262C6.072,4.993 4.256,6.72 2.815,8.784C1.997,9.957 1.323,11.209 1.215,12.675C1.161,13.395 1.344,14.045 1.989,14.56C2.083,13.641 2.489,12.978 3.158,12.46C3.302,12.349 3.42,12.195 3.523,12.043C5.275,9.465 7.022,6.884 8.773,4.305C8.853,4.19 8.955,4.09 9.047,3.983C9.065,3.998 9.085,4.012 9.104,4.026C7.785,6.51 6.467,8.995 5.117,11.538C5.692,11.446 6.201,11.325 6.717,11.296C7.117,11.273 7.303,11.089 7.449,10.749C8.814,7.582 9.71,4.269 10.465,0.868M-29.641,-8.307C-29.263,-7.375 -28.961,-6.59 -28.621,-5.823C-28.539,-5.639 -28.358,-5.459 -28.178,-5.365C-26.539,-4.509 -24.893,-3.665 -23.24,-2.835C-22.554,-2.489 -21.848,-2.183 -21.057,-1.816C-21.112,-1.998 -21.118,-2.052 -21.144,-2.094C-23.157,-5.358 -25.192,-8.608 -27.733,-11.499C-28.329,-12.176 -29.032,-12.759 -29.67,-13.37C-30.066,-13.109 -30.381,-12.936 -30.654,-12.713C-30.958,-12.464 -31.188,-12.509 -31.487,-12.736C-32.169,-13.258 -32.88,-13.741 -33.578,-14.241C-34.191,-14.68 -34.256,-14.671 -34.776,-14.073C-30.858,-11.303 -27.735,-7.691 -24.34,-4.367C-24.372,-4.329 -24.404,-4.292 -24.437,-4.254C-26.138,-5.578 -27.837,-6.902 -29.641,-8.307M-8.692,7.212C-8.744,7.252 -8.796,7.292 -8.848,7.332C-8.804,8.149 -8.772,8.967 -8.705,9.782C-8.691,9.942 -8.563,10.12 -8.44,10.24C-6.84,11.806 -5.222,13.355 -3.626,14.926C-2.716,15.821 -1.839,16.75 -0.947,17.664C-0.972,17.69 -0.996,17.717 -1.02,17.744C-2.763,16.387 -4.506,15.029 -6.371,13.577C-6.225,13.923 -6.108,14.115 -6.06,14.324C-5.683,15.921 -4.657,16.863 -3.171,17.502C-1.344,18.289 0.414,19.236 2.202,20.114C2.246,20.077 2.29,20.04 2.334,20.004C2.264,19.918 2.185,19.839 2.123,19.747C0.69,17.581 -0.702,15.387 -2.183,13.255C-3.494,11.366 -4.915,9.551 -6.865,8.254C-7.447,7.867 -8.082,7.558 -8.692,7.212M20.128,-17.84C19.924,-18.051 19.841,-18.148 19.747,-18.232C18.419,-19.433 17.111,-20.657 15.754,-21.824C13.958,-23.369 12.139,-24.893 10.047,-26.036C9.517,-26.327 8.902,-26.718 8.355,-26.677C6.929,-26.569 5.519,-26.247 4.103,-26.007C4.087,-26.004 4.081,-25.948 4.07,-25.916C8.419,-24.157 12.349,-21.636 16.347,-19.237C14.293,-20.094 12.239,-20.95 10.187,-21.807C10.591,-21.144 11.073,-20.579 11.486,-19.966C11.751,-19.573 12.082,-19.402 12.526,-19.314C14.102,-19.003 15.669,-18.653 17.244,-18.34C18.151,-18.16 19.066,-18.022 20.128,-17.84M-35.518,-36.691C-35.948,-36.658 -36.365,-36.736 -36.657,-36.58C-37.186,-36.299 -37.729,-35.952 -38.104,-35.5C-39.028,-34.385 -39.48,-33.026 -39.777,-31.628C-40.374,-28.824 -40.527,-25.971 -40.666,-23.118C-40.692,-22.591 -40.703,-22.063 -40.721,-21.535C-40.507,-21.641 -40.39,-21.776 -40.289,-21.922C-39.566,-22.964 -38.797,-23.978 -38.139,-25.058C-37.023,-26.889 -35.966,-28.756 -34.912,-30.623C-34.488,-31.373 -34.231,-32.154 -34.905,-32.937C-35.057,-33.113 -35.099,-33.38 -35.215,-33.592C-35.276,-33.705 -35.39,-33.79 -35.471,-33.877C-36.728,-30.718 -37.962,-27.616 -39.195,-24.515C-39.24,-24.53 -39.284,-24.545 -39.328,-24.561C-38.179,-28.587 -37.352,-32.713 -35.518,-36.691M15.036,13.741C15.043,13.8 15.051,13.86 15.059,13.919C11.709,14.434 8.36,14.95 5.021,15.463C5.366,15.728 5.799,15.957 6.089,16.304C6.615,16.935 7.237,16.996 7.941,16.782C10.296,16.065 12.658,15.37 14.996,14.599C16.228,14.192 17.414,13.646 18.747,13.113C18.536,13.044 18.474,13.014 18.407,13.003C15.881,12.613 13.359,12.177 10.825,11.851C8.837,11.595 6.83,11.546 4.894,12.205C4.305,12.405 3.732,12.724 3.234,13.098C2.718,13.486 2.484,14.075 2.538,14.741C6.697,13.854 10.879,13.966 15.036,13.741M-19.847,13.703C-21.676,13.835 -23.479,13.974 -25.285,14.089C-25.609,14.109 -25.723,14.219 -25.78,14.537C-25.944,15.437 -26.159,16.328 -26.347,17.224C-26.521,18.055 -26.686,18.887 -26.867,19.786C-24.047,19.425 -21.851,19.944 -21.373,23.266C-21.035,22.572 -20.738,21.916 -20.608,21.229C-20.35,19.854 -20.198,18.459 -19.972,17.077C-19.785,15.943 -19.407,14.822 -19.847,13.703M1.646,15.846C3.955,17.996 9.508,24.302 10.049,25.44C6.954,22.42 3.702,19.748 1.168,16.35C0.856,16.53 0.898,16.734 1.076,17.018C1.99,18.475 2.924,19.921 3.763,21.42C4.076,21.98 4.438,22.429 4.959,22.767C7.289,24.281 9.623,25.791 11.958,27.297C12.176,27.437 12.415,27.543 12.645,27.665C11.211,24.583 9.704,21.599 7.761,18.863C6.91,17.667 5.902,16.613 4.624,15.866C3.671,15.309 2.681,15.098 1.646,15.846M6.681,-6.551C7.713,-6.122 8.357,-5.462 8.713,-4.516C8.769,-4.367 8.904,-4.244 9.015,-4.119C10.175,-2.813 11.354,-1.523 12.496,-0.2C13.606,1.087 14.679,2.407 15.768,3.713C15.923,3.9 16.073,4.091 16.227,4.28C16.201,4.302 16.176,4.324 16.15,4.346C14.756,3.065 13.361,1.784 11.905,0.447C11.749,1.075 11.611,1.63 11.448,2.288C14.01,3.856 16.572,5.425 19.207,7.037C19.196,6.855 19.205,6.812 19.189,6.782C17.478,3.372 15.719,-0.013 13.466,-3.107C12.436,-4.522 11.217,-5.761 9.643,-6.582C8.706,-7.07 7.744,-7.207 6.681,-6.551M8.517,-7.93C12.444,-5.965 16.031,-3.399 19.71,-0.979C19.687,-0.938 19.664,-0.898 19.642,-0.858C17.709,-1.805 15.777,-2.752 13.751,-3.746C14.267,-2.981 14.707,-2.292 15.19,-1.634C15.342,-1.427 15.585,-1.221 15.825,-1.154C17.837,-0.585 19.857,-0.044 21.878,0.495C22.389,0.631 22.91,0.727 23.427,0.842C22.749,-0.029 22.026,-0.802 21.278,-1.551C19.154,-3.677 17.04,-5.82 14.562,-7.545C13.203,-8.491 11.745,-9.251 10.065,-9.439C9.378,-9.516 8.701,-9.446 8.145,-8.982C8.477,-8.815 8.774,-8.666 9.072,-8.517C8.895,-8.329 8.717,-8.141 8.517,-7.93M-0.073,-44.418C-0.262,-44.547 -0.314,-44.587 -0.371,-44.62C-2.194,-45.717 -3.992,-46.858 -5.849,-47.896C-7.998,-49.099 -10.164,-50.293 -12.604,-50.841C-13.776,-51.104 -14.958,-51.286 -16.148,-50.967C-17.021,-50.733 -17.657,-50.226 -17.945,-49.362C-13.081,-48.608 -8.625,-46.659 -4.05,-45.071C-6.233,-45.52 -8.416,-45.969 -10.75,-46.448C-10.035,-45.815 -9.467,-45.277 -8.857,-44.79C-8.63,-44.609 -8.309,-44.456 -8.026,-44.449C-6.013,-44.396 -3.998,-44.38 -1.984,-44.365C-1.397,-44.36 -0.81,-44.396 -0.073,-44.418M-64.19,-16.77C-64.216,-16.817 -64.241,-16.864 -64.268,-16.911C-60.608,-19.937 -57.196,-23.273 -53.027,-25.726C-53.221,-25.885 -53.393,-26.053 -53.589,-26.182C-54.499,-26.778 -55.452,-26.625 -56.388,-26.281C-57.978,-25.697 -59.367,-24.757 -60.497,-23.524C-62.285,-21.572 -63.987,-19.54 -65.69,-17.511C-66.441,-16.617 -67.106,-15.65 -67.853,-14.66C-67.705,-14.671 -67.648,-14.662 -67.603,-14.68C-65.171,-15.645 -62.739,-16.612 -60.311,-17.584C-60.193,-17.631 -60.051,-17.704 -59.997,-17.805C-59.569,-18.614 -59.16,-19.433 -58.685,-20.368C-60.602,-19.115 -62.396,-17.943 -64.19,-16.77M6.132,-28.344L6.117,-28.182C2.463,-28.376 -1.19,-28.571 -4.871,-28.767C-4.81,-28.438 -4.698,-28.076 -4.686,-27.711C-4.671,-27.283 -4.457,-27.116 -4.079,-27.08C-2.986,-26.976 -1.891,-26.78 -0.799,-26.793C2.196,-26.829 5.139,-27.367 8.078,-27.897C8.642,-27.999 9.202,-28.112 9.904,-28.247C9.619,-28.396 9.47,-28.499 9.306,-28.558C6.674,-29.514 4.052,-30.5 1.402,-31.403C-0.342,-31.998 -2.157,-32.284 -4.004,-32.04C-4.664,-31.953 -5.3,-31.688 -5.902,-31.518C-5.672,-31.003 -5.528,-30.616 -5.325,-30.261C-5.242,-30.115 -5.044,-29.965 -4.881,-29.942C-2.386,-29.601 0.115,-29.295 2.609,-28.947C3.789,-28.782 4.958,-28.547 6.132,-28.344M-62.842,-9.23C-62.809,-9.202 -62.775,-9.175 -62.743,-9.147C-62.651,-9.2 -62.553,-9.243 -62.471,-9.308C-60.378,-10.969 -58.269,-12.61 -56.207,-14.309C-55.614,-14.797 -55.165,-15.458 -54.639,-16.03C-54.563,-16.113 -54.407,-16.12 -54.325,-16.201C-53.99,-16.527 -53.401,-16.868 -53.4,-17.205C-53.398,-17.942 -53.698,-18.679 -53.878,-19.427C-55.944,-16.955 -57.986,-14.511 -60.029,-12.068C-60.083,-12.194 -60.066,-12.267 -60.027,-12.325C-58.217,-15.067 -56.405,-17.808 -54.59,-20.546C-54.353,-20.904 -53.988,-21.21 -53.858,-21.598C-53.524,-22.601 -53.064,-23.479 -51.954,-24.037C-52.277,-24.142 -52.445,-24.213 -52.621,-24.251C-53.531,-24.45 -54.32,-24.139 -55.043,-23.628C-56.204,-22.806 -57.102,-21.731 -57.856,-20.542C-59.246,-18.355 -60.221,-15.964 -61.184,-13.573C-61.763,-12.136 -62.291,-10.678 -62.842,-9.23M-2.902,-37.458C-2.882,-37.502 -2.862,-37.546 -2.842,-37.591C-3.247,-38.05 -3.648,-38.514 -4.059,-38.968C-6.313,-41.46 -8.563,-43.96 -11.224,-46.036C-12.602,-47.111 -14.093,-48.002 -15.873,-48.25C-16.787,-48.377 -17.609,-48.186 -18.299,-47.406C-17.212,-47.293 -16.422,-46.787 -15.828,-45.953C-15.745,-45.836 -15.611,-45.75 -15.489,-45.667C-13.563,-44.355 -11.625,-43.059 -9.709,-41.732C-8.609,-40.971 -7.544,-40.161 -6.463,-39.374L-6.536,-39.254C-9.301,-40.766 -12.065,-42.278 -14.895,-43.827C-14.793,-43.172 -14.654,-42.607 -14.632,-42.037C-14.612,-41.523 -14.39,-41.272 -13.929,-41.112C-11.144,-40.144 -8.368,-39.145 -5.577,-38.191C-4.704,-37.893 -3.795,-37.699 -2.902,-37.458M2.79,-24.227C3.858,-23.906 4.523,-23.269 4.948,-22.36C5.009,-22.23 5.12,-22.119 5.223,-22.013C7.684,-19.484 10.146,-16.958 12.607,-14.43C12.736,-14.297 12.852,-14.151 12.974,-14.011L12.895,-13.932C10.438,-15.963 7.981,-17.994 5.478,-20.065C5.444,-19.326 5.389,-18.676 5.401,-18.028C5.405,-17.812 5.527,-17.517 5.694,-17.398C8.954,-15.068 12.526,-13.29 16.158,-11.484C16.115,-11.622 16.105,-11.698 16.069,-11.759C14.138,-15.048 12.193,-18.33 9.738,-21.268C8.579,-22.654 7.257,-23.861 5.537,-24.531C4.626,-24.886 3.725,-24.913 2.79,-24.227M-26.463,3.227C-26.512,2.985 -26.531,2.823 -26.577,2.669C-27.248,0.433 -27.882,-1.816 -28.607,-4.035C-29.281,-6.096 -30.034,-8.134 -31.296,-9.932C-31.942,-10.854 -32.644,-11.731 -33.638,-12.304C-34.354,-12.718 -35.109,-12.875 -35.978,-12.489C-35.073,-11.894 -34.578,-11.119 -34.427,-10.123C-34.408,-9.999 -34.343,-9.876 -34.279,-9.764C-33.129,-7.732 -31.938,-5.721 -30.837,-3.664C-30.191,-2.459 -29.687,-1.18 -29.332,-0.403C-30.844,-2.552 -32.661,-5.137 -34.512,-7.768C-34.707,-7.168 -34.856,-6.596 -35.082,-6.055C-35.263,-5.619 -35.189,-5.317 -34.886,-4.957C-32.423,-2.035 -29.606,0.525 -26.76,3.056C-26.696,3.112 -26.611,3.143 -26.463,3.227M-28.039,41.342C-27.645,40.83 -27.244,40.322 -26.856,39.805C-24.796,37.055 -22.73,34.306 -21.195,31.213C-20.852,30.52 -20.622,29.77 -20.422,29.258C-20.583,29.287 -20.897,29.438 -21.028,29.341C-21.18,29.229 -21.231,28.896 -21.22,28.665C-21.155,27.434 -21.08,26.203 -20.96,24.977C-20.914,24.502 -21.089,24.29 -21.544,24.187C-22.043,26.56 -23.019,28.743 -23.986,30.926C-24.963,33.128 -25.976,35.313 -26.973,37.505L-27.09,37.463C-25.882,33.756 -24.673,30.048 -23.468,26.351C-24.21,26.669 -24.932,26.968 -25.644,27.29C-25.779,27.351 -25.923,27.483 -25.979,27.617C-26.164,28.065 -26.345,28.521 -26.468,28.989C-27.523,33.023 -27.82,37.162 -28.039,41.342M-18.502,-46.822C-17.955,-43.547 -17.356,-33.937 -17.719,-32.554C-18.258,-36.374 -18.797,-40.195 -19.327,-43.954C-19.785,-43.414 -20.283,-42.859 -20.739,-42.271C-20.882,-42.088 -21.005,-41.805 -20.977,-41.589C-20.854,-40.684 -20.723,-39.775 -20.502,-38.89C-19.642,-35.435 -18.357,-32.122 -17.038,-28.823C-16.986,-28.696 -16.99,-28.546 -16.968,-28.407C-16.902,-28.433 -16.837,-28.458 -16.771,-28.484C-16.538,-29.693 -16.289,-30.899 -16.075,-32.112C-15.591,-34.872 -15.114,-37.636 -15.107,-40.448C-15.103,-42.142 -15.309,-43.811 -16.136,-45.332C-16.632,-46.243 -17.366,-46.821 -18.502,-46.822M-42.041,1.34C-40.819,-2.407 -39.598,-6.155 -38.351,-9.98C-38.859,-9.714 -39.294,-9.37 -39.782,-9.255C-40.753,-9.027 -41.145,-8.382 -41.326,-7.506C-41.338,-7.451 -41.355,-7.397 -41.37,-7.343C-42.156,-4.446 -42.489,-1.475 -42.788,1.5C-42.91,2.711 -42.995,3.927 -43.109,5.289C-42.922,5.063 -42.834,4.968 -42.759,4.864C-41.145,2.624 -39.498,0.405 -37.93,-1.867C-36.814,-3.484 -35.848,-5.194 -35.314,-7.112C-35.032,-8.128 -34.823,-9.152 -35.033,-10.207C-35.2,-11.05 -35.64,-11.695 -36.436,-12.043C-37.692,-7.295 -39.992,-3.03 -42.041,1.34M-33.417,-35.466C-33.383,-35.432 -33.348,-35.399 -33.313,-35.365C-32.712,-35.655 -32.107,-35.939 -31.511,-36.237C-28.517,-37.732 -25.519,-39.223 -22.814,-41.219C-21.437,-42.235 -20.236,-43.431 -19.478,-45.003C-18.993,-46.007 -19.108,-47.08 -19.748,-47.785C-22.951,-44.133 -26.931,-41.378 -30.683,-38.36C-27.317,-41.81 -24.205,-45.521 -20.258,-48.384C-20.922,-49.165 -21.706,-48.875 -22.454,-48.583C-23.764,-48.071 -24.917,-47.262 -25.815,-46.211C-27.217,-44.57 -28.553,-42.862 -29.795,-41.096C-31.078,-39.273 -32.216,-37.347 -33.417,-35.466M-22.172,22.698C-24.762,23.759 -34.899,26.391 -36.244,26.313C-31.588,24.747 -27.186,22.788 -22.403,21.982C-22.56,21.218 -23.128,20.966 -23.814,20.872C-25.63,20.624 -27.354,21.035 -29.015,21.698C-32.12,22.937 -34.948,24.698 -37.773,26.458C-38.474,26.894 -39.162,27.346 -39.856,27.791C-39.839,27.857 -39.821,27.923 -39.805,27.989C-36.993,27.894 -34.18,27.829 -31.37,27.694C-29.333,27.596 -27.29,27.391 -25.401,26.556C-24.495,26.155 -23.629,25.602 -22.853,24.983C-22.161,24.431 -21.967,23.596 -22.172,22.698M-43.479,64.602C-41.967,65.095 -40.49,65.577 -38.94,66.082C-37.727,61.511 -36.525,56.99 -35.353,52.574C-36.808,52.1 -38.174,51.655 -39.569,51.2C-40.865,55.64 -42.17,60.112 -43.479,64.602M-34.869,33.929C-34.934,34.128 -35.024,34.371 -35.092,34.619C-35.621,36.585 -36.139,38.555 -36.675,40.519C-37.566,43.781 -38.469,47.04 -39.369,50.3C-39.446,50.582 -39.424,50.77 -39.113,50.93C-38.058,51.475 -36.961,51.861 -35.778,52.023C-35.339,52.083 -35.204,51.951 -35.108,51.539C-34.695,49.755 -34.231,47.984 -33.807,46.202C-32.959,42.64 -32.124,39.074 -31.288,35.509C-31.265,35.41 -31.288,35.3 -31.288,35.309C-32.521,34.833 -33.682,34.386 -34.869,33.929M-17.627,-26.722C-17.663,-26.72 -17.699,-26.717 -17.736,-26.715C-18.124,-24.611 -18.512,-22.507 -18.906,-20.365C-15.231,-23.828 -11.612,-27.239 -7.974,-30.668C-9.496,-31.067 -10.174,-32.264 -10.65,-33.629C-11.135,-35.019 -11.339,-36.463 -11.313,-37.927C-11.304,-38.484 -11.464,-38.759 -11.993,-38.935C-12.832,-39.214 -13.645,-39.571 -14.519,-39.915C-14.549,-39.483 -14.57,-39.131 -14.597,-38.78C-14.867,-35.268 -15.521,-31.817 -16.229,-28.375C-16.38,-27.643 -16.536,-26.911 -16.715,-26.185C-16.748,-26.05 -16.9,-25.944 -16.998,-25.824C-17.115,-25.927 -17.261,-26.011 -17.344,-26.136C-17.462,-26.316 -17.534,-26.525 -17.627,-26.722M-7.398,-29.64C-7.657,-29.375 -7.812,-29.222 -7.961,-29.063C-12.072,-24.697 -15.899,-20.09 -19.601,-15.377C-19.819,-15.098 -19.96,-14.723 -20.033,-14.371C-20.321,-13 -20.568,-11.621 -20.829,-10.245C-21.027,-9.202 -21.224,-8.16 -21.429,-7.078C-21.315,-7.111 -21.258,-7.114 -21.217,-7.142C-18.703,-8.863 -16.19,-10.585 -13.681,-12.313C-13.564,-12.393 -13.443,-12.513 -13.398,-12.641C-13.126,-13.429 -12.875,-14.224 -12.603,-15.059C-13.729,-14.776 -14.845,-14.484 -15.968,-14.225C-16.189,-14.174 -16.441,-14.253 -16.68,-14.272C-16.586,-14.476 -16.536,-14.719 -16.393,-14.877C-14.603,-16.857 -12.789,-18.816 -11.009,-20.804C-10.768,-21.074 -10.604,-21.459 -10.524,-21.818C-10.357,-22.572 -10.27,-23.343 -10.147,-24.124C-9.757,-24.071 -9.453,-24.064 -9.17,-23.986C-8.181,-23.711 -7.392,-23.846 -6.983,-24.927C-6.934,-25.06 -6.671,-25.254 -6.65,-25.237C-6.146,-24.842 -5.884,-25.357 -5.563,-25.535C-4.986,-25.857 -5.006,-26.197 -5.582,-26.511C-6.76,-27.15 -7.471,-28.074 -7.398,-29.64M-35.821,-4.051C-37.434,-1.633 -39.023,0.75 -40.616,3.139C-39.461,4.044 -38.298,4.947 -37.148,5.868C-36.993,5.993 -36.908,6.207 -36.79,6.38C-37.003,6.445 -37.22,6.576 -37.427,6.564C-39.029,6.465 -40.63,6.347 -42.23,6.218C-43.106,6.148 -43.334,6.272 -43.695,7.113C-43.629,7.145 -43.564,7.181 -43.497,7.209C-39.954,8.713 -36.4,10.19 -32.879,11.741C-32.145,12.065 -31.586,12.137 -30.979,11.577C-30.736,11.352 -30.401,11.231 -30.139,11.024C-29.976,10.896 -29.798,10.714 -29.748,10.525C-29.178,8.357 -28.625,6.184 -28.088,4.008C-28.054,3.869 -28.127,3.636 -28.233,3.54C-30.906,1.125 -33.553,-1.315 -35.821,-4.051M-31.142,15.952C-37.804,12.08 -44.505,8.348 -51.459,5.292C-51.215,8.394 -50.973,11.453 -50.729,14.536C-50.671,14.54 -50.56,14.538 -50.451,14.557C-49.242,14.776 -48.001,14.889 -46.834,15.244C-45.187,15.747 -44.379,16.985 -44.517,18.461C-44.542,18.735 -44.603,19.005 -44.651,19.306C-44.294,19.274 -43.965,19.302 -43.675,19.208C-42.222,18.736 -41.072,19.271 -40.202,20.369C-39.548,21.196 -39.037,22.144 -38.531,23.075C-38.225,23.639 -38.05,24.275 -37.821,24.865C-36.167,23.925 -34.542,23.005 -32.924,22.073C-32.809,22.007 -32.7,21.864 -32.666,21.737C-32.153,19.825 -31.655,17.91 -31.142,15.952M-25.912,-35.035C-27.717,-31.977 -29.633,-29.109 -31.828,-26.433C-34.033,-23.745 -36.443,-21.266 -39.321,-19.222C-36.618,-17.289 -33.981,-15.395 -31.327,-13.525C-31.189,-13.427 -30.841,-13.444 -30.708,-13.552C-29.626,-14.438 -28.495,-15.284 -27.523,-16.282C-24.27,-19.624 -21.815,-23.548 -19.431,-27.528C-18.746,-28.67 -18.534,-29.663 -19.239,-30.804C-19.316,-30.928 -19.338,-31.087 -19.403,-31.22C-19.476,-31.367 -19.536,-31.562 -19.66,-31.633C-20.382,-32.049 -21.12,-32.435 -21.869,-32.839C-22.281,-32.291 -22.659,-31.788 -23.058,-31.258C-23.254,-31.39 -23.416,-31.5 -23.623,-31.639C-23.253,-32.162 -22.91,-32.644 -22.522,-33.192C-23.651,-33.806 -24.758,-34.407 -25.912,-35.035M-13.721,-0.051C-13.727,-0.44 -13.733,-0.792 -13.736,-1.143C-13.743,-2.008 -13.741,-2.017 -14.604,-2.137C-15.839,-2.309 -17.075,-2.467 -18.336,-2.634C-19.017,1.766 -19.414,6.128 -19.285,10.526C-19.204,13.298 -18.928,16.043 -18.023,18.69C-17.905,19.036 -17.756,19.179 -17.353,19.181C-14.292,19.19 -11.231,19.235 -8.171,19.266C-8.017,19.267 -7.863,19.244 -7.674,19.23C-8.461,16.923 -8.91,14.618 -9.192,12.276C-9.697,8.087 -9.646,3.895 -9.291,-0.3C-9.271,-0.543 -9.791,-1.473 -9.998,-1.504C-10.988,-1.653 -11.981,-1.782 -13.009,-1.924C-13.02,-1.252 -13.028,-0.648 -13.038,-0.029C-13.19,-0.021 -13.282,-0.011 -13.374,-0.014C-13.467,-0.017 -13.559,-0.033 -13.721,-0.051M-54.217,-15.337C-57.839,-9.319 -61.897,-3.727 -67.624,0.48C-64.932,2.404 -62.279,4.306 -59.611,6.187C-59.486,6.275 -59.161,6.253 -59.042,6.15C-57.796,5.085 -56.486,4.076 -55.361,2.892C-52.492,-0.127 -50.242,-3.607 -48.159,-7.197C-47.451,-8.417 -46.792,-9.666 -46.093,-10.934C-47.489,-11.692 -48.813,-12.411 -50.179,-13.152C-50.581,-12.62 -50.971,-12.104 -51.38,-11.561C-51.571,-11.699 -51.744,-11.822 -51.938,-11.962C-51.561,-12.487 -51.216,-12.967 -50.832,-13.501C-51.963,-14.115 -53.07,-14.715 -54.217,-15.337M-67.801,39.324C-67.75,39.385 -67.724,39.434 -67.684,39.463C-65.09,41.321 -62.492,43.173 -59.904,45.039C-59.607,45.253 -59.388,45.179 -59.162,44.977C-57.873,43.82 -56.489,42.75 -55.318,41.483C-52.262,38.175 -49.88,34.379 -47.686,30.464C-47.224,29.639 -46.792,28.798 -46.327,27.929C-47.719,27.174 -49.042,26.457 -50.399,25.721C-50.8,26.254 -51.177,26.756 -51.586,27.299C-51.782,27.165 -51.958,27.045 -52.151,26.914C-51.778,26.391 -51.436,25.909 -51.05,25.369C-52.202,24.746 -53.307,24.149 -54.436,23.538C-58.059,29.555 -62.104,35.133 -67.801,39.324M1.074,-1.435C-1.082,-8.233 -1.049,-15.144 -0.439,-22.112C-1.744,-22.285 -2.979,-22.45 -4.248,-22.619C-4.257,-21.96 -4.266,-21.355 -4.274,-20.713C-4.536,-20.721 -4.735,-20.728 -4.958,-20.735C-4.967,-21.408 -4.976,-22.055 -4.984,-22.722C-6.529,-22.928 -8.019,-23.127 -9.533,-23.329C-9.587,-23.091 -9.641,-22.913 -9.667,-22.732C-10.262,-18.663 -10.633,-14.577 -10.529,-10.459C-10.458,-7.595 -10.192,-4.758 -9.267,-2.018C-9.138,-1.635 -8.951,-1.511 -8.556,-1.511C-6.708,-1.512 -4.861,-1.48 -3.015,-1.463C-1.661,-1.451 -0.307,-1.445 1.074,-1.435M-12.566,31.327C-12.619,31.541 -12.661,31.666 -12.68,31.793C-13.311,36.104 -13.698,40.43 -13.541,44.792C-13.445,47.432 -13.159,50.041 -12.32,52.567C-12.185,52.978 -12.009,53.152 -11.546,53.149C-9.494,53.138 -7.441,53.171 -5.389,53.19C-4.255,53.2 -3.121,53.213 -1.957,53.225C-4.109,46.423 -4.081,39.514 -3.468,32.544C-4.762,32.372 -5.996,32.208 -7.276,32.037C-7.288,32.691 -7.299,33.298 -7.311,33.939C-7.568,33.934 -7.766,33.93 -7.99,33.925C-7.993,33.559 -7.997,33.245 -7.998,32.931C-8.003,31.951 -8.002,31.943 -8.984,31.805C-10.164,31.639 -11.346,31.489 -12.566,31.327M-52.941,14.41C-52.997,14.318 -53.07,14.232 -53.106,14.133C-53.729,12.432 -54.357,10.734 -54.964,9.028C-55.438,7.698 -55.884,6.358 -56.357,4.979C-57.114,5.588 -57.834,6.166 -58.556,6.746C-58.531,6.845 -58.518,6.938 -58.487,7.026C-57.546,9.703 -56.096,12.122 -54.649,14.542C-54.586,14.647 -54.417,14.765 -54.308,14.756C-53.829,14.714 -53.355,14.627 -52.88,14.557C-52.651,14.571 -52.424,14.585 -52.157,14.601C-52.196,13.401 -52.209,12.285 -52.274,11.171C-52.404,8.957 -52.514,6.737 -53.154,4.592C-53.209,4.411 -53.315,4.191 -53.465,4.104C-53.895,3.852 -54.359,3.658 -54.807,3.443C-55.258,3.705 -55.348,4.022 -55.208,4.551C-54.679,6.551 -54.204,8.567 -53.739,10.583C-53.446,11.853 -53.206,13.134 -52.941,14.41M-7.106,23.479C-7.449,23.819 -7.78,24.121 -8.075,24.454C-8.164,24.554 -8.219,24.76 -8.181,24.885C-7.594,26.817 -7.44,28.809 -7.348,30.808C-7.33,31.204 -7.221,31.346 -6.815,31.392C-5.446,31.548 -4.082,31.752 -2.7,31.939C-3.374,39.391 -3.519,46.751 -0.924,53.943C-2.321,53.93 -3.716,53.918 -5.11,53.904C-7.406,53.882 -9.702,53.842 -11.999,53.851C-12.49,53.854 -12.679,53.665 -12.833,53.243C-13.78,50.649 -14.144,47.95 -14.225,45.214C-14.283,43.276 -14.197,41.334 -14.204,39.394C-14.205,39.153 -14.321,38.852 -14.488,38.68C-16.583,36.527 -18.696,34.391 -20.806,32.252C-20.844,32.214 -20.893,32.188 -20.98,32.126C-21.288,32.642 -21.585,33.15 -21.892,33.652C-23.986,37.087 -26.437,40.264 -28.952,43.393C-29.06,43.526 -29.274,43.573 -29.439,43.659C-29.493,43.493 -29.603,43.324 -29.592,43.162C-29.289,38.481 -28.981,33.8 -27.857,29.222C-27.747,28.773 -27.575,28.339 -27.401,27.809C-27.798,27.868 -28.097,27.881 -28.371,27.968C-28.51,28.011 -28.681,28.172 -28.711,28.307C-29.223,30.585 -29.692,32.873 -30.217,35.148C-30.948,38.317 -31.7,41.481 -32.474,44.639C-33.398,48.415 -34.33,52.19 -35.304,55.954C-36.189,59.374 -37.134,62.778 -38.058,66.187C-38.153,66.542 -38.283,66.887 -38.405,67.262C-40.512,66.575 -42.583,65.9 -44.732,65.199C-44.36,64.06 -43.965,62.955 -43.64,61.829C-42.287,57.142 -40.954,52.45 -39.619,47.759C-39.276,46.554 -38.945,45.347 -38.626,44.136C-38.576,43.949 -38.569,43.723 -38.625,43.54C-40.276,38.098 -42.045,32.698 -44.239,27.446C-44.316,27.26 -44.408,27.079 -44.566,26.738C-45.545,28.346 -46.488,29.83 -47.366,31.352C-49.639,35.291 -52.089,39.102 -55.21,42.439C-56.413,43.726 -57.712,44.904 -59.203,45.857C-59.462,46.023 -59.661,46.087 -59.949,45.879C-62.933,43.728 -65.926,41.591 -68.915,39.449C-68.974,39.408 -69.027,39.361 -69.123,39.285C-66.254,37.515 -63.921,35.189 -61.754,32.685C-59.599,30.194 -57.704,27.513 -55.924,24.608C-56.477,24.562 -56.967,24.532 -57.455,24.479C-59.256,24.282 -61.057,24.082 -62.854,23.869C-63.04,23.847 -63.214,23.727 -63.393,23.652C-63.258,23.497 -63.154,23.281 -62.984,23.197C-60.827,22.118 -58.661,21.057 -56.494,19.998C-56.348,19.927 -56.177,19.907 -56.017,19.863C-56.029,19.805 -56.043,19.747 -56.056,19.689C-56.705,19.43 -57.359,19.181 -58.004,18.911C-59.659,18.218 -61.312,17.521 -62.959,16.81C-63.122,16.739 -63.24,16.563 -63.379,16.436C-63.213,16.34 -63.058,16.187 -62.881,16.156C-60.526,15.744 -58.169,15.349 -55.813,14.949C-55.615,14.916 -55.417,14.883 -55.223,14.85C-56.365,12.731 -57.487,10.649 -58.615,8.557C-59.454,9.332 -60.27,10.181 -61.182,10.909C-63.839,13.031 -66.531,15.108 -69.221,17.191C-69.375,17.311 -69.613,17.322 -69.813,17.383C-69.808,17.175 -69.856,16.946 -69.788,16.76C-68.855,14.216 -67.906,11.678 -66.964,9.138C-66.873,8.894 -66.802,8.644 -66.699,8.329C-66.88,8.393 -67.027,8.441 -67.173,8.496C-69.707,9.458 -72.24,10.424 -74.778,11.375C-74.966,11.445 -75.195,11.4 -75.405,11.409C-75.348,11.195 -75.345,10.942 -75.225,10.773C-72.966,7.614 -70.658,4.492 -68.038,1.615C-67.953,1.521 -67.879,1.417 -67.767,1.274C-68.149,0.985 -68.514,0.711 -68.916,0.408C-66.548,-1.022 -64.577,-2.87 -62.728,-4.857C-60.895,-6.825 -59.244,-8.938 -57.79,-11.22C-58.386,-10.758 -58.976,-10.287 -59.579,-9.834C-60.866,-8.87 -62.155,-7.909 -63.456,-6.964C-63.613,-6.849 -63.85,-6.841 -64.05,-6.783C-64.049,-6.989 -64.105,-7.216 -64.039,-7.398C-63.137,-9.854 -62.219,-12.303 -61.303,-14.754C-61.179,-15.086 -61.049,-15.416 -60.885,-15.84C-61.106,-15.764 -61.253,-15.717 -61.396,-15.663C-63.878,-14.718 -66.358,-13.772 -68.84,-12.828C-68.997,-12.768 -69.156,-12.692 -69.319,-12.677C-69.431,-12.667 -69.604,-12.718 -69.65,-12.799C-69.699,-12.882 -69.663,-13.058 -69.602,-13.152C-69.305,-13.604 -68.993,-14.049 -68.674,-14.485C-66.334,-17.68 -63.969,-20.854 -61.179,-23.68C-59.881,-24.995 -58.426,-26.095 -56.692,-26.785C-54.46,-27.674 -52.551,-26.85 -51.747,-24.671C-51.719,-24.594 -51.653,-24.531 -51.571,-24.411C-51.408,-24.912 -51.304,-25.362 -51.118,-25.775C-50.575,-26.983 -49.596,-27.583 -48.297,-27.67C-46.686,-27.777 -45.186,-27.314 -43.737,-26.684C-42.849,-26.297 -42.003,-25.816 -41.117,-25.366C-40.88,-27.408 -40.64,-29.471 -40.393,-31.595C-40.684,-31.545 -40.986,-31.487 -41.29,-31.441C-44.955,-30.879 -48.65,-30.747 -52.35,-30.701C-52.496,-30.699 -52.645,-30.801 -52.791,-30.854C-52.689,-31.014 -52.623,-31.224 -52.479,-31.324C-50.595,-32.642 -48.7,-33.945 -46.807,-35.25C-46.581,-35.406 -46.349,-35.553 -46.016,-35.772C-47.223,-36.057 -48.323,-36.302 -49.415,-36.579C-50.755,-36.919 -52.09,-37.282 -53.423,-37.651C-53.565,-37.69 -53.679,-37.834 -53.807,-37.929C-53.698,-38.039 -53.61,-38.203 -53.48,-38.249C-49.512,-39.645 -45.543,-41.051 -41.354,-41.651C-39.961,-41.85 -38.556,-41.819 -37.193,-41.38C-35.408,-40.805 -34.647,-39.477 -35.038,-37.645C-35.057,-37.557 -35.062,-37.467 -35.089,-37.26C-34.139,-38.114 -32.984,-38.432 -32.316,-39.616C-30.961,-42.018 -29.354,-44.281 -27.497,-46.341C-26.514,-47.431 -25.402,-48.372 -24.091,-49.049C-21.983,-50.136 -20.426,-49.758 -19.03,-47.842C-18.991,-47.787 -18.937,-47.744 -18.824,-47.629C-18.785,-48.055 -18.77,-48.4 -18.72,-48.74C-18.494,-50.297 -17.473,-51.356 -15.913,-51.602C-13.983,-51.908 -12.148,-51.453 -10.388,-50.738C-6.107,-48.998 -2.244,-46.5 1.617,-44.006C1.858,-43.85 2.027,-43.583 2.23,-43.367C1.944,-43.288 1.659,-43.145 1.372,-43.14C-1.092,-43.094 -3.557,-43.074 -6.021,-43.046C-6.148,-43.044 -6.276,-43.037 -6.461,-43.03C-5.933,-41.353 -4.433,-40.503 -3.516,-39.183C-2.328,-39.981 -1.223,-40.777 -0.065,-41.49C1.908,-42.705 3.912,-43.872 5.911,-45.046C6.047,-45.125 6.246,-45.096 6.415,-45.118C6.409,-44.963 6.452,-44.785 6.391,-44.656C4.728,-41.164 3.023,-37.693 0.875,-34.464C0.422,-33.783 -0.087,-33.141 -0.58,-32.468C0.376,-32.206 1.348,-32.008 2.271,-31.675C4.977,-30.698 7.665,-29.672 10.356,-28.655C10.862,-28.463 11.356,-28.236 11.844,-28C11.971,-27.939 12.051,-27.782 12.152,-27.67C12.024,-27.583 11.907,-27.449 11.767,-27.416C11.098,-27.254 10.423,-27.12 9.608,-26.946C9.914,-26.771 10.107,-26.658 10.303,-26.548C12.909,-25.081 15.156,-23.135 17.376,-21.163C18.925,-19.787 20.42,-18.35 21.927,-16.927C22.066,-16.794 22.115,-16.564 22.207,-16.38C22.002,-16.346 21.786,-16.254 21.593,-16.288C18.925,-16.761 16.261,-17.251 13.596,-17.737C13.437,-17.766 13.276,-17.788 13.035,-17.826C13.872,-16.481 14.676,-15.225 15.442,-13.946C16.23,-12.631 16.987,-11.297 17.739,-9.961C17.812,-9.832 17.753,-9.628 17.756,-9.459C17.601,-9.467 17.424,-9.429 17.294,-9.491C13.513,-11.287 9.762,-13.14 6.241,-15.424C5.884,-15.656 5.534,-15.901 5.163,-16.151C4.473,-14.034 3.794,-11.952 3.108,-9.847C4.487,-9.592 5.806,-9.343 7.128,-9.113C7.246,-9.092 7.414,-9.164 7.512,-9.247C8.522,-10.104 9.685,-10.183 10.898,-9.881C12.688,-9.437 14.262,-8.549 15.705,-7.422C18.601,-5.164 21.154,-2.541 23.676,0.115C24.254,0.725 24.828,1.34 25.385,1.969C25.49,2.089 25.503,2.29 25.559,2.453C25.393,2.486 25.213,2.579 25.062,2.543C22.444,1.922 19.83,1.286 17.215,0.651C17.003,0.6 16.795,0.538 16.478,0.451C17.036,1.468 17.562,2.383 18.047,3.319C18.939,5.046 19.812,6.784 20.679,8.525C20.759,8.685 20.733,8.897 20.756,9.086C20.554,9.055 20.316,9.082 20.153,8.985C17.261,7.272 14.378,5.545 11.493,3.821C11.383,3.756 11.268,3.699 11.097,3.608C10.272,6.14 9.458,8.638 8.64,11.148C9.746,11.25 10.916,11.295 12.064,11.478C14.868,11.925 17.663,12.432 20.459,12.927C20.642,12.96 20.806,13.095 20.978,13.183C20.828,13.324 20.701,13.519 20.524,13.597C17.079,15.106 13.604,16.538 9.964,17.517C9.262,17.706 8.542,17.831 7.829,17.986C8.501,19.033 9.249,20.06 9.85,21.166C11.276,23.794 12.635,26.459 14.009,29.116C14.081,29.255 14.038,29.454 14.049,29.625C13.893,29.609 13.71,29.641 13.585,29.57C9.98,27.522 6.27,25.587 3.215,22.758C1.682,21.337 -0.086,20.511 -1.868,19.604C-2.034,19.519 -2.194,19.396 -2.371,19.364C-2.541,19.333 -2.729,19.393 -2.907,19.42C-2.938,19.425 -2.964,19.467 -2.991,19.492C-3.9,20.316 -3.887,20.312 -3.561,21.494C-3.058,23.313 -2.569,25.137 -2.094,26.964C-2.044,27.153 -2.123,27.376 -2.142,27.584C-2.335,27.506 -2.567,27.472 -2.716,27.343C-4.028,26.205 -5.325,25.051 -6.627,23.902C-6.777,23.769 -6.93,23.635 -7.106,23.479" style="fill:rgb(37,37,37);fill-rule:nonzero;"/>
    </g>
</svg>
