<?xml version="1.0" encoding="UTF-8" standalone="no"?>
<!DOCTYPE svg PUBLIC "-//W3C//DTD SVG 1.1//EN" "http://www.w3.org/Graphics/SVG/1.1/DTD/svg11.dtd">
<svg width="100%" height="100%" viewBox="0 0 699 832" version="1.1" xmlns="http://www.w3.org/2000/svg" xmlns:xlink="http://www.w3.org/1999/xlink" xml:space="preserve" xmlns:serif="http://www.serif.com/" style="fill-rule:evenodd;clip-rule:evenodd;stroke-linecap:round;stroke-linejoin:round;stroke-miterlimit:10;">
    <g transform="matrix(-6.1433,5.63065,5.63065,6.1433,689.051,421.739)">
        <path d="M4.114,-8.85C1.189,-6.081 0.168,-3.366 1.455,-0.934C1.914,-0.067 3.203,0.358 4.114,0.985C4.413,0.097 5.001,-0.806 4.952,-1.675C4.818,-4.048 4.418,-6.408 4.114,-8.85" style="fill:rgb(37,37,37);fill-rule:nonzero;"/>
    </g>
    <g transform="matrix(8.33333,0,0,8.33333,555.89,560.953)">
        <path d="M0,-10.122C1.2,-7.639 2.529,-5.206 3.514,-2.64C3.771,-1.972 2.95,-0.892 2.625,0C1.896,-0.57 0.726,-1.011 0.515,-1.732C-0.251,-4.348 -0.694,-7.057 -1.259,-9.731C-0.839,-9.861 -0.419,-9.992 0,-10.122" style="fill:rgb(37,37,37);fill-rule:nonzero;"/>
    </g>
    <g transform="matrix(8.33333,0,0,8.33333,465.028,226.761)">
        <path d="M0,3.746C-0.062,3.742 -0.685,3.847 -1.172,3.637C-1.792,3.371 -2.472,2.944 -2.78,2.393C-2.907,2.167 -2.236,1.252 -1.745,0.974C-0.861,0.474 0.199,-0.147 1.117,-0.052C2.434,0.084 3.689,0.816 4.972,1.293C3.857,2.111 2.766,2.962 1.612,3.721C1.35,3.893 0.877,3.746 0,3.746" style="fill:rgb(37,37,37);fill-rule:nonzero;"/>
    </g>
    <g transform="matrix(3.6938,-7.46996,-7.46996,-3.6938,179.238,114.398)">
        <path d="M-4.424,-1.833C-4.92,0.398 -5.495,2.417 -5.743,4.478C-5.812,5.048 -5.008,6.106 -4.424,6.262C-3.874,6.408 -2.837,5.832 -2.447,5.272C-1.03,3.24 -1.821,0.123 -4.424,-1.833" style="fill:rgb(37,37,37);fill-rule:nonzero;"/>
    </g>
    <g transform="matrix(8.33333,0,0,8.33333,623.346,273.549)">
        <path d="M0,-1.656C2.061,-2.078 4.126,-2.811 6.181,-2.781C7.123,-2.768 8.044,-1.256 8.975,-0.425C7.9,0.093 6.745,1.155 5.769,1.012C3.793,0.721 1.914,-0.224 -0.005,-0.9C-0.003,-1.152 -0.002,-1.404 0,-1.656" style="fill:rgb(37,37,37);fill-rule:nonzero;"/>
    </g>
    <g transform="matrix(8.33333,0,0,8.33333,571.336,358.042)">
        <path d="M0,-5.963C2.03,-5.105 4.202,-4.463 6.02,-3.278C6.723,-2.82 6.622,-1.129 6.888,0C5.732,-0.221 4.269,-0.079 3.488,-0.742C1.969,-2.033 0.832,-3.775 -0.463,-5.33C-0.309,-5.541 -0.154,-5.752 0,-5.963" style="fill:rgb(37,37,37);fill-rule:nonzero;"/>
    </g>
    <g transform="matrix(8.33333,0,0,8.33333,589.483,391.18)">
        <path d="M0,6.669C-4.326,6.485 -3.413,1.819 -6.138,0.523C-1.517,0 0.452,1.989 0,6.669" style="fill:rgb(37,37,37);fill-rule:nonzero;"/>
    </g>
    <g transform="matrix(8.33333,0,0,8.33333,362.653,607.605)">
        <path d="M0,-9.135C0.194,-6.741 0.54,-4.343 0.489,-1.955C0.475,-1.237 -0.646,-0.543 -1.262,0.161C-1.851,-0.547 -3.027,-1.356 -2.926,-1.946C-2.5,-4.432 -1.693,-6.852 -1.025,-9.296L0,-9.135Z" style="fill:rgb(37,37,37);fill-rule:nonzero;"/>
    </g>
    <g transform="matrix(-7.70577,-3.17263,-3.17263,7.70577,297.81,513.411)">
        <path d="M-2.795,-8.76C-3.207,-6.479 -3.728,-4.209 -3.957,-1.911C-4.019,-1.28 -3.206,-0.562 -2.795,0.115C-2.156,-0.454 -1.125,-0.924 -0.947,-1.612C-0.305,-4.121 -0.652,-6.566 -2.795,-8.76" style="fill:rgb(37,37,37);fill-rule:nonzero;"/>
    </g>
    <g transform="matrix(8.33333,0,0,8.33333,446.905,343.369)">
        <path d="M0,-5.413C1.691,-4.885 3.544,-4.619 5.002,-3.715C5.699,-3.283 5.649,-1.643 5.937,-0.55C4.805,-0.512 3.295,0 2.621,-0.537C1.319,-1.576 0.489,-3.205 -0.537,-4.59C-0.357,-4.864 -0.179,-5.139 0,-5.413" style="fill:rgb(37,37,37);fill-rule:nonzero;"/>
    </g>
    <g transform="matrix(8.33333,0,0,8.33333,245.913,41.7058)">
        <path d="M0,5.039C-2.107,4.408 -4.255,3.88 -6.296,3.08C-6.861,2.858 -7.108,1.827 -7.502,1.168C-6.789,0.821 -5.864,0 -5.4,0.208C-3.294,1.154 -1.317,2.39 0.707,3.522C0.471,4.028 0.235,4.533 0,5.039" style="fill:rgb(37,37,37);fill-rule:nonzero;"/>
    </g>
    <g transform="matrix(8.33333,0,0,8.33333,129.343,224.18)">
        <path d="M0,2.189C-2.656,2.342 -5.313,2.581 -7.97,2.577C-8.54,2.577 -9.109,1.701 -9.679,1.228C-9.043,0.679 -8.351,-0.392 -7.78,-0.331C-5.138,-0.044 -2.527,0.557 0.094,1.045C0.062,1.427 0.031,1.808 0,2.189" style="fill:rgb(37,37,37);fill-rule:nonzero;"/>
    </g>
    <g transform="matrix(8.33333,0,0,8.33333,487.612,510.811)">
        <path d="M0,-8.695C1.022,-6.549 2.146,-4.441 2.996,-2.228C3.2,-1.697 2.657,-0.391 2.172,-0.21C1.611,0 0.181,-0.516 0.084,-0.936C-0.481,-3.393 -0.767,-5.914 -1.146,-8.413C-0.765,-8.507 -0.383,-8.601 0,-8.695" style="fill:rgb(37,37,37);fill-rule:nonzero;"/>
    </g>
    <g transform="matrix(8.33333,0,0,8.33333,224.379,380.408)">
        <path d="M0,-2.096C-1.585,-1.009 -3.086,0.253 -4.797,1.078C-5.46,1.398 -6.599,0.731 -7.521,0.513C-7.122,-0.386 -6.939,-1.817 -6.283,-2.084C-4.482,-2.815 -2.482,-3.058 -0.562,-3.494C-0.375,-3.028 -0.187,-2.562 0,-2.096" style="fill:rgb(37,37,37);fill-rule:nonzero;"/>
    </g>
    <g transform="matrix(1.23041,8.242,8.242,-1.23041,564.24,179.03)">
        <path d="M5.548,-2.247C2.792,-0.216 2.096,3.634 3.624,5.214C4.068,5.672 5.046,6.074 5.548,5.887C6.022,5.71 6.485,4.701 6.44,4.094C6.3,2.162 5.921,0.246 5.548,-2.247" style="fill:rgb(37,37,37);fill-rule:nonzero;"/>
    </g>
    <g transform="matrix(-5.34274,-6.39528,-6.39528,5.34274,321.689,335.457)">
        <path d="M-3.401,-6.246C-4.09,-4.103 -4.879,-2.461 -5.048,-0.756C-5.126,0.025 -3.987,0.927 -3.401,1.774C-2.724,1.087 -1.58,0.47 -1.463,-0.303C-1.164,-2.268 -0.968,-4.407 -3.401,-6.246" style="fill:rgb(37,37,37);fill-rule:nonzero;"/>
    </g>
    <g transform="matrix(8.33333,0,0,8.33333,468.903,8.31917)">
        <path d="M0,6.74C0.471,5.235 0.723,3.607 1.48,2.265C2.071,1.22 3.269,0.499 4.28,-0.254C4.353,-0.308 5.544,0.659 5.469,0.973C5.186,2.16 4.829,3.48 4.058,4.363C3.102,5.459 1.704,6.17 0.498,7.048C0.332,6.945 0.166,6.842 0,6.74" style="fill:rgb(37,37,37);fill-rule:nonzero;"/>
    </g>
    <g transform="matrix(8.33333,0,0,8.33333,578.286,113.797)">
        <path d="M0,2.842C1.515,1.646 2.904,0.187 4.604,-0.619C5.308,-0.953 6.675,0.114 7.74,0.543C7.093,1.256 6.571,2.324 5.771,2.608C4.053,3.217 2.189,3.423 0.387,3.795C0.258,3.477 0.129,3.16 0,2.842" style="fill:rgb(37,37,37);fill-rule:nonzero;"/>
    </g>
    <g transform="matrix(8.33333,0,0,8.33333,330.092,0)">
        <path d="M0,7.937C-1.089,6.099 -2.328,4.326 -3.167,2.38C-3.393,1.856 -2.401,0.808 -1.969,0C-1.235,0.555 -0.065,0.98 0.145,1.69C0.689,3.529 0.811,5.493 1.102,7.408C0.734,7.584 0.367,7.76 0,7.937" style="fill:rgb(37,37,37);fill-rule:nonzero;"/>
    </g>
    <g transform="matrix(8.33333,0,0,8.33333,134.039,372.823)">
        <path d="M0,-3.793C-1.795,-2.396 -3.493,-0.832 -5.44,0.308C-6.107,0.699 -7.396,0.03 -8.4,-0.154C-7.909,-0.932 -7.59,-2.119 -6.894,-2.412C-4.804,-3.293 -2.566,-3.824 -0.387,-4.492L0,-3.793Z" style="fill:rgb(37,37,37);fill-rule:nonzero;"/>
    </g>
    <g transform="matrix(8.33333,0,0,8.33333,265.802,569.379)">
        <path d="M0,-7.2C-0.387,-5.205 -0.576,-3.138 -1.256,-1.248C-1.535,-0.472 -2.871,-0.077 -3.728,0.491C-3.902,-0.507 -4.524,-1.723 -4.164,-2.46C-3.257,-4.319 -1.907,-5.962 -0.735,-7.691C-0.49,-7.527 -0.245,-7.364 0,-7.2" style="fill:rgb(37,37,37);fill-rule:nonzero;"/>
    </g>
    <g transform="matrix(8.33333,0,0,8.33333,514.158,288.215)">
        <path d="M0,-2.911C1.78,-3.021 3.577,-3.313 5.33,-3.144C5.966,-3.082 6.495,-1.919 7.073,-1.258C6.304,-0.71 5.423,0.402 4.787,0.277C3.106,-0.056 1.533,-0.925 -0.083,-1.58C-0.055,-2.024 -0.027,-2.467 0,-2.911" style="fill:rgb(37,37,37);fill-rule:nonzero;"/>
    </g>
    <g transform="matrix(-4.68442,-6.89207,-6.89207,4.68442,119.938,424.773)">
        <path d="M-4.028,-6.909C-4.342,-4.294 -4.681,-2.244 -4.786,-0.181C-4.824,0.554 -4.298,1.319 -4.028,2.071C-3.322,1.552 -2.256,1.18 -1.975,0.487C-0.893,-2.177 -2.002,-4.412 -4.028,-6.909" style="fill:rgb(37,37,37);fill-rule:nonzero;"/>
    </g>
    <g transform="matrix(8.33333,0,0,8.33333,162.286,216.709)">
        <path d="M0,-3.988C3.477,-4.608 5.21,-2.279 7.45,-0.428C2.085,0.62 -0.04,-0.374 0,-3.988" style="fill:rgb(37,37,37);fill-rule:nonzero;"/>
    </g>
    <g transform="matrix(8.33333,0,0,8.33333,463.157,583.859)">
        <path d="M0,-8.182C0.646,-6.266 1.469,-4.384 1.846,-2.416C1.979,-1.718 1.032,-0.811 0.579,0C-0.029,-0.684 -1.068,-1.315 -1.162,-2.063C-1.409,-4.043 -1.246,-6.074 -1.246,-8.085C-0.83,-8.118 -0.415,-8.15 0,-8.182" style="fill:rgb(37,37,37);fill-rule:nonzero;"/>
    </g>
    <g transform="matrix(8.33333,0,0,8.33333,512.27,368.215)">
        <path d="M0,-6.167C1.563,-5.045 3.263,-4.06 4.613,-2.724C5.058,-2.284 4.601,-0.934 4.556,0C3.707,-0.193 2.519,-0.103 2.076,-0.635C0.919,-2.026 0.088,-3.688 -0.873,-5.242C-0.582,-5.55 -0.291,-5.859 0,-6.167" style="fill:rgb(37,37,37);fill-rule:nonzero;"/>
    </g>
    <g transform="matrix(8.33333,0,0,8.33333,411.408,534.17)">
        <path d="M0,-8.292C0.677,-6.355 1.524,-4.452 1.94,-2.46C2.089,-1.747 1.197,-0.815 0.781,0.017C0.047,-0.654 -1.29,-1.308 -1.31,-2C-1.368,-4.095 -0.917,-6.205 -0.665,-8.309C-0.443,-8.303 -0.222,-8.297 0,-8.292" style="fill:rgb(37,37,37);fill-rule:nonzero;"/>
    </g>
    <g transform="matrix(8.33333,0,0,8.33333,509.096,99.86)">
        <path d="M0,3.529C1.274,2.111 2.447,0.572 3.889,-0.648C4.288,-0.986 5.487,-0.379 6.32,-0.206C6.098,0.61 6.134,1.803 5.603,2.166C4.182,3.14 2.518,3.757 0.949,4.515C0.633,4.186 0.316,3.858 0,3.529" style="fill:rgb(37,37,37);fill-rule:nonzero;"/>
    </g>
    <g transform="matrix(8.33333,0,0,8.33333,342.291,287.53)">
        <path d="M0,0.253C-1.735,0.775 -3.445,1.486 -5.22,1.728C-5.92,1.823 -6.763,0.873 -7.54,0.399C-6.794,-0.27 -6.07,-1.47 -5.299,-1.501C-3.591,-1.57 -1.86,-1.052 -0.139,-0.773C-0.093,-0.431 -0.047,-0.089 0,0.253" style="fill:rgb(37,37,37);fill-rule:nonzero;"/>
    </g>
    <g transform="matrix(8.33333,0,0,8.33333,262.596,118.544)">
        <path d="M0,5.295C-1.504,4.636 -3.096,4.117 -4.471,3.253C-5.081,2.869 -5.254,1.789 -5.626,1.024C-4.626,0.779 -3.223,0 -2.706,0.391C-1.323,1.44 -0.321,2.991 0.832,4.341L0,5.295Z" style="fill:rgb(37,37,37);fill-rule:nonzero;"/>
    </g>
    <g transform="matrix(8.33333,0,0,8.33333,419.545,112.763)">
        <path d="M0,5.923C0.537,4.067 0.9,2.129 1.711,0.401C1.98,-0.175 3.396,-0.214 4.287,-0.498C4.33,0.361 4.717,1.427 4.349,2.039C3.405,3.608 2.126,4.974 0.98,6.421C0.653,6.255 0.327,6.089 0,5.923" style="fill:rgb(37,37,37);fill-rule:nonzero;"/>
    </g>
    <g transform="matrix(8.33333,0,0,8.33333,403.18,239.257)">
        <path d="M0,-8.263C1.936,-6.231 1.867,-3.431 -0.204,0C-2.158,-2.36 -2.06,-6.35 0,-8.263" style="fill:rgb(37,37,37);fill-rule:nonzero;"/>
    </g>
    <g transform="matrix(8.33333,0,0,8.33333,203.725,294.769)">
        <path d="M0,-0.539C-1.73,0.104 -3.422,0.975 -5.21,1.281C-5.97,1.411 -6.933,0.355 -7.804,-0.163C-7.072,-0.743 -6.374,-1.76 -5.604,-1.816C-3.785,-1.95 -1.932,-1.627 -0.093,-1.488C-0.062,-1.172 -0.03,-0.855 0,-0.539" style="fill:rgb(37,37,37);fill-rule:nonzero;"/>
    </g>
    <g transform="matrix(8.33333,0,0,8.33333,311.123,63.7183)">
        <path d="M0,7.679C-1.444,5.934 -3,4.263 -4.257,2.392C-4.567,1.929 -3.906,0.814 -3.691,0C-3.023,0.379 -2.058,0.595 -1.742,1.168C-0.727,3.021 0.051,5.004 0.92,6.937C0.613,7.184 0.307,7.432 0,7.679" style="fill:rgb(37,37,37);fill-rule:nonzero;"/>
    </g>
    <g transform="matrix(8.33333,0,0,8.33333,475.576,406.625)">
        <path d="M0,-5.472C1.434,-4.653 3.046,-4.026 4.22,-2.93C4.746,-2.438 4.394,-1.005 4.44,0C3.453,-0.284 2.177,-0.282 1.546,-0.92C0.601,-1.874 0.109,-3.277 -0.575,-4.49C-0.384,-4.817 -0.191,-5.145 0,-5.472" style="fill:rgb(37,37,37);fill-rule:nonzero;"/>
    </g>
    <g transform="matrix(8.33333,0,0,8.33333,272.507,469.103)">
        <path d="M0,-5.596C-0.605,-4.046 -1.063,-2.412 -1.882,-0.983C-2.263,-0.318 -3.311,0.029 -4.125,0.342C-4.365,0.435 -5.176,-0.13 -5.149,-0.307C-5.02,-1.169 -4.93,-2.223 -4.389,-2.798C-3.249,-4.012 -1.836,-4.969 -0.536,-6.031C-0.357,-5.886 -0.179,-5.741 0,-5.596" style="fill:rgb(37,37,37);fill-rule:nonzero;"/>
    </g>
    <g transform="matrix(8.33333,0,0,8.33333,478.831,185.464)">
        <path d="M0,1.621C1.59,0.689 3.134,-0.341 4.798,-1.11C5.26,-1.325 6.079,-0.769 6.735,-0.566C6.487,0.173 6.422,1.389 5.959,1.566C4.263,2.213 2.436,2.514 0.657,2.946C0.438,2.504 0.219,2.062 0,1.621" style="fill:rgb(37,37,37);fill-rule:nonzero;"/>
    </g>
    <g transform="matrix(8.33333,0,0,8.33333,389.793,447.065)">
        <path d="M0,-7.096C0.145,-5.159 0.39,-3.22 0.358,-1.285C0.351,-0.832 -0.593,-0.393 -1.105,0.052C-1.508,-0.413 -2.285,-0.911 -2.248,-1.339C-2.08,-3.286 -1.684,-5.214 -1.368,-7.148C-0.912,-7.131 -0.456,-7.113 0,-7.096" style="fill:rgb(37,37,37);fill-rule:nonzero;"/>
    </g>
    <g transform="matrix(8.33333,0,0,8.33333,416.493,384.768)">
        <path d="M0,-6.813C0.271,-4.966 0.624,-3.124 0.751,-1.266C0.779,-0.845 0.027,-0.02 -0.379,-0.011C-0.857,0 -1.752,-0.656 -1.771,-1.056C-1.856,-2.917 -1.701,-4.79 -1.633,-6.659C-1.088,-6.71 -0.544,-6.762 0,-6.813" style="fill:rgb(37,37,37);fill-rule:nonzero;"/>
    </g>
    <g transform="matrix(8.33333,0,0,8.33333,386.302,42.1108)">
        <path d="M0,7.155C-0.285,5.297 -0.682,3.444 -0.779,1.576C-0.806,1.076 0.08,0.527 0.548,0C1.009,0.505 1.876,1.023 1.859,1.511C1.798,3.392 1.453,5.263 1.214,7.137C0.81,7.143 0.405,7.149 0,7.155" style="fill:rgb(37,37,37);fill-rule:nonzero;"/>
    </g>
    <g transform="matrix(7.85706,-2.77688,-2.77688,-7.85706,379.887,160.565)">
        <path d="M-1.176,-0.388C-3.817,1.737 -2.982,3.888 -2.562,5.895C-2.501,6.185 -1.512,6.589 -1.176,6.439C-0.685,6.22 -0.035,5.505 -0.085,5.075C-0.284,3.384 -0.729,1.722 -1.176,-0.388" style="fill:rgb(37,37,37);fill-rule:nonzero;"/>
    </g>
    <g transform="matrix(8.33333,0,0,8.33333,354.628,211.721)">
        <path d="M0,4.699C-1.62,4.003 -3.299,3.411 -4.817,2.539C-5.208,2.315 -5.092,1.208 -5.208,0.507C-4.526,0.415 -3.611,0 -3.205,0.292C-1.827,1.282 -0.628,2.523 0.64,3.668C0.426,4.012 0.213,4.355 0,4.699" style="fill:rgb(37,37,37);fill-rule:nonzero;"/>
    </g>
    <g transform="matrix(8.33333,0,0,8.33333,435.146,437.552)">
        <path d="M0,-6.723C0.776,-5.182 1.688,-3.689 2.252,-2.074C2.436,-1.545 1.712,-0.7 1.403,0C0.811,-0.45 -0.181,-0.814 -0.299,-1.365C-0.655,-3.03 -0.672,-4.768 -0.821,-6.477C-0.548,-6.559 -0.273,-6.641 0,-6.723" style="fill:rgb(37,37,37);fill-rule:nonzero;"/>
    </g>
    <g transform="matrix(8.33333,0,0,8.33333,289.418,185.285)">
        <path d="M0,-5.604C1.816,-3.676 3.22,-2.186 5.019,-0.277C0.718,0 -1.181,-1.881 0,-5.604" style="fill:rgb(37,37,37);fill-rule:nonzero;"/>
    </g>
    <g transform="matrix(8.33333,0,0,8.33333,250.429,373.299)">
        <path d="M0,0.388C2.324,-0.667 4.274,-1.553 6.64,-2.626C4.829,1.893 2.592,3.014 0,0.388" style="fill:rgb(37,37,37);fill-rule:nonzero;"/>
    </g>
    <g transform="matrix(8.33333,0,0,8.33333,287.815,196.951)">
        <path d="M0,3.404C-1.415,3.241 -2.867,3.215 -4.224,2.839C-4.679,2.713 -4.887,1.699 -5.208,1.09C-4.522,0.768 -3.628,0 -3.191,0.206C-1.923,0.805 -0.838,1.793 0.319,2.628L0,3.404Z" style="fill:rgb(37,37,37);fill-rule:nonzero;"/>
    </g>
    <g transform="matrix(8.33333,0,0,8.33333,350.608,425.155)">
        <path d="M0,-4.959C-0.499,-3.425 -0.896,-1.846 -1.558,-0.386C-1.762,0.064 -2.689,0.186 -3.285,0.458C-3.488,-0.184 -4.054,-1.032 -3.828,-1.429C-3.023,-2.841 -1.95,-4.1 -0.979,-5.417C-0.652,-5.264 -0.326,-5.112 0,-4.959" style="fill:rgb(37,37,37);fill-rule:nonzero;"/>
    </g>
    <g transform="matrix(8.33333,0,0,8.33333,281.524,333.638)">
        <path d="M0,-2.946C-1.187,-1.839 -2.024,-0.865 -3.054,-0.183C-3.565,0.156 -4.472,0.108 -5.122,-0.062C-5.411,-0.138 -5.785,-1.086 -5.633,-1.397C-5.334,-2.003 -4.753,-2.771 -4.179,-2.877C-2.961,-3.102 -1.674,-2.946 0,-2.946" style="fill:rgb(37,37,37);fill-rule:nonzero;"/>
    </g>
    <g transform="matrix(8.33333,0,0,8.33333,274.811,258.615)">
        <path d="M0,-0.274C-1.236,0.29 -2.431,1.025 -3.728,1.333C-4.224,1.451 -4.952,0.598 -5.574,0.187C-5.047,-0.449 -4.56,-1.573 -3.982,-1.621C-2.73,-1.725 -1.432,-1.279 -0.152,-1.058L0,-0.274Z" style="fill:rgb(37,37,37);fill-rule:nonzero;"/>
    </g>
    <g transform="matrix(-4.11849,7.24448,7.24448,4.11849,156.249,821.465)">
        <path d="M-26.372,-15.343C-14.605,-15.343 -2.839,-15.344 8.927,-15.343" style="fill:none;fill-rule:nonzero;stroke:rgb(64,64,64);stroke-width:2px;stroke-dasharray:0.1,4;"/>
    </g>
</svg>
