<?xml version="1.0" encoding="UTF-8" standalone="no"?>
<!DOCTYPE svg PUBLIC "-//W3C//DTD SVG 1.1//EN" "http://www.w3.org/Graphics/SVG/1.1/DTD/svg11.dtd">
<svg width="100%" height="100%" viewBox="0 0 834 510" version="1.1" xmlns="http://www.w3.org/2000/svg" xmlns:xlink="http://www.w3.org/1999/xlink" xml:space="preserve" xmlns:serif="http://www.serif.com/" style="fill-rule:evenodd;clip-rule:evenodd;stroke-linejoin:round;stroke-miterlimit:2;">
    <g transform="matrix(8.33333,0,0,8.33333,241.04,475.129)">
        <path d="M0,-24.587C1.925,-20.888 3.963,-17.304 3.479,-12.96C3.027,-8.907 2.721,-4.839 2.364,-0.932C7.215,-3.949 9.43,-9.56 8.042,-15.631C6.973,-20.307 3.34,-24.549 0,-24.587M-5.544,-24.161C-10.12,-22.086 -13.645,-14.793 -13,-10.555C-12.034,-4.214 -8.417,0.32 -3.887,0.611C-7.447,-7.331 -7.562,-15.503 -5.544,-24.161M2.969,-12.171C2.985,-17.278 0.742,-21.306 -1.172,-23.984C-1.52,-24.471 -2.52,-24.762 -3.163,-24.685C-3.714,-24.619 -4.521,-23.972 -4.641,-23.451C-6.328,-16.058 -6.347,-8.705 -3.587,-1.535C-3.282,-0.744 -2.35,0.193 -1.578,0.33C-0.203,0.573 0.712,-0.382 0.984,-1.812C1.643,-5.265 2.307,-8.718 2.969,-12.171M-8.129,-27.388C-5.651,-27.79 -3.94,-28.129 -2.214,-28.328C-0.825,-28.489 0.699,-28.735 0.824,-26.554C0.842,-26.237 1.338,-25.875 1.689,-25.661C11.136,-19.92 12.275,-7.907 4.105,-0.514C3.522,0.014 3.302,0.931 2.866,1.638C2.624,2.032 2.351,2.573 1.978,2.693C0.295,3.234 -1.418,3.696 -3.146,4.069C-3.513,4.148 -4.365,3.707 -4.354,3.548C-4.243,1.901 -5.571,1.733 -6.581,1.223C-13.541,-2.291 -16.229,-12.215 -12.004,-19.113C-10.97,-20.8 -9.687,-22.366 -8.336,-23.818C-7.343,-24.886 -5.985,-25.66 -8.129,-27.388" style="fill:rgb(37,37,37);fill-rule:nonzero;"/>
    </g>
    <g transform="matrix(8.33333,0,0,8.33333,515.43,212.331)">
        <path d="M0,23.693C5.145,21.646 7.983,14.547 6.477,8.237C5.291,3.272 1.504,-0.814 -2.021,-0.548C3.585,7.043 2.393,15.175 0,23.693M-5.205,24.992C-9.05,16.771 -8.852,8.407 -7.049,-0.137C-11.321,0.931 -15.034,8.137 -14.538,14.101C-14.164,18.612 -10.665,24.702 -5.205,24.992M1.332,11.987C1.354,7.476 -0.277,3.664 -2.764,0.166C-3.111,-0.324 -4.104,-0.626 -4.746,-0.555C-5.291,-0.495 -6.091,0.151 -6.217,0.673C-8.006,8.07 -7.949,15.417 -5.162,22.585C-4.854,23.378 -3.944,24.334 -3.183,24.466C-1.831,24.702 -0.871,23.82 -0.604,22.348C0.023,18.891 0.685,15.441 1.332,11.987M-9.395,-3.287C-7.212,-3.646 -5.494,-3.992 -3.76,-4.192C-2.369,-4.353 -0.833,-4.592 -0.769,-2.381C-0.76,-2.083 -0.246,-1.729 0.105,-1.521C9.285,3.932 10.643,15.62 3.02,23.182C2.263,23.932 1.901,25.072 1.307,25.999C1.094,26.331 0.781,26.72 0.435,26.826C-1.256,27.344 -2.963,27.825 -4.689,28.2C-5.076,28.285 -5.955,27.882 -5.95,27.722C-5.902,26.019 -7.329,25.828 -8.357,25.275C-15.341,21.52 -17.839,11.433 -13.383,4.651C-12.374,3.115 -11.249,1.601 -9.925,0.343C-8.787,-0.738 -8.113,-1.659 -9.395,-3.287" style="fill:rgb(37,37,37);fill-rule:nonzero;"/>
    </g>
    <g transform="matrix(8.33333,0,0,8.33333,767.066,94.2104)">
        <path d="M0,23.694C5.145,21.647 7.982,14.548 6.477,8.238C5.291,3.273 1.504,-0.813 -2.021,-0.547C3.585,7.043 2.393,15.176 0,23.694M-5.205,24.993C-9.05,16.772 -8.853,8.408 -7.05,-0.136C-11.321,0.932 -15.034,8.138 -14.539,14.102C-14.164,18.613 -10.665,24.703 -5.205,24.993M1.332,11.988C1.354,7.477 -0.277,3.665 -2.764,0.167C-3.111,-0.323 -4.104,-0.625 -4.747,-0.554C-5.291,-0.494 -6.091,0.152 -6.217,0.674C-8.006,8.07 -7.949,15.418 -5.162,22.586C-4.854,23.379 -3.944,24.335 -3.184,24.467C-1.831,24.703 -0.871,23.821 -0.604,22.349C0.023,18.892 0.685,15.441 1.332,11.988M-9.395,-3.286C-7.212,-3.645 -5.494,-3.991 -3.76,-4.191C-2.369,-4.352 -0.833,-4.591 -0.769,-2.38C-0.76,-2.082 -0.246,-1.728 0.104,-1.52C9.284,3.933 10.643,15.621 3.02,23.183C2.263,23.933 1.901,25.072 1.307,25.999C1.094,26.332 0.78,26.721 0.435,26.827C-1.256,27.345 -2.963,27.826 -4.689,28.201C-5.076,28.285 -5.955,27.883 -5.95,27.723C-5.902,26.02 -7.329,25.829 -8.357,25.276C-15.341,21.521 -17.839,11.434 -13.384,4.652C-12.374,3.116 -11.249,1.602 -9.926,0.344C-8.788,-0.737 -8.113,-1.658 -9.395,-3.286" style="fill:rgb(37,37,37);fill-rule:nonzero;"/>
    </g>
    <g transform="matrix(8.33333,0,0,8.33333,788.07,263.447)">
        <path d="M0,-31.049C-5.42,-25.164 -12.914,-21.679 -19.987,-18.173C-27.248,-14.573 -34.696,-11.317 -42.363,-8.678C-58.458,-3.138 -75.319,-0.481 -92.267,-2.932C-92.974,-3.034 -95.612,-1.856 -94.117,-1.64C-76.832,0.86 -59.518,-1.793 -43.048,-7.285C-34.262,-10.215 -25.742,-13.922 -17.464,-18.063C-10.311,-21.642 -2.849,-25.225 2.644,-31.189C3.307,-31.909 0.519,-31.612 0,-31.049" style="fill:rgb(37,37,37);fill-rule:nonzero;"/>
    </g>
</svg>
