<?xml version="1.0" encoding="UTF-8" standalone="no"?>
<!DOCTYPE svg PUBLIC "-//W3C//DTD SVG 1.1//EN" "http://www.w3.org/Graphics/SVG/1.1/DTD/svg11.dtd">
<svg width="100%" height="100%" viewBox="0 0 146 116" version="1.1" xmlns="http://www.w3.org/2000/svg" xmlns:xlink="http://www.w3.org/1999/xlink" xml:space="preserve" xmlns:serif="http://www.serif.com/" style="fill-rule:evenodd;clip-rule:evenodd;stroke-linejoin:round;stroke-miterlimit:2;">
    <g transform="matrix(4.16667,0,0,4.16667,107.731,38.2279)">
        <path d="M0,9.991C0.01,10.005 0.021,10.018 0.031,10.032C0.237,9.883 0.442,9.733 0.648,9.584L0.616,9.54C0.41,9.69 0.205,9.841 0,9.991M-1.535,4.754C-1.525,4.771 -1.516,4.79 -1.506,4.807L-0.77,4.415C-0.78,4.397 -0.789,4.379 -0.799,4.361L-1.535,4.754ZM-16.015,-0.969C-16.341,-0.909 -16.662,-0.708 -16.711,-0.544C-16.466,-0.694 -16.24,-0.831 -16.015,-0.969M-19.993,17.085C-20.006,17.066 -20.019,17.048 -20.033,17.029C-20.277,17.157 -20.521,17.285 -20.765,17.413C-20.75,17.441 -20.735,17.469 -20.72,17.497C-20.478,17.359 -20.235,17.222 -19.993,17.085M-18.311,17.746C-18.294,17.773 -18.277,17.801 -18.26,17.828C-18.03,17.679 -17.8,17.532 -17.569,17.385C-17.579,17.368 -17.589,17.351 -17.599,17.335C-17.836,17.472 -18.073,17.609 -18.311,17.746M-18.264,7.401C-18.26,7.419 -18.255,7.436 -18.25,7.453C-17.866,7.354 -17.482,7.256 -17.098,7.156C-17.102,7.138 -17.107,7.121 -17.111,7.103C-17.496,7.203 -17.88,7.302 -18.264,7.401M-20.342,14.577C-20.353,14.556 -20.364,14.537 -20.375,14.517C-20.727,14.676 -21.078,14.835 -21.429,14.993C-21.42,15.012 -21.411,15.033 -21.402,15.053C-21.049,14.894 -20.695,14.735 -20.342,14.577M-18.723,16.381L-18.696,16.454C-18.338,16.319 -17.98,16.184 -17.622,16.05C-17.63,16.028 -17.638,16.008 -17.646,15.986C-18.005,16.118 -18.364,16.249 -18.723,16.381M-23.609,15.478C-23.285,15.264 -23.012,15.084 -22.74,14.903C-23.11,14.99 -23.555,15.266 -23.609,15.478M-19.332,17.65C-19.317,17.682 -19.302,17.716 -19.286,17.748C-18.995,17.574 -18.704,17.399 -18.413,17.224C-18.427,17.197 -18.442,17.171 -18.457,17.143C-18.749,17.312 -19.04,17.481 -19.332,17.65M-4.415,2.966L-4.364,3.059C-3.966,2.837 -3.567,2.613 -3.168,2.39C-3.178,2.372 -3.188,2.354 -3.198,2.337C-3.604,2.546 -4.009,2.756 -4.415,2.966M2.459,3.565C2.45,3.547 2.441,3.527 2.432,3.509C1.927,3.75 1.422,3.992 0.917,4.234C0.927,4.254 0.936,4.272 0.946,4.292C1.45,4.05 1.955,3.807 2.459,3.565M-4.166,11.036C-4.503,11.077 -5.093,11.466 -5.119,11.66C-4.789,11.443 -4.477,11.239 -4.166,11.036M-18.833,17.738C-18.481,17.705 -18.233,17.452 -17.947,17.275C-18.299,17.309 -18.552,17.547 -18.833,17.738M-5.433,13.395C-5.703,13.535 -5.94,13.657 -6.212,13.798C-5.854,13.895 -5.468,13.702 -5.433,13.395M-16.376,-0.131C-16.366,-0.113 -16.356,-0.094 -16.346,-0.075C-15.872,-0.359 -15.397,-0.641 -14.923,-0.924C-14.938,-0.95 -14.954,-0.976 -14.97,-1.002C-15.439,-0.712 -15.908,-0.421 -16.376,-0.131M-21.775,15.419C-22.242,15.646 -22.71,15.873 -23.214,16.117C-23.037,16.18 -22.254,15.801 -21.775,15.419M-22.004,14.793L-22.054,14.711C-22.533,15.012 -23.012,15.314 -23.491,15.616C-23.48,15.634 -23.469,15.651 -23.457,15.669C-22.973,15.377 -22.488,15.085 -22.004,14.793M-18.826,17.081C-19.2,17.183 -19.512,17.4 -19.812,17.639C-19.436,17.542 -19.131,17.311 -18.826,17.081M-18.62,6.774C-18.625,6.757 -18.63,6.738 -18.635,6.72C-19.385,6.934 -20.135,7.147 -20.884,7.36C-20.878,7.381 -20.873,7.401 -20.867,7.421C-20.118,7.205 -19.369,6.99 -18.62,6.774M-22.763,12.119C-23.195,12.181 -24.323,12.743 -24.39,12.92C-23.859,12.658 -23.338,12.402 -22.763,12.119M-22.406,11.794C-22.4,11.81 -22.394,11.826 -22.388,11.843C-21.636,11.576 -20.885,11.308 -20.133,11.042C-20.14,11.021 -20.147,11.002 -20.154,10.982L-22.406,11.794ZM-23.718,9.113C-23.71,9.135 -23.703,9.157 -23.695,9.179C-23.076,8.937 -22.456,8.697 -21.837,8.457C-21.846,8.431 -21.856,8.406 -21.866,8.381C-22.483,8.625 -23.101,8.87 -23.718,9.113M1.017,2.011C1.03,2.039 1.044,2.068 1.058,2.096C1.56,1.856 2.062,1.616 2.564,1.376C2.552,1.35 2.539,1.324 2.527,1.299C2.023,1.536 1.52,1.773 1.017,2.011M-20.325,17.492C-20.309,17.527 -20.292,17.563 -20.276,17.599C-19.905,17.397 -19.534,17.195 -19.162,16.993L-19.201,16.914C-19.632,16.99 -19.948,17.305 -20.325,17.492M-22.665,10.591C-22.669,10.578 -22.672,10.565 -22.676,10.553C-23.234,10.769 -23.793,10.984 -24.349,11.208C-24.393,11.225 -24.412,11.303 -24.442,11.352C-24.429,11.364 -24.416,11.375 -24.403,11.387C-23.823,11.121 -23.244,10.855 -22.665,10.591M-22.521,13.373C-22.537,13.345 -22.552,13.317 -22.568,13.289C-23.116,13.548 -23.637,13.855 -24.163,14.154C-24.151,14.176 -24.139,14.197 -24.126,14.219C-23.591,13.937 -23.056,13.655 -22.521,13.373M-22.434,9.349C-23.315,9.555 -24.055,9.872 -24.135,10.076C-23.538,9.821 -22.986,9.586 -22.434,9.349M-2.631,4.439C-3.158,4.589 -4.3,5.268 -4.368,5.484C-3.76,5.118 -3.196,4.779 -2.631,4.439M-22.586,7.596C-22.001,7.419 -21.417,7.241 -20.833,7.063C-20.841,7.04 -20.848,7.016 -20.855,6.993C-21.447,7.143 -22.065,7.212 -22.586,7.596M-24.397,13.138C-24.379,13.17 -24.36,13.201 -24.342,13.232C-23.805,12.966 -23.267,12.7 -22.73,12.434C-22.747,12.4 -22.764,12.367 -22.781,12.334C-23.32,12.602 -23.859,12.871 -24.397,13.138M-24.067,14.404C-24.05,14.435 -24.033,14.468 -24.016,14.499C-23.485,14.221 -22.954,13.945 -22.423,13.668C-22.442,13.632 -22.462,13.595 -22.481,13.559C-23.01,13.842 -23.538,14.123 -24.067,14.404M-13.802,-0.791C-13.816,-0.818 -13.831,-0.845 -13.845,-0.871C-14.524,-0.597 -15.105,-0.148 -15.716,0.248C-15.078,-0.099 -14.44,-0.445 -13.802,-0.791M-21.417,7.738C-21.821,7.736 -23.319,8.282 -23.443,8.468C-22.738,8.214 -22.077,7.976 -21.417,7.738M-21.64,8.08L-21.653,8.042C-21.674,8.04 -21.697,8.032 -21.716,8.039C-22.306,8.247 -22.897,8.454 -23.485,8.669C-23.549,8.691 -23.595,8.761 -23.649,8.808C-23.634,8.833 -23.618,8.856 -23.602,8.88C-22.948,8.613 -22.294,8.346 -21.64,8.08M-15.395,-0.973C-15.4,-0.99 -15.405,-1.007 -15.41,-1.024C-15.486,-1.011 -15.574,-1.017 -15.637,-0.981C-15.963,-0.79 -16.287,-0.595 -16.603,-0.388C-16.668,-0.345 -16.696,-0.243 -16.741,-0.169C-16.724,-0.156 -16.707,-0.145 -16.69,-0.133C-16.258,-0.413 -15.827,-0.693 -15.395,-0.973M-22.577,16.64L-22.54,16.728C-22.02,16.446 -21.5,16.165 -20.98,15.883C-20.999,15.845 -21.018,15.807 -21.037,15.77C-21.567,16.027 -22.084,16.309 -22.577,16.64M-24.328,13.549C-24.313,13.56 -24.298,13.572 -24.283,13.584C-23.747,13.295 -23.21,13.005 -22.674,12.716C-22.689,12.687 -22.704,12.658 -22.719,12.63C-23.233,12.891 -23.747,13.151 -24.258,13.418C-24.294,13.436 -24.305,13.504 -24.328,13.549M-1.582,3.459C-1.595,3.431 -1.609,3.403 -1.622,3.375C-2.46,3.848 -3.298,4.322 -4.135,4.796C-4.125,4.816 -4.113,4.836 -4.102,4.856C-3.262,4.39 -2.422,3.925 -1.582,3.459M-5.405,13.068C-5.426,13.052 -5.447,13.035 -5.468,13.019C-5.922,13.263 -6.377,13.509 -6.831,13.754C-6.814,13.787 -6.797,13.821 -6.78,13.855C-6.304,13.733 -5.929,13.385 -5.476,13.211C-5.439,13.196 -5.428,13.117 -5.405,13.068M-24.464,11.784C-23.859,11.485 -23.288,11.204 -22.717,10.923C-23.072,10.902 -24.408,11.572 -24.464,11.784M-21.715,17.175C-21.583,17.237 -20.512,16.729 -20.219,16.465C-20.378,16.381 -21.385,16.859 -21.715,17.175M-16.21,14.921C-16.2,14.944 -16.189,14.967 -16.179,14.989C-15.273,14.673 -14.366,14.356 -13.46,14.039C-13.472,14.004 -13.485,13.969 -13.497,13.933C-14.401,14.262 -15.306,14.592 -16.21,14.921M-22.101,16.942C-22.096,16.97 -22.091,17 -22.086,17.029C-22.018,17.029 -21.936,17.053 -21.884,17.024C-21.43,16.775 -20.982,16.516 -20.533,16.261C-20.599,16.201 -20.683,16.171 -20.736,16.199C-21.194,16.44 -21.647,16.693 -22.101,16.942M-22.311,13.929C-22.326,13.909 -22.341,13.888 -22.356,13.868C-22.399,13.881 -22.445,13.887 -22.484,13.907C-22.923,14.134 -23.363,14.36 -23.797,14.595C-23.848,14.623 -23.87,14.704 -23.906,14.76C-23.834,14.76 -23.749,14.785 -23.694,14.756C-23.281,14.529 -22.874,14.294 -22.467,14.058C-22.41,14.024 -22.363,13.972 -22.311,13.929M-6.42,9.73C-6.397,9.762 -6.374,9.795 -6.35,9.827C-5.874,9.501 -5.396,9.178 -4.925,8.845C-4.877,8.811 -4.872,8.718 -4.847,8.652C-4.864,8.638 -4.881,8.626 -4.899,8.613C-5.406,8.985 -5.913,9.358 -6.42,9.73M-19.102,3.228C-19.59,3.356 -21.682,4.657 -21.796,4.887C-20.887,4.327 -19.994,3.777 -19.102,3.228M-21.297,17.278C-21.282,17.309 -21.268,17.342 -21.253,17.373C-20.706,17.284 -20.29,16.884 -19.781,16.68C-19.86,16.637 -19.955,16.587 -20.012,16.615C-20.444,16.827 -20.869,17.054 -21.297,17.278M-4.972,9.115C-5.509,9.477 -6.022,9.824 -6.535,10.171C-6.521,10.193 -6.505,10.217 -6.49,10.24C-6.067,10.006 -5.65,9.762 -5.219,9.543C-5.043,9.453 -4.948,9.346 -4.972,9.115M-22.208,14.225C-22.237,14.209 -22.266,14.193 -22.295,14.177C-22.453,14.262 -22.613,14.345 -22.768,14.433C-23.061,14.6 -23.353,14.769 -23.64,14.945C-23.684,14.972 -23.701,15.046 -23.731,15.097C-23.677,15.092 -23.615,15.101 -23.57,15.078C-23.153,14.861 -22.737,14.642 -22.326,14.413C-22.27,14.382 -22.247,14.29 -22.208,14.225M-5.028,9.725C-5.049,9.704 -5.07,9.682 -5.091,9.66C-5.604,9.959 -6.119,10.255 -6.629,10.559C-6.673,10.586 -6.688,10.663 -6.736,10.753C-6.183,10.467 -5.679,10.211 -5.182,9.941C-5.112,9.903 -5.078,9.799 -5.028,9.725M-4.555,4.41C-4.582,4.392 -4.609,4.375 -4.636,4.356C-5.234,4.803 -5.832,5.248 -6.429,5.693L-6.383,5.758C-5.81,5.375 -5.235,4.994 -4.667,4.605C-4.611,4.567 -4.591,4.476 -4.555,4.41M-5.367,12.713C-5.388,12.686 -5.408,12.661 -5.428,12.635C-6.111,13.01 -6.794,13.384 -7.476,13.759C-7.465,13.784 -7.454,13.81 -7.443,13.837C-7.342,13.81 -7.23,13.804 -7.141,13.756C-6.602,13.464 -6.066,13.165 -5.533,12.863C-5.469,12.827 -5.422,12.763 -5.367,12.713M-22.595,12.98C-22.618,12.96 -22.64,12.939 -22.663,12.919C-23.164,13.19 -23.665,13.46 -24.161,13.74C-24.208,13.765 -24.219,13.854 -24.246,13.914C-23.693,13.677 -23.195,13.414 -22.703,13.142C-22.652,13.115 -22.63,13.036 -22.595,12.98M-22.777,11.704C-22.798,11.684 -22.82,11.664 -22.842,11.644C-23.354,11.896 -23.868,12.146 -24.377,12.405C-24.419,12.428 -24.427,12.517 -24.47,12.626C-23.899,12.37 -23.39,12.147 -22.888,11.91C-22.831,11.883 -22.813,11.774 -22.777,11.704M-6.366,9.439C-5.818,9.053 -5.33,8.715 -4.852,8.364C-4.796,8.323 -4.793,8.212 -4.765,8.133L-4.833,8.086C-5.307,8.442 -5.783,8.796 -6.251,9.159C-6.305,9.201 -6.312,9.302 -6.366,9.439M-22.02,8.794C-22.032,8.78 -22.045,8.766 -22.057,8.752C-22.086,8.759 -22.115,8.762 -22.142,8.771C-22.688,8.965 -23.236,9.15 -23.776,9.357C-23.874,9.394 -23.938,9.517 -24.017,9.601C-23.998,9.622 -23.98,9.641 -23.961,9.662C-23.377,9.438 -22.792,9.218 -22.212,8.985C-22.135,8.954 -22.083,8.859 -22.02,8.794M-24.388,10.953C-24.368,10.976 -24.349,11 -24.329,11.023C-23.764,10.787 -23.196,10.557 -22.637,10.307C-22.561,10.274 -22.528,10.145 -22.46,10.037C-22.528,10.037 -22.545,10.032 -22.557,10.038C-23.131,10.294 -23.707,10.549 -24.278,10.81C-24.327,10.833 -24.352,10.904 -24.388,10.953M-23.384,15.848C-23.363,15.886 -23.343,15.923 -23.322,15.959C-22.787,15.702 -22.252,15.444 -21.696,15.177C-21.764,15.092 -21.816,15.027 -21.889,14.937C-22.396,15.247 -22.89,15.548 -23.384,15.848M-4.552,6.341C-4.566,6.332 -4.581,6.323 -4.595,6.313C-4.642,6.34 -4.691,6.363 -4.735,6.392C-5.2,6.701 -5.667,7.005 -6.124,7.324C-6.211,7.386 -6.253,7.512 -6.34,7.644C-6.242,7.644 -6.222,7.65 -6.212,7.643C-5.69,7.279 -5.167,6.917 -4.651,6.545C-4.597,6.506 -4.584,6.41 -4.552,6.341M-4.533,5.85C-4.557,5.839 -4.581,5.828 -4.604,5.816C-5.138,6.19 -5.673,6.562 -6.202,6.942C-6.252,6.978 -6.263,7.069 -6.292,7.135C-6.273,7.146 -6.255,7.158 -6.236,7.169C-5.701,6.813 -5.164,6.462 -4.635,6.095C-4.574,6.053 -4.566,5.934 -4.533,5.85M-7.021,11.241L-6.979,11.282C-6.408,11.005 -5.834,10.733 -5.269,10.443C-5.195,10.406 -5.169,10.276 -5.12,10.189C-5.143,10.173 -5.167,10.155 -5.19,10.137C-5.754,10.447 -6.32,10.755 -6.882,11.07C-6.941,11.103 -6.975,11.182 -7.021,11.241M-24.493,12.176C-24.471,12.184 -24.449,12.192 -24.427,12.2C-23.922,11.964 -23.415,11.733 -22.916,11.484C-22.842,11.447 -22.811,11.324 -22.76,11.241L-22.832,11.182C-23.351,11.441 -23.872,11.695 -24.385,11.964C-24.442,11.994 -24.458,12.103 -24.493,12.176M-16.719,2.411C-16.734,2.385 -16.75,2.358 -16.765,2.332C-18.088,3.099 -19.412,3.867 -20.736,4.635C-20.722,4.658 -20.708,4.681 -20.695,4.706C-19.369,3.941 -18.044,3.176 -16.719,2.411M-21.262,15.647C-21.259,15.624 -21.255,15.601 -21.252,15.578C-21.325,15.564 -21.416,15.515 -21.468,15.542C-21.968,15.798 -22.461,16.066 -22.956,16.332C-22.954,16.365 -22.951,16.398 -22.948,16.431C-22.858,16.449 -22.744,16.511 -22.683,16.476C-22.204,16.211 -21.734,15.926 -21.262,15.647M-13.428,-0.713C-13.462,-0.719 -13.48,-0.729 -13.49,-0.723C-14.509,-0.159 -15.528,0.403 -16.543,0.973C-16.595,1.003 -16.617,1.088 -16.653,1.147C-16.636,1.158 -16.62,1.168 -16.604,1.178C-15.551,0.551 -14.498,-0.075 -13.428,-0.713M-7.645,12C-7.631,12.012 -7.618,12.024 -7.604,12.036C-6.84,11.637 -6.074,11.241 -5.312,10.838C-5.267,10.814 -5.246,10.744 -5.213,10.695C-5.233,10.672 -5.252,10.648 -5.272,10.626C-5.997,11.011 -6.723,11.392 -7.445,11.784C-7.526,11.828 -7.579,11.927 -7.645,12M-4.507,3.406C-4.599,3.406 -4.618,3.4 -4.627,3.407C-5.328,3.938 -6.028,4.47 -6.727,5.002C-6.86,5.103 -6.789,5.183 -6.656,5.31C-6.563,5.196 -6.49,5.069 -6.384,4.982C-5.833,4.528 -5.274,4.085 -4.719,3.635C-4.652,3.58 -4.599,3.507 -4.507,3.406M-14.329,-0.863C-14.335,-0.883 -14.341,-0.903 -14.347,-0.922C-14.432,-0.907 -14.53,-0.916 -14.599,-0.875C-15.269,-0.483 -15.934,-0.083 -16.596,0.321C-16.651,0.355 -16.672,0.444 -16.708,0.508C-16.687,0.521 -16.666,0.534 -16.645,0.547C-15.873,0.077 -15.101,-0.394 -14.329,-0.863M-24.284,10.599C-24.218,10.582 -24.171,10.577 -24.13,10.558C-23.587,10.308 -23.042,10.061 -22.505,9.8C-22.429,9.762 -22.392,9.645 -22.336,9.566C-22.353,9.552 -22.369,9.537 -22.386,9.522C-22.448,9.55 -22.51,9.578 -22.573,9.603C-23.053,9.802 -23.527,10.014 -24.015,10.191C-24.217,10.263 -24.289,10.372 -24.284,10.599M-6.583,5.524C-6.556,5.515 -6.526,5.512 -6.505,5.497C-5.897,5.052 -5.286,4.61 -4.688,4.151C-4.604,4.087 -4.583,3.938 -4.534,3.829C-4.555,3.817 -4.577,3.804 -4.598,3.793C-5.311,4.306 -6.001,4.846 -6.583,5.524M-4.528,4.839C-4.556,4.827 -4.584,4.814 -4.613,4.803C-5.191,5.189 -5.771,5.573 -6.343,5.97C-6.394,6.006 -6.389,6.123 -6.41,6.203C-6.386,6.213 -6.363,6.223 -6.34,6.233C-5.777,5.864 -5.211,5.5 -4.656,5.12C-4.583,5.07 -4.569,4.934 -4.528,4.839M-6.907,-0.074C-6.918,-0.09 -6.929,-0.107 -6.94,-0.122C-8.123,0.604 -9.313,1.322 -10.368,2.252C-10.263,2.259 -10.16,2.246 -10.087,2.193C-9.414,1.702 -8.75,1.198 -8.073,0.711C-7.694,0.436 -7.297,0.186 -6.907,-0.074M-4.526,5.363C-4.552,5.346 -4.579,5.329 -4.605,5.312C-5.15,5.679 -5.699,6.039 -6.236,6.418C-6.302,6.466 -6.3,6.611 -6.329,6.712C-6.303,6.722 -6.277,6.734 -6.25,6.745C-5.719,6.371 -5.184,6.002 -4.659,5.619C-4.59,5.568 -4.57,5.45 -4.526,5.363M-5.331,11.911C-6.601,12.459 -7.778,13.031 -8.88,13.755C-8.815,13.781 -8.751,13.801 -8.709,13.778C-7.608,13.205 -6.509,12.628 -5.411,12.049C-5.39,12.038 -5.383,12.002 -5.331,11.911M-9.125,2.659C-9.12,2.686 -9.115,2.714 -9.11,2.741C-9.046,2.73 -8.973,2.735 -8.921,2.704C-8.841,2.657 -8.781,2.579 -8.704,2.524C-7.583,1.741 -6.461,0.96 -5.34,0.178C-5.297,0.147 -5.257,0.111 -5.216,0.078C-6.577,0.861 -7.914,1.667 -9.125,2.659M-4.639,2.835C-5.416,3.48 -6.167,4.101 -6.914,4.727C-6.947,4.755 -6.951,4.816 -6.969,4.862C-6.91,4.848 -6.838,4.853 -6.794,4.82C-6.105,4.299 -5.422,3.767 -4.729,3.25C-4.591,3.147 -4.553,3.048 -4.639,2.835M-8.068,3.361C-8.054,3.403 -8.039,3.445 -8.025,3.486C-7.965,3.471 -7.894,3.472 -7.848,3.438C-7.722,3.345 -7.612,3.229 -7.485,3.137C-6.583,2.48 -5.678,1.827 -4.776,1.17C-4.708,1.121 -4.657,1.048 -4.598,0.986C-4.621,0.961 -4.644,0.936 -4.667,0.911C-5.801,1.728 -6.935,2.545 -8.068,3.361M-6.252,8.205C-6.193,8.175 -6.136,8.15 -6.086,8.118C-5.698,7.865 -5.319,7.597 -4.922,7.36C-4.697,7.225 -4.654,7.043 -4.667,6.762C-5.173,7.128 -5.644,7.475 -6.124,7.811C-6.27,7.913 -6.31,8.027 -6.252,8.205M-6.256,8.898C-5.807,8.576 -5.382,8.258 -4.94,7.962C-4.756,7.839 -4.711,7.696 -4.748,7.466C-5.176,7.746 -5.57,8.029 -5.989,8.267C-6.251,8.417 -6.335,8.599 -6.256,8.898M-5.315,11.601C-5.965,11.728 -9.241,13.421 -9.534,13.778C-9.451,13.771 -9.368,13.788 -9.315,13.755C-8.049,12.975 -6.722,12.313 -5.365,11.708C-5.345,11.698 -5.34,11.655 -5.315,11.601M-8.317,13.737C-8.307,13.771 -8.296,13.805 -8.286,13.839C-8.129,13.815 -7.95,13.833 -7.818,13.762C-7.037,13.344 -6.266,12.906 -5.494,12.47C-5.437,12.437 -5.404,12.363 -5.36,12.308C-5.38,12.285 -5.401,12.262 -5.421,12.238C-6.386,12.738 -7.352,13.237 -8.317,13.737M-16.641,1.516C-16.619,1.532 -16.598,1.548 -16.577,1.563C-15.324,0.823 -14.072,0.083 -12.819,-0.657C-12.826,-0.678 -12.832,-0.698 -12.839,-0.718C-12.929,-0.697 -13.032,-0.697 -13.109,-0.652C-14.242,0.012 -15.372,0.681 -16.5,1.353C-16.559,1.387 -16.594,1.461 -16.641,1.516M-9.134,13.193C-9.065,13.196 -9.048,13.203 -9.036,13.197C-7.84,12.604 -6.645,12.007 -5.445,11.421C-5.268,11.334 -5.266,11.213 -5.281,11.033C-6.584,11.718 -7.895,12.345 -9.134,13.193M-11.626,1.901C-11.614,1.934 -11.602,1.967 -11.589,2C-11.451,1.956 -11.295,1.938 -11.176,1.864C-10.109,1.197 -9.048,0.52 -7.986,-0.155C-7.957,-0.174 -7.934,-0.203 -7.908,-0.228C-7.923,-0.25 -7.937,-0.272 -7.951,-0.294C-9.217,0.367 -10.437,1.108 -11.626,1.901M-4.581,2.367C-4.672,2.394 -4.69,2.395 -4.701,2.404C-5.512,3.053 -6.322,3.702 -7.132,4.351C-7.277,4.467 -7.195,4.541 -7.112,4.607C-6.293,3.954 -5.486,3.314 -4.687,2.665C-4.626,2.615 -4.624,2.494 -4.581,2.367M-8.389,-0.281C-8.617,-0.369 -8.631,-0.379 -8.865,-0.234C-9.893,0.405 -10.917,1.051 -11.942,1.694C-12.032,1.751 -12.118,1.812 -12.206,1.872C-12.194,1.895 -12.182,1.919 -12.17,1.942C-12.061,1.9 -11.942,1.875 -11.844,1.815C-10.911,1.246 -9.983,0.67 -9.052,0.098C-8.84,-0.031 -8.62,-0.15 -8.389,-0.281M-6.168,-0.05C-6.177,-0.081 -6.186,-0.112 -6.195,-0.142C-6.338,-0.11 -6.504,-0.113 -6.62,-0.038C-7.248,0.367 -7.871,0.781 -8.481,1.213C-8.979,1.565 -9.455,1.948 -9.941,2.317C-9.925,2.348 -9.909,2.379 -9.893,2.409C-9.801,2.371 -9.698,2.348 -9.618,2.293C-8.872,1.767 -8.134,1.23 -7.383,0.713C-6.99,0.441 -6.574,0.203 -6.168,-0.05M-9.115,-0.319C-9.123,-0.34 -9.13,-0.361 -9.137,-0.382C-9.262,-0.347 -9.405,-0.338 -9.512,-0.272C-10.624,0.413 -11.729,1.107 -12.836,1.801C-12.889,1.833 -12.932,1.881 -12.979,1.922C-12.963,1.948 -12.948,1.974 -12.932,2.001C-12.725,1.906 -12.504,1.834 -12.313,1.714C-11.648,1.295 -10.995,0.855 -10.333,0.43C-9.931,0.174 -9.521,-0.07 -9.115,-0.319M-5.606,0.039C-5.615,0.012 -5.624,-0.017 -5.632,-0.044C-5.74,-0.016 -5.863,-0.014 -5.952,0.044C-6.902,0.659 -7.85,1.278 -8.791,1.908C-9.056,2.085 -9.295,2.301 -9.546,2.498C-9.538,2.522 -9.53,2.547 -9.521,2.571C-9.438,2.554 -9.337,2.561 -9.272,2.517C-8.385,1.908 -7.505,1.287 -6.617,0.678C-6.288,0.453 -5.944,0.252 -5.606,0.039M-4.506,0.466C-4.533,0.439 -4.56,0.412 -4.586,0.385C-5.865,1.301 -7.143,2.217 -8.421,3.133C-8.408,3.169 -8.396,3.205 -8.383,3.24C-8.293,3.229 -8.181,3.25 -8.117,3.204C-6.972,2.385 -5.831,1.56 -4.695,0.729C-4.612,0.669 -4.568,0.555 -4.506,0.466M-7.35,4.281C-7.311,4.255 -7.284,4.238 -7.26,4.219C-6.438,3.559 -5.618,2.897 -4.792,2.243C-4.65,2.131 -4.629,2.015 -4.705,1.832C-5.659,2.568 -6.6,3.294 -7.553,4.029C-7.468,4.134 -7.41,4.206 -7.35,4.281M-7.659,3.865C-7.619,3.842 -7.583,3.825 -7.553,3.803C-6.617,3.072 -5.679,2.344 -4.747,1.608C-4.688,1.561 -4.671,1.462 -4.635,1.387C-4.657,1.37 -4.679,1.353 -4.701,1.336C-5.74,2.108 -6.85,2.788 -7.82,3.67C-7.753,3.752 -7.709,3.804 -7.659,3.865M-16.53,1.993C-15.067,1.133 -13.611,0.276 -12.156,-0.58C-12.163,-0.605 -12.17,-0.628 -12.177,-0.653C-12.326,-0.614 -12.493,-0.608 -12.621,-0.533C-13.903,0.213 -15.178,0.972 -16.458,1.723C-16.604,1.809 -16.578,1.898 -16.53,1.993M-16.475,2.945C-14.634,1.803 -12.793,0.661 -10.952,-0.482C-11.047,-0.486 -11.138,-0.468 -11.215,-0.426C-11.416,-0.318 -11.612,-0.201 -11.807,-0.083C-13.313,0.828 -14.819,1.741 -16.325,2.652C-16.448,2.725 -16.55,2.802 -16.475,2.945M-11.051,1.958L-11.021,2.084C-10.855,2.084 -10.632,2.154 -10.531,2.073C-9.543,1.274 -8.466,0.609 -7.393,-0.063C-7.346,-0.092 -7.306,-0.132 -7.262,-0.167C-7.381,-0.2 -7.496,-0.215 -7.573,-0.168C-8.735,0.536 -9.892,1.248 -11.051,1.958M-16.552,2.459C-16.536,2.462 -16.521,2.466 -16.505,2.469C-14.827,1.473 -13.148,0.478 -11.469,-0.517C-11.474,-0.536 -11.479,-0.557 -11.483,-0.576C-11.613,-0.551 -11.762,-0.559 -11.87,-0.495C-13.381,0.392 -14.887,1.288 -16.389,2.191C-16.468,2.238 -16.499,2.367 -16.552,2.459M-16.442,3.337C-16.427,3.347 -16.411,3.358 -16.396,3.369C-14.369,2.093 -12.342,0.817 -10.278,-0.482C-10.43,-0.442 -10.564,-0.432 -10.672,-0.373C-11.066,-0.158 -11.457,0.061 -11.836,0.301C-13.318,1.236 -14.796,2.179 -16.271,3.123C-16.344,3.17 -16.386,3.264 -16.442,3.337M-8.782,2.85C-8.637,3.072 -8.513,2.987 -8.374,2.887C-7.158,2.016 -5.94,1.149 -4.724,0.28C-4.678,0.247 -4.641,0.203 -4.6,0.164C-4.608,0.142 -4.617,0.121 -4.626,0.1C-4.748,0.126 -4.893,0.117 -4.989,0.181C-6.05,0.887 -7.107,1.6 -8.158,2.322C-8.382,2.476 -8.575,2.674 -8.782,2.85M-18.382,-5.919C-18.557,-5.919 -18.668,-5.931 -18.776,-5.917C-19.18,-5.866 -19.588,-5.84 -19.887,-5.491C-20.114,-5.227 -20.087,-5.016 -19.772,-4.856C-19.144,-4.535 -18.48,-4.474 -17.807,-4.628C-17.556,-4.686 -17.323,-4.844 -17.097,-4.979C-16.925,-5.081 -16.914,-5.252 -17.028,-5.406C-17.1,-5.504 -17.198,-5.59 -17.299,-5.658C-17.647,-5.89 -18.035,-5.96 -18.382,-5.919M-2.948,1.878L-2.948,3.209L0.828,3.209C0.828,2.906 0.841,2.57 0.824,2.235C0.813,2.03 0.701,1.879 0.467,1.878C-0.668,1.877 -1.804,1.878 -2.948,1.878M-8.896,12.504C-8.885,12.513 -8.874,12.523 -8.863,12.533C-8.808,12.463 -8.728,12.4 -8.703,12.32C-8.532,11.783 -8.316,11.252 -8.221,10.701C-8.035,9.62 -8.092,8.533 -8.386,7.472C-8.565,6.83 -8.784,6.199 -9.003,5.568C-9.055,5.418 -9.169,5.285 -9.267,5.153C-9.413,4.958 -9.574,4.774 -9.721,4.581C-9.999,4.217 -10.278,3.851 -10.695,3.634C-11.554,3.182 -12.457,2.877 -13.436,2.849C-13.829,2.839 -14.223,2.845 -14.615,2.867C-14.731,2.873 -14.842,2.963 -14.955,3.014C-14.514,3.09 -14.091,3.099 -13.672,3.152C-13.253,3.205 -12.818,3.243 -12.427,3.387C-11.666,3.667 -10.958,4.05 -10.316,4.568C-9.87,4.929 -9.522,5.338 -9.344,5.869C-9.136,6.486 -8.984,7.122 -8.802,7.748C-8.483,8.843 -8.489,9.957 -8.624,11.073C-8.682,11.554 -8.803,12.027 -8.896,12.504M-6.302,-5.257C-5.958,-4.446 -5.584,-3.622 -5.26,-2.78C-4.936,-1.938 -4.762,-1.04 -4.375,-0.169C-4.324,-0.269 -4.299,-0.317 -4.275,-0.365C-3.838,-1.254 -3.407,-2.146 -2.962,-3.03C-2.676,-3.599 -2.381,-4.163 -2.064,-4.715C-1.969,-4.881 -1.982,-4.979 -2.072,-5.134C-2.399,-5.702 -2.878,-6.134 -3.335,-6.587C-3.483,-6.734 -3.613,-6.899 -3.747,-7.051C-4.599,-6.453 -5.432,-5.867 -6.302,-5.257M-14.068,-6.128C-14.058,-6.104 -14.047,-6.079 -14.037,-6.054C-14.009,-6.044 -13.981,-6.028 -13.952,-6.024C-12.979,-5.892 -12.009,-5.709 -11.032,-5.643C-9.573,-5.543 -8.108,-5.527 -6.646,-5.472C-6.374,-5.462 -6.137,-5.538 -5.924,-5.71C-5.393,-6.141 -4.866,-6.578 -4.25,-6.89C-4.127,-6.952 -4.031,-7.065 -3.921,-7.155C-5.06,-7.269 -6.161,-7.372 -7.261,-7.489C-8.246,-7.595 -9.229,-7.715 -10.212,-7.824C-10.295,-7.833 -10.39,-7.825 -10.467,-7.794C-11.36,-7.424 -12.256,-7.059 -13.14,-6.666C-13.465,-6.522 -13.76,-6.31 -14.068,-6.128M-11.796,14.836C-11.071,14.405 -10.826,14.173 -10.566,13.485C-10.37,12.969 -10.094,12.477 -10.077,11.894C-10.027,10.26 -10.018,8.655 -10.853,7.145C-11.29,6.357 -11.845,5.721 -12.526,5.164C-13.044,4.74 -13.683,4.568 -14.289,4.334C-14.966,4.071 -15.653,3.971 -16.39,4.158C-16.76,4.252 -17.112,4.321 -17.423,4.554C-17.545,4.647 -17.707,4.688 -17.85,4.753C-17.96,4.803 -18.071,4.852 -18.181,4.902C-18.054,4.944 -17.939,4.94 -17.825,4.944C-17.135,4.968 -16.441,4.892 -15.758,5.068C-15.005,5.262 -14.295,5.542 -13.654,5.989C-13.494,6.1 -13.294,6.152 -13.134,6.263C-12.906,6.422 -12.647,6.573 -12.491,6.791C-12.042,7.418 -11.688,8.092 -11.454,8.842C-10.993,10.319 -11.028,11.785 -11.405,13.263C-11.538,13.786 -11.665,14.309 -11.796,14.836M-16.242,3.879C-15.934,3.879 -15.59,3.828 -15.265,3.887C-13.985,4.121 -12.825,4.595 -11.844,5.506C-10.954,6.333 -10.411,7.352 -10.128,8.482C-9.918,9.319 -9.898,10.212 -9.855,11.082C-9.82,11.798 -9.906,12.511 -10.245,13.17C-10.346,13.367 -10.401,13.587 -10.488,13.827C-10.1,13.557 -9.744,13.312 -9.392,13.062C-9.344,13.028 -9.304,12.971 -9.282,12.917C-8.743,11.602 -8.619,10.225 -8.786,8.837C-8.884,8.021 -9.114,7.219 -9.339,6.425C-9.453,6.023 -9.642,5.624 -9.882,5.284C-10.083,4.997 -10.406,4.795 -10.678,4.558C-11.36,3.968 -12.161,3.609 -13.035,3.431C-13.488,3.34 -13.96,3.348 -14.417,3.273C-15.156,3.152 -15.755,3.397 -16.242,3.879M-8.39,12.283C-7.954,12.075 -7.702,11.77 -7.444,11.463C-6.984,10.913 -6.631,10.3 -6.567,9.59C-6.487,8.691 -6.468,7.783 -6.492,6.881C-6.504,6.442 -6.592,5.963 -6.796,5.583C-7.151,4.923 -7.562,4.269 -8.063,3.717C-8.627,3.094 -9.411,2.771 -10.209,2.488C-11.383,2.071 -12.554,1.984 -13.757,2.302C-13.99,2.363 -14.205,2.452 -14.388,2.668C-14.287,2.668 -14.225,2.672 -14.163,2.668C-13.354,2.616 -12.561,2.686 -11.792,2.96C-11.213,3.166 -10.621,3.367 -10.162,3.782C-9.827,4.084 -9.583,4.484 -9.28,4.825C-9.003,5.137 -8.793,5.483 -8.677,5.882C-8.471,6.598 -8.225,7.308 -8.083,8.038C-7.873,9.118 -7.844,10.208 -8.176,11.284C-8.271,11.593 -8.313,11.918 -8.39,12.283M-16.708,14.048C-16.504,13.995 -16.176,13.968 -15.912,13.823C-15.594,13.648 -15.303,13.398 -15.052,13.132C-14.855,12.922 -14.646,12.651 -14.601,12.382C-14.501,11.772 -14.584,11.164 -14.844,10.582C-15.024,10.179 -15.363,9.914 -15.605,9.571C-15.913,9.133 -16.313,9.008 -16.811,9.058C-17.693,9.148 -18.51,9.357 -18.975,10.22C-19.243,10.716 -19.316,11.266 -19.371,11.811C-19.465,12.734 -18.91,13.318 -18.23,13.814C-18.164,13.863 -18.073,13.891 -17.99,13.902C-17.601,13.952 -17.211,13.992 -16.708,14.048M-20.356,-5.053C-20.762,-4.758 -21.172,-4.496 -21.54,-4.185C-22.02,-3.779 -22.311,-3.233 -22.499,-2.64C-22.555,-2.462 -22.557,-2.246 -22.509,-2.068C-22.494,-2.008 -22.243,-2.012 -22.1,-1.988C-22.069,-1.982 -22.038,-1.977 -22.006,-1.972C-20.598,-1.773 -19.19,-1.572 -17.781,-1.374C-17.516,-1.337 -17.248,-1.326 -16.984,-1.286C-16.775,-1.254 -16.647,-1.305 -16.576,-1.523C-16.488,-1.791 -16.379,-2.055 -16.256,-2.309C-15.911,-3.016 -15.517,-3.701 -15.211,-4.424C-14.888,-5.184 -14.482,-5.877 -13.901,-6.497C-14.056,-6.509 -14.194,-6.522 -14.333,-6.53C-14.646,-6.55 -14.964,-6.543 -15.273,-6.591C-16.215,-6.738 -17.137,-6.767 -17.996,-6.254C-18.064,-6.213 -18.14,-6.186 -18.212,-6.153C-18.091,-6.098 -17.983,-6.083 -17.874,-6.078C-17.313,-6.052 -16.539,-5.424 -16.62,-4.757C-16.64,-4.594 -16.641,-4.425 -16.62,-4.262C-16.574,-3.905 -16.774,-3.719 -17.047,-3.549C-17.609,-3.2 -18.217,-3.081 -18.858,-3.19C-19.217,-3.25 -19.573,-3.364 -19.911,-3.502C-20.027,-3.55 -20.129,-3.732 -20.161,-3.87C-20.246,-4.241 -20.288,-4.622 -20.356,-5.053M-14.317,16.697L-14.264,16.764C-13.585,16.244 -12.906,15.724 -12.23,15.2C-12.185,15.165 -12.162,15.099 -12.135,15.045C-11.816,14.411 -11.675,13.722 -11.537,13.038C-11.421,12.462 -11.312,11.874 -11.296,11.288C-11.261,9.942 -11.55,8.66 -12.243,7.492C-12.498,7.061 -12.743,6.614 -13.249,6.402C-13.493,6.299 -13.724,6.158 -13.949,6.015C-14.505,5.661 -15.107,5.424 -15.745,5.265C-16.42,5.098 -17.106,5.148 -17.79,5.138C-18.361,5.13 -18.897,5.226 -19.387,5.541C-19.864,5.845 -20.351,6.135 -20.833,6.431C-20.897,6.471 -20.957,6.519 -21.019,6.564C-20.11,6.36 -19.204,6.362 -18.303,6.427C-16.92,6.527 -15.721,7.112 -14.676,7.987C-14.299,8.303 -14.035,8.751 -13.717,9.136C-13.449,9.46 -13.283,9.832 -13.222,10.243C-13.129,10.873 -13.045,11.505 -12.981,12.138C-12.94,12.551 -12.904,12.97 -12.931,13.383C-12.978,14.088 -13.237,14.74 -13.502,15.392C-13.7,15.88 -13.9,16.351 -14.317,16.697M-16.455,-1.283C-12.456,-0.881 -8.511,-0.485 -4.555,-0.086C-4.649,-0.335 -4.767,-0.578 -4.833,-0.834C-5.22,-2.316 -5.825,-3.715 -6.438,-5.112C-6.471,-5.187 -6.575,-5.275 -6.652,-5.28C-7.366,-5.33 -8.081,-5.374 -8.796,-5.401C-9.59,-5.43 -10.389,-5.398 -11.178,-5.469C-12.139,-5.557 -13.093,-5.726 -14.051,-5.853C-14.111,-5.861 -14.208,-5.823 -14.238,-5.776C-14.457,-5.432 -14.669,-5.084 -14.869,-4.731C-14.965,-4.56 -15.025,-4.369 -15.111,-4.194C-15.461,-3.482 -15.822,-2.774 -16.165,-2.058C-16.275,-1.829 -16.345,-1.581 -16.455,-1.283M2.889,2.816C2.877,2.576 2.872,2.335 2.851,2.095C2.835,1.916 2.903,1.805 3.058,1.714C3.333,1.553 3.596,1.372 3.864,1.199C3.854,1.183 3.844,1.168 3.834,1.152C3.527,1.34 3.219,1.528 2.911,1.716C2.888,1.69 2.865,1.665 2.842,1.638C2.917,1.551 2.975,1.433 3.07,1.379C4.15,0.747 5.235,0.124 6.319,-0.5C6.642,-0.685 6.968,-0.863 7.292,-1.046C7.279,-1.07 7.265,-1.094 7.252,-1.117C6.523,-0.724 5.785,-0.345 5.067,0.068C4.341,0.486 3.635,0.939 2.869,1.408C2.907,1.13 2.91,0.897 2.98,0.687C3.02,0.57 3.155,0.454 3.275,0.401C3.445,0.328 3.642,0.321 3.824,0.271C4.238,0.159 4.519,-0.126 4.793,-0.443C5.321,-1.053 6.037,-1.467 6.521,-2.138C6.84,-2.579 7.049,-3.042 7.166,-3.558C7.184,-3.636 7.16,-3.756 7.108,-3.812C6.806,-4.138 6.44,-4.363 5.991,-4.416C5.689,-4.451 5.378,-4.429 5.079,-4.481C4.092,-4.651 3.1,-4.747 2.098,-4.745C1.65,-4.744 1.198,-4.744 0.755,-4.798C-0.102,-4.902 -0.953,-5.043 -1.855,-5.177C-1.697,-4.945 -1.8,-4.787 -1.906,-4.629C-1.975,-4.525 -2.053,-4.424 -2.111,-4.313C-2.659,-3.259 -3.211,-2.207 -3.746,-1.147C-3.924,-0.794 -4.053,-0.417 -4.203,-0.057C-3.804,-0.03 -3.436,-0.013 -3.069,0.02C-2.772,0.048 -2.479,0.103 -2.182,0.128C-1.822,0.158 -1.443,0.108 -1.102,0.201C-0.396,0.392 0.318,0.47 1.043,0.488C1.507,0.499 1.972,0.487 2.436,0.507C2.527,0.511 2.677,0.598 2.69,0.669C2.735,0.906 2.75,1.153 2.743,1.395C2.706,2.559 2.645,3.722 2.616,4.887C2.583,6.287 2.594,7.688 2.547,9.089C2.51,10.213 2.41,11.335 2.351,12.459C2.33,12.862 2.347,13.268 2.347,13.702C2.392,13.652 2.465,13.608 2.469,13.559C2.485,13.387 2.488,13.213 2.474,13.041C2.462,12.887 2.593,12.789 2.558,12.6C2.495,12.26 2.537,11.896 2.559,11.543C2.599,10.884 2.679,10.225 2.696,9.565C2.708,9.135 2.754,8.757 3.184,8.542C3.192,8.538 3.194,8.519 3.212,8.474C3.052,8.57 2.916,8.651 2.745,8.753C2.745,8.162 2.734,7.607 2.748,7.053C2.763,6.424 2.806,5.796 2.823,5.167C2.827,5.022 2.869,4.936 2.991,4.864C3.249,4.712 3.499,4.545 3.752,4.384C3.742,4.367 3.732,4.351 3.722,4.335C3.435,4.503 3.149,4.672 2.826,4.861C2.826,4.52 2.819,4.216 2.828,3.912C2.84,3.545 2.865,3.179 2.885,2.811C2.963,2.778 3.045,2.753 3.118,2.711C3.525,2.471 3.926,2.22 4.336,1.988C5.268,1.461 6.205,0.943 7.138,0.42C7.21,0.379 7.274,0.324 7.341,0.276C7.329,0.258 7.317,0.239 7.305,0.221C7.237,0.25 7.165,0.272 7.1,0.308C6.203,0.814 5.3,1.311 4.412,1.834C3.892,2.139 3.396,2.487 2.889,2.816M-14.308,2.298C-13.87,2.093 -13.411,1.923 -12.999,1.674C-11.921,1.025 -10.865,0.342 -9.801,-0.328C-9.779,-0.342 -9.762,-0.363 -9.743,-0.381C-9.851,-0.396 -9.941,-0.376 -10.016,-0.333C-11.004,0.237 -11.995,0.801 -12.972,1.388C-13.433,1.666 -13.866,1.99 -14.311,2.294C-14.706,2.547 -15.101,2.799 -15.496,3.051C-15.475,3.081 -15.454,3.111 -15.433,3.141C-15.058,2.86 -14.683,2.579 -14.308,2.298M-18.989,1.918C-19.012,1.92 -19.04,1.913 -19.058,1.924C-19.599,2.26 -20.138,2.596 -20.677,2.934C-20.682,2.937 -20.673,2.962 -20.669,2.988C-20.23,2.72 -19.794,2.457 -19.363,2.187C-19.233,2.105 -19.116,2.005 -18.993,1.913C-18.664,1.744 -18.336,1.575 -18.007,1.405C-18.022,1.38 -18.037,1.353 -18.052,1.327C-18.365,1.524 -18.677,1.72 -18.989,1.918M-1.853,14.089C-4.042,14.06 -6.23,14.034 -8.418,14.003C-8.984,13.995 -9.55,13.964 -10.116,13.959C-10.232,13.958 -10.37,13.999 -10.46,14.068C-11.263,14.686 -12.051,15.322 -12.855,15.938C-13.554,16.474 -14.275,16.971 -15.052,17.397C-15.986,17.908 -16.992,17.953 -18,17.979C-19.212,18.011 -20.402,17.784 -21.56,17.446C-22.297,17.231 -22.902,16.76 -23.4,16.174C-23.53,16.021 -23.613,15.826 -23.702,15.643C-23.796,15.453 -23.863,15.25 -23.957,15.059C-24.897,13.16 -24.873,11.244 -24.069,9.311C-23.811,8.692 -23.541,8.08 -23.016,7.627C-22.981,7.596 -22.956,7.544 -22.916,7.529C-22.579,7.41 -22.569,7.141 -22.574,6.845C-22.596,5.421 -22.603,3.996 -22.627,2.572C-22.651,1.132 -22.691,-0.308 -22.72,-1.747C-22.727,-2.097 -22.788,-2.444 -22.655,-2.794C-22.336,-3.631 -21.825,-4.306 -21.071,-4.792C-20.846,-4.938 -20.607,-5.063 -20.393,-5.222C-20.259,-5.322 -20.149,-5.46 -20.042,-5.593C-19.832,-5.854 -19.544,-5.948 -19.235,-6.041C-18.688,-6.206 -18.129,-6.364 -17.62,-6.618C-17.054,-6.901 -16.479,-6.883 -15.892,-6.848C-15.14,-6.802 -14.39,-6.725 -13.638,-6.667C-13.574,-6.662 -13.504,-6.694 -13.442,-6.721C-12.473,-7.134 -11.506,-7.552 -10.534,-7.96C-10.43,-8.004 -10.302,-8.02 -10.189,-8.007C-9.213,-7.902 -8.238,-7.78 -7.261,-7.676C-6.348,-7.578 -5.433,-7.494 -4.518,-7.407C-4.417,-7.398 -4.31,-7.381 -4.212,-7.401C-3.877,-7.47 -3.683,-7.29 -3.485,-7.055C-3.232,-6.756 -2.936,-6.495 -2.673,-6.204C-2.474,-5.983 -2.303,-5.737 -2.109,-5.511C-2.049,-5.442 -1.956,-5.368 -1.871,-5.357C-1.31,-5.283 -0.746,-5.228 -0.184,-5.163C-0.043,-5.148 0.099,-5.13 0.235,-5.094C0.741,-4.959 1.255,-4.918 1.778,-4.927C2.945,-4.947 4.104,-4.853 5.254,-4.637C5.481,-4.594 5.722,-4.624 5.955,-4.607C6.478,-4.566 6.89,-4.299 7.249,-3.942C7.321,-3.869 7.376,-3.752 7.386,-3.651C7.546,-1.917 7.529,-0.181 7.491,1.558C7.457,3.085 7.466,4.612 7.45,6.138C7.445,6.635 7.417,7.13 7.408,7.626C7.4,8.074 7.42,8.523 7.4,8.97C7.39,9.192 7.355,9.429 7.264,9.627C7.013,10.174 6.659,10.65 6.201,11.053C5.865,11.348 5.555,11.675 5.248,12.002C4.512,12.784 3.613,13.3 2.654,13.768C2.031,14.073 1.413,13.998 0.792,14.029C-0.087,14.073 -0.971,14.04 -1.853,14.04L-1.853,14.089" style="fill-rule:nonzero;"/>
    </g>
</svg>
