<?xml version="1.0" encoding="UTF-8" standalone="no"?>
<!DOCTYPE svg PUBLIC "-//W3C//DTD SVG 1.1//EN" "http://www.w3.org/Graphics/SVG/1.1/DTD/svg11.dtd">
<svg width="100%" height="100%" viewBox="0 0 1500 700" version="1.1" xmlns="http://www.w3.org/2000/svg" xmlns:xlink="http://www.w3.org/1999/xlink" xml:space="preserve" xmlns:serif="http://www.serif.com/" style="fill-rule:evenodd;clip-rule:evenodd;stroke-linecap:round;stroke-linejoin:round;stroke-miterlimit:1.5;">
    <g transform="matrix(1.28112,0,0,1.27168,99.9272,-13.5684)">
        <path d="M-123.273,482.486C-78.046,413.042 -27.143,342.926 37.823,290.466C145.174,203.78 287.13,163.849 423.524,161.249C438.355,160.966 453.197,161.235 468.02,161.769C522.456,163.733 580.32,172.459 628.892,198.515C671.824,221.544 705.664,258.748 714.193,307.855C717.432,326.5 717.922,341.314 716.032,360.14C707.937,440.816 620.305,481.59 547.093,473.583C493.436,467.715 446.702,435.466 423.445,386.255C416.369,371.283 410.63,353.922 410.711,337.069C410.888,300.651 421.081,266.151 438.805,234.408C476.496,166.905 549.689,134.516 620.812,113.065C714.295,84.87 815.758,79.418 911.216,101.04C952.829,110.466 991.569,127.917 1030.3,145.431C1070.05,163.408 1107.8,186.253 1141.25,214.337" style="fill:none;stroke:black;stroke-width:117.52px;"/>
    </g>
</svg>
