<?xml version="1.0" encoding="UTF-8" standalone="no"?>
<!DOCTYPE svg PUBLIC "-//W3C//DTD SVG 1.1//EN" "http://www.w3.org/Graphics/SVG/1.1/DTD/svg11.dtd">
<svg width="100%" height="100%" viewBox="0 0 331 329" version="1.1" xmlns="http://www.w3.org/2000/svg" xmlns:xlink="http://www.w3.org/1999/xlink" xml:space="preserve" xmlns:serif="http://www.serif.com/" style="fill-rule:evenodd;clip-rule:evenodd;stroke-linejoin:round;stroke-miterlimit:2;">
    <g transform="matrix(-3.8153,-1.67469,-1.67469,3.8153,162.98,79.3247)">
        <path d="M3.77,-8.964C4.156,-5.217 4.821,-1.498 5.757,2.151C5.07,2.26 4.395,1.947 3.77,1.642C0.039,-0.174 -3.691,-1.992 -7.422,-3.809C-3.612,-5.337 -0.204,-7.659 3.694,-8.941" style="fill:rgb(24,95,86);fill-rule:nonzero;"/>
    </g>
    <g transform="matrix(-3.8153,-1.67469,-1.67469,3.8153,143.571,243.031)">
        <path d="M3.77,-8.964C4.156,-5.217 4.821,-1.498 5.757,2.151C5.07,2.26 4.395,1.947 3.77,1.642L-7.422,-3.809C-3.613,-5.338 -0.204,-7.659 3.694,-8.941" style="fill:rgb(24,95,86);fill-rule:nonzero;"/>
    </g>
    <g transform="matrix(-3.81516,-1.67502,-1.67502,3.81516,56.468,146.599)">
        <path d="M3.769,-8.964C4.155,-5.217 4.82,-1.498 5.756,2.152C5.069,2.261 4.393,1.947 3.769,1.643C0.038,-0.174 -3.692,-1.992 -7.423,-3.81C-3.613,-5.338 -0.205,-7.659 3.695,-8.941" style="fill:rgb(24,95,86);fill-rule:nonzero;"/>
    </g>
    <g transform="matrix(-3.81516,-1.67502,-1.67502,3.81516,255.802,155.27)">
        <path d="M3.77,-8.964C4.156,-5.216 4.82,-1.498 5.756,2.151C5.07,2.261 4.394,1.948 3.77,1.643L-7.422,-3.809C-3.612,-5.338 -0.204,-7.659 3.696,-8.941" style="fill:rgb(24,95,86);fill-rule:nonzero;"/>
    </g>
    <g transform="matrix(-3.8153,-1.67469,-1.67469,3.8153,255.202,297.796)">
        <path d="M3.77,-8.964C4.156,-5.217 4.821,-1.498 5.757,2.151C5.07,2.26 4.395,1.947 3.77,1.642L-7.422,-3.809C-3.614,-5.337 -0.204,-7.659 3.694,-8.941" style="fill:rgb(24,95,86);fill-rule:nonzero;"/>
    </g>
</svg>
