<?xml version="1.0" encoding="UTF-8" standalone="no"?>
<!DOCTYPE svg PUBLIC "-//W3C//DTD SVG 1.1//EN" "http://www.w3.org/Graphics/SVG/1.1/DTD/svg11.dtd">
<svg width="100%" height="100%" viewBox="0 0 277 232" version="1.1" xmlns="http://www.w3.org/2000/svg" xmlns:xlink="http://www.w3.org/1999/xlink" xml:space="preserve" xmlns:serif="http://www.serif.com/" style="fill-rule:evenodd;clip-rule:evenodd;stroke-linejoin:round;stroke-miterlimit:2;">
    <g transform="matrix(-3.81531,-1.67466,-1.67466,3.81531,95.764,65.5706)">
        <path d="M3.778,-8.984C4.165,-5.228 4.832,-1.501 5.77,2.157C5.082,2.266 4.404,1.952 3.778,1.647C0.039,-0.174 -3.7,-1.996 -7.44,-3.817C-3.622,-5.349 -0.204,-7.677 3.703,-8.962" style="fill:rgb(24,95,86);fill-rule:nonzero;"/>
    </g>
    <g transform="matrix(-3.81531,-1.67466,-1.67466,3.81531,79.429,201.599)">
        <path d="M3.778,-8.984C4.166,-5.228 4.832,-1.501 5.77,2.157C5.082,2.266 4.405,1.952 3.778,1.647C0.039,-0.174 -3.7,-1.996 -7.44,-3.817C-3.621,-5.349 -0.204,-7.677 3.703,-8.962" style="fill:rgb(24,95,86);fill-rule:nonzero;"/>
    </g>
    <g transform="matrix(-3.81531,-1.67466,-1.67466,3.81531,188.803,141.698)">
        <path d="M3.778,-8.985C4.165,-5.229 4.832,-1.502 5.77,2.156C5.081,2.265 4.404,1.952 3.778,1.646C0.039,-0.175 -3.7,-1.997 -7.44,-3.818C-3.622,-5.35 -0.205,-7.677 3.703,-8.963" style="fill:rgb(24,95,86);fill-rule:nonzero;"/>
    </g>
</svg>
