<?xml version="1.0" encoding="UTF-8" standalone="no"?>
<!DOCTYPE svg PUBLIC "-//W3C//DTD SVG 1.1//EN" "http://www.w3.org/Graphics/SVG/1.1/DTD/svg11.dtd">
<svg width="100%" height="100%" viewBox="0 0 1721 484" version="1.1" xmlns="http://www.w3.org/2000/svg" xmlns:xlink="http://www.w3.org/1999/xlink" xml:space="preserve" xmlns:serif="http://www.serif.com/" style="fill-rule:evenodd;clip-rule:evenodd;stroke-linejoin:round;stroke-miterlimit:2;">
    <g transform="matrix(8.33333,0,0,8.33333,745.12,119.85)">
        <path d="M0,29.225C-2.057,31.145 -4.057,32.863 -6.004,34.376C-7.951,35.892 -9.75,37.041 -11.398,37.825C-13.048,38.609 -14.36,38.839 -15.334,38.514C-15.604,38.407 -15.833,38.244 -16.023,38.028C-16.212,37.812 -16.334,37.488 -16.389,37.054C-16.551,35.648 -16.104,33.918 -15.05,31.862C-13.995,29.807 -12.251,27.833 -9.816,25.939C-7.816,24.371 -5.91,23.221 -4.097,22.491C-2.286,21.761 -0.596,21.396 0.974,21.396L2.109,21.396C3.353,21.613 4.272,21.978 4.867,22.491C5.462,23.006 5.76,23.316 5.76,23.424C3.975,25.371 2.055,27.306 0,29.225M-39.956,32.47C-40.796,34.283 -41.66,35.729 -42.553,36.81C-43.444,37.893 -44.297,38.433 -45.107,38.433C-46.136,38.433 -46.947,38.082 -47.542,37.378C-48.138,36.676 -48.597,35.837 -48.921,34.864C-49.246,33.89 -49.448,32.876 -49.529,31.821C-49.61,30.767 -49.651,29.914 -49.651,29.266C-47.597,27.59 -45.812,26.008 -44.297,24.519C-42.783,23.033 -41.619,21.883 -40.808,21.072C-39.943,20.098 -39.118,19.112 -38.334,18.11C-37.55,17.11 -36.779,16.177 -36.021,15.311C-36.021,15.96 -35.98,16.582 -35.899,17.177C-35.818,17.773 -35.644,18.313 -35.372,18.8C-36.021,21.396 -36.739,23.871 -37.522,26.223C-38.307,28.576 -39.118,30.659 -39.956,32.47M-47.988,18.11C-47.258,15.27 -46.313,12.445 -45.148,9.632C-43.986,6.821 -42.621,4.102 -41.052,1.478C-39.483,-1.144 -37.739,-3.442 -35.818,-5.417C-33.899,-7.391 -31.831,-8.973 -29.612,-10.163C-27.396,-11.352 -25.069,-11.948 -22.635,-11.948C-20.525,-11.948 -18.81,-11.664 -17.483,-11.096C-16.159,-10.528 -15.131,-9.798 -14.4,-8.906C-13.67,-8.013 -13.171,-7.012 -12.899,-5.904C-12.63,-4.795 -12.494,-3.7 -12.494,-2.618C-12.44,-0.238 -12.887,2.263 -13.832,4.886C-14.779,7.51 -16.037,9.944 -17.605,12.187C-19.174,14.433 -20.959,16.299 -22.96,17.786C-24.961,19.274 -27.016,20.045 -29.126,20.098C-30.965,20.098 -32.182,19.584 -32.776,18.557C-32.182,15.96 -31.668,13.433 -31.234,10.971C-30.803,8.51 -30.478,6.36 -30.261,4.521C-30.099,3.547 -30.018,2.736 -30.018,2.087L-30.018,2.006C-30.127,1.628 -30.208,1.438 -30.261,1.438C-30.424,1.276 -30.478,1.195 -30.424,1.195C-30.641,1.087 -30.829,1.033 -30.991,1.033L-31.316,1.033C-31.425,1.033 -31.506,1.046 -31.56,1.073C-31.614,1.101 -31.695,1.114 -31.803,1.114L-32.208,1.438L-32.208,1.519C-32.317,1.736 -32.492,2.115 -32.735,2.655C-32.979,3.196 -33.25,3.846 -33.547,4.602C-33.845,5.36 -34.169,6.198 -34.521,7.117C-34.873,8.038 -35.157,9.011 -35.372,10.038C-36.995,12.796 -39.402,15.933 -42.593,19.449C-43.242,20.152 -44.148,21.085 -45.311,22.248C-46.475,23.412 -47.84,24.696 -49.408,26.101C-49.192,23.615 -48.719,20.95 -47.988,18.11M-85.319,41.156C-85.617,41.065 -86.634,40.615 -86.951,38.675C-87.28,36.655 -86.341,33.562 -85.155,32.767C-84.9,32.595 -84.676,32.543 -84.28,32.785C-83.14,33.485 -82.871,35.93 -82.868,36.728C-82.867,37.075 -82.718,37.404 -82.457,37.631C-82.196,37.859 -81.849,37.962 -81.507,37.916L-78.419,37.495L-78.415,41.201L-85.319,41.156ZM116.661,24.722C116.499,24.452 116.269,24.29 115.972,24.235C115.674,24.182 115.39,24.264 115.12,24.479C111.441,27.454 108.103,29.902 105.101,31.821C102.099,33.742 99.448,35.228 97.15,36.283C94.851,37.338 92.958,37.987 91.471,38.23C89.984,38.474 88.97,38.38 88.429,37.946C87.889,37.459 87.617,36.973 87.617,36.486C87.617,36.108 87.727,35.526 87.941,34.742C88.158,33.958 88.646,32.944 89.401,31.7C90.16,30.455 91.269,28.941 92.729,27.156C92.884,26.966 93.049,26.77 93.216,26.572L93.46,26.345C93.656,26.187 93.795,26.007 93.877,25.806C95.173,24.333 96.763,22.674 98.651,20.828C99.138,20.233 99.138,19.639 98.651,19.043C98.164,18.665 97.623,18.665 97.028,19.043C95.017,21.069 93.263,22.953 91.767,24.696L90.782,25.615C89.213,26.859 87.428,28.266 85.428,29.833C83.426,31.403 81.412,32.835 79.383,34.133C77.355,35.431 75.395,36.474 73.501,37.257C71.607,38.041 70.013,38.271 68.715,37.946C67.687,37.731 67.012,37.135 66.687,36.162C66.2,34.81 66.431,32.823 67.376,30.199C67.832,28.933 68.401,27.582 69.078,26.147C69.196,26.005 69.27,25.848 69.304,25.677C69.979,24.274 70.754,22.795 71.636,21.234C73.528,17.881 75.813,14.297 78.491,10.484C81.168,6.671 84.021,2.871 87.05,-0.915L111.714,-2.537C112.578,-2.645 112.931,-3.05 112.768,-3.754C112.768,-4.132 112.646,-4.403 112.403,-4.566C112.159,-4.728 111.876,-4.809 111.551,-4.809L89.078,-3.43C89.835,-4.349 90.592,-5.255 91.35,-6.148C92.106,-7.04 92.863,-7.919 93.622,-8.784C93.892,-9.054 93.999,-9.338 93.946,-9.636C93.892,-9.933 93.784,-10.19 93.622,-10.407C93.351,-10.677 93.054,-10.785 92.729,-10.732C92.404,-10.677 92.106,-10.515 91.837,-10.245C90.916,-9.216 89.971,-8.108 88.997,-6.918C88.023,-5.728 86.995,-4.511 85.914,-3.267L74.962,-2.537C74.258,-2.32 73.907,-1.834 73.907,-1.077C74.015,-0.428 74.421,-0.103 75.124,-0.103L83.967,-0.752C81.316,2.601 78.693,6.117 76.098,9.794C73.501,13.473 71.243,17.015 69.323,20.422C68.509,21.868 67.784,23.267 67.14,24.625C65.153,26.123 63.218,27.307 61.333,28.17C59.386,29.062 57.56,29.671 55.856,29.996C54.152,30.32 52.651,30.374 51.354,30.158C50.056,29.942 49.027,29.455 48.271,28.698C47.675,28.158 47.283,27.413 47.095,26.466C46.904,25.521 46.878,24.493 47.014,23.384C47.147,22.276 47.391,21.1 47.744,19.854C48.095,18.611 48.567,17.367 49.163,16.122C49.434,15.582 49.244,15.068 48.596,14.581C48.379,14.474 48.135,14.447 47.865,14.5C47.594,14.555 47.379,14.69 47.217,14.906C46.405,15.771 45.484,16.826 44.458,18.07C43.537,19.152 42.47,20.45 41.253,21.964C40.036,23.479 38.67,25.237 37.156,27.237C37.588,25.615 37.696,24.438 37.48,23.708C37.264,22.978 36.913,22.451 36.426,22.126C35.885,21.694 35.263,21.505 34.561,21.558C33.856,21.613 33.14,21.789 32.41,22.086C31.68,22.384 30.977,22.775 30.301,23.262C29.624,23.749 29.097,24.209 28.719,24.641C28.717,24.642 28.716,24.644 28.714,24.645C25.31,27.456 22.336,29.741 19.796,31.496C17.252,33.255 15.076,34.62 13.265,35.594C11.451,36.567 9.938,37.23 8.721,37.581C7.504,37.933 6.517,38.108 5.76,38.108C5.002,38.108 4.516,38.001 4.3,37.784C4.083,37.569 3.921,37.406 3.813,37.297C3.488,36.648 3.501,35.675 3.854,34.376C4.205,33.079 4.772,31.646 5.558,30.077C6.341,28.509 7.232,26.913 8.234,25.29C9.234,23.667 10.222,22.207 11.195,20.909C11.411,20.639 11.492,20.355 11.439,20.058C11.385,19.761 11.223,19.503 10.952,19.287C10.519,18.854 9.979,18.881 9.33,19.368C8.843,20.071 8.193,20.828 7.383,21.64C7.111,21.262 6.584,20.815 5.801,20.301C5.016,19.787 3.947,19.422 2.596,19.205C0.54,18.773 -1.623,18.99 -3.895,19.854C-6.166,20.72 -8.654,22.126 -11.358,24.073C-11.579,24.245 -11.783,24.419 -11.993,24.593C-12.024,24.609 -12.057,24.622 -12.089,24.641C-15.171,27.237 -18.079,29.334 -20.81,30.929C-23.542,32.525 -26.029,33.701 -28.273,34.458C-30.519,35.216 -32.492,35.567 -34.196,35.512C-35.899,35.459 -37.266,35.107 -38.293,34.458C-37.319,32.673 -36.441,30.632 -35.656,28.332C-34.873,26.034 -34.155,23.641 -33.507,21.153C-32.967,21.586 -32.317,21.897 -31.56,22.086C-30.803,22.276 -29.991,22.37 -29.126,22.37C-26.691,22.37 -24.326,21.558 -22.026,19.935C-19.729,18.313 -17.687,16.272 -15.901,13.81C-14.116,11.35 -12.696,8.659 -11.643,5.738C-10.588,2.817 -10.088,0.032 -10.142,-2.618C-10.142,-6.35 -11.224,-9.243 -13.386,-11.299C-15.55,-13.354 -18.633,-14.382 -22.635,-14.382C-25.556,-14.382 -28.287,-13.679 -30.829,-12.273C-33.372,-10.865 -35.711,-9.014 -37.847,-6.715C-39.984,-4.416 -41.903,-1.793 -43.607,1.154C-45.311,4.102 -46.771,7.158 -47.988,10.322C-49.205,13.486 -50.152,16.609 -50.827,19.692C-51.505,22.775 -51.896,25.588 -52.004,28.13C-53.627,29.374 -55.385,30.618 -57.277,31.862C-59.171,33.106 -61.146,34.214 -63.199,35.188C-65.255,36.162 -67.391,36.946 -69.609,37.541C-71.721,38.108 -73.857,38.401 -76.02,38.428L-76.021,36.121C-76.022,35.774 -76.172,35.445 -76.433,35.218C-76.693,34.99 -77.042,34.887 -77.383,34.933L-80.572,35.368C-80.771,33.932 -81.351,31.768 -83.026,30.74C-84.178,30.035 -85.408,30.047 -86.492,30.775C-88.647,32.222 -89.762,36.343 -89.318,39.061C-88.671,43.027 -85.771,43.521 -85.647,43.539C-85.589,43.549 -85.53,43.554 -85.471,43.554L-77.222,43.607L-77.215,43.607C-76.897,43.607 -76.594,43.482 -76.368,43.258C-76.142,43.033 -76.015,42.726 -76.015,42.406L-76.017,40.7C-73.857,40.675 -71.735,40.409 -69.649,39.893C-67.459,39.353 -65.322,38.636 -63.24,37.744C-61.159,36.851 -59.171,35.81 -57.277,34.62C-55.385,33.431 -53.6,32.214 -51.923,30.969C-51.761,33.512 -51.302,35.594 -50.544,37.216C-49.3,39.542 -47.488,40.705 -45.107,40.705C-44.081,40.705 -43.107,40.327 -42.188,39.569C-41.269,38.812 -40.376,37.784 -39.51,36.486C-38.753,36.973 -37.996,37.311 -37.238,37.5C-36.481,37.69 -35.697,37.812 -34.886,37.865C-31.425,38.028 -27.625,37.108 -23.487,35.107C-21.57,34.18 -19.62,33.059 -17.64,31.76C-18.075,32.714 -18.381,33.642 -18.538,34.539C-18.728,35.621 -18.741,36.567 -18.579,37.378C-18.362,39.11 -17.496,40.246 -15.982,40.786C-15.711,40.893 -15.468,40.948 -15.253,40.948L-14.522,40.948C-13.332,40.948 -11.995,40.597 -10.507,39.893C-9.02,39.191 -7.492,38.285 -5.923,37.176C-4.354,36.068 -2.772,34.823 -1.177,33.444C0.418,32.064 1.919,30.672 3.326,29.266C2.515,30.997 1.906,32.687 1.501,34.336C1.095,35.987 1.162,37.325 1.703,38.352C1.974,38.839 2.405,39.326 3.002,39.812C3.596,40.299 4.516,40.542 5.76,40.542C8.356,40.542 11.642,39.366 15.617,37.013C19.544,34.689 24.331,31.188 29.975,26.515C30.122,26.457 30.271,26.373 30.423,26.264C31.179,25.507 32.071,24.872 33.1,24.357C34.127,23.844 34.804,23.722 35.128,23.992C35.397,24.426 35.371,25.264 35.047,26.507C34.775,27.59 34.195,29.091 33.303,31.01C32.41,32.93 31.017,35.512 29.124,38.758C28.962,39.029 28.907,39.313 28.962,39.609C29.016,39.907 29.178,40.11 29.448,40.218C29.557,40.272 29.664,40.34 29.773,40.421C29.881,40.502 29.989,40.542 30.098,40.542C30.638,40.542 30.962,40.353 31.071,39.975C34.154,35.486 36.913,31.605 39.347,28.332C41.78,25.061 43.809,22.478 45.432,20.584C44.673,22.424 44.417,24.182 44.66,25.858C44.904,27.535 45.458,28.914 46.323,29.996C47.297,31.186 48.608,31.983 50.259,32.389C51.908,32.795 53.747,32.835 55.775,32.511C57.804,32.186 59.939,31.511 62.185,30.482C63.254,29.993 64.32,29.421 65.384,28.772C65.242,29.157 65.108,29.537 64.982,29.914C64.01,32.835 63.82,35.188 64.415,36.973C65.064,38.65 66.281,39.731 68.065,40.218C68.391,40.272 68.674,40.299 68.918,40.299L69.688,40.299C71.311,40.299 73.082,39.893 75.002,39.082C76.922,38.271 78.869,37.23 80.844,35.959C82.772,34.717 84.689,33.37 86.594,31.92C85.592,33.829 85.146,35.433 85.265,36.729C85.319,37.975 85.914,38.975 87.049,39.731C87.428,40.002 87.874,40.218 88.388,40.38C88.902,40.542 89.456,40.623 90.051,40.623C91.458,40.623 93.12,40.299 95.04,39.65C96.96,39.001 99.057,38.068 101.328,36.851C103.6,35.634 106.02,34.147 108.589,32.389C111.157,30.632 113.821,28.617 116.58,26.345C116.851,26.129 116.999,25.872 117.026,25.574C117.053,25.278 116.932,24.994 116.661,24.722" style="fill-rule:nonzero;"/>
    </g>
</svg>
